<svg xmlns="http://www.w3.org/2000/svg" xmlns:xlink="http://www.w3.org/1999/xlink" width="113" height="113" viewBox="0 0 113 113">
  <defs>
    <filter id="Trazado_982547" x="0" y="0" width="113" height="113" filterUnits="userSpaceOnUse">
      <feOffset dy="3" input="SourceAlpha"/>
      <feGaussianBlur stdDeviation="3" result="blur"/>
      <feFlood flood-opacity="0.161"/>
      <feComposite operator="in" in2="blur"/>
      <feComposite in="SourceGraphic"/>
    </filter>
  </defs>
  <g id="Grupo_1242756" data-name="Grupo 1242756" transform="translate(-376 -3500.39)">
    <g id="Grupo_1242092" data-name="Grupo 1242092" transform="translate(0 -464)">
      <g id="Grupo_1235695" data-name="Grupo 1235695" transform="translate(385 3970.39)">
        <g id="Grupo_1241232" data-name="Grupo 1241232">
          <g id="Grupo_1240425" data-name="Grupo 1240425" transform="translate(0 0)">
            <g id="Grupo_1239772" data-name="Grupo 1239772">
              <g id="Grupo_1236602" data-name="Grupo 1236602">
                <g id="Grupo_1236144" data-name="Grupo 1236144">
                  <g id="Grupo_1235105" data-name="Grupo 1235105">
                    <g id="Grupo_1223793" data-name="Grupo 1223793">
                      <g id="Grupo_1208028" data-name="Grupo 1208028">
                        <g id="Grupo_1177675" data-name="Grupo 1177675">
                          <g id="Grupo_1176928" data-name="Grupo 1176928">
                            <g id="Grupo_1172322" data-name="Grupo 1172322">
                              <g id="Grupo_1164700" data-name="Grupo 1164700">
                                <g id="Grupo_1160931" data-name="Grupo 1160931">
                                  <g id="Grupo_1160749" data-name="Grupo 1160749">
                                    <g id="Grupo_1158891" data-name="Grupo 1158891">
                                      <g id="Grupo_1157406" data-name="Grupo 1157406">
                                        <g id="Grupo_1155793" data-name="Grupo 1155793">
                                          <g id="Grupo_1154704" data-name="Grupo 1154704">
                                            <g id="Grupo_1150790" data-name="Grupo 1150790">
                                              <g id="Grupo_1154214" data-name="Grupo 1154214">
                                                <g id="Grupo_1152583" data-name="Grupo 1152583">
                                                  <g id="Grupo_1146973" data-name="Grupo 1146973">
                                                    <g id="Grupo_1146954" data-name="Grupo 1146954">
                                                      <g transform="matrix(1, 0, 0, 1, -9, -6)" filter="url(#Trazado_982547)">
                                                        <g id="Trazado_982547-2" data-name="Trazado 982547" transform="translate(9 6)" fill="#ffe1b9">
                                                          <path d="M 47.50000762939453 93.49986267089844 C 41.28937911987305 93.49986267089844 35.26534271240234 92.28383636474609 29.59519386291504 89.88558197021484 C 24.11772727966309 87.56880950927734 19.19814109802246 84.25183868408203 14.97310066223145 80.02679443359375 C 10.74804782867432 75.8017578125 7.431074142456055 70.88218688964844 5.114300727844238 65.40471649169922 C 2.716034412384033 59.73458480834961 1.500007629394531 53.71054458618164 1.500007629394531 47.49993133544922 C 1.500007629394531 41.2893180847168 2.716034412384033 35.26527786254883 5.114300727844238 29.59514427185059 C 7.431074142456055 24.11767768859863 10.74804782867432 19.19810485839844 14.97310066223145 14.97306442260742 C 19.19814109802246 10.74802494049072 24.11772727966309 7.431051254272461 29.59519386291504 5.114277839660645 C 35.26534271240234 2.71602463722229 41.28937911987305 1.499997973442078 47.50000762939453 1.499997973442078 C 53.71063613891602 1.499997973442078 59.73467254638672 2.71602463722229 65.40482330322266 5.114277839660645 C 70.88228607177734 7.431051254272461 75.80187225341797 10.74802494049072 80.02691650390625 14.97306442260742 C 84.25196838378906 19.19810485839844 87.56893920898438 24.11767768859863 89.88571166992188 29.59514427185059 C 92.28398132324219 35.26527786254883 93.50000762939453 41.2893180847168 93.50000762939453 47.49993133544922 C 93.50000762939453 53.71054458618164 92.28398132324219 59.73458480834961 89.88571166992188 65.40471649169922 C 87.56893920898438 70.88218688964844 84.25196838378906 75.8017578125 80.02691650390625 80.02679443359375 C 75.80187225341797 84.25183868408203 70.88228607177734 87.56880950927734 65.40482330322266 89.88558197021484 C 59.73467254638672 92.28383636474609 53.71063613891602 93.49986267089844 47.50000762939453 93.49986267089844 Z" stroke="none"/>
                                                          <path d="M 47.50000762939453 2.999992370605469 C 41.4912223815918 2.999992370605469 35.66377639770508 4.1761474609375 30.17951202392578 6.495796203613281 C 24.88085174560547 8.736930847167969 20.12152862548828 11.94596099853516 16.03376007080078 16.03372955322266 C 11.94597625732422 20.12148284912109 8.736961364746094 24.88080596923828 6.495803833007812 30.17946624755859 C 4.176162719726562 35.66371536254883 3.000007629394531 41.49116134643555 3.000007629394531 47.49993133544922 C 3.000007629394531 53.50870132446289 4.176162719726562 59.33614730834961 6.495803833007812 64.82038879394531 C 8.736961364746094 70.11905670166016 11.94597625732422 74.87836456298828 16.03376007080078 78.96613311767578 C 20.12152862548828 83.05390167236328 24.88085174560547 86.26291656494141 30.17951202392578 88.50406646728516 C 35.66377639770508 90.82369995117188 41.4912223815918 91.99985504150391 47.50000762939453 91.99985504150391 C 53.50879287719727 91.99985504150391 59.33623886108398 90.82369995117188 64.82049560546875 88.50406646728516 C 70.11916351318359 86.26291656494141 74.87848663330078 83.05390167236328 78.96625518798828 78.96613311767578 C 83.05403900146484 74.87836456298828 86.26305389404297 70.11905670166016 88.50421142578125 64.82038879394531 C 90.8238525390625 59.33614730834961 92.00000762939453 53.50870132446289 92.00000762939453 47.49993133544922 C 92.00000762939453 41.49116134643555 90.8238525390625 35.66371536254883 88.50421142578125 30.17946624755859 C 86.26305389404297 24.88080596923828 83.05403900146484 20.12148284912109 78.96625518798828 16.03372955322266 C 74.87848663330078 11.94596099853516 70.11916351318359 8.736930847167969 64.82049560546875 6.495796203613281 C 59.33623886108398 4.1761474609375 53.50879287719727 2.999992370605469 47.50000762939453 2.999992370605469 M 47.50000762939453 -7.62939453125e-06 C 73.73352813720703 -7.62939453125e-06 95.00000762939453 21.26644134521484 95.00000762939453 47.49993133544922 C 95.00000762939453 73.73342132568359 73.73352813720703 94.99985504150391 47.50000762939453 94.99985504150391 C 21.26648712158203 94.99985504150391 7.62939453125e-06 73.73342132568359 7.62939453125e-06 47.49993133544922 C 7.62939453125e-06 21.26644134521484 21.26648712158203 -7.62939453125e-06 47.50000762939453 -7.62939453125e-06 Z" stroke="none" fill="#ff9d1c"/>
                                                        </g>
                                                      </g>
                                                    </g>
                                                  </g>
                                                </g>
                                              </g>
                                            </g>
                                          </g>
                                        </g>
                                      </g>
                                    </g>
                                  </g>
                                </g>
                              </g>
                            </g>
                          </g>
                        </g>
                      </g>
                    </g>
                  </g>
                </g>
              </g>
            </g>
          </g>
        </g>
      </g>
    </g>
    <g id="_6._Signature" data-name="6. Signature" transform="translate(405 3523.067)">
      <rect id="Rectángulo_423536" data-name="Rectángulo 423536" width="42.448" height="59.427" rx="16" transform="translate(0.943 0.943)" fill="#f6f6f6"/>
      <path id="Trazado_1299078" data-name="Trazado 1299078" d="M48.456,465.926H9.926A1.926,1.926,0,0,1,8,464v2.89a1.926,1.926,0,0,0,1.926,1.926H48.456a1.926,1.926,0,0,0,1.926-1.926V464A1.926,1.926,0,0,1,48.456,465.926Z" transform="translate(-7.037 -408.133)" fill="#dcdcdc"/>
      <path id="Trazado_1299079" data-name="Trazado 1299079" d="M41.419,61.646H2.89A2.89,2.89,0,0,1,0,58.757V2.89A2.89,2.89,0,0,1,2.89,0H41.419a2.89,2.89,0,0,1,2.89,2.89V15.412a.963.963,0,0,1-1.926,0V2.89a.963.963,0,0,0-.963-.963H2.89a.963.963,0,0,0-.963.963V58.757a.963.963,0,0,0,.963.963H41.419a.963.963,0,0,0,.963-.963V51.051a.963.963,0,1,1,1.926,0v7.706A2.89,2.89,0,0,1,41.419,61.646Z"/>
      <path id="Trazado_1299080" data-name="Trazado 1299080" d="M352.963,194.97a.963.963,0,0,1-.963-.963V168.963a.963.963,0,1,1,1.926,0v25.044A.963.963,0,0,1,352.963,194.97Z" transform="translate(-309.618 -147.772)"/>
      <path id="Trazado_1299081" data-name="Trazado 1299081" d="M79.786,193.926H48.963a.963.963,0,0,1,0-1.926H79.786a.963.963,0,0,1,0,1.926Z" transform="translate(-42.221 -168.883)"/>
      <path id="Trazado_1299082" data-name="Trazado 1299082" d="M79.786,233.926H48.963a.963.963,0,1,1,0-1.926H79.786a.963.963,0,1,1,0,1.926Z" transform="translate(-42.221 -204.066)"/>
      <path id="Trazado_1299083" data-name="Trazado 1299083" d="M79.786,273.926H48.963a.963.963,0,0,1,0-1.926H79.786a.963.963,0,0,1,0,1.926Z" transform="translate(-42.221 -239.25)"/>
      <path id="Trazado_1299084" data-name="Trazado 1299084" d="M79.786,313.926H48.963a.963.963,0,0,1,0-1.926H79.786a.963.963,0,0,1,0,1.926Z" transform="translate(-42.221 -274.434)"/>
      <path id="Trazado_1299085" data-name="Trazado 1299085" d="M79.786,353.926H48.963a.963.963,0,0,1,0-1.926H79.786a.963.963,0,0,1,0,1.926Z" transform="translate(-42.221 -309.618)"/>
      <path id="Trazado_1299086" data-name="Trazado 1299086" d="M464,256h4.816v16.375H464Z" transform="translate(-408.133 -225.177)" fill="#a8edfd"/>
      <path id="Trazado_1299087" data-name="Trazado 1299087" d="M464,368h4.816v2.89H464Z" transform="translate(-408.133 -323.692)" fill="#8bd4de"/>
      <path id="Trazado_1299088" data-name="Trazado 1299088" d="M461.779,266.3h-4.816a.963.963,0,0,1-.963-.963V248.963a.963.963,0,0,1,.963-.963h4.816a.963.963,0,0,1,.963.963v16.375A.963.963,0,0,1,461.779,266.3Zm-3.853-1.926h2.89V249.926h-2.89Z" transform="translate(-401.096 -218.14)"/>
      <path id="Trazado_1299089" data-name="Trazado 1299089" d="M213.186,243.335c-5.319,11.4-5.174,11.113-5.186,11.113a4.083,4.083,0,0,0,4.637-1.533l2.233-3.191a9.294,9.294,0,0,1,7.578-3.946,2.89,2.89,0,1,1,0,5.779H218.6a4.816,4.816,0,0,0-4.816,4.816h9.234a3.289,3.289,0,0,1,2.324.963,3.289,3.289,0,0,0,2.326.964h6.531a3.3,3.3,0,0,0,1.471-.347l3.158-1.58V243.853H237.7a6.579,6.579,0,0,1-4.651-1.926A6.578,6.578,0,0,0,228.393,240h-9.969a5.779,5.779,0,0,0-5.238,3.336Z" transform="translate(-182.956 -211.103)" fill="#e0c3aa"/>
      <path id="Trazado_1299090" data-name="Trazado 1299090" d="M200.648,248.325A.963.963,0,0,1,200.08,247l5.186-11.113a6.768,6.768,0,0,1,6.11-3.888h9.969a7.491,7.491,0,0,1,5.333,2.208,5.573,5.573,0,0,0,3.973,1.645h1.125a.963.963,0,0,1,.963.963V242.6a.963.963,0,0,1-1.926,0v-4.816h-.165a7.491,7.491,0,0,1-5.333-2.208,5.573,5.573,0,0,0-3.973-1.645h-9.969a4.834,4.834,0,0,0-4.365,2.779l-4.638,9.948a3.138,3.138,0,0,0,2.43-1.324l2.235-3.192a10.223,10.223,0,0,1,8.367-4.357,3.853,3.853,0,0,1,3.853,3.853.963.963,0,0,1-1.926,0,1.926,1.926,0,0,0-1.926-1.926,8.288,8.288,0,0,0-6.787,3.534l-2.236,3.192a5.077,5.077,0,0,1-5.73,1.894Z" transform="translate(-175.909 -204.066)"/>
      <path id="Trazado_1299091" data-name="Trazado 1299091" d="M0,0H5.779V28.9H0Z" transform="matrix(0.857, 0.516, -0.516, 0.857, 40.498, 22.697)" fill="#6fc3e2"/>
      <path id="Trazado_1299092" data-name="Trazado 1299092" d="M210.035,209.9l-4.952-2.98a.963.963,0,0,1-.329-1.324l14.9-24.756a.963.963,0,0,1,1.324-.329l4.952,2.98a.963.963,0,0,1,.329,1.324l-14.9,24.756A.963.963,0,0,1,210.035,209.9Zm-3.13-4.133,3.3,1.987,13.907-23.109-3.3-1.987Z" transform="translate(-179.979 -158.658)"/>
      <path id="Trazado_1299093" data-name="Trazado 1299093" d="M208.943,394.01l-.5,6.443,5.455-3.463Z" transform="translate(-183.343 -346.57)" fill="#a6806f"/>
      <path id="Trazado_1299094" data-name="Trazado 1299094" d="M200.438,393.344l.5-6.442a.963.963,0,0,1,1.457-.75l4.952,2.98a.963.963,0,0,1,.019,1.639l-5.457,3.462a.963.963,0,0,1-1.476-.889Zm2.3-4.738-.232,2.968,2.513-1.588Z" transform="translate(-176.302 -339.537)"/>
      <path id="Trazado_1299095" data-name="Trazado 1299095" d="M267.559,312a2.89,2.89,0,0,1-2.89,2.89h-3.853A4.816,4.816,0,0,0,256,319.706h9.234a3.289,3.289,0,0,1,2.324.963,3.289,3.289,0,0,0,2.326.964h6.531a3.3,3.3,0,0,0,1.471-.347l3.158-1.58v-6.743" transform="translate(-225.177 -274.434)" fill="#e0c3aa"/>
      <path id="Trazado_1299096" data-name="Trazado 1299096" d="M276.414,353.926h-6.531a3.289,3.289,0,0,1-2.324-.963,3.29,3.29,0,0,0-2.326-.964h-8.271a4.8,4.8,0,0,0-.963,2.89h9.234a3.289,3.289,0,0,1,2.324.963,3.29,3.29,0,0,0,2.326.964h6.531a3.3,3.3,0,0,0,1.471-.347l3.158-1.58V352l-3.158,1.58A3.3,3.3,0,0,1,276.414,353.926Z" transform="translate(-225.177 -309.618)" fill="#d0a37f"/>
      <path id="Trazado_1299097" data-name="Trazado 1299097" d="M269.378,315.559h-6.531a4.224,4.224,0,0,1-3.01-1.245,2.306,2.306,0,0,0-1.64-.681h-9.234a.963.963,0,0,1-.963-.963,5.785,5.785,0,0,1,5.779-5.779h3.853a1.926,1.926,0,0,0,1.926-1.926.963.963,0,0,1,1.926,0,3.853,3.853,0,0,1-3.853,3.853h-3.853a3.86,3.86,0,0,0-3.733,2.89H258.2a4.224,4.224,0,0,1,3.01,1.245,2.306,2.306,0,0,0,1.641.681h6.531a2.347,2.347,0,0,0,1.04-.241l2.626-1.317v-6.148a.963.963,0,0,1,1.926,0v6.743a.963.963,0,0,1-.532.862l-3.159,1.578A4.266,4.266,0,0,1,269.378,315.559Z" transform="translate(-218.14 -267.397)"/>
      <path id="Trazado_1299098" data-name="Trazado 1299098" d="M341.329,163.454a2.89,2.89,0,0,0-3.966.986l-.993,1.651,4.952,2.98.993-1.651A2.89,2.89,0,0,0,341.329,163.454Z" transform="translate(-295.87 -143.409)" fill="#5f79a5"/>
      <path id="Trazado_1299099" data-name="Trazado 1299099" d="M333.785,162.855l-4.952-2.98a.963.963,0,0,1-.329-1.324l.993-1.651a3.853,3.853,0,0,1,6.6,3.973l-.993,1.651A.963.963,0,0,1,333.785,162.855Zm-3.13-4.133,3.3,1.987.5-.825a1.93,1.93,0,1,0-3.306-1.991Z" transform="translate(-288.829 -136.366)"/>
      <path id="Trazado_1299100" data-name="Trazado 1299100" d="M112.972,443.841a.963.963,0,0,1-.769-1.541l.8-1.064a3.118,3.118,0,0,1,4.992,0,3.13,3.13,0,0,1,4.173.679h12.96a.963.963,0,1,1,0,1.926H121.641a.963.963,0,0,1-.862-.532,1.188,1.188,0,0,0-2.129,0,.963.963,0,0,1-1.724,0l-.367-.736a1.19,1.19,0,0,0-2.022-.177l-.8,1.064A.963.963,0,0,1,112.972,443.841Z" transform="translate(-98.524 -387.011)"/>
      <path id="Trazado_1299101" data-name="Trazado 1299101" d="M56,56H86.823v7.706H56Z" transform="translate(-49.257 -49.257)" fill="#ead590"/>
      <path id="Trazado_1299102" data-name="Trazado 1299102" d="M56,96H86.823v2.89H56Z" transform="translate(-49.257 -84.441)" fill="#f1cb66"/>
      <path id="Trazado_1299103" data-name="Trazado 1299103" d="M79.786,57.632H48.963A.963.963,0,0,1,48,56.669V48.963A.963.963,0,0,1,48.963,48H79.786a.963.963,0,0,1,.963.963v7.706A.963.963,0,0,1,79.786,57.632Zm-29.86-1.926h28.9V49.926h-28.9Z" transform="translate(-42.221 -42.221)"/>
      <path id="Trazado_1299104" data-name="Trazado 1299104" d="M62.448,153.926H48.963a.963.963,0,0,1,0-1.926H62.448a.963.963,0,1,1,0,1.926Z" transform="translate(-42.221 -133.699)"/>
    </g>
  </g>
</svg>
