<svg xmlns="http://www.w3.org/2000/svg" xmlns:xlink="http://www.w3.org/1999/xlink" width="113" height="113" viewBox="0 0 113 113">
  <defs>
    <filter id="Trazado_982547" x="0" y="0" width="113" height="113" filterUnits="userSpaceOnUse">
      <feOffset dy="3" input="SourceAlpha"/>
      <feGaussianBlur stdDeviation="3" result="blur"/>
      <feFlood flood-opacity="0.161"/>
      <feComposite operator="in" in2="blur"/>
      <feComposite in="SourceGraphic"/>
    </filter>
  </defs>
  <g id="Grupo_1242768" data-name="Grupo 1242768" transform="translate(-4681.49 -3419.39)">
    <g id="Grupo_1242261" data-name="Grupo 1242261" transform="translate(4305.49 -545)">
      <g id="Grupo_1235695" data-name="Grupo 1235695" transform="translate(385 3970.39)">
        <g id="Grupo_1241232" data-name="Grupo 1241232">
          <g id="Grupo_1240425" data-name="Grupo 1240425" transform="translate(0 0)">
            <g id="Grupo_1239772" data-name="Grupo 1239772">
              <g id="Grupo_1236602" data-name="Grupo 1236602">
                <g id="Grupo_1236144" data-name="Grupo 1236144">
                  <g id="Grupo_1235105" data-name="Grupo 1235105">
                    <g id="Grupo_1223793" data-name="Grupo 1223793">
                      <g id="Grupo_1208028" data-name="Grupo 1208028">
                        <g id="Grupo_1177675" data-name="Grupo 1177675">
                          <g id="Grupo_1176928" data-name="Grupo 1176928">
                            <g id="Grupo_1172322" data-name="Grupo 1172322">
                              <g id="Grupo_1164700" data-name="Grupo 1164700">
                                <g id="Grupo_1160931" data-name="Grupo 1160931">
                                  <g id="Grupo_1160749" data-name="Grupo 1160749">
                                    <g id="Grupo_1158891" data-name="Grupo 1158891">
                                      <g id="Grupo_1157406" data-name="Grupo 1157406">
                                        <g id="Grupo_1155793" data-name="Grupo 1155793">
                                          <g id="Grupo_1154704" data-name="Grupo 1154704">
                                            <g id="Grupo_1150790" data-name="Grupo 1150790">
                                              <g id="Grupo_1154214" data-name="Grupo 1154214">
                                                <g id="Grupo_1152583" data-name="Grupo 1152583">
                                                  <g id="Grupo_1146973" data-name="Grupo 1146973">
                                                    <g id="Grupo_1146954" data-name="Grupo 1146954">
                                                      <g transform="matrix(1, 0, 0, 1, -9, -6)" filter="url(#Trazado_982547)">
                                                        <g id="Trazado_982547-2" data-name="Trazado 982547" transform="translate(9 6)" fill="#ffe1b9">
                                                          <path d="M 47.50000762939453 93.49986267089844 C 41.28937911987305 93.49986267089844 35.26534271240234 92.28383636474609 29.59519386291504 89.88558197021484 C 24.11772727966309 87.56880950927734 19.19814109802246 84.25183868408203 14.97310066223145 80.02679443359375 C 10.74804782867432 75.8017578125 7.431074142456055 70.88218688964844 5.114300727844238 65.40471649169922 C 2.716034412384033 59.73458480834961 1.500007629394531 53.71054458618164 1.500007629394531 47.49993133544922 C 1.500007629394531 41.2893180847168 2.716034412384033 35.26527786254883 5.114300727844238 29.59514427185059 C 7.431074142456055 24.11767768859863 10.74804782867432 19.19810485839844 14.97310066223145 14.97306442260742 C 19.19814109802246 10.74802494049072 24.11772727966309 7.431051254272461 29.59519386291504 5.114277839660645 C 35.26534271240234 2.71602463722229 41.28937911987305 1.499997973442078 47.50000762939453 1.499997973442078 C 53.71063613891602 1.499997973442078 59.73467254638672 2.71602463722229 65.40482330322266 5.114277839660645 C 70.88228607177734 7.431051254272461 75.80187225341797 10.74802494049072 80.02691650390625 14.97306442260742 C 84.25196838378906 19.19810485839844 87.56893920898438 24.11767768859863 89.88571166992188 29.59514427185059 C 92.28398132324219 35.26527786254883 93.50000762939453 41.2893180847168 93.50000762939453 47.49993133544922 C 93.50000762939453 53.71054458618164 92.28398132324219 59.73458480834961 89.88571166992188 65.40471649169922 C 87.56893920898438 70.88218688964844 84.25196838378906 75.8017578125 80.02691650390625 80.02679443359375 C 75.80187225341797 84.25183868408203 70.88228607177734 87.56880950927734 65.40482330322266 89.88558197021484 C 59.73467254638672 92.28383636474609 53.71063613891602 93.49986267089844 47.50000762939453 93.49986267089844 Z" stroke="none"/>
                                                          <path d="M 47.50000762939453 2.999992370605469 C 41.4912223815918 2.999992370605469 35.66377639770508 4.1761474609375 30.17951202392578 6.495796203613281 C 24.88085174560547 8.736930847167969 20.12152862548828 11.94596099853516 16.03376007080078 16.03372955322266 C 11.94597625732422 20.12148284912109 8.736961364746094 24.88080596923828 6.495803833007812 30.17946624755859 C 4.176162719726562 35.66371536254883 3.000007629394531 41.49116134643555 3.000007629394531 47.49993133544922 C 3.000007629394531 53.50870132446289 4.176162719726562 59.33614730834961 6.495803833007812 64.82038879394531 C 8.736961364746094 70.11905670166016 11.94597625732422 74.87836456298828 16.03376007080078 78.96613311767578 C 20.12152862548828 83.05390167236328 24.88085174560547 86.26291656494141 30.17951202392578 88.50406646728516 C 35.66377639770508 90.82369995117188 41.4912223815918 91.99985504150391 47.50000762939453 91.99985504150391 C 53.50879287719727 91.99985504150391 59.33623886108398 90.82369995117188 64.82049560546875 88.50406646728516 C 70.11916351318359 86.26291656494141 74.87848663330078 83.05390167236328 78.96625518798828 78.96613311767578 C 83.05403900146484 74.87836456298828 86.26305389404297 70.11905670166016 88.50421142578125 64.82038879394531 C 90.8238525390625 59.33614730834961 92.00000762939453 53.50870132446289 92.00000762939453 47.49993133544922 C 92.00000762939453 41.49116134643555 90.8238525390625 35.66371536254883 88.50421142578125 30.17946624755859 C 86.26305389404297 24.88080596923828 83.05403900146484 20.12148284912109 78.96625518798828 16.03372955322266 C 74.87848663330078 11.94596099853516 70.11916351318359 8.736930847167969 64.82049560546875 6.495796203613281 C 59.33623886108398 4.1761474609375 53.50879287719727 2.999992370605469 47.50000762939453 2.999992370605469 M 47.50000762939453 -7.62939453125e-06 C 73.73352813720703 -7.62939453125e-06 95.00000762939453 21.26644134521484 95.00000762939453 47.49993133544922 C 95.00000762939453 73.73342132568359 73.73352813720703 94.99985504150391 47.50000762939453 94.99985504150391 C 21.26648712158203 94.99985504150391 7.62939453125e-06 73.73342132568359 7.62939453125e-06 47.49993133544922 C 7.62939453125e-06 21.26644134521484 21.26648712158203 -7.62939453125e-06 47.50000762939453 -7.62939453125e-06 Z" stroke="none" fill="#ff9d1c"/>
                                                        </g>
                                                      </g>
                                                    </g>
                                                  </g>
                                                </g>
                                              </g>
                                            </g>
                                          </g>
                                        </g>
                                      </g>
                                    </g>
                                  </g>
                                </g>
                              </g>
                            </g>
                          </g>
                        </g>
                      </g>
                    </g>
                  </g>
                </g>
              </g>
            </g>
          </g>
        </g>
      </g>
    </g>
    <g id="reporte-de-negocios" transform="translate(4648.016 3441.379)">
      <g id="Grupo_1242761" data-name="Grupo 1242761" transform="translate(67.593 0.923)">
        <path id="Trazado_1299121" data-name="Trazado 1299121" d="M74.171,7.5h44.763V68.676H74.171Z" transform="translate(-74.171 -7.5)" fill="#ecf4ff"/>
      </g>
      <g id="Grupo_1242762" data-name="Grupo 1242762" transform="translate(67.728 36.472)">
        <path id="Trazado_1299122" data-name="Trazado 1299122" d="M103.828,310.219A75.055,75.055,0,0,1,75.269,321.93H119.9V296.3A80.239,80.239,0,0,1,103.828,310.219Z" transform="translate(-75.269 -296.303)" fill="#cbe2ff"/>
      </g>
      <g id="Grupo_1242765" data-name="Grupo 1242765" transform="translate(71.572 12.984)">
        <g id="Grupo_1242763" data-name="Grupo 1242763" transform="translate(0 0)">
          <path id="Trazado_1299123" data-name="Trazado 1299123" d="M112.713,111.7v-6.217a6.217,6.217,0,1,0,6.217,6.217Z" transform="translate(-106.496 -105.486)" fill="#e49542"/>
        </g>
        <g id="Grupo_1242764" data-name="Grupo 1242764" transform="translate(6.217)">
          <path id="Trazado_1299124" data-name="Trazado 1299124" d="M157,105.486V111.7h6.217A6.217,6.217,0,0,0,157,105.486Z" transform="translate(-157.004 -105.486)" fill="#c8ea73"/>
        </g>
      </g>
      <g id="Grupo_1242766" data-name="Grupo 1242766" transform="translate(80.027 4.902)">
        <path id="Trazado_1299125" data-name="Trazado 1299125" d="M175.187,39.825h19.895V43.8H175.187Z" transform="translate(-175.187 -39.825)" fill="#4073c8"/>
      </g>
      <g id="Grupo_1242774" data-name="Grupo 1242774" transform="translate(72.07 35.739)">
        <g id="Grupo_1242767" data-name="Grupo 1242767" transform="translate(0 18.402)">
          <path id="Trazado_1299126" data-name="Trazado 1299126" d="M110.537,439.85h5.968v3.979h-5.968Z" transform="translate(-110.537 -439.85)" fill="#4073c8"/>
        </g>
        <g id="Grupo_1242768-2" data-name="Grupo 1242768" transform="translate(9.947 12.434)">
          <path id="Trazado_1299127" data-name="Trazado 1299127" d="M191.35,391.362h5.968v9.947H191.35Z" transform="translate(-191.35 -391.362)" fill="#e49542"/>
        </g>
        <g id="Grupo_1242769" data-name="Grupo 1242769" transform="translate(9.947 19.494)">
          <path id="Trazado_1299128" data-name="Trazado 1299128" d="M197.317,448.718q-2.984,1.519-5.968,2.735v.152h5.968Z" transform="translate(-191.349 -448.718)" fill="#e28424"/>
        </g>
        <g id="Grupo_1242770" data-name="Grupo 1242770" transform="translate(19.895 4.974)">
          <path id="Trazado_1299129" data-name="Trazado 1299129" d="M272.163,330.752h5.968V348.16h-5.968Z" transform="translate(-272.163 -330.752)" fill="#dd5790"/>
        </g>
        <g id="Grupo_1242771" data-name="Grupo 1242771" transform="translate(19.895 13.529)">
          <path id="Trazado_1299130" data-name="Trazado 1299130" d="M278.131,400.26q-.813.566-1.645,1.12-2.147,1.421-4.324,2.681v5.052h5.968V400.26Z" transform="translate(-272.163 -400.26)" fill="#da387d"/>
        </g>
        <g id="Grupo_1242772" data-name="Grupo 1242772" transform="translate(29.842)">
          <path id="Trazado_1299131" data-name="Trazado 1299131" d="M352.976,290.346h5.968v22.381h-5.968Z" transform="translate(-352.976 -290.346)" fill="#c8ea73"/>
        </g>
        <g id="Grupo_1242773" data-name="Grupo 1242773" transform="translate(29.842 5.41)">
          <path id="Trazado_1299132" data-name="Trazado 1299132" d="M358.943,334.3c-1.858,1.782-3.85,3.514-5.968,5.18V351.27h5.968Z" transform="translate(-352.975 -334.299)" fill="#b7e445"/>
        </g>
      </g>
      <g id="Grupo_1242775" data-name="Grupo 1242775" transform="translate(66.67)">
        <path id="Trazado_1299133" data-name="Trazado 1299133" d="M112.356,0H67.593a.923.923,0,0,0-.923.923V44.775a.923.923,0,1,0,1.846,0V1.846h42.917v5.8a.923.923,0,1,0,1.846,0V.923A.923.923,0,0,0,112.356,0Z" transform="translate(-66.67 0)"/>
        <path id="Trazado_1299134" data-name="Trazado 1299134" d="M112.356,89.65a.923.923,0,0,0-.923.923v49.218H68.516V127.7a.923.923,0,1,0-1.846,0v13.016a.923.923,0,0,0,.923.923h44.763a.923.923,0,0,0,.923-.923V90.573A.923.923,0,0,0,112.356,89.65Z" transform="translate(-66.67 -78.615)"/>
        <path id="Trazado_1299135" data-name="Trazado 1299135" d="M99,105.126a7.14,7.14,0,1,0,7.14-7.14A7.148,7.148,0,0,0,99,105.126Zm7.14,5.294a5.293,5.293,0,0,1-.923-10.506v5.212a.923.923,0,0,0,.923.923h5.212A5.3,5.3,0,0,1,106.136,110.42Zm5.212-6.217h-4.288V99.915A5.306,5.306,0,0,1,111.348,104.2Z" transform="translate(-95.017 -85.925)"/>
        <path id="Trazado_1299136" data-name="Trazado 1299136" d="M103.959,432.35a.923.923,0,0,0-.923.923v3.979a.923.923,0,0,0,.923.923h5.968a.923.923,0,0,0,.923-.923v-3.979a.923.923,0,0,0-.923-.923ZM109,436.329h-4.122V434.2H109Z" transform="translate(-98.56 -379.132)"/>
        <path id="Trazado_1299137" data-name="Trazado 1299137" d="M184.773,395.656h5.968a.923.923,0,0,0,.923-.923v-9.947a.923.923,0,0,0-.923-.923h-5.968a.923.923,0,0,0-.923.923v9.947A.923.923,0,0,0,184.773,395.656Zm.923-9.947h4.122v8.1H185.7Z" transform="translate(-169.426 -336.612)"/>
        <path id="Trazado_1299138" data-name="Trazado 1299138" d="M265.586,323.252a.923.923,0,0,0-.923.923v17.408a.923.923,0,0,0,.923.923h5.968a.923.923,0,0,0,.923-.923V324.175a.923.923,0,0,0-.923-.923Zm5.045,17.408h-4.122V325.1h4.122Z" transform="translate(-240.292 -283.463)"/>
        <path id="Trazado_1299139" data-name="Trazado 1299139" d="M352.371,287.952a.923.923,0,0,0,.923-.923v-3.256a.923.923,0,0,0-.923-.923H346.4a.923.923,0,0,0-.923.923v22.38a.923.923,0,0,0,.923.923h5.967a.923.923,0,0,0,.923-.923V291.337a.923.923,0,0,0-1.846,0V305.23h-4.121V284.7h4.121v2.333A.923.923,0,0,0,352.371,287.952Z" transform="translate(-311.161 -248.034)"/>
        <path id="Trazado_1299140" data-name="Trazado 1299140" d="M188.5,32.325H168.61a.923.923,0,0,0-.923.923v3.979a.923.923,0,0,0,.923.923H188.5a.923.923,0,0,0,.923-.923V33.248a.923.923,0,0,0-.923-.923Zm-.923,3.979H169.533V34.171h18.048V36.3Z" transform="translate(-155.253 -28.346)"/>
        <path id="Trazado_1299141" data-name="Trazado 1299141" d="M267.826,97.986h-18.4a.923.923,0,1,0,0,1.846h18.4a.923.923,0,1,0,0-1.846Z" transform="translate(-226.119 -85.925)"/>
        <path id="Trazado_1299142" data-name="Trazado 1299142" d="M267.826,131.658h-18.4a.923.923,0,1,0,0,1.846h18.4a.923.923,0,1,0,0-1.846Z" transform="translate(-226.119 -115.452)"/>
        <path id="Trazado_1299143" data-name="Trazado 1299143" d="M268.749,166.253a.923.923,0,0,0-.923-.923h-18.4a.923.923,0,1,0,0,1.846h18.4A.923.923,0,0,0,268.749,166.253Z" transform="translate(-226.119 -144.98)"/>
        <path id="Trazado_1299144" data-name="Trazado 1299144" d="M261.288,199.925a.923.923,0,0,0-.923-.923H249.423a.923.923,0,1,0,0,1.846h10.942A.923.923,0,0,0,261.288,199.925Z" transform="translate(-226.119 -174.507)"/>
        <path id="Trazado_1299145" data-name="Trazado 1299145" d="M129.837,248.5H113.051a.923.923,0,1,0,0,1.846h16.786a.923.923,0,1,0,0-1.846Z" transform="translate(-106.533 -217.912)"/>
        <path id="Trazado_1299146" data-name="Trazado 1299146" d="M130.76,283.1a.923.923,0,0,0-.923-.923H113.051a.923.923,0,1,0,0,1.846h16.786A.923.923,0,0,0,130.76,283.1Z" transform="translate(-106.533 -247.439)"/>
        <path id="Trazado_1299147" data-name="Trazado 1299147" d="M123.3,316.767a.923.923,0,0,0-.923-.923h-9.326a.923.923,0,0,0,0,1.846h9.326A.923.923,0,0,0,123.3,316.767Z" transform="translate(-106.533 -276.967)"/>
      </g>
    </g>
  </g>
</svg>
