<svg xmlns="http://www.w3.org/2000/svg" xmlns:xlink="http://www.w3.org/1999/xlink" width="113" height="113" viewBox="0 0 113 113">
  <defs>
    <filter id="Trazado_982547" x="0" y="0" width="113" height="113" filterUnits="userSpaceOnUse">
      <feOffset dy="3" input="SourceAlpha"/>
      <feGaussianBlur stdDeviation="3" result="blur"/>
      <feFlood flood-opacity="0.161"/>
      <feComposite operator="in" in2="blur"/>
      <feComposite in="SourceGraphic"/>
    </filter>
  </defs>
  <g id="Grupo_1242769" data-name="Grupo 1242769" transform="translate(-4996.49 -3419.389)">
    <g id="Grupo_1242262" data-name="Grupo 1242262" transform="translate(4305.49 -545)">
      <g id="Grupo_1235696" data-name="Grupo 1235696" transform="translate(700 3970.389)">
        <g id="Grupo_1241233" data-name="Grupo 1241233">
          <g id="Grupo_1240427" data-name="Grupo 1240427" transform="translate(0 0)">
            <g id="Grupo_1239780" data-name="Grupo 1239780">
              <g id="Grupo_1236603" data-name="Grupo 1236603">
                <g id="Grupo_1236145" data-name="Grupo 1236145">
                  <g id="Grupo_1235107" data-name="Grupo 1235107">
                    <g id="Grupo_1223796" data-name="Grupo 1223796">
                      <g id="Grupo_1208038" data-name="Grupo 1208038">
                        <g id="Grupo_1202104" data-name="Grupo 1202104">
                          <g id="Grupo_1201923" data-name="Grupo 1201923">
                            <g id="Grupo_1176928" data-name="Grupo 1176928">
                              <g id="Grupo_1172322" data-name="Grupo 1172322">
                                <g id="Grupo_1164700" data-name="Grupo 1164700">
                                  <g id="Grupo_1160931" data-name="Grupo 1160931">
                                    <g id="Grupo_1160749" data-name="Grupo 1160749">
                                      <g id="Grupo_1158891" data-name="Grupo 1158891">
                                        <g id="Grupo_1157406" data-name="Grupo 1157406">
                                          <g id="Grupo_1155793" data-name="Grupo 1155793">
                                            <g id="Grupo_1154704" data-name="Grupo 1154704">
                                              <g id="Grupo_1150790" data-name="Grupo 1150790">
                                                <g id="Grupo_1154214" data-name="Grupo 1154214">
                                                  <g id="Grupo_1152583" data-name="Grupo 1152583">
                                                    <g id="Grupo_1146973" data-name="Grupo 1146973">
                                                      <g id="Grupo_1146954" data-name="Grupo 1146954">
                                                        <g transform="matrix(1, 0, 0, 1, -9, -6)" filter="url(#Trazado_982547)">
                                                          <g id="Trazado_982547-2" data-name="Trazado 982547" transform="translate(9 6)" fill="#ffe1b9">
                                                            <path d="M 47.50000762939453 93.49986267089844 C 41.28937911987305 93.49986267089844 35.26534271240234 92.28383636474609 29.59519386291504 89.88558197021484 C 24.11772727966309 87.56880950927734 19.19814109802246 84.25183868408203 14.97310066223145 80.02679443359375 C 10.74804782867432 75.8017578125 7.431074142456055 70.88218688964844 5.114300727844238 65.40471649169922 C 2.716034412384033 59.73458480834961 1.500007629394531 53.71054458618164 1.500007629394531 47.49993133544922 C 1.500007629394531 41.2893180847168 2.716034412384033 35.26527786254883 5.114300727844238 29.59514427185059 C 7.431074142456055 24.11767768859863 10.74804782867432 19.19810485839844 14.97310066223145 14.97306442260742 C 19.19814109802246 10.74802494049072 24.11772727966309 7.431051254272461 29.59519386291504 5.114277839660645 C 35.26534271240234 2.71602463722229 41.28937911987305 1.499997973442078 47.50000762939453 1.499997973442078 C 53.71063613891602 1.499997973442078 59.73467254638672 2.71602463722229 65.40482330322266 5.114277839660645 C 70.88228607177734 7.431051254272461 75.80187225341797 10.74802494049072 80.02691650390625 14.97306442260742 C 84.25196838378906 19.19810485839844 87.56893920898438 24.11767768859863 89.88571166992188 29.59514427185059 C 92.28398132324219 35.26527786254883 93.50000762939453 41.2893180847168 93.50000762939453 47.49993133544922 C 93.50000762939453 53.71054458618164 92.28398132324219 59.73458480834961 89.88571166992188 65.40471649169922 C 87.56893920898438 70.88218688964844 84.25196838378906 75.8017578125 80.02691650390625 80.02679443359375 C 75.80187225341797 84.25183868408203 70.88228607177734 87.56880950927734 65.40482330322266 89.88558197021484 C 59.73467254638672 92.28383636474609 53.71063613891602 93.49986267089844 47.50000762939453 93.49986267089844 Z" stroke="none"/>
                                                            <path d="M 47.50000762939453 2.999992370605469 C 41.4912223815918 2.999992370605469 35.66377639770508 4.1761474609375 30.17951202392578 6.495796203613281 C 24.88085174560547 8.736930847167969 20.12152862548828 11.94596099853516 16.03376007080078 16.03372955322266 C 11.94597625732422 20.12148284912109 8.736961364746094 24.88080596923828 6.495803833007812 30.17946624755859 C 4.176162719726562 35.66371536254883 3.000007629394531 41.49116134643555 3.000007629394531 47.49993133544922 C 3.000007629394531 53.50870132446289 4.176162719726562 59.33614730834961 6.495803833007812 64.82038879394531 C 8.736961364746094 70.11905670166016 11.94597625732422 74.87836456298828 16.03376007080078 78.96613311767578 C 20.12152862548828 83.05390167236328 24.88085174560547 86.26291656494141 30.17951202392578 88.50406646728516 C 35.66377639770508 90.82369995117188 41.4912223815918 91.99985504150391 47.50000762939453 91.99985504150391 C 53.50879287719727 91.99985504150391 59.33623886108398 90.82369995117188 64.82049560546875 88.50406646728516 C 70.11916351318359 86.26291656494141 74.87848663330078 83.05390167236328 78.96625518798828 78.96613311767578 C 83.05403900146484 74.87836456298828 86.26305389404297 70.11905670166016 88.50421142578125 64.82038879394531 C 90.8238525390625 59.33614730834961 92.00000762939453 53.50870132446289 92.00000762939453 47.49993133544922 C 92.00000762939453 41.49116134643555 90.8238525390625 35.66371536254883 88.50421142578125 30.17946624755859 C 86.26305389404297 24.88080596923828 83.05403900146484 20.12148284912109 78.96625518798828 16.03372955322266 C 74.87848663330078 11.94596099853516 70.11916351318359 8.736930847167969 64.82049560546875 6.495796203613281 C 59.33623886108398 4.1761474609375 53.50879287719727 2.999992370605469 47.50000762939453 2.999992370605469 M 47.50000762939453 -7.62939453125e-06 C 73.73352813720703 -7.62939453125e-06 95.00000762939453 21.26644134521484 95.00000762939453 47.49993133544922 C 95.00000762939453 73.73342132568359 73.73352813720703 94.99985504150391 47.50000762939453 94.99985504150391 C 21.26648712158203 94.99985504150391 7.62939453125e-06 73.73342132568359 7.62939453125e-06 47.49993133544922 C 7.62939453125e-06 21.26644134521484 21.26648712158203 -7.62939453125e-06 47.50000762939453 -7.62939453125e-06 Z" stroke="none" fill="#ff9d1c"/>
                                                          </g>
                                                        </g>
                                                      </g>
                                                    </g>
                                                  </g>
                                                </g>
                                              </g>
                                            </g>
                                          </g>
                                        </g>
                                      </g>
                                    </g>
                                  </g>
                                </g>
                              </g>
                            </g>
                          </g>
                        </g>
                      </g>
                    </g>
                  </g>
                </g>
              </g>
            </g>
          </g>
        </g>
      </g>
    </g>
    <g id="documentos_2_" data-name="documentos (2)" transform="translate(4993.146 3442.041)">
      <g id="Grupo_1242778" data-name="Grupo 1242778" transform="translate(33.309 0.899)">
        <path id="Trazado_1299148" data-name="Trazado 1299148" d="M424.921,136.5h-.008l-.358.211v6.206h5.438l.3-.253v-.795A5.384,5.384,0,0,0,424.921,136.5Z" transform="translate(-378.208 -120.952)" fill="#ffa90f"/>
        <path id="Trazado_1299149" data-name="Trazado 1299149" d="M158.283,8.321l-.384-.864H131.55a1.991,1.991,0,0,0-1.991,1.991v3.437l.828.678h22.09l7.252,7.049v8.977h5.161l.574-.419V15.023l-.9-.4Z" transform="translate(-118.76 -7.457)" fill="#62ddfc"/>
        <g id="Grupo_1242777" data-name="Grupo 1242777" transform="translate(10.799 0)">
          <path id="Trazado_1299150" data-name="Trazado 1299150" d="M135.734,9.448a1.991,1.991,0,0,1,1.991-1.991H131.55a1.991,1.991,0,0,0-1.991,1.991v3.437l.828.678h6.175l-.828-.678V9.448Z" transform="translate(-129.559 -7.457)" fill="#00d2fc"/>
        </g>
        <path id="Trazado_1299151" data-name="Trazado 1299151" d="M45.322,136.5h-.11a5.282,5.282,0,0,0-5.267,5.267v.9l.52.144h5.262v-5.968Z" transform="translate(-39.945 -120.952)" fill="#ffa90f"/>
        <path id="Trazado_1299152" data-name="Trazado 1299152" d="M364.741,7.457v5.575a1.991,1.991,0,0,0,1.991,1.991h5.575Z" transform="translate(-325.603 -7.457)" fill="#00d2fc"/>
        <path id="Trazado_1299153" data-name="Trazado 1299153" d="M113.368,53.638,112.9,52.5H86.555a1.991,1.991,0,0,0-1.991,1.991v14.3l.781.781h32.981l2.144-.781v-8.72l-1.117-.521Z" transform="translate(-79.187 -47.07)" fill="#dbedff"/>
        <path id="Trazado_1299154" data-name="Trazado 1299154" d="M90.74,54.488A1.991,1.991,0,0,1,92.73,52.5H86.556a1.991,1.991,0,0,0-1.991,1.991v14.3l.781.781H91.52l-.781-.781Z" transform="translate(-79.188 -47.07)" fill="#b5dcff"/>
        <path id="Trazado_1299155" data-name="Trazado 1299155" d="M319.746,52.5v5.575a1.991,1.991,0,0,0,1.991,1.991h5.575Z" transform="translate(-286.03 -47.07)" fill="#b5dcff"/>
        <path id="Trazado_1299156" data-name="Trazado 1299156" d="M367.995,13.032V10.711l-3.254-3.254v5.575a1.991,1.991,0,0,0,1.991,1.991h3.254A1.991,1.991,0,0,1,367.995,13.032Z" transform="translate(-325.603 -7.457)" fill="#00c2fb"/>
        <path id="Trazado_1299157" data-name="Trazado 1299157" d="M323,58.073V55.752L319.746,52.5v5.575a1.991,1.991,0,0,0,1.991,1.991h3.254A1.991,1.991,0,0,1,323,58.073Z" transform="translate(-286.03 -47.07)" fill="#8bcaff"/>
        <path id="Trazado_1299158" data-name="Trazado 1299158" d="M92.026,187.649H39.945v36.576a1.6,1.6,0,0,0,1.6,1.6h48.88a1.6,1.6,0,0,0,1.6-1.6Z" transform="translate(-39.945 -165.936)" fill="#ffd086"/>
        <path id="Trazado_1299159" data-name="Trazado 1299159" d="M47.621,224.225V187.649H39.945v36.576a1.6,1.6,0,0,0,1.6,1.6h7.676A1.6,1.6,0,0,1,47.621,224.225Z" transform="translate(-39.945 -165.936)" fill="#ffc365"/>
        <path id="Trazado_1299160" data-name="Trazado 1299160" d="M276.249,320H257.07a1.024,1.024,0,0,0-1.024,1.024v15.1a1.024,1.024,0,0,0,1.024,1.024h19.179a1.024,1.024,0,0,0,1.024-1.024v-15.1A1.024,1.024,0,0,0,276.249,320Z" transform="translate(-230.005 -282.34)" fill="#dbedff"/>
        <path id="Trazado_1299161" data-name="Trazado 1299161" d="M260.859,336.123v-15.1A1.024,1.024,0,0,1,261.883,320H257.07a1.024,1.024,0,0,0-1.024,1.024v15.1a1.024,1.024,0,0,0,1.024,1.024h4.813A1.024,1.024,0,0,1,260.859,336.123Z" transform="translate(-230.005 -282.34)" fill="#b5dcff"/>
      </g>
      <g id="Grupo_1242779" data-name="Grupo 1242779" transform="translate(32.4 0)">
        <path id="Trazado_1299162" data-name="Trazado 1299162" d="M37.777,15.6A6.178,6.178,0,0,0,32.4,21.721V59.193a2.507,2.507,0,0,0,2.5,2.5h48.88a2.507,2.507,0,0,0,2.5-2.5V42.835a.9.9,0,0,0-1.808,0V59.193a.7.7,0,0,1-.7.7H34.9a.7.7,0,0,1-.7-.7V23.521H84.481v15.1a.9.9,0,1,0,1.808,0V21.822a6.281,6.281,0,0,0-5.377-6.207V8.47a.908.908,0,0,0-.265-.639L73.081.265A.913.913,0,0,0,72.442,0H46.093A2.9,2.9,0,0,0,43.2,2.895V5.427H40.671a2.9,2.9,0,0,0-2.895,2.895Zm0,6.111H34.208a4.371,4.371,0,0,1,3.569-4.283Zm43.135-4.266a4.472,4.472,0,0,1,3.568,4.266H80.912ZM73.346,3.086l4.48,4.48H74.433a1.088,1.088,0,0,1-1.087-1.087Zm-28.34-.191a1.088,1.088,0,0,1,1.087-1.087H71.538V6.479a2.9,2.9,0,0,0,2.895,2.895H79.1v12.34H75.49V13.9a.908.908,0,0,0-.265-.639L67.659,5.692a.915.915,0,0,0-.639-.265H45.006Zm27.4,10.1H69.011a1.088,1.088,0,0,1-1.087-1.087V8.513ZM39.584,8.322a1.088,1.088,0,0,1,1.087-1.087H66.116v4.671A2.9,2.9,0,0,0,69.011,14.8h4.671v6.913h-34.1Z" transform="translate(-32.4 0)"/>
        <path id="Trazado_1299163" data-name="Trazado 1299163" d="M297.258,425.126H284.485a.9.9,0,0,0,0,1.807h12.773a.9.9,0,1,0,0-1.807Z" transform="translate(-253.313 -373.898)"/>
        <path id="Trazado_1299164" data-name="Trazado 1299164" d="M297.258,397.5H284.485a.9.9,0,1,0,0,1.807h12.773a.9.9,0,1,0,0-1.807Z" transform="translate(-253.313 -349.6)"/>
        <path id="Trazado_1299165" data-name="Trazado 1299165" d="M297.258,369.873H284.485a.9.9,0,0,0,0,1.808h12.773a.9.9,0,0,0,0-1.808Z" transform="translate(-253.313 -325.303)"/>
        <path id="Trazado_1299166" data-name="Trazado 1299166" d="M297.258,342.246H284.485a.9.9,0,0,0,0,1.808h12.773a.9.9,0,0,0,0-1.808Z" transform="translate(-253.313 -301.005)"/>
        <path id="Trazado_1299167" data-name="Trazado 1299167" d="M144.356,149.617H119.494a.9.9,0,0,0,0,1.808h24.862a.9.9,0,0,0,0-1.808Z" transform="translate(-108.204 -131.588)"/>
        <path id="Trazado_1299168" data-name="Trazado 1299168" d="M119.493,123.8h20.925a.9.9,0,1,0,0-1.807H119.493a.9.9,0,1,0,0,1.807Z" transform="translate(-108.203 -107.291)"/>
        <path id="Trazado_1299169" data-name="Trazado 1299169" d="M257.909,312.545h-7.481a1.93,1.93,0,0,0-1.928,1.928v15.1a1.93,1.93,0,0,0,1.928,1.928h19.179a1.93,1.93,0,0,0,1.928-1.928v-15.1a1.93,1.93,0,0,0-1.928-1.928h-7.481a.9.9,0,0,0,0,1.808h7.481a.121.121,0,0,1,.121.12v15.1a.121.121,0,0,1-.121.121H250.428a.121.121,0,0,1-.121-.121v-15.1a.121.121,0,0,1,.121-.12h7.481a.9.9,0,0,0,0-1.808Z" transform="translate(-222.46 -274.883)"/>
      </g>
    </g>
  </g>
</svg>
