<svg xmlns="http://www.w3.org/2000/svg" xmlns:xlink="http://www.w3.org/1999/xlink" width="106.16" height="106.16" viewBox="0 0 106.16 106.16">
  <defs>
    <filter id="Trazado_982547" x="0" y="0" width="106.16" height="106.16" filterUnits="userSpaceOnUse">
      <feOffset dy="3" input="SourceAlpha"/>
      <feGaussianBlur stdDeviation="3" result="blur"/>
      <feFlood flood-opacity="0.161"/>
      <feComposite operator="in" in2="blur"/>
      <feComposite in="SourceGraphic"/>
    </filter>
  </defs>
  <g id="Grupo_1241627" data-name="Grupo 1241627" transform="translate(-611.42 -1728.711)">
    <g id="Grupo_1235642" data-name="Grupo 1235642" transform="translate(620.42 1734.711)">
      <g id="Grupo_1235128" data-name="Grupo 1235128" transform="translate(0 0)">
        <g id="Grupo_1233884" data-name="Grupo 1233884" transform="translate(0 0)">
          <g id="Grupo_1228506" data-name="Grupo 1228506" transform="translate(0 0)">
            <g id="Grupo_1206132" data-name="Grupo 1206132" transform="translate(0 0)">
              <g id="Grupo_1203794" data-name="Grupo 1203794">
                <g id="Grupo_1203345" data-name="Grupo 1203345">
                  <g id="Grupo_1177900" data-name="Grupo 1177900">
                    <g id="Grupo_1172010" data-name="Grupo 1172010">
                      <g id="Grupo_1171046" data-name="Grupo 1171046">
                        <g id="Grupo_1148525" data-name="Grupo 1148525">
                          <g transform="matrix(1, 0, 0, 1, -9, -6)" filter="url(#Trazado_982547)">
                            <g id="Trazado_982547-2" data-name="Trazado 982547" transform="translate(9 6)" fill="#e9f9fd">
                              <path d="M 44.0802001953125 86.660400390625 C 38.33124923706055 86.660400390625 32.75506210327148 85.53479766845703 27.50652503967285 83.31484985351562 C 22.43628692626953 81.17032623291016 17.88242530822754 78.09992218017578 13.97144985198975 74.18894958496094 C 10.06047534942627 70.27797698974609 6.99007511138916 65.72411346435547 4.845550060272217 60.65387344360352 C 2.625600099563599 55.40533828735352 1.500000238418579 49.82915115356445 1.500000238418579 44.0802001953125 C 1.500000238418579 38.33124923706055 2.625600099563599 32.75506210327148 4.845550060272217 27.50652503967285 C 6.99007511138916 22.43628692626953 10.06047534942627 17.88242530822754 13.97144985198975 13.97144985198975 C 17.88242530822754 10.06047534942627 22.43628692626953 6.99007511138916 27.50652503967285 4.845550060272217 C 32.75506210327148 2.625600099563599 38.33124923706055 1.500000238418579 44.0802001953125 1.500000238418579 C 49.82915115356445 1.500000238418579 55.40533828735352 2.625600099563599 60.65387344360352 4.845550060272217 C 65.72411346435547 6.99007511138916 70.27797698974609 10.06047534942627 74.18894958496094 13.97144985198975 C 78.09992218017578 17.88242530822754 81.17032623291016 22.43628692626953 83.31484985351562 27.50652503967285 C 85.53479766845703 32.75506210327148 86.660400390625 38.33124923706055 86.660400390625 44.0802001953125 C 86.660400390625 49.82915115356445 85.53479766845703 55.40533828735352 83.31484985351562 60.65387344360352 C 81.17032623291016 65.72411346435547 78.09992218017578 70.27797698974609 74.18894958496094 74.18894958496094 C 70.27797698974609 78.09992218017578 65.72411346435547 81.17032623291016 60.65387344360352 83.31484985351562 C 55.40533828735352 85.53479766845703 49.82915115356445 86.660400390625 44.0802001953125 86.660400390625 Z" stroke="none"/>
                              <path d="M 44.0802001953125 3 C 38.53308486938477 3 33.15349960327148 4.085746765136719 28.09085845947266 6.227058410644531 C 23.19941711425781 8.29595947265625 18.80581665039062 11.25841522216797 15.03211212158203 15.03211212158203 C 11.25841522216797 18.80581665039062 8.29595947265625 23.19941711425781 6.227058410644531 28.09085845947266 C 4.085746765136719 33.15349960327148 3 38.53308486938477 3 44.0802001953125 C 3 49.62731552124023 4.085746765136719 55.00691604614258 6.227058410644531 60.06954193115234 C 8.29595947265625 64.96098327636719 11.25841522216797 69.35458374023438 15.03211212158203 73.12828826904297 C 18.80581665039062 76.90198516845703 23.19941711425781 79.86444091796875 28.09085845947266 81.93334197998047 C 33.15349960327148 84.07466125488281 38.53308486938477 85.160400390625 44.0802001953125 85.160400390625 C 49.62731552124023 85.160400390625 55.00691604614258 84.07466125488281 60.06954193115234 81.93334197998047 C 64.96099853515625 79.86444091796875 69.35458374023438 76.90198516845703 73.12828826904297 73.12828826904297 C 76.90198516845703 69.35458374023438 79.86444091796875 64.96099853515625 81.93334197998047 60.06954193115234 C 84.07466125488281 55.00691604614258 85.160400390625 49.62731552124023 85.160400390625 44.0802001953125 C 85.160400390625 38.53308486938477 84.07466125488281 33.15349960327148 81.93334197998047 28.09085845947266 C 79.86444091796875 23.19941711425781 76.90198516845703 18.80581665039062 73.12828826904297 15.03211212158203 C 69.35458374023438 11.25841522216797 64.96098327636719 8.29595947265625 60.06954193115234 6.227058410644531 C 55.00691604614258 4.085746765136719 49.62731552124023 3 44.0802001953125 3 M 44.0802001953125 0 C 68.42502593994141 0 88.160400390625 19.73538970947266 88.160400390625 44.0802001953125 C 88.160400390625 68.42502593994141 68.42502593994141 88.160400390625 44.0802001953125 88.160400390625 C 19.73538970947266 88.160400390625 0 68.42502593994141 0 44.0802001953125 C 0 19.73538970947266 19.73538970947266 0 44.0802001953125 0 Z" stroke="none" fill="#1d7083"/>
                            </g>
                          </g>
                        </g>
                      </g>
                    </g>
                  </g>
                </g>
              </g>
            </g>
          </g>
        </g>
      </g>
    </g>
    <g id="etapas_1_" data-name="etapas (1)" transform="translate(627.422 1736.474)">
      <g id="Grupo_1241626" data-name="Grupo 1241626" transform="translate(8.892 14.856)">
        <g id="Grupo_1241614" data-name="Grupo 1241614" transform="translate(12.414 10.526)">
          <g id="Grupo_1241612" data-name="Grupo 1241612">
            <path id="Trazado_1297688" data-name="Trazado 1297688" d="M141.012,114.249a13.91,13.91,0,0,1,4.072,1.688l2.646-1.175,3.119,3.119-1.175,2.646a13.912,13.912,0,0,1,1.689,4.074l2.7,1.039v4.411l-2.7,1.04a13.9,13.9,0,0,1-1.688,4.072l1.175,2.646-3.119,3.119-2.646-1.175a13.909,13.909,0,0,1-4.074,1.689l-1.039,2.7h-4.411l-1.04-2.7a13.907,13.907,0,0,1-4.072-1.688l-2.646,1.175-3.119-3.119,1.175-2.646a13.908,13.908,0,0,1-1.689-4.074l-2.7-1.039v-4.411l2.7-1.039a13.907,13.907,0,0,1,1.688-4.073l-1.175-2.646,3.119-3.119,2.646,1.175a13.912,13.912,0,0,1,4.073-1.688l1.04-2.7h4.411Z" transform="translate(-121.471 -111.548)" fill="#ffe177" fill-rule="evenodd"/>
            <path id="Trazado_1297689" data-name="Trazado 1297689" d="M191.552,115.158l.889-.395,3.119,3.119-1.175,2.646a13.911,13.911,0,0,1,1.689,4.074l2.7,1.039v4.411l-2.7,1.04a13.91,13.91,0,0,1-1.688,4.072l1.175,2.646-3.119,3.119-.889-.395,2.724-2.724-1.175-2.646a13.911,13.911,0,0,0,1.688-4.072l2.7-1.04v-4.411l-2.7-1.039a13.911,13.911,0,0,0-1.689-4.074l1.175-2.646Zm-19.433,0,.395-.395,2.646,1.175q-.28.155-.554.324Zm13.6-.908a13.9,13.9,0,0,1,4,1.645c.023.015.047.03.071.043l-.729.324a18.192,18.192,0,0,0-4.627-2.012l-1.04-2.7h1.283Zm-10.562,25.5-2.646,1.175-.395-.395,2.487-1.1Q174.879,139.6,175.16,139.754Zm14.574.038a13.905,13.905,0,0,1-4.012,1.651l-1.039,2.7H183.4l1.039-2.7a18.2,18.2,0,0,0,4.628-2.012l.729.324C189.775,139.766,189.755,139.778,189.735,139.791Z" transform="translate(-166.181 -111.55)" fill="#ffd064" fill-rule="evenodd"/>
            <circle id="Elipse_11560" data-name="Elipse 11560" cx="9.211" cy="9.211" r="9.211" transform="translate(3.266 16.297) rotate(-45)" fill="#eceff1"/>
            <path id="Trazado_1297690" data-name="Trazado 1297690" d="M191.118,171.985c.21,0,.418.008.624.021a9.211,9.211,0,0,0,0,18.379c-.206.014-.414.021-.624.021a9.211,9.211,0,1,1,0-18.422Z" transform="translate(-174.822 -164.899)" fill="#d1d1d6" fill-rule="evenodd"/>
          </g>
          <g id="Grupo_1241613" data-name="Grupo 1241613" transform="translate(11.166 12.528)">
            <path id="Trazado_1297691" data-name="Trazado 1297691" d="M220.736,222.918l4.1-4.144a1.249,1.249,0,1,1,1.773,1.761c-1.664,1.679-3.316,3.37-4.988,5.041a1.252,1.252,0,0,1-1.77,0L217.08,222.8a1.252,1.252,0,1,1,1.77-1.77Z" transform="translate(-216.714 -218.405)" fill="#8ac9fe" fill-rule="evenodd"/>
          </g>
        </g>
        <g id="Grupo_1241618" data-name="Grupo 1241618" transform="translate(40.245 38.651)">
          <g id="Grupo_1241615" data-name="Grupo 1241615">
            <path id="Trazado_1297692" data-name="Trazado 1297692" d="M366.769,351.449a7.912,7.912,0,1,0,7.912,7.912A7.911,7.911,0,0,0,366.769,351.449Z" transform="translate(-358.857 -351.449)" fill="#fe646f" fill-rule="evenodd"/>
            <path id="Trazado_1297693" data-name="Trazado 1297693" d="M421.927,351.449q-.3,0-.586.022a7.912,7.912,0,0,1,0,15.78q.29.021.586.022a7.912,7.912,0,1,0,0-15.824Z" transform="translate(-414.015 -351.449)" fill="#fd4755" fill-rule="evenodd"/>
          </g>
          <g id="Grupo_1241616" data-name="Grupo 1241616" transform="translate(8.498 5.801)">
            <path id="Trazado_1297694" data-name="Trazado 1297694" d="M431.96,404.534a2.111,2.111,0,1,0,0-2.985A2.111,2.111,0,0,0,431.96,404.534Z" transform="translate(-431.342 -400.931)" fill="#fff" fill-rule="evenodd"/>
          </g>
          <g id="Grupo_1241617" data-name="Grupo 1241617" transform="translate(3.104 5.801)">
            <path id="Trazado_1297695" data-name="Trazado 1297695" d="M385.953,404.534a2.111,2.111,0,1,0,0-2.985A2.111,2.111,0,0,0,385.953,404.534Z" transform="translate(-385.335 -400.931)" fill="#fff" fill-rule="evenodd"/>
          </g>
        </g>
        <g id="Grupo_1241622" data-name="Grupo 1241622" transform="translate(1.675 38.651)">
          <path id="Trazado_1297696" data-name="Trazado 1297696" d="M37.777,351.449a7.912,7.912,0,1,0,7.912,7.912A7.911,7.911,0,0,0,37.777,351.449Z" transform="translate(-29.865 -351.449)" fill="#6cf5c2" fill-rule="evenodd"/>
          <path id="Trazado_1297697" data-name="Trazado 1297697" d="M92.935,351.449q-.3,0-.586.022a7.912,7.912,0,0,1,0,15.78q.29.021.586.022a7.912,7.912,0,1,0,0-15.824Z" transform="translate(-85.023 -351.449)" fill="#00e499" fill-rule="evenodd"/>
          <g id="Grupo_1241619" data-name="Grupo 1241619" transform="translate(5.273 8.534)">
            <path id="Trazado_1297698" data-name="Trazado 1297698" d="M76.955,424.24a2.111,2.111,0,1,0,2.111,2.111A2.111,2.111,0,0,0,76.955,424.24Z" transform="translate(-74.844 -424.24)" fill="#fff" fill-rule="evenodd"/>
          </g>
          <g id="Grupo_1241620" data-name="Grupo 1241620" transform="translate(8.556 3.707)">
            <path id="Trazado_1297699" data-name="Trazado 1297699" d="M104.958,387.292a2.111,2.111,0,1,1,2.111-2.111A2.111,2.111,0,0,1,104.958,387.292Z" transform="translate(-102.847 -383.071)" fill="#fff" fill-rule="evenodd"/>
          </g>
          <g id="Grupo_1241621" data-name="Grupo 1241621" transform="translate(3.163 3.707)">
            <circle id="Elipse_11561" data-name="Elipse 11561" cx="2.111" cy="2.111" r="2.111" fill="#fff"/>
          </g>
        </g>
        <g id="Grupo_1241625" data-name="Grupo 1241625" transform="translate(0 0)">
          <g id="Grupo_1241623" data-name="Grupo 1241623">
            <path id="Trazado_1297700" data-name="Trazado 1297700" d="M23.494,21.769a7.912,7.912,0,1,0,7.912,7.912,7.911,7.911,0,0,0-7.912-7.912Z" transform="translate(-15.582 -21.769)" fill="#8ac9fe" fill-rule="evenodd"/>
            <path id="Trazado_1297701" data-name="Trazado 1297701" d="M78.652,21.769q-.3,0-.586.022a7.912,7.912,0,0,1,0,15.78q.29.021.586.022a7.912,7.912,0,1,0,0-15.824Z" transform="translate(-70.74 -21.769)" fill="#60b7ff" fill-rule="evenodd"/>
          </g>
          <g id="Grupo_1241624" data-name="Grupo 1241624" transform="translate(5.801 5.801)">
            <path id="Trazado_1297702" data-name="Trazado 1297702" d="M67.174,75.471a2.111,2.111,0,1,1,2.111-2.111A2.111,2.111,0,0,1,67.174,75.471Z" transform="translate(-65.063 -71.25)" fill="#fff" fill-rule="evenodd"/>
          </g>
        </g>
      </g>
      <path id="Trazado_1297703" data-name="Trazado 1297703" d="M48.911,66.542a.94.94,0,0,1-.5,1.231,27.736,27.736,0,0,1-18.481,1.119l.232.332a.937.937,0,0,1-.243,1.3.923.923,0,0,1-.53.166.936.936,0,0,1-.773-.4L26.76,67.6a.935.935,0,0,1,.436-1.41l3.058-1.163a.938.938,0,0,1,.668,1.752l-.668.253a25.873,25.873,0,0,0,17.426-.986.939.939,0,0,1,1.231.495ZM25.86,18.378a.939.939,0,0,1,.475-1.239A27.635,27.635,0,0,1,64.24,49.647l.453-.3A.939.939,0,0,1,65.741,50.9l-2.716,1.826a.948.948,0,0,1-.817.114.934.934,0,0,1-.591-.57L60.5,49.195a.937.937,0,1,1,1.761-.642l.193.525A25.75,25.75,0,0,0,37.6,16.621a25.519,25.519,0,0,0-10.5,2.231.943.943,0,0,1-1.242-.474ZM9.239,35.058a.94.94,0,0,1,.254-1.3l2.71-1.836a.935.935,0,0,1,1.4.451l1.137,3.071a.938.938,0,0,1-1.761.649l-.2-.553a25.8,25.8,0,0,0,1.1,16.823.938.938,0,1,1-1.728.729,27.679,27.679,0,0,1-1.181-18.071l-.431.291A.94.94,0,0,1,9.239,35.058Zm7.612-13.443a1.173,1.173,0,1,1-1.17,1.174A1.177,1.177,0,0,1,16.851,21.615Zm0,4.222A3.049,3.049,0,1,0,13.8,22.789,3.053,3.053,0,0,0,16.851,25.837Zm0-10.023a6.974,6.974,0,1,0,6.977,6.974,6.979,6.979,0,0,0-6.977-6.974Zm0,15.824A8.85,8.85,0,1,0,8,22.789,8.858,8.858,0,0,0,16.851,31.638Zm3.787,29.511a1.172,1.172,0,1,1,1.17-1.173A1.172,1.172,0,0,1,20.638,61.148ZM18.529,64.8A1.172,1.172,0,1,1,19.7,63.63,1.173,1.173,0,0,1,18.529,64.8Zm-2.114-6a1.172,1.172,0,1,1-1.17,1.172A1.177,1.177,0,0,1,16.415,58.8Zm4.223-1.876a3.031,3.031,0,0,0-2.109.852A3.048,3.048,0,1,0,15.565,62.9a3.15,3.15,0,0,0-.088.727,3.05,3.05,0,0,0,6.1,0,3.15,3.15,0,0,0-.088-.727,3.048,3.048,0,0,0-.85-5.976ZM18.529,68.414a6.974,6.974,0,1,0-6.977-6.973A6.982,6.982,0,0,0,18.529,68.414Zm0-15.824a8.85,8.85,0,1,0,8.848,8.85,8.864,8.864,0,0,0-8.848-8.85Zm41.51,9.679a1.172,1.172,0,1,1,0-1.658A1.168,1.168,0,0,1,60.039,62.269Zm-4.223,0a1.159,1.159,0,0,1-.828.344,1.172,1.172,0,1,1,0-2.345,1.159,1.159,0,0,1,.828.344A1.172,1.172,0,0,1,55.817,62.269Zm3.395-3.877a3.037,3.037,0,0,0-2.114.85,3.049,3.049,0,0,0-4.267.042,3.048,3.048,0,0,0,2.158,5.2,3.014,3.014,0,0,0,2.109-.85,3.048,3.048,0,1,0,2.114-5.246ZM57.1,68.414a6.974,6.974,0,1,0-6.972-6.973A6.983,6.983,0,0,0,57.1,68.414Zm0-15.824a8.85,8.85,0,1,0,8.854,8.85A8.859,8.859,0,0,0,57.1,52.59ZM41.752,39.4a.312.312,0,0,0,0-.441.287.287,0,0,0-.221-.09.309.309,0,0,0-.221.091l-4.1,4.143a.936.936,0,0,1-.662.279h-.006a.939.939,0,0,1-.662-.275L34,41.221a.319.319,0,0,0-.447,0,.315.315,0,0,0,0,.443l2.777,2.774a.312.312,0,0,0,.442,0c1.049-1.048,2.109-2.123,3.135-3.162q.919-.939,1.849-1.877Zm-.226-2.407a2.178,2.178,0,0,0-1.546.647l-3.439,3.474-1.22-1.219a2.19,2.19,0,0,0-3.1,3.1L35,45.764a2.186,2.186,0,0,0,3.091,0c1.054-1.053,2.12-2.13,3.146-3.171q.919-.937,1.849-1.872a2.188,2.188,0,0,0-1.557-3.728ZM37.65,49.2a7.5,7.5,0,1,0-7.5-7.5A7.511,7.511,0,0,0,37.65,49.2Zm0-16.876A9.376,9.376,0,1,0,47.029,41.7,9.386,9.386,0,0,0,37.65,32.323Zm12.707,12.41a.941.941,0,0,1,.574-.659l2.1-.809V40.134l-2.1-.81a.941.941,0,0,1-.574-.658,12.912,12.912,0,0,0-1.579-3.806.942.942,0,0,1-.055-.873l.916-2.061-2.213-2.214-2.064.916a.935.935,0,0,1-.872-.059,13.006,13.006,0,0,0-3.8-1.577.949.949,0,0,1-.662-.576l-.806-2.1h-3.13l-.811,2.1a.94.94,0,0,1-.657.576,12.89,12.89,0,0,0-3.8,1.577.946.946,0,0,1-.878.059l-2.059-.916-2.213,2.214.916,2.062a.956.956,0,0,1-.061.872,12.938,12.938,0,0,0-1.579,3.806.941.941,0,0,1-.574.658l-2.1.81v3.13l2.1.809a.942.942,0,0,1,.574.658,12.928,12.928,0,0,0,1.579,3.807.956.956,0,0,1,.061.872l-.916,2.061,2.213,2.214,2.059-.916a.947.947,0,0,1,.878.059,12.918,12.918,0,0,0,3.8,1.577.94.94,0,0,1,.657.576l.811,2.1h3.13l.806-2.1a.947.947,0,0,1,.662-.574,13.009,13.009,0,0,0,3.8-1.578.94.94,0,0,1,.872-.059l2.064.916,2.213-2.214-.916-2.062a.939.939,0,0,1,.055-.872,12.936,12.936,0,0,0,1.579-3.8Zm3.958.05a.937.937,0,0,0,.6-.875V39.49a.938.938,0,0,0-.6-.875l-2.258-.867a14.709,14.709,0,0,0-1.424-3.441l.983-2.208a.941.941,0,0,0-.2-1.043L48.3,27.931a.946.946,0,0,0-1.049-.194l-2.208.98A14.831,14.831,0,0,0,41.6,27.292l-.867-2.253a.935.935,0,0,0-.878-.6H35.442a.946.946,0,0,0-.878.6L33.7,27.292a15.03,15.03,0,0,0-3.439,1.426l-2.208-.98a.936.936,0,0,0-1.043.194l-3.124,3.124A.93.93,0,0,0,23.69,32.1l.983,2.209a14.731,14.731,0,0,0-1.43,3.44l-2.252.867a.935.935,0,0,0-.6.875v4.419a.934.934,0,0,0,.6.875l2.252.867a14.726,14.726,0,0,0,1.43,3.441L23.69,51.3a.93.93,0,0,0,.193,1.043l3.124,3.125a.937.937,0,0,0,1.043.193l2.208-.98A14.976,14.976,0,0,0,33.7,56.106l.867,2.253a.947.947,0,0,0,.878.6h4.421a.934.934,0,0,0,.872-.6l.867-2.252a14.768,14.768,0,0,0,3.439-1.427l2.208.98a.945.945,0,0,0,1.049-.193l3.119-3.125a.941.941,0,0,0,.2-1.043l-.983-2.209a14.717,14.717,0,0,0,1.424-3.44Z" fill="#242222" fill-rule="evenodd"/>
    </g>
  </g>
</svg>
