<svg xmlns="http://www.w3.org/2000/svg" xmlns:xlink="http://www.w3.org/1999/xlink" width="106.16" height="106.16" viewBox="0 0 106.16 106.16">
  <defs>
    <filter id="Trazado_982547" x="0" y="0" width="106.16" height="106.16" filterUnits="userSpaceOnUse">
      <feOffset dy="3" input="SourceAlpha"/>
      <feGaussianBlur stdDeviation="3" result="blur"/>
      <feFlood flood-opacity="0.161"/>
      <feComposite operator="in" in2="blur"/>
      <feComposite in="SourceGraphic"/>
    </filter>
  </defs>
  <g id="Grupo_1241876" data-name="Grupo 1241876" transform="translate(-190 -2818)">
    <g id="Grupo_1235644" data-name="Grupo 1235644" transform="translate(-0.42 1693)">
      <g id="Grupo_1235128" data-name="Grupo 1235128" transform="translate(199.42 1131)">
        <g id="Grupo_1233884" data-name="Grupo 1233884" transform="translate(0 0)">
          <g id="Grupo_1228506" data-name="Grupo 1228506" transform="translate(0 0)">
            <g id="Grupo_1206132" data-name="Grupo 1206132" transform="translate(0 0)">
              <g id="Grupo_1203794" data-name="Grupo 1203794">
                <g id="Grupo_1203345" data-name="Grupo 1203345">
                  <g id="Grupo_1177900" data-name="Grupo 1177900">
                    <g id="Grupo_1172010" data-name="Grupo 1172010">
                      <g id="Grupo_1171046" data-name="Grupo 1171046">
                        <g id="Grupo_1148525" data-name="Grupo 1148525">
                          <g transform="matrix(1, 0, 0, 1, -9, -6)" filter="url(#Trazado_982547)">
                            <g id="Trazado_982547-2" data-name="Trazado 982547" transform="translate(9 6)" fill="#e9f9fd">
                              <path d="M 44.0802001953125 86.660400390625 C 38.33124923706055 86.660400390625 32.75506210327148 85.53479766845703 27.50652503967285 83.31484985351562 C 22.43628692626953 81.17032623291016 17.88242530822754 78.09992218017578 13.97144985198975 74.18894958496094 C 10.06047534942627 70.27797698974609 6.99007511138916 65.72411346435547 4.845550060272217 60.65387344360352 C 2.625600099563599 55.40533828735352 1.500000238418579 49.82915115356445 1.500000238418579 44.0802001953125 C 1.500000238418579 38.33124923706055 2.625600099563599 32.75506210327148 4.845550060272217 27.50652503967285 C 6.99007511138916 22.43628692626953 10.06047534942627 17.88242530822754 13.97144985198975 13.97144985198975 C 17.88242530822754 10.06047534942627 22.43628692626953 6.99007511138916 27.50652503967285 4.845550060272217 C 32.75506210327148 2.625600099563599 38.33124923706055 1.500000238418579 44.0802001953125 1.500000238418579 C 49.82915115356445 1.500000238418579 55.40533828735352 2.625600099563599 60.65387344360352 4.845550060272217 C 65.72411346435547 6.99007511138916 70.27797698974609 10.06047534942627 74.18894958496094 13.97144985198975 C 78.09992218017578 17.88242530822754 81.17032623291016 22.43628692626953 83.31484985351562 27.50652503967285 C 85.53479766845703 32.75506210327148 86.660400390625 38.33124923706055 86.660400390625 44.0802001953125 C 86.660400390625 49.82915115356445 85.53479766845703 55.40533828735352 83.31484985351562 60.65387344360352 C 81.17032623291016 65.72411346435547 78.09992218017578 70.27797698974609 74.18894958496094 74.18894958496094 C 70.27797698974609 78.09992218017578 65.72411346435547 81.17032623291016 60.65387344360352 83.31484985351562 C 55.40533828735352 85.53479766845703 49.82915115356445 86.660400390625 44.0802001953125 86.660400390625 Z" stroke="none"/>
                              <path d="M 44.0802001953125 3 C 38.53308486938477 3 33.15349960327148 4.085746765136719 28.09085845947266 6.227058410644531 C 23.19941711425781 8.29595947265625 18.80581665039062 11.25841522216797 15.03211212158203 15.03211212158203 C 11.25841522216797 18.80581665039062 8.29595947265625 23.19941711425781 6.227058410644531 28.09085845947266 C 4.085746765136719 33.15349960327148 3 38.53308486938477 3 44.0802001953125 C 3 49.62731552124023 4.085746765136719 55.00691604614258 6.227058410644531 60.06954193115234 C 8.29595947265625 64.96098327636719 11.25841522216797 69.35458374023438 15.03211212158203 73.12828826904297 C 18.80581665039062 76.90198516845703 23.19941711425781 79.86444091796875 28.09085845947266 81.93334197998047 C 33.15349960327148 84.07466125488281 38.53308486938477 85.160400390625 44.0802001953125 85.160400390625 C 49.62731552124023 85.160400390625 55.00691604614258 84.07466125488281 60.06954193115234 81.93334197998047 C 64.96099853515625 79.86444091796875 69.35458374023438 76.90198516845703 73.12828826904297 73.12828826904297 C 76.90198516845703 69.35458374023438 79.86444091796875 64.96099853515625 81.93334197998047 60.06954193115234 C 84.07466125488281 55.00691604614258 85.160400390625 49.62731552124023 85.160400390625 44.0802001953125 C 85.160400390625 38.53308486938477 84.07466125488281 33.15349960327148 81.93334197998047 28.09085845947266 C 79.86444091796875 23.19941711425781 76.90198516845703 18.80581665039062 73.12828826904297 15.03211212158203 C 69.35458374023438 11.25841522216797 64.96098327636719 8.29595947265625 60.06954193115234 6.227058410644531 C 55.00691604614258 4.085746765136719 49.62731552124023 3 44.0802001953125 3 M 44.0802001953125 0 C 68.42502593994141 0 88.160400390625 19.73538970947266 88.160400390625 44.0802001953125 C 88.160400390625 68.42502593994141 68.42502593994141 88.160400390625 44.0802001953125 88.160400390625 C 19.73538970947266 88.160400390625 0 68.42502593994141 0 44.0802001953125 C 0 19.73538970947266 19.73538970947266 0 44.0802001953125 0 Z" stroke="none" fill="#1d7083"/>
                            </g>
                          </g>
                        </g>
                      </g>
                    </g>
                  </g>
                </g>
              </g>
            </g>
          </g>
        </g>
      </g>
    </g>
    <g id="Clipboard-Management-Project-Setting-List" transform="translate(211 2835)">
      <path id="Trazado_1297835" data-name="Trazado 1297835" d="M56,15V57a4,4,0,0,1-4,4H18a4,4,0,0,1-2.4-.8,3.774,3.774,0,0,1-.73-.71A4.026,4.026,0,0,1,14,57V15a4,4,0,0,1,4-4H52A4,4,0,0,1,56,15Z" fill="#a97c50"/>
      <path id="Trazado_1297836" data-name="Trazado 1297836" d="M52,16V49H46a2.006,2.006,0,0,0-2,2v6H19a1,1,0,0,1-1-1V16a1,1,0,0,1,1-1H51A1,1,0,0,1,52,16Z" fill="#e6e7e8"/>
      <path id="Trazado_1297837" data-name="Trazado 1297837" d="M38.83,43.51l-.71,3.54L36,49.17A2,2,0,1,0,38.83,52l2.12-2.12,3.54-.71.7-.71L52,41.65V30.35Z" fill="#d8d7da"/>
      <path id="Trazado_1297838" data-name="Trazado 1297838" d="M56,26.35l-4,4v11.3l4-4Z" fill="#8b5e3c"/>
      <path id="Trazado_1297839" data-name="Trazado 1297839" d="M27.68,52.47a9.8,9.8,0,0,1-1.09,2.62L28.02,57H19a1,1,0,0,1-1-1V37h2l.47,3.32a9.8,9.8,0,0,1,2.62,1.09l2.69-2.02,2.83,2.83-2.02,2.69a9.8,9.8,0,0,1,1.09,2.62L31,48v4Z" fill="#d8d7da"/>
      <path id="Trazado_1297840" data-name="Trazado 1297840" d="M60.16,23.84a3.986,3.986,0,0,0-2.82-1.18A3.825,3.825,0,0,0,56,22.9a3.924,3.924,0,0,0-1.49.94l-1.42,1.41L56,28.16l2.75,2.75,1.41-1.42a3.978,3.978,0,0,0,0-5.65Z" fill="#e6e7e8"/>
      <path id="Trazado_1297841" data-name="Trazado 1297841" d="M56,28.16l-2.91-2.91L52,26.34v.01l-1.03,1.02L52,28.4l1.8,1.8L56,32.4l.63.63,2.12-2.12Z" fill="#ffa733"/>
      <path id="Trazado_1297842" data-name="Trazado 1297842" d="M52,49l-8,8V51a2.006,2.006,0,0,1,2-2Z" fill="#d1d3d4"/>
      <path id="Trazado_1297843" data-name="Trazado 1297843" d="M52,49v7a1,1,0,0,1-1,1H44Z" fill="#e6e7e8"/>
      <path id="Trazado_1297844" data-name="Trazado 1297844" d="M38.95,47.88,36.83,50A2,2,0,0,1,34,47.17l2.12-2.12Z" fill="#787680"/>
      <path id="Trazado_1297845" data-name="Trazado 1297845" d="M43.19,46.46l-.7.71-3.54.71-2.83-2.83.71-3.54.71-.7,2.82,2.83h.01Z" fill="#898890"/>
      <path id="Trazado_1297846" data-name="Trazado 1297846" d="M52,28.4l-1.03-1.03L37.54,40.81l2.82,2.83h.01L52,32l1.8-1.8Z" fill="#00ccb3"/>
      <path id="Trazado_1297847" data-name="Trazado 1297847" d="M56,32.4l-2.2-2.2L52,32,40.37,43.64l2.82,2.82L52,37.65l4-4,.63-.62Z" fill="#00b39d"/>
      <path id="Trazado_1297848" data-name="Trazado 1297848" d="M31.28,26.72A4,4,0,1,1,28,25,4,4,0,0,1,31.28,26.72Z" fill="#ff5023"/>
      <path id="Trazado_1297849" data-name="Trazado 1297849" d="M24,16H46v3H24Z" fill="#ffa733"/>
      <path id="Trazado_1297850" data-name="Trazado 1297850" d="M44.64,11A4,4,0,0,0,42,10H39V7a4,4,0,0,0-8,0v3H28a4.009,4.009,0,0,0-4,4v2H46V14a3.984,3.984,0,0,0-1.36-3Z" fill="#ff9811"/>
      <path id="Trazado_1297851" data-name="Trazado 1297851" d="M28.61,57.78,27.39,59l-1.61,1.61L23.64,59l-.55-.41a8.141,8.141,0,0,1-.77.41,9.493,9.493,0,0,1-1.85.68L20.28,61H18a4,4,0,0,1-2.4-.8l-.07-.52c-.22-.06-.45-.12-.66-.19A4.026,4.026,0,0,1,14,57V40.86a8.956,8.956,0,0,1,1.53-.54L16,37h2V56a1,1,0,0,0,1,1h9.02Z" fill="#8b5e3c"/>
      <path id="Trazado_1297852" data-name="Trazado 1297852" d="M25.68,50.47a9.8,9.8,0,0,1-1.09,2.62l2.02,2.69L25.39,57l-1.61,1.61L21.64,57l-.55-.41a8.142,8.142,0,0,1-.77.41,9.492,9.492,0,0,1-1.85.68L18,61H14l-.47-3.32a9.8,9.8,0,0,1-2.62-1.09L8.22,58.61,5.39,55.78l2.02-2.69a9.8,9.8,0,0,1-1.09-2.62L3,50V46l3.32-.47a9.8,9.8,0,0,1,1.09-2.62L5.39,40.22l2.83-2.83,2.69,2.02a9.8,9.8,0,0,1,2.62-1.09L14,35h4l.47,3.32a9.8,9.8,0,0,1,2.62,1.09l2.69-2.02,2.83,2.83-2.02,2.69a9.8,9.8,0,0,1,1.09,2.62L29,46v4Z" fill="#ff9811"/>
      <path id="Trazado_1297853" data-name="Trazado 1297853" d="M18,43.41a5.083,5.083,0,0,0-4,0,5.011,5.011,0,0,0,0,9.18,5.083,5.083,0,0,0,4,0,5.011,5.011,0,0,0,0-9.18Z" fill="#ffd422"/>
      <path id="Trazado_1297854" data-name="Trazado 1297854" d="M55,57a3,3,0,0,1-3,3H21v2H52a5.006,5.006,0,0,0,5-5V38H55Z"/>
      <path id="Trazado_1297855" data-name="Trazado 1297855" d="M15,15a3,3,0,0,1,3-3h5.424A4.95,4.95,0,0,0,23,14H19a2,2,0,0,0-2,2V32h2V16h4v3a1,1,0,0,0,1,1H46a1,1,0,0,0,1-1V16h4v6h2V16a2,2,0,0,0-2-2H47a4.95,4.95,0,0,0-.424-2H52a3,3,0,0,1,3,3v5h2V15a5.006,5.006,0,0,0-5-5H44.969A4.952,4.952,0,0,0,42,9H40V7A5,5,0,0,0,30,7V9H28a4.952,4.952,0,0,0-2.969,1H18a5.006,5.006,0,0,0-5,5V32h2Zm10-1a3,3,0,0,1,3-3h3a1,1,0,0,0,1-1V7a3,3,0,0,1,6,0v3a1,1,0,0,0,1,1h3a3,3,0,0,1,3,3v1H25Zm0,3H45v1H25Z"/>
      <path id="Trazado_1297856" data-name="Trazado 1297856" d="M30,58H51a2,2,0,0,0,2-2V42H51v6H46a3,3,0,0,0-3,3v5H30Zm21-2H46.414L51,51.414Zm-6-5a1,1,0,0,1,1-1h3.586L45,54.586Z"/>
      <path id="Trazado_1297857" data-name="Trazado 1297857" d="M34,6h2V8H34Z"/>
      <path id="Trazado_1297858" data-name="Trazado 1297858" d="M60.87,23.13a5.006,5.006,0,0,0-7.071,0L36.122,40.808a1,1,0,0,0-.274.51L35.2,44.557l-1.907,1.907a3,3,0,1,0,4.243,4.243L39.443,48.8l3.239-.648a1,1,0,0,0,.51-.274L60.87,30.2a5.006,5.006,0,0,0,0-7.07Zm-9.9,5.656L52.385,30.2,40.364,42.222,38.95,40.808ZM36.122,49.293a1,1,0,1,1-1.415-1.415l1.414-1.414,1.415,1.415Zm3.156-2.5-2.071-2.071.472-2.357,3.956,3.956Zm3.914-1.743-1.414-1.414L53.8,31.615l1.415,1.414ZM56.628,31.615l-4.243-4.243.707-.707,4.243,4.243Zm2.828-2.828-.707.707-4.243-4.243.707-.707a3,3,0,1,1,4.243,4.243Z"/>
      <path id="Trazado_1297859" data-name="Trazado 1297859" d="M23.178,59.406a1,1,0,0,0,1.307-.093l2.828-2.828a1,1,0,0,0,.093-1.307l-1.624-2.166a10.96,10.96,0,0,0,.678-1.639l2.682-.383A1,1,0,0,0,30,50V46a1,1,0,0,0-.858-.99l-2.682-.383a10.96,10.96,0,0,0-.678-1.639l1.624-2.166a1,1,0,0,0-.093-1.307l-2.828-2.828a1,1,0,0,0-1.307-.093l-2.166,1.624a10.96,10.96,0,0,0-1.639-.678l-.383-2.682A1,1,0,0,0,18,34H14a1,1,0,0,0-.99.858l-.383,2.682a10.96,10.96,0,0,0-1.639.678L8.822,36.594a1,1,0,0,0-1.307.093L4.687,39.515a1,1,0,0,0-.093,1.307l1.624,2.166a10.96,10.96,0,0,0-.678,1.639l-2.682.383A1,1,0,0,0,2,46v4a1,1,0,0,0,.858.99l2.682.383a10.96,10.96,0,0,0,.678,1.639L4.594,55.178a1,1,0,0,0,.093,1.307l2.828,2.828a1,1,0,0,0,1.307.093l2.166-1.624a10.96,10.96,0,0,0,1.639.678l.383,2.682A1,1,0,0,0,14,62h4a1,1,0,0,0,.99-.858l.383-2.682a10.96,10.96,0,0,0,1.639-.678Zm-4.95-2.7a1,1,0,0,0-.743.828L17.133,60H14.867l-.352-2.463a1,1,0,0,0-.743-.828,8.892,8.892,0,0,1-2.356-.975,1,1,0,0,0-1.111.06l-1.99,1.492-1.6-1.6L8.206,53.7a1,1,0,0,0,.06-1.111,8.892,8.892,0,0,1-.975-2.356,1,1,0,0,0-.828-.743L4,49.133V46.867l2.463-.352a1,1,0,0,0,.828-.743,8.892,8.892,0,0,1,.975-2.356,1,1,0,0,0-.06-1.111l-1.492-1.99,1.6-1.6,1.99,1.492a1,1,0,0,0,1.111.06,8.892,8.892,0,0,1,2.356-.975,1,1,0,0,0,.743-.828L14.867,36h2.266l.352,2.463a1,1,0,0,0,.743.828,8.892,8.892,0,0,1,2.356.975,1,1,0,0,0,1.111-.06l1.99-1.492,1.6,1.6L23.793,42.3a1,1,0,0,0-.06,1.111,8.892,8.892,0,0,1,.975,2.356,1,1,0,0,0,.828.743L28,46.867v2.266l-2.463.352a1,1,0,0,0-.828.743,8.892,8.892,0,0,1-.975,2.356,1,1,0,0,0,.06,1.111l1.492,1.99-1.6,1.6L21.7,55.794a1,1,0,0,0-1.111-.06,8.892,8.892,0,0,1-2.361.975Z"/>
      <path id="Trazado_1297860" data-name="Trazado 1297860" d="M16,42a6,6,0,1,0,6,6,6,6,0,0,0-6-6Zm0,10a4,4,0,1,1,4-4A4,4,0,0,1,16,52Z"/>
      <path id="Trazado_1297861" data-name="Trazado 1297861" d="M15,38h2v2H15Z"/>
      <path id="Trazado_1297862" data-name="Trazado 1297862" d="M8.636,40.636h2v2h-2Z" transform="translate(-26.619 19.009) rotate(-45)"/>
      <path id="Trazado_1297863" data-name="Trazado 1297863" d="M6,47H8v2H6Z"/>
      <path id="Trazado_1297864" data-name="Trazado 1297864" d="M8.636,53.364h2v2h-2Z" transform="translate(-35.619 22.737) rotate(-45)"/>
      <path id="Trazado_1297865" data-name="Trazado 1297865" d="M15,56h2v2H15Z"/>
      <path id="Trazado_1297866" data-name="Trazado 1297866" d="M21.364,53.364h2v2h-2Z" transform="translate(-31.891 31.737) rotate(-45)"/>
      <path id="Trazado_1297867" data-name="Trazado 1297867" d="M24,47h2v2H24Z"/>
      <path id="Trazado_1297868" data-name="Trazado 1297868" d="M21.364,40.636h2v2h-2Z" transform="translate(-22.891 28.009) rotate(-45)"/>
      <path id="Trazado_1297869" data-name="Trazado 1297869" d="M28,26a3.008,3.008,0,0,1,.751.1l.5-1.938A5.059,5.059,0,0,0,28,24a5,5,0,1,0,4.842,6.249l-1.936-.5A3,3,0,1,1,28,26Z"/>
      <path id="Trazado_1297870" data-name="Trazado 1297870" d="M26.964,26.5h7.071v2H26.964Z" transform="translate(-10.512 29.621) rotate(-45)"/>
      <path id="Trazado_1297871" data-name="Trazado 1297871" d="M35,26h2v2H35Z"/>
      <path id="Trazado_1297872" data-name="Trazado 1297872" d="M39,26h4v2H39Z"/>
      <path id="Trazado_1297873" data-name="Trazado 1297873" d="M35,30h6v2H35Z"/>
    </g>
  </g>
</svg>
