<svg xmlns="http://www.w3.org/2000/svg" xmlns:xlink="http://www.w3.org/1999/xlink" width="106.16" height="106.16" viewBox="0 0 106.16 106.16">
  <defs>
    <filter id="Trazado_982547" x="0" y="0" width="106.16" height="106.16" filterUnits="userSpaceOnUse">
      <feOffset dy="3" input="SourceAlpha"/>
      <feGaussianBlur stdDeviation="3" result="blur"/>
      <feFlood flood-opacity="0.161"/>
      <feComposite operator="in" in2="blur"/>
      <feComposite in="SourceGraphic"/>
    </filter>
  </defs>
  <g id="Grupo_1241609" data-name="Grupo 1241609" transform="translate(-611.42 -1416)">
    <g id="Grupo_1235638" data-name="Grupo 1235638" transform="translate(620.42 1422)">
      <g id="Grupo_1235128" data-name="Grupo 1235128" transform="translate(0 0)">
        <g id="Grupo_1233884" data-name="Grupo 1233884" transform="translate(0 0)">
          <g id="Grupo_1228506" data-name="Grupo 1228506" transform="translate(0 0)">
            <g id="Grupo_1206132" data-name="Grupo 1206132" transform="translate(0 0)">
              <g id="Grupo_1203794" data-name="Grupo 1203794">
                <g id="Grupo_1203345" data-name="Grupo 1203345">
                  <g id="Grupo_1177900" data-name="Grupo 1177900">
                    <g id="Grupo_1172010" data-name="Grupo 1172010">
                      <g id="Grupo_1171046" data-name="Grupo 1171046">
                        <g id="Grupo_1148525" data-name="Grupo 1148525">
                          <g transform="matrix(1, 0, 0, 1, -9, -6)" filter="url(#Trazado_982547)">
                            <g id="Trazado_982547-2" data-name="Trazado 982547" transform="translate(9 6)" fill="#e9f9fd">
                              <path d="M 44.0802001953125 86.660400390625 C 38.33124923706055 86.660400390625 32.75506210327148 85.53479766845703 27.50652503967285 83.31484985351562 C 22.43628692626953 81.17032623291016 17.88242530822754 78.09992218017578 13.97144985198975 74.18894958496094 C 10.06047534942627 70.27797698974609 6.99007511138916 65.72411346435547 4.845550060272217 60.65387344360352 C 2.625600099563599 55.40533828735352 1.500000238418579 49.82915115356445 1.500000238418579 44.0802001953125 C 1.500000238418579 38.33124923706055 2.625600099563599 32.75506210327148 4.845550060272217 27.50652503967285 C 6.99007511138916 22.43628692626953 10.06047534942627 17.88242530822754 13.97144985198975 13.97144985198975 C 17.88242530822754 10.06047534942627 22.43628692626953 6.99007511138916 27.50652503967285 4.845550060272217 C 32.75506210327148 2.625600099563599 38.33124923706055 1.500000238418579 44.0802001953125 1.500000238418579 C 49.82915115356445 1.500000238418579 55.40533828735352 2.625600099563599 60.65387344360352 4.845550060272217 C 65.72411346435547 6.99007511138916 70.27797698974609 10.06047534942627 74.18894958496094 13.97144985198975 C 78.09992218017578 17.88242530822754 81.17032623291016 22.43628692626953 83.31484985351562 27.50652503967285 C 85.53479766845703 32.75506210327148 86.660400390625 38.33124923706055 86.660400390625 44.0802001953125 C 86.660400390625 49.82915115356445 85.53479766845703 55.40533828735352 83.31484985351562 60.65387344360352 C 81.17032623291016 65.72411346435547 78.09992218017578 70.27797698974609 74.18894958496094 74.18894958496094 C 70.27797698974609 78.09992218017578 65.72411346435547 81.17032623291016 60.65387344360352 83.31484985351562 C 55.40533828735352 85.53479766845703 49.82915115356445 86.660400390625 44.0802001953125 86.660400390625 Z" stroke="none"/>
                              <path d="M 44.0802001953125 3 C 38.53308486938477 3 33.15349960327148 4.085746765136719 28.09085845947266 6.227058410644531 C 23.19941711425781 8.29595947265625 18.80581665039062 11.25841522216797 15.03211212158203 15.03211212158203 C 11.25841522216797 18.80581665039062 8.29595947265625 23.19941711425781 6.227058410644531 28.09085845947266 C 4.085746765136719 33.15349960327148 3 38.53308486938477 3 44.0802001953125 C 3 49.62731552124023 4.085746765136719 55.00691604614258 6.227058410644531 60.06954193115234 C 8.29595947265625 64.96098327636719 11.25841522216797 69.35458374023438 15.03211212158203 73.12828826904297 C 18.80581665039062 76.90198516845703 23.19941711425781 79.86444091796875 28.09085845947266 81.93334197998047 C 33.15349960327148 84.07466125488281 38.53308486938477 85.160400390625 44.0802001953125 85.160400390625 C 49.62731552124023 85.160400390625 55.00691604614258 84.07466125488281 60.06954193115234 81.93334197998047 C 64.96099853515625 79.86444091796875 69.35458374023438 76.90198516845703 73.12828826904297 73.12828826904297 C 76.90198516845703 69.35458374023438 79.86444091796875 64.96099853515625 81.93334197998047 60.06954193115234 C 84.07466125488281 55.00691604614258 85.160400390625 49.62731552124023 85.160400390625 44.0802001953125 C 85.160400390625 38.53308486938477 84.07466125488281 33.15349960327148 81.93334197998047 28.09085845947266 C 79.86444091796875 23.19941711425781 76.90198516845703 18.80581665039062 73.12828826904297 15.03211212158203 C 69.35458374023438 11.25841522216797 64.96098327636719 8.29595947265625 60.06954193115234 6.227058410644531 C 55.00691604614258 4.085746765136719 49.62731552124023 3 44.0802001953125 3 M 44.0802001953125 0 C 68.42502593994141 0 88.160400390625 19.73538970947266 88.160400390625 44.0802001953125 C 88.160400390625 68.42502593994141 68.42502593994141 88.160400390625 44.0802001953125 88.160400390625 C 19.73538970947266 88.160400390625 0 68.42502593994141 0 44.0802001953125 C 0 19.73538970947266 19.73538970947266 0 44.0802001953125 0 Z" stroke="none" fill="#1d7083"/>
                            </g>
                          </g>
                        </g>
                      </g>
                    </g>
                  </g>
                </g>
              </g>
            </g>
          </g>
        </g>
      </g>
    </g>
    <g id="cronograma" transform="translate(633 1434)">
      <g id="Grupo_1241607" data-name="Grupo 1241607">
        <path id="Trazado_1297636" data-name="Trazado 1297636" d="M54.3,12.277a4,4,0,0,0-4-4H7a4,4,0,0,0-4,4V18.95H54.3Z" fill="#faa629"/>
        <path id="Trazado_1297637" data-name="Trazado 1297637" d="M5,18.951a8.673,8.673,0,0,1,8.673-8.673H52.3a3.971,3.971,0,0,1,1.64.36,3.994,3.994,0,0,0-3.64-2.36H7a4,4,0,0,0-4,4v6.673H5Z" fill="#f78c1e"/>
        <path id="Trazado_1297638" data-name="Trazado 1297638" d="M3,18.951V46.158a4,4,0,0,0,4,4H50.3a4,4,0,0,0,4-4V18.951Z" fill="#eee"/>
        <path id="Trazado_1297639" data-name="Trazado 1297639" d="M5,48.158V42.951a22,22,0,0,1,22-22H54.3v-2H3V46.158A3.994,3.994,0,0,0,5.36,49.8,3.972,3.972,0,0,1,5,48.158Z" fill="#e0e0e0"/>
        <rect id="Rectángulo_423251" data-name="Rectángulo 423251" width="24" height="24" rx="2" transform="translate(37 37)" fill="#faa629"/>
        <path id="Trazado_1297640" data-name="Trazado 1297640" d="M49,39H61a2,2,0,0,0-2-2H39a2,2,0,0,0-2,2V59a2,2,0,0,0,2,2V49A10,10,0,0,1,49,39Z" fill="#f78c1e"/>
        <path id="Trazado_1297641" data-name="Trazado 1297641" d="M54.3,46.812l-5.3-2-5.3,2V37H54.3Z" fill="#f78c1e"/>
        <rect id="Rectángulo_423252" data-name="Rectángulo 423252" width="7.554" height="10.554" rx="2" transform="translate(36.871 3)" fill="#70b2e2"/>
        <rect id="Rectángulo_423253" data-name="Rectángulo 423253" width="7.554" height="10.554" rx="2" transform="translate(12.871 3)" fill="#70b2e2"/>
        <g id="Grupo_1241606" data-name="Grupo 1241606">
          <path id="Trazado_1297642" data-name="Trazado 1297642" d="M23.678,24.554h9.941v8H23.678Z" fill="#66bb6a"/>
          <path id="Trazado_1297643" data-name="Trazado 1297643" d="M23.678,24.554h9.941v8H23.678Z" fill="#66bb6a"/>
          <path id="Trazado_1297644" data-name="Trazado 1297644" d="M23.678,37.554h9.941v8H23.678Z" fill="#66bb6a"/>
          <path id="Trazado_1297645" data-name="Trazado 1297645" d="M23.678,37.554h9.941v8H23.678Z" fill="#66bb6a"/>
          <path id="Trazado_1297646" data-name="Trazado 1297646" d="M7.678,24.554h9.941v8H7.678Z" fill="#66bb6a"/>
          <path id="Trazado_1297647" data-name="Trazado 1297647" d="M7.678,24.554h9.941v8H7.678Z" fill="#66bb6a"/>
          <path id="Trazado_1297648" data-name="Trazado 1297648" d="M7.678,37.554h9.941v8H7.678Z" fill="#66bb6a"/>
          <path id="Trazado_1297649" data-name="Trazado 1297649" d="M7.678,37.554h9.941v8H7.678Z" fill="#66bb6a"/>
          <path id="Trazado_1297650" data-name="Trazado 1297650" d="M39.678,24.554h9.941v8H39.678Z" fill="#66bb6a"/>
          <path id="Trazado_1297651" data-name="Trazado 1297651" d="M39.678,24.554h9.941v8H39.678Z" fill="#66bb6a"/>
        </g>
      </g>
      <g id="Grupo_1241608" data-name="Grupo 1241608">
        <path id="Trazado_1297652" data-name="Trazado 1297652" d="M59,36H39a3,3,0,0,0-3,3V59a3,3,0,0,0,3,3H59a3,3,0,0,0,3-3V39A3,3,0,0,0,59,36Zm-5.7,2v7.365l-3.943-1.489a1,1,0,0,0-.707,0L44.7,45.365V38H53.3ZM60,59a1,1,0,0,1-1,1H39a1,1,0,0,1-1-1V39a1,1,0,0,1,1-1h3.7v8.812a1,1,0,0,0,1.354.936L49,45.881l4.943,1.866a1,1,0,0,0,1.354-.936V38H59a1,1,0,0,1,1,1V59Z"/>
        <path id="Trazado_1297653" data-name="Trazado 1297653" d="M33,49.158H7a3,3,0,0,1-3-3V19.95H53.3V33a1,1,0,0,0,2,0V12.277a5.006,5.006,0,0,0-5-5H45.426V5a3,3,0,0,0-3-3H38.871a3,3,0,0,0-3,3V7.277H24.648a1,1,0,0,0,0,2H35.871v2.277a3,3,0,0,0,3,3h3.555a3,3,0,0,0,3-3V9.277H50.3a3,3,0,0,1,3,3V17.95H4V12.277a3,3,0,0,1,3-3h4.871v2.277a3,3,0,0,0,3,3h3.555a3,3,0,0,0,3-3V5a3,3,0,0,0-3-3H14.871a3,3,0,0,0-3,3V7.277H7a5.006,5.006,0,0,0-5,5V46.158a5.006,5.006,0,0,0,5,5H33a1,1,0,0,0,0-2Zm10.426-37.6a1,1,0,0,1-1,1H38.871a1,1,0,0,1-1-1V5a1,1,0,0,1,1-1h3.555a1,1,0,0,1,1,1ZM13.871,5a1,1,0,0,1,1-1h3.555a1,1,0,0,1,1,1v6.555a1,1,0,0,1-1,1H14.871a1,1,0,0,1-1-1Z"/>
        <path id="Trazado_1297654" data-name="Trazado 1297654" d="M33.619,23.555H23.678a1,1,0,0,0-1,1v8a1,1,0,0,0,1,1h9.941a1,1,0,0,0,1-1v-8a1,1,0,0,0-1-1Zm-1,8H24.678v-6h7.941Z"/>
        <path id="Trazado_1297655" data-name="Trazado 1297655" d="M33.619,36.555H23.678a1,1,0,0,0-1,1v8a1,1,0,0,0,1,1h9.941a1,1,0,0,0,1-1v-8A1,1,0,0,0,33.619,36.555Zm-1,8H24.678v-6h7.941Z"/>
        <path id="Trazado_1297656" data-name="Trazado 1297656" d="M18.619,24.555a1,1,0,0,0-1-1H7.678a1,1,0,0,0-1,1v8a1,1,0,0,0,1,1h9.941a1,1,0,0,0,1-1Zm-2,7H8.678v-6h7.941Z"/>
        <path id="Trazado_1297657" data-name="Trazado 1297657" d="M17.619,36.555H7.678a1,1,0,0,0-1,1v8a1,1,0,0,0,1,1h9.941a1,1,0,0,0,1-1v-8A1,1,0,0,0,17.619,36.555Zm-1,8H8.678v-6h7.941Z"/>
        <path id="Trazado_1297658" data-name="Trazado 1297658" d="M39.678,23.555a1,1,0,0,0-1,1v8a1,1,0,0,0,1,1h9.941a1,1,0,0,0,1-1v-8a1,1,0,0,0-1-1Zm8.941,8H40.678v-6h7.941Z"/>
      </g>
    </g>
  </g>
</svg>
