<svg xmlns="http://www.w3.org/2000/svg" xmlns:xlink="http://www.w3.org/1999/xlink" width="106.16" height="106.16" viewBox="0 0 106.16 106.16">
  <defs>
    <filter id="Trazado_982547" x="0" y="0" width="106.16" height="106.16" filterUnits="userSpaceOnUse">
      <feOffset dy="3" input="SourceAlpha"/>
      <feGaussianBlur stdDeviation="3" result="blur"/>
      <feFlood flood-opacity="0.161"/>
      <feComposite operator="in" in2="blur"/>
      <feComposite in="SourceGraphic"/>
    </filter>
  </defs>
  <g id="Grupo_1241611" data-name="Grupo 1241611" transform="translate(-611.42 -1572.355)">
    <g id="Grupo_1235641" data-name="Grupo 1235641" transform="translate(620.42 1578.355)">
      <g id="Grupo_1235128" data-name="Grupo 1235128" transform="translate(0 0)">
        <g id="Grupo_1233884" data-name="Grupo 1233884" transform="translate(0 0)">
          <g id="Grupo_1228506" data-name="Grupo 1228506" transform="translate(0 0)">
            <g id="Grupo_1206132" data-name="Grupo 1206132" transform="translate(0 0)">
              <g id="Grupo_1203794" data-name="Grupo 1203794">
                <g id="Grupo_1203345" data-name="Grupo 1203345">
                  <g id="Grupo_1177900" data-name="Grupo 1177900">
                    <g id="Grupo_1172010" data-name="Grupo 1172010">
                      <g id="Grupo_1171046" data-name="Grupo 1171046">
                        <g id="Grupo_1148525" data-name="Grupo 1148525">
                          <g transform="matrix(1, 0, 0, 1, -9, -6)" filter="url(#Trazado_982547)">
                            <g id="Trazado_982547-2" data-name="Trazado 982547" transform="translate(9 6)" fill="#e9f9fd">
                              <path d="M 44.0802001953125 86.660400390625 C 38.33124923706055 86.660400390625 32.75506210327148 85.53479766845703 27.50652503967285 83.31484985351562 C 22.43628692626953 81.17032623291016 17.88242530822754 78.09992218017578 13.97144985198975 74.18894958496094 C 10.06047534942627 70.27797698974609 6.99007511138916 65.72411346435547 4.845550060272217 60.65387344360352 C 2.625600099563599 55.40533828735352 1.500000238418579 49.82915115356445 1.500000238418579 44.0802001953125 C 1.500000238418579 38.33124923706055 2.625600099563599 32.75506210327148 4.845550060272217 27.50652503967285 C 6.99007511138916 22.43628692626953 10.06047534942627 17.88242530822754 13.97144985198975 13.97144985198975 C 17.88242530822754 10.06047534942627 22.43628692626953 6.99007511138916 27.50652503967285 4.845550060272217 C 32.75506210327148 2.625600099563599 38.33124923706055 1.500000238418579 44.0802001953125 1.500000238418579 C 49.82915115356445 1.500000238418579 55.40533828735352 2.625600099563599 60.65387344360352 4.845550060272217 C 65.72411346435547 6.99007511138916 70.27797698974609 10.06047534942627 74.18894958496094 13.97144985198975 C 78.09992218017578 17.88242530822754 81.17032623291016 22.43628692626953 83.31484985351562 27.50652503967285 C 85.53479766845703 32.75506210327148 86.660400390625 38.33124923706055 86.660400390625 44.0802001953125 C 86.660400390625 49.82915115356445 85.53479766845703 55.40533828735352 83.31484985351562 60.65387344360352 C 81.17032623291016 65.72411346435547 78.09992218017578 70.27797698974609 74.18894958496094 74.18894958496094 C 70.27797698974609 78.09992218017578 65.72411346435547 81.17032623291016 60.65387344360352 83.31484985351562 C 55.40533828735352 85.53479766845703 49.82915115356445 86.660400390625 44.0802001953125 86.660400390625 Z" stroke="none"/>
                              <path d="M 44.0802001953125 3 C 38.53308486938477 3 33.15349960327148 4.085746765136719 28.09085845947266 6.227058410644531 C 23.19941711425781 8.29595947265625 18.80581665039062 11.25841522216797 15.03211212158203 15.03211212158203 C 11.25841522216797 18.80581665039062 8.29595947265625 23.19941711425781 6.227058410644531 28.09085845947266 C 4.085746765136719 33.15349960327148 3 38.53308486938477 3 44.0802001953125 C 3 49.62731552124023 4.085746765136719 55.00691604614258 6.227058410644531 60.06954193115234 C 8.29595947265625 64.96098327636719 11.25841522216797 69.35458374023438 15.03211212158203 73.12828826904297 C 18.80581665039062 76.90198516845703 23.19941711425781 79.86444091796875 28.09085845947266 81.93334197998047 C 33.15349960327148 84.07466125488281 38.53308486938477 85.160400390625 44.0802001953125 85.160400390625 C 49.62731552124023 85.160400390625 55.00691604614258 84.07466125488281 60.06954193115234 81.93334197998047 C 64.96099853515625 79.86444091796875 69.35458374023438 76.90198516845703 73.12828826904297 73.12828826904297 C 76.90198516845703 69.35458374023438 79.86444091796875 64.96099853515625 81.93334197998047 60.06954193115234 C 84.07466125488281 55.00691604614258 85.160400390625 49.62731552124023 85.160400390625 44.0802001953125 C 85.160400390625 38.53308486938477 84.07466125488281 33.15349960327148 81.93334197998047 28.09085845947266 C 79.86444091796875 23.19941711425781 76.90198516845703 18.80581665039062 73.12828826904297 15.03211212158203 C 69.35458374023438 11.25841522216797 64.96098327636719 8.29595947265625 60.06954193115234 6.227058410644531 C 55.00691604614258 4.085746765136719 49.62731552124023 3 44.0802001953125 3 M 44.0802001953125 0 C 68.42502593994141 0 88.160400390625 19.73538970947266 88.160400390625 44.0802001953125 C 88.160400390625 68.42502593994141 68.42502593994141 88.160400390625 44.0802001953125 88.160400390625 C 19.73538970947266 88.160400390625 0 68.42502593994141 0 44.0802001953125 C 0 19.73538970947266 19.73538970947266 0 44.0802001953125 0 Z" stroke="none" fill="#1d7083"/>
                            </g>
                          </g>
                        </g>
                      </g>
                    </g>
                  </g>
                </g>
              </g>
            </g>
          </g>
        </g>
      </g>
    </g>
    <g id="briefing" transform="translate(641.663 1592.235)">
      <path id="Trazado_1297659" data-name="Trazado 1297659" d="M45.948,101.524H10.017a2.005,2.005,0,0,1-2.005-2.005V49.634a2.005,2.005,0,0,1,2.005-2.005h35.93a2.005,2.005,0,0,1,2.005,2.005V99.519A2.005,2.005,0,0,1,45.948,101.524Zm0,0" transform="translate(-6.627 -42.01)" fill="#ffded5"/>
      <path id="Trazado_1297660" data-name="Trazado 1297660" d="M45.927,47.629H43.8V95.251a2.026,2.026,0,0,1-2.026,2.026H8.012V99.5a2.026,2.026,0,0,0,2.026,2.026H45.927A2.026,2.026,0,0,0,47.953,99.5V49.655a2.026,2.026,0,0,0-2.026-2.026Zm0,0" transform="translate(-6.627 -42.01)" fill="#f7c6ba"/>
      <path id="Trazado_1297661" data-name="Trazado 1297661" d="M124.776,15.734h-13.5a1.18,1.18,0,0,1-1.18-1.18V10.343a2.831,2.831,0,0,1,2.831-2.831h10.192a2.831,2.831,0,0,1,2.831,2.831v4.211a1.18,1.18,0,0,1-1.18,1.18Zm0,0" transform="translate(-96.673 -6.625)" fill="#ff6914"/>
      <path id="Trazado_1297662" data-name="Trazado 1297662" d="M123.1,7.512h-.73a2.87,2.87,0,0,1,.091.719V12.4a1.192,1.192,0,0,1-1.192,1.192H110.1v.949a1.192,1.192,0,0,0,1.192,1.192h13.471a1.192,1.192,0,0,0,1.192-1.192v-4.17a2.86,2.86,0,0,0-2.86-2.86Zm0,0" transform="translate(-96.673 -6.625)" fill="#ed500a"/>
      <path id="Trazado_1297663" data-name="Trazado 1297663" d="M252.994,87.691a10.37,10.37,0,1,1-10.37-10.37,10.37,10.37,0,0,1,10.37,10.37Zm0,0" transform="translate(-204.415 -68.199)" fill="#ff8900"/>
      <path id="Trazado_1297664" data-name="Trazado 1297664" d="M267.16,83.473a10.373,10.373,0,0,1-11.418,16.7,10.371,10.371,0,1,0,11.418-16.7Zm0,0" transform="translate(-225.132 -73.625)" fill="#ff6914"/>
      <path id="Trazado_1297665" data-name="Trazado 1297665" d="M263.3,94.406a2.027,2.027,0,0,1-1.433-.593L256.9,88.852a2.026,2.026,0,1,1,2.865-2.865l3.528,3.528,9.167-9.167a2.026,2.026,0,1,1,2.865,2.865l-10.6,10.6a2.027,2.027,0,0,1-1.433.593Zm0,0" transform="translate(-225.633 -70.346)" fill="#0882bf"/>
      <path id="Trazado_1297666" data-name="Trazado 1297666" d="M306.571,80.957a2.016,2.016,0,0,0-.864-.512,2.025,2.025,0,0,1-.512,2l-10.6,10.6a2.025,2.025,0,0,1-2.865,0l1.376,1.376a2.027,2.027,0,0,0,2.865,0l10.6-10.6a2.026,2.026,0,0,0,0-2.865Zm0,0" transform="translate(-256.875 -70.955)" fill="#005ca0"/>
      <g id="Grupo_1241610" data-name="Grupo 1241610" transform="translate(5.279 13.096)">
        <path id="Trazado_1297667" data-name="Trazado 1297667" d="M117.586,190.319h-10.8a.886.886,0,0,1,0-1.772h10.8a.886.886,0,1,1,0,1.772Zm0,0" transform="translate(-98.249 -179.4)" fill="#0882bf"/>
        <path id="Trazado_1297668" data-name="Trazado 1297668" d="M47.868,112.784H41.906a.886.886,0,1,1,0-1.772h5.963a.886.886,0,1,1,0,1.772Zm0,0" transform="translate(-41.019 -111.012)" fill="#0882bf"/>
        <path id="Trazado_1297669" data-name="Trazado 1297669" d="M117.586,225.166h-10.8a.886.886,0,0,1,0-1.772h10.8a.886.886,0,1,1,0,1.772Zm0,0" transform="translate(-98.249 -210.137)" fill="#0882bf"/>
        <path id="Trazado_1297670" data-name="Trazado 1297670" d="M121.315,281.421H106.788a.886.886,0,0,1,0-1.772h14.527a.886.886,0,1,1,0,1.772Zm0,0" transform="translate(-98.248 -259.755)" fill="#0882bf"/>
        <path id="Trazado_1297671" data-name="Trazado 1297671" d="M114.052,316.269h-7.264a.886.886,0,0,1,0-1.772h7.264a.886.886,0,0,1,0,1.772Zm0,0" transform="translate(-98.248 -290.492)" fill="#0882bf"/>
        <path id="Trazado_1297672" data-name="Trazado 1297672" d="M117.586,372.62h-10.8a.886.886,0,0,1,0-1.772h10.8a.886.886,0,1,1,0,1.772Zm0,0" transform="translate(-98.249 -340.195)" fill="#0882bf"/>
        <path id="Trazado_1297673" data-name="Trazado 1297673" d="M121.315,407.467H106.788a.886.886,0,0,1,0-1.772h14.527a.886.886,0,1,1,0,1.772Zm0,0" transform="translate(-98.248 -370.932)" fill="#0882bf"/>
      </g>
      <path id="Trazado_1297674" data-name="Trazado 1297674" d="M47.031,192.24a2.693,2.693,0,1,1-2.693-2.693A2.693,2.693,0,0,1,47.031,192.24Zm0,0" transform="translate(-36.292 -167.186)" fill="#ff8900"/>
      <path id="Trazado_1297675" data-name="Trazado 1297675" d="M47.031,284.451a2.693,2.693,0,1,1-2.693-2.693A2.693,2.693,0,0,1,47.031,284.451Zm0,0" transform="translate(-36.292 -248.519)" fill="#ff8900"/>
      <path id="Trazado_1297676" data-name="Trazado 1297676" d="M47.031,375.646a2.693,2.693,0,1,1-2.693-2.693A2.693,2.693,0,0,1,47.031,375.646Zm0,0" transform="translate(-36.292 -328.956)" fill="#ff8900"/>
      <path id="Trazado_1297677" data-name="Trazado 1297677" d="M117.586,190.319h-10.8a.886.886,0,0,1,0-1.772h10.8a.886.886,0,1,1,0,1.772Zm0,0" transform="translate(-92.97 -166.304)"/>
      <path id="Trazado_1297678" data-name="Trazado 1297678" d="M47.868,112.784H41.906a.886.886,0,1,1,0-1.772h5.963a.886.886,0,1,1,0,1.772Zm0,0" transform="translate(-35.741 -97.915)"/>
      <path id="Trazado_1297679" data-name="Trazado 1297679" d="M117.586,225.166h-10.8a.886.886,0,0,1,0-1.772h10.8a.886.886,0,1,1,0,1.772Zm0,0" transform="translate(-92.97 -197.041)"/>
      <path id="Trazado_1297680" data-name="Trazado 1297680" d="M121.315,281.421H106.788a.886.886,0,0,1,0-1.772h14.527a.886.886,0,1,1,0,1.772Zm0,0" transform="translate(-92.969 -246.658)"/>
      <path id="Trazado_1297681" data-name="Trazado 1297681" d="M114.052,316.269h-7.264a.886.886,0,0,1,0-1.772h7.264a.886.886,0,0,1,0,1.772Zm0,0" transform="translate(-92.969 -277.395)"/>
      <path id="Trazado_1297682" data-name="Trazado 1297682" d="M117.586,372.62h-10.8a.886.886,0,0,1,0-1.772h10.8a.886.886,0,1,1,0,1.772Zm0,0" transform="translate(-92.97 -327.099)"/>
      <path id="Trazado_1297683" data-name="Trazado 1297683" d="M121.315,407.467H106.788a.886.886,0,0,1,0-1.772h14.527a.886.886,0,1,1,0,1.772Zm0,0" transform="translate(-92.969 -357.836)"/>
      <path id="Trazado_1297684" data-name="Trazado 1297684" d="M37.712,189.194a3.579,3.579,0,1,1,3.579-3.579A3.583,3.583,0,0,1,37.712,189.194Zm0-5.386a1.807,1.807,0,1,0,1.807,1.807A1.809,1.809,0,0,0,37.712,183.808Zm0,0" transform="translate(-29.666 -160.561)"/>
      <path id="Trazado_1297685" data-name="Trazado 1297685" d="M37.712,281.4a3.579,3.579,0,1,1,3.579-3.579A3.583,3.583,0,0,1,37.712,281.4Zm0-5.386a1.807,1.807,0,1,0,1.807,1.807A1.809,1.809,0,0,0,37.712,276.015Zm0,0" transform="translate(-29.666 -241.89)"/>
      <path id="Trazado_1297686" data-name="Trazado 1297686" d="M37.712,372.6a3.579,3.579,0,1,1,3.579-3.579A3.583,3.583,0,0,1,37.712,372.6Zm0-5.386a1.807,1.807,0,1,0,1.807,1.807A1.809,1.809,0,0,0,37.712,367.214Zm0,0" transform="translate(-29.666 -322.33)"/>
      <path id="Trazado_1297687" data-name="Trazado 1297687" d="M34.762,15.014a2.912,2.912,0,1,0-4.119,4.118L35.6,24.094a2.912,2.912,0,0,0,4.118,0l10.6-10.6A2.912,2.912,0,1,0,46.2,9.376l-1.169,1.169A11.257,11.257,0,0,0,42.212,8.97V7.645A2.915,2.915,0,0,0,39.3,4.733H30.169V3.722A3.726,3.726,0,0,0,26.447,0H16.264a3.726,3.726,0,0,0-3.722,3.722v4.2A2.07,2.07,0,0,0,14.61,9.995H28.1a2.07,2.07,0,0,0,2.068-2.068V6.505H39.3a1.141,1.141,0,0,1,1.14,1.14v.816a11.255,11.255,0,1,0,0,22.065V57.489a1.141,1.141,0,0,1-1.14,1.14H3.411a1.141,1.141,0,0,1-1.14-1.14V7.645a1.141,1.141,0,0,1,1.14-1.14H9.3a.886.886,0,0,0,0-1.772H3.411A2.915,2.915,0,0,0,.5,7.645V57.489A2.915,2.915,0,0,0,3.411,60.4H39.3a2.915,2.915,0,0,0,2.912-2.912V30.014a11.262,11.262,0,0,0,7.246-10.129.886.886,0,1,0-1.771-.061,9.437,9.437,0,0,1-6.564,8.7.842.842,0,0,0-.148.048,9.488,9.488,0,1,1-2.766-18.564,9.468,9.468,0,0,1,5.561,1.8l-6.106,6.106ZM28.4,7.927a.3.3,0,0,1-.3.3H14.61a.3.3,0,0,1-.3-.3v-4.2a1.951,1.951,0,0,1,1.949-1.949H26.447A1.951,1.951,0,0,1,28.4,3.722Zm19.061,2.7a1.14,1.14,0,1,1,1.612,1.612l-10.6,10.6a1.139,1.139,0,0,1-1.612,0L31.9,17.88a1.14,1.14,0,1,1,1.612-1.612L37.037,19.8a.886.886,0,0,0,1.253,0Zm0,0" transform="translate(0)"/>
    </g>
  </g>
</svg>
