<svg xmlns="http://www.w3.org/2000/svg" xmlns:xlink="http://www.w3.org/1999/xlink" width="106.16" height="106.16" viewBox="0 0 106.16 106.16">
  <defs>
    <filter id="Trazado_982547" x="0" y="0" width="106.16" height="106.16" filterUnits="userSpaceOnUse">
      <feOffset dy="3" input="SourceAlpha"/>
      <feGaussianBlur stdDeviation="3" result="blur"/>
      <feFlood flood-opacity="0.161"/>
      <feComposite operator="in" in2="blur"/>
      <feComposite in="SourceGraphic"/>
    </filter>
  </defs>
  <g id="Grupo_1241290" data-name="Grupo 1241290" transform="translate(-610.42 -1121)">
    <g id="Grupo_1235586" data-name="Grupo 1235586" transform="translate(420 -4)">
      <g id="Grupo_1235128" data-name="Grupo 1235128" transform="translate(199.42 1131)">
        <g id="Grupo_1233884" data-name="Grupo 1233884" transform="translate(0 0)">
          <g id="Grupo_1228506" data-name="Grupo 1228506" transform="translate(0 0)">
            <g id="Grupo_1206132" data-name="Grupo 1206132" transform="translate(0 0)">
              <g id="Grupo_1203794" data-name="Grupo 1203794">
                <g id="Grupo_1203345" data-name="Grupo 1203345">
                  <g id="Grupo_1177900" data-name="Grupo 1177900">
                    <g id="Grupo_1172010" data-name="Grupo 1172010">
                      <g id="Grupo_1171046" data-name="Grupo 1171046">
                        <g id="Grupo_1148525" data-name="Grupo 1148525">
                          <g transform="matrix(1, 0, 0, 1, -9, -6)" filter="url(#Trazado_982547)">
                            <g id="Trazado_982547-2" data-name="Trazado 982547" transform="translate(9 6)" fill="#e9f9fd">
                              <path d="M 44.0802001953125 86.660400390625 C 38.33124923706055 86.660400390625 32.75506210327148 85.53479766845703 27.50652503967285 83.31484985351562 C 22.43628692626953 81.17032623291016 17.88242530822754 78.09992218017578 13.97144985198975 74.18894958496094 C 10.06047534942627 70.27797698974609 6.99007511138916 65.72411346435547 4.845550060272217 60.65387344360352 C 2.625600099563599 55.40533828735352 1.500000238418579 49.82915115356445 1.500000238418579 44.0802001953125 C 1.500000238418579 38.33124923706055 2.625600099563599 32.75506210327148 4.845550060272217 27.50652503967285 C 6.99007511138916 22.43628692626953 10.06047534942627 17.88242530822754 13.97144985198975 13.97144985198975 C 17.88242530822754 10.06047534942627 22.43628692626953 6.99007511138916 27.50652503967285 4.845550060272217 C 32.75506210327148 2.625600099563599 38.33124923706055 1.500000238418579 44.0802001953125 1.500000238418579 C 49.82915115356445 1.500000238418579 55.40533828735352 2.625600099563599 60.65387344360352 4.845550060272217 C 65.72411346435547 6.99007511138916 70.27797698974609 10.06047534942627 74.18894958496094 13.97144985198975 C 78.09992218017578 17.88242530822754 81.17032623291016 22.43628692626953 83.31484985351562 27.50652503967285 C 85.53479766845703 32.75506210327148 86.660400390625 38.33124923706055 86.660400390625 44.0802001953125 C 86.660400390625 49.82915115356445 85.53479766845703 55.40533828735352 83.31484985351562 60.65387344360352 C 81.17032623291016 65.72411346435547 78.09992218017578 70.27797698974609 74.18894958496094 74.18894958496094 C 70.27797698974609 78.09992218017578 65.72411346435547 81.17032623291016 60.65387344360352 83.31484985351562 C 55.40533828735352 85.53479766845703 49.82915115356445 86.660400390625 44.0802001953125 86.660400390625 Z" stroke="none"/>
                              <path d="M 44.0802001953125 3 C 38.53308486938477 3 33.15349960327148 4.085746765136719 28.09085845947266 6.227058410644531 C 23.19941711425781 8.29595947265625 18.80581665039062 11.25841522216797 15.03211212158203 15.03211212158203 C 11.25841522216797 18.80581665039062 8.29595947265625 23.19941711425781 6.227058410644531 28.09085845947266 C 4.085746765136719 33.15349960327148 3 38.53308486938477 3 44.0802001953125 C 3 49.62731552124023 4.085746765136719 55.00691604614258 6.227058410644531 60.06954193115234 C 8.29595947265625 64.96098327636719 11.25841522216797 69.35458374023438 15.03211212158203 73.12828826904297 C 18.80581665039062 76.90198516845703 23.19941711425781 79.86444091796875 28.09085845947266 81.93334197998047 C 33.15349960327148 84.07466125488281 38.53308486938477 85.160400390625 44.0802001953125 85.160400390625 C 49.62731552124023 85.160400390625 55.00691604614258 84.07466125488281 60.06954193115234 81.93334197998047 C 64.96099853515625 79.86444091796875 69.35458374023438 76.90198516845703 73.12828826904297 73.12828826904297 C 76.90198516845703 69.35458374023438 79.86444091796875 64.96099853515625 81.93334197998047 60.06954193115234 C 84.07466125488281 55.00691604614258 85.160400390625 49.62731552124023 85.160400390625 44.0802001953125 C 85.160400390625 38.53308486938477 84.07466125488281 33.15349960327148 81.93334197998047 28.09085845947266 C 79.86444091796875 23.19941711425781 76.90198516845703 18.80581665039062 73.12828826904297 15.03211212158203 C 69.35458374023438 11.25841522216797 64.96098327636719 8.29595947265625 60.06954193115234 6.227058410644531 C 55.00691604614258 4.085746765136719 49.62731552124023 3 44.0802001953125 3 M 44.0802001953125 0 C 68.42502593994141 0 88.160400390625 19.73538970947266 88.160400390625 44.0802001953125 C 88.160400390625 68.42502593994141 68.42502593994141 88.160400390625 44.0802001953125 88.160400390625 C 19.73538970947266 88.160400390625 0 68.42502593994141 0 44.0802001953125 C 0 19.73538970947266 19.73538970947266 0 44.0802001953125 0 Z" stroke="none" fill="#1d7083"/>
                            </g>
                          </g>
                        </g>
                      </g>
                    </g>
                  </g>
                </g>
              </g>
            </g>
          </g>
        </g>
      </g>
    </g>
    <g id="preventivo" transform="translate(605.579 1119.759)">
      <g id="Grupo_1241289" data-name="Grupo 1241289" transform="translate(29.918 27.194)">
        <path id="Trazado_1297089" data-name="Trazado 1297089" d="M99.592,34.98h2.222a1.18,1.18,0,0,1,1.18,1.176v.864a1.165,1.165,0,0,0,.874,1.141,12.12,12.12,0,0,1,2.936,1.215,1.175,1.175,0,0,0,1.426-.184l.608-.612a1.181,1.181,0,0,1,1.667,0l1.571,1.568a1.185,1.185,0,0,1,0,1.67l-.612.608a1.173,1.173,0,0,0-.184,1.426,12.112,12.112,0,0,1,1.215,2.936,1.167,1.167,0,0,0,1.141.874h.86a1.181,1.181,0,0,1,1.18,1.18v2.222a1.18,1.18,0,0,1-1.18,1.176h-.86a1.169,1.169,0,0,0-1.141.874,12.147,12.147,0,0,1-1.215,2.939,1.168,1.168,0,0,0,.184,1.422l.612.612a1.181,1.181,0,0,1,0,1.667L110.5,61.326a1.181,1.181,0,0,1-1.667,0l-.608-.612a1.168,1.168,0,0,0-1.426-.188,12.023,12.023,0,0,1-2.936,1.219,1.16,1.16,0,0,0-.874,1.137v.864a1.181,1.181,0,0,1-1.18,1.18H99.592a1.18,1.18,0,0,1-1.176-1.18v-.864a1.164,1.164,0,0,0-.874-1.137A12.009,12.009,0,0,1,94.6,60.526a1.164,1.164,0,0,0-1.422.188l-.612.612a1.181,1.181,0,0,1-1.667,0L89.33,59.755a1.181,1.181,0,0,1,0-1.667l.612-.612a1.162,1.162,0,0,0,.188-1.422,12.029,12.029,0,0,1-1.219-2.939,1.164,1.164,0,0,0-1.137-.874H86.91a1.18,1.18,0,0,1-1.18-1.176V48.842a1.181,1.181,0,0,1,1.18-1.18h.864a1.16,1.16,0,0,0,1.137-.874,12.121,12.121,0,0,1,1.215-2.936,1.164,1.164,0,0,0-.184-1.426l-.612-.608a1.181,1.181,0,0,1,0-1.667L90.9,38.58a1.181,1.181,0,0,1,1.667,0l.612.612a1.167,1.167,0,0,0,1.422.184,12.077,12.077,0,0,1,2.939-1.215,1.167,1.167,0,0,0,.874-1.141v-.864a1.18,1.18,0,0,1,1.176-1.176Z" transform="translate(-79.498 -34.768)" fill="#588fdf" fill-rule="evenodd"/>
        <path id="Trazado_1297090" data-name="Trazado 1297090" d="M150.523,91.47a7.855,7.855,0,1,1-7.853,7.853A7.856,7.856,0,0,1,150.523,91.47Z" transform="translate(-129.298 -84.174)" fill="#bababa" fill-rule="evenodd"/>
        <path id="Trazado_1297091" data-name="Trazado 1297091" d="M179.617,117.557a7.856,7.856,0,0,1-10.594,10.7,7.857,7.857,0,0,1,10.594-10.7Z" transform="translate(-151.504 -106.179)" fill="#e6e6e6" fill-rule="evenodd"/>
        <path id="Trazado_1297092" data-name="Trazado 1297092" d="M44.783,210.441l1.98-.583a1.1,1.1,0,0,1,1.358.742l.227.767a1.083,1.083,0,0,0,1.077.785,11.086,11.086,0,0,1,2.936.312,1.078,1.078,0,0,0,1.215-.54l.384-.7a1.1,1.1,0,0,1,1.486-.438l1.81.984a1.1,1.1,0,0,1,.438,1.486l-.384.7a1.086,1.086,0,0,0,.206,1.315,11.109,11.109,0,0,1,1.856,2.3,1.084,1.084,0,0,0,1.244.48l.767-.227a1.1,1.1,0,0,1,1.362.74l.579,1.98a1.1,1.1,0,0,1-.74,1.358l-.767.227a1.083,1.083,0,0,0-.785,1.077,11.247,11.247,0,0,1-.312,2.936,1.077,1.077,0,0,0,.54,1.215l.7.384a1.1,1.1,0,0,1,.438,1.486l-.984,1.81a1.1,1.1,0,0,1-1.486.438l-.7-.384a1.086,1.086,0,0,0-1.315.206,11.108,11.108,0,0,1-2.3,1.856,1.084,1.084,0,0,0-.48,1.244l.227.767a1.1,1.1,0,0,1-.742,1.362l-1.976.583a1.1,1.1,0,0,1-1.358-.742l-.227-.767a1.083,1.083,0,0,0-1.077-.785,11.089,11.089,0,0,1-2.936-.312,1.077,1.077,0,0,0-1.215.54l-.384.7a1.1,1.1,0,0,1-1.486.438l-1.81-.984a1.1,1.1,0,0,1-.438-1.486l.384-.7a1.086,1.086,0,0,0-.206-1.315,11.109,11.109,0,0,1-1.856-2.3,1.084,1.084,0,0,0-1.244-.48l-.767.227a1.1,1.1,0,0,1-1.362-.742l-.583-1.976a1.1,1.1,0,0,1,.742-1.358l.767-.227a1.083,1.083,0,0,0,.785-1.077,11.089,11.089,0,0,1,.312-2.936,1.078,1.078,0,0,0-.54-1.215l-.7-.384A1.1,1.1,0,0,1,37,217.741l.984-1.81a1.1,1.1,0,0,1,1.482-.438l.707.384a1.086,1.086,0,0,0,1.315-.206,11.107,11.107,0,0,1,2.3-1.856,1.084,1.084,0,0,0,.48-1.244l-.227-.767A1.1,1.1,0,0,1,44.783,210.441Z" transform="translate(-36.035 -187.678)" fill="#588fdf" fill-rule="evenodd"/>
        <path id="Trazado_1297093" data-name="Trazado 1297093" d="M92.169,260.655a7.291,7.291,0,1,1-4.935,9.054A7.287,7.287,0,0,1,92.169,260.655Z" transform="translate(-80.553 -231.881)" fill="#bababa" fill-rule="evenodd"/>
        <path id="Trazado_1297094" data-name="Trazado 1297094" d="M124.926,276.24a7.293,7.293,0,0,1-3.082,12.16,7.317,7.317,0,0,1-3.54.145,7.29,7.29,0,0,1,6.623-12.306Z" transform="translate(-106.107 -245.64)" fill="#e6e6e6" fill-rule="evenodd"/>
        <path id="Trazado_1297095" data-name="Trazado 1297095" d="M219.069,71.845a81.764,81.764,0,0,1-8.46-6.776,14.136,14.136,0,0,1-3.86-5.648,24.862,24.862,0,0,1-.785-7.543c-.039-3.232-.114-6.46-.124-9.69A4.842,4.842,0,0,1,210.4,37.34a16.375,16.375,0,0,0,8.688-3.118,4.811,4.811,0,0,1,5.687,0,16.371,16.371,0,0,0,8.688,3.118,4.842,4.842,0,0,1,4.561,4.848c-.01,3.232-.085,6.46-.124,9.69a24.942,24.942,0,0,1-.785,7.543,14.149,14.149,0,0,1-3.86,5.648,81.9,81.9,0,0,1-8.46,6.776A4.814,4.814,0,0,1,219.069,71.845Z" transform="translate(-184.546 -33.293)" fill="#ffa816" fill-rule="evenodd"/>
        <path id="Trazado_1297096" data-name="Trazado 1297096" d="M250.1,100.589c-10.44-7.661-10.4-8.7-10.483-15.623-.06-5.193-.093-4.76-.1-8.339a2.168,2.168,0,0,1,2.04-2.172,16.144,16.144,0,0,0,8.556-3.064,2.133,2.133,0,0,1,2.546,0,16.123,16.123,0,0,0,8.556,3.064,2.168,2.168,0,0,1,2.04,2.172c-.01,3.579-.043,3.146-.1,8.339-.085,6.929-.043,7.963-10.483,15.623A2.133,2.133,0,0,1,250.1,100.589Z" transform="translate(-213.993 -66.245)" fill="#b3b3b3" fill-rule="evenodd"/>
        <path id="Trazado_1297097" data-name="Trazado 1297097" d="M256.68,74.439a16.114,16.114,0,0,0,8.442-3.057,2.133,2.133,0,0,1,2.546,0,16.123,16.123,0,0,0,8.556,3.064,2.168,2.168,0,0,1,2.04,2.172c-.01,3.579-.043,3.146-.1,8.339-.068,5.663-.054,7.39-5.749,12.015a27,27,0,0,1-10.849-9.459A27.274,27.274,0,0,1,256.68,74.439Z" transform="translate(-229.01 -66.236)" fill="#e6e6e6" fill-rule="evenodd"/>
        <path id="Trazado_1297098" data-name="Trazado 1297098" d="M276.8,125.21a8.223,8.223,0,1,1-8.223,8.223A8.225,8.225,0,0,1,276.8,125.21Z" transform="translate(-239.418 -113.683)" fill="#00c395" fill-rule="evenodd"/>
        <path id="Trazado_1297099" data-name="Trazado 1297099" d="M305.26,148.933a8.224,8.224,0,0,1-10.8,11.668,8.222,8.222,0,0,1,10.8-11.668Z" transform="translate(-260.933 -133.589)" fill="#76ffd9" fill-rule="evenodd"/>
        <path id="Trazado_1297100" data-name="Trazado 1297100" d="M137.745,290.739c5.02-5.2,4.33-5.063,15.1-4.326,3.583.246,3.79,5.307.2,5.435l-5.9.206,10.913-.448a3.49,3.49,0,0,0,2-.668l9.171-5.041c3.164-1.738,6.754.587,4.077,3.011-15.856,14.356-16.8,14.242-28.845,13.655l-5.183,5.183-5.489-5.489c-.519,0-1.042,0-1.589,0l.334-1.255-2.513-2.517,7.415-7.415Z" transform="translate(-118.234 -253.69)" fill="#ffb7b2" fill-rule="evenodd"/>
        <path id="Trazado_1297101" data-name="Trazado 1297101" d="M227.946,284.15c1.354.566,1.9,1.938.355,3.342-15.857,14.353-16.8,14.24-28.845,13.653l-5.183,5.183-1.852-1.848,7.035-7c11.954.579,12.974.693,28.491-13.333Z" transform="translate(-172.809 -252.691)" fill="#ff8281" fill-rule="evenodd"/>
        <path id="Trazado_1297102" data-name="Trazado 1297102" d="M121.427,363.57l-2.506,2.542a1.636,1.636,0,0,0,.018,2.307l8.471,8.357a1.64,1.64,0,0,0,2.307-.014l2.506-2.542a1.638,1.638,0,0,0-.014-2.311l-8.471-8.353A1.636,1.636,0,0,0,121.427,363.57Z" transform="translate(-108.119 -321.727)" fill="#ffa816" fill-rule="evenodd"/>
      </g>
      <path id="Trazado_1297103" data-name="Trazado 1297103" d="M43.852,69.655,41.339,72.2h0a.753.753,0,0,0,.014,1.066l.145.145,8.322,8.208a.76.76,0,0,0,1.07-.008L53.4,79.075a.763.763,0,0,0-.008-1.07l-8.471-8.357A.762.762,0,0,0,43.852,69.655ZM40.1,70.963l.423-.426A8.165,8.165,0,1,1,51.494,60.9a7.266,7.266,0,0,1,3.245-1.93c-.153-.157-.306-.32-.451-.48a1.969,1.969,0,0,1-1.781-.942A10.344,10.344,0,0,0,50.8,55.434a1.96,1.96,0,0,1-.374-2.371l.384-.7a.226.226,0,0,0-.089-.3l-1.81-.984c-.473-.26-.426,1.13-1.614,1.657a1.968,1.968,0,0,1-1.258.107,10.434,10.434,0,0,0-2.712-.288,1.967,1.967,0,0,1-1.937-1.411l-.224-.771a.219.219,0,0,0-.273-.145l-1.976.583c-.515.153.494,1.1.029,2.307a1.963,1.963,0,0,1-.814.971A10.439,10.439,0,0,0,36.011,55.8a1.959,1.959,0,0,1-2.368.37l-.736-.4c-.161-.075-.256.093-.3.171l-.949,1.742c-.26.473,1.13.426,1.653,1.614a1.954,1.954,0,0,1,.11,1.262,10.388,10.388,0,0,0-.288,2.709A1.966,1.966,0,0,1,31.716,65.2l-.767.227a.213.213,0,0,0-.145.27l.562,1.916c.071.209.135.246.352.192.732-.188,1.191-.463,1.976-.161a1.963,1.963,0,0,1,.971.814,10.446,10.446,0,0,0,1.709,2.118,1.955,1.955,0,0,1,.374,2.368l-.384.7a.223.223,0,0,0,.089.3c.6.334,1.213.651,1.81.988.416.227.44-.846,1.236-1.44a2.518,2.518,0,0,1,.6-2.536Zm1.788-1.813.715-.721a2.507,2.507,0,0,1,2.147-.721l3.765-3.765,1.468-1.536a6.414,6.414,0,1,0-8.095,6.743Zm4.458-.554,8.074,7.963,1.1-1.106,0,0a.925.925,0,0,1,.821-.248c11.562.561,12.535.607,28.057-13.438.889-.8.868-1.5-.149-1.9a3.505,3.505,0,0,0-2.918.306l-9.171,5.041c-.246.135-.235.128-.2.107a3.838,3.838,0,0,1-2.254.672l-4.369.178a4.074,4.074,0,0,1-.587.06c-1.93.068-3.982.206-5.9.206a.875.875,0,0,1-.064-1.749l6.345-.26a1.576,1.576,0,0,0,1.137-.849,1.983,1.983,0,0,0-1.8-2.784c-4.305-.295-7.611-.608-9.392-.1-1.422.409-2.41,1.436-4.369,3.476L49.742,65.2ZM55.33,78.13a2.5,2.5,0,0,1-.682,2.176l-2.506,2.538a2.516,2.516,0,0,1-3.548.029l-8.066-7.956-.434.767a1.969,1.969,0,0,1-2.67.789l-1.813-.988a1.965,1.965,0,0,1-.785-2.67l.384-.7a.208.208,0,0,0-.043-.263,12.127,12.127,0,0,1-2-2.478.2.2,0,0,0-.248-.093,2.61,2.61,0,0,1-2.265.064,1.962,1.962,0,0,1-.949-1.173l-.583-1.976a1.973,1.973,0,0,1,1.333-2.445,3.642,3.642,0,0,0,.889-.306.235.235,0,0,0,.039-.139,11.946,11.946,0,0,1,.334-3.16.211.211,0,0,0-.107-.246c-.746-.405-1.386-.655-1.649-1.558a1.96,1.96,0,0,1,.157-1.5l.988-1.813a1.97,1.97,0,0,1,2.67-.785l.7.384a.208.208,0,0,0,.263-.043,12.109,12.109,0,0,1,2.478-2,.212.212,0,0,0,.1-.248,2.6,2.6,0,0,1-.068-2.267,1.973,1.973,0,0,1,1.173-.949l1.269-.374a12.992,12.992,0,0,1-1.205-2.976.287.287,0,0,0-.291-.224c-.9,0-1.618.1-2.317-.6a2.053,2.053,0,0,1-.6-1.453V41.272a2.058,2.058,0,0,1,2.058-2.054h.864a.286.286,0,0,0,.291-.224,13.064,13.064,0,0,1,1.3-3.149.286.286,0,0,0-.046-.366h0c-.636-.636-1.209-1.07-1.209-2.065h0a2.047,2.047,0,0,1,.6-1.451l0,0L40.7,30.387a2.054,2.054,0,0,1,1.453-.6v0c1.585,0,1.891,1.575,2.432,1.262a12.885,12.885,0,0,1,3.149-1.3.288.288,0,0,0,.224-.295h0v-.86h0a2.058,2.058,0,0,1,2.054-2.058h2.222a2.058,2.058,0,0,1,2.054,2.058v.86a.287.287,0,0,0,.224.295c.327.085.655.188.974.3.246.085.49.182.74.288a15.429,15.429,0,0,0,3.807-.843,15.628,15.628,0,0,0,3.914-2.073A5.684,5.684,0,0,1,67.3,26.324v0a5.7,5.7,0,0,1,3.356,1.1,15.482,15.482,0,0,0,8.225,2.951,5.716,5.716,0,0,1,5.385,5.723c-.014,3.437-.1,6.857-.132,10.281-.039,4.02-.128,7.159-2.521,10.519a18,18,0,0,1-1.774,2.1l.647-.355a5.283,5.283,0,0,1,4.4-.405c2.112.831,2.666,3.04.686,4.831C69.62,77.506,68.5,77.549,56.493,76.967Zm1.614-19.445c1.063-.035,2.354.018,4.02.12-6.249-5.02-6.228-6.807-6.3-12.875-.05-4.348-.089-4.284-.1-8.347a3.04,3.04,0,0,1,2.869-3.05,15.154,15.154,0,0,0,8.087-2.9,3.018,3.018,0,0,1,3.577,0,15.154,15.154,0,0,0,8.087,2.9,3.042,3.042,0,0,1,2.869,3.05c-.014,4.067-.054,4.088-.107,8.457-.085,7.209-.1,8.332-10.835,16.21a3.107,3.107,0,0,1-.907.459,3.6,3.6,0,0,1-.334,1.61l1.945-.075a3.094,3.094,0,0,0,1.511-.566l.711-.391c1.038-.771,2.079-1.568,3.082-2.385a28.975,28.975,0,0,0,5.08-5.022c2.261-3.174,2.161-6.235,2.2-10.106.035-3.235.114-6.46.124-9.68a3.968,3.968,0,0,0-3.732-3.974,17.279,17.279,0,0,1-9.157-3.281,3.957,3.957,0,0,0-2.329-.761v0a3.98,3.98,0,0,0-2.329.764,17.269,17.269,0,0,1-9.157,3.281,3.968,3.968,0,0,0-3.732,3.974c.014,3.412.1,6.836.132,10.266.053,5.716.4,8.254,4.724,12.327Zm7.142.327.508.035a3.743,3.743,0,0,1,3.16,1.966,1.332,1.332,0,0,0,.312-.174c10.093-7.405,10.05-8.378,10.128-14.929.05-4.348.093-4.294.1-8.326a1.294,1.294,0,0,0-1.215-1.3,17,17,0,0,1-9.018-3.228,1.27,1.27,0,0,0-1.521,0,17.007,17.007,0,0,1-9.019,3.228,1.3,1.3,0,0,0-1.215,1.3c.011,4.038.054,4.067.107,8.436C56.482,51.9,56.5,53.257,64.086,59.012Zm-.48-10.829a.877.877,0,0,1,1.24-1.24l1.721,1.717,3.054-5.29a.873.873,0,0,1,1.514.872l-3.583,6.214a.875.875,0,0,1-1.418.252ZM67.3,37.85a9.1,9.1,0,1,1-9.1,9.1A9.1,9.1,0,0,1,67.3,37.85Zm5.193,3.9a7.345,7.345,0,1,0,0,10.387,7.35,7.35,0,0,0,0-10.387ZM50.543,49.3c-.068-1.184-.068-2.343-.082-3.505-.035-3.228-.11-6.456-.124-9.7a6.048,6.048,0,0,1,.039-.678A6.977,6.977,0,0,0,50.543,49.3ZM50.89,33.62a5.735,5.735,0,0,1,2.42-2.56c-1.387-1.095-.334-2.773-1.077-2.773H50.011a.3.3,0,0,0-.3.3h0v.86h0a2.052,2.052,0,0,1-1.529,1.988,11.224,11.224,0,0,0-2.726,1.13,2.046,2.046,0,0,1-2.482-.327l-.612-.608a.291.291,0,0,0-.213-.089v0a.306.306,0,0,0-.213.093L40.37,33.2h0a.3.3,0,0,0-.085.213h0a.3.3,0,0,0,.093.213l.608.612a2.047,2.047,0,0,1,.327,2.482,11.237,11.237,0,0,0-1.13,2.726,2.05,2.05,0,0,1-1.984,1.529h-.864a.3.3,0,0,0-.3.3V43.5a.3.3,0,0,0,.3.3,3.025,3.025,0,0,1,2.116.423,2.053,2.053,0,0,1,.732,1.1,11.216,11.216,0,0,0,1.13,2.726,1.946,1.946,0,0,1,.206.494c1.5.448,1.372,2.027,1.635,2.218a.235.235,0,0,0,.139.039,11.948,11.948,0,0,1,3.16.337.218.218,0,0,0,.246-.11l.5-.892a8.732,8.732,0,0,1,3.7-16.516Z" transform="translate(0 0)"/>
    </g>
  </g>
</svg>
