<svg xmlns="http://www.w3.org/2000/svg" xmlns:xlink="http://www.w3.org/1999/xlink" width="106.16" height="106.16" viewBox="0 0 106.16 106.16">
  <defs>
    <filter id="Trazado_982547" x="0" y="0" width="106.16" height="106.16" filterUnits="userSpaceOnUse">
      <feOffset dy="3" input="SourceAlpha"/>
      <feGaussianBlur stdDeviation="3" result="blur"/>
      <feFlood flood-opacity="0.161"/>
      <feComposite operator="in" in2="blur"/>
      <feComposite in="SourceGraphic"/>
    </filter>
  </defs>
  <g id="Grupo_1241295" data-name="Grupo 1241295" transform="translate(-1030.42 -1121)">
    <g id="Grupo_1235587" data-name="Grupo 1235587" transform="translate(840 -4)">
      <g id="Grupo_1235128" data-name="Grupo 1235128" transform="translate(199.42 1131)">
        <g id="Grupo_1233884" data-name="Grupo 1233884" transform="translate(0 0)">
          <g id="Grupo_1228506" data-name="Grupo 1228506" transform="translate(0 0)">
            <g id="Grupo_1206132" data-name="Grupo 1206132" transform="translate(0 0)">
              <g id="Grupo_1203794" data-name="Grupo 1203794">
                <g id="Grupo_1203345" data-name="Grupo 1203345">
                  <g id="Grupo_1177900" data-name="Grupo 1177900">
                    <g id="Grupo_1172010" data-name="Grupo 1172010">
                      <g id="Grupo_1171046" data-name="Grupo 1171046">
                        <g id="Grupo_1148525" data-name="Grupo 1148525">
                          <g transform="matrix(1, 0, 0, 1, -9, -6)" filter="url(#Trazado_982547)">
                            <g id="Trazado_982547-2" data-name="Trazado 982547" transform="translate(9 6)" fill="#e9f9fd">
                              <path d="M 44.0802001953125 86.660400390625 C 38.33124923706055 86.660400390625 32.75506210327148 85.53479766845703 27.50652503967285 83.31484985351562 C 22.43628692626953 81.17032623291016 17.88242530822754 78.09992218017578 13.97144985198975 74.18894958496094 C 10.06047534942627 70.27797698974609 6.99007511138916 65.72411346435547 4.845550060272217 60.65387344360352 C 2.625600099563599 55.40533828735352 1.500000238418579 49.82915115356445 1.500000238418579 44.0802001953125 C 1.500000238418579 38.33124923706055 2.625600099563599 32.75506210327148 4.845550060272217 27.50652503967285 C 6.99007511138916 22.43628692626953 10.06047534942627 17.88242530822754 13.97144985198975 13.97144985198975 C 17.88242530822754 10.06047534942627 22.43628692626953 6.99007511138916 27.50652503967285 4.845550060272217 C 32.75506210327148 2.625600099563599 38.33124923706055 1.500000238418579 44.0802001953125 1.500000238418579 C 49.82915115356445 1.500000238418579 55.40533828735352 2.625600099563599 60.65387344360352 4.845550060272217 C 65.72411346435547 6.99007511138916 70.27797698974609 10.06047534942627 74.18894958496094 13.97144985198975 C 78.09992218017578 17.88242530822754 81.17032623291016 22.43628692626953 83.31484985351562 27.50652503967285 C 85.53479766845703 32.75506210327148 86.660400390625 38.33124923706055 86.660400390625 44.0802001953125 C 86.660400390625 49.82915115356445 85.53479766845703 55.40533828735352 83.31484985351562 60.65387344360352 C 81.17032623291016 65.72411346435547 78.09992218017578 70.27797698974609 74.18894958496094 74.18894958496094 C 70.27797698974609 78.09992218017578 65.72411346435547 81.17032623291016 60.65387344360352 83.31484985351562 C 55.40533828735352 85.53479766845703 49.82915115356445 86.660400390625 44.0802001953125 86.660400390625 Z" stroke="none"/>
                              <path d="M 44.0802001953125 3 C 38.53308486938477 3 33.15349960327148 4.085746765136719 28.09085845947266 6.227058410644531 C 23.19941711425781 8.29595947265625 18.80581665039062 11.25841522216797 15.03211212158203 15.03211212158203 C 11.25841522216797 18.80581665039062 8.29595947265625 23.19941711425781 6.227058410644531 28.09085845947266 C 4.085746765136719 33.15349960327148 3 38.53308486938477 3 44.0802001953125 C 3 49.62731552124023 4.085746765136719 55.00691604614258 6.227058410644531 60.06954193115234 C 8.29595947265625 64.96098327636719 11.25841522216797 69.35458374023438 15.03211212158203 73.12828826904297 C 18.80581665039062 76.90198516845703 23.19941711425781 79.86444091796875 28.09085845947266 81.93334197998047 C 33.15349960327148 84.07466125488281 38.53308486938477 85.160400390625 44.0802001953125 85.160400390625 C 49.62731552124023 85.160400390625 55.00691604614258 84.07466125488281 60.06954193115234 81.93334197998047 C 64.96099853515625 79.86444091796875 69.35458374023438 76.90198516845703 73.12828826904297 73.12828826904297 C 76.90198516845703 69.35458374023438 79.86444091796875 64.96099853515625 81.93334197998047 60.06954193115234 C 84.07466125488281 55.00691604614258 85.160400390625 49.62731552124023 85.160400390625 44.0802001953125 C 85.160400390625 38.53308486938477 84.07466125488281 33.15349960327148 81.93334197998047 28.09085845947266 C 79.86444091796875 23.19941711425781 76.90198516845703 18.80581665039062 73.12828826904297 15.03211212158203 C 69.35458374023438 11.25841522216797 64.96098327636719 8.29595947265625 60.06954193115234 6.227058410644531 C 55.00691604614258 4.085746765136719 49.62731552124023 3 44.0802001953125 3 M 44.0802001953125 0 C 68.42502593994141 0 88.160400390625 19.73538970947266 88.160400390625 44.0802001953125 C 88.160400390625 68.42502593994141 68.42502593994141 88.160400390625 44.0802001953125 88.160400390625 C 19.73538970947266 88.160400390625 0 68.42502593994141 0 44.0802001953125 C 0 19.73538970947266 19.73538970947266 0 44.0802001953125 0 Z" stroke="none" fill="#1d7083"/>
                            </g>
                          </g>
                        </g>
                      </g>
                    </g>
                  </g>
                </g>
              </g>
            </g>
          </g>
        </g>
      </g>
    </g>
    <g id="periodico" transform="translate(1024.823 1142.895)">
      <g id="Grupo_1241293" data-name="Grupo 1241293" transform="translate(26.169 0.996)">
        <path id="Trazado_1297104" data-name="Trazado 1297104" d="M456.539,51.313H455l-.615.936V89.769l1.57,1.608a3.307,3.307,0,0,0,1.738-2.912v-36a1.156,1.156,0,0,0-1.156-1.156Z" transform="translate(-398.374 -45.494)" fill="#eee1dd"/>
        <path id="Trazado_1297105" data-name="Trazado 1297105" d="M431.866,88.466v-36a1.156,1.156,0,0,1,1.156-1.156h-4.756l-.186,1.091V89.21l.946,1.934,1.478.627h.95a3.294,3.294,0,0,0,1.921-.53A3.3,3.3,0,0,1,431.866,88.466Z" transform="translate(-375.56 -45.494)" fill="#e1d3ce"/>
        <path id="Trazado_1297106" data-name="Trazado 1297106" d="M64.43,426.966,58.2,433.349v2.457l1.126.8c.057-.048.113-.1.166-.15l6.887-6.887-.061-.673Z" transform="translate(-54.809 -371.254)" fill="#f27182"/>
        <path id="Trazado_1297107" data-name="Trazado 1297107" d="M37.128,428.134a2.745,2.745,0,0,1,0-3.882l5.423-5.325-1.527-1.562h-.683l-6.887,6.887a2.743,2.743,0,0,0,3.778,3.975C37.2,428.2,37.162,428.167,37.128,428.134Z" transform="translate(-32.65 -362.928)" fill="#ed5469"/>
        <path id="Trazado_1297108" data-name="Trazado 1297108" d="M222.746,50.471V8.735A1.236,1.236,0,0,0,221.51,7.5H191.555l-.472.557V35.462l2.086-.578,4.073.266,6.176,3.036,4.007,5.287,1.151,5.9-.354,3.393.731,1.008h17.1a3.308,3.308,0,0,1-3.308-3.308Z" transform="translate(-170.041 -7.499)" fill="#fff5f5"/>
        <g id="Grupo_1241291" data-name="Grupo 1241291" transform="translate(16.541 0)">
          <path id="Trazado_1297109" data-name="Trazado 1297109" d="M162.235,8.736A1.236,1.236,0,0,1,163.471,7.5h-5.047a1.236,1.236,0,0,0-1.236,1.236V35.842l.834.637,4.213-1.167Z" transform="translate(-157.188 -7.5)" fill="#eee1dd"/>
        </g>
        <path id="Trazado_1297110" data-name="Trazado 1297110" d="M249.188,47.5h-20.57l-.664.435v6.807l.476.525h20.758a.884.884,0,0,0,.884-.884v-6A.884.884,0,0,0,249.188,47.5Z" transform="translate(-202.014 -42.187)" fill="#8479c2"/>
        <path id="Trazado_1297111" data-name="Trazado 1297111" d="M197.235,54.383v-6a.884.884,0,0,1,.884-.884h-5.047a.884.884,0,0,0-.884.884v6a.884.884,0,0,0,.884.884h5.047A.884.884,0,0,1,197.235,54.383Z" transform="translate(-170.999 -42.187)" fill="#6e60b8"/>
        <path id="Trazado_1297112" data-name="Trazado 1297112" d="M108.041,403.976l-1.945-1.96-.047.167-3.393,3.478,2.275,2.275,3.241-3.241Z" transform="translate(-93.357 -349.618)" fill="#ed5469"/>
        <path id="Trazado_1297113" data-name="Trazado 1297113" d="M96.015,394.578l-1.6-1.615H93.8L90.558,396.2l1.883,1.883Z" transform="translate(-82.867 -341.767)" fill="#e63850"/>
        <path id="Trazado_1297114" data-name="Trazado 1297114" d="M136.5,207.69a16.039,16.039,0,0,0-.01,31.282,15.664,15.664,0,0,0,.01-31.282Z" transform="translate(-111.871 -181.101)" fill="#8bcaff"/>
        <path id="Trazado_1297115" data-name="Trazado 1297115" d="M98.1,223.181a15.687,15.687,0,0,1,13.5-15.513,15.67,15.67,0,0,0-17.837,15.513,15.664,15.664,0,0,0,17.829,15.513A15.656,15.656,0,0,1,98.1,223.181Z" transform="translate(-85.644 -180.951)" fill="#60b9fe"/>
        <path id="Trazado_1297116" data-name="Trazado 1297116" d="M167.167,241.318a11.608,11.608,0,0,0-7.415-3.382,12.046,12.046,0,0,0,0,23.247,11.653,11.653,0,0,0,7.415-19.866Z" transform="translate(-135.167 -207.33)" fill="#97dc7c"/>
        <path id="Trazado_1297117" data-name="Trazado 1297117" d="M131.1,257.61a11.653,11.653,0,0,1,6.278-19.729,11.654,11.654,0,1,0,0,22.974A11.6,11.6,0,0,1,131.1,257.61Z" transform="translate(-111.659 -207.138)" fill="#6bcb44"/>
        <path id="Trazado_1297118" data-name="Trazado 1297118" d="M192.287,299.527a1.992,1.992,0,0,0-2.817,0l-2.977,2.977-1.5-1.5a1.983,1.983,0,0,0-.543-.384l-.325.154-.332,1.527,3.874,4.073.452.148,4.174-4.174A1.992,1.992,0,0,0,192.287,299.527Z" transform="translate(-163.714 -260.235)" fill="#dbedff"/>
        <g id="Grupo_1241292" data-name="Grupo 1241292" transform="translate(17.873 40.182)">
          <path id="Trazado_1297119" data-name="Trazado 1297119" d="M173.3,315.551l-2.914-2.914a1.991,1.991,0,0,1-.316-2.4,1.991,1.991,0,0,0-2.274,3.2l2.914,2.914a1.992,1.992,0,0,0,2.817,0l.383-.383A1.982,1.982,0,0,1,173.3,315.551Z" transform="translate(-167.216 -310.037)" fill="#b5dcff"/>
        </g>
      </g>
      <g id="Grupo_1241294" data-name="Grupo 1241294" transform="translate(25.177)">
        <path id="Trazado_1297120" data-name="Trazado 1297120" d="M141.58,242.693A12.676,12.676,0,1,0,128.9,255.368,12.668,12.668,0,0,0,141.58,242.693ZM128.9,253.376a10.683,10.683,0,1,1,7.554-18.238h0a10.683,10.683,0,0,1-7.554,18.237Z" transform="translate(-104.13 -199.467)"/>
        <path id="Trazado_1297121" data-name="Trazado 1297121" d="M211.682,40h-25.1a1.882,1.882,0,0,0-1.88,1.88v6a1.882,1.882,0,0,0,1.88,1.88h25.1a1.882,1.882,0,0,0,1.88-1.88v-6A1.882,1.882,0,0,0,211.682,40Zm-.113,7.767H186.694V41.992H211.57Z" transform="translate(-163.514 -34.687)"/>
        <path id="Trazado_1297122" data-name="Trazado 1297122" d="M217.263,134.665H192.094a1,1,0,0,0,0,1.992h25.169a1,1,0,1,0,0-1.992Z" transform="translate(-169.061 -116.779)"/>
        <path id="Trazado_1297123" data-name="Trazado 1297123" d="M217.263,169.294H192.094a1,1,0,1,0,0,1.992h25.169a1,1,0,1,0,0-1.992Z" transform="translate(-169.061 -146.809)"/>
        <path id="Trazado_1297124" data-name="Trazado 1297124" d="M167.9,292.314l-2.272,2.273-.8-.8a2.988,2.988,0,0,0-4.226,4.226l2.914,2.914a2.992,2.992,0,0,0,4.226,0l4.386-4.386a2.989,2.989,0,0,0-4.226-4.226Zm2.818,2.817-4.386,4.386a1,1,0,0,1-1.409,0l-2.914-2.914a1,1,0,1,1,1.409-1.409l1.5,1.5a1,1,0,0,0,1.409,0l2.977-2.977a1,1,0,0,1,1.409,1.409Z" transform="translate(-141.856 -252.73)"/>
        <path id="Trazado_1297125" data-name="Trazado 1297125" d="M85.493,25.718a1,1,0,0,0,1-1V7.971a2.154,2.154,0,0,0-2.152-2.152H79.873V2.232A2.234,2.234,0,0,0,77.641,0H43.947a2.234,2.234,0,0,0-2.232,2.232V28.748a16.663,16.663,0,0,0-5.892,23.314l-9.553,9.553a3.741,3.741,0,0,0,5.291,5.291l9.554-9.554A16.6,16.6,0,0,0,47.481,59.7a1,1,0,1,0,.293-1.971,14.672,14.672,0,1,1,4.355,0,1,1,0,1,0,.294,1.97,16.7,16.7,0,0,0,13.4-11.43H82.187a4.3,4.3,0,0,0,4.3-4.3V29.37a1,1,0,0,0-1.992,0v14.6a2.307,2.307,0,0,1-2.354,2.31,2.367,2.367,0,0,1-2.27-2.389V7.811h4.464a.16.16,0,0,1,.16.16v16.75a1,1,0,0,0,1,1ZM30.153,65.5a1.749,1.749,0,0,1-2.473-2.473l6.183-6.183,2.473,2.473Zm9.318-9.318-1.727,1.727-2.473-2.473L37,53.706A16.581,16.581,0,0,0,39.471,56.179Zm26.859-9.9a16.875,16.875,0,0,0,.282-3.054c0-.117,0-.234,0-.351h6.771a1,1,0,0,0,0-1.992H66.446a16.52,16.52,0,0,0-.585-2.607h7.518a1,1,0,0,0,0-1.992H65.094a16.669,16.669,0,0,0-1.5-2.607h9.784a1,1,0,0,0,0-1.992H61.954a16.777,16.777,0,0,0-3.217-2.607H73.378a1,1,0,1,0,0-1.992H54.085a16.673,16.673,0,0,0-10.377.7V2.232a.24.24,0,0,1,.239-.239H77.641a.24.24,0,0,1,.239.239V43.889a4.289,4.289,0,0,0,.675,2.391H66.33Z" transform="translate(-25.177)"/>
      </g>
    </g>
  </g>
</svg>
