<svg xmlns="http://www.w3.org/2000/svg" xmlns:xlink="http://www.w3.org/1999/xlink" width="103" height="103" viewBox="0 0 103 103">
  <defs>
    <filter id="Trazado_982547" x="0" y="0" width="103" height="103" filterUnits="userSpaceOnUse">
      <feOffset dy="3" input="SourceAlpha"/>
      <feGaussianBlur stdDeviation="3" result="blur"/>
      <feFlood flood-opacity="0.161"/>
      <feComposite operator="in" in2="blur"/>
      <feComposite in="SourceGraphic"/>
    </filter>
  </defs>
  <g id="Grupo_1241310" data-name="Grupo 1241310" transform="translate(-171 -2383.581)">
    <g id="Grupo_1235588" data-name="Grupo 1235588" transform="translate(0 -2359.584)">
      <g id="Grupo_1173169" data-name="Grupo 1173169" transform="translate(180 4749.165)">
        <g id="Grupo_1172017" data-name="Grupo 1172017">
          <g id="Grupo_1167337" data-name="Grupo 1167337">
            <g id="Grupo_1166720" data-name="Grupo 1166720">
              <g id="Grupo_1164305" data-name="Grupo 1164305">
                <g id="Grupo_1163948" data-name="Grupo 1163948">
                  <g id="Grupo_1158168" data-name="Grupo 1158168">
                    <g id="Grupo_1152576" data-name="Grupo 1152576">
                      <g id="Grupo_1148633" data-name="Grupo 1148633">
                        <g id="Grupo_1148525" data-name="Grupo 1148525">
                          <g transform="matrix(1, 0, 0, 1, -9, -6)" filter="url(#Trazado_982547)">
                            <g id="Trazado_982547-2" data-name="Trazado 982547" transform="translate(9 6)" fill="#f2f7e5">
                              <path d="M 42.5 83.5 C 36.96437835693359 83.5 31.59512901306152 82.41617584228516 26.54141235351562 80.27863311767578 C 21.65934181213379 78.21369171142578 17.27448272705078 75.25723266601562 13.50862312316895 71.49137878417969 C 9.742776870727539 67.72553253173828 6.786305904388428 63.34066009521484 4.721364498138428 58.45858764648438 C 2.583823442459106 53.40486907958984 1.5 48.03562164306641 1.5 42.5 C 1.5 36.96437835693359 2.583823442459106 31.59512901306152 4.721364498138428 26.54141235351562 C 6.786305904388428 21.65934181213379 9.742776870727539 17.27448272705078 13.50862312316895 13.50862312316895 C 17.27448272705078 9.742776870727539 21.65934181213379 6.786305904388428 26.54141235351562 4.721364498138428 C 31.59512901306152 2.583823442459106 36.96437835693359 1.5 42.5 1.5 C 48.03562164306641 1.5 53.40486907958984 2.583823442459106 58.45858764648438 4.721364498138428 C 63.34066009521484 6.786305904388428 67.72553253173828 9.742776870727539 71.49137878417969 13.50862312316895 C 75.25723266601562 17.27448272705078 78.21369171142578 21.65934181213379 80.27863311767578 26.54141235351562 C 82.41617584228516 31.59512901306152 83.5 36.96437835693359 83.5 42.5 C 83.5 48.03562164306641 82.41617584228516 53.40486907958984 80.27863311767578 58.45858764648438 C 78.21369171142578 63.34066009521484 75.25723266601562 67.72553253173828 71.49137878417969 71.49137878417969 C 67.72553253173828 75.25723266601562 63.34066009521484 78.21369171142578 58.45858764648438 80.27863311767578 C 53.40486907958984 82.41617584228516 48.03562164306641 83.5 42.5 83.5 Z" stroke="none"/>
                              <path d="M 42.5 3 C 37.16621398925781 3 31.99356079101562 4.043960571289062 27.125732421875 6.102882385253906 C 22.42246627807617 8.092185974121094 18.19785308837891 10.94070434570312 14.56928253173828 14.56928253173828 C 10.94070434570312 18.19785308837891 8.092185974121094 22.42246627807617 6.102882385253906 27.125732421875 C 4.043960571289062 31.99356079101562 3 37.16621398925781 3 42.5 C 3 47.83378601074219 4.043960571289062 53.00643920898438 6.102882385253906 57.874267578125 C 8.092185974121094 62.57753372192383 10.94070434570312 66.80214691162109 14.56928253173828 70.43071746826172 C 18.19785308837891 74.05929565429688 22.42246627807617 76.90781402587891 27.125732421875 78.89711761474609 C 31.99356079101562 80.95603942871094 37.16621398925781 82 42.5 82 C 47.83378601074219 82 53.00643920898438 80.95603942871094 57.874267578125 78.89711761474609 C 62.57753372192383 76.90781402587891 66.80214691162109 74.05929565429688 70.43071746826172 70.43071746826172 C 74.05929565429688 66.80214691162109 76.90781402587891 62.57753372192383 78.89711761474609 57.874267578125 C 80.95603942871094 53.00643920898438 82 47.83378601074219 82 42.5 C 82 37.16621398925781 80.95603942871094 31.99356079101562 78.89711761474609 27.125732421875 C 76.90781402587891 22.42246627807617 74.05929565429688 18.19785308837891 70.43071746826172 14.56928253173828 C 66.80214691162109 10.94070434570312 62.57753372192383 8.092185974121094 57.874267578125 6.102882385253906 C 53.00643920898438 4.043960571289062 47.83378601074219 3 42.5 3 M 42.5 0 C 65.97210693359375 0 85 19.02789306640625 85 42.5 C 85 65.97210693359375 65.97210693359375 85 42.5 85 C 19.02789306640625 85 0 65.97210693359375 0 42.5 C 0 19.02789306640625 19.02789306640625 0 42.5 0 Z" stroke="none" fill="#36ceef"/>
                            </g>
                          </g>
                        </g>
                      </g>
                    </g>
                  </g>
                </g>
              </g>
            </g>
          </g>
        </g>
      </g>
    </g>
    <g id="gestion-de-proyectos_3_" data-name="gestion-de-proyectos (3)" transform="translate(192.487 2402.061)">
      <path id="Trazado_1297255" data-name="Trazado 1297255" d="M47.782,23.891a16.891,16.891,0,1,0-26,14.223,5.381,5.381,0,0,1,2.545,4.506v3.792a2.815,2.815,0,0,0,2.815,2.815h7.507a2.815,2.815,0,0,0,2.815-2.815V42.7a5.528,5.528,0,0,1,2.6-4.619,16.876,16.876,0,0,0,7.723-14.189Z" transform="translate(-0.755 -0.323)" fill="#e39d10"/>
      <path id="Trazado_1297256" data-name="Trazado 1297256" d="M27,57.63a2.815,2.815,0,0,0,2.815,2.815h3.754a2.815,2.815,0,0,0,2.815-2.815V52H27Z" transform="translate(-1.556 -3.095)" fill="#ebebeb"/>
      <path id="Trazado_1297257" data-name="Trazado 1297257" d="M54.485,13.717l2.95-2.213L54.057,7l-2.95,2.213a1.877,1.877,0,0,1-2.983-1.767L48.645,3.8,43.071,3,42.55,6.649a1.877,1.877,0,0,1-3.359.861l-2.212-2.95-4.5,3.378,2.212,2.95a1.877,1.877,0,0,1-1.767,2.983l-3.649-.521-.8,5.574,3.65.521a1.877,1.877,0,0,1,.861,3.359l-2.949,2.213,3.378,4.5,2.949-2.212a1.877,1.877,0,0,1,2.984,1.767l-.526,3.648,5.574.8.526-3.65a1.877,1.877,0,0,1,3.359-.861l2.213,2.949L55,28.583l-2.214-2.949A1.877,1.877,0,0,1,54.55,22.65l3.649.522L59,17.6l-3.649-.522a1.877,1.877,0,0,1-.861-3.359ZM43.735,24.83A6.569,6.569,0,1,1,50.3,18.261a6.569,6.569,0,0,1-6.569,6.569Z" transform="translate(-1.647 -0.077)" fill="#10bde0"/>
      <path id="Trazado_1297258" data-name="Trazado 1297258" d="M21.084,39.223a16.937,16.937,0,0,1-2.312-1.79,4.684,4.684,0,1,1-4.527-5.864c.144,0,.282.03.419.042A16.878,16.878,0,0,1,13.316,25H12.121l-.648,3.085a.938.938,0,0,1-1.451.58L7.429,26.877,4.614,29.692,6.4,32.285a.938.938,0,0,1-.58,1.451l-3.08.648v3.754l3.084.648a.938.938,0,0,1,.58,1.451L4.614,42.83l2.815,2.815,2.593-1.783a.938.938,0,0,1,1.452.58l.647,3.08h3.754l.647-3.085a.938.938,0,0,1,1.452-.58l2.593,1.788L23.512,42.7a5.463,5.463,0,0,0-2.429-3.476Z" transform="translate(-0.062 -1.432)" fill="#c9dfff"/>
      <path id="Trazado_1297259" data-name="Trazado 1297259" d="M57.482,16.607l-3.65-.521a.938.938,0,0,1-.431-1.68l2.95-2.213a.938.938,0,0,0,.188-1.314l-3.378-4.5a.938.938,0,0,0-1.314-.188L48.9,8.4a.938.938,0,0,1-1.5-.883l.522-3.65a.938.938,0,0,0-.8-1.062l-5.57-.8a.938.938,0,0,0-1.062.8l-.522,3.65a.938.938,0,0,1-1.68.431l-2.212-2.95a.938.938,0,0,0-1.314-.188l-2.82,2.116a18.155,18.155,0,0,0-3.838,0A17.83,17.83,0,0,0,12.389,21.852c-.025.266-.035.529-.048.793h-.282a.938.938,0,0,0-.918.751l-.648,3.084L7.9,24.688a.938.938,0,0,0-1.2.109L3.884,27.612a.938.938,0,0,0-.109,1.2L5.558,31.4l-3.085.648a.938.938,0,0,0-.738.919v3.754a.938.938,0,0,0,.745.919l3.085.648L3.783,40.881a.938.938,0,0,0,.109,1.2l2.815,2.815A.938.938,0,0,0,7.9,45L10.5,43.212l.648,3.085a.938.938,0,0,0,.918.751h3.754a.938.938,0,0,0,.919-.745l.648-3.085L19.976,45a.938.938,0,0,0,1.2-.109l1.457-1.462V46.1a3.741,3.741,0,0,0,1.877,3.232V54.55A3.754,3.754,0,0,0,28.259,58.3h3.754a3.754,3.754,0,0,0,3.754-3.754V49.336A3.741,3.741,0,0,0,37.643,46.1V42.39a4.6,4.6,0,0,1,2.171-3.831,18,18,0,0,0,2.209-1.689l-1.252-1.4a15.972,15.972,0,0,1-1.977,1.512,6.464,6.464,0,0,0-3.027,5.406V46.1a1.877,1.877,0,0,1-1.877,1.877H26.382A1.877,1.877,0,0,1,24.505,46.1V42.313a6.314,6.314,0,0,0-2.977-5.3A15.9,15.9,0,0,1,29.934,7.644a1.023,1.023,0,0,0-.037.1.938.938,0,0,0,.179.7l2.212,2.949a.919.919,0,0,1,.056,1.042.933.933,0,0,1-.938.451l-3.65-.522a.938.938,0,0,0-1.062.8l-.8,5.573a.938.938,0,0,0,.8,1.062l3.65.522A.938.938,0,0,1,30.775,22l-2.949,2.212a.938.938,0,0,0-.188,1.314l3.378,4.5a.938.938,0,0,0,1.314.188L35.28,28a.938.938,0,0,1,1.491.883l-.521,3.65a.938.938,0,0,0,.8,1.062l5.574.8a1.043,1.043,0,0,0,.132.008.938.938,0,0,0,.93-.805l.521-3.65a.938.938,0,0,1,1.68-.431L48.1,32.466a.938.938,0,0,0,1.314.188l4.5-3.378a.938.938,0,0,0,.188-1.314L51.89,25.012a.922.922,0,0,1-.056-1.042.911.911,0,0,1,.938-.45l3.65.521a.938.938,0,0,0,1.062-.8l.8-5.574a.938.938,0,0,0-.8-1.062ZM13.971,31.09a17.77,17.77,0,0,0,3.483,5.017,3.748,3.748,0,1,1-3.519-5.017ZM32.012,56.427H28.259a1.877,1.877,0,0,1-1.877-1.877v-.938h7.507v.938A1.877,1.877,0,0,1,32.012,56.427Zm1.877-6.569v1.877H26.382V49.858ZM22.406,41l-2.013,2.009-1.949-1.344a1.877,1.877,0,0,0-2.9,1.159l-.492,2.343H12.82l-.492-2.339a1.877,1.877,0,0,0-2.9-1.159l-1.95,1.34L5.767,41.3,7.11,39.354a1.877,1.877,0,0,0-1.158-2.9l-2.339-.493v-2.23l2.339-.493a1.877,1.877,0,0,0,1.159-2.9L5.767,28.386l1.71-1.706,1.951,1.344a1.877,1.877,0,0,0,2.9-1.16l.164-.781a17.867,17.867,0,0,0,.744,3.182,5.63,5.63,0,1,0,5.674,8.164,17.74,17.74,0,0,0,1.6,1.168A4.58,4.58,0,0,1,22.406,41ZM55.754,22.048l-2.721-.388a2.815,2.815,0,0,0-2.65,4.476l1.649,2.2-3,2.252-1.65-2.2a2.815,2.815,0,0,0-5.039,1.29l-.38,2.725-3.715-.531.388-2.721A2.815,2.815,0,0,0,34.157,26.5l-2.2,1.649-2.252-3,2.2-1.65a2.815,2.815,0,0,0-1.29-5.039l-2.721-.388.531-3.715,2.721.388A2.815,2.815,0,0,0,33.8,10.266l-1.654-2.2,3-2.252,1.65,2.2a2.815,2.815,0,0,0,5.039-1.29L42.221,4l3.715.53-.388,2.721A2.815,2.815,0,0,0,50.024,9.9l2.2-1.649,2.252,3-2.2,1.65a2.815,2.815,0,0,0,1.29,5.039l2.721.388Z" transform="translate(0 -0.015)"/>
      <path id="Trazado_1297260" data-name="Trazado 1297260" d="M44.243,11.264a7.507,7.507,0,1,0,7.507,7.507,7.507,7.507,0,0,0-7.507-7.507Zm0,13.138a5.63,5.63,0,1,1,5.63-5.63,5.63,5.63,0,0,1-5.63,5.63Z" transform="translate(-2.156 -0.586)"/>
      <path id="Trazado_1297261" data-name="Trazado 1297261" d="M31,46h1.877v2.815H31Z" transform="translate(-1.803 -2.726)"/>
      <path id="Trazado_1297262" data-name="Trazado 1297262" d="M27.033,34.761a11.261,11.261,0,0,1-1.9-20.019l-1-1.588a13.138,13.138,0,0,0,2.223,23.353A5.991,5.991,0,0,1,30.2,42.1h1.877A7.852,7.852,0,0,0,27.033,34.761Z" transform="translate(-1.002 -0.702)"/>
      <path id="Trazado_1297263" data-name="Trazado 1297263" d="M51,39h6.569v1.877H51Z" transform="translate(-3.035 -2.295)"/>
      <path id="Trazado_1297264" data-name="Trazado 1297264" d="M0,0H1.877V7.329H0Z" transform="matrix(0.64, -0.768, 0.768, 0.64, 46.426, 43.057)"/>
      <path id="Trazado_1297265" data-name="Trazado 1297265" d="M45,47h1.877v6.569H45Z" transform="translate(-2.665 -2.787)"/>
      <path id="Trazado_1297266" data-name="Trazado 1297266" d="M0,0H7.738V1.876H0Z" transform="matrix(0.97, -0.243, 0.243, 0.97, 2.695, 17.965)"/>
      <path id="Trazado_1297267" data-name="Trazado 1297267" d="M0,0H1.876V8.072H0Z" transform="matrix(0.581, -0.814, 0.814, 0.581, 4.253, 8.379)"/>
      <path id="Trazado_1297268" data-name="Trazado 1297268" d="M0,0H1.877V7.748H0Z" transform="matrix(0.969, -0.248, 0.248, 0.969, 12.294, 2.216)"/>
    </g>
  </g>
</svg>
