<svg xmlns="http://www.w3.org/2000/svg" xmlns:xlink="http://www.w3.org/1999/xlink" width="160" height="172" viewBox="0 0 160 172">
  <defs>
    <clipPath id="clip-path">
      <rect id="Rect치ngulo_423248" data-name="Rect치ngulo 423248" width="160" height="172" transform="translate(180 299)" fill="#fff" stroke="#707070" stroke-width="1"/>
    </clipPath>
  </defs>
  <g id="Enmascarar_grupo_1211533" data-name="Enmascarar grupo 1211533" transform="translate(-180 -299)" clip-path="url(#clip-path)">
    <g id="Grupo_1241587" data-name="Grupo 1241587">
      <rect id="Rect치ngulo_423247" data-name="Rect치ngulo 423247" width="143" height="152" transform="translate(180 323)" fill="#36ceef"/>
      <g id="Grupo_1241582" data-name="Grupo 1241582" transform="translate(180 306.779)">
        <path id="Trazado_1297543" data-name="Trazado 1297543" d="M1258.448,1945.331c1.768,1.719.5,5.884-2.821,9.3s-7.452,4.793-9.219,3.073-.5-5.884,2.823-9.3S1256.682,1943.613,1258.448,1945.331Z" transform="translate(-1114.657 -1798.311)" fill="#be745f"/>
        <path id="Trazado_1297544" data-name="Trazado 1297544" d="M1500.733,1334.574v1.716h-6.213S1496.077,1334.517,1500.733,1334.574Z" transform="translate(-1401.544 -1299.558)" fill="#ef4651"/>
        <path id="Trazado_1297545" data-name="Trazado 1297545" d="M1500.733,1346.238v1.928a6.645,6.645,0,0,1-6.213-4.18C1496.144,1346.741,1500.733,1346.238,1500.733,1346.238Z" transform="translate(-1401.544 -1307.255)" fill="#ef4651"/>
        <path id="Trazado_1297546" data-name="Trazado 1297546" d="M1500.733,1346.238s-4.589.5-6.213-2.252h6.213Z" transform="translate(-1401.544 -1307.255)" fill="#e8e4f2"/>
        <g id="Grupo_1241578" data-name="Grupo 1241578" transform="translate(0 57.83)">
          <path id="Trazado_1297547" data-name="Trazado 1297547" d="M1534.079,1459.66a47.606,47.606,0,0,1,10.552,1.559,54.179,54.179,0,0,1,11.161,4.155c1.394.706,2.8,1.5,4.2,2.385l.985,6.3a50.5,50.5,0,0,0-10.5-5.838,45.972,45.972,0,0,0-15.765-3.6h0a.36.36,0,0,0,0,.72h.075c.051,0,.127,0,.229.006.2.006.5.021.888.05.774.054,1.9.165,3.3.388a50.142,50.142,0,0,1,21.935,9.285l6.589,42.176-17.858-23.689s-16.345-20.78-24.677-8.678c-.224.326-.436.655-.645.985,0,0,0,.006,0,.009-17.668,24.039-4.371,50.391-4.371,50.391l63.016,29.446-.1,14.634H1481.643Z" transform="translate(-1481.643 -1459.66)" fill="#f1bd80"/>
          <path id="Trazado_1297548" data-name="Trazado 1297548" d="M1576.778,1584.407l1.133,8.644-3.73-23.87Z" transform="translate(-1493.25 -1549.204)" fill="#f1bd80"/>
        </g>
        <g id="Grupo_1241579" data-name="Grupo 1241579" transform="translate(62.988 31.974)">
          <path id="Trazado_1297549" data-name="Trazado 1297549" d="M1199.612,1547.395a.353.353,0,0,0-.147.3s.057.869.154,2.418.238,3.788.4,6.526c.334,5.478.782,12.962,1.228,20.995a.358.358,0,1,0,.716-.041c-.893-16.069-1.785-29.944-1.785-29.944h0a.36.36,0,0,0-.381-.336.079.079,0,0,0-.024.006l-2.965-22.643L1192.3,1498.2c2.36-.4,5.157-.942,8.071-1.676.093-.022.17-.056.258-.08l35.7-2.932a4.356,4.356,0,0,1-3.57,5.159,107.251,107.251,0,0,1-14.683,2.578s4.759,1.971.941,5.075c0,0,4.814.926,1.042,6.1,0,0,3.574,3.506-1.386,7.077a18.579,18.579,0,0,1-5.315,2.1c10.515,19.614,25.793,55.477,5.91,68.991-4.683,3.181-15.03-2.286-25.578-9.814,7.008-13.6-.157-35.221-7.878-51.691Zm13.038,41.5c1.767,1.72,5.894.343,9.219-3.073s4.589-7.58,2.821-9.3-5.892-.344-9.217,3.073S1210.882,1587.178,1212.65,1588.9Zm-6.676-75.558a5.913,5.913,0,0,0,1.706,1.342,5.256,5.256,0,0,0-.539,2.189,3.049,3.049,0,0,0,.66,1.956,4.463,4.463,0,0,0,2.489,1.417l.091.024,7.392-2.009a.359.359,0,1,0-.189-.692l-7.2,1.956a3.7,3.7,0,0,1-2.02-1.146,2.329,2.329,0,0,1-.5-1.505,4.682,4.682,0,0,1,.535-2.013l9.359-1.951a.359.359,0,1,0-.147-.7l-9.39,1.954a5.446,5.446,0,0,1-1.682-1.27,1.8,1.8,0,0,1-.45-1.14,1.9,1.9,0,0,1,.266-.928,3.848,3.848,0,0,1,.641-.824,6.355,6.355,0,0,1,1.1-.87l7.279-1.527a.359.359,0,1,0-.146-.7l-7.248,1.518a6.071,6.071,0,0,1-2.679-1.429,2.244,2.244,0,0,1-.672-1.6,3.859,3.859,0,0,1,.632-1.932,6.273,6.273,0,0,1,.688-.93l9.386-.914a.36.36,0,1,0-.07-.716l-9.65.94-.091.093a6.682,6.682,0,0,0-.8,1.035,4.673,4.673,0,0,0-.812,2.425,2.963,2.963,0,0,0,.871,2.1,6.115,6.115,0,0,0,2.382,1.419,5.494,5.494,0,0,0-1.4,1.5,2.682,2.682,0,0,0-.4,1.351A2.5,2.5,0,0,0,1205.974,1513.34Zm-.658-3.692a.359.359,0,0,0-.466-.205,12.085,12.085,0,0,0-5.544,3.878,7.7,7.7,0,0,0-1.5,4.663,13.072,13.072,0,0,0,1.563,5.769c.1.188.194.368.288.536a16.11,16.11,0,0,0,1.274,1.977v0a.36.36,0,0,0,.564-.447l-.031-.039c-.021-.027-.052-.071-.094-.124-.08-.11-.2-.272-.335-.483-.176-.263-.391-.606-.617-1-.134-.232-.272-.48-.41-.751a12.333,12.333,0,0,1-1.486-5.441,6.973,6.973,0,0,1,1.362-4.239,11.377,11.377,0,0,1,5.228-3.634A.356.356,0,0,0,1205.316,1509.648Z" transform="translate(-1143.887 -1461.479)" fill="#d38972"/>
          <path id="Trazado_1297550" data-name="Trazado 1297550" d="M1618.428,1426.69l11.629,3.144.323,2.065a29.8,29.8,0,0,0-2.808,6.519,54.184,54.184,0,0,0-11.161-4.155Z" transform="translate(-1616.412 -1406.847)" fill="#d38972"/>
          <path id="Trazado_1297551" data-name="Trazado 1297551" d="M1507.094,1365.454l-.006.016-.009.006a.148.148,0,0,1-.021.016l-.028.013a.19.19,0,0,1-.042.015.326.326,0,0,1-.045.01.544.544,0,0,1-.061.014c-.019,0-.041.008-.063.01s-.051.007-.079.014l-.077.005c-.031.005-.063.007-.1.01l-.093.008c-.038,0-.074.006-.113.006l-.109.007c-.042,0-.083,0-.127.005s-.083,0-.127,0l-.141,0c-.044,0-.091,0-.137,0h-.308l-.166,0-.157,0c-.062,0-.123,0-.187,0s-.108,0-.163-.005l-.2-.007-.169-.006c-.071-.006-.142-.008-.214-.013s-.12-.007-.179-.009l-.227-.015c-.06,0-.12-.006-.18-.011l-.242-.02-.181-.014-.259-.021-.177-.016c-.092-.011-.183-.018-.276-.028l-.177-.019c-.094-.012-.189-.021-.286-.033-.058,0-.117-.012-.176-.019-.1-.014-.2-.028-.3-.039-.056-.008-.111-.015-.168-.025-.1-.012-.209-.026-.315-.044l-.172-.023c-.1-.017-.21-.032-.316-.048-.058-.011-.115-.019-.172-.029-.108-.019-.216-.036-.325-.056l-.161-.027c-.112-.02-.225-.042-.338-.064l-.16-.031c-.114-.022-.228-.046-.343-.07-.051-.01-.1-.021-.155-.034-.115-.024-.231-.048-.346-.076-.053-.012-.106-.026-.158-.038-.115-.027-.229-.053-.344-.082-.054-.013-.106-.026-.159-.042l-.34-.086-.163-.047c-.111-.03-.222-.059-.331-.094-.057-.016-.115-.036-.172-.053-.107-.032-.212-.063-.316-.1-.057-.019-.112-.039-.169-.056-.1-.035-.21-.069-.313-.105-.064-.021-.128-.046-.192-.067-.094-.037-.189-.068-.281-.1-.156-.058-.31-.121-.462-.184a61.746,61.746,0,0,1-7.14-4.459,47.82,47.82,0,0,0,2.9,5.8,14.756,14.756,0,0,0-2.065,1.224,62.4,62.4,0,0,1-1.077-12.709C1495.058,1363.778,1507.094,1365.454,1507.094,1365.454Z" transform="translate(-1469.654 -1347.094)" fill="#d38972"/>
          <path id="Trazado_1297552" data-name="Trazado 1297552" d="M1590.536,1320.238q.038-1.029.088-1.967l.386-.37a17.494,17.494,0,0,1,.026,2.336h-.5Z" transform="translate(-1572.377 -1317.902)" fill="#d38972"/>
          <path id="Trazado_1297553" data-name="Trazado 1297553" d="M1396.97,1442.373s5.442-.505,7.977,7.674l-6.575.537Z" transform="translate(-1350.952 -1419.665)" fill="#d38972"/>
        </g>
        <path id="Trazado_1297554" data-name="Trazado 1297554" d="M1423.975,1945.928c-1.767-1.72-.5-5.883,2.822-9.3s7.453-4.791,9.219-3.07.5,5.88-2.822,9.3S1425.74,1947.651,1423.975,1945.928Z" transform="translate(-1324.612 -1788.684)" fill="#be745f"/>
        <g id="Grupo_1241580" data-name="Grupo 1241580" transform="translate(38.525 16.482)">
          <path id="Trazado_1297555" data-name="Trazado 1297555" d="M1555.484,1410.547c.986,1.626,2.1,3.089,3.136,3.587l1.106-4.931-2.982,13.293c-.069-.318-.148-.655-.238-1a18.966,18.966,0,0,0-1.543-4.051l.723.2a16.512,16.512,0,0,1-2.269-5.868A15.159,15.159,0,0,1,1555.484,1410.547Z" transform="translate(-1509.806 -1377.058)" fill="#e09c83"/>
          <path id="Trazado_1297556" data-name="Trazado 1297556" d="M1492.989,1266.82s-12.036-1.676-19.365-11.847c0-1.46.035-2.869.085-4.176h.5a17.517,17.517,0,0,0-.026-2.336l1-.96a19.376,19.376,0,0,0,1.591,4v-5.531c.892-3.585,8.622-8.291,8.622-8.291a77.332,77.332,0,0,0,6.337-4.709,11.311,11.311,0,0,1,.828,1.695c1.918,4.92,3,14.633,3,14.633h-2.419S1492.989,1266.486,1492.989,1266.82Zm-2.672-26.712c-3.945-.461-5.411,1.211-5.411,1.211h5.8Zm.058,2.948h-2.255s.058,2.6.91,2.677.83-2.118.83-2.118Zm1.375,12.414V1251.5c-4.657-.056-6.213,1.716-6.213,1.716a6.646,6.646,0,0,0,6.213,4.18Z" transform="translate(-1431.086 -1232.969)" fill="#e09c83"/>
          <path id="Trazado_1297557" data-name="Trazado 1297557" d="M1612.99,1464.158c-1.4-.89-2.805-1.68-4.2-2.385a29.8,29.8,0,0,1,2.808-6.518Z" transform="translate(-1573.168 -1414.71)" fill="#e09c83"/>
          <path id="Trazado_1297558" data-name="Trazado 1297558" d="M1367.763,1462.1c.209-.331.422-.659.645-.985,8.332-12.1,24.677,8.678,24.677,8.678l17.858,23.689.1.636c0,.547.124,9.182,3.83,29.978a.358.358,0,1,0,.705-.126c-3.342-18.758-3.757-27.585-3.81-29.482-.007-.271-.007-.4-.007-.4v-.03l-2.237-14.321-1.132-8.644-2.6-15.227-4.31-25.271s7.364-.694,8.951,12.4l.356-.029,24.482-2.011,6.575-.537,6.055-.5a4.341,4.341,0,0,1-3.312,5.079c-.088.024-.165.058-.258.08-2.913.734-5.71,1.28-8.07,1.676-3.912.656-6.614.9-6.614.9s4.761,1.975.943,5.077c0,0,4.813.925,1.041,6.1,0,0,3.573,3.5-1.385,7.075a18.594,18.594,0,0,1-5.315,2.1c1.552,2.894,3.209,6.149,4.841,9.631,7.721,16.47,14.886,38.088,7.878,51.691a20.5,20.5,0,0,1-6.809,7.666,6.6,6.6,0,0,1-4.412.869c-15.572-1.476-51.672-36.361-51.672-36.361C1362.4,1489.808,1360.2,1474.091,1367.763,1462.1Zm56.465,73.209c1.766,1.722,5.894.344,9.219-3.072s4.589-7.58,2.822-9.3-5.894-.346-9.219,3.07S1422.46,1533.591,1424.228,1535.311Z" transform="translate(-1363.39 -1394.549)" fill="#e09c83"/>
        </g>
        <g id="Grupo_1241581" data-name="Grupo 1241581" transform="translate(33.723)">
          <path id="Trazado_1297559" data-name="Trazado 1297559" d="M1505.678,1271.749l.385,1.211h-5.8S1501.733,1271.287,1505.678,1271.749Z" transform="translate(-1441.645 -1248.127)" fill="#20163a"/>
          <path id="Trazado_1297560" data-name="Trazado 1297560" d="M1490.664,1603.342a.054.054,0,0,0,0-.009c-7.567,11.989-5.361,27.706,7,39.411,0,0,36.1,34.885,51.672,36.361l-.026,4.073-63.016-29.446S1473,1627.38,1490.664,1603.342Z" transform="translate(-1481.492 -1519.297)" fill="#20163a"/>
          <path id="Trazado_1297561" data-name="Trazado 1297561" d="M1503.881,1163.8s-7.73,4.706-8.622,8.291v5.531a19.358,19.358,0,0,1-1.591-4l-1,.96-.386.37q-.05.936-.088,1.966c-.05,1.307-.082,2.716-.085,4.176a62.391,62.391,0,0,0,1.077,12.709,16.512,16.512,0,0,0,2.269,5.867l-.723-.2a18.972,18.972,0,0,1,1.543,4.051c.09.348.169.684.238,1a22.513,22.513,0,0,1,.46,2.984l-.356.029c-1.587-13.093-8.951-12.4-8.951-12.4l4.311,25.271,3.73,23.871,2.237,14.32v.03s0,.125.007.4c.053,1.9.467,10.724,3.81,29.482a.358.358,0,1,1-.705.126c-3.706-20.8-3.825-29.431-3.829-29.978l-.1-.636-6.589-42.176a50.143,50.143,0,0,0-21.936-9.285c-1.4-.223-2.524-.334-3.3-.388-.388-.028-.686-.043-.888-.05-.1,0-.178-.006-.229-.006h-.075a.36.36,0,0,1,0-.72h0a45.97,45.97,0,0,1,15.765,3.6,50.513,50.513,0,0,1,10.5,5.838l-.984-6.3-1.392-8.9-.323-2.065-11.629-3.144-7.375-2s-9.755-39.5,3.934-47.212a44.645,44.645,0,0,1,43.037,7.265c.34.269.2.822-.069,1.315-.553,1.007-2.653,3.058-5.362,5.293A77.35,77.35,0,0,1,1503.881,1163.8Zm-20.474-19.821a.358.358,0,0,0-.5.1l-.239.356c-.155.23-.382.565-.67.984-.574.841-1.39,2.017-2.35,3.368-1.921,2.7-4.429,6.1-6.761,8.881a31.807,31.807,0,0,1-4.186,4.33l-.132.1-.005.171s-.118,3.436-.118,7.99c0,5.693.182,13.116,1.015,17.806a.359.359,0,0,0,.707-.125c-.819-4.588-1.006-12.011-1-17.681,0-2.271.028-4.265.057-5.687.022-1.063.044-1.807.054-2.117a33.63,33.63,0,0,0,4.161-4.327c1.57-1.87,3.21-4.008,4.7-6.03,2.981-4.046,5.364-7.618,5.367-7.619h0A.357.357,0,0,0,1483.407,1143.975Zm9.138-.009a.358.358,0,0,0-.493.119s-.094.152-.273.437-.442.7-.781,1.213c-.676,1.035-1.649,2.477-2.834,4.119a75.852,75.852,0,0,1-8.959,10.538,21.662,21.662,0,0,1-6.717,4.621l-.222.081-.011.24s-.157,3.59-.157,8.053c0,2.548.051,5.38.213,8a37.341,37.341,0,0,0,.881,6.705.359.359,0,0,0,.695-.184,36.751,36.751,0,0,1-.858-6.567c-.161-2.592-.212-5.412-.212-7.951,0-3.334.088-6.181.132-7.4.006-.17.01-.3.015-.4a22.82,22.82,0,0,0,6.733-4.675,65.924,65.924,0,0,0,6.407-7.13,107.075,107.075,0,0,0,6.562-9.326A.36.36,0,0,0,1492.545,1143.966Zm8.29,2.255a.357.357,0,0,0-.5.062s-.2.256-.565.718-.905,1.121-1.58,1.93c-1.349,1.617-3.25,3.82-5.457,6.157-4.409,4.672-10.058,9.886-14.875,12.02l-.207.091-.006.227s-.056,2.336-.056,5.591c0,2.981.048,6.739.228,10.187a40.957,40.957,0,0,0,1.035,8.371.359.359,0,0,0,.687-.212,40.541,40.541,0,0,1-1.005-8.2c-.179-3.428-.226-7.175-.226-10.15,0-1.624.014-3.018.028-4.006.009-.633.018-1.094.023-1.348,4.952-2.278,10.515-7.447,14.9-12.083,4.439-4.7,7.644-8.853,7.648-8.857h0A.357.357,0,0,0,1500.835,1146.22Zm6.01,2.844a.356.356,0,0,0-.507.03s-.135.156-.387.437-.624.7-1.092,1.213c-.937,1.03-2.266,2.472-3.834,4.115a147.263,147.263,0,0,1-11.064,10.588,32.931,32.931,0,0,1-6.9,4.74l-.212.095v.234s.011,8.506.764,15.255a34.971,34.971,0,0,0,1.036,5.8.359.359,0,1,0,.687-.207,56.164,56.164,0,0,1-1.444-10.871c-.249-4.051-.307-7.842-.321-9.324,0-.186,0-.325,0-.435a34.651,34.651,0,0,0,6.853-4.74c2.576-2.162,5.262-4.706,7.7-7.14,4.873-4.863,8.756-9.284,8.758-9.29h0A.355.355,0,0,0,1506.845,1149.064Zm4.9,2.853a.359.359,0,0,0-.507-.026l-.8.717c-.51.46-1.242,1.121-2.135,1.925-1.788,1.608-4.218,3.793-6.794,6.089-5.148,4.6-10.882,9.663-13.172,11.5l-.124.1-.009.16s-.125,2.276-.125,5.427c0,2.6.085,5.8.4,8.815a25.048,25.048,0,0,0,1.779,7.792.359.359,0,1,0,.647-.314,24.42,24.42,0,0,1-1.712-7.552c-.309-2.981-.394-6.159-.394-8.741,0-2.349.069-4.207.105-4.987.005-.1.009-.18.012-.242,2.392-1.94,8-6.9,13.073-11.422,5.151-4.6,9.726-8.732,9.729-8.735A.36.36,0,0,0,1511.744,1151.916Z" transform="translate(-1444.772 -1142.604)" fill="#20163a"/>
          <path id="Trazado_1297562" data-name="Trazado 1297562" d="M1556.315,1390.557a47.811,47.811,0,0,1-2.9-5.8,61.681,61.681,0,0,0,7.14,4.459l-1.106,4.931C1558.415,1393.647,1557.3,1392.184,1556.315,1390.557Z" transform="translate(-1505.834 -1340.587)" fill="#20163a"/>
          <path id="Trazado_1297563" data-name="Trazado 1297563" d="M1374.876,1788.529a.072.072,0,0,1,.023-.007.36.36,0,0,1,.381.336h0s.891,13.874,1.785,29.944a.358.358,0,1,1-.716.041c-.447-8.033-.894-15.517-1.229-20.995-.167-2.738-.306-4.975-.4-6.526s-.153-2.415-.154-2.418a.354.354,0,0,1,.147-.305A.34.34,0,0,1,1374.876,1788.529Z" transform="translate(-1289.719 -1670.708)" fill="#20163a"/>
          <path id="Trazado_1297564" data-name="Trazado 1297564" d="M1363.115,1580.749a.359.359,0,1,1,.261.669,11.377,11.377,0,0,0-5.227,3.634,6.972,6.972,0,0,0-1.362,4.239,12.328,12.328,0,0,0,1.486,5.441c.138.271.276.519.409.751.227.394.442.737.617,1,.139.211.256.373.335.482.042.053.073.1.093.124l.031.038a.36.36,0,0,1-.564.448v0a16.154,16.154,0,0,1-1.274-1.977c-.094-.168-.192-.347-.288-.536a13.067,13.067,0,0,1-1.563-5.769,7.705,7.705,0,0,1,1.5-4.663A12.083,12.083,0,0,1,1363.115,1580.749Z" transform="translate(-1272.886 -1500.812)" fill="#20163a"/>
          <path id="Trazado_1297565" data-name="Trazado 1297565" d="M1289.716,1541.975a6.114,6.114,0,0,1-2.382-1.419,2.962,2.962,0,0,1-.871-2.1,4.674,4.674,0,0,1,.812-2.425,6.687,6.687,0,0,1,.8-1.034l.091-.093,9.651-.94a.36.36,0,0,1,.07.717l-9.386.913a6.27,6.27,0,0,0-.688.93,3.858,3.858,0,0,0-.632,1.932,2.242,2.242,0,0,0,.671,1.6,6.07,6.07,0,0,0,2.679,1.429l7.248-1.518a.359.359,0,1,1,.146.7l-7.279,1.527a6.333,6.333,0,0,0-1.1.87,3.855,3.855,0,0,0-.641.824,1.9,1.9,0,0,0-.266.928,1.8,1.8,0,0,0,.45,1.14,5.442,5.442,0,0,0,1.682,1.27l9.39-1.954a.359.359,0,1,1,.147.7l-9.359,1.951a4.685,4.685,0,0,0-.535,2.013,2.328,2.328,0,0,0,.5,1.505,3.7,3.7,0,0,0,2.02,1.146l7.2-1.957a.358.358,0,1,1,.189.692l-7.392,2.009-.09-.024a4.462,4.462,0,0,1-2.489-1.417,3.049,3.049,0,0,1-.661-1.956,5.259,5.259,0,0,1,.539-2.189,5.92,5.92,0,0,1-1.706-1.342,2.509,2.509,0,0,1-.609-1.591,2.68,2.68,0,0,1,.4-1.351A5.444,5.444,0,0,1,1289.716,1541.975Z" transform="translate(-1197.178 -1462.58)" fill="#20163a"/>
          <path id="Trazado_1297566" data-name="Trazado 1297566" d="M1502.969,1290.941c-.851-.072-.91-2.677-.91-2.677h2.254l-.514.559S1503.821,1291.016,1502.969,1290.941Z" transform="translate(-1440.222 -1261.696)" fill="#20163a"/>
        </g>
        <path id="Trazado_1297567" data-name="Trazado 1297567" d="M1486.42,1196.44v0h0Z" transform="translate(-1385.753 -1186.62)" fill="#4a3f73"/>
        <path id="Trazado_1297568" data-name="Trazado 1297568" d="M1499.67,1202.379c-5.068,4.522-10.681,9.482-13.073,11.423,0,.062-.007.141-.012.241-.036.781-.105,2.638-.105,4.988,0,2.582.085,5.76.394,8.741a24.42,24.42,0,0,0,1.712,7.552.36.36,0,1,1-.647.313,25.034,25.034,0,0,1-1.779-7.792c-.313-3.02-.4-6.216-.4-8.815,0-3.151.125-5.422.125-5.427l.01-.16.124-.1c2.29-1.839,8.024-6.9,13.172-11.5,2.576-2.3,5.007-4.481,6.795-6.09l2.135-1.924.8-.717a.359.359,0,1,1,.481.534S1504.821,1197.781,1499.67,1202.379Z" transform="translate(-1408.73 -1183.823)" fill="#4a3f73"/>
        <path id="Trazado_1297569" data-name="Trazado 1297569" d="M1536.486,1178.111c0,.006-3.885,4.427-8.758,9.289-2.437,2.434-5.123,4.977-7.7,7.14a34.64,34.64,0,0,1-6.853,4.74c0,.11,0,.249,0,.435.013,1.481.072,5.272.321,9.323a56.179,56.179,0,0,0,1.444,10.87.358.358,0,1,1-.687.207,34.959,34.959,0,0,1-1.036-5.8c-.754-6.749-.764-15.25-.764-15.255v-.234l.212-.095a32.932,32.932,0,0,0,6.9-4.74,147.331,147.331,0,0,0,11.064-10.588c1.569-1.643,2.9-3.084,3.835-4.115.468-.516.838-.926,1.092-1.213s.387-.437.387-.437a.359.359,0,0,1,.539.474Z" transform="translate(-1440.659 -1171.147)" fill="#4a3f73"/>
        <path id="Trazado_1297570" data-name="Trazado 1297570" d="M1568.629,1162.6s-3.209,4.155-7.648,8.857c-4.382,4.636-9.945,9.8-14.9,12.083-.005.254-.014.715-.023,1.348-.013.987-.028,2.382-.028,4.005,0,2.975.047,6.722.226,10.15a40.545,40.545,0,0,0,1.005,8.2.359.359,0,0,1-.687.212,40.961,40.961,0,0,1-1.035-8.371c-.18-3.448-.228-7.206-.228-10.187,0-3.255.056-5.588.056-5.591l.006-.227.207-.09c4.817-2.135,10.466-7.348,14.875-12.02,2.207-2.337,4.108-4.54,5.457-6.157.675-.81,1.211-1.471,1.58-1.93s.564-.715.565-.718a.359.359,0,0,1,.568.44Z" transform="translate(-1478.78 -1158.476)" fill="#4a3f73"/>
        <path id="Trazado_1297571" data-name="Trazado 1297571" d="M1604.594,1159.659a65.924,65.924,0,0,1-6.407,7.13,22.814,22.814,0,0,1-6.733,4.675c-.006.1-.009.232-.016.4-.044,1.215-.132,4.061-.132,7.4,0,2.539.051,5.359.212,7.951a36.747,36.747,0,0,0,.858,6.567.359.359,0,0,1-.695.183,37.327,37.327,0,0,1-.881-6.705c-.162-2.616-.213-5.448-.213-8,0-4.463.157-8.05.157-8.053l.011-.24.222-.081a21.658,21.658,0,0,0,6.717-4.621,75.892,75.892,0,0,0,8.96-10.538c1.185-1.642,2.157-3.084,2.833-4.119.338-.514.6-.928.781-1.213s.273-.437.273-.437a.359.359,0,0,1,.613.375A107.09,107.09,0,0,1,1604.594,1159.659Z" transform="translate(-1529.541 -1148.477)" fill="#4a3f73"/>
        <path id="Trazado_1297572" data-name="Trazado 1297572" d="M1655.808,1150.343s-2.385,3.574-5.367,7.619c-1.491,2.022-3.13,4.16-4.7,6.03a33.625,33.625,0,0,1-4.161,4.327c-.011.311-.032,1.055-.054,2.118-.029,1.422-.058,3.416-.058,5.687,0,5.67.185,13.093,1,17.68a.359.359,0,0,1-.708.125c-.833-4.69-1.015-12.113-1.015-17.806,0-4.554.118-7.988.118-7.99l.006-.17.132-.1a31.765,31.765,0,0,0,4.186-4.33c2.333-2.779,4.84-6.181,6.761-8.881.96-1.351,1.776-2.527,2.35-3.368.288-.419.514-.754.67-.984l.239-.355a.359.359,0,0,1,.6.4Z" transform="translate(-1583.351 -1148.474)" fill="#4a3f73"/>
      </g>
    </g>
  </g>
</svg>
