<svg xmlns="http://www.w3.org/2000/svg" xmlns:xlink="http://www.w3.org/1999/xlink" width="106.16" height="106.16" viewBox="0 0 106.16 106.16">
  <defs>
    <filter id="Trazado_982547" x="0" y="0" width="106.16" height="106.16" filterUnits="userSpaceOnUse">
      <feOffset dy="3" input="SourceAlpha"/>
      <feGaussianBlur stdDeviation="3" result="blur"/>
      <feFlood flood-opacity="0.161"/>
      <feComposite operator="in" in2="blur"/>
      <feComposite in="SourceGraphic"/>
    </filter>
  </defs>
  <g id="Grupo_1242080" data-name="Grupo 1242080" transform="translate(-505.42 -2738.469)">
    <g id="Grupo_1235687" data-name="Grupo 1235687" transform="translate(514.42 2744.469)">
      <g id="Grupo_1235128" data-name="Grupo 1235128" transform="translate(0 0)">
        <g id="Grupo_1233884" data-name="Grupo 1233884" transform="translate(0 0)">
          <g id="Grupo_1228506" data-name="Grupo 1228506">
            <g id="Grupo_1206132" data-name="Grupo 1206132">
              <g id="Grupo_1203794" data-name="Grupo 1203794">
                <g id="Grupo_1203345" data-name="Grupo 1203345">
                  <g id="Grupo_1177900" data-name="Grupo 1177900">
                    <g id="Grupo_1172010" data-name="Grupo 1172010">
                      <g id="Grupo_1171046" data-name="Grupo 1171046">
                        <g id="Grupo_1148525" data-name="Grupo 1148525">
                          <g transform="matrix(1, 0, 0, 1, -9, -6)" filter="url(#Trazado_982547)">
                            <g id="Trazado_982547-2" data-name="Trazado 982547" transform="translate(9 6)" fill="#e9f9fd">
                              <path d="M 44.0802001953125 86.660400390625 C 38.33124923706055 86.660400390625 32.75506210327148 85.53479766845703 27.50652503967285 83.31484985351562 C 22.43628692626953 81.17032623291016 17.88242530822754 78.09992218017578 13.97144985198975 74.18894958496094 C 10.06047534942627 70.27797698974609 6.99007511138916 65.72411346435547 4.845550060272217 60.65387344360352 C 2.625600099563599 55.40533828735352 1.500000238418579 49.82915115356445 1.500000238418579 44.0802001953125 C 1.500000238418579 38.33124923706055 2.625600099563599 32.75506210327148 4.845550060272217 27.50652503967285 C 6.99007511138916 22.43628692626953 10.06047534942627 17.88242530822754 13.97144985198975 13.97144985198975 C 17.88242530822754 10.06047534942627 22.43628692626953 6.99007511138916 27.50652503967285 4.845550060272217 C 32.75506210327148 2.625600099563599 38.33124923706055 1.500000238418579 44.0802001953125 1.500000238418579 C 49.82915115356445 1.500000238418579 55.40533828735352 2.625600099563599 60.65387344360352 4.845550060272217 C 65.72411346435547 6.99007511138916 70.27797698974609 10.06047534942627 74.18894958496094 13.97144985198975 C 78.09992218017578 17.88242530822754 81.17032623291016 22.43628692626953 83.31484985351562 27.50652503967285 C 85.53479766845703 32.75506210327148 86.660400390625 38.33124923706055 86.660400390625 44.0802001953125 C 86.660400390625 49.82915115356445 85.53479766845703 55.40533828735352 83.31484985351562 60.65387344360352 C 81.17032623291016 65.72411346435547 78.09992218017578 70.27797698974609 74.18894958496094 74.18894958496094 C 70.27797698974609 78.09992218017578 65.72411346435547 81.17032623291016 60.65387344360352 83.31484985351562 C 55.40533828735352 85.53479766845703 49.82915115356445 86.660400390625 44.0802001953125 86.660400390625 Z" stroke="none"/>
                              <path d="M 44.0802001953125 3 C 38.53308486938477 3 33.15349960327148 4.085746765136719 28.09085845947266 6.227058410644531 C 23.19941711425781 8.29595947265625 18.80581665039062 11.25841522216797 15.03211212158203 15.03211212158203 C 11.25841522216797 18.80581665039062 8.29595947265625 23.19941711425781 6.227058410644531 28.09085845947266 C 4.085746765136719 33.15349960327148 3 38.53308486938477 3 44.0802001953125 C 3 49.62731552124023 4.085746765136719 55.00691604614258 6.227058410644531 60.06954193115234 C 8.29595947265625 64.96098327636719 11.25841522216797 69.35458374023438 15.03211212158203 73.12828826904297 C 18.80581665039062 76.90198516845703 23.19941711425781 79.86444091796875 28.09085845947266 81.93334197998047 C 33.15349960327148 84.07466125488281 38.53308486938477 85.160400390625 44.0802001953125 85.160400390625 C 49.62731552124023 85.160400390625 55.00691604614258 84.07466125488281 60.06954193115234 81.93334197998047 C 64.96099853515625 79.86444091796875 69.35458374023438 76.90198516845703 73.12828826904297 73.12828826904297 C 76.90198516845703 69.35458374023438 79.86444091796875 64.96099853515625 81.93334197998047 60.06954193115234 C 84.07466125488281 55.00691604614258 85.160400390625 49.62731552124023 85.160400390625 44.0802001953125 C 85.160400390625 38.53308486938477 84.07466125488281 33.15349960327148 81.93334197998047 28.09085845947266 C 79.86444091796875 23.19941711425781 76.90198516845703 18.80581665039062 73.12828826904297 15.03211212158203 C 69.35458374023438 11.25841522216797 64.96098327636719 8.29595947265625 60.06954193115234 6.227058410644531 C 55.00691604614258 4.085746765136719 49.62731552124023 3 44.0802001953125 3 M 44.0802001953125 0 C 68.42502593994141 0 88.160400390625 19.73538970947266 88.160400390625 44.0802001953125 C 88.160400390625 68.42502593994141 68.42502593994141 88.160400390625 44.0802001953125 88.160400390625 C 19.73538970947266 88.160400390625 0 68.42502593994141 0 44.0802001953125 C 0 19.73538970947266 19.73538970947266 0 44.0802001953125 0 Z" stroke="none" fill="#1d7083"/>
                            </g>
                          </g>
                        </g>
                      </g>
                    </g>
                  </g>
                </g>
              </g>
            </g>
          </g>
        </g>
      </g>
    </g>
    <g id="lupa" transform="translate(517.788 2763.418)">
      <path id="Trazado_1298294" data-name="Trazado 1298294" d="M200.624,7.5a21,21,0,0,0-17.813,32.11,2.035,2.035,0,0,1-.277,2.521L177.4,47.263l.127,4.326,4.326.127,5.132-5.132a2.035,2.035,0,0,1,2.521-.277A21,21,0,1,0,200.624,7.5Z" transform="translate(-153.421 -6.486)" fill="#0067c5"/>
      <circle id="Elipse_11571" data-name="Elipse 11571" cx="15.746" cy="15.746" r="15.746" transform="translate(31.457 6.263)" fill="#c8effe"/>
      <path id="Trazado_1298295" data-name="Trazado 1298295" d="M289.659,137.141l-5.2,5.2-2.227-2.227a3.149,3.149,0,1,0-4.454,4.454l4.454,4.454a3.149,3.149,0,0,0,4.454,0l7.423-7.423a3.149,3.149,0,0,0-4.454-4.454Z" transform="translate(-239.435 -117.805)" fill="#99e6fc"/>
      <path id="Trazado_1298296" data-name="Trazado 1298296" d="M291.92,50.52a15.751,15.751,0,0,1-13.809,27.656A15.748,15.748,0,1,0,291.92,50.52Z" transform="translate(-240.516 -43.691)" fill="#99e6fc"/>
      <path id="Trazado_1298297" data-name="Trazado 1298297" d="M30.772,333.095l-4.555-4.555a2.028,2.028,0,0,0-2.868,0L8.093,343.8a2.028,2.028,0,0,0,0,2.868l4.555,4.555a2.028,2.028,0,0,0,2.868,0l15.256-15.256a2.028,2.028,0,0,0,0-2.868Z" transform="translate(-6.486 -283.614)" fill="#fe9738"/>
      <path id="Trazado_1298298" data-name="Trazado 1298298" d="M51.268,333.094l-4.555-4.555a2.028,2.028,0,0,0-2.868,0l-.594.594,1.118,1.118a4.137,4.137,0,0,1,0,5.85L31.2,349.272l1.946,1.946a2.028,2.028,0,0,0,2.868,0l15.256-15.256A2.028,2.028,0,0,0,51.268,333.094Z" transform="translate(-26.982 -283.613)" fill="#fe860a"/>
      <path id="Trazado_1298299" data-name="Trazado 1298299" d="M146.72,306.232l-4.555-4.555a2.028,2.028,0,0,1,0-2.868l1.331-1.331a2.028,2.028,0,0,1,2.868,0l4.555,4.555a2.028,2.028,0,0,1,0,2.868l-1.331,1.331A2.028,2.028,0,0,1,146.72,306.232Z" transform="translate(-122.433 -256.751)" fill="#fe9738"/>
      <path id="Trazado_1298300" data-name="Trazado 1298300" d="M289.659,117.141l-5.2,5.2-2.227-2.227a3.149,3.149,0,1,0-4.454,4.454l4.454,4.454a3.149,3.149,0,0,0,4.454,0l7.423-7.423a3.149,3.149,0,0,0-4.454-4.454Z" transform="translate(-239.435 -100.508)" fill="#05e39c"/>
      <path id="Trazado_1298301" data-name="Trazado 1298301" d="M47.2,0A21.8,21.8,0,0,0,31.1,6.964a1.014,1.014,0,0,0,1.481,1.385A19.8,19.8,0,0,1,47.2,2.028,19.981,19.981,0,1,1,36.625,38.963a3.036,3.036,0,0,0-3.776.42L28.435,43.8l-3.02-3.02,4.415-4.415a3.037,3.037,0,0,0,.42-3.776A20.072,20.072,0,0,1,29.9,11.961a1.014,1.014,0,0,0-1.754-1.017,22.1,22.1,0,0,0,.38,22.718,1.018,1.018,0,0,1-.134,1.267l-4.519,4.519a3.046,3.046,0,0,0-3.531.561l-1.332,1.331a3.019,3.019,0,0,0-.886,1.981,3.019,3.019,0,0,0-1.981.886l-2.5,2.5a1.014,1.014,0,0,0,1.434,1.434l2.5-2.5a1.014,1.014,0,0,1,1.434,0L23.569,50.2a1.014,1.014,0,0,1,0,1.434l-11.5,11.5L6.084,57.138l5.732-5.732a1.014,1.014,0,1,0-1.434-1.434L.891,59.464a3.042,3.042,0,0,0,0,4.3l4.555,4.555a3.042,3.042,0,0,0,4.3,0L25,53.065a3.019,3.019,0,0,0,.886-1.981,3.019,3.019,0,0,0,1.981-.886L29.2,48.866a3.046,3.046,0,0,0,.561-3.531l4.519-4.519a1.018,1.018,0,0,1,1.267-.134A22.01,22.01,0,1,0,47.2,0ZM8.314,66.887a1.014,1.014,0,0,1-1.434,0L2.325,62.332a1.014,1.014,0,0,1,0-1.434l2.326-2.326,5.989,5.989ZM27.769,47.432l-1.332,1.332a1.014,1.014,0,0,1-1.434,0l-4.555-4.555a1.014,1.014,0,0,1,0-1.434l1.332-1.332a1.014,1.014,0,0,1,1.434,0L27.769,46a1.014,1.014,0,0,1,0,1.434Z" transform="translate(0)"/>
      <path id="Trazado_1298302" data-name="Trazado 1298302" d="M257.586,57.818a1.014,1.014,0,0,0,1.088-.934,16.746,16.746,0,1,0-1.214,5.1,1.014,1.014,0,1,0-1.874-.774,14.741,14.741,0,1,1,1.067-4.479A1.014,1.014,0,0,0,257.586,57.818Z" transform="translate(-194.76 -33.579)"/>
      <path id="Trazado_1298303" data-name="Trazado 1298303" d="M282.47,109.937l-4.479,4.479-1.51-1.51a4.163,4.163,0,1,0-5.887,5.887l4.454,4.454a4.168,4.168,0,0,0,5.887,0l7.423-7.423a4.163,4.163,0,1,0-5.887-5.887Zm5.079,2.944a2.122,2.122,0,0,1-.625,1.51l-7.423,7.423a2.138,2.138,0,0,1-3.02,0l-4.454-4.454a2.135,2.135,0,1,1,3.02-3.02l2.227,2.227a1.014,1.014,0,0,0,1.434,0l5.2-5.2a2.135,2.135,0,0,1,3.645,1.51Z" transform="translate(-232.962 -94.022)"/>
    </g>
  </g>
</svg>
