<svg xmlns="http://www.w3.org/2000/svg" xmlns:xlink="http://www.w3.org/1999/xlink" width="106.16" height="106.16" viewBox="0 0 106.16 106.16">
  <defs>
    <filter id="Trazado_982547" x="0" y="0" width="106.16" height="106.16" filterUnits="userSpaceOnUse">
      <feOffset dy="3" input="SourceAlpha"/>
      <feGaussianBlur stdDeviation="3" result="blur"/>
      <feFlood flood-opacity="0.161"/>
      <feComposite operator="in" in2="blur"/>
      <feComposite in="SourceGraphic"/>
    </filter>
  </defs>
  <g id="Grupo_1242082" data-name="Grupo 1242082" transform="translate(-820.42 -2738.469)">
    <g id="Grupo_1235689" data-name="Grupo 1235689" transform="translate(829.42 2744.469)">
      <g id="Grupo_1235128" data-name="Grupo 1235128" transform="translate(0 0)">
        <g id="Grupo_1233884" data-name="Grupo 1233884" transform="translate(0 0)">
          <g id="Grupo_1228506" data-name="Grupo 1228506">
            <g id="Grupo_1206132" data-name="Grupo 1206132">
              <g id="Grupo_1203794" data-name="Grupo 1203794">
                <g id="Grupo_1203345" data-name="Grupo 1203345">
                  <g id="Grupo_1177900" data-name="Grupo 1177900">
                    <g id="Grupo_1172010" data-name="Grupo 1172010">
                      <g id="Grupo_1171046" data-name="Grupo 1171046">
                        <g id="Grupo_1148525" data-name="Grupo 1148525">
                          <g transform="matrix(1, 0, 0, 1, -9, -6)" filter="url(#Trazado_982547)">
                            <g id="Trazado_982547-2" data-name="Trazado 982547" transform="translate(9 6)" fill="#e9f9fd">
                              <path d="M 44.0802001953125 86.660400390625 C 38.33124923706055 86.660400390625 32.75506210327148 85.53479766845703 27.50652503967285 83.31484985351562 C 22.43628692626953 81.17032623291016 17.88242530822754 78.09992218017578 13.97144985198975 74.18894958496094 C 10.06047534942627 70.27797698974609 6.99007511138916 65.72411346435547 4.845550060272217 60.65387344360352 C 2.625600099563599 55.40533828735352 1.500000238418579 49.82915115356445 1.500000238418579 44.0802001953125 C 1.500000238418579 38.33124923706055 2.625600099563599 32.75506210327148 4.845550060272217 27.50652503967285 C 6.99007511138916 22.43628692626953 10.06047534942627 17.88242530822754 13.97144985198975 13.97144985198975 C 17.88242530822754 10.06047534942627 22.43628692626953 6.99007511138916 27.50652503967285 4.845550060272217 C 32.75506210327148 2.625600099563599 38.33124923706055 1.500000238418579 44.0802001953125 1.500000238418579 C 49.82915115356445 1.500000238418579 55.40533828735352 2.625600099563599 60.65387344360352 4.845550060272217 C 65.72411346435547 6.99007511138916 70.27797698974609 10.06047534942627 74.18894958496094 13.97144985198975 C 78.09992218017578 17.88242530822754 81.17032623291016 22.43628692626953 83.31484985351562 27.50652503967285 C 85.53479766845703 32.75506210327148 86.660400390625 38.33124923706055 86.660400390625 44.0802001953125 C 86.660400390625 49.82915115356445 85.53479766845703 55.40533828735352 83.31484985351562 60.65387344360352 C 81.17032623291016 65.72411346435547 78.09992218017578 70.27797698974609 74.18894958496094 74.18894958496094 C 70.27797698974609 78.09992218017578 65.72411346435547 81.17032623291016 60.65387344360352 83.31484985351562 C 55.40533828735352 85.53479766845703 49.82915115356445 86.660400390625 44.0802001953125 86.660400390625 Z" stroke="none"/>
                              <path d="M 44.0802001953125 3 C 38.53308486938477 3 33.15349960327148 4.085746765136719 28.09085845947266 6.227058410644531 C 23.19941711425781 8.29595947265625 18.80581665039062 11.25841522216797 15.03211212158203 15.03211212158203 C 11.25841522216797 18.80581665039062 8.29595947265625 23.19941711425781 6.227058410644531 28.09085845947266 C 4.085746765136719 33.15349960327148 3 38.53308486938477 3 44.0802001953125 C 3 49.62731552124023 4.085746765136719 55.00691604614258 6.227058410644531 60.06954193115234 C 8.29595947265625 64.96098327636719 11.25841522216797 69.35458374023438 15.03211212158203 73.12828826904297 C 18.80581665039062 76.90198516845703 23.19941711425781 79.86444091796875 28.09085845947266 81.93334197998047 C 33.15349960327148 84.07466125488281 38.53308486938477 85.160400390625 44.0802001953125 85.160400390625 C 49.62731552124023 85.160400390625 55.00691604614258 84.07466125488281 60.06954193115234 81.93334197998047 C 64.96099853515625 79.86444091796875 69.35458374023438 76.90198516845703 73.12828826904297 73.12828826904297 C 76.90198516845703 69.35458374023438 79.86444091796875 64.96099853515625 81.93334197998047 60.06954193115234 C 84.07466125488281 55.00691604614258 85.160400390625 49.62731552124023 85.160400390625 44.0802001953125 C 85.160400390625 38.53308486938477 84.07466125488281 33.15349960327148 81.93334197998047 28.09085845947266 C 79.86444091796875 23.19941711425781 76.90198516845703 18.80581665039062 73.12828826904297 15.03211212158203 C 69.35458374023438 11.25841522216797 64.96098327636719 8.29595947265625 60.06954193115234 6.227058410644531 C 55.00691604614258 4.085746765136719 49.62731552124023 3 44.0802001953125 3 M 44.0802001953125 0 C 68.42502593994141 0 88.160400390625 19.73538970947266 88.160400390625 44.0802001953125 C 88.160400390625 68.42502593994141 68.42502593994141 88.160400390625 44.0802001953125 88.160400390625 C 19.73538970947266 88.160400390625 0 68.42502593994141 0 44.0802001953125 C 0 19.73538970947266 19.73538970947266 0 44.0802001953125 0 Z" stroke="none" fill="#1d7083"/>
                            </g>
                          </g>
                        </g>
                      </g>
                    </g>
                  </g>
                </g>
              </g>
            </g>
          </g>
        </g>
      </g>
    </g>
    <g id="gestion-de-proyectos_5_" data-name="gestion-de-proyectos (5)" transform="translate(843.314 2756.825)">
      <g id="Grupo_1242081" data-name="Grupo 1242081" transform="translate(1.082 5.54)">
        <path id="Trazado_1298304" data-name="Trazado 1298304" d="M60.649,44.98a5.8,5.8,0,0,0-4.1,9.893,1.72,1.72,0,0,1,0,2.433l-3.7,3.7a1.72,1.72,0,0,1-2.433,0,5.8,5.8,0,0,0-9.893,4.1,1.72,1.72,0,0,1-1.72,1.72H33.566a1.72,1.72,0,0,1-1.72-1.72,5.8,5.8,0,0,0-9.893-4.1,1.72,1.72,0,0,1-2.433,0l-3.7-3.7a1.72,1.72,0,0,1,0-2.433,5.8,5.8,0,0,0-4.1-9.893A1.72,1.72,0,0,1,10,43.26V38.023a1.72,1.72,0,0,1,1.72-1.72,5.8,5.8,0,0,0,4.1-9.893,1.72,1.72,0,0,1,0-2.433l3.7-3.7a1.72,1.72,0,0,1,2.433,0,5.8,5.8,0,0,0,9.893-4.1,1.72,1.72,0,0,1,1.72-1.72H38.8a1.72,1.72,0,0,1,1.72,1.72,5.8,5.8,0,0,0,9.893,4.1,1.72,1.72,0,0,1,2.433,0l3.7,3.7a1.72,1.72,0,0,1,0,2.433,5.8,5.8,0,0,0,4.1,9.893,1.72,1.72,0,0,1,1.72,1.72V43.26a1.72,1.72,0,0,1-1.72,1.72ZM36.184,29.673A10.969,10.969,0,1,0,47.153,40.641,10.969,10.969,0,0,0,36.184,29.673Z" transform="translate(-10 -14.457)" fill="#ffd54f" fill-rule="evenodd"/>
        <path id="Trazado_1298305" data-name="Trazado 1298305" d="M252.627,66.825h25a1.067,1.067,0,0,0,1.065-1.065V25.428a1.027,1.027,0,0,0-.314-.755l-9.973-9.909a1.028,1.028,0,0,0-.751-.309H252.627a1.086,1.086,0,0,0-1.084,1.084v50.2A1.086,1.086,0,0,0,252.627,66.825Z" transform="translate(-225.358 -14.455)" fill="#f2f2f2" fill-rule="evenodd"/>
        <path id="Trazado_1298306" data-name="Trazado 1298306" d="M405.3,25.734h9.441a1.065,1.065,0,0,0-.221-.312l-9.973-9.909a1.066,1.066,0,0,0-.312-.218V24.67A1.067,1.067,0,0,0,405.3,25.734Z" transform="translate(-361.495 -15.205)" fill="#ccc" fill-rule="evenodd"/>
      </g>
      <path id="Trazado_1298307" data-name="Trazado 1298307" d="M47.688,48.251A1.084,1.084,0,0,1,46.6,49.335H32.636a1.084,1.084,0,1,1,0-2.168H46.6A1.084,1.084,0,0,1,47.688,48.251Zm0-7.829A1.084,1.084,0,0,1,46.6,41.506H32.636a1.084,1.084,0,1,1,0-2.168H46.6A1.084,1.084,0,0,1,47.688,40.422ZM31.552,16.936a1.084,1.084,0,0,1,1.084-1.084H38.8a1.084,1.084,0,0,1,0,2.168H32.636A1.084,1.084,0,0,1,31.552,16.936ZM47.688,32.593A1.084,1.084,0,0,1,46.6,33.677H32.636a1.084,1.084,0,0,1,0-2.168H46.6A1.084,1.084,0,0,1,47.688,32.593Zm0-7.829A1.084,1.084,0,0,1,46.6,25.848H32.636a1.084,1.084,0,0,1,0-2.168H46.6A1.084,1.084,0,0,1,47.688,24.764ZM28.351,56.826H53.334V17.153H43.819a1.084,1.084,0,0,1-1.084-1.084V6.624H28.351Zm-3.7,0a.636.636,0,0,1-.636-.636,6.768,6.768,0,0,0-4.248-6.351,7,7,0,0,0-2.68-.542,6.777,6.777,0,0,0-4.815,2.029.636.636,0,0,1-.9,0l-3.7-3.7a.637.637,0,0,1,0-.9,6.77,6.77,0,0,0,1.487-7.5A6.771,6.771,0,0,0,2.8,34.979a.636.636,0,0,1-.636-.636V29.106A.636.636,0,0,1,2.8,28.47a6.77,6.77,0,0,0,6.351-4.248,6.77,6.77,0,0,0-1.487-7.5.637.637,0,0,1,0-.9l3.7-3.7a.635.635,0,0,1,.9,0A6.879,6.879,0,0,0,24.013,7.26a.636.636,0,0,1,.636-.636h1.534V19.449a12.324,12.324,0,0,0,0,24.552V56.825H24.649Zm1.534-15v-20.2a10.156,10.156,0,0,0,0,20.2ZM44.9,8.145l6.885,6.84H44.9ZM55.182,15.3,44.583,4.77a1.083,1.083,0,0,0-.764-.314H24.649a2.808,2.808,0,0,0-2.8,2.8A4.71,4.71,0,0,1,13.8,10.591a2.805,2.805,0,0,0-3.967,0l-3.7,3.7a2.809,2.809,0,0,0,0,3.966,4.645,4.645,0,0,1,1.018,5.133A4.647,4.647,0,0,1,2.8,26.3a2.807,2.807,0,0,0-2.8,2.8v5.237a2.807,2.807,0,0,0,2.8,2.8,4.647,4.647,0,0,1,4.348,2.91,4.645,4.645,0,0,1-1.018,5.133,2.809,2.809,0,0,0,0,3.966l3.7,3.7a2.809,2.809,0,0,0,3.967,0,4.713,4.713,0,0,1,8.041,3.331,2.808,2.808,0,0,0,2.8,2.8H54.418A1.085,1.085,0,0,0,55.5,57.91V16.069a1.084,1.084,0,0,0-.32-.769Z" fill-rule="evenodd"/>
    </g>
  </g>
</svg>
