<svg xmlns="http://www.w3.org/2000/svg" xmlns:xlink="http://www.w3.org/1999/xlink" width="113" height="113" viewBox="0 0 113 113">
  <defs>
    <filter id="Trazado_982547" x="0" y="0" width="113" height="113" filterUnits="userSpaceOnUse">
      <feOffset dy="3" input="SourceAlpha"/>
      <feGaussianBlur stdDeviation="3" result="blur"/>
      <feFlood flood-opacity="0.161"/>
      <feComposite operator="in" in2="blur"/>
      <feComposite in="SourceGraphic"/>
    </filter>
  </defs>
  <g id="Grupo_1242096" data-name="Grupo 1242096" transform="translate(-691 -3964.389)">
    <g id="Grupo_1235696" data-name="Grupo 1235696" transform="translate(700 3970.389)">
      <g id="Grupo_1241233" data-name="Grupo 1241233">
        <g id="Grupo_1240427" data-name="Grupo 1240427" transform="translate(0 0)">
          <g id="Grupo_1239780" data-name="Grupo 1239780">
            <g id="Grupo_1236603" data-name="Grupo 1236603">
              <g id="Grupo_1236145" data-name="Grupo 1236145">
                <g id="Grupo_1235107" data-name="Grupo 1235107">
                  <g id="Grupo_1223796" data-name="Grupo 1223796">
                    <g id="Grupo_1208038" data-name="Grupo 1208038">
                      <g id="Grupo_1202104" data-name="Grupo 1202104">
                        <g id="Grupo_1201923" data-name="Grupo 1201923">
                          <g id="Grupo_1176928" data-name="Grupo 1176928">
                            <g id="Grupo_1172322" data-name="Grupo 1172322">
                              <g id="Grupo_1164700" data-name="Grupo 1164700">
                                <g id="Grupo_1160931" data-name="Grupo 1160931">
                                  <g id="Grupo_1160749" data-name="Grupo 1160749">
                                    <g id="Grupo_1158891" data-name="Grupo 1158891">
                                      <g id="Grupo_1157406" data-name="Grupo 1157406">
                                        <g id="Grupo_1155793" data-name="Grupo 1155793">
                                          <g id="Grupo_1154704" data-name="Grupo 1154704">
                                            <g id="Grupo_1150790" data-name="Grupo 1150790">
                                              <g id="Grupo_1154214" data-name="Grupo 1154214">
                                                <g id="Grupo_1152583" data-name="Grupo 1152583">
                                                  <g id="Grupo_1146973" data-name="Grupo 1146973">
                                                    <g id="Grupo_1146954" data-name="Grupo 1146954">
                                                      <g transform="matrix(1, 0, 0, 1, -9, -6)" filter="url(#Trazado_982547)">
                                                        <g id="Trazado_982547-2" data-name="Trazado 982547" transform="translate(9 6)" fill="#ffe1b9">
                                                          <path d="M 47.50000762939453 93.49986267089844 C 41.28937911987305 93.49986267089844 35.26534271240234 92.28383636474609 29.59519386291504 89.88558197021484 C 24.11772727966309 87.56880950927734 19.19814109802246 84.25183868408203 14.97310066223145 80.02679443359375 C 10.74804782867432 75.8017578125 7.431074142456055 70.88218688964844 5.114300727844238 65.40471649169922 C 2.716034412384033 59.73458480834961 1.500007629394531 53.71054458618164 1.500007629394531 47.49993133544922 C 1.500007629394531 41.2893180847168 2.716034412384033 35.26527786254883 5.114300727844238 29.59514427185059 C 7.431074142456055 24.11767768859863 10.74804782867432 19.19810485839844 14.97310066223145 14.97306442260742 C 19.19814109802246 10.74802494049072 24.11772727966309 7.431051254272461 29.59519386291504 5.114277839660645 C 35.26534271240234 2.71602463722229 41.28937911987305 1.499997973442078 47.50000762939453 1.499997973442078 C 53.71063613891602 1.499997973442078 59.73467254638672 2.71602463722229 65.40482330322266 5.114277839660645 C 70.88228607177734 7.431051254272461 75.80187225341797 10.74802494049072 80.02691650390625 14.97306442260742 C 84.25196838378906 19.19810485839844 87.56893920898438 24.11767768859863 89.88571166992188 29.59514427185059 C 92.28398132324219 35.26527786254883 93.50000762939453 41.2893180847168 93.50000762939453 47.49993133544922 C 93.50000762939453 53.71054458618164 92.28398132324219 59.73458480834961 89.88571166992188 65.40471649169922 C 87.56893920898438 70.88218688964844 84.25196838378906 75.8017578125 80.02691650390625 80.02679443359375 C 75.80187225341797 84.25183868408203 70.88228607177734 87.56880950927734 65.40482330322266 89.88558197021484 C 59.73467254638672 92.28383636474609 53.71063613891602 93.49986267089844 47.50000762939453 93.49986267089844 Z" stroke="none"/>
                                                          <path d="M 47.50000762939453 2.999992370605469 C 41.4912223815918 2.999992370605469 35.66377639770508 4.1761474609375 30.17951202392578 6.495796203613281 C 24.88085174560547 8.736930847167969 20.12152862548828 11.94596099853516 16.03376007080078 16.03372955322266 C 11.94597625732422 20.12148284912109 8.736961364746094 24.88080596923828 6.495803833007812 30.17946624755859 C 4.176162719726562 35.66371536254883 3.000007629394531 41.49116134643555 3.000007629394531 47.49993133544922 C 3.000007629394531 53.50870132446289 4.176162719726562 59.33614730834961 6.495803833007812 64.82038879394531 C 8.736961364746094 70.11905670166016 11.94597625732422 74.87836456298828 16.03376007080078 78.96613311767578 C 20.12152862548828 83.05390167236328 24.88085174560547 86.26291656494141 30.17951202392578 88.50406646728516 C 35.66377639770508 90.82369995117188 41.4912223815918 91.99985504150391 47.50000762939453 91.99985504150391 C 53.50879287719727 91.99985504150391 59.33623886108398 90.82369995117188 64.82049560546875 88.50406646728516 C 70.11916351318359 86.26291656494141 74.87848663330078 83.05390167236328 78.96625518798828 78.96613311767578 C 83.05403900146484 74.87836456298828 86.26305389404297 70.11905670166016 88.50421142578125 64.82038879394531 C 90.8238525390625 59.33614730834961 92.00000762939453 53.50870132446289 92.00000762939453 47.49993133544922 C 92.00000762939453 41.49116134643555 90.8238525390625 35.66371536254883 88.50421142578125 30.17946624755859 C 86.26305389404297 24.88080596923828 83.05403900146484 20.12148284912109 78.96625518798828 16.03372955322266 C 74.87848663330078 11.94596099853516 70.11916351318359 8.736930847167969 64.82049560546875 6.495796203613281 C 59.33623886108398 4.1761474609375 53.50879287719727 2.999992370605469 47.50000762939453 2.999992370605469 M 47.50000762939453 -7.62939453125e-06 C 73.73352813720703 -7.62939453125e-06 95.00000762939453 21.26644134521484 95.00000762939453 47.49993133544922 C 95.00000762939453 73.73342132568359 73.73352813720703 94.99985504150391 47.50000762939453 94.99985504150391 C 21.26648712158203 94.99985504150391 7.62939453125e-06 73.73342132568359 7.62939453125e-06 47.49993133544922 C 7.62939453125e-06 21.26644134521484 21.26648712158203 -7.62939453125e-06 47.50000762939453 -7.62939453125e-06 Z" stroke="none" fill="#ff9d1c"/>
                                                        </g>
                                                      </g>
                                                    </g>
                                                  </g>
                                                </g>
                                              </g>
                                            </g>
                                          </g>
                                        </g>
                                      </g>
                                    </g>
                                  </g>
                                </g>
                              </g>
                            </g>
                          </g>
                        </g>
                      </g>
                    </g>
                  </g>
                </g>
              </g>
            </g>
          </g>
        </g>
      </g>
    </g>
    <g id="mano-de-obra" transform="translate(707.017 3977.404)">
      <g id="Grupo_1242095" data-name="Grupo 1242095" transform="translate(9.048 9.05)">
        <g id="Grupo_1242093" data-name="Grupo 1242093" transform="translate(0)">
          <path id="Trazado_1298323" data-name="Trazado 1298323" d="M53.694,21.209a26.833,26.833,0,0,1,7.856,3.257l5.1-2.267,6.017,6.016-2.266,5.1a26.83,26.83,0,0,1,3.257,7.858l5.208,2v8.508l-5.209,2.005A26.833,26.833,0,0,1,70.4,61.55l2.267,5.1-6.016,6.017-5.1-2.266a26.828,26.828,0,0,1-7.858,3.257l-2,5.208H43.181l-2.005-5.209A26.831,26.831,0,0,1,33.32,70.4l-5.1,2.267L22.2,66.655l2.266-5.1a26.829,26.829,0,0,1-3.257-7.858l-5.208-2V43.181l5.209-2a26.824,26.824,0,0,1,3.257-7.856l-2.267-5.1L28.215,22.2l5.1,2.267a26.833,26.833,0,0,1,7.856-3.257L43.181,16h8.508Z" transform="translate(-16 -16)" fill="#a79ba7" fill-rule="evenodd"/>
          <path id="Trazado_1298324" data-name="Trazado 1298324" d="M142.865,22.743l1.225-.544,6.017,6.016-2.266,5.1a26.83,26.83,0,0,1,3.257,7.858l5.208,2v8.508L151.1,53.695a26.832,26.832,0,0,1-3.257,7.856l2.267,5.1-6.016,6.017-1.225-.544,5.472-5.472-2.267-5.1a26.832,26.832,0,0,0,3.257-7.856l5.209-2.005V43.181l-5.208-2a26.833,26.833,0,0,0-3.257-7.858l2.266-5.1Zm-11.736-1.534a26.83,26.83,0,0,1,7.753,3.194q.05.033.1.063l-1.012.449a32.585,32.585,0,0,0-8.613-3.706L127.355,16h1.769Zm7.851,49.2a26.83,26.83,0,0,1-7.851,3.253l-2,5.208h-1.769l2-5.208a32.585,32.585,0,0,0,8.62-3.7ZM105.106,22.743l.544-.544,5.1,2.267q-.382.218-.757.449ZM110.755,70.4l-5.1,2.267-.544-.544L110,69.955q.375.231.757.449Z" transform="translate(-93.435 -16)" fill="#837683" fill-rule="evenodd"/>
          <ellipse id="Elipse_11572" data-name="Elipse 11572" cx="18.688" cy="18.688" rx="18.688" ry="18.688" transform="translate(12.124 13.377) rotate(-1.892)" fill="#eceff1"/>
          <path id="Trazado_1298325" data-name="Trazado 1298325" d="M132.006,113.319a18.688,18.688,0,1,0,0,37.377q.455,0,.9-.022a18.688,18.688,0,0,1,0-37.332Q132.461,113.32,132.006,113.319Z" transform="translate(-100.571 -100.572)" fill="#d1d1d6" fill-rule="evenodd"/>
        </g>
        <g id="Grupo_1242094" data-name="Grupo 1242094" transform="translate(16.713 18.337)">
          <path id="Trazado_1298326" data-name="Trazado 1298326" d="M159.267,170.674c0,.333.013,1.034.039,1.361h25.263c.025-.327.039-1.028.039-1.361a12.674,12.674,0,0,0-8.768-12.056c.191-1.994-2.263-2.507-3.9-2.619-1.638.112-4.079.625-3.887,2.619A12.687,12.687,0,0,0,159.267,170.674Z" transform="translate(-157.215 -155.999)" fill="#ffe177" fill-rule="evenodd"/>
          <path id="Trazado_1298327" data-name="Trazado 1298327" d="M145.339,275.6a1.74,1.74,0,1,0,0,3.48H171.3a1.74,1.74,0,1,0,0-3.48Z" transform="translate(-143.599 -259.933)" fill="#ffd064" fill-rule="evenodd"/>
          <path id="Trazado_1298328" data-name="Trazado 1298328" d="M144.7,279.252a1.746,1.746,0,0,0,1.6,1.048h25.965a1.739,1.739,0,0,0,.777-3.3,1.725,1.725,0,0,1,.145.692,1.745,1.745,0,0,1-1.74,1.74H145.48A1.724,1.724,0,0,1,144.7,279.252Z" transform="translate(-144.558 -261.155)" fill="#ffc338" fill-rule="evenodd"/>
        </g>
      </g>
      <path id="Trazado_1298329" data-name="Trazado 1298329" d="M53.466,45.484H27.5a.692.692,0,0,1,0-1.384H53.466a.692.692,0,0,1,0,1.384ZM35.713,31.461l.7,5.432a1.049,1.049,0,0,0,1.038.912,1.017,1.017,0,0,0,.136-.009,1.048,1.048,0,0,0,.9-1.174l-.866-6.67a.756.756,0,0,1,.151-.637,4.595,4.595,0,0,1,5.4,0,.756.756,0,0,1,.151.637l-.866,6.67a1.048,1.048,0,0,0,2.079.27l.7-5.433A11.588,11.588,0,0,1,52.1,42h-4V35.857a1.048,1.048,0,0,0-2.1,0V42H34.96V35.857a1.048,1.048,0,0,0-2.1,0V42h-4a11.587,11.587,0,0,1,6.852-10.543Zm9.68-2.208a2.748,2.748,0,0,0-.588-1.266c-.781-.953-2.211-1.507-4.251-1.646a1.067,1.067,0,0,0-.142,0c-2.041.139-3.471.693-4.251,1.646a2.746,2.746,0,0,0-.588,1.266,13.675,13.675,0,0,0-8.807,12.809V42.1A2.788,2.788,0,0,0,27.5,47.58H53.466A2.788,2.788,0,0,0,54.2,42.1v-.041a13.675,13.675,0,0,0-8.808-12.809ZM70.87,44.02V36.95L66.333,35.2a1.047,1.047,0,0,1-.642-.735,25.739,25.739,0,0,0-3.13-7.551,1.045,1.045,0,0,1-.066-.975L64.469,21.5l-5-5-4.448,1.975a1.047,1.047,0,0,1-.975-.065A25.75,25.75,0,0,0,46.5,15.279a1.05,1.05,0,0,1-.736-.643L44.018,10.1h-7.07L35.2,14.635a1.049,1.049,0,0,1-.736.643,25.75,25.75,0,0,0-7.549,3.129,1.047,1.047,0,0,1-.975.065L21.495,16.5l-5,5,1.975,4.447a1.05,1.05,0,0,1-.065.975,25.758,25.758,0,0,0-3.131,7.55,1.046,1.046,0,0,1-.643.735L10.1,36.95v7.07l4.537,1.747a1.052,1.052,0,0,1,.643.735A25.742,25.742,0,0,0,18.4,54.052a1.047,1.047,0,0,1,.065.975L16.5,59.473l5,5L25.942,62.5a1.05,1.05,0,0,1,.975.065,25.768,25.768,0,0,0,7.549,3.131,1.046,1.046,0,0,1,.736.642l1.746,4.538h7.07l1.746-4.537a1.052,1.052,0,0,1,.735-.643,25.7,25.7,0,0,0,7.551-3.129,1.047,1.047,0,0,1,.975-.065l4.447,1.974,5-5-1.975-4.448a1.049,1.049,0,0,1,.066-.975A25.755,25.755,0,0,0,65.69,46.5a1.048,1.048,0,0,1,.642-.736Zm1.423-8.767-4.7-1.809a27.835,27.835,0,0,0-2.964-7.149l2.044-4.6a1.047,1.047,0,0,0-.216-1.166l-6.016-6.016a1.049,1.049,0,0,0-1.167-.217L54.67,16.337a27.823,27.823,0,0,0-7.146-2.964l-1.809-4.7A1.049,1.049,0,0,0,44.737,8H36.229a1.048,1.048,0,0,0-.978.671l-1.809,4.7a27.819,27.819,0,0,0-7.147,2.964l-4.607-2.046a1.049,1.049,0,0,0-1.167.217l-6.016,6.016a1.047,1.047,0,0,0-.216,1.166L16.334,26.3a27.827,27.827,0,0,0-2.963,7.148l-4.7,1.809A1.048,1.048,0,0,0,8,36.231v8.508a1.048,1.048,0,0,0,.671.978l4.7,1.809a27.8,27.8,0,0,0,2.964,7.149l-2.045,4.6a1.048,1.048,0,0,0,.216,1.167l6.016,6.016a1.049,1.049,0,0,0,1.167.216l4.607-2.046A27.821,27.821,0,0,0,33.441,67.6l1.809,4.7a1.048,1.048,0,0,0,.978.671h8.508a1.049,1.049,0,0,0,.978-.671l1.809-4.7a27.809,27.809,0,0,0,7.148-2.964l4.6,2.045a1.048,1.048,0,0,0,1.167-.216l6.016-6.017a1.045,1.045,0,0,0,.216-1.166L64.63,54.673a27.821,27.821,0,0,0,2.964-7.147l4.7-1.809a1.049,1.049,0,0,0,.672-.978V36.231A1.047,1.047,0,0,0,72.294,35.253ZM40.483,58.125a17.64,17.64,0,1,0-17.64-17.64A17.66,17.66,0,0,0,40.483,58.125Zm0-37.376A19.736,19.736,0,1,0,60.219,40.485,19.758,19.758,0,0,0,40.483,20.749Z" transform="translate(0 0)" fill-rule="evenodd"/>
    </g>
  </g>
</svg>
