<svg xmlns="http://www.w3.org/2000/svg" xmlns:xlink="http://www.w3.org/1999/xlink" width="113" height="113" viewBox="0 0 113 113">
  <defs>
    <filter id="Trazado_982547" x="0" y="0" width="113" height="113" filterUnits="userSpaceOnUse">
      <feOffset dy="3" input="SourceAlpha"/>
      <feGaussianBlur stdDeviation="3" result="blur"/>
      <feFlood flood-opacity="0.161"/>
      <feComposite operator="in" in2="blur"/>
      <feComposite in="SourceGraphic"/>
    </filter>
  </defs>
  <g id="Grupo_1242097" data-name="Grupo 1242097" transform="translate(-5655 -3960.39)">
    <g id="Grupo_1241234" data-name="Grupo 1241234" transform="translate(5664 3966.39)">
      <g id="Grupo_1241232" data-name="Grupo 1241232">
        <g id="Grupo_1240425" data-name="Grupo 1240425" transform="translate(0 0)">
          <g id="Grupo_1239772" data-name="Grupo 1239772">
            <g id="Grupo_1236602" data-name="Grupo 1236602">
              <g id="Grupo_1236144" data-name="Grupo 1236144">
                <g id="Grupo_1235105" data-name="Grupo 1235105">
                  <g id="Grupo_1223793" data-name="Grupo 1223793">
                    <g id="Grupo_1208028" data-name="Grupo 1208028">
                      <g id="Grupo_1177675" data-name="Grupo 1177675">
                        <g id="Grupo_1176928" data-name="Grupo 1176928">
                          <g id="Grupo_1172322" data-name="Grupo 1172322">
                            <g id="Grupo_1164700" data-name="Grupo 1164700">
                              <g id="Grupo_1160931" data-name="Grupo 1160931">
                                <g id="Grupo_1160749" data-name="Grupo 1160749">
                                  <g id="Grupo_1158891" data-name="Grupo 1158891">
                                    <g id="Grupo_1157406" data-name="Grupo 1157406">
                                      <g id="Grupo_1155793" data-name="Grupo 1155793">
                                        <g id="Grupo_1154704" data-name="Grupo 1154704">
                                          <g id="Grupo_1150790" data-name="Grupo 1150790">
                                            <g id="Grupo_1154214" data-name="Grupo 1154214">
                                              <g id="Grupo_1152583" data-name="Grupo 1152583">
                                                <g id="Grupo_1146973" data-name="Grupo 1146973">
                                                  <g id="Grupo_1146954" data-name="Grupo 1146954">
                                                    <g transform="matrix(1, 0, 0, 1, -9, -6)" filter="url(#Trazado_982547)">
                                                      <g id="Trazado_982547-2" data-name="Trazado 982547" transform="translate(9 6)" fill="#ffe1b9">
                                                        <path d="M 47.50000762939453 93.49986267089844 C 41.28937911987305 93.49986267089844 35.26534271240234 92.28383636474609 29.59519386291504 89.88558197021484 C 24.11772727966309 87.56880950927734 19.19814109802246 84.25183868408203 14.97310066223145 80.02679443359375 C 10.74804782867432 75.8017578125 7.431074142456055 70.88218688964844 5.114300727844238 65.40471649169922 C 2.716034412384033 59.73458480834961 1.500007629394531 53.71054458618164 1.500007629394531 47.49993133544922 C 1.500007629394531 41.2893180847168 2.716034412384033 35.26527786254883 5.114300727844238 29.59514427185059 C 7.431074142456055 24.11767768859863 10.74804782867432 19.19810485839844 14.97310066223145 14.97306442260742 C 19.19814109802246 10.74802494049072 24.11772727966309 7.431051254272461 29.59519386291504 5.114277839660645 C 35.26534271240234 2.71602463722229 41.28937911987305 1.499997973442078 47.50000762939453 1.499997973442078 C 53.71063613891602 1.499997973442078 59.73467254638672 2.71602463722229 65.40482330322266 5.114277839660645 C 70.88228607177734 7.431051254272461 75.80187225341797 10.74802494049072 80.02691650390625 14.97306442260742 C 84.25196838378906 19.19810485839844 87.56893920898438 24.11767768859863 89.88571166992188 29.59514427185059 C 92.28398132324219 35.26527786254883 93.50000762939453 41.2893180847168 93.50000762939453 47.49993133544922 C 93.50000762939453 53.71054458618164 92.28398132324219 59.73458480834961 89.88571166992188 65.40471649169922 C 87.56893920898438 70.88218688964844 84.25196838378906 75.8017578125 80.02691650390625 80.02679443359375 C 75.80187225341797 84.25183868408203 70.88228607177734 87.56880950927734 65.40482330322266 89.88558197021484 C 59.73467254638672 92.28383636474609 53.71063613891602 93.49986267089844 47.50000762939453 93.49986267089844 Z" stroke="none"/>
                                                        <path d="M 47.50000762939453 2.999992370605469 C 41.4912223815918 2.999992370605469 35.66377639770508 4.1761474609375 30.17951202392578 6.495796203613281 C 24.88085174560547 8.736930847167969 20.12152862548828 11.94596099853516 16.03376007080078 16.03372955322266 C 11.94597625732422 20.12148284912109 8.736961364746094 24.88080596923828 6.495803833007812 30.17946624755859 C 4.176162719726562 35.66371536254883 3.000007629394531 41.49116134643555 3.000007629394531 47.49993133544922 C 3.000007629394531 53.50870132446289 4.176162719726562 59.33614730834961 6.495803833007812 64.82038879394531 C 8.736961364746094 70.11905670166016 11.94597625732422 74.87836456298828 16.03376007080078 78.96613311767578 C 20.12152862548828 83.05390167236328 24.88085174560547 86.26291656494141 30.17951202392578 88.50406646728516 C 35.66377639770508 90.82369995117188 41.4912223815918 91.99985504150391 47.50000762939453 91.99985504150391 C 53.50879287719727 91.99985504150391 59.33623886108398 90.82369995117188 64.82049560546875 88.50406646728516 C 70.11916351318359 86.26291656494141 74.87848663330078 83.05390167236328 78.96625518798828 78.96613311767578 C 83.05403900146484 74.87836456298828 86.26305389404297 70.11905670166016 88.50421142578125 64.82038879394531 C 90.8238525390625 59.33614730834961 92.00000762939453 53.50870132446289 92.00000762939453 47.49993133544922 C 92.00000762939453 41.49116134643555 90.8238525390625 35.66371536254883 88.50421142578125 30.17946624755859 C 86.26305389404297 24.88080596923828 83.05403900146484 20.12148284912109 78.96625518798828 16.03372955322266 C 74.87848663330078 11.94596099853516 70.11916351318359 8.736930847167969 64.82049560546875 6.495796203613281 C 59.33623886108398 4.1761474609375 53.50879287719727 2.999992370605469 47.50000762939453 2.999992370605469 M 47.50000762939453 -7.62939453125e-06 C 73.73352813720703 -7.62939453125e-06 95.00000762939453 21.26644134521484 95.00000762939453 47.49993133544922 C 95.00000762939453 73.73342132568359 73.73352813720703 94.99985504150391 47.50000762939453 94.99985504150391 C 21.26648712158203 94.99985504150391 7.62939453125e-06 73.73342132568359 7.62939453125e-06 47.49993133544922 C 7.62939453125e-06 21.26644134521484 21.26648712158203 -7.62939453125e-06 47.50000762939453 -7.62939453125e-06 Z" stroke="none" fill="#ff9d1c"/>
                                                      </g>
                                                    </g>
                                                  </g>
                                                </g>
                                              </g>
                                            </g>
                                          </g>
                                        </g>
                                      </g>
                                    </g>
                                  </g>
                                </g>
                              </g>
                            </g>
                          </g>
                        </g>
                      </g>
                    </g>
                  </g>
                </g>
              </g>
            </g>
          </g>
        </g>
      </g>
    </g>
    <g id="maquinaria" transform="translate(5681.803 3984.193)">
      <path id="Trazado_1298330" data-name="Trazado 1298330" d="M227.96,33.98A1.98,1.98,0,1,1,225.98,32,1.98,1.98,0,0,1,227.96,33.98Zm0,0" transform="translate(-196.283 -28.04)" fill="#495867"/>
      <path id="Trazado_1298331" data-name="Trazado 1298331" d="M224,88h3.96v3.96H224Zm0,0" transform="translate(-196.283 -77.111)" fill="#bdd5ea"/>
      <path id="Trazado_1298332" data-name="Trazado 1298332" d="M400,360h5.939v5.939H400Zm0,0" transform="translate(-350.505 -315.455)" fill="#495867"/>
      <path id="Trazado_1298333" data-name="Trazado 1298333" d="M32,360h5.939v5.939H32Zm0,0" transform="translate(-28.04 -315.455)" fill="#495867"/>
      <path id="Trazado_1298334" data-name="Trazado 1298334" d="M105.737,120H93.858v1.98l-8.909,1.98L80,134.848l4.949,7.919v-7.919l1.98-5.939,6.929-2.97h11.879l6.929,3.96,1.98,4.949v7.919l4.949-7.919-4.949-10.889-8.909-1.98Zm0,0" transform="translate(-70.101 -105.152)" fill="#577399"/>
      <path id="Trazado_1298335" data-name="Trazado 1298335" d="M192,120h11.879v5.939H192Zm0,0" transform="translate(-168.243 -105.152)" fill="#495867"/>
      <path id="Trazado_1298336" data-name="Trazado 1298336" d="M173.778,212.869v-3.96h-3.229a7.89,7.89,0,0,0-.843-2.037l2.282-2.282-2.8-2.8-2.282,2.282a7.875,7.875,0,0,0-2.037-.843V200h-3.96v3.229a7.889,7.889,0,0,0-2.037.843l-2.282-2.282-2.8,2.8,2.282,2.282a7.876,7.876,0,0,0-.843,2.037H152v3.96h3.229a7.89,7.89,0,0,0,.843,2.037l-2.282,2.282,2.8,2.8,2.282-2.282a7.876,7.876,0,0,0,2.037.843v3.229h3.96v-3.229a7.889,7.889,0,0,0,2.037-.843l2.282,2.282,2.8-2.8-2.282-2.282a7.876,7.876,0,0,0,.843-2.037Zm-10.889,1.98a3.96,3.96,0,1,1,3.96-3.96A3.96,3.96,0,0,1,162.889,214.848Zm0,0" transform="translate(-133.192 -175.253)" fill="#fe5f55"/>
      <path id="Trazado_1298337" data-name="Trazado 1298337" d="M61.454,415.919H11.96a3.96,3.96,0,1,1,0-7.919H61.454a3.96,3.96,0,0,1,0,7.919Zm0,0" transform="translate(-7.01 -357.516)" fill="#bdd5ea"/>
      <path id="Trazado_1298338" data-name="Trazado 1298338" d="M204.949,257.9A4.949,4.949,0,1,0,200,252.949,4.955,4.955,0,0,0,204.949,257.9Zm0-7.919a2.97,2.97,0,1,1-2.97,2.97A2.974,2.974,0,0,1,204.949,249.98Zm0,0" transform="translate(-175.253 -217.313)"/>
      <path id="Trazado_1298339" data-name="Trazado 1298339" d="M144.99,200.909a.99.99,0,0,0-.99.99v3.96a.99.99,0,0,0,.99.99h2.5a9.114,9.114,0,0,0,.358.864l-1.766,1.766a.989.989,0,0,0,0,1.4l2.8,2.8a.988.988,0,0,0,1.4,0l1.766-1.765a9,9,0,0,0,.864.357v2.5a.99.99,0,0,0,.99.99h3.96a.99.99,0,0,0,.99-.99v-2.5a9,9,0,0,0,.864-.357l1.766,1.765a.989.989,0,0,0,1.4,0l2.8-2.8a.989.989,0,0,0,0-1.4l-1.766-1.766a8.753,8.753,0,0,0,.359-.864h2.5a.99.99,0,0,0,.99-.99V201.9a.99.99,0,0,0-.99-.99h-2.5a9.109,9.109,0,0,0-.358-.864l1.766-1.766a.989.989,0,0,0,0-1.4l-2.8-2.8a.988.988,0,0,0-1.4,0l-1.766,1.765a8.995,8.995,0,0,0-.864-.357v-2.5a.99.99,0,0,0-.99-.99H153.9a.99.99,0,0,0-.99.99v2.5a8.995,8.995,0,0,0-.864.357l-1.766-1.765a.989.989,0,0,0-1.4,0l-2.8,2.8a.989.989,0,0,0,0,1.4l1.766,1.766a8.751,8.751,0,0,0-.359.864Zm4.772-1.747-1.583-1.582,1.4-1.4,1.584,1.582a.986.986,0,0,0,1.2.153,6.885,6.885,0,0,1,1.781-.737.99.99,0,0,0,.742-.958V193.98h1.98v2.239a.99.99,0,0,0,.742.958,6.885,6.885,0,0,1,1.781.737.99.99,0,0,0,1.2-.153l1.584-1.582,1.4,1.4L162,199.162a.99.99,0,0,0-.153,1.2,6.89,6.89,0,0,1,.739,1.782.99.99,0,0,0,.958.742h2.238v1.98h-2.239a.989.989,0,0,0-.958.742,6.89,6.89,0,0,1-.739,1.782.991.991,0,0,0,.153,1.2l1.583,1.582-1.4,1.4L160.595,210a.99.99,0,0,0-1.2-.153,6.892,6.892,0,0,1-1.781.737.99.99,0,0,0-.741.958v2.239h-1.98v-2.239a.99.99,0,0,0-.742-.958,6.885,6.885,0,0,1-1.781-.737.99.99,0,0,0-1.2.153l-1.584,1.582-1.4-1.4,1.583-1.582a.99.99,0,0,0,.153-1.2,6.89,6.89,0,0,1-.739-1.782.988.988,0,0,0-.957-.742H145.98v-1.98h2.239a.989.989,0,0,0,.958-.742,6.89,6.89,0,0,1,.739-1.782A.991.991,0,0,0,149.762,199.162Zm0,0" transform="translate(-126.182 -168.243)"/>
      <path id="Trazado_1298340" data-name="Trazado 1298340" d="M0,1.98H28.707V3.152a2.952,2.952,0,0,0,0,5.575V9.9h-.99a.99.99,0,0,0-.99.99v2.97h-2.97a.99.99,0,0,0-.99.99v1.186l-8.134,1.807a.988.988,0,0,0-.686.556L9,29.287a.991.991,0,0,0,.061.933l4.949,7.919a.99.99,0,0,0,1.829-.523V29.857l1.789-5.365,6.333-2.714H35.373l6.4,3.657,1.781,4.452v7.729a.99.99,0,0,0,1.829.524l4.949-7.919a.988.988,0,0,0,.061-.933L45.446,18.4a.988.988,0,0,0-.686-.556l-8.134-1.808V14.848a.99.99,0,0,0-.99-.99h-2.97v-2.97a.99.99,0,0,0-.99-.99h-.99V8.727a2.952,2.952,0,0,0,0-5.575V1.98H59.393V0H0ZM16.438,22.848a.987.987,0,0,0-.55.6l-1.98,5.939a1.028,1.028,0,0,0-.05.313v4.468L11.02,29.622l4.525-9.955,7.222-1.6v2.073Zm27.41-3.18,4.525,9.955-2.838,4.542V29.7a1,1,0,0,0-.07-.368l-1.98-4.949a.993.993,0,0,0-.429-.492l-6.43-3.673V18.063Zm-9.2-2.839V19.8h-9.9v-3.96h9.9Zm-5.939-2.97v-1.98h1.98v1.98Zm.99-6.929a.99.99,0,1,1,.99-.99A.991.991,0,0,1,29.7,6.929Zm0,0"/>
      <path id="Trazado_1298341" data-name="Trazado 1298341" d="M56.424,358.359V352.99a.99.99,0,0,0-.99-.99H49.495a.99.99,0,0,0-.99.99v4.949H10.889V352.99A.99.99,0,0,0,9.9,352H3.96a.99.99,0,0,0-.99.99v5.369a4.946,4.946,0,0,0,1.98,9.479H54.444a4.946,4.946,0,0,0,1.98-9.479Zm-5.939-4.379h3.96v3.96h-3.96Zm-45.535,0h3.96v3.96H4.949Zm49.495,11.879H4.949a2.97,2.97,0,1,1,0-5.939H54.444a2.97,2.97,0,1,1,0,5.939Zm0,0" transform="translate(0 -308.445)"/>
      <path id="Trazado_1298342" data-name="Trazado 1298342" d="M40,432h1.98v1.98H40Zm0,0" transform="translate(-35.051 -378.546)"/>
      <path id="Trazado_1298343" data-name="Trazado 1298343" d="M88,432h1.98v1.98H88Zm0,0" transform="translate(-77.111 -378.546)"/>
      <path id="Trazado_1298344" data-name="Trazado 1298344" d="M136,432h1.98v1.98H136Zm0,0" transform="translate(-119.172 -378.546)"/>
      <path id="Trazado_1298345" data-name="Trazado 1298345" d="M184,432h1.98v1.98H184Zm0,0" transform="translate(-161.233 -378.546)"/>
      <path id="Trazado_1298346" data-name="Trazado 1298346" d="M232,432h1.98v1.98H232Zm0,0" transform="translate(-203.293 -378.546)"/>
      <path id="Trazado_1298347" data-name="Trazado 1298347" d="M280,432h1.98v1.98H280Zm0,0" transform="translate(-245.354 -378.546)"/>
      <path id="Trazado_1298348" data-name="Trazado 1298348" d="M328,432h1.98v1.98H328Zm0,0" transform="translate(-287.414 -378.546)"/>
      <path id="Trazado_1298349" data-name="Trazado 1298349" d="M376,432h1.98v1.98H376Zm0,0" transform="translate(-329.475 -378.546)"/>
      <path id="Trazado_1298350" data-name="Trazado 1298350" d="M424,432h1.98v1.98H424Zm0,0" transform="translate(-371.536 -378.546)"/>
      <path id="Trazado_1298351" data-name="Trazado 1298351" d="M32,32H52.788v1.98H32Zm0,0" transform="translate(-28.04 -28.04)"/>
      <path id="Trazado_1298352" data-name="Trazado 1298352" d="M0,32H1.98v1.98H0Zm0,0" transform="translate(0 -28.04)"/>
      <path id="Trazado_1298353" data-name="Trazado 1298353" d="M464,32h1.98v1.98H464Zm0,0" transform="translate(-406.586 -28.04)"/>
      <path id="Trazado_1298354" data-name="Trazado 1298354" d="M280,32h20.788v1.98H280Zm0,0" transform="translate(-245.354 -28.04)"/>
    </g>
  </g>
</svg>
