<svg xmlns="http://www.w3.org/2000/svg" xmlns:xlink="http://www.w3.org/1999/xlink" width="108" height="108" viewBox="0 0 108 108">
  <defs>
    <filter id="Trazado_904820" x="0" y="0" width="108" height="108" filterUnits="userSpaceOnUse">
      <feOffset dy="3" input="SourceAlpha"/>
      <feGaussianBlur stdDeviation="3" result="blur"/>
      <feFlood flood-opacity="0.161"/>
      <feComposite operator="in" in2="blur"/>
      <feComposite in="SourceGraphic"/>
    </filter>
  </defs>
  <g id="Grupo_1242175" data-name="Grupo 1242175" transform="translate(-197 -5848)">
    <g id="Grupo_1241238" data-name="Grupo 1241238" transform="translate(206 5854)">
      <g id="Grupo_1235053" data-name="Grupo 1235053" transform="translate(0 0)">
        <g id="Grupo_1233818" data-name="Grupo 1233818">
          <g id="Grupo_1228307" data-name="Grupo 1228307">
            <g id="Grupo_1228100" data-name="Grupo 1228100">
              <g id="Grupo_1221597" data-name="Grupo 1221597">
                <g id="Grupo_1219744" data-name="Grupo 1219744">
                  <g id="Grupo_1202418" data-name="Grupo 1202418">
                    <g id="Grupo_1177315" data-name="Grupo 1177315">
                      <g id="Grupo_1173585" data-name="Grupo 1173585">
                        <g id="Grupo_1173428" data-name="Grupo 1173428">
                          <g id="Grupo_1171958" data-name="Grupo 1171958">
                            <g id="Grupo_1167341" data-name="Grupo 1167341">
                              <g id="Grupo_1166792" data-name="Grupo 1166792">
                                <g transform="matrix(1, 0, 0, 1, -9, -6)" filter="url(#Trazado_904820)">
                                  <g id="Trazado_904820-2" data-name="Trazado 904820" transform="translate(9 6)" fill="#e9f9fd">
                                    <path d="M 44.99999618530273 88.5 C 39.12687301635742 88.5 33.43022155761719 87.35007476806641 28.06829643249512 85.08216857910156 C 22.88852119445801 82.89131164550781 18.23629570007324 79.75458526611328 14.24084663391113 75.75914764404297 C 10.24540901184082 71.76369476318359 7.108683586120605 67.11147308349609 4.917821407318115 61.93169784545898 C 2.649921178817749 56.56977081298828 1.499996185302734 50.87311935424805 1.499996185302734 44.99999618530273 C 1.499996185302734 39.12687301635742 2.649921178817749 33.43022155761719 4.917821407318115 28.06829643249512 C 7.108683586120605 22.88852119445801 10.24540901184082 18.23629570007324 14.24084663391113 14.24084663391113 C 18.23629570007324 10.24540901184082 22.88852119445801 7.108683586120605 28.06829643249512 4.917821407318115 C 33.43022155761719 2.649921178817749 39.12687301635742 1.499996185302734 44.99999618530273 1.499996185302734 C 50.87311935424805 1.499996185302734 56.56977081298828 2.649921178817749 61.93169784545898 4.917821407318115 C 67.11147308349609 7.108683586120605 71.76369476318359 10.24540901184082 75.75914764404297 14.24084663391113 C 79.75458526611328 18.23629570007324 82.89131164550781 22.88852119445801 85.08216857910156 28.06829643249512 C 87.35007476806641 33.43022155761719 88.5 39.12687301635742 88.5 44.99999618530273 C 88.5 50.87311935424805 87.35007476806641 56.56977081298828 85.08216857910156 61.93169784545898 C 82.89131164550781 67.11147308349609 79.75458526611328 71.76369476318359 75.75914764404297 75.75914764404297 C 71.76369476318359 79.75458526611328 67.11147308349609 82.89131164550781 61.93169784545898 85.08216857910156 C 56.56977081298828 87.35007476806641 50.87311935424805 88.5 44.99999618530273 88.5 Z" stroke="none"/>
                                    <path d="M 44.99999618530273 2.999992370605469 C 39.32870864868164 2.999992370605469 33.82865142822266 4.110054016113281 28.65262603759766 6.299339294433594 C 23.65165710449219 8.414566040039062 19.15968322753906 11.44333648681641 15.301513671875 15.301513671875 C 11.44333648681641 19.15968322753906 8.414566040039062 23.65165710449219 6.299339294433594 28.65262603759766 C 4.110054016113281 33.82865142822266 2.999992370605469 39.32870864868164 2.999992370605469 44.99999618530273 C 2.999992370605469 50.67128372192383 4.110054016113281 56.17134094238281 6.299339294433594 61.34736633300781 C 8.414566040039062 66.34834289550781 11.44333648681641 70.84030914306641 15.301513671875 74.69847869873047 C 19.15968322753906 78.55665588378906 23.65165710449219 81.58542633056641 28.65262603759766 83.70065307617188 C 33.82865142822266 85.88993835449219 39.32870864868164 87 44.99999618530273 87 C 50.67128372192383 87 56.17134094238281 85.88993835449219 61.34736633300781 83.70065307617188 C 66.34834289550781 81.58542633056641 70.84030914306641 78.55665588378906 74.69847869873047 74.69847869873047 C 78.55665588378906 70.84030914306641 81.58542633056641 66.34834289550781 83.70065307617188 61.34736633300781 C 85.88993835449219 56.17134094238281 87 50.67128372192383 87 44.99999618530273 C 87 39.32870864868164 85.88993835449219 33.82865142822266 83.70065307617188 28.65262603759766 C 81.58542633056641 23.65165710449219 78.55665588378906 19.15968322753906 74.69847869873047 15.301513671875 C 70.84030914306641 11.44333648681641 66.34834289550781 8.414566040039062 61.34736633300781 6.299339294433594 C 56.17134094238281 4.110054016113281 50.67128372192383 2.999992370605469 44.99999618530273 2.999992370605469 M 44.99999618530273 -7.62939453125e-06 C 69.85281372070312 -7.62939453125e-06 90 20.14717864990234 90 44.99999618530273 C 90 69.85281372070312 69.85281372070312 90 44.99999618530273 90 C 20.14717864990234 90 -7.62939453125e-06 69.85281372070312 -7.62939453125e-06 44.99999618530273 C -7.62939453125e-06 20.14717864990234 20.14717864990234 -7.62939453125e-06 44.99999618530273 -7.62939453125e-06 Z" stroke="none" fill="#1d7083"/>
                                  </g>
                                </g>
                              </g>
                            </g>
                          </g>
                        </g>
                      </g>
                    </g>
                  </g>
                </g>
              </g>
            </g>
          </g>
        </g>
      </g>
    </g>
    <g id="flujo-de-trabajo_3_" data-name="flujo-de-trabajo (3)" transform="translate(206.463 5867.094)">
      <g id="Grupo_1242173" data-name="Grupo 1242173" transform="translate(17.443 0.876)">
        <g id="Grupo_1242171" data-name="Grupo 1242171" transform="translate(17.418)">
          <path id="Trazado_1298622" data-name="Trazado 1298622" d="M228.739,221.439h-4a1.869,1.869,0,0,1-1.869-1.869v-2.7h7.741v2.7A1.869,1.869,0,0,1,228.739,221.439Z" transform="translate(-217.061 -192.41)" fill="#99b4cd"/>
          <path id="Trazado_1298623" data-name="Trazado 1298623" d="M252,216.868v2.7a1.869,1.869,0,0,1-1.869,1.869h2.687a1.869,1.869,0,0,0,1.869-1.869v-2.7Z" transform="translate(-241.143 -192.41)" fill="#7fa4c7"/>
          <path id="Trazado_1298624" data-name="Trazado 1298624" d="M192.52,17.177A9.677,9.677,0,1,0,178,25.552a1.93,1.93,0,0,1,.975,1.665V29.49h7.741V27.233a1.955,1.955,0,0,1,.985-1.686,9.67,9.67,0,0,0,4.821-8.369Z" transform="translate(-173.167 -7.501)" fill="#ffcb5b"/>
          <path id="Trazado_1298625" data-name="Trazado 1298625" d="M245.7,7.5a9.855,9.855,0,0,0-1.164.092,9.677,9.677,0,0,1,3.508,17.952,1.955,1.955,0,0,0-.985,1.686V29.49h2.687V27.233a1.955,1.955,0,0,1,.985-1.686A9.676,9.676,0,0,0,245.7,7.5Z" transform="translate(-236.202 -7.501)" fill="#ffb85b"/>
          <path id="Trazado_1298626" data-name="Trazado 1298626" d="M215.977,193.6a1.935,1.935,0,1,0,0-3.871h-7.741a1.935,1.935,0,0,0,0,3.871Z" transform="translate(-202.429 -168.446)" fill="#ecf0f9"/>
          <path id="Trazado_1298627" data-name="Trazado 1298627" d="M268.821,189.734h-2.687a1.935,1.935,0,1,1,0,3.871h2.687a1.935,1.935,0,0,0,0-3.871Z" transform="translate(-255.274 -168.446)" fill="#d8e4f0"/>
        </g>
        <g id="Grupo_1242172" data-name="Grupo 1242172" transform="translate(0 31.707)">
          <circle id="Elipse_11581" data-name="Elipse 11581" cx="3.871" cy="3.871" r="3.871" transform="translate(22.051 2.965) rotate(-22.514)" fill="#ecf0f9"/>
          <path id="Trazado_1298628" data-name="Trazado 1298628" d="M37.68,431.345H25.936a1.869,1.869,0,0,1-1.869-1.869v-5.938a1.869,1.869,0,0,1,1.869-1.869H37.68a1.869,1.869,0,0,1,1.869,1.869v5.938A1.869,1.869,0,0,1,37.68,431.345Z" transform="translate(-24.067 -404.992)" fill="#ecf0f9"/>
          <path id="Trazado_1298629" data-name="Trazado 1298629" d="M369.014,431.345H357.27a1.869,1.869,0,0,1-1.869-1.869v-5.938a1.869,1.869,0,0,1,1.869-1.869h11.744a1.869,1.869,0,0,1,1.869,1.869v5.938A1.869,1.869,0,0,1,369.014,431.345Z" transform="translate(-316.695 -404.992)" fill="#ecf0f9"/>
        </g>
        <path id="Trazado_1298630" data-name="Trazado 1298630" d="M451.621,421.668h-2.687a1.869,1.869,0,0,1,1.869,1.869v5.938a1.869,1.869,0,0,1-1.869,1.869h2.687a1.869,1.869,0,0,0,1.869-1.869v-5.938A1.869,1.869,0,0,0,451.621,421.668Z" transform="translate(-399.301 -373.285)" fill="#d8e4f0"/>
        <path id="Trazado_1298631" data-name="Trazado 1298631" d="M203.347,431.345H191.6a1.869,1.869,0,0,1-1.869-1.869v-5.938a1.869,1.869,0,0,1,1.869-1.869h11.744a1.869,1.869,0,0,1,1.869,1.869v5.938A1.869,1.869,0,0,1,203.347,431.345Z" transform="translate(-170.381 -373.285)" fill="#ecf0f9"/>
        <path id="Trazado_1298632" data-name="Trazado 1298632" d="M285.954,421.668h-2.687a1.869,1.869,0,0,1,1.869,1.869v5.938a1.869,1.869,0,0,1-1.869,1.869h2.687a1.869,1.869,0,0,0,1.869-1.869v-5.938A1.869,1.869,0,0,0,285.954,421.668Z" transform="translate(-252.987 -373.285)" fill="#d8e4f0"/>
        <path id="Trazado_1298633" data-name="Trazado 1298633" d="M121.289,421.668H118.6a1.869,1.869,0,0,1,1.869,1.869v5.938a1.869,1.869,0,0,1-1.869,1.869h2.687a1.869,1.869,0,0,0,1.869-1.869v-5.938A1.869,1.869,0,0,0,121.289,421.668Z" transform="translate(-107.558 -373.285)" fill="#d8e4f0"/>
        <path id="Trazado_1298634" data-name="Trazado 1298634" d="M245.843,289.134a3.862,3.862,0,0,0-1.343.24,3.872,3.872,0,0,1,0,7.262,3.871,3.871,0,1,0,1.343-7.5Z" transform="translate(-218.749 -256.234)" fill="#d8e4f0"/>
      </g>
      <g id="Grupo_1242174" data-name="Grupo 1242174" transform="translate(16.567 0)">
        <path id="Trazado_1298635" data-name="Trazado 1298635" d="M83.709,117.72H87.58a.876.876,0,1,0,0-1.752H83.709a.876.876,0,0,0,0,1.752Z" transform="translate(-75.092 -102.421)"/>
        <path id="Trazado_1298636" data-name="Trazado 1298636" d="M117.7,215.485l-3.352,1.935a.876.876,0,1,0,.876,1.517L118.572,217a.876.876,0,1,0-.876-1.517Z" transform="translate(-102.535 -190.208)"/>
        <path id="Trazado_1298637" data-name="Trazado 1298637" d="M354.837,217l3.352,1.935a.876.876,0,1,0,.876-1.518l-3.352-1.935a.876.876,0,1,0-.876,1.517Z" transform="translate(-314.933 -190.208)"/>
        <path id="Trazado_1298638" data-name="Trazado 1298638" d="M381.034,116.844a.876.876,0,0,0,.876.876h3.871a.876.876,0,1,0,0-1.752H381.91A.876.876,0,0,0,381.034,116.844Z" transform="translate(-338.457 -102.421)"/>
        <path id="Trazado_1298639" data-name="Trazado 1298639" d="M355.276,3.688a.872.872,0,0,0,.437-.118l3.352-1.935a.876.876,0,1,0-.876-1.517l-3.352,1.935a.876.876,0,0,0,.439,1.635Z" transform="translate(-314.934 -0.001)"/>
        <path id="Trazado_1298640" data-name="Trazado 1298640" d="M114.344,1.635,117.7,3.57a.876.876,0,0,0,.876-1.517L115.22.118a.876.876,0,1,0-.876,1.517Z" transform="translate(-102.534 0)"/>
        <path id="Trazado_1298641" data-name="Trazado 1298641" d="M69.763,48.384h-5V45.39a.876.876,0,0,0-.876-.876H45.414v-2.2a4.746,4.746,0,0,0,0-9.329v-2.2h1.125a2.748,2.748,0,0,0,2.745-2.745V26.773a2.811,2.811,0,0,0,0-5.342V20.61a1.085,1.085,0,0,1,.55-.928,10.593,10.593,0,0,0,5.256-9.127,10.484,10.484,0,0,0-1.934-6.091.876.876,0,1,0-1.43,1.013,8.741,8.741,0,0,1,1.612,5.078,8.835,8.835,0,0,1-4.385,7.612,2.843,2.843,0,0,0-1.421,2.444v.68H45.414V15.3h1.059a.876.876,0,0,0,0-1.752H42.6a.876.876,0,0,0,0,1.752h1.059V21.29H41.543v-.7a2.818,2.818,0,0,0-1.412-2.423,8.834,8.834,0,0,1-4.394-7.617A8.8,8.8,0,0,1,49.4,3.22a.876.876,0,0,0,.97-1.459,10.553,10.553,0,1,0-11.12,17.927,1.061,1.061,0,0,1,.539.908v.836a2.811,2.811,0,0,0,0,5.342v1.266a2.748,2.748,0,0,0,2.745,2.745h1.125v2.2a4.746,4.746,0,0,0,0,9.329v2.2H25.184a.876.876,0,0,0-.876.876v2.995h-5a2.748,2.748,0,0,0-2.745,2.745v5.938a2.748,2.748,0,0,0,2.745,2.745h3.937a.876.876,0,1,0,0-1.752H19.312a.994.994,0,0,1-.993-.993V51.13a.994.994,0,0,1,.993-.993H31.056a.994.994,0,0,1,.993.993v5.938a.994.994,0,0,1-.993.993h-4.3a.876.876,0,1,0,0,1.752h4.3A2.748,2.748,0,0,0,33.8,57.068V51.13a2.748,2.748,0,0,0-2.745-2.745h-5V46.266h17.6v2.118h-5A2.748,2.748,0,0,0,35.92,51.13v5.938a2.748,2.748,0,0,0,2.745,2.745H50.41a2.748,2.748,0,0,0,2.745-2.745V51.13a2.748,2.748,0,0,0-2.745-2.745h-5V46.266h17.6v2.118h-5a2.748,2.748,0,0,0-2.745,2.745v5.938a2.748,2.748,0,0,0,2.745,2.745H69.763a2.748,2.748,0,0,0,2.745-2.745V51.13A2.748,2.748,0,0,0,69.763,48.384Zm-29.1-25.342h7.741a1.059,1.059,0,1,1,0,2.118H40.667a1.059,1.059,0,1,1,0-2.118Zm.876,5V26.913h5.989v1.125a.994.994,0,0,1-.993.993h-4a.994.994,0,0,1-.993-.993Zm0,9.61a2.994,2.994,0,1,1,2.994,2.994A3,3,0,0,1,41.543,37.649ZM51.4,51.13v5.938a.994.994,0,0,1-.993.993H38.665a.994.994,0,0,1-.993-.993V51.13a.994.994,0,0,1,.993-.993H50.41A.994.994,0,0,1,51.4,51.13Zm19.353,5.938a.994.994,0,0,1-.993.993H58.019a.994.994,0,0,1-.993-.993V51.13a.994.994,0,0,1,.993-.993H69.763a.994.994,0,0,1,.993.993Z" transform="translate(-16.567 -0.002)"/>
      </g>
    </g>
  </g>
</svg>
