<svg xmlns="http://www.w3.org/2000/svg" xmlns:xlink="http://www.w3.org/1999/xlink" width="295" height="375" viewBox="0 0 295 375">
  <defs>
    <clipPath id="clip-path">
      <rect id="Rectángulo_422961" data-name="Rectángulo 422961" width="295" height="375" transform="translate(180 1399)" fill="#fff" stroke="#707070" stroke-width="1"/>
    </clipPath>
    <filter id="Trazado_1295152" x="42.33" y="101.603" width="206.08" height="255.366" filterUnits="userSpaceOnUse">
      <feOffset dy="3" input="SourceAlpha"/>
      <feGaussianBlur stdDeviation="3" result="blur"/>
      <feFlood flood-opacity="0.161"/>
      <feComposite operator="in" in2="blur"/>
      <feComposite in="SourceGraphic"/>
    </filter>
  </defs>
  <g id="Grupo_1235193" data-name="Grupo 1235193" transform="translate(-180 -1399)">
    <rect id="Rectángulo_422981" data-name="Rectángulo 422981" width="237" height="356" rx="11" transform="translate(209 1418)" fill="#ff9d1c"/>
    <g id="Enmascarar_grupo_1211519" data-name="Enmascarar grupo 1211519" clip-path="url(#clip-path)">
      <g id="Grupo_1235192" data-name="Grupo 1235192" transform="translate(1320.415 -89.218)">
        <g id="Grupo_1235174" data-name="Grupo 1235174" transform="translate(-1089.085 1595.82)">
          <g transform="matrix(1, 0, 0, 1, -51.33, -107.6)" filter="url(#Trazado_1295152)">
            <path id="Trazado_1295152-2" data-name="Trazado 1295152" d="M74.207,112.491H247.784a7.272,7.272,0,0,1,7.251,7.251V342.605a7.273,7.273,0,0,1-7.251,7.252H74.207a7.273,7.273,0,0,1-7.252-7.252V119.743A7.273,7.273,0,0,1,74.207,112.491Z" transform="translate(-15.62 -4.89)" fill="#fff" fill-rule="evenodd"/>
          </g>
          <g id="Grupo_1235172" data-name="Grupo 1235172" transform="translate(12.581 100.379)">
            <circle id="Elipse_11555" data-name="Elipse 11555" cx="49.268" cy="49.268" r="49.268" transform="translate(20 91.037) rotate(-67.5)" fill="#dfd8d6"/>
            <path id="Trazado_1295153" data-name="Trazado 1295153" d="M162.9,228.325V274.9l-36.338,29.131A46.574,46.574,0,0,1,162.9,228.325Z" transform="translate(-78.538 -210.529)" fill="#6da5fb" fill-rule="evenodd"/>
            <path id="Trazado_1295154" data-name="Trazado 1295154" d="M202.842,252.534,161.981,274.9V228.325h0A46.564,46.564,0,0,1,202.842,252.534Z" transform="translate(-77.616 -210.529)" fill="#80c16b" fill-rule="evenodd"/>
            <path id="Trazado_1295155" data-name="Trazado 1295155" d="M126.363,303.109,162.7,273.978,135.114,311.5A46.8,46.8,0,0,1,126.363,303.109Z" transform="translate(-78.336 -209.606)" fill="#aedb9c" fill-rule="evenodd"/>
            <path id="Trazado_1295156" data-name="Trazado 1295156" d="M162.527,274.421l40.861-22.367a46.579,46.579,0,0,1-68.448,59.893Z" transform="translate(-78.162 -210.049)" fill="#f4da6a" fill-rule="evenodd"/>
            <circle id="Elipse_11556" data-name="Elipse 11556" cx="2.055" cy="2.055" r="2.055" transform="translate(97.181 38.418)" fill="#9d948f"/>
            <rect id="Rectángulo_422963" data-name="Rectángulo 422963" width="40.069" height="2.42" transform="translate(117.224 13.67)" fill="#9d948f"/>
            <path id="Trazado_1295157" data-name="Trazado 1295157" d="M177.1,251.412a.667.667,0,1,1-1.056-.815l17.246-22.4H235.1a.669.669,0,0,1,0,1.339H193.942Z" transform="translate(-77.334 -210.531)" fill="#9d948f" fill-rule="evenodd"/>
            <path id="Trazado_1295158" data-name="Trazado 1295158" d="M178.488,294.037a.668.668,0,0,1,1.024-.857l18.848,22.491h41.174a.669.669,0,1,1,0,1.339h-41.8Z" transform="translate(-77.285 -209.223)" fill="#9d948f" fill-rule="evenodd"/>
            <path id="Trazado_1295159" data-name="Trazado 1295159" d="M142.83,258.663a.668.668,0,1,1-.9.989l-20.746-18.9H79.956a.669.669,0,0,1,0-1.339H121.7Z" transform="translate(-79.287 -210.304)" fill="#9d948f" fill-rule="evenodd"/>
            <path id="Trazado_1295160" data-name="Trazado 1295160" d="M142.889,293.179a.668.668,0,0,1,1.025.857l-19.251,22.971h-41.8a.669.669,0,0,1,0-1.339H124.04Z" transform="translate(-79.228 -209.223)" fill="#9d948f" fill-rule="evenodd"/>
            <path id="Trazado_1295161" data-name="Trazado 1295161" d="M179.028,295.689a2.055,2.055,0,1,0-2.055-2.055A2.059,2.059,0,0,0,179.028,295.689Z" transform="translate(-77.313 -209.25)" fill="#9d948f" fill-rule="evenodd"/>
            <path id="Trazado_1295162" data-name="Trazado 1295162" d="M142.23,295.689a2.055,2.055,0,1,0-2.055-2.055A2.059,2.059,0,0,0,142.23,295.689Z" transform="translate(-78.056 -209.25)" fill="#9d948f" fill-rule="evenodd"/>
            <path id="Trazado_1295163" data-name="Trazado 1295163" d="M141.171,260.861a2.055,2.055,0,1,0-2.055-2.055A2.059,2.059,0,0,0,141.171,260.861Z" transform="translate(-78.078 -209.954)" fill="#9d948f" fill-rule="evenodd"/>
            <rect id="Rectángulo_422964" data-name="Rectángulo 422964" width="36.587" height="2.42" transform="translate(123.834 102.423)" fill="#9d948f"/>
            <rect id="Rectángulo_422965" data-name="Rectángulo 422965" width="36.587" height="2.42" transform="translate(6.519 101.596)" fill="#9d948f"/>
            <rect id="Rectángulo_422966" data-name="Rectángulo 422966" width="36.587" height="2.42" transform="translate(2.625 24.882)" fill="#9d948f"/>
          </g>
          <path id="Trazado_1295164" data-name="Trazado 1295164" d="M242.146,332.934H224.155v-2.756h17.991v2.756Zm-23.585,0H179.114v-2.756h39.446v2.756Zm-45.041,0h-24.6v-2.756h24.6v2.756Zm-46.383,1.721H79.345v2.756h47.792v-2.756Zm15.951-4.476h-32.7v2.756h32.7v-2.756Zm99.058,7.231H217.427v-2.756h24.719v2.756Zm-30.312,0H194.707v-2.756h17.126v2.756Zm-22.6,0H132.971v-2.756h56.267v2.756Zm-84.317-7.231H79.345v2.756h25.576Z" transform="translate(-66.705 -108.092)" fill="#9d948f" fill-rule="evenodd"/>
          <g id="Grupo_1235173" data-name="Grupo 1235173" transform="translate(16.753 21.324)">
            <rect id="Rectángulo_422967" data-name="Rectángulo 422967" width="6.833" height="1.954" transform="translate(19.217 80.279)" fill="#9d948f"/>
            <rect id="Rectángulo_422968" data-name="Rectángulo 422968" width="6.832" height="1.954" transform="translate(60.213 80.279)" fill="#9d948f"/>
            <rect id="Rectángulo_422969" data-name="Rectángulo 422969" width="6.832" height="1.954" transform="translate(80.711 80.279)" fill="#9d948f"/>
            <rect id="Rectángulo_422970" data-name="Rectángulo 422970" width="6.832" height="1.954" transform="translate(101.208 80.279)" fill="#9d948f"/>
            <rect id="Rectángulo_422971" data-name="Rectángulo 422971" width="6.832" height="1.954" transform="translate(121.706 80.279)" fill="#9d948f"/>
            <rect id="Rectángulo_422972" data-name="Rectángulo 422972" width="6.832" height="1.954" transform="translate(142.204 80.279)" fill="#9d948f"/>
            <path id="Trazado_1295165" data-name="Trazado 1295165" d="M97.326,133.393H237.114v76.9H97.326v-76.9Zm1.936,1.907v73.091H235.18V135.3Z" transform="translate(-83.094 -133.393)" fill="#f2d04f" fill-rule="evenodd"/>
            <rect id="Rectángulo_422973" data-name="Rectángulo 422973" width="10.788" height="1.878" transform="translate(0 2.971)" fill="#9d948f"/>
            <rect id="Rectángulo_422974" data-name="Rectángulo 422974" width="10.788" height="1.878" transform="translate(0 14.485)" fill="#9d948f"/>
            <rect id="Rectángulo_422975" data-name="Rectángulo 422975" width="10.788" height="1.878" transform="translate(0 25.999)" fill="#9d948f"/>
            <rect id="Rectángulo_422976" data-name="Rectángulo 422976" width="10.788" height="1.878" transform="translate(0 37.513)" fill="#9d948f"/>
            <rect id="Rectángulo_422977" data-name="Rectángulo 422977" width="10.788" height="1.878" transform="translate(0 49.027)" fill="#9d948f"/>
            <rect id="Rectángulo_422978" data-name="Rectángulo 422978" width="10.788" height="1.877" transform="translate(0 60.541)" fill="#9d948f"/>
            <rect id="Rectángulo_422979" data-name="Rectángulo 422979" width="10.788" height="1.878" transform="translate(0 72.055)" fill="#9d948f"/>
            <path id="Trazado_1295166" data-name="Trazado 1295166" d="M137.089,170.382a.334.334,0,0,0-.565-.25.353.353,0,0,0-.1.25v3.454a.334.334,0,0,0,.565.25.353.353,0,0,0,.1-.25v-3.454ZM136.421,207a.334.334,0,0,0,.565.25.353.353,0,0,0,.1-.25v-3.454a.334.334,0,0,0-.565-.25.353.353,0,0,0-.1.25V207Zm0-5.527a.334.334,0,0,0,.565.25.353.353,0,0,0,.1-.25v-3.454a.334.334,0,0,0-.565-.25.353.353,0,0,0-.1.25v3.454Zm0-5.527a.334.334,0,0,0,.565.25.353.353,0,0,0,.1-.25V192.49a.334.334,0,0,0-.565-.25.353.353,0,0,0-.1.25v3.454Zm0-5.526a.334.334,0,0,0,.565.25.353.353,0,0,0,.1-.25v-3.454a.334.334,0,0,0-.565-.25.353.353,0,0,0-.1.25v3.454Zm0-5.528a.334.334,0,0,0,.565.25.353.353,0,0,0,.1-.25v-3.454a.334.334,0,0,0-.565-.25.353.353,0,0,0-.1.25v3.454Zm0-5.526a.334.334,0,0,0,.565.25.353.353,0,0,0,.1-.25v-3.454a.334.334,0,0,0-.565-.25.353.353,0,0,0-.1.25Z" transform="translate(-82.304 -132.652)" fill="#9d948f" fill-rule="evenodd"/>
            <path id="Trazado_1295167" data-name="Trazado 1295167" d="M177.72,206.559a.333.333,0,0,0,.565.257.368.368,0,0,0,.1-.257v-3.55a.333.333,0,0,0-.565-.257.366.366,0,0,0-.1.257v3.55Zm0-5.681a.333.333,0,0,0,.565.257.366.366,0,0,0,.1-.257v-3.55a.333.333,0,0,0-.565-.257.366.366,0,0,0-.1.257v3.55Zm0-5.681a.333.333,0,0,0,.565.257.366.366,0,0,0,.1-.257v-3.55a.333.333,0,0,0-.565-.257.368.368,0,0,0-.1.257Z" transform="translate(-81.469 -132.223)" fill="#9d948f" fill-rule="evenodd"/>
            <path id="Trazado_1295168" data-name="Trazado 1295168" d="M204.648,157.46a.337.337,0,0,0-.565-.235.318.318,0,0,0-.1.235V160.7a.337.337,0,0,0,.565.235.322.322,0,0,0,.1-.235V157.46Zm-.668,49.821a.337.337,0,0,0,.565.235.318.318,0,0,0,.1-.235v-3.235a.337.337,0,0,0-.565-.235.322.322,0,0,0-.1.235v3.235Zm0-5.176a.337.337,0,0,0,.565.235.32.32,0,0,0,.1-.235v-3.235a.337.337,0,0,0-.565-.235.322.322,0,0,0-.1.235v3.235Zm0-5.177a.336.336,0,0,0,.565.234.321.321,0,0,0,.1-.234v-3.235a.337.337,0,0,0-.565-.235.32.32,0,0,0-.1.235v3.235Zm0-5.177a.337.337,0,0,0,.565.235.322.322,0,0,0,.1-.235v-3.235a.336.336,0,0,0-.565-.234.318.318,0,0,0-.1.234v3.235Zm0-5.177a.337.337,0,0,0,.565.235.32.32,0,0,0,.1-.235v-3.235a.336.336,0,0,0-.565-.234.321.321,0,0,0-.1.234v3.235Zm0-5.176a.337.337,0,0,0,.565.235.322.322,0,0,0,.1-.235v-3.235a.337.337,0,0,0-.565-.235.32.32,0,0,0-.1.235V181.4Zm0-5.177a.337.337,0,0,0,.565.235.322.322,0,0,0,.1-.235v-3.235a.337.337,0,0,0-.565-.235.32.32,0,0,0-.1.235v3.235Zm0-5.177a.337.337,0,0,0,.565.235.322.322,0,0,0,.1-.235v-3.235a.336.336,0,0,0-.565-.234.32.32,0,0,0-.1.234v3.235Zm0-5.176a.336.336,0,0,0,.565.234.321.321,0,0,0,.1-.234v-3.235a.337.337,0,0,0-.565-.235.32.32,0,0,0-.1.235Z" transform="translate(-80.939 -132.913)" fill="#9d948f" fill-rule="evenodd"/>
            <path id="Trazado_1295169" data-name="Trazado 1295169" d="M215.318,207.179a.337.337,0,0,0,.565.235.318.318,0,0,0,.1-.235v-3.235a.337.337,0,0,0-.565-.235.322.322,0,0,0-.1.235v3.235Zm0-5.176a.337.337,0,0,0,.565.235.32.32,0,0,0,.1-.235v-3.235a.337.337,0,0,0-.565-.235.322.322,0,0,0-.1.235V202Zm0-5.177a.336.336,0,0,0,.565.234.321.321,0,0,0,.1-.234v-3.235a.337.337,0,0,0-.565-.235.32.32,0,0,0-.1.235v3.235Zm0-5.177a.337.337,0,0,0,.565.235.322.322,0,0,0,.1-.235v-3.235a.336.336,0,0,0-.565-.234.318.318,0,0,0-.1.234v3.235Zm0-5.177a.337.337,0,0,0,.565.235.32.32,0,0,0,.1-.235v-3.235a.336.336,0,0,0-.565-.234.321.321,0,0,0-.1.234v3.235Zm0-5.176a.337.337,0,0,0,.565.235.322.322,0,0,0,.1-.235v-3.235a.337.337,0,0,0-.565-.235.32.32,0,0,0-.1.235V181.3Zm0-5.177a.337.337,0,0,0,.565.235.322.322,0,0,0,.1-.235v-3.235a.337.337,0,0,0-.565-.235.32.32,0,0,0-.1.235v3.235Zm0-5.177a.337.337,0,0,0,.565.235.322.322,0,0,0,.1-.235V167.71a.336.336,0,0,0-.565-.234.32.32,0,0,0-.1.234v3.235Zm0-5.176a.336.336,0,0,0,.565.234.321.321,0,0,0,.1-.234v-3.235a.337.337,0,0,0-.565-.235.32.32,0,0,0-.1.235Z" transform="translate(-80.71 -132.811)" fill="#9d948f" fill-rule="evenodd"/>
            <path id="Trazado_1295170" data-name="Trazado 1295170" d="M98.235,162.926l24.073,11.183,15.229-6.965,42.052,21.085,26.911-34.82,11.4,5.939,18.008-9.729.253.47-18.258,9.863-11.257-5.864L179.742,188.9l-42.216-21.167L122.305,174.7,98.012,163.411Z" transform="translate(-83.08 -133.065)" fill="#294937" fill-rule="evenodd"/>
            <path id="Trazado_1295171" data-name="Trazado 1295171" d="M98.154,164.55a1.618,1.618,0,1,0-1.618-1.618A1.621,1.621,0,0,0,98.154,164.55Z" transform="translate(-83.11 -132.829)" fill="#70b65d" fill-rule="evenodd"/>
            <path id="Trazado_1295172" data-name="Trazado 1295172" d="M121.858,175.561a1.618,1.618,0,1,0-1.618-1.618A1.621,1.621,0,0,0,121.858,175.561Z" transform="translate(-82.631 -132.606)" fill="#70b65d" fill-rule="evenodd"/>
            <path id="Trazado_1295173" data-name="Trazado 1295173" d="M136.781,168.736a1.618,1.618,0,1,0-1.618-1.618A1.621,1.621,0,0,0,136.781,168.736Z" transform="translate(-82.329 -132.744)" fill="#70b65d" fill-rule="evenodd"/>
            <path id="Trazado_1295174" data-name="Trazado 1295174" d="M204.456,155.316a1.618,1.618,0,1,0-1.618-1.618A1.621,1.621,0,0,0,204.456,155.316Z" transform="translate(-80.962 -133.015)" fill="#70b65d" fill-rule="evenodd"/>
            <path id="Trazado_1295175" data-name="Trazado 1295175" d="M215.561,161.1a1.618,1.618,0,1,0-1.618-1.618A1.621,1.621,0,0,0,215.561,161.1Z" transform="translate(-80.737 -132.898)" fill="#70b65d" fill-rule="evenodd"/>
            <path id="Trazado_1295176" data-name="Trazado 1295176" d="M233.335,151.5a1.618,1.618,0,1,0-1.618-1.618A1.621,1.621,0,0,0,233.335,151.5Z" transform="translate(-80.378 -133.092)" fill="#70b65d" fill-rule="evenodd"/>
            <path id="Trazado_1295177" data-name="Trazado 1295177" d="M178.08,189.443a1.618,1.618,0,1,0-1.618-1.618A1.621,1.621,0,0,0,178.08,189.443Z" transform="translate(-81.495 -132.326)" fill="#70b65d" fill-rule="evenodd"/>
            <path id="Trazado_1295178" data-name="Trazado 1295178" d="M122.166,177.125a.335.335,0,0,0-.669,0v3.345a.335.335,0,0,0,.669,0v-3.345Zm-.669,29.749a.335.335,0,0,0,.669,0v-2.985a.335.335,0,0,0-.669,0v2.985Zm0-4.993a.335.335,0,1,0,.669,0v-3.345a.335.335,0,1,0-.669,0v3.345Zm0-5.353a.335.335,0,1,0,.669,0v-3.345a.335.335,0,0,0-.669,0v3.345Zm0-5.352a.335.335,0,1,0,.669,0v-3.345a.335.335,0,1,0-.669,0v3.345Zm0-5.353a.335.335,0,1,0,.669,0v-3.345a.335.335,0,0,0-.669,0Z" transform="translate(-82.606 -132.516)" fill="#9d948f" fill-rule="evenodd"/>
            <rect id="Rectángulo_422980" data-name="Rectángulo 422980" width="6.832" height="1.954" transform="translate(39.715 80.279)" fill="#9d948f"/>
          </g>
        </g>
        <g id="Grupo_1235178" data-name="Grupo 1235178" transform="translate(-985.089 1492.712)">
          <g id="Grupo_1235177" data-name="Grupo 1235177" transform="translate(0 0)">
            <path id="Trazado_1295179" data-name="Trazado 1295179" d="M222.808,72.207c.441.511,3.321,4.49,4.977,6.414,3.089,3.592,6.2,1.262,4.267-1.658-.425-.644-1.148-1.784-.924-1.7,1.338.493,2.088.308,2.186-.068.061-.238-1.293-1.131-2.769-1.8-2.237-1.017-2.573-.617-3.789-2.615-.229-.375-.449-.772-.658-1.187A7.969,7.969,0,0,0,222.808,72.207Z" transform="translate(-167.801 -10.25)" fill="#eaad8d" fill-rule="evenodd"/>
            <g id="Grupo_1235175" data-name="Grupo 1235175" transform="translate(40.648 59.621)">
              <path id="Trazado_1295180" data-name="Trazado 1295180" d="M233.617,69.865l48.121,68.351,11.46-8.068-6.06,42.17L245.4,163.8l11.459-8.068L208.733,87.384Z" transform="translate(-208.733 -69.865)" fill="#f4da6a" fill-rule="evenodd"/>
              <path id="Trazado_1295181" data-name="Trazado 1295181" d="M233.617,69.865l39.162,55.625a100.472,100.472,0,0,1-.559,43.785L245.4,163.8l11.459-8.068L208.733,87.384l8.458-5.954c.057.091.113.179.168.262,2.572,3.931,6.5,1.381,5.042-1.814a13.392,13.392,0,0,1-.658-1.654l.2-.144c1.252.455,2.051.253,2.233-.141.063-.137-.262-.473-.8-.869Z" transform="translate(-208.733 -69.865)" fill="#f6e27f" fill-rule="evenodd"/>
            </g>
            <path id="Trazado_1295182" data-name="Trazado 1295182" d="M196.681,30.731c.031,1.786-.2,12.787,4.854,23.618a37.822,37.822,0,0,0,22.639,20.5A4.862,4.862,0,0,0,228,71.6c-.086-.877-8.084-11.243-11.849-21.361a53.66,53.66,0,0,1-2.926-22.351C214.063,19.067,196.49,19.57,196.681,30.731Z" transform="translate(-168.329 -11.217)" fill="#273f8e" fill-rule="evenodd"/>
            <path id="Trazado_1295183" data-name="Trazado 1295183" d="M226.5,69.907c-.835-1.274-1.673-2.545-2.492-3.83A103.081,103.081,0,0,1,217.517,55.1c-.709-1.493-1.366-3.013-1.942-4.561-2.766-7.434-3.836-7.035-4.863-6.071-8.026,7.53,3.174,23.027,14.156,27.493C226.557,72.642,227.754,71.824,226.5,69.907Z" transform="translate(-168.101 -10.768)" fill="#30519f" fill-rule="evenodd"/>
            <path id="Trazado_1295184" data-name="Trazado 1295184" d="M196.681,30.727c.031,1.786-.2,12.787,4.854,23.618a39.024,39.024,0,0,0,12.541,15.391c-2.238-4.338-5.951-11.71-7.763-18.964a59.875,59.875,0,0,1-.566-23.837,4.985,4.985,0,0,0-1.522-4.983C200.3,22.69,196.593,25.569,196.681,30.727Z" transform="translate(-168.329 -11.213)" fill="#202e7f" fill-rule="evenodd"/>
            <path id="Trazado_1295185" data-name="Trazado 1295185" d="M196.681,30.719a59.524,59.524,0,0,0,2.935,18.818,43.089,43.089,0,0,1,5.522-2.947c2.063-.967,2.671-1.956,4.345-5.056,1.61-2.981,3.646-7.994,3.3-10.74-.6-4.706-4.727-7.5-10.122-8.433A8.394,8.394,0,0,0,196.681,30.719Z" transform="translate(-168.329 -11.204)" fill="#202e7f" fill-rule="evenodd"/>
            <path id="Trazado_1295186" data-name="Trazado 1295186" d="M205.819,103.5H199.1a11,11,0,0,1,2.3,4.511c.312,1.168,7.7,1.242,6.72,0A7.346,7.346,0,0,1,205.819,103.5Z" transform="translate(-168.28 -9.565)" fill="#f0ccb3" fill-rule="evenodd"/>
            <path id="Trazado_1295187" data-name="Trazado 1295187" d="M210.348,107.86a52.722,52.722,0,0,1-9.452-1.149,2.586,2.586,0,0,0-2.648,2.519,2.485,2.485,0,0,0,1.145,2.074h13.854a2.121,2.121,0,0,0,.209-.914A2.863,2.863,0,0,0,210.348,107.86Z" transform="translate(-168.297 -9.5)" fill="#3d66b7" fill-rule="evenodd"/>
            <path id="Trazado_1295188" data-name="Trazado 1295188" d="M210.317,107.86a52.722,52.722,0,0,1-9.452-1.149,2.736,2.736,0,0,0-1.116.235c2.573,2.725,8.482,3.763,13.621,3.926a2.1,2.1,0,0,0,.056-.482A2.865,2.865,0,0,0,210.317,107.86Z" transform="translate(-168.267 -9.5)" fill="#30519f" fill-rule="evenodd"/>
            <path id="Trazado_1295189" data-name="Trazado 1295189" d="M212.743,111.963H199.692a.481.481,0,0,1-.479-.479v-.27h14.011v.27A.481.481,0,0,1,212.743,111.963Z" transform="translate(-168.278 -9.409)" fill="#293159" fill-rule="evenodd"/>
            <path id="Trazado_1295190" data-name="Trazado 1295190" d="M183.174,108.485c-2.091,0-4.5.085-6.59.085.5-1.467-.046-3.134-.428-4.676,2.091,0,4.393-.012,6.484-.012A15.785,15.785,0,0,0,183.174,108.485Z" transform="translate(-168.744 -9.557)" fill="#f0ccb3" fill-rule="evenodd"/>
            <path id="Trazado_1295191" data-name="Trazado 1295191" d="M183.121,107.837c-1.122,0-2.245.12-3.258.159-1.011-.039-2.134-.159-3.258-.159a2.718,2.718,0,0,0-2.872,2.531,2.266,2.266,0,0,0,.193.914H185.8a2.266,2.266,0,0,0,.193-.914A2.714,2.714,0,0,0,183.121,107.837Z" transform="translate(-168.793 -9.477)" fill="#30519f" fill-rule="evenodd"/>
            <path id="Trazado_1295192" data-name="Trazado 1295192" d="M185.415,111.963H174.309a.481.481,0,0,1-.479-.479v-.269H185.9v.269A.483.483,0,0,1,185.415,111.963Z" transform="translate(-168.791 -9.409)" fill="#293159" fill-rule="evenodd"/>
            <path id="Trazado_1295193" data-name="Trazado 1295193" d="M179.026,111.161c-1.325,0-2.6.045-3.812.12h-1.286a2.266,2.266,0,0,1-.193-.914,2.718,2.718,0,0,1,2.872-2.531c1.122,0,2.245.12,3.258.159,1.011-.039,2.134-.159,3.258-.159a3.177,3.177,0,0,1,1.232.245A5.688,5.688,0,0,1,179.026,111.161Z" transform="translate(-168.793 -9.477)" fill="#3d66b7" fill-rule="evenodd"/>
            <path id="Trazado_1295194" data-name="Trazado 1295194" d="M207.072,105.487c-.6.871-6.522,1-7.6.354-5.9-7.092-11.72-17.12-9.191-23.707-3.371-6.329-7.575-11.624-7.133-25.5.593-18.644,13.707-17.414,13-5C195.2,68.318,200.482,90.225,207.072,105.487Z" transform="translate(-168.603 -10.799)" fill="#56973e" fill-rule="evenodd"/>
            <path id="Trazado_1295195" data-name="Trazado 1295195" d="M204.366,105.389c-1.948.168-4.374.061-5.029-.327-5.681-6.833-11.293-16.39-9.434-22.969a1.95,1.95,0,0,1,1.809-1.061C195.329,81.294,200.779,91.934,204.366,105.389Z" transform="translate(-168.473 -10.019)" fill="#6aaf58" fill-rule="evenodd"/>
            <path id="Trazado_1295196" data-name="Trazado 1295196" d="M186.37,74.8c-1.99-4.3-3.5-9.6-3.227-18.2.2-6.353,1.858-10.4,3.925-12.477,2.172,2.238,2.392,5.155,1.446,8.464C186.607,59.25,186.612,67.074,186.37,74.8Z" transform="translate(-168.603 -10.765)" fill="#44793b" fill-rule="evenodd"/>
            <path id="Trazado_1295197" data-name="Trazado 1295197" d="M183.577,106.315c-.875.809-6.845.523-7.728-.179-2.053-6.395-5.505-19.059-2.093-25.169-1.392-6.414-7.926-18.6-3.135-32.123,5.287-14.923,22.336-6.33,18.4,4.018C182.845,69.094,181.761,90.954,183.577,106.315Z" transform="translate(-168.891 -10.831)" fill="#70b65d" fill-rule="evenodd"/>
            <path id="Trazado_1295198" data-name="Trazado 1295198" d="M181.834,106.483c-2.111.173-5.353-.115-5.986-.618-2.053-6.395-5.505-19.059-2.093-25.169-1.191-5.486-6.141-15.193-4.552-26.348a2.382,2.382,0,0,1,.713-.054c5.094.37,10.369,16.448,11.782,35.909A119.575,119.575,0,0,1,181.834,106.483Z" transform="translate(-168.891 -10.559)" fill="#80c16b" fill-rule="evenodd"/>
            <path id="Trazado_1295199" data-name="Trazado 1295199" d="M211.447,74.634c.483.56,3.635,4.913,5.446,7.02,3.381,3.931,6.78,1.381,4.669-1.814-.465-.7-1.256-1.954-1.011-1.863,1.463.54,2.286.338,2.392-.074.067-.26-1.415-1.239-3.03-1.972-2.448-1.113-2.816-.675-4.146-2.862q-.376-.617-.72-1.3A8.718,8.718,0,0,0,211.447,74.634Z" transform="translate(-168.031 -10.206)" fill="#eaad8d" fill-rule="evenodd"/>
            <path id="Trazado_1295200" data-name="Trazado 1295200" d="M206.106,42.44c2.063-.967,2.671-1.956,4.345-5.056,1.61-2.981,3.646-7.994,3.3-10.74-.618-4.873-5.021-7.7-10.7-8.524-15.713-2.292-32.663,11.711-33.57,31.679-.261,2.118,4.46,4.525,12.354,5.059,4.786.324,14.1.326,14.9-2.252C197.083,47.624,198.281,46.108,206.106,42.44Z" transform="translate(-168.879 -11.295)" fill="#30519f" fill-rule="evenodd"/>
            <path id="Trazado_1295201" data-name="Trazado 1295201" d="M192.239,54.544c2.188-.351,3.851-.968,4.167-1.992.325-4.638,1.385-6.272,7.848-9.437a62.933,62.933,0,0,1-2.084-16.151c.065-4.474-3.873-6.587-7.9-6.41-4.439.2-8.986,3.2-8.425,9.442A67.824,67.824,0,0,0,192.239,54.544Z" transform="translate(-168.549 -11.241)" fill="#263a89" fill-rule="evenodd"/>
            <path id="Trazado_1295202" data-name="Trazado 1295202" d="M187.163,54.936c4.3-.081,8.737-.644,9.275-2.388.26-3.709.991-5.5,4.58-7.683a61.709,61.709,0,0,1,.18-17.9c.749-4.444-3.053-6.4-7.074-6.253-4.489.161-9.316,3.007-9.716,9.285C184.286,31.884,183.132,43.465,187.163,54.936Z" transform="translate(-168.582 -11.238)" fill="#263a89" fill-rule="evenodd"/>
            <path id="Trazado_1295203" data-name="Trazado 1295203" d="M185.151,30c.031,1.9-.2,13.637,4.854,25.189,3.774,8.619,10.666,17.606,22.639,21.867a4.968,4.968,0,0,0,3.828-3.469c-.086-.936-8.084-11.99-11.849-22.781A60.82,60.82,0,0,1,201.7,26.967C202.532,17.559,184.96,18.095,185.151,30Z" transform="translate(-168.562 -11.243)" fill="#30519f" fill-rule="evenodd"/>
            <path id="Trazado_1295204" data-name="Trazado 1295204" d="M212.009,72.186c-.852-1.387-1.708-2.77-2.542-4.169a109.775,109.775,0,0,1-6.346-12.054c-.649-1.478-1.251-2.979-1.782-4.5A62.047,62.047,0,0,1,198.311,26.8a3.606,3.606,0,0,0-.823-2.838c-1.634-1.826-4.889-1.811-7.023-1.044a6.955,6.955,0,0,0-4.757,7.057,79.08,79.08,0,0,0,.526,8.763A56.765,56.765,0,0,0,190.395,54.4c3.949,9.021,10.384,16.125,19.386,19.974C212.1,75.366,213.52,74.647,212.009,72.186Z" transform="translate(-168.551 -11.203)" fill="#385fa7" fill-rule="evenodd"/>
            <path id="Trazado_1295205" data-name="Trazado 1295205" d="M214.7,32.143c-3.173-1.048-4.535-.052-6.418,1.037-1.781.151-2.094-10.916-1.007-10.516,3.432,1.25,7.386,1.211,11.247.879C217.439,25.115,214.534,30.475,214.7,32.143Z" transform="translate(-168.128 -11.199)" fill="#e8a382" fill-rule="evenodd"/>
            <path id="Trazado_1295206" data-name="Trazado 1295206" d="M206.7,24.479c.164.061.317.12.457.175,2.507.989,7.242,3.96,6.423,7.148-2.4-.489-3.648.391-5.292,1.341C207,33.251,206.481,27.531,206.7,24.479Z" transform="translate(-168.128 -11.162)" fill="#edbc9f" fill-rule="evenodd"/>
            <path id="Trazado_1295207" data-name="Trazado 1295207" d="M228.5,32.519c-2.132,1.867-7.531,2.843-9.36,2.907-2.641.092-3.5.145-4.282-1.926A7.537,7.537,0,0,1,219,24.457c4.372-1.713,8.011-1.438,9.786,3.677C229.378,29.831,229.518,31.627,228.5,32.519Z" transform="translate(-167.969 -11.181)" fill="#f0ccb3" fill-rule="evenodd"/>
            <path id="Trazado_1295208" data-name="Trazado 1295208" d="M227.187,33.218c-2.948-.182-1.967-2.416-3.339-3.025-.687-.305-2.23-1.82-1.932-2.9-1.051-.627-3.161-1.064-4.278-.114-2.693.542-3.278-.866-3.286-.873-2.858-2.587.21-13.232,7.967-7.687,1.706,1.219,2.592-2.017,5.3,1.37,1.1,1.373,10.4,1.577,6.359,11.025-2.036,4.766-6.806,4.747-6.642,2.391Z" transform="translate(-167.993 -11.312)" fill="#1e233d" fill-rule="evenodd"/>
            <g id="Grupo_1235176" data-name="Grupo 1235176" transform="translate(49.327 12.779)">
              <path id="Trazado_1295209" data-name="Trazado 1295209" d="M220.533,23.956a3.268,3.268,0,0,0-2.773,1.416c-.532.735-.774,1.6-.145,1.9a15.922,15.922,0,0,1,4.145-.008C222.7,26.077,222.023,24.042,220.533,23.956Z" transform="translate(-217.241 -23.951)" fill="#f0ccb3" fill-rule="evenodd"/>
              <path id="Trazado_1295210" data-name="Trazado 1295210" d="M221.241,25.7c-.066-.634-2.09-1.152-2.7.423a2.861,2.861,0,0,1,.946-.243,3.709,3.709,0,0,1,1.5.148C221.319,26.158,221.29,26.165,221.241,25.7Z" transform="translate(-217.214 -23.929)" fill="#e8a382" fill-rule="evenodd"/>
            </g>
            <path id="Trazado_1295211" data-name="Trazado 1295211" d="M231.091,34.106c-2.5.42-3.051-.908-3.06-.915-2.634-2.385-.233-11.62,6.238-8.7.651,1.459.669,3.487-.569,6.388A6.95,6.95,0,0,1,231.091,34.106Z" transform="translate(-167.717 -11.173)" fill="#293159" fill-rule="evenodd"/>
            <path id="Trazado_1295212" data-name="Trazado 1295212" d="M233.779,16c-.98-.436-1.212-.371-1.5-1.447a2.624,2.624,0,0,0-1.395-1.806,2.207,2.207,0,0,0-1.157-.166c-1.408.163-1.023.3-2.172-.639a2.261,2.261,0,0,0-2.439-.265c-1.319.858-1.916.3-2.38.389-.781.156-1.3,1.241-1.567,2.4a7.4,7.4,0,0,0-.1,3.175c.226.942.652,1.348,1.263,1.451,2.046.346.44-.239,2.182.86a2.451,2.451,0,0,0,1.1.38c1.185.107.575.49,1.622.954.982.437,1.5-.6,3.3.891,1.284,1.062,3.1-.341,4.126-1.984A2.934,2.934,0,0,0,233.779,16Z" transform="translate(-167.839 -11.425)" fill="#293159" fill-rule="evenodd"/>
            <path id="Trazado_1295213" data-name="Trazado 1295213" d="M223.7,34.55a24.07,24.07,0,0,1-4.562.776c-2.641.092-3.5.145-4.282-1.926a6.1,6.1,0,0,1-.329-2.558,4.766,4.766,0,0,1,2.141-1.7c3.112-1.219,5.7-1.023,6.964,2.617A3.519,3.519,0,0,1,223.7,34.55Z" transform="translate(-167.969 -11.081)" fill="#f4ddcc" fill-rule="evenodd"/>
            <path id="Trazado_1295214" data-name="Trazado 1295214" d="M180.187,25.937a41.949,41.949,0,0,1,2.162,15.37A43.783,43.783,0,0,1,179.6,54.483c-6.541-.795-10.356-2.939-10.12-4.849A34.632,34.632,0,0,1,180.187,25.937Z" transform="translate(-168.879 -11.132)" fill="#385fa7" fill-rule="evenodd"/>
          </g>
        </g>
        <g id="Grupo_1235181" data-name="Grupo 1235181" transform="translate(-1096.685 1521.489)">
          <g id="Grupo_1235180" data-name="Grupo 1235180" transform="translate(0 0)">
            <path id="Trazado_1295215" data-name="Trazado 1295215" d="M68.225,132.151h6.72a11,11,0,0,0-2.3,4.511c-.312,1.168-7.7,1.242-6.72,0A7.347,7.347,0,0,0,68.225,132.151Z" transform="translate(-59.377 -37.762)" fill="#f0ccb3" fill-rule="evenodd"/>
            <path id="Trazado_1295216" data-name="Trazado 1295216" d="M63.818,136.507a52.766,52.766,0,0,0,9.452-1.148,2.586,2.586,0,0,1,2.648,2.519,2.485,2.485,0,0,1-1.145,2.074H60.919a2.121,2.121,0,0,1-.209-.914A2.863,2.863,0,0,1,63.818,136.507Z" transform="translate(-59.481 -37.697)" fill="#30519f" fill-rule="evenodd"/>
            <path id="Trazado_1295217" data-name="Trazado 1295217" d="M63.818,136.507a52.766,52.766,0,0,0,9.452-1.148,2.745,2.745,0,0,1,1.117.235c-2.573,2.725-8.482,3.763-13.621,3.926a2.1,2.1,0,0,1-.056-.482A2.863,2.863,0,0,1,63.818,136.507Z" transform="translate(-59.481 -37.697)" fill="#3d66b7" fill-rule="evenodd"/>
            <path id="Trazado_1295218" data-name="Trazado 1295218" d="M61.4,140.61H74.45a.481.481,0,0,0,.479-.48v-.27H60.919v.27A.482.482,0,0,0,61.4,140.61Z" transform="translate(-59.477 -37.606)" fill="#293159" fill-rule="evenodd"/>
            <path id="Trazado_1295219" data-name="Trazado 1295219" d="M67.329,133.946c.906,1.084,7.4.958,8.28.146,1.461-3.678,3.265-7.516,4.13-11.9a18.682,18.682,0,0,0-.34-6.42c-1.365-8.057,6.583-9.533,12.694-5.828,25.615,15.532,40.058-14.1,22.973-16.209-1.453-.18-37.491,3.846-42.82,5.168-6.443,1.6-6.621,3.654-5.59,12.877A118.506,118.506,0,0,1,67.329,133.946Z" transform="translate(-59.37 -38.539)" fill="#5fa34a" fill-rule="evenodd"/>
            <path id="Trazado_1295220" data-name="Trazado 1295220" d="M121.74,102.951c.874-4.366-1.239-8.479-7.22-9.217-.759-.094-10.962.961-21.293,2.178a4.2,4.2,0,0,1-.031.452c-.207,1.6,12.964,3.786,19.978,4.054a20.593,20.593,0,0,0,5.733,2.21A16.635,16.635,0,0,0,121.74,102.951Z" transform="translate(-58.824 -38.539)" fill="#56973e" fill-rule="evenodd"/>
            <path id="Trazado_1295221" data-name="Trazado 1295221" d="M74.239,129.78a55.835,55.835,0,0,0,2.744-8.081,17.592,17.592,0,0,0-.348-5.845c-.481-2.837-.041-5.792,2.241-7.757,3.547-3.053,9.19-1.925,12.855.3,4.187,2.539,9.144,4.38,13.988,4.252,4.6-.121,6.768-12.418-8.22-11.876-7.249.262-17.282-.134-22.534-.362-2.4-.1-6.01-.423-7.67,1.822a5.224,5.224,0,0,0-.7,2.858,47.358,47.358,0,0,0,.456,6.329,131.672,131.672,0,0,1,.916,17.541C67.826,135.45,72.523,134.242,74.239,129.78Z" transform="translate(-59.362 -38.405)" fill="#6db35a" fill-rule="evenodd"/>
            <path id="Trazado_1295222" data-name="Trazado 1295222" d="M80.1,110.053c2.25-2.973,7.433-2.922,11.716-.325a35.142,35.142,0,0,0,5.3,2.652,18.562,18.562,0,0,0-2.443-4.682c-2.316-3.182-6.881-3.693-9.69-3.076a6.126,6.126,0,0,0-4.473,3.164A4.824,4.824,0,0,0,80.1,110.053Z" transform="translate(-59.089 -38.323)" fill="#4d873c" fill-rule="evenodd"/>
            <path id="Trazado_1295223" data-name="Trazado 1295223" d="M84.517,146.547H78.041a24.846,24.846,0,0,0,1.225-5.7c.841-7.785-1.182-21.337-.081-30.006.808-6.361,11.8-7.39,13.788-2.827,4.158,9.546-4.791,25.844-8.127,33.808C84.108,143.582,83.785,144.609,84.517,146.547Z" transform="translate(-59.131 -38.307)" fill="#f0ccb3" fill-rule="evenodd"/>
            <path id="Trazado_1295224" data-name="Trazado 1295224" d="M84.41,145.105c-1.093,0-2.185.117-3.17.155-.984-.038-2.077-.155-3.169-.155a2.644,2.644,0,0,0-2.794,2.463,2.2,2.2,0,0,0,.188.89H87.016a2.2,2.2,0,0,0,.188-.89A2.644,2.644,0,0,0,84.41,145.105Z" transform="translate(-59.186 -37.5)" fill="#3d66b7" fill-rule="evenodd"/>
            <path id="Trazado_1295225" data-name="Trazado 1295225" d="M86.641,149.12H75.835a.468.468,0,0,1-.466-.467v-.263h11.74v.263A.468.468,0,0,1,86.641,149.12Z" transform="translate(-59.185 -37.434)" fill="#293159" fill-rule="evenodd"/>
            <path id="Trazado_1295226" data-name="Trazado 1295226" d="M82.009,147.832a49.367,49.367,0,0,1,5.07.329,2.192,2.192,0,0,0,.082-.592,2.644,2.644,0,0,0-2.794-2.463c-1.093,0-2.185.117-3.17.155-.984-.038-2.077-.155-3.169-.155a3.186,3.186,0,0,0-.622.061C77.39,146.475,78.019,147.832,82.009,147.832Z" transform="translate(-59.143 -37.5)" fill="#30519f" fill-rule="evenodd"/>
            <path id="Trazado_1295227" data-name="Trazado 1295227" d="M78.137,142.872c.123-.68.22-1.373.3-2.1a54.671,54.671,0,0,0,.167-7.245c-.077-2.869-.239-5.737-.372-8.6a84.606,84.606,0,0,1,.125-14.174,6.22,6.22,0,0,1,1.2-2.967,8.928,8.928,0,0,1,5.4-3.164c2.989-.617,7.406-.106,8.791,3.076,2.512,5.765.291,13.547-1.79,19.138-1.074,2.886-2.316,5.707-3.6,8.505-1.04,2.264-2.14,4.527-3.1,6.822-.139.333-.262.63-.363.911h-.313C82.331,143.073,80.169,143,78.137,142.872Z" transform="translate(-59.132 -38.323)" fill="#56973e" fill-rule="evenodd"/>
            <path id="Trazado_1295228" data-name="Trazado 1295228" d="M85.851,133.973c1.268-2.762,2.5-5.547,3.555-8.4,1.913-5.139,4.129-12.651,1.823-17.943-1.041-2.389-4.817-2.6-7-2.15a7.381,7.381,0,0,0-4.44,2.555,4.638,4.638,0,0,0-.894,2.215,81.676,81.676,0,0,0-.114,13.9c.134,2.878.3,5.755.373,8.635C79.394,141.934,80.1,146.511,85.851,133.973Z" transform="translate(-59.121 -38.305)" fill="#61a54d" fill-rule="evenodd"/>
            <path id="Trazado_1295229" data-name="Trazado 1295229" d="M90.7,53.926a5.857,5.857,0,0,1,2.581-9.88,9.165,9.165,0,0,1,13.5-2.128c4.312,3.526,3.2,6.842,5.126,9.01,1.068,1.2,2.782,2.3,7.554,2.3a4.419,4.419,0,0,1,2.77,7.862,5.367,5.367,0,0,1-.16,10.733c-11.285,0-17.172-3.5-27.313-3.5a5.368,5.368,0,0,1-2.868-9.906C94.18,56.961,92.944,56.095,90.7,53.926Z" transform="translate(-58.911 -39.628)" fill="#1e233d" fill-rule="evenodd"/>
            <path id="Trazado_1295230" data-name="Trazado 1295230" d="M87.482,67.8c-3.743,3.943-9.757,13.565-6.591,22.584,1.756,5,6.1,5.593,8.414,2.552s6.461-8.613,10.586-11.924c5.989-4.808,15.07-6.081,16.774-6.293C128.809,73.211,101.383,53.157,87.482,67.8Z" transform="translate(-59.091 -39.17)" fill="#e8a026" fill-rule="evenodd"/>
            <path id="Trazado_1295231" data-name="Trazado 1295231" d="M90.319,91.426c2.4-3.139,5.93-7.6,9.444-10.421,5.989-4.808,15.07-6.081,16.775-6.293,8.036-1-1.26-10.114-12.5-11.925q-.9-.054-1.819-.055c-8.323,0-14.833,6.812-15.792,13.056C85.746,80.246,88.6,86.524,90.319,91.426Z" transform="translate(-58.963 -39.165)" fill="#e59222" fill-rule="evenodd"/>
            <path id="Trazado_1295232" data-name="Trazado 1295232" d="M104.016,62.053c-8.323,0-14.833,6.812-15.792,13.056-1,6.547,5.618,17.015,5.076,21.291-.285,2.237,24.706,2.625,24.243.595-3.341-14.617,6.822-23.455,6.279-24.575C120.867,66.323,113.385,62.053,104.016,62.053Z" transform="translate(-58.927 -39.179)" fill="#ebae29" fill-rule="evenodd"/>
            <path id="Trazado_1295233" data-name="Trazado 1295233" d="M109.684,98.2c4.359-.107,7.823-.528,7.647-1.3-2.739-11.984,3.6-20.083,5.671-23.229a36.047,36.047,0,0,0-6.409-5.546c-1.774-1.191-5.829-2.01-8.031-.829-2.824,1.514-3.392,5.833.3,10.356,6.288,7.7,6.22,8.954,4.559,9.781-2.187,1.087-7.149-.344-11.916-1.412-1.429-.139-3.6,2.147-2.733,2.97C102.091,91.9,105.841,95.391,109.684,98.2Z" transform="translate(-58.716 -39.085)" fill="#e8a026" fill-rule="evenodd"/>
            <path id="Trazado_1295234" data-name="Trazado 1295234" d="M97.125,60.126c.464,3.272-.242,4.829-2,5.811-.8.447.9,1.49,3.57,1.757,2.685.268,6.2-.115,7.385-1.223.305-.284.424-.708-.057-.88-3.273-1.173-2.135-5.763-2.282-10.137C101.243,55.51,100.349,59.81,97.125,60.126Z" transform="translate(-58.789 -39.312)" fill="#e8a382" fill-rule="evenodd"/>
            <path id="Trazado_1295235" data-name="Trazado 1295235" d="M97.244,61.161c3.2-1.394,5.479,1.464,6.927,6.087a16.947,16.947,0,0,1-5.475.337c-2.669-.267-4.37-1.31-3.57-1.757C96.664,64.968,97.4,63.668,97.244,61.161Z" transform="translate(-58.789 -39.204)" fill="#edbc9f" fill-rule="evenodd"/>
            <path id="Trazado_1295236" data-name="Trazado 1295236" d="M91.923,47.211c-.925,2.933.434,8.775,1.159,10.642,1.046,2.7,1.363,3.582,3.743,3.493a8.043,8.043,0,0,0,7.142-7.987c-.19-5.12-2.027-8.664-7.839-8.289C94.2,45.194,92.366,45.809,91.923,47.211Z" transform="translate(-58.856 -39.523)" fill="#f0ccb3" fill-rule="evenodd"/>
            <path id="Trazado_1295237" data-name="Trazado 1295237" d="M92.685,50.362a20.806,20.806,0,0,0,1.152,7.627c.853,2.2,1.112,2.923,3.055,2.851a6.564,6.564,0,0,0,5.829-6.518c-.013-.36-.567-.832-.941-.878a7.367,7.367,0,0,1-4.859-2.822c-.972-1.2-1.355-1.395-2.771-.713A5.177,5.177,0,0,1,92.685,50.362Z" transform="translate(-58.836 -39.432)" fill="#f4ddcc" fill-rule="evenodd"/>
            <path id="Trazado_1295238" data-name="Trazado 1295238" d="M94.9,57.244c1.948,2.97,4.135.416,4.2-.361C97.71,57.359,95.764,57.652,94.9,57.244Z" transform="translate(-58.79 -39.283)" fill="#293159" fill-rule="evenodd"/>
            <path id="Trazado_1295239" data-name="Trazado 1295239" d="M100.63,39.639a5.314,5.314,0,0,0-2.813.8,3.629,3.629,0,0,0-5.75,1.748A4.394,4.394,0,1,0,96.388,48.2a5.34,5.34,0,0,0,5.14,2.025c.391,1.942,1.612,2.582,2.77,2.457a2.316,2.316,0,1,0,3.9-2.314,2.84,2.84,0,0,0-2.094-4.758c-.061,0-.122,0-.183.006a5.441,5.441,0,0,0,.039-.648A5.33,5.33,0,0,0,100.63,39.639Z" transform="translate(-58.931 -39.632)" fill="#3c4368" fill-rule="evenodd"/>
            <g id="Grupo_1235179" data-name="Grupo 1235179" transform="translate(44.329 11.791)">
              <path id="Trazado_1295240" data-name="Trazado 1295240" d="M105.715,52.741a2.8,2.8,0,0,1-.791,2.86c-.661.723-1.521,1.164-1.968.551A20.683,20.683,0,0,0,103,51.6C103.634,50.8,105.308,51.159,105.715,52.741Z" transform="translate(-102.956 -51.189)" fill="#f0ccb3" fill-rule="evenodd"/>
              <path id="Trazado_1295241" data-name="Trazado 1295241" d="M104.231,52.152c.677.093,1.166,2.323-.545,2.941a3.18,3.18,0,0,0,.292-1.026,4.118,4.118,0,0,0-.109-1.646C103.739,52.051,103.73,52.082,104.231,52.152Z" transform="translate(-102.941 -51.171)" fill="#e8a382" fill-rule="evenodd"/>
            </g>
            <path id="Trazado_1295242" data-name="Trazado 1295242" d="M95.21,57.442a2.471,2.471,0,0,0,3.683-.405A8.054,8.054,0,0,1,95.21,57.442Z" transform="translate(-58.784 -39.28)" fill="#fff" fill-rule="evenodd"/>
            <path id="Trazado_1295243" data-name="Trazado 1295243" d="M92.344,67.118c5.793.5,12.241,5.8,14.843,9.146,4.466,5.749-3.939,4.381-2.952,7.339a21.914,21.914,0,0,1,.809,3.177c-1.094-.252-2.213-.52-3.323-.769-1.429-.139-3.6,2.147-2.733,2.97,1.8,1.583,3.735,3.337,5.74,5.059a10.887,10.887,0,0,1-2.227,4.05c-5.013-.247-9.319-.859-9.2-1.795.543-4.276-6.08-14.744-5.076-21.291A15.11,15.11,0,0,1,92.344,67.118Z" transform="translate(-58.927 -39.077)" fill="#edba32" fill-rule="evenodd"/>
            <path id="Trazado_1295244" data-name="Trazado 1295244" d="M96.649,82.81c1.281.681.976-.061.538-.808-.668-1.14-.649-1.444-.495-1.629.2-.237.625.039,1.433.972a20.968,20.968,0,0,1,3.037,4.3c.2.372-.95,1.894-2.059,2.3a25.4,25.4,0,0,1-6.337-1.723c-.305-.129-1.949-.766-.646-.7.556.028,1.378-.01.754-.376a8.692,8.692,0,0,1-2.232-1.617.249.249,0,0,1,.295-.36c.619.115,2.078.689,2.018.4-.046-.218-1.394-1.152-1.806-1.631-.193-.224.043-.444.408-.343.751.207,2.186,1.214,2.386.957.273-.349-.5-1.089-.907-1.577-.329-.393-.2-.59.321-.424C94.46,80.891,95.48,82.189,96.649,82.81Z" transform="translate(-58.876 -38.81)" fill="#f0ccb3" fill-rule="evenodd"/>
            <path id="Trazado_1295245" data-name="Trazado 1295245" d="M118.8,99.62c-6.759-.554-14.088-6.4-20.023-10.617-.862-.68,1.3-3.326,2.733-3.426,4.767.273,9.73.876,11.916-.575,1.661-1.1,1.728-2.371-4.559-9.02-3.7-3.907-3.127-8.321-.3-10.305,2.2-1.548,6.257-1.4,8.031-.51A28.867,28.867,0,0,1,130.762,81.58C134.227,91.975,129.181,100.471,118.8,99.62Z" transform="translate(-58.716 -39.129)" fill="#eebf2d" fill-rule="evenodd"/>
            <path id="Trazado_1295246" data-name="Trazado 1295246" d="M103.223,90.22c4.535,3.072,9.831,6.262,14.491,6.628,3.21.252,6.5-.4,8.762-2.74,3.241-3.347,2.965-8.5,1.558-12.543a25.89,25.89,0,0,0-6.31-9.859c-2.961-2.914-9.072-7.575-13.458-4.62a3.649,3.649,0,0,0-.832.77c-1.729,2.192-.346,5.058,1.378,6.806a41.311,41.311,0,0,1,4.919,5.62c.783,1.18,1.785,2.959,1.073,4.325a3.693,3.693,0,0,1-1.365,1.375c-2.065,1.3-6.141,1.02-9.4.739C100.7,86.43,100.183,88.16,103.223,90.22Z" transform="translate(-58.662 -39.096)" fill="#f2d04f" fill-rule="evenodd"/>
            <path id="Trazado_1295247" data-name="Trazado 1295247" d="M101.506,94.345H65.344v2.831a1.659,1.659,0,0,0,1.8,1.461H99.712a1.659,1.659,0,0,0,1.8-1.461V94.345Z" transform="translate(-59.387 -38.526)" fill="#293159" fill-rule="evenodd"/>
            <path id="Trazado_1295248" data-name="Trazado 1295248" d="M84.443,78.616H60.972a1.347,1.347,0,0,0-1.4,1.8l4.1,14.028a2.687,2.687,0,0,0,2.445,1.8H89.589a1.347,1.347,0,0,0,1.4-1.8l-4.1-14.028A2.687,2.687,0,0,0,84.443,78.616Z" transform="translate(-59.505 -38.844)" fill="#3c4368" fill-rule="evenodd"/>
            <path id="Trazado_1295249" data-name="Trazado 1295249" d="M76.175,78.616c6.428,6.573,9.341,12.569,8.887,17.619H66.118a2.689,2.689,0,0,1-2.445-1.8l-4.1-14.028a1.347,1.347,0,0,1,1.4-1.8Z" transform="translate(-59.505 -38.844)" fill="#3b527e" fill-rule="evenodd"/>
            <path id="Trazado_1295250" data-name="Trazado 1295250" d="M60.34,84.72c.831-.906,3.1-.355,2.189.927.946.238,1.46.812.9,1.932,1.2.3,1.3.917.715,1.966,1.615.421.766,1.678-.093,2.2-1.166.737-1.86.564-2.346-.034C60.8,90.594,59.27,85.886,60.34,84.72Z" transform="translate(-59.496 -38.73)" fill="#edbc9f" fill-rule="evenodd"/>
          </g>
        </g>
        <g id="Grupo_1235185" data-name="Grupo 1235185" transform="translate(-946.635 1653.395)">
          <path id="Trazado_1295251" data-name="Trazado 1295251" d="M302.583,366.027c0,1.481-13.843,2.682-30.921,2.682s-30.921-1.2-30.921-2.682,13.843-2.682,30.921-2.682S302.583,364.546,302.583,366.027Z" transform="translate(-205.893 -164.996)" fill-rule="evenodd" opacity="0.12"/>
          <g id="Grupo_1235184" data-name="Grupo 1235184" transform="translate(0 0)">
            <path id="Trazado_1295252" data-name="Trazado 1295252" d="M267.387,222.263a2.437,2.437,0,0,0,.21,3.584,31,31,0,0,1,3.3,3.018c.691.767-.354,1.9-.318,2.607.016.334,1.943.355,2.4.42.839.119,1.123-1.226,1.355-3.064a34.086,34.086,0,0,0,.361-3.64,1.212,1.212,0,0,0-.207-.8c-.28-.309-.7,1-.89.633C272.732,223.337,269.654,220.066,267.387,222.263Z" transform="translate(-205.368 -167.862)" fill="#edbc9f" fill-rule="evenodd"/>
            <g id="Grupo_1235182" data-name="Grupo 1235182">
              <path id="Trazado_1295253" data-name="Trazado 1295253" d="M248.325,180.538a30.321,30.321,0,0,0-21.552,51.651,34.861,34.861,0,0,1,3.176,3.469,29.744,29.744,0,0,1,6.587,18.87v.062a71.662,71.662,0,0,0,23.578,0v-.062a30.2,30.2,0,0,1,6.861-19.209,44.4,44.4,0,0,1,3.113-3.345,30.321,30.321,0,0,0-21.761-51.436Z" transform="translate(-206.352 -168.69)" fill="#eebf2d" fill-rule="evenodd"/>
              <circle id="Elipse_11557" data-name="Elipse 11557" cx="28.691" cy="28.691" r="28.691" transform="translate(13.281 13.281)" fill="#f2d04f"/>
              <path id="Trazado_1295254" data-name="Trazado 1295254" d="M247.917,238.555c-5.369,0-9.749-.932-9.749-2.076s4.38-2.076,9.749-2.076,9.749.932,9.749,2.076S253.288,238.555,247.917,238.555Z" transform="translate(-205.945 -167.602)" fill="#f6df68" fill-rule="evenodd"/>
              <path id="Trazado_1295255" data-name="Trazado 1295255" d="M238.3,236.778c.072.172.15.359.233.562a49.276,49.276,0,0,1,3.338,16.844c1.953.162,3.974.248,6.044.248s4.1-.086,6.053-.248A49.5,49.5,0,0,1,257.437,237l.1-.229c-.763.984-4.779,1.735-9.618,1.735S239.074,237.76,238.3,236.778Z" transform="translate(-205.942 -167.554)" fill="#f2d04f" fill-rule="evenodd"/>
              <path id="Trazado_1295256" data-name="Trazado 1295256" d="M208.409,221.075l6.728-1.8a.56.56,0,1,1,.29,1.081l-6.728,1.8a.56.56,0,1,1-.29-1.081ZM239.1,177.769l-1.8-6.728a.56.56,0,1,1,1.081-.29l1.8,6.728a.56.56,0,0,1-1.081.29Zm-8.251,3.575-3.483-6.032a.558.558,0,1,1,.968-.556l3.483,6.032a.558.558,0,1,1-.968.556Zm26.082-3.864,1.8-6.728a.56.56,0,1,1,1.081.29l-1.8,6.728a.56.56,0,0,1-1.081-.29Zm8.365,3.305,3.483-6.033a.56.56,0,0,1,.968.561l-3.483,6.032a.56.56,0,0,1-.968-.561Zm-16.179-11.3v6.966a.56.56,0,1,1-1.12,0v-6.966a.56.56,0,1,1,1.12,0ZM283,210.337h6.966a.56.56,0,1,1,0,1.12H283a.56.56,0,1,1,0-1.12Zm-75.86,0h6.966a.56.56,0,0,1,0,1.12h-6.966a.56.56,0,0,1,0-1.12Zm66.167,24.522,4.926,4.926a.561.561,0,1,1-.793.793l-4.926-4.926a.561.561,0,0,1,.793-.793Zm-53.641-53.641,4.926,4.926a.561.561,0,0,1-.793.793l-4.926-4.926a.561.561,0,0,1,.793-.793Zm59,46.419,6.033,3.483a.559.559,0,0,1-.56.968l-6.033-3.483a.559.559,0,0,1,.56-.968Zm-65.7-37.929L219,193.191a.559.559,0,1,1-.56.967l-6.032-3.483a.559.559,0,1,1,.56-.967Zm69,29.565,6.728,1.8a.56.56,0,0,1-.29,1.081l-6.728-1.8a.56.56,0,1,1,.29-1.081ZM208.7,199.638l6.728,1.8a.56.56,0,0,1-.29,1.081l-6.728-1.8a.56.56,0,1,1,.29-1.081Zm63.818-13.494,4.926-4.926a.561.561,0,0,1,.793.793l-4.926,4.926a.561.561,0,0,1-.793-.793Zm-53.641,53.641,4.926-4.926a.561.561,0,0,1,.793.793l-4.926,4.926a.561.561,0,0,1-.793-.793Zm59.233-46.594,6.032-3.483a.558.558,0,1,1,.556.968l-6.033,3.483a.558.558,0,0,1-.556-.968Zm-65.7,37.929,6.033-3.483a.558.558,0,0,1,.556.968l-6.033,3.483a.558.558,0,0,1-.556-.968Zm76-31.482a.56.56,0,1,1,.29,1.081l-6.728,1.8a.56.56,0,0,1-.29-1.081Z" transform="translate(-206.583 -168.925)" fill="#f6df68" fill-rule="evenodd"/>
              <path id="Trazado_1295257" data-name="Trazado 1295257" d="M259.61,253.214h-.4a71.905,71.905,0,0,1-22.487,0h-.4a.762.762,0,0,0-.759.759v17.943a.821.821,0,0,0,.759.759,61.475,61.475,0,0,0,23.281,0,.826.826,0,0,0,.759-.759V253.973A.76.76,0,0,0,259.61,253.214Z" transform="translate(-205.997 -167.222)" fill="#7b5948" fill-rule="evenodd"/>
              <path id="Trazado_1295258" data-name="Trazado 1295258" d="M243.187,273.193v3.436c0,.144.13.237.284.262a24.767,24.767,0,0,0,8.69,0c.153-.028.284-.118.284-.262v-3.405A61.094,61.094,0,0,1,243.187,273.193Z" transform="translate(-205.843 -166.818)" fill="#976d58" fill-rule="evenodd"/>
              <path id="Trazado_1295259" data-name="Trazado 1295259" d="M234.674,259v4.322c0,.445.37.659.809.659a68.823,68.823,0,0,0,24.8-4.593,1.118,1.118,0,0,0,.809-.958V254.4c0-.444-.027-.86-.586-.645a70.058,70.058,0,0,1-25.248,4.676C234.849,258.431,234.674,258.408,234.674,259Z" transform="translate(-206.015 -167.212)" fill="#976d58" fill-rule="evenodd"/>
              <path id="Trazado_1295260" data-name="Trazado 1295260" d="M234.674,266.886v4.322c0,.445.37.659.809.659a68.823,68.823,0,0,0,24.8-4.593,1.118,1.118,0,0,0,.809-.958v-4.03c0-.444-.027-.86-.586-.645a70.058,70.058,0,0,1-25.248,4.676C234.849,266.316,234.674,266.293,234.674,266.886Z" transform="translate(-206.015 -167.052)" fill="#976d58" fill-rule="evenodd"/>
              <path id="Trazado_1295261" data-name="Trazado 1295261" d="M269.709,223.133a25.681,25.681,0,0,0,2.057-21.05,8.282,8.282,0,0,0-4.378-5.2c-3.973-1.555-8.628.984-5.87,7.809a15.119,15.119,0,0,1-2.169,15.031,4.46,4.46,0,0,0,1.49,7.017C263.454,227.917,267.572,226.833,269.709,223.133Z" transform="translate(-205.539 -168.369)" fill="#f6df68" fill-rule="evenodd"/>
              <path id="Trazado_1295262" data-name="Trazado 1295262" d="M256.072,197.294a5.344,5.344,0,1,1,5.344-5.344A5.354,5.354,0,0,1,256.072,197.294Z" transform="translate(-205.691 -168.568)" fill="#f6df68" fill-rule="evenodd"/>
              <path id="Trazado_1295263" data-name="Trazado 1295263" d="M242.315,237.16c1.174-4.757.632-10.446-.974-15.966a48.662,48.662,0,0,0-5.989-13.016l-.185-.008a11.836,11.836,0,0,1-3.23-.6,6.324,6.324,0,0,1-2.384-1.378c-.093-.093-.176-.184-.249-.271a2.859,2.859,0,0,1-.718-1.659,1.884,1.884,0,0,1,.5-1.423l.035-.038c.032-.032.071-.067.118-.106a2.171,2.171,0,0,1,2.064-.33,5.268,5.268,0,0,1,2.412,1.747l.042.048c.756.9,1.494,1.878,2.2,2.92a9.29,9.29,0,0,0,3.162-.488,6.1,6.1,0,0,1-1.376-2.07,6.931,6.931,0,0,1-.5-2.764,5.358,5.358,0,0,1,.627-2.468A2.786,2.786,0,0,1,240,197.777a3.078,3.078,0,0,1,3.071,2.1,5.81,5.81,0,0,1-.217,5,5.6,5.6,0,0,1-1.582,1.825,4.8,4.8,0,0,0,.635.225,8.229,8.229,0,0,0,1.959.219,10.666,10.666,0,0,0,2.183-.172,5,5,0,0,0,.922-.289,5.555,5.555,0,0,1-2.07-3.134,5.923,5.923,0,0,1-.105-2.294,5.143,5.143,0,0,1,.724-1.99,2.731,2.731,0,0,1,4.987.231,5.572,5.572,0,0,1,.517,2.425,6.861,6.861,0,0,1-.54,2.667,6.04,6.04,0,0,1-1.357,2q.193.07.4.132a10.661,10.661,0,0,0,2.777.4,7,7,0,0,0,2.357-.316c.094-.034.187-.069.276-.108a5.593,5.593,0,0,1-1.569-1.815,5.815,5.815,0,0,1-.218-5,3.078,3.078,0,0,1,3.071-2.1,2.731,2.731,0,0,1,2.012,1.311,5.111,5.111,0,0,1,.741,2.486,6.9,6.9,0,0,1-.457,2.844,6.089,6.089,0,0,1-1.421,2.167,9.283,9.283,0,0,0,3.171.491c.706-1.035,1.44-2.008,2.19-2.9l.021-.022a5.3,5.3,0,0,1,2.445-1.786,2.174,2.174,0,0,1,2.053.32l.011.009a1.415,1.415,0,0,1,.117.108,1.882,1.882,0,0,1,.53,1.459,2.855,2.855,0,0,1-.717,1.66c-.073.088-.157.179-.25.27a6.324,6.324,0,0,1-2.384,1.378,11.837,11.837,0,0,1-3.23.6l-.185.008a48.69,48.69,0,0,0-5.989,13.016c-1.606,5.52-2.15,11.209-.974,15.966a.559.559,0,1,1-1.085.267c-1.224-4.958-.669-10.849.988-16.544a50.123,50.123,0,0,1,5.731-12.711,9.219,9.219,0,0,1-3.472-.8,5.842,5.842,0,0,1-1.035.485,8.1,8.1,0,0,1-2.742.376,11.807,11.807,0,0,1-3.079-.442,7.7,7.7,0,0,1-1.11-.422,5.993,5.993,0,0,1-1.821.7,11.9,11.9,0,0,1-2.428.194A9.31,9.31,0,0,1,241.6,208a5.911,5.911,0,0,1-1.463-.628,9.248,9.248,0,0,1-3.459.8,50.086,50.086,0,0,1,5.731,12.711c1.657,5.695,2.212,11.586.988,16.544a.557.557,0,1,1-1.081-.267Zm-9.424-32.294-.032-.04a4.182,4.182,0,0,0-1.875-1.395,1.1,1.1,0,0,0-1.03.114l-.065.061a.792.792,0,0,0-.185.587,1.746,1.746,0,0,0,.458,1c.057.068.118.135.18.2a5.211,5.211,0,0,0,1.96,1.116,10.25,10.25,0,0,0,2.238.488q-.8-1.125-1.649-2.131Zm8.978-.521a4.625,4.625,0,0,0,.547-2.083,4.541,4.541,0,0,0-.369-1.934,2.022,2.022,0,0,0-1.927-1.441,1.711,1.711,0,0,0-1.278.949,4.238,4.238,0,0,0-.484,1.942,5.782,5.782,0,0,0,.422,2.317,4.887,4.887,0,0,0,1.436,1.968,4.564,4.564,0,0,0,1.653-1.718Zm7.588-.193a5.773,5.773,0,0,0,.451-2.23,4.455,4.455,0,0,0-.4-1.934,1.783,1.783,0,0,0-1.36-1.1,1.807,1.807,0,0,0-1.681.979,4.048,4.048,0,0,0-.559,1.557,4.8,4.8,0,0,0,.083,1.861,4.5,4.5,0,0,0,2.047,2.772,4.794,4.794,0,0,0,1.424-1.9Zm8.017-.144a5.757,5.757,0,0,0,.384-2.38,3.988,3.988,0,0,0-.562-1.934,1.649,1.649,0,0,0-1.193-.808,2.022,2.022,0,0,0-1.927,1.441,4.542,4.542,0,0,0-.368,1.935,4.626,4.626,0,0,0,.547,2.083A4.556,4.556,0,0,0,256,206.057a4.884,4.884,0,0,0,1.475-2.049Zm8.405,1.386c.062-.062.122-.128.18-.2a1.767,1.767,0,0,0,.459-1,.779.779,0,0,0-.206-.607l-.044-.041a1.1,1.1,0,0,0-1.03-.114,4.194,4.194,0,0,0-1.9,1.428l-.022.025q-.834.995-1.633,2.112a10.252,10.252,0,0,0,2.238-.488A5.224,5.224,0,0,0,265.88,205.4Z" transform="translate(-206.138 -168.342)" fill="#e59222" fill-rule="evenodd"/>
            </g>
            <path id="Trazado_1295264" data-name="Trazado 1295264" d="M253.456,357.618h6.72a11,11,0,0,0-2.3,4.511c-.312,1.168-7.7,1.242-6.72,0A7.352,7.352,0,0,0,253.456,357.618Z" transform="translate(-205.684 -165.112)" fill="#f0ccb3" fill-rule="evenodd"/>
            <path id="Trazado_1295265" data-name="Trazado 1295265" d="M249.049,361.974a52.737,52.737,0,0,0,9.452-1.149,2.586,2.586,0,0,1,2.648,2.519A2.485,2.485,0,0,1,260,365.418H246.15a2.121,2.121,0,0,1-.209-.914A2.863,2.863,0,0,1,249.049,361.974Z" transform="translate(-205.788 -165.047)" fill="#3d66b7" fill-rule="evenodd"/>
            <path id="Trazado_1295266" data-name="Trazado 1295266" d="M249.049,361.974a52.737,52.737,0,0,0,9.452-1.149,2.745,2.745,0,0,1,1.117.235c-2.573,2.725-8.482,3.763-13.621,3.926a2.1,2.1,0,0,1-.056-.482A2.863,2.863,0,0,1,249.049,361.974Z" transform="translate(-205.788 -165.047)" fill="#30519f" fill-rule="evenodd"/>
            <path id="Trazado_1295267" data-name="Trazado 1295267" d="M246.63,366.078H259.68a.481.481,0,0,0,.479-.479v-.27H246.15v.27A.481.481,0,0,0,246.63,366.078Z" transform="translate(-205.783 -164.956)" fill="#293159" fill-rule="evenodd"/>
            <path id="Trazado_1295268" data-name="Trazado 1295268" d="M288.16,357.618h6.719a8.094,8.094,0,0,0,.667,4.511c.456,1.168-6.887,1.242-6.72,0A5.462,5.462,0,0,0,288.16,357.618Z" transform="translate(-204.934 -165.112)" fill="#f0ccb3" fill-rule="evenodd"/>
            <path id="Trazado_1295269" data-name="Trazado 1295269" d="M285.9,361.974a52.722,52.722,0,0,0,9.452-1.149A2.586,2.586,0,0,1,298,363.344a2.485,2.485,0,0,1-1.145,2.074H283a2.121,2.121,0,0,1-.209-.914A2.863,2.863,0,0,1,285.9,361.974Z" transform="translate(-205.043 -165.047)" fill="#3d66b7" fill-rule="evenodd"/>
            <path id="Trazado_1295270" data-name="Trazado 1295270" d="M285.9,361.974a52.722,52.722,0,0,0,9.452-1.149,2.736,2.736,0,0,1,1.116.235c-2.573,2.725-8.482,3.763-13.621,3.926a2.1,2.1,0,0,1-.056-.482A2.865,2.865,0,0,1,285.9,361.974Z" transform="translate(-205.043 -165.047)" fill="#30519f" fill-rule="evenodd"/>
            <path id="Trazado_1295271" data-name="Trazado 1295271" d="M283.479,366.078H296.53a.481.481,0,0,0,.479-.479v-.27H283v.27A.481.481,0,0,0,283.479,366.078Z" transform="translate(-205.039 -164.956)" fill="#293159" fill-rule="evenodd"/>
            <path id="Trazado_1295272" data-name="Trazado 1295272" d="M288,360.4c1.075,1.121,6.687.03,7.478-.638,1.409-4.622.333-18-1.957-23.162-1.058-2.384-2.2-5.778-1.9-7.789,1.612-11.043,5.14-18.976,3.449-25.534-4.747-18.413-25.376-12.26-22.386-.761,2.767,10.643,3.466,21.871,4.857,33.15C282.969,344.148,284.011,351.285,288,360.4Z" transform="translate(-205.253 -166.446)" fill="#233584" fill-rule="evenodd"/>
            <path id="Trazado_1295273" data-name="Trazado 1295273" d="M281.779,291.607c-5.729.314-10.663,4.873-9.1,10.905,2.636,10.141,3.4,20.814,4.664,31.555,2.52-3.388,6.587-8.71,9.052-12.2,7.465-10.562,7.157-22.7-1.195-28.685A9.854,9.854,0,0,0,281.779,291.607Z" transform="translate(-205.253 -166.446)" fill="#293159" fill-rule="evenodd"/>
            <path id="Trazado_1295274" data-name="Trazado 1295274" d="M252.864,358.623c.483,1.122,6.816,1.72,7.96,1.052,2.751-3.3,5.935-6.7,8.325-10.75,2.418-4.093,1.795-10.278,4.844-13.888,2.751-3.258,8.073-9.322,11.208-13.162,8.622-10.562,9.643-22.7,1.948-28.685-5.827-4.535-15.883-.542-18.532,9.327C263.323,322.237,261.231,340.757,252.864,358.623Z" transform="translate(-205.648 -166.451)" fill="#30519f" fill-rule="evenodd"/>
            <path id="Trazado_1295275" data-name="Trazado 1295275" d="M284.028,249.886c1.765,2.157,2.807,4.03.753,6.686a15.321,15.321,0,0,0,8.813.313c-1.306-3.425-.318-7.858-2.1-10.285C289.76,247.128,285.712,249.223,284.028,249.886Z" transform="translate(-205.018 -167.355)" fill="#e8a382" fill-rule="evenodd"/>
            <path id="Trazado_1295276" data-name="Trazado 1295276" d="M289.3,234.752c2.208,1.57,4.551,10.713,2.99,13.33-.625,1.05-2.219,1.306-3.683,1.694-2.187.577-4.47.868-5.871-.129-2.914-2.071-.984-4.79-.138-8.066C284.025,236.077,288.059,233.866,289.3,234.752Z" transform="translate(-205.075 -167.599)" fill="#f0ccb3" fill-rule="evenodd"/>
            <path id="Trazado_1295277" data-name="Trazado 1295277" d="M285.422,251.833c.7,1.408.729,2.844-.657,4.638a12.767,12.767,0,0,0,5.818.392c-1.111-2.532-2.532-4.605-3.959-5.158A1.512,1.512,0,0,0,285.422,251.833Z" transform="translate(-205.003 -167.254)" fill="#edbc9f" fill-rule="evenodd"/>
            <path id="Trazado_1295278" data-name="Trazado 1295278" d="M291.174,251.847c-1.913-1.925-.833-3.426.216-4.608.9-1.012,1.8-2.14.758-2.748-.951-.557-2.36-.867-2.221-2.221.091-.89,1.121-1.358.627-2.81-.959-2.817-3.122-2.455-4.624-3.436-1.422-.929-1.5-3.364-.27-5.058,2.375-3.276,9.355-2.438,10.053,2.082a3.646,3.646,0,0,0,.777,2c1.214,1.284,2.793-.383,4.115,1.813.8,1.328-.392,2.363-.59,3.142a2.631,2.631,0,0,0,.649,2.874,2.8,2.8,0,0,1,1.155,2.115c.092,2.277-1.669,2.627-3.235,3.546-1.085.637-2.058,1.463-1.874,2.652C297.49,256.222,290.741,255.773,291.174,251.847Z" transform="translate(-205.002 -167.711)" fill="#293159" fill-rule="evenodd"/>
            <path id="Trazado_1295279" data-name="Trazado 1295279" d="M287.211,250.05c1.63-3.832.634-9.846-2.262-13.243a12.031,12.031,0,0,0-2.346,4.729c-.847,3.276-2.776,5.995.138,8.066C283.845,250.386,285.493,250.373,287.211,250.05Z" transform="translate(-205.075 -167.553)" fill="#f4ddcc" fill-rule="evenodd"/>
            <g id="Grupo_1235183" data-name="Grupo 1235183" transform="translate(85.773 75.966)">
              <path id="Trazado_1295280" data-name="Trazado 1295280" d="M292.476,243.451c1.125.342,1.147,1.61.909,2.717a1.886,1.886,0,0,1-2.163,1.5.94.94,0,0,1-.565-.491,8.888,8.888,0,0,0,.354-3.074A1.176,1.176,0,0,1,292.476,243.451Z" transform="translate(-290.657 -243.386)" fill="#f0ccb3" fill-rule="evenodd"/>
              <path id="Trazado_1295281" data-name="Trazado 1295281" d="M292.018,244.185c.691.21.7.989.558,1.669a1.178,1.178,0,0,1-1.261.937,1.931,1.931,0,0,0,.281-.665,3.387,3.387,0,0,0-.041-1.946A.734.734,0,0,1,292.018,244.185Z" transform="translate(-290.644 -243.371)" fill="#e8a382" fill-rule="evenodd"/>
            </g>
            <path id="Trazado_1295282" data-name="Trazado 1295282" d="M284.9,277.3c-22.877-.878-19.177-41.96-14.349-46.571.7-.185,3.167-.178,3.577.312.694,6.149,4.429,21.775,11.629,25.025,3.578,1.615,5.762-.969,10.1,2.639C303.145,264.77,296.04,277.726,284.9,277.3Z" transform="translate(-205.364 -167.678)" fill="#56973e" fill-rule="evenodd"/>
            <path id="Trazado_1295283" data-name="Trazado 1295283" d="M273.8,234.849a62.032,62.032,0,0,0,2.554,9.539c1.143,3.2,2.9,7.145,5.474,9.9,1.862,1.994,1.294,2.911.336,3.6-.865.618-7.279,5.159-7.451,5.224-1.295.495-2.386.157-3.027-1.8a36.085,36.085,0,0,1-1.447-7.374,55.412,55.412,0,0,1,.382-14.369,40.361,40.361,0,0,1,1.074-4.712C272.453,232.355,273.312,232.152,273.8,234.849Z" transform="translate(-205.303 -167.632)" fill="#6aaf58" fill-rule="evenodd"/>
            <path id="Trazado_1295284" data-name="Trazado 1295284" d="M284.784,276.784a15.286,15.286,0,0,1-12.3-6.623c4.383-7.078,9.511-12.816,15.256-14.053,2.489.246,4.573-.77,8,2.082C303.032,264.254,295.927,277.211,284.784,276.784Z" transform="translate(-205.251 -167.163)" fill="#44793b" fill-rule="evenodd"/>
            <path id="Trazado_1295285" data-name="Trazado 1295285" d="M268.093,300.674c-1.4,2.254,27.086,8.349,28.881,3.966,2.609-6.367,6.042-15.642,6.626-25.182.727-11.862-2.607-23.54-13.421-23.6C274.447,255.779,270.644,290.563,268.093,300.674Z" transform="translate(-205.341 -167.168)" fill="#64a950" fill-rule="evenodd"/>
            <path id="Trazado_1295286" data-name="Trazado 1295286" d="M285.152,305.713c5.713.707,10.8.649,11.529-1.124,2.609-6.367,6.042-15.642,6.626-25.182.451-7.356-.784-14.444-4.272-18.931-3.2-4.118-3.42-1.467-3.192,1.587.649,8.694-2.025,12.5-7.7,29.565C285.469,299.655,278.887,304.937,285.152,305.713Z" transform="translate(-205.048 -167.118)" fill="#70b65d" fill-rule="evenodd"/>
            <path id="Trazado_1295287" data-name="Trazado 1295287" d="M275.124,271.579a116.741,116.741,0,0,0-4.36,15.829c12.112.039,25.053-3.55,28.728-15.424,2.666-8.614-2.144-14.985-8.922-14.876-9.748.157-8.709,9.54-13.563,13.221A19.327,19.327,0,0,1,275.124,271.579Z" transform="translate(-205.286 -167.143)" fill="#4d873c" fill-rule="evenodd"/>
            <path id="Trazado_1295288" data-name="Trazado 1295288" d="M248.452,275.8c-1.585-.473-4.892.215-6.463-.228a12.193,12.193,0,0,0-3.163-.358,8.248,8.248,0,0,0-1.381.166c-.35.069-.664.2-.8-.32-.11-.421.265-.935.544-1.278a5.205,5.205,0,0,1,4.045-1.52c.308.013.592.024,1.508.068.374.017,1.079.178,1.387-.145.5-.519-1-1.253-1.378-1.623-.364-.354-.563-.751-.14-1.116.79-.681,2.4.429,3.239,1.3a9.629,9.629,0,0,0,3.63,2.209C249.964,273.625,249.43,275.914,248.452,275.8Z" transform="translate(-205.976 -166.898)" fill="#f0ccb3" fill-rule="evenodd"/>
            <path id="Trazado_1295289" data-name="Trazado 1295289" d="M299.958,271.927c-7.1,22.2-48.769,9.9-52.253,4.2,0-.728.672-3.136,1.293-3.434,6.574.619,21.54-.217,28.476-4.758,4.853-3.178,3.814-12.668,13.563-11.812C297.814,256.719,302.624,263.59,299.958,271.927Z" transform="translate(-205.752 -167.164)" fill="#64a950" fill-rule="evenodd"/>
            <path id="Trazado_1295290" data-name="Trazado 1295290" d="M258.179,276.249c7.538-.56,16.176-2.325,21-5.58a8.441,8.441,0,0,0,1.068-.856c1.73-1.626,2.679-3.788,3.721-5.865,1.756-3.5,3.26-5.307,7.518-5.017a8.211,8.211,0,0,1,4.14,1.432c3.776,2.617,4.408,7.453,3.073,11.658a14.524,14.524,0,0,1-4.4,6.746c-5.317,4.587-13.693,5.348-20.335,4.989a62.981,62.981,0,0,1-16.071-3.029C252.4,278.908,251.486,276.747,258.179,276.249Z" transform="translate(-205.636 -167.107)" fill="#70b65d" fill-rule="evenodd"/>
            <path id="Trazado_1295291" data-name="Trazado 1295291" d="M290.595,360.374a41.449,41.449,0,0,1-5.513-14.379c-2.408-15.4,2.458-25.41,8.962-30.73-.848,3.839-1.947,8.143-2.665,13.064-.294,2.011.847,5.406,1.9,7.789,2.289,5.16,3.366,18.54,1.957,23.162A12.237,12.237,0,0,1,290.595,360.374Z" transform="translate(-205.009 -165.968)" fill="#2b4896" fill-rule="evenodd"/>
            <path id="Trazado_1295292" data-name="Trazado 1295292" d="M258.115,358.968c2.048-8.9,3.376-19.293,9.563-26.777a59.488,59.488,0,0,1,2.033-8.369c4.844-14.838,17.148-20.337,21.042-11.947a34.137,34.137,0,0,1-5.656,9.665c-3.135,3.84-8.457,9.9-11.208,13.162-3.049,3.611-2.426,9.8-4.844,13.888-2.39,4.047-5.574,7.449-8.325,10.75a6.466,6.466,0,0,1-2.709.264A4.845,4.845,0,0,1,258.115,358.968Z" transform="translate(-205.544 -166.116)" fill="#385fa7" fill-rule="evenodd"/>
          </g>
        </g>
        <g id="Grupo_1235191" data-name="Grupo 1235191" transform="translate(-1137.55 1772.719)">
          <ellipse id="Elipse_11558" data-name="Elipse 11558" cx="48.553" cy="4.211" rx="48.553" ry="4.211" transform="translate(2.288 75.966)" opacity="0.12"/>
          <g id="Grupo_1235190" data-name="Grupo 1235190" transform="translate(0 0)">
            <g id="Grupo_1235189" data-name="Grupo 1235189">
              <g id="Grupo_1235186" data-name="Grupo 1235186" transform="translate(11.471 24.104)">
                <path id="Trazado_1295293" data-name="Trazado 1295293" d="M94.994,314.728a2.745,2.745,0,0,1-3.514,1.836,36.446,36.446,0,0,0-4.826-1.25c-1.138-.185-1.583,1.39-2.274,1.757-.325.173-1.5-1.537-1.831-1.909-.614-.683.489-1.7,2.088-2.941a37.927,37.927,0,0,1,3.226-2.378,1.409,1.409,0,0,1,.878-.266c.459.076-.533,1.192-.066,1.153C90.787,310.557,95.718,311.462,94.994,314.728Z" transform="translate(-29.649 -309.51)" fill="#edbc9f" fill-rule="evenodd"/>
                <path id="Trazado_1295294" data-name="Trazado 1295294" d="M33.373,330.255c14.492,19.958,51.122-6.551,52.6-13.47-.247-.735-1.723-2.932-2.432-3.022-6.227,2.852-23.231,8.338-30.6,3.735-3.664-2.286-2.525-5.7-8.528-7.54C34.322,306.864,26.314,320.532,33.373,330.255Z" transform="translate(-30.694 -309.512)" fill="#ebae29" fill-rule="evenodd"/>
                <path id="Trazado_1295295" data-name="Trazado 1295295" d="M79.616,316.051a72.285,72.285,0,0,1-10.544,3.1c-3.707.786-8.488,1.44-12.63.7-3-.539-3.524.487-3.6,1.729-.068,1.122-.532,9.422-.491,9.612.305,1.436,1.276,2.222,3.51,1.689a41.783,41.783,0,0,0,7.836-2.871,62.271,62.271,0,0,0,13.357-8.456,44.305,44.305,0,0,0,3.815-3.622C82.778,315.848,82.456,314.966,79.616,316.051Z" transform="translate(-30.256 -309.389)" fill="#eebf2d" fill-rule="evenodd"/>
              </g>
              <path id="Trazado_1295296" data-name="Trazado 1295296" d="M33.373,330.255c4.245,5.846,10.391,7.7,16.995,7.234-.215-5.707.653-13.672-.132-20.093a17.5,17.5,0,0,0-1.2-4.541,8.706,8.706,0,0,0-4.626-2.9C34.322,306.864,26.314,320.532,33.373,330.255Z" transform="translate(-19.223 -285.408)" fill="#e59222" fill-rule="evenodd"/>
              <path id="Trazado_1295297" data-name="Trazado 1295297" d="M100.357,353.855l-1.435,6.565c1.48.1,5.893,1.295,7.255,2.282,1.043.695,2.684-6.463,1.434-6.565C106.092,356.291,101.686,355.045,100.357,353.855Z" transform="translate(-17.844 -284.512)" fill="#f0ccb3" fill-rule="evenodd"/>
              <path id="Trazado_1295298" data-name="Trazado 1295298" d="M104.166,352.9c1.369.926-.926,8.635-1.507,9.5a96.237,96.237,0,0,1-21.89-3.247,34.107,34.107,0,0,1-9.42-4.832c-11.485,2.985-11.44,12.177-30.059,11.668-20.5-.56-15.509-21.916-2.789-20.392,11.773,1.41,24.13-6.818,36.356-6.852C84.772,343.07,93.819,350.079,104.166,352.9Z" transform="translate(-19.289 -284.817)" fill="#233584" fill-rule="evenodd"/>
              <path id="Trazado_1295299" data-name="Trazado 1295299" d="M97.6,351.645c-8.2-3.413-15.507-8.563-23.573-12.114-5.041.078-10.132,1.593-14.909,3.073a9.937,9.937,0,0,0-6.892,7.038c-3.254,10.957-.7,14.378,7.979,7.754,3.334-2.543,6.1-4.357,10.241-5.434a1.659,1.659,0,0,1,1.3.215c.077.047.151.1.224.148.187.129.372.26.559.39a28.93,28.93,0,0,0,8.187,4.092c2.006.594,4.059,1.06,6.113,1.455,3.009.578,6.062,1.01,9.108,1.322C103.962,360.406,105.877,355.086,97.6,351.645Z" transform="translate(-18.815 -284.801)" fill="#2b4896" fill-rule="evenodd"/>
              <path id="Trazado_1295300" data-name="Trazado 1295300" d="M37.985,365.584c-16.584-2.66-11.467-21.526.517-20.091,4.338.519,8.755-.269,13.216-1.475a1.761,1.761,0,0,0,.6.158C55.077,343.188,46.75,357.166,37.985,365.584Z" transform="translate(-19.289 -284.711)" fill="#293159" fill-rule="evenodd"/>
              <g id="Grupo_1235187" data-name="Grupo 1235187" transform="translate(85.914 67.485)">
                <path id="Trazado_1295301" data-name="Trazado 1295301" d="M109.363,353.859a52.762,52.762,0,0,1-5.387,7.852,2.586,2.586,0,0,0,1.01,3.513,2.483,2.483,0,0,0,2.368-.057l6.4-12.286a2.1,2.1,0,0,0-.714-.608A2.865,2.865,0,0,0,109.363,353.859Z" transform="translate(-103.662 -352.033)" fill="#30519f" fill-rule="evenodd"/>
                <path id="Trazado_1295302" data-name="Trazado 1295302" d="M109.363,353.859a52.76,52.76,0,0,1-5.387,7.852,2.749,2.749,0,0,0-.308,1.1c3.605-1.022,7.257-5.783,9.777-10.264a2.1,2.1,0,0,0-.4-.272A2.864,2.864,0,0,0,109.363,353.859Z" transform="translate(-103.662 -352.033)" fill="#3d66b7" fill-rule="evenodd"/>
                <path id="Trazado_1295303" data-name="Trazado 1295303" d="M114.127,353.639l-6.033,11.573a.48.48,0,0,1-.647.2l-.24-.124,6.476-12.424.24.124A.482.482,0,0,1,114.127,353.639Z" transform="translate(-103.591 -352.016)" fill="#293159" fill-rule="evenodd"/>
              </g>
              <path id="Trazado_1295304" data-name="Trazado 1295304" d="M65.43,337.021H84.8a.484.484,0,0,1,.483.483v1.091a.484.484,0,0,1-.483.483H65.43a.484.484,0,0,1-.483-.483V337.5A.483.483,0,0,1,65.43,337.021Z" transform="translate(-18.531 -284.852)" fill="#3c4368" fill-rule="evenodd"/>
              <path id="Trazado_1295305" data-name="Trazado 1295305" d="M52.476,344.756c3.646.039-12.038,19.044-22.536,18.8-7.209-6.866-11.844-21.007-10.135-34.634C21.64,314.281,30.84,305.272,38.243,305.5c6.15.188,9.956,6.5,10.795,11.977C50.65,328.008,47.946,342.691,52.476,344.756Z" transform="translate(-19.45 -285.489)" fill="#ebae29" fill-rule="evenodd"/>
              <path id="Trazado_1295306" data-name="Trazado 1295306" d="M52.366,344.614c.617.006.678.558.308,1.465-11.708-.026-26.355-4.32-27.7-18.872-.81-8.74,5.163-15.639,10.775-14.593,8.072,1.5,5.678,10.479,9.11,14.729a21.269,21.269,0,0,0,4.676,4.113C49.543,337.916,49.725,343.41,52.366,344.614Z" transform="translate(-19.34 -285.347)" fill="#e8a026" fill-rule="evenodd"/>
              <path id="Trazado_1295307" data-name="Trazado 1295307" d="M75.685,332.375c-3.134-.158-11.113.444-11.114,2.815,0,1.822,1.822,2.6,3.812,2.6.859,0,2.241-.232,2.708-.96a16.64,16.64,0,0,1,2.028-2.293,5.787,5.787,0,0,1,2.867-.976c.41-.028,1.3.043,1.413-.381C77.576,332.532,76.213,332.4,75.685,332.375Z" transform="translate(-18.538 -284.946)" fill="#edbc9f" fill-rule="evenodd"/>
              <path id="Trazado_1295308" data-name="Trazado 1295308" d="M24.97,327.223c2.157,23.018,38.327,15.783,42.091,10.638.119-.722.424-3.886-.032-4.27-5.451-.33-17.27-3.083-22.174-8.58-3.431-3.845-1.038-13.1-9.11-13.653C30.134,310.974,24.16,318.577,24.97,327.223Z" transform="translate(-19.34 -285.371)" fill="#eebf2d" fill-rule="evenodd"/>
              <path id="Trazado_1295309" data-name="Trazado 1295309" d="M58.081,334.047c-5.919-1.485-12.232-4.178-15.5-7.839-1.655-1.855-2.155-4.532-2.7-6.882-.757-3.273-1.472-5.978-5.33-6.242-2.594-.176-4.98,1.91-6.388,3.882a15.389,15.389,0,0,0-2.689,10.242,14.1,14.1,0,0,0,4.813,9.839c3.86,3.282,9.411,4.421,14.349,4.6a45.68,45.68,0,0,0,13.168-1.481C69.252,337.119,65.136,335.816,58.081,334.047Z" transform="translate(-19.33 -285.336)" fill="#f1cc43" fill-rule="evenodd"/>
              <path id="Trazado_1295310" data-name="Trazado 1295310" d="M83.607,337.322l7.95-30a.484.484,0,0,1,.591-.343l1.055.28a.485.485,0,0,1,.343.591l-7.95,30a.485.485,0,0,1-.591.344l-1.055-.28A.486.486,0,0,1,83.607,337.322Z" transform="translate(-18.154 -285.46)" fill="#3c4368" fill-rule="evenodd"/>
              <path id="Trazado_1295311" data-name="Trazado 1295311" d="M49.631,304.15c-1.6,1.233-5.393,2.412-5.1,5.968-.9.515-9-.5-9.265-2.98,1.483-4.174,6.566-8.678,9.271-10.173C45.828,298.4,48.445,302.608,49.631,304.15Z" transform="translate(-19.13 -285.661)" fill="#e8a382" fill-rule="evenodd"/>
              <path id="Trazado_1295312" data-name="Trazado 1295312" d="M55.537,293.192c-2.624-.674-11.121,3.434-12.115,6.315-.4,1.155.434,2.537,1.082,3.905.97,2.044,2.221,3.976,3.886,4.4C53.714,309.184,59.562,294.226,55.537,293.192Z" transform="translate(-18.968 -285.739)" fill="#f0ccb3" fill-rule="evenodd"/>
              <path id="Trazado_1295313" data-name="Trazado 1295313" d="M42.542,310.1c1.018-2.97.709-5.559-1.531-7.159a6.688,6.688,0,0,0-2.578-.9,16.331,16.331,0,0,0-3.166,5C35.459,308.848,39.848,309.879,42.542,310.1Z" transform="translate(-19.13 -285.559)" fill="#edbc9f" fill-rule="evenodd"/>
              <path id="Trazado_1295314" data-name="Trazado 1295314" d="M41.443,302.81c2.7.219,3.157-1.573,3.381-3.138.193-1.341.476-2.754,1.611-2.353,1.039.367,2.184,1.244,3.13.265.621-.644.314-1.732,1.743-2.291,2.771-1.083,3.889.8,5.609,1.316,1.628.488,3.537-1.024,4.039-3.057.97-3.929-4.173-8.722-8.076-6.339a3.649,3.649,0,0,1-2.026.694c-1.764-.1-1.51-2.381-4.039-1.974-1.53.246-1.553,1.824-2.021,2.477a2.63,2.63,0,0,1-2.615,1.358,2.808,2.808,0,0,0-2.361.483c-1.8,1.4-.93,2.97-.622,4.759.213,1.24.209,2.516-.817,3.142C34.026,300.807,38.724,305.674,41.443,302.81Z" transform="translate(-19.103 -285.885)" fill="#293159" fill-rule="evenodd"/>
              <path id="Trazado_1295315" data-name="Trazado 1295315" d="M45.127,304.6c1.876-3.718,7-6.835,11.466-6.815a19.392,19.392,0,0,1-3.052,6.886c-1.47,2.053-3.349,3.527-5.187,3.054C47.044,307.385,45.989,306.117,45.127,304.6Z" transform="translate(-18.931 -285.645)" fill="#f4ddcc" fill-rule="evenodd"/>
              <g id="Grupo_1235188" data-name="Grupo 1235188" transform="translate(24.546 10.381)">
                <path id="Trazado_1295316" data-name="Trazado 1295316" d="M46.581,296.291c-.988-.639-1.97.162-2.663,1.058a1.885,1.885,0,0,0,.252,2.619.934.934,0,0,0,.74.114,8.853,8.853,0,0,1,2.121-2.253A1.179,1.179,0,0,0,46.581,296.291Z" transform="translate(-43.51 -296.06)" fill="#f0ccb3" fill-rule="evenodd"/>
                <path id="Trazado_1295317" data-name="Trazado 1295317" d="M46.277,297.1c-.606-.392-1.21.1-1.635.65a1.177,1.177,0,0,0,.1,1.568,1.927,1.927,0,0,1,.326-.643,3.4,3.4,0,0,1,1.513-1.224A.723.723,0,0,0,46.277,297.1Z" transform="translate(-43.492 -296.042)" fill="#e8a382" fill-rule="evenodd"/>
              </g>
              <path id="Trazado_1295318" data-name="Trazado 1295318" d="M40.755,358.6c-1.4-1.931-3.084-3.9-4.277-5.839-3.92-6.367-10.459-13.481-17.024-19.072-.105,11.854,4.218,23.33,10.487,29.3C33.283,363.066,37.152,361.19,40.755,358.6Z" transform="translate(-19.45 -284.919)" fill="#eebf2d" fill-rule="evenodd"/>
            </g>
          </g>
        </g>
      </g>
    </g>
  </g>
</svg>
