<svg xmlns="http://www.w3.org/2000/svg" xmlns:xlink="http://www.w3.org/1999/xlink" width="108" height="108" viewBox="0 0 108 108">
  <defs>
    <filter id="Trazado_904820" x="0" y="0" width="108" height="108" filterUnits="userSpaceOnUse">
      <feOffset dy="3" input="SourceAlpha"/>
      <feGaussianBlur stdDeviation="3" result="blur"/>
      <feFlood flood-opacity="0.161"/>
      <feComposite operator="in" in2="blur"/>
      <feComposite in="SourceGraphic"/>
    </filter>
  </defs>
  <g id="Grupo_1242176" data-name="Grupo 1242176" transform="translate(-197 -7448.06)">
    <g id="Grupo_1241241" data-name="Grupo 1241241" transform="translate(206 7454.06)">
      <g id="Grupo_1235053" data-name="Grupo 1235053" transform="translate(0 0)">
        <g id="Grupo_1233818" data-name="Grupo 1233818">
          <g id="Grupo_1228307" data-name="Grupo 1228307">
            <g id="Grupo_1228100" data-name="Grupo 1228100">
              <g id="Grupo_1221597" data-name="Grupo 1221597">
                <g id="Grupo_1219744" data-name="Grupo 1219744">
                  <g id="Grupo_1202418" data-name="Grupo 1202418">
                    <g id="Grupo_1177315" data-name="Grupo 1177315">
                      <g id="Grupo_1173585" data-name="Grupo 1173585">
                        <g id="Grupo_1173428" data-name="Grupo 1173428">
                          <g id="Grupo_1171958" data-name="Grupo 1171958">
                            <g id="Grupo_1167341" data-name="Grupo 1167341">
                              <g id="Grupo_1166792" data-name="Grupo 1166792">
                                <g transform="matrix(1, 0, 0, 1, -9, -6)" filter="url(#Trazado_904820)">
                                  <g id="Trazado_904820-2" data-name="Trazado 904820" transform="translate(9 6)" fill="#fbfbf9">
                                    <path d="M 44.99999618530273 88.49995422363281 C 39.12687301635742 88.49995422363281 33.43022155761719 87.35002899169922 28.06829643249512 85.08213043212891 C 22.88852119445801 82.89126586914062 18.23629570007324 79.75455474853516 14.24084663391113 75.75910186767578 C 10.24540901184082 71.76364898681641 7.108683586120605 67.11144256591797 4.917821407318115 61.93166351318359 C 2.649921178817749 56.56974029541016 1.499996185302734 50.87310028076172 1.499996185302734 44.99997711181641 C 1.499996185302734 39.12685394287109 2.649921178817749 33.43021392822266 4.917821407318115 28.06828880310059 C 7.108683586120605 22.88851547241211 10.24540901184082 18.23630142211914 14.24084663391113 14.24085235595703 C 18.23629570007324 10.24540233612061 22.88852119445801 7.108689785003662 28.06829643249512 4.917827129364014 C 33.43022155761719 2.649927139282227 39.12687301635742 1.500002145767212 44.99999618530273 1.500002145767212 C 50.87311935424805 1.500002145767212 56.56977081298828 2.649927139282227 61.93169784545898 4.917827129364014 C 67.11147308349609 7.108689785003662 71.76369476318359 10.24540233612061 75.75914764404297 14.24085235595703 C 79.75458526611328 18.23630142211914 82.89131164550781 22.88851547241211 85.08216857910156 28.06828880310059 C 87.35007476806641 33.43021392822266 88.5 39.12685394287109 88.5 44.99997711181641 C 88.5 50.87310028076172 87.35007476806641 56.56974029541016 85.08216857910156 61.93166351318359 C 82.89131164550781 67.11144256591797 79.75458526611328 71.76364898681641 75.75914764404297 75.75910186767578 C 71.76369476318359 79.75455474853516 67.11147308349609 82.89126586914062 61.93169784545898 85.08213043212891 C 56.56977081298828 87.35002899169922 50.87311935424805 88.49995422363281 44.99999618530273 88.49995422363281 Z" stroke="none"/>
                                    <path d="M 44.99999618530273 2.999992370605469 C 39.32870864868164 2.999992370605469 33.82865142822266 4.11004638671875 28.65262603759766 6.299331665039062 C 23.65165710449219 8.414566040039062 19.15968322753906 11.44333648681641 15.301513671875 15.30150604248047 C 11.44333648681641 19.15967559814453 8.414566040039062 23.65163421630859 6.299339294433594 28.65260696411133 C 4.110054016113281 33.82864761352539 2.999992370605469 39.32868957519531 2.999992370605469 44.99997711181641 C 2.999992370605469 50.6712646484375 4.110054016113281 56.17130661010742 6.299339294433594 61.34733581542969 C 8.414566040039062 66.34830474853516 11.44333648681641 70.84026336669922 15.301513671875 74.69844818115234 C 19.15968322753906 78.55661773681641 23.65165710449219 81.58537292480469 28.65262603759766 83.70062255859375 C 33.82865142822266 85.889892578125 39.32870864868164 86.99994659423828 44.99999618530273 86.99994659423828 C 50.67128372192383 86.99994659423828 56.17134094238281 85.889892578125 61.34736633300781 83.70062255859375 C 66.34834289550781 81.58537292480469 70.84030914306641 78.55661773681641 74.69847869873047 74.69844818115234 C 78.55665588378906 70.84026336669922 81.58542633056641 66.34830474853516 83.70065307617188 61.34733581542969 C 85.88993835449219 56.17130661010742 87 50.6712646484375 87 44.99997711181641 C 87 39.32868957519531 85.88993835449219 33.82864761352539 83.70065307617188 28.65260696411133 C 81.58542633056641 23.65163421630859 78.55665588378906 19.15967559814453 74.69847869873047 15.30150604248047 C 70.84030914306641 11.44333648681641 66.34834289550781 8.414566040039062 61.34736633300781 6.299331665039062 C 56.17134094238281 4.11004638671875 50.67128372192383 2.999992370605469 44.99999618530273 2.999992370605469 M 44.99999618530273 -7.62939453125e-06 C 69.85281372070312 -7.62939453125e-06 90 20.14717864990234 90 44.99997711181641 C 90 69.85277557373047 69.85281372070312 89.99994659423828 44.99999618530273 89.99994659423828 C 20.14717864990234 89.99994659423828 -7.62939453125e-06 69.85277557373047 -7.62939453125e-06 44.99997711181641 C -7.62939453125e-06 20.14717864990234 20.14717864990234 -7.62939453125e-06 44.99999618530273 -7.62939453125e-06 Z" stroke="none" fill="#7b776f"/>
                                  </g>
                                </g>
                              </g>
                            </g>
                          </g>
                        </g>
                      </g>
                    </g>
                  </g>
                </g>
              </g>
            </g>
          </g>
        </g>
      </g>
    </g>
    <g id="XMLID_2341_" transform="translate(222.388 7454.009)">
      <g id="XMLID_1325_" transform="translate(0.838 19.344)">
        <g id="XMLID_2619_" transform="translate(0 0)">
          <circle id="XMLID_2783_" cx="13.722" cy="13.722" r="13.722" transform="translate(1.796)" fill="#72f2eb"/>
          <g id="XMLID_1353_" transform="translate(0 15.407)">
            <g id="XMLID_1385_">
              <g id="XMLID_1419_">
                <circle id="XMLID_1420_" cx="1.796" cy="1.796" r="1.796" fill="#f9b767"/>
              </g>
            </g>
          </g>
          <g id="XMLID_1387_" transform="translate(8.654 6.753)">
            <g id="XMLID_1391_" transform="translate(0 0)">
              <g id="XMLID_2785_">
                <circle id="XMLID_2786_" cx="1.796" cy="1.796" r="1.796" fill="#f9b767"/>
              </g>
            </g>
          </g>
          <g id="XMLID_1393_" transform="translate(17.832 15.931)">
            <g id="XMLID_1397_">
              <g id="XMLID_2798_">
                <circle id="XMLID_2799_" cx="1.796" cy="1.796" r="1.796" fill="#f9b767"/>
              </g>
            </g>
          </g>
          <g id="XMLID_1399_" transform="translate(29.751 4.012)">
            <g id="XMLID_1403_">
              <g id="XMLID_2801_">
                <circle id="XMLID_2802_" cx="1.796" cy="1.796" r="1.796" fill="#f9b767"/>
              </g>
            </g>
          </g>
          <g id="XMLID_1405_" transform="translate(37.665 11.926)">
            <g id="XMLID_1409_">
              <g id="XMLID_2803_">
                <circle id="XMLID_2804_" cx="1.796" cy="1.796" r="1.796" fill="#f9b767"/>
              </g>
            </g>
          </g>
        </g>
        <g id="XMLID_1352_" transform="translate(8.044 13.722)">
          <rect id="XMLID_2771_" width="4.913" height="13.821" transform="translate(0 23.869)" fill="#ff6a66"/>
          <rect id="XMLID_2770_" width="4.913" height="13.821" transform="translate(8.277 23.869)" fill="#ff6a66"/>
          <rect id="XMLID_2769_" width="4.913" height="17.91" transform="translate(16.554 19.78)" fill="#f9b767"/>
          <rect id="XMLID_2768_" width="4.913" height="24.005" transform="translate(24.831 13.686)" fill="#72f2eb"/>
          <rect id="XMLID_2767_" width="4.913" height="30.308" transform="translate(33.108 7.382)" fill="#72f2eb"/>
          <rect id="XMLID_2766_" width="4.913" height="37.69" transform="translate(41.385)" fill="#72f2eb"/>
        </g>
      </g>
      <g id="XMLID_1496_" transform="translate(0 18.506)">
        <path id="XMLID_1515_" d="M3.119,39.136a14.5,14.5,0,0,0,3.055,4.337.838.838,0,0,0,1.172-1.2,12.839,12.839,0,0,1-2.76-3.961,2.628,2.628,0,0,0,.4-2.942l5.122-5.122a2.627,2.627,0,0,0,2.285.032l5.633,5.633c.016.016.032.03.049.044a2.634,2.634,0,1,0,4.839.15L28.9,30.126A12.887,12.887,0,0,1,9.931,44.236a.838.838,0,1,0-.837,1.452A14.564,14.564,0,0,0,30.267,28.76L31.423,27.6a2.628,2.628,0,0,0,2.219-.136l4.343,4.343a2.639,2.639,0,1,0,1.228-1.143l-4.428-4.428a2.634,2.634,0,1,0-4.649.281l-.523.523A14.56,14.56,0,0,0,1.8,33.066c0,.324.012.649.033.973a2.634,2.634,0,0,0,1.29,5.1ZM40.3,32.108a.958.958,0,1,1-.958.958A.959.959,0,0,1,40.3,32.108Zm-7.914-7.914a.958.958,0,1,1-.958.958A.959.959,0,0,1,32.386,24.195Zm-22.055,3.7a.958.958,0,1,1,.958.958A.959.959,0,0,1,10.331,27.893ZM20.467,38.029a.958.958,0,1,1,.958-.958A.959.959,0,0,1,20.467,38.029Zm-4.11-17.847a12.9,12.9,0,0,1,11.978,8.139l-6.5,6.5a2.629,2.629,0,0,0-2.6-.075l-.015-.016-5.6-5.6a2.634,2.634,0,1,0-4.686-.064L3.8,34.188a2.62,2.62,0,0,0-.294-.125c-.025-.331-.038-.665-.038-1A12.9,12.9,0,0,1,16.357,20.183ZM1.677,36.547a.958.958,0,1,1,.958.958A.959.959,0,0,1,1.677,36.547Z" transform="translate(0 -18.506)"/>
        <path id="XMLID_1506_" d="M62.613,180.646a.838.838,0,0,0,0-1.677h-.368V160.618a.838.838,0,1,0-1.677,0v18.351H57.331V142.956h3.237V157.2a.838.838,0,0,0,1.677,0V142.117a.838.838,0,0,0-.838-.838H56.493a.838.838,0,0,0-.838.838v36.852H53.968V149.5a.838.838,0,0,0-.838-.838H48.216a.838.838,0,0,0-.838.838v29.47H45.691V155.8a.838.838,0,0,0-.838-.838H39.939a.838.838,0,0,0-.838.838v23.166H37.414V161.9a.838.838,0,0,0-.838-.838H31.662a.838.838,0,0,0-.838.838v17.072H29.137V165.986a.838.838,0,0,0-.838-.838H23.385a.838.838,0,0,0-.838.838v4.846a.838.838,0,0,0,1.677,0v-4.008H27.46v12.145H24.223v-4.715a.838.838,0,0,0-1.677,0v4.715H20.86V165.986a.838.838,0,0,0-.838-.838H15.108a.838.838,0,0,0-.838.838v12.983H7.847a.838.838,0,1,0,0,1.677H62.613ZM49.054,150.338h3.237v28.631H49.054Zm-8.277,6.3h3.237v22.328H40.778ZM32.5,162.735h3.237v16.233H32.5Zm-16.554,4.089h3.237v12.145H15.947Z" transform="translate(-6.226 -127.557)"/>
        <path id="XMLID_1505_" d="M487.043,32.634a.838.838,0,0,0,.838-.838v-.184a.838.838,0,0,0-1.677,0V31.8A.838.838,0,0,0,487.043,32.634Z" transform="translate(-431.863 -29.402)"/>
        <path id="XMLID_1501_" d="M461.507,32.634a.838.838,0,0,0,.838-.838v-.184a.838.838,0,1,0-1.677,0V31.8A.838.838,0,0,0,461.507,32.634Z" transform="translate(-409.181 -29.402)"/>
        <path id="XMLID_1500_" d="M461.507,64.016h2.834a.838.838,0,1,0,0-1.677h-2.834a.838.838,0,0,0,0,1.677Z" transform="translate(-409.181 -57.44)"/>
        <path id="XMLID_1497_" d="M419.254,88.219h7.556a.838.838,0,0,0,0-1.677h-7.556a.838.838,0,0,0,0,1.677Z" transform="translate(-371.65 -78.938)"/>
      </g>
    </g>
  </g>
</svg>
