<svg xmlns="http://www.w3.org/2000/svg" xmlns:xlink="http://www.w3.org/1999/xlink" width="106.16" height="106.16" viewBox="0 0 106.16 106.16">
  <defs>
    <filter id="Trazado_982547" x="0" y="0" width="106.16" height="106.16" filterUnits="userSpaceOnUse">
      <feOffset dy="3" input="SourceAlpha"/>
      <feGaussianBlur stdDeviation="3" result="blur"/>
      <feFlood flood-opacity="0.161"/>
      <feComposite operator="in" in2="blur"/>
      <feComposite in="SourceGraphic"/>
    </filter>
  </defs>
  <g id="Grupo_1242181" data-name="Grupo 1242181" transform="translate(-610.42 -9070.127)">
    <g id="Grupo_1241244" data-name="Grupo 1241244" transform="translate(420 7945.127)">
      <g id="Grupo_1235128" data-name="Grupo 1235128" transform="translate(199.42 1131)">
        <g id="Grupo_1233884" data-name="Grupo 1233884" transform="translate(0 0)">
          <g id="Grupo_1228506" data-name="Grupo 1228506" transform="translate(0 0)">
            <g id="Grupo_1206132" data-name="Grupo 1206132" transform="translate(0 0)">
              <g id="Grupo_1203794" data-name="Grupo 1203794">
                <g id="Grupo_1203345" data-name="Grupo 1203345">
                  <g id="Grupo_1177900" data-name="Grupo 1177900">
                    <g id="Grupo_1172010" data-name="Grupo 1172010">
                      <g id="Grupo_1171046" data-name="Grupo 1171046">
                        <g id="Grupo_1148525" data-name="Grupo 1148525">
                          <g transform="matrix(1, 0, 0, 1, -9, -6)" filter="url(#Trazado_982547)">
                            <g id="Trazado_982547-2" data-name="Trazado 982547" transform="translate(9 6)" fill="#e9f9fd">
                              <path d="M 44.0802001953125 86.660400390625 C 38.33124923706055 86.660400390625 32.75506210327148 85.53479766845703 27.50652503967285 83.31484985351562 C 22.43628692626953 81.17032623291016 17.88242530822754 78.09992218017578 13.97144985198975 74.18894958496094 C 10.06047534942627 70.27797698974609 6.99007511138916 65.72411346435547 4.845550060272217 60.65387344360352 C 2.625600099563599 55.40533828735352 1.500000238418579 49.82915115356445 1.500000238418579 44.0802001953125 C 1.500000238418579 38.33124923706055 2.625600099563599 32.75506210327148 4.845550060272217 27.50652503967285 C 6.99007511138916 22.43628692626953 10.06047534942627 17.88242530822754 13.97144985198975 13.97144985198975 C 17.88242530822754 10.06047534942627 22.43628692626953 6.99007511138916 27.50652503967285 4.845550060272217 C 32.75506210327148 2.625600099563599 38.33124923706055 1.500000238418579 44.0802001953125 1.500000238418579 C 49.82915115356445 1.500000238418579 55.40533828735352 2.625600099563599 60.65387344360352 4.845550060272217 C 65.72411346435547 6.99007511138916 70.27797698974609 10.06047534942627 74.18894958496094 13.97144985198975 C 78.09992218017578 17.88242530822754 81.17032623291016 22.43628692626953 83.31484985351562 27.50652503967285 C 85.53479766845703 32.75506210327148 86.660400390625 38.33124923706055 86.660400390625 44.0802001953125 C 86.660400390625 49.82915115356445 85.53479766845703 55.40533828735352 83.31484985351562 60.65387344360352 C 81.17032623291016 65.72411346435547 78.09992218017578 70.27797698974609 74.18894958496094 74.18894958496094 C 70.27797698974609 78.09992218017578 65.72411346435547 81.17032623291016 60.65387344360352 83.31484985351562 C 55.40533828735352 85.53479766845703 49.82915115356445 86.660400390625 44.0802001953125 86.660400390625 Z" stroke="none"/>
                              <path d="M 44.0802001953125 3 C 38.53308486938477 3 33.15349960327148 4.085746765136719 28.09085845947266 6.227058410644531 C 23.19941711425781 8.29595947265625 18.80581665039062 11.25841522216797 15.03211212158203 15.03211212158203 C 11.25841522216797 18.80581665039062 8.29595947265625 23.19941711425781 6.227058410644531 28.09085845947266 C 4.085746765136719 33.15349960327148 3 38.53308486938477 3 44.0802001953125 C 3 49.62731552124023 4.085746765136719 55.00691604614258 6.227058410644531 60.06954193115234 C 8.29595947265625 64.96098327636719 11.25841522216797 69.35458374023438 15.03211212158203 73.12828826904297 C 18.80581665039062 76.90198516845703 23.19941711425781 79.86444091796875 28.09085845947266 81.93334197998047 C 33.15349960327148 84.07466125488281 38.53308486938477 85.160400390625 44.0802001953125 85.160400390625 C 49.62731552124023 85.160400390625 55.00691604614258 84.07466125488281 60.06954193115234 81.93334197998047 C 64.96099853515625 79.86444091796875 69.35458374023438 76.90198516845703 73.12828826904297 73.12828826904297 C 76.90198516845703 69.35458374023438 79.86444091796875 64.96099853515625 81.93334197998047 60.06954193115234 C 84.07466125488281 55.00691604614258 85.160400390625 49.62731552124023 85.160400390625 44.0802001953125 C 85.160400390625 38.53308486938477 84.07466125488281 33.15349960327148 81.93334197998047 28.09085845947266 C 79.86444091796875 23.19941711425781 76.90198516845703 18.80581665039062 73.12828826904297 15.03211212158203 C 69.35458374023438 11.25841522216797 64.96098327636719 8.29595947265625 60.06954193115234 6.227058410644531 C 55.00691604614258 4.085746765136719 49.62731552124023 3 44.0802001953125 3 M 44.0802001953125 0 C 68.42502593994141 0 88.160400390625 19.73538970947266 88.160400390625 44.0802001953125 C 88.160400390625 68.42502593994141 68.42502593994141 88.160400390625 44.0802001953125 88.160400390625 C 19.73538970947266 88.160400390625 0 68.42502593994141 0 44.0802001953125 C 0 19.73538970947266 19.73538970947266 0 44.0802001953125 0 Z" stroke="none" fill="#1d7083"/>
                            </g>
                          </g>
                        </g>
                      </g>
                    </g>
                  </g>
                </g>
              </g>
            </g>
          </g>
        </g>
      </g>
    </g>
    <g id="Analysis-report-document-develop-infromation" transform="translate(626.991 9088.207)">
      <path id="Trazado_1298642" data-name="Trazado 1298642" d="M61,14V59a2.006,2.006,0,0,1-2,2H25a2.006,2.006,0,0,1-2-2V5a2.006,2.006,0,0,1,2-2H50v9a2.006,2.006,0,0,0,2,2Z" fill="#fee9ab"/>
      <path id="Trazado_1298643" data-name="Trazado 1298643" d="M61,14V59a2.006,2.006,0,0,1-2,2H55a2.006,2.006,0,0,0,2-2V14Z" fill="#ffd422"/>
      <path id="Trazado_1298644" data-name="Trazado 1298644" d="M61,14H52a2.006,2.006,0,0,1-2-2V3Z" fill="#ff7956"/>
      <circle id="Elipse_11582" data-name="Elipse 11582" cx="8" cy="8" r="8" transform="translate(41 41)" fill="#bdfdff"/>
      <path id="Trazado_1298645" data-name="Trazado 1298645" d="M47,28H27V8A19.994,19.994,0,0,1,47,28Z" fill="#ff3051"/>
      <path id="Trazado_1298646" data-name="Trazado 1298646" d="M57,49a8,8,0,0,1-8,8,8.239,8.239,0,0,1-2-.25,8,8,0,0,0,0-15.5A8.239,8.239,0,0,1,49,41a8,8,0,0,1,8,8Z" fill="#46f8ff"/>
      <path id="Trazado_1298647" data-name="Trazado 1298647" d="M47,28H43A20,20,0,0,0,27,8.4L27,8A19.994,19.994,0,0,1,47,28Z" fill="#cd2a00"/>
      <path id="Trazado_1298648" data-name="Trazado 1298648" d="M23,32H43A20,20,0,0,1,8.86,46.14Z" fill="#5eac24"/>
      <path id="Trazado_1298649" data-name="Trazado 1298649" d="M23,12V32L8.86,46.14A20,20,0,0,1,23,12Z" fill="#ffcd00"/>
      <path id="Trazado_1298650" data-name="Trazado 1298650" d="M61.71,13.29l-11-11A1.033,1.033,0,0,0,50,2H25a3.009,3.009,0,0,0-3,3v6.05a20.973,20.973,0,0,0,0,41.9V59a3.009,3.009,0,0,0,3,3H59a3.009,3.009,0,0,0,3-3V14a1.033,1.033,0,0,0-.29-.71ZM51,5.41,58.59,13H52a1,1,0,0,1-1-1ZM4,32A19.023,19.023,0,0,1,22,13.03V31.59L8.9,44.69A18.879,18.879,0,0,1,4,32Zm6.31,14.1L23.41,33H41.97A18.963,18.963,0,0,1,10.31,46.1ZM60,59a1,1,0,0,1-1,1H25a1,1,0,0,1-1-1V52.95A21.014,21.014,0,0,0,44,32a1,1,0,0,0-1-1H24V5a1,1,0,0,1,1-1H49v8a3.009,3.009,0,0,0,3,3h8Z"/>
      <path id="Trazado_1298651" data-name="Trazado 1298651" d="M27,7a1,1,0,0,0-1,1V28a1,1,0,0,0,1,1H47a1,1,0,0,0,1-1A21.023,21.023,0,0,0,27,7Zm1,20V9.03A19.017,19.017,0,0,1,45.97,27Z"/>
      <path id="Trazado_1298652" data-name="Trazado 1298652" d="M49,40a9,9,0,1,0,9,9,9,9,0,0,0-9-9Zm0,16a7,7,0,1,1,7-7A7,7,0,0,1,49,56Z"/>
      <path id="Trazado_1298653" data-name="Trazado 1298653" d="M47,50.586l-2.293-2.293-1.414,1.414,3,3a1,1,0,0,0,1.414,0l6-6-1.414-1.414Z"/>
      <path id="Trazado_1298654" data-name="Trazado 1298654" d="M50,19h8v2H50Z"/>
      <path id="Trazado_1298655" data-name="Trazado 1298655" d="M50,25h8v2H50Z"/>
      <path id="Trazado_1298656" data-name="Trazado 1298656" d="M50,31h8v2H50Z"/>
    </g>
  </g>
</svg>
