<svg xmlns="http://www.w3.org/2000/svg" xmlns:xlink="http://www.w3.org/1999/xlink" width="106.16" height="106.16" viewBox="0 0 106.16 106.16">
  <defs>
    <filter id="Trazado_982547" x="0" y="0" width="106.16" height="106.16" filterUnits="userSpaceOnUse">
      <feOffset dy="3" input="SourceAlpha"/>
      <feGaussianBlur stdDeviation="3" result="blur"/>
      <feFlood flood-opacity="0.161"/>
      <feComposite operator="in" in2="blur"/>
      <feComposite in="SourceGraphic"/>
    </filter>
  </defs>
  <g id="Grupo_1242062" data-name="Grupo 1242062" transform="translate(-190.42 -2583.855)">
    <g id="Grupo_1235672" data-name="Grupo 1235672" transform="translate(199.42 2589.855)">
      <g id="Grupo_1235128" data-name="Grupo 1235128" transform="translate(0 0)">
        <g id="Grupo_1233884" data-name="Grupo 1233884">
          <g id="Grupo_1228506" data-name="Grupo 1228506">
            <g id="Grupo_1206132" data-name="Grupo 1206132">
              <g id="Grupo_1203794" data-name="Grupo 1203794">
                <g id="Grupo_1203345" data-name="Grupo 1203345">
                  <g id="Grupo_1177900" data-name="Grupo 1177900">
                    <g id="Grupo_1172010" data-name="Grupo 1172010">
                      <g id="Grupo_1171046" data-name="Grupo 1171046">
                        <g id="Grupo_1148525" data-name="Grupo 1148525">
                          <g transform="matrix(1, 0, 0, 1, -9, -6)" filter="url(#Trazado_982547)">
                            <g id="Trazado_982547-2" data-name="Trazado 982547" transform="translate(9 6)" fill="#e9f9fd">
                              <path d="M 44.0802001953125 86.660400390625 C 38.33124923706055 86.660400390625 32.75506210327148 85.53479766845703 27.50652503967285 83.31484985351562 C 22.43628692626953 81.17032623291016 17.88242530822754 78.09992218017578 13.97144985198975 74.18894958496094 C 10.06047534942627 70.27797698974609 6.99007511138916 65.72411346435547 4.845550060272217 60.65387344360352 C 2.625600099563599 55.40533828735352 1.500000238418579 49.82915115356445 1.500000238418579 44.0802001953125 C 1.500000238418579 38.33124923706055 2.625600099563599 32.75506210327148 4.845550060272217 27.50652503967285 C 6.99007511138916 22.43628692626953 10.06047534942627 17.88242530822754 13.97144985198975 13.97144985198975 C 17.88242530822754 10.06047534942627 22.43628692626953 6.99007511138916 27.50652503967285 4.845550060272217 C 32.75506210327148 2.625600099563599 38.33124923706055 1.500000238418579 44.0802001953125 1.500000238418579 C 49.82915115356445 1.500000238418579 55.40533828735352 2.625600099563599 60.65387344360352 4.845550060272217 C 65.72411346435547 6.99007511138916 70.27797698974609 10.06047534942627 74.18894958496094 13.97144985198975 C 78.09992218017578 17.88242530822754 81.17032623291016 22.43628692626953 83.31484985351562 27.50652503967285 C 85.53479766845703 32.75506210327148 86.660400390625 38.33124923706055 86.660400390625 44.0802001953125 C 86.660400390625 49.82915115356445 85.53479766845703 55.40533828735352 83.31484985351562 60.65387344360352 C 81.17032623291016 65.72411346435547 78.09992218017578 70.27797698974609 74.18894958496094 74.18894958496094 C 70.27797698974609 78.09992218017578 65.72411346435547 81.17032623291016 60.65387344360352 83.31484985351562 C 55.40533828735352 85.53479766845703 49.82915115356445 86.660400390625 44.0802001953125 86.660400390625 Z" stroke="none"/>
                              <path d="M 44.0802001953125 3 C 38.53308486938477 3 33.15349960327148 4.085746765136719 28.09085845947266 6.227058410644531 C 23.19941711425781 8.29595947265625 18.80581665039062 11.25841522216797 15.03211212158203 15.03211212158203 C 11.25841522216797 18.80581665039062 8.29595947265625 23.19941711425781 6.227058410644531 28.09085845947266 C 4.085746765136719 33.15349960327148 3 38.53308486938477 3 44.0802001953125 C 3 49.62731552124023 4.085746765136719 55.00691604614258 6.227058410644531 60.06954193115234 C 8.29595947265625 64.96098327636719 11.25841522216797 69.35458374023438 15.03211212158203 73.12828826904297 C 18.80581665039062 76.90198516845703 23.19941711425781 79.86444091796875 28.09085845947266 81.93334197998047 C 33.15349960327148 84.07466125488281 38.53308486938477 85.160400390625 44.0802001953125 85.160400390625 C 49.62731552124023 85.160400390625 55.00691604614258 84.07466125488281 60.06954193115234 81.93334197998047 C 64.96099853515625 79.86444091796875 69.35458374023438 76.90198516845703 73.12828826904297 73.12828826904297 C 76.90198516845703 69.35458374023438 79.86444091796875 64.96099853515625 81.93334197998047 60.06954193115234 C 84.07466125488281 55.00691604614258 85.160400390625 49.62731552124023 85.160400390625 44.0802001953125 C 85.160400390625 38.53308486938477 84.07466125488281 33.15349960327148 81.93334197998047 28.09085845947266 C 79.86444091796875 23.19941711425781 76.90198516845703 18.80581665039062 73.12828826904297 15.03211212158203 C 69.35458374023438 11.25841522216797 64.96098327636719 8.29595947265625 60.06954193115234 6.227058410644531 C 55.00691604614258 4.085746765136719 49.62731552124023 3 44.0802001953125 3 M 44.0802001953125 0 C 68.42502593994141 0 88.160400390625 19.73538970947266 88.160400390625 44.0802001953125 C 88.160400390625 68.42502593994141 68.42502593994141 88.160400390625 44.0802001953125 88.160400390625 C 19.73538970947266 88.160400390625 0 68.42502593994141 0 44.0802001953125 C 0 19.73538970947266 19.73538970947266 0 44.0802001953125 0 Z" stroke="none" fill="#1d7083"/>
                            </g>
                          </g>
                        </g>
                      </g>
                    </g>
                  </g>
                </g>
              </g>
            </g>
          </g>
        </g>
      </g>
    </g>
    <g id="Page-1" transform="translate(215.775 2606.21)">
      <g id="_067---Analytics" data-name="067---Analytics" transform="translate(0 0)">
        <path id="Shape" d="M9.318,35.848V55.256A1.848,1.848,0,0,1,7.469,57.1H2.848A1.854,1.854,0,0,1,1,55.256V35.848A1.854,1.854,0,0,1,2.848,34H7.469A1.854,1.854,0,0,1,9.318,35.848Z" transform="translate(-0.076 -2.578)" fill="#02a9f4"/>
        <path id="Shape-2" data-name="Shape" d="M7.773,34H5a1.854,1.854,0,0,1,1.848,1.848V55.256A1.848,1.848,0,0,1,5,57.1H7.773a1.848,1.848,0,0,0,1.848-1.848V35.848A1.854,1.854,0,0,0,7.773,34Z" transform="translate(-0.379 -2.578)" fill="#0377bc"/>
        <path id="Shape-3" data-name="Shape" d="M54.046,44.844,36.727,55.389a6.469,6.469,0,0,1-3.364.943H9.982l-.222-.046a1.874,1.874,0,0,0,.222-.878V36h2.588a8.333,8.333,0,0,1,2.033.25,8.495,8.495,0,0,1,3.235,1.6A8.364,8.364,0,0,0,22,39.614a7.467,7.467,0,0,0,1.109.083h4.833a4.767,4.767,0,0,1,1.451.231A4.585,4.585,0,0,1,31.9,41.942l.083.139a3.344,3.344,0,0,1-.508,4.085H33.65a3.635,3.635,0,0,0,1.174-.194l1.959-.656,7.393-2.458,7.393-2.468.36-.12a2.546,2.546,0,0,1,2.828.887v.009a2.523,2.523,0,0,1-.712,3.678Z" transform="translate(-0.74 -2.73)" fill="#ffe0b2"/>
        <g id="Grupo_1242061" data-name="Grupo 1242061" transform="translate(9.242 33.27)">
          <path id="Shape-4" data-name="Shape" d="M15.083,37.848A8.465,8.465,0,0,0,20.351,39.7h2.773a8.464,8.464,0,0,1-5.268-1.848A8.465,8.465,0,0,0,12.588,36H10v.008A8.464,8.464,0,0,1,15.083,37.848Z" transform="translate(-10 -36)" fill="#dfc49c"/>
          <path id="Shape-5" data-name="Shape" d="M30.395,42.246l.083.139a3.344,3.344,0,0,1-.508,4.085h2.172a3.617,3.617,0,0,0,.654-.064,3.34,3.34,0,0,0,.455-4.021l-.083-.139A4.611,4.611,0,0,0,29.2,40H26.43a4.611,4.611,0,0,1,3.965,2.246Z" transform="translate(-11.246 -36.303)" fill="#dfc49c"/>
          <path id="Shape-6" data-name="Shape" d="M56.467,41.506V41.5a2.546,2.546,0,0,0-2.828-.887l-.692.231a2.528,2.528,0,0,1,.748.656v.009a2.523,2.523,0,0,1-.712,3.678L35.664,55.729a6.469,6.469,0,0,1-3.364.943h2.773a6.469,6.469,0,0,0,3.364-.943L55.755,45.184a2.523,2.523,0,0,0,.712-3.678Z" transform="translate(-11.691 -36.34)" fill="#dfc49c"/>
        </g>
        <path id="Shape-7" data-name="Shape" d="M54.393,7.848V38.115L47,40.582V7.848A1.854,1.854,0,0,1,48.848,6h3.7A1.854,1.854,0,0,1,54.393,7.848Z" transform="translate(-3.564 -0.455)" fill="#ffdc00"/>
        <path id="Shape-8" data-name="Shape" d="M52.545,6H49.773a1.854,1.854,0,0,1,1.848,1.848V38.115L47,39.657v.924l7.393-2.468V7.848A1.854,1.854,0,0,0,52.545,6Z" transform="translate(-3.564 -0.455)" fill="#fec108"/>
        <path id="Shape-9" data-name="Shape" d="M46.393,17.848V41.341L39,43.8V17.848A1.854,1.854,0,0,1,40.848,16h3.7a1.854,1.854,0,0,1,1.848,1.848Z" transform="translate(-2.957 -1.213)" fill="#a4c400"/>
        <path id="Shape-10" data-name="Shape" d="M38.393,27.848V44.557l-1.959.656a3.635,3.635,0,0,1-1.174.194H33.089a3.344,3.344,0,0,0,.508-4.085l-.083-.139A4.585,4.585,0,0,0,31,39.169V27.848A1.854,1.854,0,0,1,32.848,26h3.7A1.854,1.854,0,0,1,38.393,27.848Z" transform="translate(-2.351 -1.972)" fill="#60a917"/>
        <path id="Shape-11" data-name="Shape" d="M30.393,22.848V38.79a4.767,4.767,0,0,0-1.451-.231H24.109A7.467,7.467,0,0,1,23,38.476V22.848A1.854,1.854,0,0,1,24.848,21h3.7A1.854,1.854,0,0,1,30.393,22.848Z" transform="translate(-1.744 -1.592)" fill="#009688"/>
        <path id="Shape-12" data-name="Shape" d="M22.393,32.848v6.386a8.364,8.364,0,0,1-4.159-1.765A8.495,8.495,0,0,0,15,35.87V32.848A1.854,1.854,0,0,1,16.848,31h3.7A1.854,1.854,0,0,1,22.393,32.848Z" transform="translate(-1.137 -2.351)" fill="#00bcd4"/>
        <path id="Shape-13" data-name="Shape" d="M35.782,2.149,32.8,14.088a.924.924,0,0,1-1.637.33L27.724,9.835,7.623,23.7A2.313,2.313,0,1,1,5,19.89L24.952,6.129,22.2,2.479A.924.924,0,0,1,22.937,1H34.885a.924.924,0,0,1,.9,1.149Z" transform="translate(-0.303 -0.076)" fill="#f44335"/>
        <path id="Shape-14" data-name="Shape" d="M37.039,1H34.267a.924.924,0,0,1,.9,1.148L32.4,13.2l.914,1.219a.924.924,0,0,0,1.637-.33l2.985-11.94A.924.924,0,0,0,37.039,1Z" transform="translate(-2.457 -0.076)" fill="#c81e1e"/>
        <path id="Shape-15" data-name="Shape" d="M2.773,56.967H7.393a2.759,2.759,0,0,0,2.052-.924H32.623a7.393,7.393,0,0,0,3.844-1.078L53.787,44.42a3.461,3.461,0,0,0,1.6-2.3,3.4,3.4,0,0,0-.579-2.654c-.017-.027-.034-.053-.054-.079a3.449,3.449,0,0,0-3.858-1.2l-17.106,5.7a2.777,2.777,0,0,1-.878.142h-.53a4.251,4.251,0,0,0-.344-3.638l-.083-.139A5.576,5.576,0,0,0,27.2,37.559H22.365a7.536,7.536,0,0,1-4.691-1.646,9.348,9.348,0,0,0-2.887-1.564V32.014a.924.924,0,0,1,.924-.924h3.7a.924.924,0,0,1,.924.924v2.773a.924.924,0,1,0,1.848,0V22.773a.924.924,0,0,1,.924-.924h3.7a.924.924,0,0,1,.924.924.924.924,0,1,0,1.848,0A2.773,2.773,0,0,0,26.8,20H23.1a2.773,2.773,0,0,0-2.773,2.773V29.4a2.781,2.781,0,0,0-.924-.158h-3.7a2.773,2.773,0,0,0-2.773,2.773v1.923a9.263,9.263,0,0,0-1.109-.075H10a2.773,2.773,0,0,0-2.6-1.848H2.773A2.773,2.773,0,0,0,0,34.787v3.7a.924.924,0,0,0,1.848,0v-3.7a.924.924,0,0,1,.924-.924H7.393a.924.924,0,0,1,.924.924V54.194a.924.924,0,0,1-.924.924H2.773a.924.924,0,0,1-.924-.924V43.1A.924.924,0,1,0,0,43.1v11.09a2.773,2.773,0,0,0,2.773,2.773ZM16.52,37.357a9.391,9.391,0,0,0,5.845,2.051H27.2A3.715,3.715,0,0,1,30.368,41.2l.083.139a2.415,2.415,0,0,1-.139,2.688H24.7a9.21,9.21,0,0,0-5.126,1.553l-.677.451A.924.924,0,0,0,19.92,47.57l.676-.451a7.374,7.374,0,0,1,4.1-1.242h8.214a4.6,4.6,0,0,0,1.462-.238l17.107-5.7a1.6,1.6,0,0,1,1.745.487c.016.027.034.053.053.079a1.607,1.607,0,0,1-.449,2.338L35.507,53.386a5.553,5.553,0,0,1-2.883.809H10.166V35.711h1.664a7.536,7.536,0,0,1,4.69,1.646Z" transform="translate(0 -1.517)"/>
        <path id="Shape-16" data-name="Shape" d="M53.1,34.573a.924.924,0,0,0,.924-.924V7.773A2.773,2.773,0,0,0,51.256,5h-3.7a2.773,2.773,0,0,0-2.773,2.773v6.639a2.741,2.741,0,0,0-.924-.17h-3.7a2.773,2.773,0,0,0-2.773,2.773v6.639a2.741,2.741,0,0,0-.924-.17h-3.7A2.773,2.773,0,0,0,30,26.256v4.621a.924.924,0,0,0,1.848,0V26.256a.924.924,0,0,1,.924-.924h3.7a.924.924,0,0,1,.924.924V39.194a.924.924,0,1,0,1.848,0V17.014a.924.924,0,0,1,.924-.924h3.7a.924.924,0,0,1,.924.924V35.5a.924.924,0,0,0,1.848,0V7.773a.924.924,0,0,1,.924-.924h3.7a.924.924,0,0,1,.924.924V33.649A.924.924,0,0,0,53.1,34.573Z" transform="translate(-2.275 -0.379)"/>
        <path id="Shape-17" data-name="Shape" d="M3.575,23.56a3.249,3.249,0,0,0,2.66,1.393,3.187,3.187,0,0,0,1.836-.57L27.442,11.024,30.348,14.9a1.848,1.848,0,0,0,3.271-.665L36.6,2.292A1.848,1.848,0,0,0,34.81,0H22.86a1.848,1.848,0,0,0-1.479,2.962L23.554,5.84,4.4,19.055a3.252,3.252,0,0,0-.823,4.505Zm1.872-2.984L25.4,6.814A.924.924,0,0,0,25.614,5.5L22.86,1.848H34.811l-2.986,11.94L28.388,9.2A.924.924,0,0,0,27.121,9L7.015,22.86a1.36,1.36,0,0,1-.78.244,1.386,1.386,0,0,1-.788-2.529Z" transform="translate(-0.228 0)"/>
      </g>
    </g>
  </g>
</svg>
