<svg xmlns="http://www.w3.org/2000/svg" xmlns:xlink="http://www.w3.org/1999/xlink" width="106.16" height="106.16" viewBox="0 0 106.16 106.16">
  <defs>
    <filter id="Trazado_982547" x="0" y="0" width="106.16" height="106.16" filterUnits="userSpaceOnUse">
      <feOffset dy="3" input="SourceAlpha"/>
      <feGaussianBlur stdDeviation="3" result="blur"/>
      <feFlood flood-opacity="0.161"/>
      <feComposite operator="in" in2="blur"/>
      <feComposite in="SourceGraphic"/>
    </filter>
  </defs>
  <g id="Grupo_1242066" data-name="Grupo 1242066" transform="translate(-820.42 -2583.855)">
    <g id="Grupo_1235681" data-name="Grupo 1235681" transform="translate(829.42 2589.855)">
      <g id="Grupo_1235128" data-name="Grupo 1235128" transform="translate(0 0)">
        <g id="Grupo_1233884" data-name="Grupo 1233884">
          <g id="Grupo_1228506" data-name="Grupo 1228506">
            <g id="Grupo_1206132" data-name="Grupo 1206132">
              <g id="Grupo_1203794" data-name="Grupo 1203794">
                <g id="Grupo_1203345" data-name="Grupo 1203345">
                  <g id="Grupo_1177900" data-name="Grupo 1177900">
                    <g id="Grupo_1172010" data-name="Grupo 1172010">
                      <g id="Grupo_1171046" data-name="Grupo 1171046">
                        <g id="Grupo_1148525" data-name="Grupo 1148525">
                          <g transform="matrix(1, 0, 0, 1, -9, -6)" filter="url(#Trazado_982547)">
                            <g id="Trazado_982547-2" data-name="Trazado 982547" transform="translate(9 6)" fill="#e9f9fd">
                              <path d="M 44.0802001953125 86.660400390625 C 38.33124923706055 86.660400390625 32.75506210327148 85.53479766845703 27.50652503967285 83.31484985351562 C 22.43628692626953 81.17032623291016 17.88242530822754 78.09992218017578 13.97144985198975 74.18894958496094 C 10.06047534942627 70.27797698974609 6.99007511138916 65.72411346435547 4.845550060272217 60.65387344360352 C 2.625600099563599 55.40533828735352 1.500000238418579 49.82915115356445 1.500000238418579 44.0802001953125 C 1.500000238418579 38.33124923706055 2.625600099563599 32.75506210327148 4.845550060272217 27.50652503967285 C 6.99007511138916 22.43628692626953 10.06047534942627 17.88242530822754 13.97144985198975 13.97144985198975 C 17.88242530822754 10.06047534942627 22.43628692626953 6.99007511138916 27.50652503967285 4.845550060272217 C 32.75506210327148 2.625600099563599 38.33124923706055 1.500000238418579 44.0802001953125 1.500000238418579 C 49.82915115356445 1.500000238418579 55.40533828735352 2.625600099563599 60.65387344360352 4.845550060272217 C 65.72411346435547 6.99007511138916 70.27797698974609 10.06047534942627 74.18894958496094 13.97144985198975 C 78.09992218017578 17.88242530822754 81.17032623291016 22.43628692626953 83.31484985351562 27.50652503967285 C 85.53479766845703 32.75506210327148 86.660400390625 38.33124923706055 86.660400390625 44.0802001953125 C 86.660400390625 49.82915115356445 85.53479766845703 55.40533828735352 83.31484985351562 60.65387344360352 C 81.17032623291016 65.72411346435547 78.09992218017578 70.27797698974609 74.18894958496094 74.18894958496094 C 70.27797698974609 78.09992218017578 65.72411346435547 81.17032623291016 60.65387344360352 83.31484985351562 C 55.40533828735352 85.53479766845703 49.82915115356445 86.660400390625 44.0802001953125 86.660400390625 Z" stroke="none"/>
                              <path d="M 44.0802001953125 3 C 38.53308486938477 3 33.15349960327148 4.085746765136719 28.09085845947266 6.227058410644531 C 23.19941711425781 8.29595947265625 18.80581665039062 11.25841522216797 15.03211212158203 15.03211212158203 C 11.25841522216797 18.80581665039062 8.29595947265625 23.19941711425781 6.227058410644531 28.09085845947266 C 4.085746765136719 33.15349960327148 3 38.53308486938477 3 44.0802001953125 C 3 49.62731552124023 4.085746765136719 55.00691604614258 6.227058410644531 60.06954193115234 C 8.29595947265625 64.96098327636719 11.25841522216797 69.35458374023438 15.03211212158203 73.12828826904297 C 18.80581665039062 76.90198516845703 23.19941711425781 79.86444091796875 28.09085845947266 81.93334197998047 C 33.15349960327148 84.07466125488281 38.53308486938477 85.160400390625 44.0802001953125 85.160400390625 C 49.62731552124023 85.160400390625 55.00691604614258 84.07466125488281 60.06954193115234 81.93334197998047 C 64.96099853515625 79.86444091796875 69.35458374023438 76.90198516845703 73.12828826904297 73.12828826904297 C 76.90198516845703 69.35458374023438 79.86444091796875 64.96099853515625 81.93334197998047 60.06954193115234 C 84.07466125488281 55.00691604614258 85.160400390625 49.62731552124023 85.160400390625 44.0802001953125 C 85.160400390625 38.53308486938477 84.07466125488281 33.15349960327148 81.93334197998047 28.09085845947266 C 79.86444091796875 23.19941711425781 76.90198516845703 18.80581665039062 73.12828826904297 15.03211212158203 C 69.35458374023438 11.25841522216797 64.96098327636719 8.29595947265625 60.06954193115234 6.227058410644531 C 55.00691604614258 4.085746765136719 49.62731552124023 3 44.0802001953125 3 M 44.0802001953125 0 C 68.42502593994141 0 88.160400390625 19.73538970947266 88.160400390625 44.0802001953125 C 88.160400390625 68.42502593994141 68.42502593994141 88.160400390625 44.0802001953125 88.160400390625 C 19.73538970947266 88.160400390625 0 68.42502593994141 0 44.0802001953125 C 0 19.73538970947266 19.73538970947266 0 44.0802001953125 0 Z" stroke="none" fill="#1d7083"/>
                            </g>
                          </g>
                        </g>
                      </g>
                    </g>
                  </g>
                </g>
              </g>
            </g>
          </g>
        </g>
      </g>
    </g>
    <g id="Page-1" transform="translate(849 2603)">
      <g id="_066---Tasks" data-name="066---Tasks">
        <rect id="Rectangle" width="46" height="54" rx="4" transform="translate(1 5)" fill="#f5f5f5"/>
        <path id="Path" d="M43,5H40a4,4,0,0,1,4,4V55a4,4,0,0,1-4,4h3a4,4,0,0,0,4-4V9A4,4,0,0,0,43,5Z" fill="#cfd8dc" fill-rule="evenodd"/>
        <circle id="Oval" cx="2" cy="2" r="2" transform="translate(17 8)" fill="#9e9e9e"/>
        <circle id="Oval-2" data-name="Oval" cx="2" cy="2" r="2" transform="translate(7 8)" fill="#9e9e9e"/>
        <circle id="Oval-3" data-name="Oval" cx="2" cy="2" r="2" transform="translate(37 8)" fill="#9e9e9e"/>
        <circle id="Oval-4" data-name="Oval" cx="2" cy="2" r="2" transform="translate(27 8)" fill="#9e9e9e"/>
        <circle id="Oval-5" data-name="Oval" cx="9" cy="9" r="9" transform="translate(5 15)" fill="#a4c400"/>
        <path id="Path-2" data-name="Path" d="M14,15a9.045,9.045,0,0,0-1.5.135,8.989,8.989,0,0,1,0,17.73A9,9,0,1,0,14,15Z" fill="#90ac00" fill-rule="evenodd"/>
        <circle id="Oval-6" data-name="Oval" cx="9" cy="9" r="9" transform="translate(5 37)" fill="#f44335"/>
        <path id="Path-3" data-name="Path" d="M14,37a9.045,9.045,0,0,0-1.5.135,8.989,8.989,0,0,1,0,17.73A9,9,0,1,0,14,37Z" fill="#c81e1e" fill-rule="evenodd"/>
        <g id="Grupo_1242065" data-name="Grupo 1242065">
          <path id="Shape" d="M9,0A1,1,0,0,0,8,1V4H5A5.006,5.006,0,0,0,0,9V55a5.006,5.006,0,0,0,5,5H43a5.006,5.006,0,0,0,5-5V9a5.006,5.006,0,0,0-5-5H40V1a1,1,0,0,0-2,0V4H30V1a1,1,0,0,0-2,0V4H20V1a1,1,0,0,0-2,0V4H10V1A1,1,0,0,0,9,0Zm9,6V7.184a3,3,0,1,0,2,0V6h8V7.184a3,3,0,1,0,2,0V6h8V7.184a3,3,0,1,0,2,0V6h3a3,3,0,0,1,3,3V55a3,3,0,0,1-3,3H5a3,3,0,0,1-3-3V9A3,3,0,0,1,5,6H8V7.184a3,3,0,1,0,2,0V6Zm1,3a1,1,0,1,1-1,1A1,1,0,0,1,19,9ZM29,9a1,1,0,1,1-1,1A1,1,0,0,1,29,9ZM39,9a1,1,0,1,1-1,1A1,1,0,0,1,39,9ZM9,9a1,1,0,1,1-1,1A1,1,0,0,1,9,9Z"/>
          <path id="Shape-2" data-name="Shape" d="M4,24A10,10,0,1,0,14,14,10,10,0,0,0,4,24Zm10-8a8,8,0,1,1-8,8A8,8,0,0,1,14,16Z"/>
          <path id="Shape-3" data-name="Shape" d="M14,36A10,10,0,1,0,24,46,10,10,0,0,0,14,36Zm0,18a8,8,0,1,1,8-8A8,8,0,0,1,14,54Z"/>
          <path id="Path-4" data-name="Path" d="M11.293,27.707a1,1,0,0,0,1.414,0l6-6a1,1,0,0,0-1.414-1.414L12,25.586l-1.293-1.293a1,1,0,0,0-1.414,1.414Z" fill-rule="evenodd"/>
          <path id="Path-5" data-name="Path" d="M17.707,42.293a1,1,0,0,0-1.414,0L14,44.586l-2.293-2.293a1,1,0,0,0-1.414,1.414L12.586,46l-2.293,2.293a1,1,0,1,0,1.414,1.414L14,47.414l2.293,2.293a1,1,0,0,0,1.414-1.414L15.414,46l2.293-2.293A1,1,0,0,0,17.707,42.293Z" fill-rule="evenodd"/>
          <path id="Path-6" data-name="Path" d="M28,24H42a1,1,0,0,0,0-2H28a1,1,0,0,0,0,2Z" fill-rule="evenodd"/>
          <path id="Path-7" data-name="Path" d="M28,19h2a1,1,0,0,0,0-2H28a1,1,0,0,0,0,2Z" fill-rule="evenodd"/>
          <path id="Path-8" data-name="Path" d="M34,19h8a1,1,0,0,0,0-2H34a1,1,0,0,0,0,2Z" fill-rule="evenodd"/>
          <path id="Path-9" data-name="Path" d="M28,29h5a1,1,0,0,0,0-2H28a1,1,0,0,0,0,2Z" fill-rule="evenodd"/>
          <path id="Path-10" data-name="Path" d="M28,47H42a1,1,0,0,0,0-2H28a1,1,0,0,0,0,2Z" fill-rule="evenodd"/>
          <path id="Path-11" data-name="Path" d="M28,42h2a1,1,0,0,0,0-2H28a1,1,0,0,0,0,2Z" fill-rule="evenodd"/>
          <path id="Path-12" data-name="Path" d="M42,40H34a1,1,0,0,0,0,2h8a1,1,0,0,0,0-2Z" fill-rule="evenodd"/>
          <path id="Path-13" data-name="Path" d="M28,52h5a1,1,0,0,0,0-2H28a1,1,0,0,0,0,2Z" fill-rule="evenodd"/>
        </g>
      </g>
    </g>
  </g>
</svg>
