<svg xmlns="http://www.w3.org/2000/svg" xmlns:xlink="http://www.w3.org/1999/xlink" width="189" height="179" viewBox="0 0 189 179">
  <defs>
    <clipPath id="clip-path">
      <rect id="Rect치ngulo_423323" data-name="Rect치ngulo 423323" width="189" height="179" transform="translate(181 295)" fill="#fff" stroke="#707070" stroke-width="1"/>
    </clipPath>
  </defs>
  <g id="Enmascarar_grupo_1211536" data-name="Enmascarar grupo 1211536" transform="translate(-181 -295)" clip-path="url(#clip-path)">
    <g id="Grupo_1242056" data-name="Grupo 1242056">
      <rect id="Rect치ngulo_423322" data-name="Rect치ngulo 423322" width="143" height="152" transform="translate(181 320)" fill="#36ceef"/>
      <g id="Grupo_1241586" data-name="Grupo 1241586" transform="translate(171.875 -855.364)">
        <path id="Trazado_1297573" data-name="Trazado 1297573" d="M658,1432.3l-3.513-7.49-.569-1.211-6.527,4.156L658,1449.275Z" transform="translate(-524.473 -221.359)" fill="#e2f1fb"/>
        <path id="Trazado_1297574" data-name="Trazado 1297574" d="M436.461,1437.978l-.867-1.761-48.566,31.01a45.5,45.5,0,0,1,3.46,7.974l0,0,.028.095c.3.915.564,1.856.811,2.813l6.657,23.108,49.082-39.138V1459.5Z" transform="translate(-313.543 -231.581)" fill="#3c426c"/>
        <path id="Trazado_1297575" data-name="Trazado 1297575" d="M641.859,1813.06l-6.718,2.9,10.806,24.152,5.863-3.022-2.256-5.449-7.361-17.775Z" transform="translate(-514.549 -536.876)" fill="#e2f1fb"/>
        <path id="Trazado_1297576" data-name="Trazado 1297576" d="M229.561,1344.187a14.666,14.666,0,0,1,8.668-5.259,27.74,27.74,0,0,1-3.195-7.311,17.774,17.774,0,0,0,7.462,6.78,57.424,57.424,0,0,0,5.792.074,6.85,6.85,0,0,0,.736-.133c.062-.015.122-.029.181-.047.177-.045.347-.1.508-.152l.14-.052a4.653,4.653,0,0,0,.556-.254.348.348,0,0,0,.058-.031,4.888,4.888,0,0,0,.42-.261c.042-.032.082-.059.122-.091.112-.084.218-.171.317-.26.027-.026.057-.051.084-.076.107-.106.208-.212.3-.319h0c-3.785-.427-18.727-3.366-20.1-23.066,0,0,0,0-.005,0-4.041,2.866-.274,10.839-.274,10.839-2.817,3.191-14.469,10.018-14.469,10.018a15.083,15.083,0,0,0,.658-2.966l-.024-.007-1.732,8.107A28.391,28.391,0,0,1,229.561,1344.187Z" transform="translate(-174.792 -132.35)" fill="#d38972"/>
        <path id="Trazado_1297577" data-name="Trazado 1297577" d="M377.3,1369.239v-4.085h-6.555C372.16,1369.089,377.3,1369.239,377.3,1369.239Z" transform="translate(-300.353 -174.01)" fill="#e8e4f2"/>
        <path id="Trazado_1297578" data-name="Trazado 1297578" d="M307.233,1319.65l-.958.535c-.731,2.3,1.355,7.068,1.355,7.068l1.342.583c.149-1.211-.376-6.648-.376-6.648C308.041,1319.785,307.233,1319.65,307.233,1319.65Z" transform="translate(-247.996 -137.145)" fill="#d38972"/>
        <path id="Trazado_1297579" data-name="Trazado 1297579" d="M224.718,1465.39c.226.173.453.344.677.523a14.141,14.141,0,0,0-.778-2.083,22.2,22.2,0,0,0-7.9-9.232,28.383,28.383,0,0,0-13.8-4.463c-.7-.054-1.408-.1-2.147-.116l-.862,2.277C206.939,1454.416,216.528,1458.35,224.718,1465.39Z" transform="translate(-161.951 -242.762)" fill="#e2f1fb"/>
        <path id="Trazado_1297580" data-name="Trazado 1297580" d="M131.4,1546.005l-10.806-24.151-.52-1.16-29.6,12.62-6.023-20.908L77.788,1489.3c-.247-.957-.516-1.9-.811-2.812l-.028-.095,0,0a45.5,45.5,0,0,0-3.46-7.974A47.6,47.6,0,0,0,62.767,1465.4c-8.19-7.04-17.779-10.975-24.809-13.094a67.2,67.2,0,0,0-9.94-2.277L0,1521.986v55.968H67.7l2.691-16.407-1.468,8.954c-6.957,1.745,1.139,1.327-10.8.8l-9.755-76.22L56.62,1518.8l13.774,42.742c0,.006,3.976,13.881,27.625,5.244l34.547-18.175Z" transform="translate(0 -242.768)" fill="#50567e"/>
        <path id="Trazado_1297581" data-name="Trazado 1297581" d="M722.933,1496.017h39.424V1442.51h-2.063c.133,2.524-.093,5.281-.684,6.185-2.674,4.1-5.762-.938-5.762-.938-4.012,5.252-6.487.287-6.487.287-3.625,4.394-6.139-.287-6.139-.287s-2.94,4.871-5.8-.668l-.213-4.579H722.933v53.507Z" transform="translate(-585.673 -236.679)" fill="#e2f1fb"/>
        <g id="Grupo_1241583" data-name="Grupo 1241583" transform="translate(54.769 1172.978)">
          <path id="Trazado_1297582" data-name="Trazado 1297582" d="M688.28,1398.555a2.808,2.808,0,0,1,2.6-2.795h13.281l.12,2.581.213,4.579c2.865,5.539,5.8.668,5.8.668s2.515,4.68,6.139.287c0,0,2.476,4.965,6.487-.287,0,0,3.088,5.034,5.762.938.59-.9.817-3.661.684-6.185a19.249,19.249,0,0,0-.3-2.6,8.849,8.849,0,0,0-.228-.937,8.3,8.3,0,0,0-3.437-4.583s-6.366-3.845-19.769-1.434a141.735,141.735,0,0,0-14.5,4.069h0l-.4.134v.031c-1.864.785-4.138,1.953-5.978,2.943l3.513,7.489v-4.9Zm34.3-7.313a.34.34,0,0,1,.68,0v11.813a.34.34,0,0,1-.68,0Zm-6.618,0a.339.339,0,0,1,.679,0v11.813a.339.339,0,0,1-.679,0Zm-6.618,0a.34.34,0,0,1,.68,0v11.813a.34.34,0,0,1-.68,0Z" transform="translate(-609.522 -1365.49)" fill="#e09c83"/>
          <path id="Trazado_1297583" data-name="Trazado 1297583" d="M731.021,1783.821a5.8,5.8,0,0,0-.062-.833.339.339,0,0,1-.238-.051,4.03,4.03,0,0,0-1.232-.435c-.16-.033-.326-.069-.507-.1a31.069,31.069,0,0,0-3.154-.363c-.555-.043-1.146-.076-1.758-.109-2.1-.1-4.484-.139-6.9-.139-5.746,0-11.654.219-14.247.329-.865.037-1.359.06-1.359.06l-.174.007-.108-.133a8.462,8.462,0,0,0-4.532-3.015,8.041,8.041,0,0,0-2-.254c-.114,0-.223,0-.329.006a6.455,6.455,0,0,0-1.294.17l-.024.006a.338.338,0,0,1-.42-.231.424.424,0,0,1-.006-.068,29.08,29.08,0,0,0-12.16,3.286c-.36.179-3.988,1.965-8.231,4.051l7.361,17.775,8.574-6.256-.605.037a.34.34,0,0,1-.041-.679s.025,0,.061,0c.192-.011.882-.054,1.937-.123,1.25-.082,3-.2,4.99-.343,3.987-.293,8.961-.7,12.9-1.145a44.943,44.943,0,0,0,5.875-.931,2.64,2.64,0,0,0,.576-.214,2.7,2.7,0,0,0,.868-3.651,1.349,1.349,0,0,0-.909-.655c-.487-.072-1.418-.132-2.57-.177s-2.538-.081-3.959-.1c-2.842-.05-5.835-.055-7.467-.055h-1.4l-.1-.119a14.081,14.081,0,0,0-9.216-4.975l-.052,0a.076.076,0,0,1-.024-.005.336.336,0,0,1,.053-.671,12.321,12.321,0,0,1,3.317.742,14.99,14.99,0,0,1,6.331,4.352h1.093c2.451,0,7.965.013,11.453.156,1.164.049,2.1.105,2.643.188a2.012,2.012,0,0,1,1.381.958,2.721,2.721,0,0,1,.2.369c4.5-.906,8.537-1.7,10.942-2.123C731.174,1787.522,731.021,1783.821,731.021,1783.821Z" transform="translate(-599.407 -1681.992)" fill="#e09c83"/>
          <path id="Trazado_1297584" data-name="Trazado 1297584" d="M807.712,1779.137a9.671,9.671,0,0,1,2.566,2.2c1.117-.053,7.861-.358,14.631-.384h.844a79.917,79.917,0,0,1,11.935.623,7.392,7.392,0,0,1,1.681.472,3.511,3.511,0,0,0-2.935-2.458l-30.12-1.115A8.767,8.767,0,0,1,807.712,1779.137Z" transform="translate(-707.992 -1681.838)" fill="#e09c83"/>
          <path id="Trazado_1297585" data-name="Trazado 1297585" d="M349.98,1447.609l1.252-3.958Z" transform="translate(-338.298 -1410.581)" fill="#e09c83"/>
          <path id="Trazado_1297586" data-name="Trazado 1297586" d="M297.118,1446.44a14.666,14.666,0,0,0-8.668,5.259,22.2,22.2,0,0,1,7.9,9.232l.274.042,3.51-11.1A13.979,13.979,0,0,1,297.118,1446.44Z" transform="translate(-288.45 -1412.841)" fill="#e09c83"/>
          <path id="Trazado_1297587" data-name="Trazado 1297587" d="M307.571,1270.453c-3.673,1.9-1.2,7.426-1.2,7.426l-1.431,2.684s-1.688-5.548-5.728-2.686c1.375,19.7,16.316,22.639,20.1,23.066a5.152,5.152,0,0,0,1.13-3.24c0-.3.067-12.583.067-12.583h2.195s-.984-8.811-2.723-13.277C319.984,1271.84,313.041,1267.618,307.571,1270.453Zm-4.194,16.732-1.342-.583s-2.085-4.769-1.355-7.068l.958-.535s.808.136,1.362,1.537C303,1280.538,303.526,1285.974,303.377,1287.185Zm14.222-11.5.7,2.195h-5.259S313.8,1275.856,317.6,1275.683Zm-.664,6.144c-.806-.068-.863-2.533-.863-2.533h2.135l-.487.527S317.742,1281.9,316.935,1281.827Zm2.415,9.9s-5.142-.151-6.555-4.085h6.555Z" transform="translate(-297.17 -1269.474)" fill="#e09c83"/>
        </g>
        <g id="Grupo_1241584" data-name="Grupo 1241584" transform="translate(48.369 1182.799)">
          <path id="Trazado_1297588" data-name="Trazado 1297588" d="M254.742,1687.34l9.755,76.22c11.941.524,3.845.942,10.8-.8l1.468-8.954-13.774-42.742Z" transform="translate(-254.742 -1617.824)" fill="#20163a"/>
          <path id="Trazado_1297589" data-name="Trazado 1297589" d="M323.483,1418.674l1.252-3.96a17.774,17.774,0,0,1-7.462-6.78,27.745,27.745,0,0,0,3.195,7.311A13.975,13.975,0,0,0,323.483,1418.674Z" transform="translate(-305.401 -1391.467)" fill="#20163a"/>
          <path id="Trazado_1297590" data-name="Trazado 1297590" d="M388.008,1321.2s.056,2.464.863,2.533.785-2.006.785-2.006l.487-.527Z" transform="translate(-362.706 -1321.2)" fill="#20163a"/>
          <path id="Trazado_1297591" data-name="Trazado 1297591" d="M779.227,1811.62a2.011,2.011,0,0,0-1.381-.958c-.546-.082-1.48-.139-2.643-.188-3.488-.142-9-.156-11.453-.156h-1.093a14.987,14.987,0,0,0-6.331-4.352,12.312,12.312,0,0,0-3.317-.742.336.336,0,0,0-.053.67.068.068,0,0,0,.024.005l.052,0a14.08,14.08,0,0,1,9.216,4.975l.1.119h1.4c1.632,0,4.625.005,7.467.055,1.421.021,2.8.054,3.959.1s2.083.105,2.57.177a1.35,1.35,0,0,1,.909.655,2.7,2.7,0,0,1-.868,3.65,2.63,2.63,0,0,1-.576.214,44.874,44.874,0,0,1-5.875.931c-3.941.448-8.915.852-12.9,1.145-1.994.145-3.74.261-4.99.344-1.055.069-1.745.112-1.937.123l-.06,0a.34.34,0,0,0,.041.679l.605-.037c1.689-.105,6.664-.426,11.823-.861,3.178-.265,6.425-.575,9.021-.9,1.3-.165,2.434-.333,3.322-.5.444-.088.826-.174,1.138-.264a3.017,3.017,0,0,0,.746-.294,3.283,3.283,0,0,0,1.569-2.844,3.369,3.369,0,0,0-.288-1.38A2.838,2.838,0,0,0,779.227,1811.62Z" transform="translate(-656.882 -1713.327)" fill="#20163a"/>
          <path id="Trazado_1297592" data-name="Trazado 1297592" d="M818.1,1779.97a2.714,2.714,0,0,0-.313-.168,7.392,7.392,0,0,0-1.681-.472,79.952,79.952,0,0,0-11.935-.623h-.844c-6.77.026-13.514.331-14.631.384a9.672,9.672,0,0,0-2.566-2.2,8.629,8.629,0,0,0-4.382-1.186,7.212,7.212,0,0,0-1.834.211.334.334,0,0,0-.238.352.443.443,0,0,0,.006.068.338.338,0,0,0,.42.231l.024-.006a6.443,6.443,0,0,1,1.294-.17c.106,0,.215-.006.329-.006a8.042,8.042,0,0,1,2,.254,8.462,8.462,0,0,1,4.532,3.015l.108.133.174-.007s.495-.023,1.359-.06c2.593-.11,8.5-.329,14.247-.329,2.418,0,4.8.039,6.9.139.611.033,1.2.066,1.758.109a31.136,31.136,0,0,1,3.154.363c.18.034.347.07.507.1a4.028,4.028,0,0,1,1.232.435.34.34,0,1,0,.377-.565Z" transform="translate(-680.01 -1689.41)" fill="#20163a"/>
          <path id="Trazado_1297593" data-name="Trazado 1297593" d="M750.028,1486.883v-55.262a2.816,2.816,0,0,0-2.817-2.815h-3.145a19.229,19.229,0,0,1,.3,2.6h2.063v53.507H707v-53.507h12.271l-.12-2.581H705.872a2.808,2.808,0,0,0-2.6,2.794v55.262a2.817,2.817,0,0,0,2.817,2.817h41.125A2.817,2.817,0,0,0,750.028,1486.883Z" transform="translate(-618.111 -1408.376)" fill="#20163a"/>
          <path id="Trazado_1297594" data-name="Trazado 1297594" d="M884.262,1415.815a.34.34,0,0,0,.34-.339v-11.813a.34.34,0,0,0-.68,0v11.813A.34.34,0,0,0,884.262,1415.815Z" transform="translate(-764.465 -1387.733)" fill="#20163a"/>
          <path id="Trazado_1297595" data-name="Trazado 1297595" d="M849.406,1415.815a.339.339,0,0,0,.339-.339v-11.813a.339.339,0,0,0-.679,0v11.813A.339.339,0,0,0,849.406,1415.815Z" transform="translate(-736.227 -1387.733)" fill="#20163a"/>
          <path id="Trazado_1297596" data-name="Trazado 1297596" d="M814.551,1415.815a.34.34,0,0,0,.34-.339v-11.813a.34.34,0,0,0-.68,0v11.813A.34.34,0,0,0,814.551,1415.815Z" transform="translate(-707.99 -1387.733)" fill="#20163a"/>
        </g>
        <g id="Grupo_1241585" data-name="Grupo 1241585" transform="translate(42.065 1150.364)">
          <path id="Trazado_1297597" data-name="Trazado 1297597" d="M372.039,1304.376H377.3l-.7-2.195C372.8,1302.354,372.039,1304.376,372.039,1304.376Z" transform="translate(-343.465 -1273.357)" fill="#4c322a"/>
          <path id="Trazado_1297598" data-name="Trazado 1297598" d="M250.113,1150.545s-6.972-1.688-3.968,5.443c0,0-3.139-5.417-7.109-5.619s-3.721,4.868-1.592,8.061a4.326,4.326,0,0,0-4.629-.939c-2.628,1.127,2.464,4.366.4,7.933s-6.221.481-9.037,3.69c-2.487,2.835-.75,21.282-1.983,30.161a15.081,15.081,0,0,1-.658,2.966s11.652-6.827,14.469-10.018c0,0-3.768-7.973.274-10.839l.005,0c4.04-2.862,5.728,2.686,5.728,2.686l1.431-2.684s-2.476-5.525,1.2-7.426c5.47-2.835,12.413,1.389,12.413,1.389S261.164,1156.928,250.113,1150.545Z" transform="translate(-221.539 -1150.364)" fill="#4c322a"/>
        </g>
      </g>
    </g>
  </g>
</svg>
