<svg xmlns="http://www.w3.org/2000/svg" xmlns:xlink="http://www.w3.org/1999/xlink" width="106.16" height="106.16" viewBox="0 0 106.16 106.16">
  <defs>
    <filter id="Trazado_982547" x="0" y="0" width="106.16" height="106.16" filterUnits="userSpaceOnUse">
      <feOffset dy="3" input="SourceAlpha"/>
      <feGaussianBlur stdDeviation="3" result="blur"/>
      <feFlood flood-opacity="0.161"/>
      <feComposite operator="in" in2="blur"/>
      <feComposite in="SourceGraphic"/>
    </filter>
  </defs>
  <g id="Grupo_1242079" data-name="Grupo 1242079" transform="translate(-190.42 -2738.469)">
    <g id="Grupo_1235685" data-name="Grupo 1235685" transform="translate(199.42 2744.469)">
      <g id="Grupo_1235128" data-name="Grupo 1235128" transform="translate(0 0)">
        <g id="Grupo_1233884" data-name="Grupo 1233884" transform="translate(0 0)">
          <g id="Grupo_1228506" data-name="Grupo 1228506">
            <g id="Grupo_1206132" data-name="Grupo 1206132">
              <g id="Grupo_1203794" data-name="Grupo 1203794">
                <g id="Grupo_1203345" data-name="Grupo 1203345">
                  <g id="Grupo_1177900" data-name="Grupo 1177900">
                    <g id="Grupo_1172010" data-name="Grupo 1172010">
                      <g id="Grupo_1171046" data-name="Grupo 1171046">
                        <g id="Grupo_1148525" data-name="Grupo 1148525">
                          <g transform="matrix(1, 0, 0, 1, -9, -6)" filter="url(#Trazado_982547)">
                            <g id="Trazado_982547-2" data-name="Trazado 982547" transform="translate(9 6)" fill="#e9f9fd">
                              <path d="M 44.0802001953125 86.660400390625 C 38.33124923706055 86.660400390625 32.75506210327148 85.53479766845703 27.50652503967285 83.31484985351562 C 22.43628692626953 81.17032623291016 17.88242530822754 78.09992218017578 13.97144985198975 74.18894958496094 C 10.06047534942627 70.27797698974609 6.99007511138916 65.72411346435547 4.845550060272217 60.65387344360352 C 2.625600099563599 55.40533828735352 1.500000238418579 49.82915115356445 1.500000238418579 44.0802001953125 C 1.500000238418579 38.33124923706055 2.625600099563599 32.75506210327148 4.845550060272217 27.50652503967285 C 6.99007511138916 22.43628692626953 10.06047534942627 17.88242530822754 13.97144985198975 13.97144985198975 C 17.88242530822754 10.06047534942627 22.43628692626953 6.99007511138916 27.50652503967285 4.845550060272217 C 32.75506210327148 2.625600099563599 38.33124923706055 1.500000238418579 44.0802001953125 1.500000238418579 C 49.82915115356445 1.500000238418579 55.40533828735352 2.625600099563599 60.65387344360352 4.845550060272217 C 65.72411346435547 6.99007511138916 70.27797698974609 10.06047534942627 74.18894958496094 13.97144985198975 C 78.09992218017578 17.88242530822754 81.17032623291016 22.43628692626953 83.31484985351562 27.50652503967285 C 85.53479766845703 32.75506210327148 86.660400390625 38.33124923706055 86.660400390625 44.0802001953125 C 86.660400390625 49.82915115356445 85.53479766845703 55.40533828735352 83.31484985351562 60.65387344360352 C 81.17032623291016 65.72411346435547 78.09992218017578 70.27797698974609 74.18894958496094 74.18894958496094 C 70.27797698974609 78.09992218017578 65.72411346435547 81.17032623291016 60.65387344360352 83.31484985351562 C 55.40533828735352 85.53479766845703 49.82915115356445 86.660400390625 44.0802001953125 86.660400390625 Z" stroke="none"/>
                              <path d="M 44.0802001953125 3 C 38.53308486938477 3 33.15349960327148 4.085746765136719 28.09085845947266 6.227058410644531 C 23.19941711425781 8.29595947265625 18.80581665039062 11.25841522216797 15.03211212158203 15.03211212158203 C 11.25841522216797 18.80581665039062 8.29595947265625 23.19941711425781 6.227058410644531 28.09085845947266 C 4.085746765136719 33.15349960327148 3 38.53308486938477 3 44.0802001953125 C 3 49.62731552124023 4.085746765136719 55.00691604614258 6.227058410644531 60.06954193115234 C 8.29595947265625 64.96098327636719 11.25841522216797 69.35458374023438 15.03211212158203 73.12828826904297 C 18.80581665039062 76.90198516845703 23.19941711425781 79.86444091796875 28.09085845947266 81.93334197998047 C 33.15349960327148 84.07466125488281 38.53308486938477 85.160400390625 44.0802001953125 85.160400390625 C 49.62731552124023 85.160400390625 55.00691604614258 84.07466125488281 60.06954193115234 81.93334197998047 C 64.96099853515625 79.86444091796875 69.35458374023438 76.90198516845703 73.12828826904297 73.12828826904297 C 76.90198516845703 69.35458374023438 79.86444091796875 64.96099853515625 81.93334197998047 60.06954193115234 C 84.07466125488281 55.00691604614258 85.160400390625 49.62731552124023 85.160400390625 44.0802001953125 C 85.160400390625 38.53308486938477 84.07466125488281 33.15349960327148 81.93334197998047 28.09085845947266 C 79.86444091796875 23.19941711425781 76.90198516845703 18.80581665039062 73.12828826904297 15.03211212158203 C 69.35458374023438 11.25841522216797 64.96098327636719 8.29595947265625 60.06954193115234 6.227058410644531 C 55.00691604614258 4.085746765136719 49.62731552124023 3 44.0802001953125 3 M 44.0802001953125 0 C 68.42502593994141 0 88.160400390625 19.73538970947266 88.160400390625 44.0802001953125 C 88.160400390625 68.42502593994141 68.42502593994141 88.160400390625 44.0802001953125 88.160400390625 C 19.73538970947266 88.160400390625 0 68.42502593994141 0 44.0802001953125 C 0 19.73538970947266 19.73538970947266 0 44.0802001953125 0 Z" stroke="none" fill="#1d7083"/>
                            </g>
                          </g>
                        </g>
                      </g>
                    </g>
                  </g>
                </g>
              </g>
            </g>
          </g>
        </g>
      </g>
    </g>
    <g id="diagrama-de-venn" transform="translate(211.811 2739.207)">
      <g id="Grupo_1242077" data-name="Grupo 1242077" transform="translate(0.928 18.037)">
        <path id="Trazado_1298280" data-name="Trazado 1298280" d="M43.005,208.879a22.528,22.528,0,0,1-11.138,3.061,18.523,18.523,0,0,1-18.952-18.818c0-4.976,1.356-9.488,4.435-12.923.618-.689,1.84-1.957,1.84-1.957a19.344,19.344,0,0,1,12.469-4.534c4.235,0,7.338.8,10.529,3.1a7.338,7.338,0,0,0-2.565,3.662,19.333,19.333,0,0,0-4.665,11.677A22.142,22.142,0,0,0,36.239,195s2.433,9.1,6.766,13.879Z" transform="translate(-12.245 -155.251)" fill="#5de1c4"/>
        <path id="Trazado_1298281" data-name="Trazado 1298281" d="M38.261,240.75a19.417,19.417,0,0,1-23.779-30.67,19.419,19.419,0,0,0,23.009,30.085c.135.108.511-.259.649-.154.119.09,0,.652.121.74Z" transform="translate(-7.5 -187.122)" fill="#09d6b4"/>
        <path id="Trazado_1298282" data-name="Trazado 1298282" d="M121.556,172.382a19.541,19.541,0,0,0-3.381,3.105,19.343,19.343,0,0,0-13.357-5.326,19.644,19.644,0,0,0-2.255.129s.032-.08.054-.09c2.331-1,4.962-2.18,7.653-2.18C114.505,168.021,119.752,169.707,121.556,172.382Z" transform="translate(-90.796 -150.269)" fill="#09d6b4"/>
        <path id="Trazado_1298283" data-name="Trazado 1298283" d="M234.69,206.809a19.417,19.417,0,0,1-30.76,15.758s-.975-1-1.512-1.482c-3.919-3.552-5.861-14.149-5.844-14.472a7.474,7.474,0,0,0,3.911.772,19.431,19.431,0,0,0,23.248-18.056c.6.289,1.118,1.655,1.678,2a3.813,3.813,0,0,0,1.919.26,19.379,19.379,0,0,1,7.361,15.22Z" transform="translate(-173.169 -168.938)" fill="#fe7c66"/>
        <path id="Trazado_1298284" data-name="Trazado 1298284" d="M198.868,339.4a19.389,19.389,0,0,1-8.068-15.757q0-.49.025-.974a19.222,19.222,0,0,0,4.6,1.55,19.412,19.412,0,0,0,3.443,15.18Z" transform="translate(-168.11 -285.775)" fill="#fe6c55"/>
        <path id="Trazado_1298285" data-name="Trazado 1298285" d="M336.451,191.589A19.356,19.356,0,0,1,321.112,206.2s.081-.225.155-.258c4.3-1.942,6.711-6.169,8.691-10.467,1.009-2.191,2.9-6.148,2.9-6.148A19.328,19.328,0,0,1,336.451,191.589Z" transform="translate(-282.292 -168.939)" fill="#fe6c55"/>
        <path id="Trazado_1298286" data-name="Trazado 1298286" d="M141.312,44.024q0,.49-.025.975a19.42,19.42,0,0,1-11.743,16.874,19.391,19.391,0,0,0-8.059-15.149h0a19.441,19.441,0,0,0-18.993-2.092c-.008-.2-.01-.4-.01-.606a19.415,19.415,0,0,1,38.831,0Z" transform="translate(-90.724 -24.609)" fill="#fee45a"/>
      </g>
      <g id="Grupo_1242078" data-name="Grupo 1242078" transform="translate(0 17.109)">
        <path id="Trazado_1298287" data-name="Trazado 1298287" d="M60.185,44.962a20.394,20.394,0,0,0-7.745-7.1,20.61,20.61,0,0,0-1.4-7.859.928.928,0,1,0-1.728.68,18.505,18.505,0,0,1-8.723,23.191,20.05,20.05,0,0,0-2.348-7.652A20.8,20.8,0,0,0,32.232,39.4a20.383,20.383,0,0,0-18.6-2.7,18.489,18.489,0,0,1,33.738-9.677A.928.928,0,0,0,48.9,25.974,20.345,20.345,0,0,0,11.757,37.462,20.37,20.37,0,0,0,.387,59.872a.928.928,0,1,0,1.821-.361,18.514,18.514,0,0,1,10.847-20.6l.007,0A18.517,18.517,0,0,1,30.1,40.2a20.269,20.269,0,0,0-4.577,5.34.928.928,0,1,0,1.6.947,18.436,18.436,0,0,1,4.566-5.179,18.341,18.341,0,0,1,7.1,13.378,18.54,18.54,0,0,1-14.178-.332,18.464,18.464,0,0,1,.815-4.1.928.928,0,0,0-1.768-.567,20.652,20.652,0,0,0-.968,6.218,20.417,20.417,0,0,0,7.412,15.7A18.5,18.5,0,0,1,3.459,63.447a.928.928,0,1,0-1.695.758A20.353,20.353,0,0,0,31.69,72.8a20.372,20.372,0,0,0,10.5,3.437.928.928,0,0,0,.038-1.856A18.478,18.478,0,0,1,24.554,56.348,20.171,20.171,0,0,0,32.1,57.8a20.32,20.32,0,0,0,16.626-8.618,20.245,20.245,0,0,0,3.57-9.27A18.49,18.49,0,0,1,46.359,74.1a.928.928,0,1,0,.331,1.827A20.35,20.35,0,0,0,60.185,44.962Z" transform="translate(0 -17.109)"/>
        <path id="Trazado_1298288" data-name="Trazado 1298288" d="M243.677,99.939a.928.928,0,0,0,0-1.857h-6.833a.928.928,0,0,0,0,1.857Z" transform="translate(-206.712 -88.059)"/>
        <path id="Trazado_1298289" data-name="Trazado 1298289" d="M214.128,134.01a.928.928,0,0,0,.928.928h12.227a.928.928,0,1,0,0-1.857H215.056A.928.928,0,0,0,214.128,134.01Z" transform="translate(-187.622 -118.726)"/>
        <path id="Trazado_1298290" data-name="Trazado 1298290" d="M73.834,309.408a.928.928,0,0,0,0-1.857H67a.928.928,0,1,0,0,1.857Z" transform="translate(-57.893 -271.599)"/>
        <path id="Trazado_1298291" data-name="Trazado 1298291" d="M44.285,343.479a.928.928,0,0,0,.928.928H57.44a.928.928,0,0,0,0-1.857H45.213A.928.928,0,0,0,44.285,343.479Z" transform="translate(-38.803 -302.266)"/>
        <path id="Trazado_1298292" data-name="Trazado 1298292" d="M358.608,354.031a.928.928,0,1,0,0-1.857h-6.833a.928.928,0,0,0,0,1.857Z" transform="translate(-307.417 -310.698)"/>
        <path id="Trazado_1298293" data-name="Trazado 1298293" d="M329.059,388.1a.928.928,0,0,0,.928.928h12.227a.928.928,0,0,0,0-1.857H329.987A.928.928,0,0,0,329.059,388.1Z" transform="translate(-288.326 -341.366)"/>
      </g>
    </g>
  </g>
</svg>
