<svg xmlns="http://www.w3.org/2000/svg" xmlns:xlink="http://www.w3.org/1999/xlink" width="774" height="397.474" viewBox="0 0 774 397.474">
  <defs>
    <filter id="Trazado_1299233" x="0" y="69.326" width="151" height="67" filterUnits="userSpaceOnUse">
      <feOffset dy="3" input="SourceAlpha"/>
      <feGaussianBlur stdDeviation="3" result="blur"/>
      <feFlood flood-opacity="0.161"/>
      <feComposite operator="in" in2="blur"/>
      <feComposite in="SourceGraphic"/>
    </filter>
    <filter id="Trazado_1296059" x="231" y="29.326" width="151" height="67" filterUnits="userSpaceOnUse">
      <feOffset dy="3" input="SourceAlpha"/>
      <feGaussianBlur stdDeviation="3" result="blur-2"/>
      <feFlood flood-opacity="0.161"/>
      <feComposite operator="in" in2="blur-2"/>
      <feComposite in="SourceGraphic"/>
    </filter>
    <filter id="Trazado_1296060" x="378" y="29.326" width="151" height="67" filterUnits="userSpaceOnUse">
      <feOffset dy="3" input="SourceAlpha"/>
      <feGaussianBlur stdDeviation="3" result="blur-3"/>
      <feFlood flood-opacity="0.161"/>
      <feComposite operator="in" in2="blur-3"/>
      <feComposite in="SourceGraphic"/>
    </filter>
    <filter id="Trazado_1296061" x="623" y="69.326" width="151" height="67" filterUnits="userSpaceOnUse">
      <feOffset dy="3" input="SourceAlpha"/>
      <feGaussianBlur stdDeviation="3" result="blur-4"/>
      <feFlood flood-opacity="0.161"/>
      <feComposite operator="in" in2="blur-4"/>
      <feComposite in="SourceGraphic"/>
    </filter>
    <filter id="Trazado_1296064" x="172.16" y="238.44" width="131" height="122" filterUnits="userSpaceOnUse">
      <feOffset dy="3" input="SourceAlpha"/>
      <feGaussianBlur stdDeviation="3" result="blur-5"/>
      <feFlood flood-opacity="0.161"/>
      <feComposite operator="in" in2="blur-5"/>
      <feComposite in="SourceGraphic"/>
    </filter>
    <filter id="Trazado_1296063" x="318.16" y="275.474" width="131" height="122" filterUnits="userSpaceOnUse">
      <feOffset dy="3" input="SourceAlpha"/>
      <feGaussianBlur stdDeviation="3" result="blur-6"/>
      <feFlood flood-opacity="0.161"/>
      <feComposite operator="in" in2="blur-6"/>
      <feComposite in="SourceGraphic"/>
    </filter>
    <filter id="Trazado_1296065" x="458.16" y="238.44" width="131" height="122" filterUnits="userSpaceOnUse">
      <feOffset dy="3" input="SourceAlpha"/>
      <feGaussianBlur stdDeviation="3" result="blur-7"/>
      <feFlood flood-opacity="0.161"/>
      <feComposite operator="in" in2="blur-7"/>
      <feComposite in="SourceGraphic"/>
    </filter>
    <filter id="Trazado_1296062" x="308.296" y="124.6" width="147.727" height="137.395" filterUnits="userSpaceOnUse">
      <feOffset dy="3" input="SourceAlpha"/>
      <feGaussianBlur stdDeviation="3" result="blur-8"/>
      <feFlood flood-opacity="0.161"/>
      <feComposite operator="in" in2="blur-8"/>
      <feComposite in="SourceGraphic"/>
    </filter>
  </defs>
  <g id="Grupo_1242799" data-name="Grupo 1242799" transform="translate(-413 -2622.581)">
    <g transform="matrix(1, 0, 0, 1, 413, 2622.58)" filter="url(#Trazado_1299233)">
      <path id="Trazado_1299233-2" data-name="Trazado 1299233" d="M8,0H125a8,8,0,0,1,8,8V41a8,8,0,0,1-8,8H8a8,8,0,0,1-8-8V8A8,8,0,0,1,8,0Z" transform="translate(9 75.33)" fill="#ff9d1c"/>
    </g>
    <path id="Parrafo" d="M8.846,19H7.37V6.4H8.846Zm10.593,0H18V13.867Q18,11,15.906,11a2.269,2.269,0,0,0-1.789.813,3.013,3.013,0,0,0-.708,2.052V19H11.968V10h1.441v1.494h.035A3.248,3.248,0,0,1,16.4,9.789a2.753,2.753,0,0,1,2.259.954,4.248,4.248,0,0,1,.782,2.755ZM22.895,7.715a.913.913,0,0,1-.659-.264.89.89,0,0,1-.272-.668.923.923,0,0,1,.932-.94.931.931,0,0,1,.672.268.939.939,0,0,1,0,1.332A.923.923,0,0,1,22.895,7.715ZM23.6,19H22.156V10H23.6Zm9.055-.413a4.684,4.684,0,0,1-2.461.624,4.074,4.074,0,0,1-3.107-1.252A4.539,4.539,0,0,1,25.9,14.711a4.99,4.99,0,0,1,1.274-3.573,4.458,4.458,0,0,1,3.4-1.349,4.735,4.735,0,0,1,2.092.439v1.477a3.665,3.665,0,0,0-2.145-.7,2.9,2.9,0,0,0-2.263.989,3.752,3.752,0,0,0-.883,2.6,3.573,3.573,0,0,0,.831,2.5A2.863,2.863,0,0,0,30.437,18a3.613,3.613,0,0,0,2.215-.782Zm2.92-10.872a.913.913,0,0,1-.659-.264.89.89,0,0,1-.272-.668.923.923,0,0,1,.932-.94.931.931,0,0,1,.672.268.939.939,0,0,1,0,1.332A.923.923,0,0,1,35.572,7.715ZM36.275,19H34.834V10h1.441Zm6.681.211a4.175,4.175,0,0,1-3.186-1.261,4.672,4.672,0,0,1-1.191-3.344,4.867,4.867,0,0,1,1.239-3.542,4.455,4.455,0,0,1,3.349-1.274,4.037,4.037,0,0,1,3.142,1.239,4.914,4.914,0,0,1,1.129,3.437,4.835,4.835,0,0,1-1.217,3.45A4.265,4.265,0,0,1,42.957,19.211ZM43.062,11a2.742,2.742,0,0,0-2.2.945,3.88,3.88,0,0,0-.809,2.606,3.67,3.67,0,0,0,.817,2.522A2.778,2.778,0,0,0,43.062,18a2.635,2.635,0,0,0,2.149-.905,3.928,3.928,0,0,0,.751-2.575,4,4,0,0,0-.751-2.6A2.623,2.623,0,0,0,43.062,11Z" transform="translate(462 2710.907)" fill="#0b0a0a"/>
    <g transform="matrix(1, 0, 0, 1, 413, 2622.58)" filter="url(#Trazado_1296059)">
      <path id="Trazado_1296059-2" data-name="Trazado 1296059" d="M8,0H125a8,8,0,0,1,8,8V41a8,8,0,0,1-8,8H8a8,8,0,0,1-8-8V8A8,8,0,0,1,8,0Z" transform="translate(240 35.33)" fill="#ff9d1c"/>
    </g>
    <path id="Parrafo-2" data-name="Parrafo" d="M16.109,14.236V19H14.633V6.4H18.1a4.571,4.571,0,0,1,3.133.984,3.515,3.515,0,0,1,1.112,2.777,3.82,3.82,0,0,1-1.235,2.936,4.718,4.718,0,0,1-3.335,1.143Zm0-6.5V12.9h1.547a3.458,3.458,0,0,0,2.333-.7,2.474,2.474,0,0,0,.8-1.973q0-2.5-2.953-2.5ZM25.964,19H24.522V5.676h1.441Zm9.362,0H33.884V17.594h-.035a3.018,3.018,0,0,1-2.769,1.617,2.959,2.959,0,0,1-2.1-.712,2.466,2.466,0,0,1-.76-1.89q0-2.522,2.971-2.936l2.7-.378Q33.884,11,32.03,11a4.431,4.431,0,0,0-2.936,1.107V10.633a5.577,5.577,0,0,1,3.059-.844q3.173,0,3.173,3.357Zm-1.441-4.553-2.171.3a3.525,3.525,0,0,0-1.512.5,1.432,1.432,0,0,0-.51,1.261,1.374,1.374,0,0,0,.47,1.077A1.817,1.817,0,0,0,31.415,18a2.314,2.314,0,0,0,1.771-.751,2.685,2.685,0,0,0,.7-1.9ZM45.514,19H44.073V13.867Q44.073,11,41.981,11a2.269,2.269,0,0,0-1.789.813,3.013,3.013,0,0,0-.708,2.052V19H38.043V10h1.441v1.494h.035a3.248,3.248,0,0,1,2.953-1.705,2.753,2.753,0,0,1,2.259.954,4.248,4.248,0,0,1,.782,2.755ZM48.97,7.715a.913.913,0,0,1-.659-.264.89.89,0,0,1-.272-.668.923.923,0,0,1,.932-.94.931.931,0,0,1,.672.268.939.939,0,0,1,0,1.332A.923.923,0,0,1,48.97,7.715ZM49.673,19H48.232V10h1.441ZM57.04,6.941a1.92,1.92,0,0,0-.958-.237q-1.512,0-1.512,1.907V10H56.68v1.23H54.57V19H53.138V11.23H51.6V10h1.538V8.541A3.032,3.032,0,0,1,53.955,6.3a2.759,2.759,0,0,1,2.039-.822,2.824,2.824,0,0,1,1.046.158Zm1.927.773a.913.913,0,0,1-.659-.264.89.89,0,0,1-.272-.668.923.923,0,0,1,.932-.94.931.931,0,0,1,.672.268.939.939,0,0,1,0,1.332A.923.923,0,0,1,58.967,7.715ZM59.67,19H58.229V10H59.67Zm9.055-.413a4.684,4.684,0,0,1-2.461.624,4.074,4.074,0,0,1-3.107-1.252,4.539,4.539,0,0,1-1.182-3.248,4.99,4.99,0,0,1,1.274-3.573,4.458,4.458,0,0,1,3.4-1.349,4.735,4.735,0,0,1,2.092.439v1.477A3.665,3.665,0,0,0,66.6,11a2.9,2.9,0,0,0-2.263.989,3.752,3.752,0,0,0-.883,2.6,3.573,3.573,0,0,0,.831,2.5A2.863,2.863,0,0,0,66.51,18a3.613,3.613,0,0,0,2.215-.782ZM77.348,19H75.907V17.594h-.035A3.018,3.018,0,0,1,73.1,19.211,2.959,2.959,0,0,1,71,18.5a2.466,2.466,0,0,1-.76-1.89q0-2.522,2.971-2.936l2.7-.378Q75.907,11,74.052,11a4.431,4.431,0,0,0-2.936,1.107V10.633a5.577,5.577,0,0,1,3.059-.844q3.173,0,3.173,3.357Zm-1.441-4.553-2.171.3a3.525,3.525,0,0,0-1.512.5,1.432,1.432,0,0,0-.51,1.261,1.374,1.374,0,0,0,.47,1.077A1.817,1.817,0,0,0,73.437,18a2.314,2.314,0,0,0,1.771-.751,2.685,2.685,0,0,0,.7-1.9ZM86.2,18.587a4.684,4.684,0,0,1-2.461.624,4.074,4.074,0,0,1-3.107-1.252,4.539,4.539,0,0,1-1.182-3.248,4.99,4.99,0,0,1,1.274-3.573,4.458,4.458,0,0,1,3.4-1.349,4.735,4.735,0,0,1,2.092.439v1.477a3.665,3.665,0,0,0-2.145-.7,2.9,2.9,0,0,0-2.263.989,3.752,3.752,0,0,0-.883,2.6,3.573,3.573,0,0,0,.831,2.5A2.863,2.863,0,0,0,83.986,18a3.613,3.613,0,0,0,2.215-.782ZM89.12,7.715a.913.913,0,0,1-.659-.264.89.89,0,0,1-.272-.668.923.923,0,0,1,.932-.94.931.931,0,0,1,.672.268.939.939,0,0,1,0,1.332A.923.923,0,0,1,89.12,7.715ZM89.824,19H88.382V10h1.441Zm6.681.211a4.175,4.175,0,0,1-3.186-1.261,4.672,4.672,0,0,1-1.191-3.344,4.867,4.867,0,0,1,1.239-3.542,4.455,4.455,0,0,1,3.349-1.274,4.037,4.037,0,0,1,3.142,1.239,4.914,4.914,0,0,1,1.129,3.437,4.835,4.835,0,0,1-1.217,3.45A4.265,4.265,0,0,1,96.505,19.211ZM96.611,11a2.742,2.742,0,0,0-2.2.945,3.88,3.88,0,0,0-.809,2.606,3.67,3.67,0,0,0,.817,2.522A2.778,2.778,0,0,0,96.611,18a2.635,2.635,0,0,0,2.149-.905,3.928,3.928,0,0,0,.751-2.575,4,4,0,0,0-.751-2.6A2.623,2.623,0,0,0,96.611,11Zm2.109-5.59-2.3,2.883H95.3l1.96-2.883ZM110.763,19h-1.441V13.867q0-2.865-2.092-2.865a2.269,2.269,0,0,0-1.789.813,3.013,3.013,0,0,0-.708,2.052V19h-1.441V10h1.441v1.494h.035a3.248,3.248,0,0,1,2.953-1.705,2.753,2.753,0,0,1,2.259.954,4.248,4.248,0,0,1,.782,2.755Z" transform="translate(657 2670.907)" fill="#0b0a0a"/>
    <g transform="matrix(1, 0, 0, 1, 413, 2622.58)" filter="url(#Trazado_1296060)">
      <path id="Trazado_1296060-2" data-name="Trazado 1296060" d="M8,0H125a8,8,0,0,1,8,8V41a8,8,0,0,1-8,8H8a8,8,0,0,1-8-8V8A8,8,0,0,1,8,0Z" transform="translate(387 35.33)" fill="#ff9d1c"/>
    </g>
    <path id="Parrafo-3" data-name="Parrafo" d="M33.432,19h-6.68V6.4h6.4V7.732H28.229v4.192h4.553v1.327H28.229v4.412h5.2Zm3.676-.378a5.641,5.641,0,0,1-.892,3.415,2.99,2.99,0,0,1-2.553,1.2,2.71,2.71,0,0,1-1.2-.281V21.61a2.385,2.385,0,0,0,1.23.4q1.969,0,1.969-3.146V10h1.441ZM36.4,7.715a.913.913,0,0,1-.659-.264.89.89,0,0,1-.272-.668.923.923,0,0,1,.932-.94.931.931,0,0,1,.672.268.939.939,0,0,1,0,1.332A.923.923,0,0,1,36.4,7.715ZM47.261,14.86H40.906a3.366,3.366,0,0,0,.809,2.32A2.788,2.788,0,0,0,43.842,18a4.422,4.422,0,0,0,2.795-1V18.35a5.224,5.224,0,0,1-3.138.861,3.8,3.8,0,0,1-3-1.226,5.018,5.018,0,0,1-1.09-3.45A4.921,4.921,0,0,1,40.6,11.112,3.819,3.819,0,0,1,43.56,9.789a3.384,3.384,0,0,1,2.733,1.143,4.764,4.764,0,0,1,.967,3.173Zm-1.477-1.222a2.933,2.933,0,0,0-.6-1.942A2.051,2.051,0,0,0,43.534,11a2.328,2.328,0,0,0-1.731.729,3.31,3.31,0,0,0-.879,1.907Zm9.793,4.948a4.684,4.684,0,0,1-2.461.624,4.074,4.074,0,0,1-3.107-1.252,4.539,4.539,0,0,1-1.182-3.248A4.99,4.99,0,0,1,50.1,11.138a4.458,4.458,0,0,1,3.4-1.349,4.735,4.735,0,0,1,2.092.439v1.477A3.665,3.665,0,0,0,53.45,11a2.9,2.9,0,0,0-2.263.989,3.752,3.752,0,0,0-.883,2.6,3.573,3.573,0,0,0,.831,2.5A2.863,2.863,0,0,0,53.362,18a3.613,3.613,0,0,0,2.215-.782ZM65.036,19H63.594V17.576h-.035a2.96,2.96,0,0,1-2.777,1.635q-3.217,0-3.217-3.832V10H59v5.15Q59,18,61.177,18a2.205,2.205,0,0,0,1.736-.778,2.976,2.976,0,0,0,.681-2.035V10h1.441Zm9.046-.413a4.684,4.684,0,0,1-2.461.624,4.074,4.074,0,0,1-3.107-1.252,4.539,4.539,0,0,1-1.182-3.248,4.99,4.99,0,0,1,1.274-3.573,4.458,4.458,0,0,1,3.4-1.349,4.735,4.735,0,0,1,2.092.439v1.477a3.665,3.665,0,0,0-2.145-.7,2.9,2.9,0,0,0-2.263.989,3.752,3.752,0,0,0-.883,2.6,3.573,3.573,0,0,0,.831,2.5A2.863,2.863,0,0,0,71.867,18a3.613,3.613,0,0,0,2.215-.782ZM77,7.715a.913.913,0,0,1-.659-.264.89.89,0,0,1-.272-.668A.923.923,0,0,1,77,5.843a.931.931,0,0,1,.672.268.939.939,0,0,1,0,1.332A.923.923,0,0,1,77,7.715ZM77.7,19H76.263V10H77.7Zm6.681.211A4.175,4.175,0,0,1,81.2,17.95a4.672,4.672,0,0,1-1.191-3.344,4.867,4.867,0,0,1,1.239-3.542A4.455,4.455,0,0,1,84.6,9.789a4.037,4.037,0,0,1,3.142,1.239,4.914,4.914,0,0,1,1.129,3.437,4.835,4.835,0,0,1-1.217,3.45A4.265,4.265,0,0,1,84.386,19.211ZM84.491,11a2.742,2.742,0,0,0-2.2.945,3.88,3.88,0,0,0-.809,2.606,3.67,3.67,0,0,0,.817,2.522A2.778,2.778,0,0,0,84.491,18a2.635,2.635,0,0,0,2.149-.905,3.928,3.928,0,0,0,.751-2.575,4,4,0,0,0-.751-2.6A2.623,2.623,0,0,0,84.491,11ZM86.6,5.412,84.3,8.295H83.182l1.96-2.883ZM98.643,19H97.2V13.867Q97.2,11,95.11,11a2.269,2.269,0,0,0-1.789.813,3.013,3.013,0,0,0-.708,2.052V19H91.173V10h1.441v1.494h.035A3.248,3.248,0,0,1,95.6,9.789a2.753,2.753,0,0,1,2.259.954,4.248,4.248,0,0,1,.782,2.755Z" transform="translate(804 2670.907)" fill="#0b0a0a"/>
    <g transform="matrix(1, 0, 0, 1, 413, 2622.58)" filter="url(#Trazado_1296061)">
      <path id="Trazado_1296061-2" data-name="Trazado 1296061" d="M8,0H125a8,8,0,0,1,8,8V41a8,8,0,0,1-8,8H8a8,8,0,0,1-8-8V8A8,8,0,0,1,8,0Z" transform="translate(632 75.33)" fill="#ff9d1c"/>
    </g>
    <path id="Parrafo-4" data-name="Parrafo" d="M49.3,18.473a7.392,7.392,0,0,1-3.48.738,5.613,5.613,0,0,1-4.307-1.731A6.389,6.389,0,0,1,39.9,12.936a6.7,6.7,0,0,1,1.819-4.887,6.175,6.175,0,0,1,4.614-1.863A7.4,7.4,0,0,1,49.3,6.7V8.277a6.024,6.024,0,0,0-2.988-.756,4.585,4.585,0,0,0-3.52,1.45,5.463,5.463,0,0,0-1.349,3.876,5.2,5.2,0,0,0,1.261,3.669,4.292,4.292,0,0,0,3.309,1.367A6.208,6.208,0,0,0,49.3,17.04ZM52.416,7.715a.913.913,0,0,1-.659-.264.89.89,0,0,1-.272-.668.923.923,0,0,1,.932-.94.931.931,0,0,1,.672.268.939.939,0,0,1,0,1.332A.923.923,0,0,1,52.416,7.715ZM53.119,19H51.678V10h1.441Zm10.153-4.14H56.918a3.366,3.366,0,0,0,.809,2.32A2.788,2.788,0,0,0,59.854,18a4.422,4.422,0,0,0,2.795-1V18.35a5.224,5.224,0,0,1-3.138.861,3.8,3.8,0,0,1-3-1.226,5.018,5.018,0,0,1-1.09-3.45,4.921,4.921,0,0,1,1.191-3.423,3.819,3.819,0,0,1,2.958-1.323,3.384,3.384,0,0,1,2.733,1.143,4.764,4.764,0,0,1,.967,3.173ZM61.8,13.639a2.933,2.933,0,0,0-.6-1.942A2.051,2.051,0,0,0,59.546,11a2.328,2.328,0,0,0-1.731.729,3.31,3.31,0,0,0-.879,1.907Zm8.351-2.18a1.763,1.763,0,0,0-1.09-.29,1.839,1.839,0,0,0-1.542.87,4.023,4.023,0,0,0-.62,2.373V19H65.454V10H66.9v1.854h.035a3.143,3.143,0,0,1,.94-1.481,2.144,2.144,0,0,1,1.415-.532,2.353,2.353,0,0,1,.861.123Zm6.26,0a1.763,1.763,0,0,0-1.09-.29,1.839,1.839,0,0,0-1.542.87,4.023,4.023,0,0,0-.62,2.373V19H71.714V10h1.441v1.854h.035a3.143,3.143,0,0,1,.94-1.481,2.144,2.144,0,0,1,1.415-.532,2.353,2.353,0,0,1,.861.123Zm8.8,3.4H78.852a3.366,3.366,0,0,0,.809,2.32A2.788,2.788,0,0,0,81.788,18a4.422,4.422,0,0,0,2.795-1V18.35a5.224,5.224,0,0,1-3.138.861,3.8,3.8,0,0,1-3-1.226,5.018,5.018,0,0,1-1.09-3.45,4.921,4.921,0,0,1,1.191-3.423,3.819,3.819,0,0,1,2.958-1.323,3.384,3.384,0,0,1,2.733,1.143,4.764,4.764,0,0,1,.967,3.173ZM83.73,13.639a2.933,2.933,0,0,0-.6-1.942A2.051,2.051,0,0,0,81.48,11a2.328,2.328,0,0,0-1.731.729,3.31,3.31,0,0,0-.879,1.907Z" transform="translate(1049 2710.907)" fill="#0b0a0a"/>
    <path id="Trazado_1296055" data-name="Trazado 1296055" d="M10.809,2892.961l63.392-36" transform="translate(680.16 -6.093)" fill="none" stroke="#707070" stroke-linecap="round" stroke-width="2"/>
    <path id="Trazado_1296056" data-name="Trazado 1296056" d="M157.719,2856l58.962,38.494" transform="translate(680.16 -6.093)" fill="none" stroke="#707070" stroke-linecap="round" stroke-width="2"/>
    <path id="Trazado_1296057" data-name="Trazado 1296057" d="M116.5,2873.845v36.3" transform="translate(680.16 -6.093)" fill="none" stroke="#707070" stroke-linecap="round" stroke-width="2"/>
    <g transform="matrix(1, 0, 0, 1, 413, 2622.58)" filter="url(#Trazado_1296064)">
      <path id="Trazado_1296064-2" data-name="Trazado 1296064" d="M56.5,0C87.7,0,113,23.281,113,52s-25.3,52-56.5,52S0,80.719,0,52,25.3,0,56.5,0Z" transform="translate(181.16 244.44)" fill="#ff9d1c"/>
    </g>
    <g transform="matrix(1, 0, 0, 1, 413, 2622.58)" filter="url(#Trazado_1296063)">
      <path id="Trazado_1296063-2" data-name="Trazado 1296063" d="M56.5,0C87.7,0,113,23.281,113,52s-25.3,52-56.5,52S0,80.719,0,52,25.3,0,56.5,0Z" transform="translate(327.16 281.47)" fill="#ff9d1c"/>
    </g>
    <path id="Parrafo-5" data-name="Parrafo" d="M17.051,18.473a7.392,7.392,0,0,1-3.48.738,5.613,5.613,0,0,1-4.307-1.731,6.389,6.389,0,0,1-1.617-4.544A6.7,6.7,0,0,1,9.467,8.049a6.175,6.175,0,0,1,4.614-1.863,7.4,7.4,0,0,1,2.971.519V8.277a6.024,6.024,0,0,0-2.988-.756,4.585,4.585,0,0,0-3.52,1.45,5.463,5.463,0,0,0-1.349,3.876,5.2,5.2,0,0,0,1.261,3.669,4.292,4.292,0,0,0,3.309,1.367,6.208,6.208,0,0,0,3.287-.844Zm6.137.738A4.175,4.175,0,0,1,20,17.95a4.672,4.672,0,0,1-1.191-3.344,4.867,4.867,0,0,1,1.239-3.542A4.455,4.455,0,0,1,23.4,9.789a4.037,4.037,0,0,1,3.142,1.239,4.914,4.914,0,0,1,1.129,3.437,4.835,4.835,0,0,1-1.217,3.45A4.265,4.265,0,0,1,23.188,19.211ZM23.294,11a2.742,2.742,0,0,0-2.2.945,3.88,3.88,0,0,0-.809,2.606,3.67,3.67,0,0,0,.817,2.522A2.778,2.778,0,0,0,23.294,18a2.635,2.635,0,0,0,2.149-.905,3.928,3.928,0,0,0,.751-2.575,4,4,0,0,0-.751-2.6A2.623,2.623,0,0,0,23.294,11Zm11.375.457a1.763,1.763,0,0,0-1.09-.29,1.839,1.839,0,0,0-1.542.87,4.023,4.023,0,0,0-.62,2.373V19H29.975V10h1.441v1.854h.035a3.143,3.143,0,0,1,.94-1.481,2.144,2.144,0,0,1,1.415-.532,2.353,2.353,0,0,1,.861.123Zm6.26,0a1.763,1.763,0,0,0-1.09-.29,1.839,1.839,0,0,0-1.542.87,4.023,4.023,0,0,0-.62,2.373V19H36.235V10h1.441v1.854h.035a3.143,3.143,0,0,1,.94-1.481,2.144,2.144,0,0,1,1.415-.532,2.353,2.353,0,0,1,.861.123Zm8.8,3.4H43.373a3.366,3.366,0,0,0,.809,2.32A2.788,2.788,0,0,0,46.309,18,4.422,4.422,0,0,0,49.1,17V18.35a5.224,5.224,0,0,1-3.138.861,3.8,3.8,0,0,1-3-1.226,5.018,5.018,0,0,1-1.09-3.45,4.921,4.921,0,0,1,1.191-3.423,3.819,3.819,0,0,1,2.958-1.323,3.384,3.384,0,0,1,2.733,1.143,4.764,4.764,0,0,1,.967,3.173Zm-1.477-1.222a2.933,2.933,0,0,0-.6-1.942A2.051,2.051,0,0,0,46,11a2.328,2.328,0,0,0-1.731.729,3.31,3.31,0,0,0-.879,1.907Zm9.793,4.948a4.684,4.684,0,0,1-2.461.624,4.074,4.074,0,0,1-3.107-1.252,4.539,4.539,0,0,1-1.182-3.248,4.99,4.99,0,0,1,1.274-3.573,4.458,4.458,0,0,1,3.4-1.349,4.735,4.735,0,0,1,2.092.439v1.477a3.665,3.665,0,0,0-2.145-.7,2.9,2.9,0,0,0-2.263.989,3.752,3.752,0,0,0-.883,2.6,3.573,3.573,0,0,0,.831,2.5A2.863,2.863,0,0,0,55.829,18a3.613,3.613,0,0,0,2.215-.782Zm8.316,0a4.684,4.684,0,0,1-2.461.624,4.074,4.074,0,0,1-3.107-1.252,4.539,4.539,0,0,1-1.182-3.248,4.99,4.99,0,0,1,1.274-3.573,4.458,4.458,0,0,1,3.4-1.349,4.735,4.735,0,0,1,2.092.439v1.477a3.665,3.665,0,0,0-2.145-.7,2.9,2.9,0,0,0-2.263.989,3.752,3.752,0,0,0-.883,2.6,3.573,3.573,0,0,0,.831,2.5A2.863,2.863,0,0,0,64.145,18a3.613,3.613,0,0,0,2.215-.782ZM69.28,7.715a.913.913,0,0,1-.659-.264.89.89,0,0,1-.272-.668.923.923,0,0,1,.932-.94.931.931,0,0,1,.672.268.939.939,0,0,1,0,1.332A.923.923,0,0,1,69.28,7.715ZM69.983,19H68.542V10h1.441Zm6.681.211a4.175,4.175,0,0,1-3.186-1.261,4.672,4.672,0,0,1-1.191-3.344,4.867,4.867,0,0,1,1.239-3.542,4.455,4.455,0,0,1,3.349-1.274,4.037,4.037,0,0,1,3.142,1.239,4.914,4.914,0,0,1,1.129,3.437,4.835,4.835,0,0,1-1.217,3.45A4.265,4.265,0,0,1,76.665,19.211ZM76.77,11a2.742,2.742,0,0,0-2.2.945,3.88,3.88,0,0,0-.809,2.606,3.67,3.67,0,0,0,.817,2.522A2.778,2.778,0,0,0,76.77,18a2.635,2.635,0,0,0,2.149-.905,3.928,3.928,0,0,0,.751-2.575,4,4,0,0,0-.751-2.6A2.623,2.623,0,0,0,76.77,11Zm2.109-5.59-2.3,2.883H75.46l1.96-2.883ZM90.922,19H89.481V13.867Q89.481,11,87.389,11a2.269,2.269,0,0,0-1.789.813,3.013,3.013,0,0,0-.708,2.052V19H83.451V10h1.441v1.494h.035a3.248,3.248,0,0,1,2.953-1.705,2.753,2.753,0,0,1,2.259.954,4.248,4.248,0,0,1,.782,2.755Z" transform="translate(747.16 2945.055)" fill="#0b0a0a"/>
    <g transform="matrix(1, 0, 0, 1, 413, 2622.58)" filter="url(#Trazado_1296065)">
      <path id="Trazado_1296065-2" data-name="Trazado 1296065" d="M56.5,0C87.7,0,113,23.281,113,52s-25.3,52-56.5,52S0,80.719,0,52,25.3,0,56.5,0Z" transform="translate(467.16 244.44)" fill="#ff9d1c"/>
    </g>
    <path id="Trazado_1299234" data-name="Trazado 1299234" d="M4,0H498a4,4,0,0,1,0,8H4A4,4,0,0,1,4,0Z" transform="translate(560.16 2841.907)" fill="#7b776f"/>
    <path id="Trazado_1299235" data-name="Trazado 1299235" d="M19,0,38,23.181H0Z" transform="translate(1079.84 2826.907) rotate(90)" fill="#7b776f"/>
    <g id="Grupo_1235589" data-name="Grupo 1235589" transform="translate(-14 -23.734)">
      <path id="Trazado_1296051" data-name="Trazado 1296051" d="M-182.019,2720.891s39.072-35.792,77.665-40.075,84.737,25.257,84.737,25.257" transform="translate(676 -6)" fill="none" stroke="#707070" stroke-linecap="round" stroke-width="2"/>
      <path id="Polígono_2" data-name="Polígono 2" d="M6,0l6,10H0Z" transform="matrix(-0.602, 0.799, -0.799, -0.602, 664.804, 2699.613)" fill="#7b776f"/>
    </g>
    <g id="Grupo_1235590" data-name="Grupo 1235590" transform="translate(-14 -28.539)">
      <path id="Trazado_1296053" data-name="Trazado 1296053" d="M81.883,2677.447s32.11-25.326,61.7-25.326,56.674,25.326,56.674,25.326" transform="translate(667.626)" fill="none" stroke="#707070" stroke-linecap="round" stroke-width="2"/>
      <path id="Polígono_3" data-name="Polígono 3" d="M6,0l6,10H0Z" transform="matrix(-0.602, 0.799, -0.799, -0.602, 877.604, 2676.863)" fill="#7b776f"/>
    </g>
    <g id="Grupo_1235591" data-name="Grupo 1235591" transform="translate(-14 -22.265)">
      <path id="Trazado_1296054" data-name="Trazado 1296054" d="M81.883,2652.121s32.11,25.326,61.7,25.326,56.674-25.326,56.674-25.326" transform="translate(667.626 85)" fill="none" stroke="#707070" stroke-linecap="round" stroke-width="2"/>
      <path id="Polígono_4" data-name="Polígono 4" d="M6,0l6,10H0Z" transform="translate(741.821 2738.365) rotate(-50)" fill="#7b776f"/>
    </g>
    <g id="Grupo_1235592" data-name="Grupo 1235592" transform="translate(-12 -25.093)">
      <path id="Trazado_1296052" data-name="Trazado 1296052" d="M-19.616,2720.891s-39.072-35.792-77.665-40.075-84.737,25.257-84.737,25.257" transform="translate(1139 -4.641)" fill="none" stroke="#707070" stroke-linecap="round" stroke-width="2"/>
      <path id="Trazado_1296058" data-name="Trazado 1296058" d="M6,10,12,0H0Z" transform="matrix(0.602, 0.799, -0.799, 0.602, 955.75, 2695.199)" fill="#7b776f"/>
    </g>
    <g transform="matrix(1, 0, 0, 1, 413, 2622.58)" filter="url(#Trazado_1296062)">
      <path id="Trazado_1296062-2" data-name="Trazado 1296062" d="M64.863,0c35.823,0,64.863,26.727,64.863,59.7s-29.04,59.7-64.863,59.7S0,92.667,0,59.7,29.04,0,64.863,0Z" transform="translate(317.3 130.6)" fill="#e2dacc"/>
    </g>
    <path id="Parrafo-6" data-name="Parrafo" d="M22.6,19H21.131V10.545q0-1,.123-2.452h-.035a7.84,7.84,0,0,1-.378,1.222L16.534,19h-.721l-4.3-9.615a7.533,7.533,0,0,1-.378-1.292H11.1q.07.756.07,2.47V19H9.749V6.4H11.7l3.867,8.789a11.254,11.254,0,0,1,.58,1.512H16.2q.378-1.037.606-1.547L20.753,6.4H22.6Zm6.884.211A4.175,4.175,0,0,1,26.3,17.95,4.672,4.672,0,0,1,25.1,14.605a4.867,4.867,0,0,1,1.239-3.542,4.455,4.455,0,0,1,3.349-1.274,4.037,4.037,0,0,1,3.142,1.239,4.914,4.914,0,0,1,1.129,3.437,4.835,4.835,0,0,1-1.217,3.45A4.265,4.265,0,0,1,29.482,19.211ZM29.587,11a2.742,2.742,0,0,0-2.2.945,3.88,3.88,0,0,0-.809,2.606,3.67,3.67,0,0,0,.817,2.522A2.778,2.778,0,0,0,29.587,18a2.635,2.635,0,0,0,2.149-.905,3.928,3.928,0,0,0,.751-2.575,4,4,0,0,0-.751-2.6A2.623,2.623,0,0,0,29.587,11ZM43.74,19H42.3V13.867Q42.3,11,40.206,11a2.269,2.269,0,0,0-1.789.813,3.013,3.013,0,0,0-.708,2.052V19H36.269V10H37.71v1.494h.035A3.248,3.248,0,0,1,40.7,9.789a2.753,2.753,0,0,1,2.259.954A4.248,4.248,0,0,1,43.74,13.5ZM47.2,7.715a.913.913,0,0,1-.659-.264.89.89,0,0,1-.272-.668.923.923,0,0,1,.932-.94.931.931,0,0,1,.672.268.939.939,0,0,1,0,1.332A.923.923,0,0,1,47.2,7.715ZM47.9,19H46.457V10H47.9Zm7.095-.088a2.779,2.779,0,0,1-1.345.281q-2.364,0-2.364-2.637V11.23H49.737V10h1.547V7.8l1.441-.466V10h2.268v1.23H52.726V16.3a2.1,2.1,0,0,0,.308,1.292,1.228,1.228,0,0,0,1.02.387,1.515,1.515,0,0,0,.94-.3Zm5.688.3A4.175,4.175,0,0,1,57.5,17.95,4.672,4.672,0,0,1,56.3,14.605a4.867,4.867,0,0,1,1.239-3.542,4.455,4.455,0,0,1,3.349-1.274,4.037,4.037,0,0,1,3.142,1.239,4.914,4.914,0,0,1,1.129,3.437,4.835,4.835,0,0,1-1.217,3.45A4.265,4.265,0,0,1,60.682,19.211ZM60.787,11a2.742,2.742,0,0,0-2.2.945,3.88,3.88,0,0,0-.809,2.606,3.67,3.67,0,0,0,.817,2.522A2.778,2.778,0,0,0,60.787,18a2.635,2.635,0,0,0,2.149-.905,3.928,3.928,0,0,0,.751-2.575,4,4,0,0,0-.751-2.6A2.623,2.623,0,0,0,60.787,11Zm11.375.457a1.763,1.763,0,0,0-1.09-.29,1.839,1.839,0,0,0-1.542.87,4.023,4.023,0,0,0-.62,2.373V19H67.468V10H68.91v1.854h.035a3.143,3.143,0,0,1,.94-1.481A2.144,2.144,0,0,1,71.3,9.842a2.353,2.353,0,0,1,.861.123Zm8.8,3.4H74.607a3.366,3.366,0,0,0,.809,2.32A2.788,2.788,0,0,0,77.543,18a4.422,4.422,0,0,0,2.795-1V18.35a5.224,5.224,0,0,1-3.138.861,3.8,3.8,0,0,1-3-1.226,5.018,5.018,0,0,1-1.09-3.45A4.921,4.921,0,0,1,74.3,11.112a3.819,3.819,0,0,1,2.958-1.323,3.384,3.384,0,0,1,2.733,1.143,4.764,4.764,0,0,1,.967,3.173Zm-1.477-1.222a2.933,2.933,0,0,0-.6-1.942A2.051,2.051,0,0,0,77.235,11a2.328,2.328,0,0,0-1.731.729,3.31,3.31,0,0,0-.879,1.907Zm7.42,5.572a4.175,4.175,0,0,1-3.186-1.261,4.672,4.672,0,0,1-1.191-3.344,4.867,4.867,0,0,1,1.239-3.542,4.455,4.455,0,0,1,3.349-1.274,4.037,4.037,0,0,1,3.142,1.239,4.914,4.914,0,0,1,1.129,3.437,4.835,4.835,0,0,1-1.217,3.45A4.265,4.265,0,0,1,86.9,19.211ZM87.01,11a2.742,2.742,0,0,0-2.2.945A3.88,3.88,0,0,0,84,14.553a3.67,3.67,0,0,0,.817,2.522A2.778,2.778,0,0,0,87.01,18a2.635,2.635,0,0,0,2.149-.905,3.928,3.928,0,0,0,.751-2.575,4,4,0,0,0-.751-2.6A2.623,2.623,0,0,0,87.01,11Zm18.777-1-4.14,10.441q-1.107,2.795-3.111,2.795a3.3,3.3,0,0,1-.94-.114V21.83a2.672,2.672,0,0,0,.853.158,1.767,1.767,0,0,0,1.635-1.3l.721-1.705L97.288,10h1.6l2.435,6.926q.044.132.185.686h.053q.044-.211.176-.668L104.293,10ZM36.418,38.587a4.684,4.684,0,0,1-2.461.624,4.074,4.074,0,0,1-3.107-1.252,4.539,4.539,0,0,1-1.182-3.248,4.99,4.99,0,0,1,1.274-3.573,4.458,4.458,0,0,1,3.4-1.349,4.735,4.735,0,0,1,2.092.439v1.477a3.665,3.665,0,0,0-2.145-.7,2.9,2.9,0,0,0-2.263.989,3.752,3.752,0,0,0-.883,2.6,3.573,3.573,0,0,0,.831,2.5A2.863,2.863,0,0,0,34.2,38a3.613,3.613,0,0,0,2.215-.782Zm5.943.624a4.175,4.175,0,0,1-3.186-1.261,4.672,4.672,0,0,1-1.191-3.344,4.867,4.867,0,0,1,1.239-3.542,4.455,4.455,0,0,1,3.349-1.274,4.037,4.037,0,0,1,3.142,1.239,4.914,4.914,0,0,1,1.129,3.437,4.835,4.835,0,0,1-1.217,3.45A4.265,4.265,0,0,1,42.362,39.211ZM42.467,31a2.742,2.742,0,0,0-2.2.945,3.88,3.88,0,0,0-.809,2.606,3.67,3.67,0,0,0,.817,2.522A2.778,2.778,0,0,0,42.467,38a2.635,2.635,0,0,0,2.149-.905,3.928,3.928,0,0,0,.751-2.575,4,4,0,0,0-.751-2.6A2.623,2.623,0,0,0,42.467,31Zm14.152,8H55.178V33.867Q55.178,31,53.086,31a2.269,2.269,0,0,0-1.789.813,3.013,3.013,0,0,0-.708,2.052V39H49.148V30H50.59v1.494h.035a3.248,3.248,0,0,1,2.953-1.705,2.753,2.753,0,0,1,2.259.954,4.248,4.248,0,0,1,.782,2.755Zm6.892-.088a2.779,2.779,0,0,1-1.345.281q-2.364,0-2.364-2.637V31.23H58.256V30H59.8V27.8l1.441-.466V30h2.268v1.23H61.244V36.3a2.1,2.1,0,0,0,.308,1.292,1.228,1.228,0,0,0,1.02.387,1.515,1.515,0,0,0,.94-.3Zm6.62-7.453a1.763,1.763,0,0,0-1.09-.29,1.839,1.839,0,0,0-1.542.87,4.023,4.023,0,0,0-.62,2.373V39H65.438V30H66.88v1.854h.035a3.143,3.143,0,0,1,.94-1.481,2.144,2.144,0,0,1,1.415-.532,2.353,2.353,0,0,1,.861.123Zm5.328,7.752a4.175,4.175,0,0,1-3.186-1.261,4.672,4.672,0,0,1-1.191-3.344,4.867,4.867,0,0,1,1.239-3.542,4.455,4.455,0,0,1,3.349-1.274,4.037,4.037,0,0,1,3.142,1.239,4.914,4.914,0,0,1,1.129,3.437,4.835,4.835,0,0,1-1.217,3.45A4.265,4.265,0,0,1,75.46,39.211ZM75.565,31a2.742,2.742,0,0,0-2.2.945,3.88,3.88,0,0,0-.809,2.606,3.67,3.67,0,0,0,.817,2.522A2.778,2.778,0,0,0,75.565,38a2.635,2.635,0,0,0,2.149-.905,3.928,3.928,0,0,0,.751-2.575,4,4,0,0,0-.751-2.6A2.623,2.623,0,0,0,75.565,31Zm8.123,8H82.246V25.676h1.441Z" transform="translate(738.333 2791.182)" fill="#0b0a0a"/>
    <path id="Parrafo-7" data-name="Parrafo" d="M23.983,19H22.226l-2.109-3.533a7.7,7.7,0,0,0-.562-.839A3.207,3.207,0,0,0,19,14.061a1.933,1.933,0,0,0-.615-.321,2.53,2.53,0,0,0-.743-.1H16.425V19H14.948V6.4H18.71a5.361,5.361,0,0,1,1.525.207,3.412,3.412,0,0,1,1.213.628,2.92,2.92,0,0,1,.8,1.05,3.483,3.483,0,0,1,.29,1.472,3.545,3.545,0,0,1-.2,1.208,3.156,3.156,0,0,1-.562.98,3.41,3.41,0,0,1-.879.734,4.487,4.487,0,0,1-1.156.47v.035a2.658,2.658,0,0,1,.549.321,3.023,3.023,0,0,1,.444.426,5.646,5.646,0,0,1,.417.558q.207.312.461.725ZM16.425,7.732V12.3h2a3.039,3.039,0,0,0,1.024-.167,2.37,2.37,0,0,0,.813-.479,2.172,2.172,0,0,0,.536-.765A2.56,2.56,0,0,0,21,9.877,1.976,1.976,0,0,0,20.34,8.3a2.813,2.813,0,0,0-1.894-.567Zm15.8,7.128H25.875a3.366,3.366,0,0,0,.809,2.32A2.788,2.788,0,0,0,28.81,18a4.422,4.422,0,0,0,2.795-1V18.35a5.224,5.224,0,0,1-3.138.861,3.8,3.8,0,0,1-3-1.226,5.018,5.018,0,0,1-1.09-3.45,4.921,4.921,0,0,1,1.191-3.423,3.819,3.819,0,0,1,2.958-1.323,3.384,3.384,0,0,1,2.733,1.143,4.764,4.764,0,0,1,.967,3.173Zm-1.477-1.222a2.933,2.933,0,0,0-.6-1.942A2.051,2.051,0,0,0,28.5,11a2.328,2.328,0,0,0-1.731.729,3.31,3.31,0,0,0-.879,1.907ZM42.093,19H40.651V17.471h-.035a3.327,3.327,0,0,1-3.094,1.74A3.362,3.362,0,0,1,34.811,18,4.958,4.958,0,0,1,33.8,14.711a5.394,5.394,0,0,1,1.125-3.577,3.71,3.71,0,0,1,3-1.345,2.885,2.885,0,0,1,2.7,1.459h.035V5.676h1.441Zm-1.441-4.069V13.6a2.575,2.575,0,0,0-.721-1.846A2.417,2.417,0,0,0,38.1,11a2.489,2.489,0,0,0-2.074.967,4.237,4.237,0,0,0-.756,2.672A3.81,3.81,0,0,0,36,17.1a2.37,2.37,0,0,0,1.947.9,2.462,2.462,0,0,0,1.956-.87A3.242,3.242,0,0,0,40.651,14.931Zm5.1-7.216a.913.913,0,0,1-.659-.264.89.89,0,0,1-.272-.668.923.923,0,0,1,.932-.94.931.931,0,0,1,.672.268.939.939,0,0,1,0,1.332A.923.923,0,0,1,45.751,7.715ZM46.454,19H45.012V10h1.441Zm2.375-.325V17.128a4.266,4.266,0,0,0,2.593.87q1.9,0,1.9-1.266a1.1,1.1,0,0,0-.163-.611,1.62,1.62,0,0,0-.439-.444,3.383,3.383,0,0,0-.65-.347q-.374-.154-.8-.321a10.357,10.357,0,0,1-1.05-.479,3.173,3.173,0,0,1-.756-.545A2.028,2.028,0,0,1,49,13.3a2.441,2.441,0,0,1-.154-.905,2.15,2.15,0,0,1,.29-1.121,2.572,2.572,0,0,1,.773-.817,3.607,3.607,0,0,1,1.1-.5,4.893,4.893,0,0,1,1.279-.167,5.164,5.164,0,0,1,2.092.4v1.459A4.077,4.077,0,0,0,52.1,11a2.671,2.671,0,0,0-.729.092,1.786,1.786,0,0,0-.558.259,1.2,1.2,0,0,0-.36.4,1.053,1.053,0,0,0-.127.514,1.233,1.233,0,0,0,.127.589,1.3,1.3,0,0,0,.374.422,2.855,2.855,0,0,0,.6.334q.352.149.8.325a11.131,11.131,0,0,1,1.072.47,3.678,3.678,0,0,1,.809.545,2.129,2.129,0,0,1,.514.7,2.254,2.254,0,0,1,.18.94,2.217,2.217,0,0,1-.294,1.16,2.523,2.523,0,0,1-.787.817,3.6,3.6,0,0,1-1.134.483,5.6,5.6,0,0,1-1.345.158A5.106,5.106,0,0,1,48.829,18.675ZM64.246,14.86H57.892a3.366,3.366,0,0,0,.809,2.32A2.788,2.788,0,0,0,60.827,18a4.422,4.422,0,0,0,2.795-1V18.35a5.224,5.224,0,0,1-3.138.861,3.8,3.8,0,0,1-3-1.226,5.018,5.018,0,0,1-1.09-3.45,4.921,4.921,0,0,1,1.191-3.423,3.819,3.819,0,0,1,2.958-1.323,3.384,3.384,0,0,1,2.733,1.143,4.764,4.764,0,0,1,.967,3.173ZM62.77,13.639a2.933,2.933,0,0,0-.6-1.942A2.051,2.051,0,0,0,60.52,11a2.328,2.328,0,0,0-1.731.729,3.31,3.31,0,0,0-.879,1.907ZM73.9,19H72.457V13.867Q72.457,11,70.365,11a2.269,2.269,0,0,0-1.789.813,3.013,3.013,0,0,0-.708,2.052V19H66.428V10h1.441v1.494H67.9a3.248,3.248,0,0,1,2.953-1.705,2.753,2.753,0,0,1,2.259.954A4.248,4.248,0,0,1,73.9,13.5ZM72.949,6.186a2.514,2.514,0,0,1-.422,1.507,1.337,1.337,0,0,1-1.143.584,2.949,2.949,0,0,1-1.424-.457,2.411,2.411,0,0,0-1.046-.378q-.773,0-.773.993h-.826a2.466,2.466,0,0,1,.422-1.507,1.384,1.384,0,0,1,1.178-.567,2.572,2.572,0,0,1,1.31.457,2.3,2.3,0,0,0,1.125.387q.738,0,.738-1.02Zm7.429,13.025a4.175,4.175,0,0,1-3.186-1.261A4.672,4.672,0,0,1,76,14.605a4.867,4.867,0,0,1,1.239-3.542,4.455,4.455,0,0,1,3.349-1.274,4.037,4.037,0,0,1,3.142,1.239,4.914,4.914,0,0,1,1.129,3.437,4.835,4.835,0,0,1-1.217,3.45A4.265,4.265,0,0,1,80.378,19.211ZM80.483,11a2.742,2.742,0,0,0-2.2.945,3.88,3.88,0,0,0-.809,2.606,3.67,3.67,0,0,0,.817,2.522A2.778,2.778,0,0,0,80.483,18a2.635,2.635,0,0,0,2.149-.905,3.928,3.928,0,0,0,.751-2.575,4,4,0,0,0-.751-2.6A2.623,2.623,0,0,0,80.483,11Z" transform="translate(601.16 2907.022)" fill="#0b0a0a"/>
    <path id="Parrafo-8" data-name="Parrafo" d="M15.041,6.4,10.374,19H8.748L4.178,6.4H5.822L9.311,16.39a5.933,5.933,0,0,1,.255,1.116H9.6a5.475,5.475,0,0,1,.29-1.134L13.451,6.4Zm7.71,8.464H16.4a3.366,3.366,0,0,0,.809,2.32A2.788,2.788,0,0,0,19.332,18a4.422,4.422,0,0,0,2.795-1V18.35a5.224,5.224,0,0,1-3.138.861,3.8,3.8,0,0,1-3-1.226,5.018,5.018,0,0,1-1.09-3.45,4.921,4.921,0,0,1,1.191-3.423,3.819,3.819,0,0,1,2.958-1.323,3.384,3.384,0,0,1,2.733,1.143,4.764,4.764,0,0,1,.967,3.173Zm-1.477-1.222a2.933,2.933,0,0,0-.6-1.942A2.051,2.051,0,0,0,19.025,11a2.328,2.328,0,0,0-1.731.729,3.31,3.31,0,0,0-.879,1.907Zm8.351-2.18a1.763,1.763,0,0,0-1.09-.29,1.839,1.839,0,0,0-1.542.87,4.023,4.023,0,0,0-.62,2.373V19H24.933V10h1.441v1.854h.035a3.143,3.143,0,0,1,.94-1.481,2.144,2.144,0,0,1,1.415-.532,2.353,2.353,0,0,1,.861.123Zm2.3-3.744a.913.913,0,0,1-.659-.264A.89.89,0,0,1,31,6.783a.923.923,0,0,1,.932-.94.931.931,0,0,1,.672.268.939.939,0,0,1,0,1.332A.923.923,0,0,1,31.931,7.715ZM32.634,19H31.192V10h1.441ZM40,6.941a1.92,1.92,0,0,0-.958-.237q-1.512,0-1.512,1.907V10H39.64v1.23H37.531V19H36.1V11.23H34.56V10H36.1V8.541A3.032,3.032,0,0,1,36.916,6.3a2.759,2.759,0,0,1,2.039-.822A2.824,2.824,0,0,1,40,5.641Zm1.927.773a.913.913,0,0,1-.659-.264A.89.89,0,0,1,41,6.783a.923.923,0,0,1,.932-.94.931.931,0,0,1,.672.268.939.939,0,0,1,0,1.332A.923.923,0,0,1,41.927,7.715ZM42.63,19H41.189V10H42.63Zm9.055-.413a4.684,4.684,0,0,1-2.461.624,4.074,4.074,0,0,1-3.107-1.252,4.539,4.539,0,0,1-1.182-3.248,4.99,4.99,0,0,1,1.274-3.573,4.458,4.458,0,0,1,3.4-1.349,4.735,4.735,0,0,1,2.092.439v1.477a3.665,3.665,0,0,0-2.145-.7,2.9,2.9,0,0,0-2.263.989,3.752,3.752,0,0,0-.883,2.6,3.573,3.573,0,0,0,.831,2.5A2.863,2.863,0,0,0,49.47,18a3.613,3.613,0,0,0,2.215-.782ZM60.309,19H58.867V17.594h-.035a3.018,3.018,0,0,1-2.769,1.617,2.959,2.959,0,0,1-2.1-.712,2.466,2.466,0,0,1-.76-1.89q0-2.522,2.971-2.936l2.7-.378Q58.867,11,57.013,11a4.431,4.431,0,0,0-2.936,1.107V10.633a5.577,5.577,0,0,1,3.059-.844q3.173,0,3.173,3.357Zm-1.441-4.553-2.171.3a3.525,3.525,0,0,0-1.512.5,1.432,1.432,0,0,0-.51,1.261,1.374,1.374,0,0,0,.47,1.077A1.817,1.817,0,0,0,56.4,18a2.314,2.314,0,0,0,1.771-.751,2.685,2.685,0,0,0,.7-1.9Zm10.294,4.14a4.684,4.684,0,0,1-2.461.624,4.074,4.074,0,0,1-3.107-1.252,4.539,4.539,0,0,1-1.182-3.248,4.99,4.99,0,0,1,1.274-3.573,4.458,4.458,0,0,1,3.4-1.349,4.735,4.735,0,0,1,2.092.439v1.477a3.665,3.665,0,0,0-2.145-.7,2.9,2.9,0,0,0-2.263.989,3.752,3.752,0,0,0-.883,2.6,3.573,3.573,0,0,0,.831,2.5A2.863,2.863,0,0,0,66.946,18a3.613,3.613,0,0,0,2.215-.782Zm2.92-10.872a.913.913,0,0,1-.659-.264.89.89,0,0,1-.272-.668.923.923,0,0,1,.932-.94.931.931,0,0,1,.672.268.939.939,0,0,1,0,1.332A.923.923,0,0,1,72.081,7.715ZM72.784,19H71.343V10h1.441Zm6.681.211A4.175,4.175,0,0,1,76.28,17.95a4.672,4.672,0,0,1-1.191-3.344,4.867,4.867,0,0,1,1.239-3.542,4.455,4.455,0,0,1,3.349-1.274,4.037,4.037,0,0,1,3.142,1.239,4.914,4.914,0,0,1,1.129,3.437,4.835,4.835,0,0,1-1.217,3.45A4.265,4.265,0,0,1,79.466,19.211ZM79.571,11a2.742,2.742,0,0,0-2.2.945,3.88,3.88,0,0,0-.809,2.606,3.67,3.67,0,0,0,.817,2.522A2.778,2.778,0,0,0,79.571,18a2.635,2.635,0,0,0,2.149-.905,3.928,3.928,0,0,0,.751-2.575,4,4,0,0,0-.751-2.6A2.623,2.623,0,0,0,79.571,11Zm2.109-5.59-2.3,2.883H78.262l1.96-2.883ZM93.723,19H92.282V13.867Q92.282,11,90.19,11a2.269,2.269,0,0,0-1.789.813,3.013,3.013,0,0,0-.708,2.052V19H86.253V10h1.441v1.494h.035a3.248,3.248,0,0,1,2.953-1.705,2.753,2.753,0,0,1,2.259.954,4.248,4.248,0,0,1,.782,2.755Z" transform="translate(887.16 2907.022)" fill="#0b0a0a"/>
  </g>
</svg>
