<svg xmlns="http://www.w3.org/2000/svg" xmlns:xlink="http://www.w3.org/1999/xlink" width="113" height="113" viewBox="0 0 113 113">
  <defs>
    <filter id="Trazado_982547" x="0" y="0" width="113" height="113" filterUnits="userSpaceOnUse">
      <feOffset dy="3" input="SourceAlpha"/>
      <feGaussianBlur stdDeviation="3" result="blur"/>
      <feFlood flood-opacity="0.161"/>
      <feComposite operator="in" in2="blur"/>
      <feComposite in="SourceGraphic"/>
    </filter>
  </defs>
  <g id="Grupo_1242760" data-name="Grupo 1242760" transform="translate(-691 -3500.389)">
    <g id="Grupo_1242096" data-name="Grupo 1242096" transform="translate(0 -464)">
      <g id="Grupo_1235696" data-name="Grupo 1235696" transform="translate(700 3970.389)">
        <g id="Grupo_1241233" data-name="Grupo 1241233">
          <g id="Grupo_1240427" data-name="Grupo 1240427" transform="translate(0 0)">
            <g id="Grupo_1239780" data-name="Grupo 1239780">
              <g id="Grupo_1236603" data-name="Grupo 1236603">
                <g id="Grupo_1236145" data-name="Grupo 1236145">
                  <g id="Grupo_1235107" data-name="Grupo 1235107">
                    <g id="Grupo_1223796" data-name="Grupo 1223796">
                      <g id="Grupo_1208038" data-name="Grupo 1208038">
                        <g id="Grupo_1202104" data-name="Grupo 1202104">
                          <g id="Grupo_1201923" data-name="Grupo 1201923">
                            <g id="Grupo_1176928" data-name="Grupo 1176928">
                              <g id="Grupo_1172322" data-name="Grupo 1172322">
                                <g id="Grupo_1164700" data-name="Grupo 1164700">
                                  <g id="Grupo_1160931" data-name="Grupo 1160931">
                                    <g id="Grupo_1160749" data-name="Grupo 1160749">
                                      <g id="Grupo_1158891" data-name="Grupo 1158891">
                                        <g id="Grupo_1157406" data-name="Grupo 1157406">
                                          <g id="Grupo_1155793" data-name="Grupo 1155793">
                                            <g id="Grupo_1154704" data-name="Grupo 1154704">
                                              <g id="Grupo_1150790" data-name="Grupo 1150790">
                                                <g id="Grupo_1154214" data-name="Grupo 1154214">
                                                  <g id="Grupo_1152583" data-name="Grupo 1152583">
                                                    <g id="Grupo_1146973" data-name="Grupo 1146973">
                                                      <g id="Grupo_1146954" data-name="Grupo 1146954">
                                                        <g transform="matrix(1, 0, 0, 1, -9, -6)" filter="url(#Trazado_982547)">
                                                          <g id="Trazado_982547-2" data-name="Trazado 982547" transform="translate(9 6)" fill="#ffe1b9">
                                                            <path d="M 47.50000762939453 93.49986267089844 C 41.28937911987305 93.49986267089844 35.26534271240234 92.28383636474609 29.59519386291504 89.88558197021484 C 24.11772727966309 87.56880950927734 19.19814109802246 84.25183868408203 14.97310066223145 80.02679443359375 C 10.74804782867432 75.8017578125 7.431074142456055 70.88218688964844 5.114300727844238 65.40471649169922 C 2.716034412384033 59.73458480834961 1.500007629394531 53.71054458618164 1.500007629394531 47.49993133544922 C 1.500007629394531 41.2893180847168 2.716034412384033 35.26527786254883 5.114300727844238 29.59514427185059 C 7.431074142456055 24.11767768859863 10.74804782867432 19.19810485839844 14.97310066223145 14.97306442260742 C 19.19814109802246 10.74802494049072 24.11772727966309 7.431051254272461 29.59519386291504 5.114277839660645 C 35.26534271240234 2.71602463722229 41.28937911987305 1.499997973442078 47.50000762939453 1.499997973442078 C 53.71063613891602 1.499997973442078 59.73467254638672 2.71602463722229 65.40482330322266 5.114277839660645 C 70.88228607177734 7.431051254272461 75.80187225341797 10.74802494049072 80.02691650390625 14.97306442260742 C 84.25196838378906 19.19810485839844 87.56893920898438 24.11767768859863 89.88571166992188 29.59514427185059 C 92.28398132324219 35.26527786254883 93.50000762939453 41.2893180847168 93.50000762939453 47.49993133544922 C 93.50000762939453 53.71054458618164 92.28398132324219 59.73458480834961 89.88571166992188 65.40471649169922 C 87.56893920898438 70.88218688964844 84.25196838378906 75.8017578125 80.02691650390625 80.02679443359375 C 75.80187225341797 84.25183868408203 70.88228607177734 87.56880950927734 65.40482330322266 89.88558197021484 C 59.73467254638672 92.28383636474609 53.71063613891602 93.49986267089844 47.50000762939453 93.49986267089844 Z" stroke="none"/>
                                                            <path d="M 47.50000762939453 2.999992370605469 C 41.4912223815918 2.999992370605469 35.66377639770508 4.1761474609375 30.17951202392578 6.495796203613281 C 24.88085174560547 8.736930847167969 20.12152862548828 11.94596099853516 16.03376007080078 16.03372955322266 C 11.94597625732422 20.12148284912109 8.736961364746094 24.88080596923828 6.495803833007812 30.17946624755859 C 4.176162719726562 35.66371536254883 3.000007629394531 41.49116134643555 3.000007629394531 47.49993133544922 C 3.000007629394531 53.50870132446289 4.176162719726562 59.33614730834961 6.495803833007812 64.82038879394531 C 8.736961364746094 70.11905670166016 11.94597625732422 74.87836456298828 16.03376007080078 78.96613311767578 C 20.12152862548828 83.05390167236328 24.88085174560547 86.26291656494141 30.17951202392578 88.50406646728516 C 35.66377639770508 90.82369995117188 41.4912223815918 91.99985504150391 47.50000762939453 91.99985504150391 C 53.50879287719727 91.99985504150391 59.33623886108398 90.82369995117188 64.82049560546875 88.50406646728516 C 70.11916351318359 86.26291656494141 74.87848663330078 83.05390167236328 78.96625518798828 78.96613311767578 C 83.05403900146484 74.87836456298828 86.26305389404297 70.11905670166016 88.50421142578125 64.82038879394531 C 90.8238525390625 59.33614730834961 92.00000762939453 53.50870132446289 92.00000762939453 47.49993133544922 C 92.00000762939453 41.49116134643555 90.8238525390625 35.66371536254883 88.50421142578125 30.17946624755859 C 86.26305389404297 24.88080596923828 83.05403900146484 20.12148284912109 78.96625518798828 16.03372955322266 C 74.87848663330078 11.94596099853516 70.11916351318359 8.736930847167969 64.82049560546875 6.495796203613281 C 59.33623886108398 4.1761474609375 53.50879287719727 2.999992370605469 47.50000762939453 2.999992370605469 M 47.50000762939453 -7.62939453125e-06 C 73.73352813720703 -7.62939453125e-06 95.00000762939453 21.26644134521484 95.00000762939453 47.49993133544922 C 95.00000762939453 73.73342132568359 73.73352813720703 94.99985504150391 47.50000762939453 94.99985504150391 C 21.26648712158203 94.99985504150391 7.62939453125e-06 73.73342132568359 7.62939453125e-06 47.49993133544922 C 7.62939453125e-06 21.26644134521484 21.26648712158203 -7.62939453125e-06 47.50000762939453 -7.62939453125e-06 Z" stroke="none" fill="#ff9d1c"/>
                                                          </g>
                                                        </g>
                                                      </g>
                                                    </g>
                                                  </g>
                                                </g>
                                              </g>
                                            </g>
                                          </g>
                                        </g>
                                      </g>
                                    </g>
                                  </g>
                                </g>
                              </g>
                            </g>
                          </g>
                        </g>
                      </g>
                    </g>
                  </g>
                </g>
              </g>
            </g>
          </g>
        </g>
      </g>
    </g>
    <g id="expediente" transform="translate(690.253 3520.874)">
      <g id="Grupo_1242758" data-name="Grupo 1242758" transform="translate(32.231 0.967)">
        <path id="Trazado_1299105" data-name="Trazado 1299105" d="M43.908,67.856A5.151,5.151,0,0,1,38.764,62.7V12.66A5.151,5.151,0,0,1,43.908,7.5H65.924a3.853,3.853,0,0,1,2.731,1.136L83.29,23.345a3.875,3.875,0,0,1,1.127,2.733V61.795a6.061,6.061,0,0,1-6.061,6.061Z" transform="translate(-38.764 -7.5)" fill="#f9f8f9"/>
        <path id="Trazado_1299106" data-name="Trazado 1299106" d="M47.778,67.851H43.909a5.151,5.151,0,0,1-5.144-5.159V12.655A5.152,5.152,0,0,1,43.909,7.5h3.869a5.152,5.152,0,0,0-5.144,5.159V62.693A5.151,5.151,0,0,0,47.778,67.851Z" transform="translate(-38.765 -7.496)" fill="#e3e0e4"/>
        <g id="Grupo_1242757" data-name="Grupo 1242757" transform="translate(6.125 17.408)">
          <path id="Trazado_1299107" data-name="Trazado 1299107" d="M105.167,144.415H89.225a.967.967,0,1,1,0-1.934h15.941a.967.967,0,1,1,0,1.934Z" transform="translate(-88 -142.481)" fill="#a29aa5"/>
          <path id="Trazado_1299108" data-name="Trazado 1299108" d="M111.615,324.456H89.225a.967.967,0,1,1,0-1.934h22.39a.967.967,0,1,1,0,1.934Z" transform="translate(-88 -299.303)" fill="#a29aa5"/>
          <path id="Trazado_1299109" data-name="Trazado 1299109" d="M116.094,204.429H87.227a.967.967,0,1,1,0-1.934h28.867a.967.967,0,1,1,0,1.934Z" transform="translate(-86.26 -194.755)" fill="#a29aa5"/>
          <path id="Trazado_1299110" data-name="Trazado 1299110" d="M116.1,264.443H87.227a.967.967,0,0,1,0-1.934H116.1a.967.967,0,1,1,0,1.934Z" transform="translate(-86.26 -247.03)" fill="#a29aa5"/>
        </g>
        <path id="Trazado_1299111" data-name="Trazado 1299111" d="M241.534,319.095a3.481,3.481,0,0,0-1.026-2.293l-9.324-9.27a3.532,3.532,0,0,0-4.975,0,3.483,3.483,0,0,0,0,4.946l3.318,3.3H210.753a3.5,3.5,0,1,0,0,7h18.774l-3.318,3.3a3.483,3.483,0,0,0,0,4.946,3.531,3.531,0,0,0,4.975,0l9.324-9.27A3.486,3.486,0,0,0,241.534,319.095Z" transform="translate(-185.508 -267.946)" fill="#80e29e"/>
        <path id="Trazado_1299112" data-name="Trazado 1299112" d="M229.52,315.82h2.32a.645.645,0,0,0,.455-1.1l-3.231-3.213a4.007,4.007,0,0,1-.595-4.939,3.5,3.5,0,0,0-2.259,5.963Zm-3.31,10.3a3.5,3.5,0,0,0,2.259,5.963,4.007,4.007,0,0,1,.595-4.939l3.087-3.232a.645.645,0,0,0-.466-1.09h-2.156ZM212.5,315.828h-1.744a3.5,3.5,0,1,0,0,6.995H212.5a4.017,4.017,0,0,1,0-6.995Z" transform="translate(-185.508 -267.997)" fill="#77d192"/>
        <path id="Trazado_1299113" data-name="Trazado 1299113" d="M252.624,26.073v2.266h-13.4a7.368,7.368,0,0,1-7.354-7.365V7.5h2.256a3.854,3.854,0,0,1,2.731,1.136L251.5,23.341A3.875,3.875,0,0,1,252.624,26.073Z" transform="translate(-206.971 -7.496)" fill="#e3e0e4"/>
        <path id="Trazado_1299114" data-name="Trazado 1299114" d="M278.407,26.874H265.36a3.49,3.49,0,0,1-3.485-3.5V10.256a3.858,3.858,0,0,1,1.118.78l14.635,14.708A3.817,3.817,0,0,1,278.407,26.874Z" transform="translate(-233.102 -9.9)" fill="#a29aa5"/>
      </g>
      <g id="Grupo_1242759" data-name="Grupo 1242759" transform="translate(31.264 0)">
        <path id="Trazado_1299115" data-name="Trazado 1299115" d="M45.3,272.127h-7.92a4.189,4.189,0,0,1-4.177-4.191V244.093a.967.967,0,0,0-1.934,0v23.842a6.126,6.126,0,0,0,6.111,6.126H45.3a.967.967,0,0,0,0-1.934Z" transform="translate(-31.264 -211.771)"/>
        <path id="Trazado_1299116" data-name="Trazado 1299116" d="M89.225,144.415h15.941a.967.967,0,1,0,0-1.934H89.225a.967.967,0,1,0,0,1.934Z" transform="translate(-80.908 -124.106)"/>
        <path id="Trazado_1299117" data-name="Trazado 1299117" d="M89.225,322.522a.967.967,0,1,0,0,1.934h22.39a.967.967,0,0,0,0-1.934Z" transform="translate(-80.908 -280.928)"/>
        <path id="Trazado_1299118" data-name="Trazado 1299118" d="M87.227,204.429h28.867a.967.967,0,1,0,0-1.934H87.227a.967.967,0,1,0,0,1.934Z" transform="translate(-79.167 -176.38)"/>
        <path id="Trazado_1299119" data-name="Trazado 1299119" d="M87.227,264.443H116.1a.967.967,0,1,0,0-1.934H87.227a.967.967,0,1,0,0,1.934Z" transform="translate(-79.167 -228.655)"/>
        <path id="Trazado_1299120" data-name="Trazado 1299120" d="M89.223,52.069a4.461,4.461,0,0,0-1.31-2.932l-9.062-9.009V19.544a4.811,4.811,0,0,0-1.409-3.415L62.808,1.421A4.853,4.853,0,0,0,59.391,0H37.375a6.126,6.126,0,0,0-6.111,6.126V27.808a.967.967,0,1,0,1.934,0V6.126a4.189,4.189,0,0,1,4.177-4.191H59.391a2.9,2.9,0,0,1,.646.075V7.452a.967.967,0,1,0,1.934,0V3.323L75.555,16.974H64.489a2.526,2.526,0,0,1-2.518-2.529V11.966a.967.967,0,1,0-1.934,0v2.479a4.463,4.463,0,0,0,4.452,4.463H76.846a2.935,2.935,0,0,1,.072.636V38.819a4.469,4.469,0,0,0-4.667,7.366l1.655,1.646H68.2a.967.967,0,0,0,0,1.934H76.25a.967.967,0,0,0,.682-1.653l-3.318-3.3a2.528,2.528,0,0,1,0-3.574,2.567,2.567,0,0,1,3.611,0l9.327,9.273a2.531,2.531,0,0,1,0,3.571l-9.324,9.27a2.563,2.563,0,0,1-3.61,0,2.528,2.528,0,0,1,0-3.575l3.318-3.3a.967.967,0,0,0-.682-1.653H57.476a2.531,2.531,0,1,1,0-5.061h6.205a.967.967,0,1,0,0-1.934H57.476a4.465,4.465,0,1,0,0,8.93H73.906l-1.655,1.645A4.434,4.434,0,0,0,71.1,60.355H49.809a.967.967,0,0,0,0,1.934H70.995a4.422,4.422,0,0,0,1.256,2.434,4.5,4.5,0,0,0,6.34,0l9.319-9.265A4.466,4.466,0,0,0,89.223,52.069Z" transform="translate(-31.264 0)"/>
      </g>
    </g>
  </g>
</svg>
