<svg xmlns="http://www.w3.org/2000/svg" xmlns:xlink="http://www.w3.org/1999/xlink" width="113" height="113" viewBox="0 0 113 113">
  <defs>
    <filter id="Trazado_982547" x="0" y="0" width="113" height="113" filterUnits="userSpaceOnUse">
      <feOffset dy="3" input="SourceAlpha"/>
      <feGaussianBlur stdDeviation="3" result="blur"/>
      <feFlood flood-opacity="0.161"/>
      <feComposite operator="in" in2="blur"/>
      <feComposite in="SourceGraphic"/>
    </filter>
  </defs>
  <g id="Grupo_1242770" data-name="Grupo 1242770" transform="translate(-4681.49 -3779.39)">
    <g id="Grupo_1242263" data-name="Grupo 1242263" transform="translate(4305.49 -185)">
      <g id="Grupo_1235695" data-name="Grupo 1235695" transform="translate(385 3970.39)">
        <g id="Grupo_1241232" data-name="Grupo 1241232">
          <g id="Grupo_1240425" data-name="Grupo 1240425" transform="translate(0 0)">
            <g id="Grupo_1239772" data-name="Grupo 1239772">
              <g id="Grupo_1236602" data-name="Grupo 1236602">
                <g id="Grupo_1236144" data-name="Grupo 1236144">
                  <g id="Grupo_1235105" data-name="Grupo 1235105">
                    <g id="Grupo_1223793" data-name="Grupo 1223793">
                      <g id="Grupo_1208028" data-name="Grupo 1208028">
                        <g id="Grupo_1177675" data-name="Grupo 1177675">
                          <g id="Grupo_1176928" data-name="Grupo 1176928">
                            <g id="Grupo_1172322" data-name="Grupo 1172322">
                              <g id="Grupo_1164700" data-name="Grupo 1164700">
                                <g id="Grupo_1160931" data-name="Grupo 1160931">
                                  <g id="Grupo_1160749" data-name="Grupo 1160749">
                                    <g id="Grupo_1158891" data-name="Grupo 1158891">
                                      <g id="Grupo_1157406" data-name="Grupo 1157406">
                                        <g id="Grupo_1155793" data-name="Grupo 1155793">
                                          <g id="Grupo_1154704" data-name="Grupo 1154704">
                                            <g id="Grupo_1150790" data-name="Grupo 1150790">
                                              <g id="Grupo_1154214" data-name="Grupo 1154214">
                                                <g id="Grupo_1152583" data-name="Grupo 1152583">
                                                  <g id="Grupo_1146973" data-name="Grupo 1146973">
                                                    <g id="Grupo_1146954" data-name="Grupo 1146954">
                                                      <g transform="matrix(1, 0, 0, 1, -9, -6)" filter="url(#Trazado_982547)">
                                                        <g id="Trazado_982547-2" data-name="Trazado 982547" transform="translate(9 6)" fill="#ffe1b9">
                                                          <path d="M 47.50000762939453 93.49986267089844 C 41.28937911987305 93.49986267089844 35.26534271240234 92.28383636474609 29.59519386291504 89.88558197021484 C 24.11772727966309 87.56880950927734 19.19814109802246 84.25183868408203 14.97310066223145 80.02679443359375 C 10.74804782867432 75.8017578125 7.431074142456055 70.88218688964844 5.114300727844238 65.40471649169922 C 2.716034412384033 59.73458480834961 1.500007629394531 53.71054458618164 1.500007629394531 47.49993133544922 C 1.500007629394531 41.2893180847168 2.716034412384033 35.26527786254883 5.114300727844238 29.59514427185059 C 7.431074142456055 24.11767768859863 10.74804782867432 19.19810485839844 14.97310066223145 14.97306442260742 C 19.19814109802246 10.74802494049072 24.11772727966309 7.431051254272461 29.59519386291504 5.114277839660645 C 35.26534271240234 2.71602463722229 41.28937911987305 1.499997973442078 47.50000762939453 1.499997973442078 C 53.71063613891602 1.499997973442078 59.73467254638672 2.71602463722229 65.40482330322266 5.114277839660645 C 70.88228607177734 7.431051254272461 75.80187225341797 10.74802494049072 80.02691650390625 14.97306442260742 C 84.25196838378906 19.19810485839844 87.56893920898438 24.11767768859863 89.88571166992188 29.59514427185059 C 92.28398132324219 35.26527786254883 93.50000762939453 41.2893180847168 93.50000762939453 47.49993133544922 C 93.50000762939453 53.71054458618164 92.28398132324219 59.73458480834961 89.88571166992188 65.40471649169922 C 87.56893920898438 70.88218688964844 84.25196838378906 75.8017578125 80.02691650390625 80.02679443359375 C 75.80187225341797 84.25183868408203 70.88228607177734 87.56880950927734 65.40482330322266 89.88558197021484 C 59.73467254638672 92.28383636474609 53.71063613891602 93.49986267089844 47.50000762939453 93.49986267089844 Z" stroke="none"/>
                                                          <path d="M 47.50000762939453 2.999992370605469 C 41.4912223815918 2.999992370605469 35.66377639770508 4.1761474609375 30.17951202392578 6.495796203613281 C 24.88085174560547 8.736930847167969 20.12152862548828 11.94596099853516 16.03376007080078 16.03372955322266 C 11.94597625732422 20.12148284912109 8.736961364746094 24.88080596923828 6.495803833007812 30.17946624755859 C 4.176162719726562 35.66371536254883 3.000007629394531 41.49116134643555 3.000007629394531 47.49993133544922 C 3.000007629394531 53.50870132446289 4.176162719726562 59.33614730834961 6.495803833007812 64.82038879394531 C 8.736961364746094 70.11905670166016 11.94597625732422 74.87836456298828 16.03376007080078 78.96613311767578 C 20.12152862548828 83.05390167236328 24.88085174560547 86.26291656494141 30.17951202392578 88.50406646728516 C 35.66377639770508 90.82369995117188 41.4912223815918 91.99985504150391 47.50000762939453 91.99985504150391 C 53.50879287719727 91.99985504150391 59.33623886108398 90.82369995117188 64.82049560546875 88.50406646728516 C 70.11916351318359 86.26291656494141 74.87848663330078 83.05390167236328 78.96625518798828 78.96613311767578 C 83.05403900146484 74.87836456298828 86.26305389404297 70.11905670166016 88.50421142578125 64.82038879394531 C 90.8238525390625 59.33614730834961 92.00000762939453 53.50870132446289 92.00000762939453 47.49993133544922 C 92.00000762939453 41.49116134643555 90.8238525390625 35.66371536254883 88.50421142578125 30.17946624755859 C 86.26305389404297 24.88080596923828 83.05403900146484 20.12148284912109 78.96625518798828 16.03372955322266 C 74.87848663330078 11.94596099853516 70.11916351318359 8.736930847167969 64.82049560546875 6.495796203613281 C 59.33623886108398 4.1761474609375 53.50879287719727 2.999992370605469 47.50000762939453 2.999992370605469 M 47.50000762939453 -7.62939453125e-06 C 73.73352813720703 -7.62939453125e-06 95.00000762939453 21.26644134521484 95.00000762939453 47.49993133544922 C 95.00000762939453 73.73342132568359 73.73352813720703 94.99985504150391 47.50000762939453 94.99985504150391 C 21.26648712158203 94.99985504150391 7.62939453125e-06 73.73342132568359 7.62939453125e-06 47.49993133544922 C 7.62939453125e-06 21.26644134521484 21.26648712158203 -7.62939453125e-06 47.50000762939453 -7.62939453125e-06 Z" stroke="none" fill="#ff9d1c"/>
                                                        </g>
                                                      </g>
                                                    </g>
                                                  </g>
                                                </g>
                                              </g>
                                            </g>
                                          </g>
                                        </g>
                                      </g>
                                    </g>
                                  </g>
                                </g>
                              </g>
                            </g>
                          </g>
                        </g>
                      </g>
                    </g>
                  </g>
                </g>
              </g>
            </g>
          </g>
        </g>
      </g>
    </g>
    <g id="lista-de-verificacion_11_" data-name="lista-de-verificacion (11)" transform="translate(4711.685 3801.461)">
      <path id="Trazado_1299170" data-name="Trazado 1299170" d="M46.778,41.891h6.561A6.01,6.01,0,0,1,59.35,47.9V92.663a6.011,6.011,0,0,1-6.011,6.01H13.615a6.009,6.009,0,0,1-6.01-6.01V47.9a6.008,6.008,0,0,1,6.01-6.01h6.561" transform="translate(-6.672 -36.748)" fill="#fcb52f"/>
      <path id="Trazado_1299171" data-name="Trazado 1299171" d="M133.8,15.789H112.792a2.8,2.8,0,0,1-2.8-2.8V10.4a2.8,2.8,0,0,1,2.8-2.8H133.8a2.8,2.8,0,0,1,2.8,2.8v2.593A2.8,2.8,0,0,1,133.8,15.789Zm0,0" transform="translate(-96.492 -6.672)" fill="#5c5e71"/>
      <path id="Trazado_1299172" data-name="Trazado 1299172" d="M92.991,148.08H59.2a3.011,3.011,0,0,1-3.011-3.011V107.856a3.011,3.011,0,0,1,3.011-3.011H92.991A3.011,3.011,0,0,1,96,107.856v37.213A3.011,3.011,0,0,1,92.991,148.08Zm0,0" transform="translate(-49.29 -91.973)" fill="#e5e5e5"/>
      <g id="Grupo_1242781" data-name="Grupo 1242781" transform="translate(11.098 19.162)">
        <path id="Trazado_1299173" data-name="Trazado 1299173" d="M96.3,164.351H92.771a2.373,2.373,0,0,1-2.373-2.373v-3.527a2.373,2.373,0,0,1,2.373-2.373H96.3a2.373,2.373,0,0,1,2.373,2.373v3.527A2.373,2.373,0,0,1,96.3,164.351Zm0,0" transform="translate(-90.398 -156.078)" fill="#fff"/>
        <path id="Trazado_1299174" data-name="Trazado 1299174" d="M96.3,261.171H92.771A2.373,2.373,0,0,1,90.4,258.8v-3.527a2.373,2.373,0,0,1,2.373-2.373H96.3a2.373,2.373,0,0,1,2.373,2.373V258.8A2.373,2.373,0,0,1,96.3,261.171Zm0,0" transform="translate(-90.398 -241.012)" fill="#fff"/>
        <path id="Trazado_1299175" data-name="Trazado 1299175" d="M96.3,357.988H92.771a2.373,2.373,0,0,1-2.373-2.373v-3.527a2.373,2.373,0,0,1,2.373-2.373H96.3a2.373,2.373,0,0,1,2.373,2.373v3.527A2.373,2.373,0,0,1,96.3,357.988Zm0,0" transform="translate(-90.398 -325.942)" fill="#fff"/>
      </g>
      <path id="Trazado_1299176" data-name="Trazado 1299176" d="M52.678,18.1a.934.934,0,0,0,.934-.934v-6.01a6.951,6.951,0,0,0-6.944-6.943H41.04V3.729A3.733,3.733,0,0,0,37.311,0H16.3a3.733,3.733,0,0,0-3.729,3.729v.481H6.943A6.951,6.951,0,0,0,0,11.152V55.915a6.951,6.951,0,0,0,6.943,6.943H46.667a6.951,6.951,0,0,0,6.944-6.943V20.9a.933.933,0,0,0-1.867,0V55.915a5.082,5.082,0,0,1-5.077,5.076H6.943a5.082,5.082,0,0,1-5.076-5.076V11.152A5.082,5.082,0,0,1,6.943,6.076h5.628v.245A3.735,3.735,0,0,0,15.247,9.9v2.04H9.909a3.95,3.95,0,0,0-3.945,3.945V53.1A3.949,3.949,0,0,0,9.909,57.04h.571a.933.933,0,1,0,0-1.867H9.909A2.08,2.08,0,0,1,7.831,53.1V15.883a2.08,2.08,0,0,1,2.078-2.078h5.728a4.5,4.5,0,0,0,4.107,2.669H33.866a4.5,4.5,0,0,0,4.107-2.669H43.7a2.08,2.08,0,0,1,2.078,2.078V53.1A2.08,2.08,0,0,1,43.7,55.173H14.215a.934.934,0,0,0,0,1.867H43.7A3.95,3.95,0,0,0,47.646,53.1V15.883A3.95,3.95,0,0,0,43.7,11.938H38.364V9.9A3.735,3.735,0,0,0,41.04,6.321V6.076h5.627a5.082,5.082,0,0,1,5.077,5.076v6.01a.934.934,0,0,0,.933.934ZM33.866,14.606H19.744a2.623,2.623,0,0,1-1.887-.8h17.9a2.624,2.624,0,0,1-1.887.8ZM17.114,11.938V10.05H36.5v1.887Zm20.2-3.754H16.3a1.864,1.864,0,0,1-1.862-1.862V3.729A1.864,1.864,0,0,1,16.3,1.867H37.311a1.864,1.864,0,0,1,1.862,1.862V6.321a1.864,1.864,0,0,1-1.862,1.862Zm0,0"/>
      <path id="Trazado_1299177" data-name="Trazado 1299177" d="M82.793,245.037a3.31,3.31,0,0,0,3.307,3.306h3.527a3.31,3.31,0,0,0,3.306-3.306v-3.527A3.282,3.282,0,0,0,92.564,240l.923-1.313a.933.933,0,1,0-1.527-1.074l-.717,1.019a3.283,3.283,0,0,0-1.617-.424H86.1a3.31,3.31,0,0,0-3.307,3.307Zm1.867-3.527a1.441,1.441,0,0,1,1.439-1.44h3.527a1.432,1.432,0,0,1,.53.1l-2.167,3.082-.77-.77a.934.934,0,1,0-1.32,1.32l1.555,1.555a.934.934,0,0,0,.66.274c.027,0,.054,0,.08,0a.932.932,0,0,0,.683-.393l2.187-3.111v2.911a1.442,1.442,0,0,1-1.44,1.44H86.1a1.442,1.442,0,0,1-1.44-1.44v-3.526Zm0,0" transform="translate(-72.629 -208.089)"/>
      <path id="Trazado_1299178" data-name="Trazado 1299178" d="M82.793,348.947a3.31,3.31,0,0,0,3.307,3.307h3.527a3.31,3.31,0,0,0,3.306-3.307V345.42a3.31,3.31,0,0,0-3.306-3.307H86.1a3.31,3.31,0,0,0-3.307,3.307Zm1.867-3.526a1.441,1.441,0,0,1,1.439-1.44h3.527a1.441,1.441,0,0,1,1.439,1.44v3.526a1.441,1.441,0,0,1-1.439,1.44H86.1a1.441,1.441,0,0,1-1.439-1.44Zm0,0" transform="translate(-72.629 -300.112)"/>
      <path id="Trazado_1299179" data-name="Trazado 1299179" d="M183.433,168.84H196.9a.933.933,0,1,0,0-1.867H183.433a.933.933,0,1,0,0,1.867Zm0,0" transform="translate(-160.094 -146.474)"/>
      <path id="Trazado_1299180" data-name="Trazado 1299180" d="M183.433,199.227h19.14a.934.934,0,1,0,0-1.867h-19.14a.934.934,0,0,0,0,1.867Zm0,0" transform="translate(-160.094 -173.129)"/>
      <path id="Trazado_1299181" data-name="Trazado 1299181" d="M183.433,265.66H196.9a.934.934,0,1,0,0-1.867H183.433a.934.934,0,1,0,0,1.867Zm0,0" transform="translate(-160.094 -231.407)"/>
      <path id="Trazado_1299182" data-name="Trazado 1299182" d="M183.433,296.047h19.14a.933.933,0,1,0,0-1.867h-19.14a.933.933,0,1,0,0,1.867Zm0,0" transform="translate(-160.094 -258.064)"/>
      <path id="Trazado_1299183" data-name="Trazado 1299183" d="M183.433,362.476H196.9a.933.933,0,1,0,0-1.867H183.433a.933.933,0,1,0,0,1.867Zm0,0" transform="translate(-160.094 -316.337)"/>
      <path id="Trazado_1299184" data-name="Trazado 1299184" d="M183.433,392.867h19.14a.934.934,0,1,0,0-1.867h-19.14a.934.934,0,1,0,0,1.867Zm0,0" transform="translate(-160.094 -342.997)"/>
      <path id="Trazado_1299185" data-name="Trazado 1299185" d="M93.261,141.607a.934.934,0,0,0-1.3.227l-.653.928a3.283,3.283,0,0,0-1.681-.461H86.1a3.31,3.31,0,0,0-3.307,3.306v3.527a3.31,3.31,0,0,0,3.307,3.307h3.527a3.31,3.31,0,0,0,3.306-3.307v-3.527a3.29,3.29,0,0,0-.33-1.441l.885-1.259A.934.934,0,0,0,93.261,141.607Zm-2.2,7.527a1.441,1.441,0,0,1-1.439,1.44H86.1a1.441,1.441,0,0,1-1.439-1.44v-3.527a1.441,1.441,0,0,1,1.439-1.439h3.527a1.424,1.424,0,0,1,.6.132l-2.236,3.18-.77-.77a.933.933,0,1,0-1.32,1.32l1.555,1.555a.934.934,0,0,0,.66.274c.027,0,.054,0,.081,0a.931.931,0,0,0,.683-.393l2.187-3.111Zm0,0" transform="translate(-72.629 -124.073)"/>
    </g>
  </g>
</svg>
