<svg xmlns="http://www.w3.org/2000/svg" width="457.991" height="257.873" viewBox="0 0 457.991 257.873">
  <g id="Grupo_1242800" data-name="Grupo 1242800" transform="translate(-559 -3408.338)">
    <path id="Trazado_1299259" data-name="Trazado 1299259" d="M40.622,24V8.6h5.457q8.207,0,8.207,7.509a7.593,7.593,0,0,1-2.24,5.747A8.259,8.259,0,0,1,46.079,24Zm3.47-12.579v9.765H45.81a4.644,4.644,0,0,0,3.54-1.354,5.136,5.136,0,0,0,1.284-3.685,4.659,4.659,0,0,0-1.273-3.464,4.853,4.853,0,0,0-3.572-1.262ZM60.312,24h-3.47V8.6h3.47ZM77.36,24H73.579l-1.1-3.427H67L65.919,24H62.16L67.767,8.6h4.114Zm-5.672-6.091-1.654-5.178a6.748,6.748,0,0,1-.258-1.386H69.69a5.876,5.876,0,0,1-.269,1.343l-1.676,5.221Zm20.023,5.06a11.086,11.086,0,0,1-5.607,1.3,8.11,8.11,0,0,1-5.86-2.057A7.484,7.484,0,0,1,78.1,16.545a7.911,7.911,0,0,1,2.342-5.919,8.532,8.532,0,0,1,6.23-2.288,12.655,12.655,0,0,1,4.318.677V12.27a8.583,8.583,0,0,0-4.361-1.031,4.682,4.682,0,0,0-3.518,1.4,5.15,5.15,0,0,0-1.359,3.744,5.165,5.165,0,0,0,1.219,3.674,4.3,4.3,0,0,0,3.292,1.3A4.583,4.583,0,0,0,88.242,21V18H85.159V15.224h6.553ZM107.631,24h-3.985l-2.4-3.964q-.269-.451-.516-.806a4.476,4.476,0,0,0-.5-.607,1.986,1.986,0,0,0-.526-.387,1.336,1.336,0,0,0-.6-.134h-.935V24h-3.47V8.6h5.5q5.607,0,5.607,4.189a4.338,4.338,0,0,1-.247,1.488,4.133,4.133,0,0,1-.7,1.23,4.426,4.426,0,0,1-1.09.945,5.623,5.623,0,0,1-1.423.623v.043a2.208,2.208,0,0,1,.666.349,4.769,4.769,0,0,1,.623.564,7.868,7.868,0,0,1,.575.693q.274.371.5.725ZM98.178,11.2v4.286h1.5a2.493,2.493,0,0,0,1.794-.645,2.151,2.151,0,0,0,.688-1.622q0-2.02-2.417-2.02ZM122.617,24h-3.781l-1.1-3.427h-5.479L111.176,24h-3.76l5.607-15.4h4.114Zm-5.672-6.091-1.654-5.178a6.748,6.748,0,0,1-.258-1.386h-.086a5.876,5.876,0,0,1-.269,1.343L113,17.909ZM142.092,24h-3.427V14.783q0-1.493.129-3.3h-.086a16.226,16.226,0,0,1-.483,2.041L134.616,24H131.78l-3.674-10.366a20.171,20.171,0,0,1-.483-2.148h-.1q.14,2.277.14,4V24H124.54V8.6h5.081l3.147,9.131a12.855,12.855,0,0,1,.548,2.2h.064a22.174,22.174,0,0,1,.612-2.224L137.14,8.6h4.952Zm17.048,0h-3.781l-1.1-3.427h-5.479L147.7,24h-3.76l5.607-15.4h4.114Zm-5.672-6.091-1.654-5.178a6.747,6.747,0,0,1-.258-1.386h-.086a5.876,5.876,0,0,1-.269,1.343l-1.676,5.221Zm24.707,5.543a10.158,10.158,0,0,1-4.4.816,7.424,7.424,0,0,1-5.575-2.084,7.618,7.618,0,0,1-2.03-5.554,8.139,8.139,0,0,1,2.283-5.994,7.985,7.985,0,0,1,5.924-2.3,11.079,11.079,0,0,1,3.8.569v3.341a6.738,6.738,0,0,0-3.523-.924,4.674,4.674,0,0,0-3.5,1.364,5.062,5.062,0,0,0-1.332,3.7,4.965,4.965,0,0,0,1.257,3.561,4.44,4.44,0,0,0,3.384,1.327,7.218,7.218,0,0,0,3.717-.988ZM194.407,24h-3.781l-1.1-3.427h-5.479L182.966,24h-3.76l5.607-15.4h4.114Zm-5.672-6.091-1.654-5.178a6.747,6.747,0,0,1-.258-1.386h-.086a5.876,5.876,0,0,1-.269,1.343l-1.676,5.221Zm19.776-.58q0,6.939-6.467,6.939-6.273,0-6.273-6.778V8.6h3.48v8.938q0,3.738,2.922,3.738,2.868,0,2.868-3.609V8.6h3.47Zm2.643,6.08V19.972a6.605,6.605,0,0,0,2.03,1.176,6.526,6.526,0,0,0,2.213.392,4.907,4.907,0,0,0,1.144-.118,2.68,2.68,0,0,0,.816-.328,1.429,1.429,0,0,0,.489-.494,1.233,1.233,0,0,0,.161-.618,1.335,1.335,0,0,0-.258-.806,2.774,2.774,0,0,0-.7-.655,7.352,7.352,0,0,0-1.058-.58q-.612-.279-1.321-.569a6.744,6.744,0,0,1-2.691-1.837,4.01,4.01,0,0,1-.886-2.621,4.175,4.175,0,0,1,.483-2.068,4.106,4.106,0,0,1,1.316-1.423,5.9,5.9,0,0,1,1.928-.822,9.908,9.908,0,0,1,2.32-.263,13.956,13.956,0,0,1,2.132.145,8.386,8.386,0,0,1,1.713.446v3.212a5.181,5.181,0,0,0-.843-.473,6.681,6.681,0,0,0-.94-.338,7.17,7.17,0,0,0-.961-.2,6.8,6.8,0,0,0-.908-.064,4.734,4.734,0,0,0-1.074.113,2.755,2.755,0,0,0-.816.317,1.577,1.577,0,0,0-.516.489,1.158,1.158,0,0,0-.183.639,1.221,1.221,0,0,0,.2.693,2.341,2.341,0,0,0,.58.58,6.156,6.156,0,0,0,.913.537q.537.263,1.214.542a13.525,13.525,0,0,1,1.66.822,5.9,5.9,0,0,1,1.262.983,3.829,3.829,0,0,1,.806,1.251,4.422,4.422,0,0,1,.279,1.638,4.388,4.388,0,0,1-.489,2.165,3.968,3.968,0,0,1-1.327,1.418,5.753,5.753,0,0,1-1.95.779,11.268,11.268,0,0,1-2.347.236,13.051,13.051,0,0,1-2.412-.215A7.28,7.28,0,0,1,211.154,23.409ZM237.741,24h-3.781l-1.1-3.427h-5.479L226.3,24h-3.76l5.607-15.4h4.114Zm-5.672-6.091-1.654-5.178a6.747,6.747,0,0,1-.258-1.386h-.086a5.876,5.876,0,0,1-.269,1.343l-1.676,5.221Zm13.245,1.407h-5.876V16.942h5.876ZM257.8,24h-9.238V8.6h8.884v2.825h-5.414v3.427h5.038v2.814h-5.038v3.523H257.8Zm11.376-12.579h-5.436V15.2h5v2.814h-5V24h-3.47V8.6h8.905ZM280.946,24h-9.238V8.6h8.884v2.825h-5.414v3.427h5.038v2.814h-5.038v3.523h5.769Zm13.514-.548a10.158,10.158,0,0,1-4.4.816,7.424,7.424,0,0,1-5.575-2.084,7.618,7.618,0,0,1-2.03-5.554,8.139,8.139,0,0,1,2.283-5.994,7.985,7.985,0,0,1,5.924-2.3,11.079,11.079,0,0,1,3.8.569v3.341a6.738,6.738,0,0,0-3.523-.924,4.674,4.674,0,0,0-3.5,1.364,5.062,5.062,0,0,0-1.332,3.7,4.965,4.965,0,0,0,1.257,3.561,4.44,4.44,0,0,0,3.384,1.327,7.218,7.218,0,0,0,3.717-.988Zm13.5-12.031h-4.394V24h-3.48V11.421h-4.372V8.6h12.246Zm7.767,12.848a7.171,7.171,0,0,1-5.393-2.154,7.732,7.732,0,0,1-2.084-5.613,8.286,8.286,0,0,1,2.116-5.908,7.327,7.327,0,0,1,5.607-2.256A6.992,6.992,0,0,1,321.31,10.5a7.961,7.961,0,0,1,2.036,5.693,8.153,8.153,0,0,1-2.111,5.854A7.245,7.245,0,0,1,315.729,24.269Zm.15-12.944a3.493,3.493,0,0,0-2.9,1.37,5.711,5.711,0,0,0-1.074,3.625,5.606,5.606,0,0,0,1.074,3.62,3.707,3.707,0,0,0,5.661.038,5.544,5.544,0,0,0,1.053-3.593,6.008,6.008,0,0,0-1.021-3.728A3.327,3.327,0,0,0,315.879,11.324Z" transform="translate(608 3400)" fill="#212429"/>
    <g id="Grupo_1235691" data-name="Grupo 1235691" transform="translate(0.237 47)">
      <path id="Trazado_1296993" data-name="Trazado 1296993" d="M6829.994,3439.343l55.785,82.717-55.785,78.388" transform="translate(-6205)" fill="none" stroke="#1d7083" stroke-linecap="round" stroke-width="4"/>
      <path id="Trazado_1296994" data-name="Trazado 1296994" d="M6829.994,3439.343l55.785,82.717-55.785,78.388" transform="translate(-6079)" fill="none" stroke="#1d7083" stroke-linecap="round" stroke-width="4"/>
      <path id="Trazado_1296995" data-name="Trazado 1296995" d="M6766.763,3519.9h370.67" transform="translate(-6205)" fill="none" stroke="#1d7083" stroke-linecap="round" stroke-width="6"/>
      <g id="Polígono_5" data-name="Polígono 5" transform="translate(956.479 3493.5) rotate(90)" fill="#1d7083">
        <path d="M 52.97201156616211 33.90380477905273 L 1.027987480163574 33.90380477905273 L 27 0.8098812103271484 L 52.97201156616211 33.90380477905273 Z" stroke="none"/>
        <path d="M 27 1.619770050048828 L 2.055984497070312 33.40380477905273 L 51.94401550292969 33.40380477905273 L 27 1.619770050048828 M 27 3.814697265625e-06 L 54 34.40380477905273 L 0 34.40380477905273 L 27 3.814697265625e-06 Z" stroke="none" fill="#1d7083"/>
      </g>
      <path id="Trazado_1296996" data-name="Trazado 1296996" d="M6847.375,3466.829h-48.322" transform="translate(-6205)" fill="none" stroke="#1d7083" stroke-linecap="round" stroke-width="4"/>
      <path id="Trazado_1296997" data-name="Trazado 1296997" d="M6845.9,3495.822h-46.843" transform="translate(-6184)" fill="none" stroke="#1d7083" stroke-linecap="round" stroke-width="4"/>
      <path id="Trazado_1296998" data-name="Trazado 1296998" d="M6847.375,3466.829h-48.322" transform="translate(-6078)" fill="none" stroke="#1d7083" stroke-linecap="round" stroke-width="4"/>
      <path id="Trazado_1296999" data-name="Trazado 1296999" d="M6844.956,3495.822h-45.9" transform="translate(-6057)" fill="none" stroke="#1d7083" stroke-linecap="round" stroke-width="4"/>
      <path id="Trazado_1297000" data-name="Trazado 1297000" d="M6847.375,3496.657h-48.322" transform="translate(-6184 49)" fill="none" stroke="#1d7083" stroke-linecap="round" stroke-width="4"/>
      <path id="Trazado_1297001" data-name="Trazado 1297001" d="M6847.375,3573.933h-48.322" transform="translate(-6205)" fill="none" stroke="#1d7083" stroke-linecap="round" stroke-width="4"/>
      <path id="Trazado_1297002" data-name="Trazado 1297002" d="M6846.151,3496.657h-47.1" transform="translate(-6057 49)" fill="none" stroke="#1d7083" stroke-linecap="round" stroke-width="4"/>
      <path id="Trazado_1297003" data-name="Trazado 1297003" d="M6847.375,3573.933h-48.322" transform="translate(-6078)" fill="none" stroke="#1d7083" stroke-linecap="round" stroke-width="4"/>
    </g>
    <path id="Trazado_1299260" data-name="Trazado 1299260" d="M16.084,18.473a7.392,7.392,0,0,1-3.48.738A5.613,5.613,0,0,1,8.3,17.479,6.389,6.389,0,0,1,6.68,12.936,6.7,6.7,0,0,1,8.5,8.049a6.175,6.175,0,0,1,4.614-1.863,7.4,7.4,0,0,1,2.971.519V8.277A6.024,6.024,0,0,0,13.1,7.521a4.585,4.585,0,0,0-3.52,1.45,5.463,5.463,0,0,0-1.349,3.876,5.2,5.2,0,0,0,1.261,3.669A4.292,4.292,0,0,0,12.8,17.884a6.208,6.208,0,0,0,3.287-.844ZM24.9,19H23.46V17.594h-.035a3.018,3.018,0,0,1-2.769,1.617,2.959,2.959,0,0,1-2.1-.712,2.466,2.466,0,0,1-.76-1.89q0-2.522,2.971-2.936l2.7-.378Q23.46,11,21.606,11a4.431,4.431,0,0,0-2.936,1.107V10.633a5.577,5.577,0,0,1,3.059-.844q3.173,0,3.173,3.357ZM23.46,14.447l-2.171.3a3.525,3.525,0,0,0-1.512.5,1.432,1.432,0,0,0-.51,1.261,1.374,1.374,0,0,0,.47,1.077A1.817,1.817,0,0,0,20.99,18a2.314,2.314,0,0,0,1.771-.751,2.685,2.685,0,0,0,.7-1.9ZM34.9,19H33.455V17.576H33.42a2.96,2.96,0,0,1-2.777,1.635q-3.217,0-3.217-3.832V10h1.433v5.15q0,2.848,2.18,2.848a2.205,2.205,0,0,0,1.736-.778,2.976,2.976,0,0,0,.681-2.035V10H34.9Zm2.366-.325V17.128a4.266,4.266,0,0,0,2.593.87q1.9,0,1.9-1.266a1.1,1.1,0,0,0-.163-.611,1.62,1.62,0,0,0-.439-.444,3.383,3.383,0,0,0-.65-.347q-.374-.154-.8-.321a10.357,10.357,0,0,1-1.05-.479,3.173,3.173,0,0,1-.756-.545,2.028,2.028,0,0,1-.457-.69,2.441,2.441,0,0,1-.154-.905,2.15,2.15,0,0,1,.29-1.121,2.572,2.572,0,0,1,.773-.817,3.607,3.607,0,0,1,1.1-.5,4.893,4.893,0,0,1,1.279-.167,5.164,5.164,0,0,1,2.092.4v1.459A4.077,4.077,0,0,0,40.532,11a2.671,2.671,0,0,0-.729.092,1.786,1.786,0,0,0-.558.259,1.2,1.2,0,0,0-.36.4,1.053,1.053,0,0,0-.127.514,1.233,1.233,0,0,0,.127.589,1.3,1.3,0,0,0,.374.422,2.855,2.855,0,0,0,.6.334q.352.149.8.325a11.131,11.131,0,0,1,1.072.47,3.678,3.678,0,0,1,.809.545,2.129,2.129,0,0,1,.514.7,2.254,2.254,0,0,1,.18.94,2.217,2.217,0,0,1-.294,1.16,2.523,2.523,0,0,1-.787.817,3.6,3.6,0,0,1-1.134.483,5.6,5.6,0,0,1-1.345.158A5.106,5.106,0,0,1,37.263,18.675ZM51.889,19H50.448V17.594h-.035a3.018,3.018,0,0,1-2.769,1.617,2.959,2.959,0,0,1-2.1-.712,2.466,2.466,0,0,1-.76-1.89q0-2.522,2.971-2.936l2.7-.378Q50.448,11,48.593,11a4.431,4.431,0,0,0-2.936,1.107V10.633a5.577,5.577,0,0,1,3.059-.844q3.173,0,3.173,3.357Zm-1.441-4.553-2.171.3a3.525,3.525,0,0,0-1.512.5,1.432,1.432,0,0,0-.51,1.261,1.374,1.374,0,0,0,.47,1.077A1.817,1.817,0,0,0,47.978,18a2.314,2.314,0,0,0,1.771-.751,2.685,2.685,0,0,0,.7-1.9Z" transform="translate(592.237 3461)" fill="#212429"/>
    <path id="Trazado_1299261" data-name="Trazado 1299261" d="M16.084,18.473a7.392,7.392,0,0,1-3.48.738A5.613,5.613,0,0,1,8.3,17.479,6.389,6.389,0,0,1,6.68,12.936,6.7,6.7,0,0,1,8.5,8.049a6.175,6.175,0,0,1,4.614-1.863,7.4,7.4,0,0,1,2.971.519V8.277A6.024,6.024,0,0,0,13.1,7.521a4.585,4.585,0,0,0-3.52,1.45,5.463,5.463,0,0,0-1.349,3.876,5.2,5.2,0,0,0,1.261,3.669A4.292,4.292,0,0,0,12.8,17.884a6.208,6.208,0,0,0,3.287-.844ZM24.9,19H23.46V17.594h-.035a3.018,3.018,0,0,1-2.769,1.617,2.959,2.959,0,0,1-2.1-.712,2.466,2.466,0,0,1-.76-1.89q0-2.522,2.971-2.936l2.7-.378Q23.46,11,21.606,11a4.431,4.431,0,0,0-2.936,1.107V10.633a5.577,5.577,0,0,1,3.059-.844q3.173,0,3.173,3.357ZM23.46,14.447l-2.171.3a3.525,3.525,0,0,0-1.512.5,1.432,1.432,0,0,0-.51,1.261,1.374,1.374,0,0,0,.47,1.077A1.817,1.817,0,0,0,20.99,18a2.314,2.314,0,0,0,1.771-.751,2.685,2.685,0,0,0,.7-1.9ZM34.9,19H33.455V17.576H33.42a2.96,2.96,0,0,1-2.777,1.635q-3.217,0-3.217-3.832V10h1.433v5.15q0,2.848,2.18,2.848a2.205,2.205,0,0,0,1.736-.778,2.976,2.976,0,0,0,.681-2.035V10H34.9Zm2.366-.325V17.128a4.266,4.266,0,0,0,2.593.87q1.9,0,1.9-1.266a1.1,1.1,0,0,0-.163-.611,1.62,1.62,0,0,0-.439-.444,3.383,3.383,0,0,0-.65-.347q-.374-.154-.8-.321a10.357,10.357,0,0,1-1.05-.479,3.173,3.173,0,0,1-.756-.545,2.028,2.028,0,0,1-.457-.69,2.441,2.441,0,0,1-.154-.905,2.15,2.15,0,0,1,.29-1.121,2.572,2.572,0,0,1,.773-.817,3.607,3.607,0,0,1,1.1-.5,4.893,4.893,0,0,1,1.279-.167,5.164,5.164,0,0,1,2.092.4v1.459A4.077,4.077,0,0,0,40.532,11a2.671,2.671,0,0,0-.729.092,1.786,1.786,0,0,0-.558.259,1.2,1.2,0,0,0-.36.4,1.053,1.053,0,0,0-.127.514,1.233,1.233,0,0,0,.127.589,1.3,1.3,0,0,0,.374.422,2.855,2.855,0,0,0,.6.334q.352.149.8.325a11.131,11.131,0,0,1,1.072.47,3.678,3.678,0,0,1,.809.545,2.129,2.129,0,0,1,.514.7,2.254,2.254,0,0,1,.18.94,2.217,2.217,0,0,1-.294,1.16,2.523,2.523,0,0,1-.787.817,3.6,3.6,0,0,1-1.134.483,5.6,5.6,0,0,1-1.345.158A5.106,5.106,0,0,1,37.263,18.675ZM51.889,19H50.448V17.594h-.035a3.018,3.018,0,0,1-2.769,1.617,2.959,2.959,0,0,1-2.1-.712,2.466,2.466,0,0,1-.76-1.89q0-2.522,2.971-2.936l2.7-.378Q50.448,11,48.593,11a4.431,4.431,0,0,0-2.936,1.107V10.633a5.577,5.577,0,0,1,3.059-.844q3.173,0,3.173,3.357Zm-1.441-4.553-2.171.3a3.525,3.525,0,0,0-1.512.5,1.432,1.432,0,0,0-.51,1.261,1.374,1.374,0,0,0,.47,1.077A1.817,1.817,0,0,0,47.978,18a2.314,2.314,0,0,0,1.771-.751,2.685,2.685,0,0,0,.7-1.9Z" transform="translate(713.237 3461)" fill="#212429"/>
    <path id="Trazado_1299262" data-name="Trazado 1299262" d="M16.084,18.473a7.392,7.392,0,0,1-3.48.738A5.613,5.613,0,0,1,8.3,17.479,6.389,6.389,0,0,1,6.68,12.936,6.7,6.7,0,0,1,8.5,8.049a6.175,6.175,0,0,1,4.614-1.863,7.4,7.4,0,0,1,2.971.519V8.277A6.024,6.024,0,0,0,13.1,7.521a4.585,4.585,0,0,0-3.52,1.45,5.463,5.463,0,0,0-1.349,3.876,5.2,5.2,0,0,0,1.261,3.669A4.292,4.292,0,0,0,12.8,17.884a6.208,6.208,0,0,0,3.287-.844ZM24.9,19H23.46V17.594h-.035a3.018,3.018,0,0,1-2.769,1.617,2.959,2.959,0,0,1-2.1-.712,2.466,2.466,0,0,1-.76-1.89q0-2.522,2.971-2.936l2.7-.378Q23.46,11,21.606,11a4.431,4.431,0,0,0-2.936,1.107V10.633a5.577,5.577,0,0,1,3.059-.844q3.173,0,3.173,3.357ZM23.46,14.447l-2.171.3a3.525,3.525,0,0,0-1.512.5,1.432,1.432,0,0,0-.51,1.261,1.374,1.374,0,0,0,.47,1.077A1.817,1.817,0,0,0,20.99,18a2.314,2.314,0,0,0,1.771-.751,2.685,2.685,0,0,0,.7-1.9ZM34.9,19H33.455V17.576H33.42a2.96,2.96,0,0,1-2.777,1.635q-3.217,0-3.217-3.832V10h1.433v5.15q0,2.848,2.18,2.848a2.205,2.205,0,0,0,1.736-.778,2.976,2.976,0,0,0,.681-2.035V10H34.9Zm2.366-.325V17.128a4.266,4.266,0,0,0,2.593.87q1.9,0,1.9-1.266a1.1,1.1,0,0,0-.163-.611,1.62,1.62,0,0,0-.439-.444,3.383,3.383,0,0,0-.65-.347q-.374-.154-.8-.321a10.357,10.357,0,0,1-1.05-.479,3.173,3.173,0,0,1-.756-.545,2.028,2.028,0,0,1-.457-.69,2.441,2.441,0,0,1-.154-.905,2.15,2.15,0,0,1,.29-1.121,2.572,2.572,0,0,1,.773-.817,3.607,3.607,0,0,1,1.1-.5,4.893,4.893,0,0,1,1.279-.167,5.164,5.164,0,0,1,2.092.4v1.459A4.077,4.077,0,0,0,40.532,11a2.671,2.671,0,0,0-.729.092,1.786,1.786,0,0,0-.558.259,1.2,1.2,0,0,0-.36.4,1.053,1.053,0,0,0-.127.514,1.233,1.233,0,0,0,.127.589,1.3,1.3,0,0,0,.374.422,2.855,2.855,0,0,0,.6.334q.352.149.8.325a11.131,11.131,0,0,1,1.072.47,3.678,3.678,0,0,1,.809.545,2.129,2.129,0,0,1,.514.7,2.254,2.254,0,0,1,.18.94,2.217,2.217,0,0,1-.294,1.16,2.523,2.523,0,0,1-.787.817,3.6,3.6,0,0,1-1.134.483,5.6,5.6,0,0,1-1.345.158A5.106,5.106,0,0,1,37.263,18.675ZM51.889,19H50.448V17.594h-.035a3.018,3.018,0,0,1-2.769,1.617,2.959,2.959,0,0,1-2.1-.712,2.466,2.466,0,0,1-.76-1.89q0-2.522,2.971-2.936l2.7-.378Q50.448,11,48.593,11a4.431,4.431,0,0,0-2.936,1.107V10.633a5.577,5.577,0,0,1,3.059-.844q3.173,0,3.173,3.357Zm-1.441-4.553-2.171.3a3.525,3.525,0,0,0-1.512.5,1.432,1.432,0,0,0-.51,1.261,1.374,1.374,0,0,0,.47,1.077A1.817,1.817,0,0,0,47.978,18a2.314,2.314,0,0,0,1.771-.751,2.685,2.685,0,0,0,.7-1.9Z" transform="translate(592.237 3647)" fill="#212429"/>
    <path id="Trazado_1299263" data-name="Trazado 1299263" d="M16.084,18.473a7.392,7.392,0,0,1-3.48.738A5.613,5.613,0,0,1,8.3,17.479,6.389,6.389,0,0,1,6.68,12.936,6.7,6.7,0,0,1,8.5,8.049a6.175,6.175,0,0,1,4.614-1.863,7.4,7.4,0,0,1,2.971.519V8.277A6.024,6.024,0,0,0,13.1,7.521a4.585,4.585,0,0,0-3.52,1.45,5.463,5.463,0,0,0-1.349,3.876,5.2,5.2,0,0,0,1.261,3.669A4.292,4.292,0,0,0,12.8,17.884a6.208,6.208,0,0,0,3.287-.844ZM24.9,19H23.46V17.594h-.035a3.018,3.018,0,0,1-2.769,1.617,2.959,2.959,0,0,1-2.1-.712,2.466,2.466,0,0,1-.76-1.89q0-2.522,2.971-2.936l2.7-.378Q23.46,11,21.606,11a4.431,4.431,0,0,0-2.936,1.107V10.633a5.577,5.577,0,0,1,3.059-.844q3.173,0,3.173,3.357ZM23.46,14.447l-2.171.3a3.525,3.525,0,0,0-1.512.5,1.432,1.432,0,0,0-.51,1.261,1.374,1.374,0,0,0,.47,1.077A1.817,1.817,0,0,0,20.99,18a2.314,2.314,0,0,0,1.771-.751,2.685,2.685,0,0,0,.7-1.9ZM34.9,19H33.455V17.576H33.42a2.96,2.96,0,0,1-2.777,1.635q-3.217,0-3.217-3.832V10h1.433v5.15q0,2.848,2.18,2.848a2.205,2.205,0,0,0,1.736-.778,2.976,2.976,0,0,0,.681-2.035V10H34.9Zm2.366-.325V17.128a4.266,4.266,0,0,0,2.593.87q1.9,0,1.9-1.266a1.1,1.1,0,0,0-.163-.611,1.62,1.62,0,0,0-.439-.444,3.383,3.383,0,0,0-.65-.347q-.374-.154-.8-.321a10.357,10.357,0,0,1-1.05-.479,3.173,3.173,0,0,1-.756-.545,2.028,2.028,0,0,1-.457-.69,2.441,2.441,0,0,1-.154-.905,2.15,2.15,0,0,1,.29-1.121,2.572,2.572,0,0,1,.773-.817,3.607,3.607,0,0,1,1.1-.5,4.893,4.893,0,0,1,1.279-.167,5.164,5.164,0,0,1,2.092.4v1.459A4.077,4.077,0,0,0,40.532,11a2.671,2.671,0,0,0-.729.092,1.786,1.786,0,0,0-.558.259,1.2,1.2,0,0,0-.36.4,1.053,1.053,0,0,0-.127.514,1.233,1.233,0,0,0,.127.589,1.3,1.3,0,0,0,.374.422,2.855,2.855,0,0,0,.6.334q.352.149.8.325a11.131,11.131,0,0,1,1.072.47,3.678,3.678,0,0,1,.809.545,2.129,2.129,0,0,1,.514.7,2.254,2.254,0,0,1,.18.94,2.217,2.217,0,0,1-.294,1.16,2.523,2.523,0,0,1-.787.817,3.6,3.6,0,0,1-1.134.483,5.6,5.6,0,0,1-1.345.158A5.106,5.106,0,0,1,37.263,18.675ZM51.889,19H50.448V17.594h-.035a3.018,3.018,0,0,1-2.769,1.617,2.959,2.959,0,0,1-2.1-.712,2.466,2.466,0,0,1-.76-1.89q0-2.522,2.971-2.936l2.7-.378Q50.448,11,48.593,11a4.431,4.431,0,0,0-2.936,1.107V10.633a5.577,5.577,0,0,1,3.059-.844q3.173,0,3.173,3.357Zm-1.441-4.553-2.171.3a3.525,3.525,0,0,0-1.512.5,1.432,1.432,0,0,0-.51,1.261,1.374,1.374,0,0,0,.47,1.077A1.817,1.817,0,0,0,47.978,18a2.314,2.314,0,0,0,1.771-.751,2.685,2.685,0,0,0,.7-1.9Z" transform="translate(713.237 3647)" fill="#212429"/>
    <path id="Trazado_1299264" data-name="Trazado 1299264" d="M14.581,19H7.023V6.4h7.269V8.708H9.862v2.8h4.122v2.3H9.862V16.7h4.72ZM22.2,7.8a2.806,2.806,0,0,0-1.028-.211q-1.336,0-1.336,1.45V10H21.9v2.048H19.839V19H17.07V12.048H15.559V10H17.07V8.884a3.24,3.24,0,0,1,1-2.479,3.821,3.821,0,0,1,2.725-.94,4.785,4.785,0,0,1,1.406.176Zm9.116,7.488H25.448q.141,1.96,2.47,1.96a4.822,4.822,0,0,0,2.61-.7v2a6.858,6.858,0,0,1-3.243.668A4.565,4.565,0,0,1,23.9,18.011a4.566,4.566,0,0,1-1.2-3.371A4.816,4.816,0,0,1,24,11.09a4.334,4.334,0,0,1,3.2-1.31,3.933,3.933,0,0,1,3.045,1.169,4.5,4.5,0,0,1,1.077,3.173Zm-2.575-1.705q0-1.934-1.564-1.934a1.494,1.494,0,0,0-1.156.554,2.513,2.513,0,0,0-.593,1.38Zm11.05,5.089a5.492,5.492,0,0,1-2.716.545,4.593,4.593,0,0,1-3.357-1.257,4.341,4.341,0,0,1-1.283-3.243A4.782,4.782,0,0,1,33.813,11.1,5.083,5.083,0,0,1,37.491,9.78a4.72,4.72,0,0,1,2.3.422v2.355a3.166,3.166,0,0,0-1.942-.65,2.559,2.559,0,0,0-1.894.7,2.607,2.607,0,0,0-.7,1.929,2.565,2.565,0,0,0,.668,1.876,2.455,2.455,0,0,0,1.837.681,3.666,3.666,0,0,0,2.03-.65Zm7.262.22a4.105,4.105,0,0,1-1.854.325q-2.936,0-2.936-3.05V12.048H40.806V10h1.459V8.058l2.769-.791V10h2.021v2.048H45.034v3.639q0,1.406,1.116,1.406a1.882,1.882,0,0,0,.905-.255Zm5.785.325A4.838,4.838,0,0,1,49.3,17.958a4.573,4.573,0,0,1-1.288-3.423,4.573,4.573,0,0,1,1.336-3.494A5.048,5.048,0,0,1,52.963,9.78a4.78,4.78,0,0,1,3.516,1.261,4.483,4.483,0,0,1,1.274,3.335,4.759,4.759,0,0,1-1.314,3.542A4.892,4.892,0,0,1,52.84,19.22Zm.07-7.312a1.852,1.852,0,0,0-1.529.677,2.984,2.984,0,0,0-.545,1.916q0,2.593,2.092,2.593,2,0,2-2.663Q54.923,11.907,52.911,11.907Z" transform="translate(959.237 3555)" fill="#212429"/>
  </g>
</svg>
