<svg xmlns="http://www.w3.org/2000/svg" xmlns:xlink="http://www.w3.org/1999/xlink" width="113" height="113" viewBox="0 0 113 113">
  <defs>
    <filter id="Trazado_982547" x="0" y="0" width="113" height="113" filterUnits="userSpaceOnUse">
      <feOffset dy="3" input="SourceAlpha"/>
      <feGaussianBlur stdDeviation="3" result="blur"/>
      <feFlood flood-opacity="0.161"/>
      <feComposite operator="in" in2="blur"/>
      <feComposite in="SourceGraphic"/>
    </filter>
  </defs>
  <g id="Grupo_1242771" data-name="Grupo 1242771" transform="translate(-4996.49 -3779.389)">
    <g id="Grupo_1242264" data-name="Grupo 1242264" transform="translate(4305.49 -185)">
      <g id="Grupo_1235696" data-name="Grupo 1235696" transform="translate(700 3970.389)">
        <g id="Grupo_1241233" data-name="Grupo 1241233">
          <g id="Grupo_1240427" data-name="Grupo 1240427" transform="translate(0 0)">
            <g id="Grupo_1239780" data-name="Grupo 1239780">
              <g id="Grupo_1236603" data-name="Grupo 1236603">
                <g id="Grupo_1236145" data-name="Grupo 1236145">
                  <g id="Grupo_1235107" data-name="Grupo 1235107">
                    <g id="Grupo_1223796" data-name="Grupo 1223796">
                      <g id="Grupo_1208038" data-name="Grupo 1208038">
                        <g id="Grupo_1202104" data-name="Grupo 1202104">
                          <g id="Grupo_1201923" data-name="Grupo 1201923">
                            <g id="Grupo_1176928" data-name="Grupo 1176928">
                              <g id="Grupo_1172322" data-name="Grupo 1172322">
                                <g id="Grupo_1164700" data-name="Grupo 1164700">
                                  <g id="Grupo_1160931" data-name="Grupo 1160931">
                                    <g id="Grupo_1160749" data-name="Grupo 1160749">
                                      <g id="Grupo_1158891" data-name="Grupo 1158891">
                                        <g id="Grupo_1157406" data-name="Grupo 1157406">
                                          <g id="Grupo_1155793" data-name="Grupo 1155793">
                                            <g id="Grupo_1154704" data-name="Grupo 1154704">
                                              <g id="Grupo_1150790" data-name="Grupo 1150790">
                                                <g id="Grupo_1154214" data-name="Grupo 1154214">
                                                  <g id="Grupo_1152583" data-name="Grupo 1152583">
                                                    <g id="Grupo_1146973" data-name="Grupo 1146973">
                                                      <g id="Grupo_1146954" data-name="Grupo 1146954">
                                                        <g transform="matrix(1, 0, 0, 1, -9, -6)" filter="url(#Trazado_982547)">
                                                          <g id="Trazado_982547-2" data-name="Trazado 982547" transform="translate(9 6)" fill="#ffe1b9">
                                                            <path d="M 47.50000762939453 93.49986267089844 C 41.28937911987305 93.49986267089844 35.26534271240234 92.28383636474609 29.59519386291504 89.88558197021484 C 24.11772727966309 87.56880950927734 19.19814109802246 84.25183868408203 14.97310066223145 80.02679443359375 C 10.74804782867432 75.8017578125 7.431074142456055 70.88218688964844 5.114300727844238 65.40471649169922 C 2.716034412384033 59.73458480834961 1.500007629394531 53.71054458618164 1.500007629394531 47.49993133544922 C 1.500007629394531 41.2893180847168 2.716034412384033 35.26527786254883 5.114300727844238 29.59514427185059 C 7.431074142456055 24.11767768859863 10.74804782867432 19.19810485839844 14.97310066223145 14.97306442260742 C 19.19814109802246 10.74802494049072 24.11772727966309 7.431051254272461 29.59519386291504 5.114277839660645 C 35.26534271240234 2.71602463722229 41.28937911987305 1.499997973442078 47.50000762939453 1.499997973442078 C 53.71063613891602 1.499997973442078 59.73467254638672 2.71602463722229 65.40482330322266 5.114277839660645 C 70.88228607177734 7.431051254272461 75.80187225341797 10.74802494049072 80.02691650390625 14.97306442260742 C 84.25196838378906 19.19810485839844 87.56893920898438 24.11767768859863 89.88571166992188 29.59514427185059 C 92.28398132324219 35.26527786254883 93.50000762939453 41.2893180847168 93.50000762939453 47.49993133544922 C 93.50000762939453 53.71054458618164 92.28398132324219 59.73458480834961 89.88571166992188 65.40471649169922 C 87.56893920898438 70.88218688964844 84.25196838378906 75.8017578125 80.02691650390625 80.02679443359375 C 75.80187225341797 84.25183868408203 70.88228607177734 87.56880950927734 65.40482330322266 89.88558197021484 C 59.73467254638672 92.28383636474609 53.71063613891602 93.49986267089844 47.50000762939453 93.49986267089844 Z" stroke="none"/>
                                                            <path d="M 47.50000762939453 2.999992370605469 C 41.4912223815918 2.999992370605469 35.66377639770508 4.1761474609375 30.17951202392578 6.495796203613281 C 24.88085174560547 8.736930847167969 20.12152862548828 11.94596099853516 16.03376007080078 16.03372955322266 C 11.94597625732422 20.12148284912109 8.736961364746094 24.88080596923828 6.495803833007812 30.17946624755859 C 4.176162719726562 35.66371536254883 3.000007629394531 41.49116134643555 3.000007629394531 47.49993133544922 C 3.000007629394531 53.50870132446289 4.176162719726562 59.33614730834961 6.495803833007812 64.82038879394531 C 8.736961364746094 70.11905670166016 11.94597625732422 74.87836456298828 16.03376007080078 78.96613311767578 C 20.12152862548828 83.05390167236328 24.88085174560547 86.26291656494141 30.17951202392578 88.50406646728516 C 35.66377639770508 90.82369995117188 41.4912223815918 91.99985504150391 47.50000762939453 91.99985504150391 C 53.50879287719727 91.99985504150391 59.33623886108398 90.82369995117188 64.82049560546875 88.50406646728516 C 70.11916351318359 86.26291656494141 74.87848663330078 83.05390167236328 78.96625518798828 78.96613311767578 C 83.05403900146484 74.87836456298828 86.26305389404297 70.11905670166016 88.50421142578125 64.82038879394531 C 90.8238525390625 59.33614730834961 92.00000762939453 53.50870132446289 92.00000762939453 47.49993133544922 C 92.00000762939453 41.49116134643555 90.8238525390625 35.66371536254883 88.50421142578125 30.17946624755859 C 86.26305389404297 24.88080596923828 83.05403900146484 20.12148284912109 78.96625518798828 16.03372955322266 C 74.87848663330078 11.94596099853516 70.11916351318359 8.736930847167969 64.82049560546875 6.495796203613281 C 59.33623886108398 4.1761474609375 53.50879287719727 2.999992370605469 47.50000762939453 2.999992370605469 M 47.50000762939453 -7.62939453125e-06 C 73.73352813720703 -7.62939453125e-06 95.00000762939453 21.26644134521484 95.00000762939453 47.49993133544922 C 95.00000762939453 73.73342132568359 73.73352813720703 94.99985504150391 47.50000762939453 94.99985504150391 C 21.26648712158203 94.99985504150391 7.62939453125e-06 73.73342132568359 7.62939453125e-06 47.49993133544922 C 7.62939453125e-06 21.26644134521484 21.26648712158203 -7.62939453125e-06 47.50000762939453 -7.62939453125e-06 Z" stroke="none" fill="#ff9d1c"/>
                                                          </g>
                                                        </g>
                                                      </g>
                                                    </g>
                                                  </g>
                                                </g>
                                              </g>
                                            </g>
                                          </g>
                                        </g>
                                      </g>
                                    </g>
                                  </g>
                                </g>
                              </g>
                            </g>
                          </g>
                        </g>
                      </g>
                    </g>
                  </g>
                </g>
              </g>
            </g>
          </g>
        </g>
      </g>
    </g>
    <g id="Page-1" transform="translate(5022.49 3800.059)">
      <g id="_029---Digital-Signature" data-name="029---Digital-Signature" transform="translate(0 -1)">
        <path id="Path" d="M55.98,18.4A5.023,5.023,0,0,1,59,23V55a5,5,0,0,1-5,5H6a5,5,0,0,1-5-5V23a5,5,0,0,1,5-5H48.04Z" fill="#7f8d93" fill-rule="evenodd"/>
        <path id="Path-2" data-name="Path" d="M55.98,18.4,48.04,18l4.94.4A5.023,5.023,0,0,1,56,23V55a5,5,0,0,1-5,5h3a5,5,0,0,0,5-5V23A5.023,5.023,0,0,0,55.98,18.4Z" fill="#545c60" fill-rule="evenodd"/>
        <path id="Path-3" data-name="Path" d="M54,24.4V55a1,1,0,0,1-1,1H7a1,1,0,0,1-1-1V23a1,1,0,0,1,1-1H46.73L51,23.41Z" fill="#02a8f3" fill-rule="evenodd"/>
        <path id="Path-4" data-name="Path" d="M54,24.4V55a1,1,0,0,1-1,1H50a1,1,0,0,0,1-1V23.41Z" fill="#0377bb" fill-rule="evenodd"/>
        <path id="Path-5" data-name="Path" d="M49.021,39.107l-2.247,2.677a1.913,1.913,0,0,1-2.066.588l-1.175-.388a1.916,1.916,0,0,1-1.312-1.7L42,36.791a1.925,1.925,0,0,1,.092-.719l9.477-28.8A1.915,1.915,0,0,1,53.992,6.05l3.638,1.2a1.92,1.92,0,0,1,1.22,2.423l-9.476,28.8a1.929,1.929,0,0,1-.353.634Z" fill="#9d9d9d" fill-rule="evenodd"/>
        <path id="Path-6" data-name="Path" d="M57.63,7.25l-3.639-1.2a1.9,1.9,0,0,0-1.851.379l2.49.821a1.92,1.92,0,0,1,1.22,2.423l-9.476,28.8a1.929,1.929,0,0,1-.353.634l-2.247,2.677a1.784,1.784,0,0,1-.231.2l1.165.384a1.913,1.913,0,0,0,2.066-.588L49.021,39.1a1.929,1.929,0,0,0,.353-.634l9.476-28.8A1.92,1.92,0,0,0,57.63,7.25Z" fill="#707070" fill-rule="evenodd"/>
        <path id="Path-7" data-name="Path" d="M58.53,4.521l-.9,2.734L53.99,6.046l.9-2.734a1.918,1.918,0,1,1,3.64,1.209Z" fill="#7f8d93" fill-rule="evenodd"/>
        <g id="Grupo_1242783" data-name="Grupo 1242783">
          <path id="Path-8" data-name="Path" d="M52.684,16.332a1,1,0,0,0,1.264-.633l1.333-4a1,1,0,0,0-1.9-.632l-1.333,4a1,1,0,0,0,.636,1.265Z" fill-rule="evenodd"/>
          <path id="Shape" d="M57.192,17.915,59.8,9.985a2.916,2.916,0,0,0-.966-3.192l.645-1.959A2.918,2.918,0,1,0,53.94,3l-.646,1.962a2.889,2.889,0,0,0-2.672,2L47.319,17H6a6.006,6.006,0,0,0-6,6V55a6.006,6.006,0,0,0,6,6H54a6.006,6.006,0,0,0,6-6V23a6.012,6.012,0,0,0-2.808-5.085ZM41.223,40.343a2.9,2.9,0,0,0,1.644,2.445l-.625,1.9a1,1,0,1,0,1.9.625l.624-1.9a2.844,2.844,0,0,0,2.773-.985l2.246-2.677a2.917,2.917,0,0,0,.538-.964L53,30.654V55H7V23H45.345l-4.2,12.755a2.843,2.843,0,0,0-.142,1.1ZM55.839,3.631a.917.917,0,0,1,1.742.575L57,5.988l-1.059-.35-.684-.227ZM52.522,7.583A.915.915,0,0,1,53.678,7l1.525.5,2.111.7h.011A.919.919,0,0,1,57.9,9.36L53.081,24.007v.013L48.424,38.161a.892.892,0,0,1-.169.3l-2.246,2.678a.909.909,0,0,1-.988.28l-.586-.193H44.43l-.583-.192a.912.912,0,0,1-.628-.816L43,36.727a.876.876,0,0,1,.045-.343l4.6-13.993v-.007ZM58,55a4,4,0,0,1-4,4H6a4,4,0,0,1-4-4V23a4,4,0,0,1,4-4H46.661L46,21H7a2,2,0,0,0-2,2V55a2,2,0,0,0,2,2H53a2,2,0,0,0,2-2V24.575l1.536-4.669A4.007,4.007,0,0,1,58,23Z"/>
          <path id="Shape-2" data-name="Shape" d="M38,44H36a5.047,5.047,0,0,1-4.5-2.146,2.023,2.023,0,0,0-1.649-.906,2.089,2.089,0,0,0-1.638.829L24.94,46.325A11.281,11.281,0,0,0,18,43.053V37h2a4,4,0,1,0-4-4v1.956a4.5,4.5,0,0,1-2.315-.685,1,1,0,0,0-1.392,1.436c.192.192,1.2,1.066,3.707,1.256V43H14a4,4,0,1,0,4,4V45.064a9.29,9.29,0,0,1,5.483,2.628,2,2,0,0,0,1.619.646,1.96,1.96,0,0,0,1.472-.822l3.266-4.553A6.961,6.961,0,0,0,36,46h2a1,1,0,0,0,0-2ZM18,33a2,2,0,1,1,2,2H18ZM16,47a2,2,0,1,1-2-2h2Z"/>
        </g>
      </g>
    </g>
  </g>
</svg>
