<svg xmlns="http://www.w3.org/2000/svg" xmlns:xlink="http://www.w3.org/1999/xlink" width="113" height="113" viewBox="0 0 113 113">
  <defs>
    <filter id="Trazado_982547" x="0" y="0" width="113" height="113" filterUnits="userSpaceOnUse">
      <feOffset dy="3" input="SourceAlpha"/>
      <feGaussianBlur stdDeviation="3" result="blur"/>
      <feFlood flood-opacity="0.161"/>
      <feComposite operator="in" in2="blur"/>
      <feComposite in="SourceGraphic"/>
    </filter>
  </defs>
  <g id="Grupo_1242092" data-name="Grupo 1242092" transform="translate(-376 -3964.39)">
    <g id="Grupo_1235695" data-name="Grupo 1235695" transform="translate(385 3970.39)">
      <g id="Grupo_1241232" data-name="Grupo 1241232">
        <g id="Grupo_1240425" data-name="Grupo 1240425" transform="translate(0 0)">
          <g id="Grupo_1239772" data-name="Grupo 1239772">
            <g id="Grupo_1236602" data-name="Grupo 1236602">
              <g id="Grupo_1236144" data-name="Grupo 1236144">
                <g id="Grupo_1235105" data-name="Grupo 1235105">
                  <g id="Grupo_1223793" data-name="Grupo 1223793">
                    <g id="Grupo_1208028" data-name="Grupo 1208028">
                      <g id="Grupo_1177675" data-name="Grupo 1177675">
                        <g id="Grupo_1176928" data-name="Grupo 1176928">
                          <g id="Grupo_1172322" data-name="Grupo 1172322">
                            <g id="Grupo_1164700" data-name="Grupo 1164700">
                              <g id="Grupo_1160931" data-name="Grupo 1160931">
                                <g id="Grupo_1160749" data-name="Grupo 1160749">
                                  <g id="Grupo_1158891" data-name="Grupo 1158891">
                                    <g id="Grupo_1157406" data-name="Grupo 1157406">
                                      <g id="Grupo_1155793" data-name="Grupo 1155793">
                                        <g id="Grupo_1154704" data-name="Grupo 1154704">
                                          <g id="Grupo_1150790" data-name="Grupo 1150790">
                                            <g id="Grupo_1154214" data-name="Grupo 1154214">
                                              <g id="Grupo_1152583" data-name="Grupo 1152583">
                                                <g id="Grupo_1146973" data-name="Grupo 1146973">
                                                  <g id="Grupo_1146954" data-name="Grupo 1146954">
                                                    <g transform="matrix(1, 0, 0, 1, -9, -6)" filter="url(#Trazado_982547)">
                                                      <g id="Trazado_982547-2" data-name="Trazado 982547" transform="translate(9 6)" fill="#ffe1b9">
                                                        <path d="M 47.50000762939453 93.49986267089844 C 41.28937911987305 93.49986267089844 35.26534271240234 92.28383636474609 29.59519386291504 89.88558197021484 C 24.11772727966309 87.56880950927734 19.19814109802246 84.25183868408203 14.97310066223145 80.02679443359375 C 10.74804782867432 75.8017578125 7.431074142456055 70.88218688964844 5.114300727844238 65.40471649169922 C 2.716034412384033 59.73458480834961 1.500007629394531 53.71054458618164 1.500007629394531 47.49993133544922 C 1.500007629394531 41.2893180847168 2.716034412384033 35.26527786254883 5.114300727844238 29.59514427185059 C 7.431074142456055 24.11767768859863 10.74804782867432 19.19810485839844 14.97310066223145 14.97306442260742 C 19.19814109802246 10.74802494049072 24.11772727966309 7.431051254272461 29.59519386291504 5.114277839660645 C 35.26534271240234 2.71602463722229 41.28937911987305 1.499997973442078 47.50000762939453 1.499997973442078 C 53.71063613891602 1.499997973442078 59.73467254638672 2.71602463722229 65.40482330322266 5.114277839660645 C 70.88228607177734 7.431051254272461 75.80187225341797 10.74802494049072 80.02691650390625 14.97306442260742 C 84.25196838378906 19.19810485839844 87.56893920898438 24.11767768859863 89.88571166992188 29.59514427185059 C 92.28398132324219 35.26527786254883 93.50000762939453 41.2893180847168 93.50000762939453 47.49993133544922 C 93.50000762939453 53.71054458618164 92.28398132324219 59.73458480834961 89.88571166992188 65.40471649169922 C 87.56893920898438 70.88218688964844 84.25196838378906 75.8017578125 80.02691650390625 80.02679443359375 C 75.80187225341797 84.25183868408203 70.88228607177734 87.56880950927734 65.40482330322266 89.88558197021484 C 59.73467254638672 92.28383636474609 53.71063613891602 93.49986267089844 47.50000762939453 93.49986267089844 Z" stroke="none"/>
                                                        <path d="M 47.50000762939453 2.999992370605469 C 41.4912223815918 2.999992370605469 35.66377639770508 4.1761474609375 30.17951202392578 6.495796203613281 C 24.88085174560547 8.736930847167969 20.12152862548828 11.94596099853516 16.03376007080078 16.03372955322266 C 11.94597625732422 20.12148284912109 8.736961364746094 24.88080596923828 6.495803833007812 30.17946624755859 C 4.176162719726562 35.66371536254883 3.000007629394531 41.49116134643555 3.000007629394531 47.49993133544922 C 3.000007629394531 53.50870132446289 4.176162719726562 59.33614730834961 6.495803833007812 64.82038879394531 C 8.736961364746094 70.11905670166016 11.94597625732422 74.87836456298828 16.03376007080078 78.96613311767578 C 20.12152862548828 83.05390167236328 24.88085174560547 86.26291656494141 30.17951202392578 88.50406646728516 C 35.66377639770508 90.82369995117188 41.4912223815918 91.99985504150391 47.50000762939453 91.99985504150391 C 53.50879287719727 91.99985504150391 59.33623886108398 90.82369995117188 64.82049560546875 88.50406646728516 C 70.11916351318359 86.26291656494141 74.87848663330078 83.05390167236328 78.96625518798828 78.96613311767578 C 83.05403900146484 74.87836456298828 86.26305389404297 70.11905670166016 88.50421142578125 64.82038879394531 C 90.8238525390625 59.33614730834961 92.00000762939453 53.50870132446289 92.00000762939453 47.49993133544922 C 92.00000762939453 41.49116134643555 90.8238525390625 35.66371536254883 88.50421142578125 30.17946624755859 C 86.26305389404297 24.88080596923828 83.05403900146484 20.12148284912109 78.96625518798828 16.03372955322266 C 74.87848663330078 11.94596099853516 70.11916351318359 8.736930847167969 64.82049560546875 6.495796203613281 C 59.33623886108398 4.1761474609375 53.50879287719727 2.999992370605469 47.50000762939453 2.999992370605469 M 47.50000762939453 -7.62939453125e-06 C 73.73352813720703 -7.62939453125e-06 95.00000762939453 21.26644134521484 95.00000762939453 47.49993133544922 C 95.00000762939453 73.73342132568359 73.73352813720703 94.99985504150391 47.50000762939453 94.99985504150391 C 21.26648712158203 94.99985504150391 7.62939453125e-06 73.73342132568359 7.62939453125e-06 47.49993133544922 C 7.62939453125e-06 21.26644134521484 21.26648712158203 -7.62939453125e-06 47.50000762939453 -7.62939453125e-06 Z" stroke="none" fill="#ff9d1c"/>
                                                      </g>
                                                    </g>
                                                  </g>
                                                </g>
                                              </g>
                                            </g>
                                          </g>
                                        </g>
                                      </g>
                                    </g>
                                  </g>
                                </g>
                              </g>
                            </g>
                          </g>
                        </g>
                      </g>
                    </g>
                  </g>
                </g>
              </g>
            </g>
          </g>
        </g>
      </g>
    </g>
    <g id="sistema-operativo" transform="translate(399.957 3989.532)">
      <g id="Grupo_1242090" data-name="Grupo 1242090" transform="translate(1.946 0.903)">
        <g id="Grupo_1242086" data-name="Grupo 1242086">
          <path id="Trazado_1298308" data-name="Trazado 1298308" d="M163.448,335.084l-9.075-3.519-7.654,3.519A1.885,1.885,0,0,0,145,336.194l-1.593,3.531a1.884,1.884,0,0,0,1.718,2.659h19.915a1.884,1.884,0,0,0,1.718-2.659l-1.593-3.531A1.885,1.885,0,0,0,163.448,335.084Z" transform="translate(-127.017 -292.536)" fill="#017297"/>
          <path id="Trazado_1298309" data-name="Trazado 1298309" d="M148.124,365.424a1.884,1.884,0,0,0,1.718,2.659h-4.721a1.884,1.884,0,0,1-1.718-2.659L145,361.892a1.887,1.887,0,0,1,1.718-1.109h4.721a1.887,1.887,0,0,0-1.718,1.109Z" transform="translate(-127.012 -318.235)" fill="#025f80"/>
          <path id="Trazado_1298310" data-name="Trazado 1298310" d="M58.222,7.5H14.989a6.45,6.45,0,0,0-6.45,6.45V43.6a6.45,6.45,0,0,0,6.45,6.45H58.222a6.45,6.45,0,0,0,6.45-6.45V13.95a6.45,6.45,0,0,0-6.45-6.45Z" transform="translate(-8.539 -7.5)" fill="#017297"/>
          <path id="Trazado_1298311" data-name="Trazado 1298311" d="M43.614,74.755a2.533,2.533,0,0,1-2.53-2.53V42.576a2.533,2.533,0,0,1,2.53-2.53H86.848a2.533,2.533,0,0,1,2.53,2.53V72.225a2.533,2.533,0,0,1-2.53,2.53H43.614Z" transform="translate(-37.164 -36.126)" fill="#f9f7f8"/>
          <path id="Trazado_1298312" data-name="Trazado 1298312" d="M47.655,74.751h-4.04a2.534,2.534,0,0,1-2.531-2.53V42.573a2.534,2.534,0,0,1,2.531-2.531h4.04a2.533,2.533,0,0,0-2.53,2.531V72.221A2.532,2.532,0,0,0,47.655,74.751Z" transform="translate(-37.164 -36.123)" fill="#f3dced"/>
          <g id="Grupo_1242083" data-name="Grupo 1242083" transform="translate(8.871 8.324)">
            <path id="Trazado_1298313" data-name="Trazado 1298313" d="M94.475,80.049v5.93A1.117,1.117,0,0,1,93.358,87.1H83.313A1.117,1.117,0,0,1,82.2,85.98V77.735a1.117,1.117,0,0,1,1.117-1.117h3.113a1.117,1.117,0,0,1,1.012.643l.481,1.027a1.117,1.117,0,0,0,1.012.643h4.427A1.117,1.117,0,0,1,94.475,80.049Z" transform="translate(-82.196 -76.618)" fill="#fef056"/>
          </g>
          <g id="Grupo_1242084" data-name="Grupo 1242084" transform="translate(25.53 8.324)">
            <path id="Trazado_1298314" data-name="Trazado 1298314" d="M232.8,80.049v5.93a1.117,1.117,0,0,1-1.117,1.117H221.637a1.117,1.117,0,0,1-1.117-1.117V77.735a1.117,1.117,0,0,1,1.117-1.117h3.113a1.117,1.117,0,0,1,1.012.643l.481,1.027a1.117,1.117,0,0,0,1.012.643h4.427A1.118,1.118,0,0,1,232.8,80.049Z" transform="translate(-220.52 -76.618)" fill="#fef056"/>
          </g>
          <g id="Grupo_1242085" data-name="Grupo 1242085" transform="translate(8.871 22.522)">
            <path id="Trazado_1298315" data-name="Trazado 1298315" d="M94.475,197.931v5.93a1.117,1.117,0,0,1-1.117,1.117H83.313a1.117,1.117,0,0,1-1.117-1.117v-8.244a1.117,1.117,0,0,1,1.117-1.117h3.113a1.117,1.117,0,0,1,1.012.643l.481,1.027a1.117,1.117,0,0,0,1.012.643h4.427A1.117,1.117,0,0,1,94.475,197.931Z" transform="translate(-82.196 -194.5)" fill="#fef056"/>
          </g>
        </g>
        <g id="Grupo_1242089" data-name="Grupo 1242089" transform="translate(31.719 30.67)">
          <g id="Grupo_1242087" data-name="Grupo 1242087" transform="translate(0)">
            <path id="Trazado_1298316" data-name="Trazado 1298316" d="M298.686,279.264l-1.423-.821a11.644,11.644,0,0,0,0-3.389l1.423-.823a2.223,2.223,0,0,0,.814-3.037l-2.014-3.488a2.223,2.223,0,0,0-3.037-.814l-1.426.823a11.537,11.537,0,0,0-2.932-1.7v-1.644a2.223,2.223,0,0,0-2.223-2.223H283.84a2.224,2.224,0,0,0-2.223,2.223v1.644a11.563,11.563,0,0,0-2.932,1.7l-1.425-.823a2.222,2.222,0,0,0-3.037.814l-2.016,3.488a2.224,2.224,0,0,0,.814,3.037l1.425.823a11.488,11.488,0,0,0,0,3.389l-1.425.821a2.224,2.224,0,0,0-.814,3.037l2.016,3.488a2.222,2.222,0,0,0,3.037.814l1.425-.823a11.57,11.57,0,0,0,2.932,1.7v1.644a2.223,2.223,0,0,0,2.223,2.223h4.029a2.222,2.222,0,0,0,2.223-2.223v-1.644a11.535,11.535,0,0,0,2.932-1.7l1.426.823a2.223,2.223,0,0,0,3.037-.814L299.5,282.3A2.222,2.222,0,0,0,298.686,279.264Zm-12.831,3.346a5.862,5.862,0,1,1,5.861-5.863A5.862,5.862,0,0,1,285.855,282.61Z" transform="translate(-271.911 -262.154)" fill="#99e6fc"/>
          </g>
          <g id="Grupo_1242088" data-name="Grupo 1242088" transform="translate(0 4.44)">
            <path id="Trazado_1298317" data-name="Trazado 1298317" d="M275.492,314.726a2.224,2.224,0,0,1,.814-3.036l1.425-.821a11.523,11.523,0,0,1,0-3.389l-1.425-.823a2.224,2.224,0,0,1-.814-3.036l2.015-3.488a2.2,2.2,0,0,1,.357-.464l-.606-.35a2.222,2.222,0,0,0-3.038.814l-2.015,3.488a2.224,2.224,0,0,0,.814,3.036l1.425.823a11.523,11.523,0,0,0,0,3.389l-1.425.821a2.224,2.224,0,0,0-.814,3.036l2.015,3.488a2.222,2.222,0,0,0,3.038.814l.606-.35a2.2,2.2,0,0,1-.357-.464Z" transform="translate(-271.908 -299.02)" fill="#62dbfb"/>
          </g>
        </g>
      </g>
      <g id="Grupo_1242091" data-name="Grupo 1242091" transform="translate(1.043 0)">
        <path id="Trazado_1298318" data-name="Trazado 1298318" d="M86.759,71.434H82.333a.214.214,0,0,1-.194-.123l-.482-1.028a2.029,2.029,0,0,0-1.829-1.163H76.715a2.023,2.023,0,0,0-2.021,2.021v8.244a2.023,2.023,0,0,0,2.021,2.021h.907a.9.9,0,1,0,0-1.807h-.907a.215.215,0,0,1-.214-.214V71.141a.215.215,0,0,1,.214-.214h3.113a.215.215,0,0,1,.194.123l.481,1.026a2.026,2.026,0,0,0,1.83,1.165h4.426a.215.215,0,0,1,.214.214v5.93a.215.215,0,0,1-.214.214H81.832a.9.9,0,0,0,0,1.807h4.927a2.023,2.023,0,0,0,2.021-2.021v-5.93A2.023,2.023,0,0,0,86.759,71.434Z" transform="translate(-65.824 -60.795)"/>
        <path id="Trazado_1298319" data-name="Trazado 1298319" d="M225.085,81.4a2.023,2.023,0,0,0,2.02-2.021v-5.93a2.023,2.023,0,0,0-2.02-2.021h-4.427a.215.215,0,0,1-.194-.123l-.481-1.027a2.028,2.028,0,0,0-1.83-1.163h-3.113a2.023,2.023,0,0,0-2.021,2.021v8.244a2.023,2.023,0,0,0,2.021,2.021Zm-10.259-2.021V71.139a.214.214,0,0,1,.214-.214h3.113a.215.215,0,0,1,.194.123l.481,1.027a2.028,2.028,0,0,0,1.83,1.163h4.427a.214.214,0,0,1,.214.214v5.93a.214.214,0,0,1-.214.214H215.041A.214.214,0,0,1,214.826,79.383Z" transform="translate(-187.49 -60.794)"/>
        <path id="Trazado_1298320" data-name="Trazado 1298320" d="M86.761,189.313H82.334a.215.215,0,0,1-.194-.123l-.481-1.028A2.029,2.029,0,0,0,79.83,187H76.717A2.023,2.023,0,0,0,74.7,189.02v8.244a2.023,2.023,0,0,0,2.021,2.021H86.761a2.023,2.023,0,0,0,2.021-2.021v-5.93A2.023,2.023,0,0,0,86.761,189.313Zm.214,7.951a.214.214,0,0,1-.214.214H76.717a.214.214,0,0,1-.214-.214V189.02a.214.214,0,0,1,.214-.214H79.83a.215.215,0,0,1,.194.123l.481,1.028a2.028,2.028,0,0,0,1.83,1.163h4.427a.214.214,0,0,1,.214.214Z" transform="translate(-65.825 -164.478)"/>
        <path id="Trazado_1298321" data-name="Trazado 1298321" d="M338.278,327.16a6.765,6.765,0,1,0,1.757,13.3.9.9,0,0,0-.467-1.745,4.964,4.964,0,0,1-6.25-4.789,4.931,4.931,0,0,1,.344-1.811H342.3c.2,0,.39-.009.585-.024a4.955,4.955,0,0,1-.454,4.549.9.9,0,0,0,1.511.99,6.766,6.766,0,0,0-5.661-10.468Zm3.385,3.147h-6.771a4.945,4.945,0,0,1,6.771,0Z" transform="translate(-291.711 -287.758)"/>
        <path id="Trazado_1298322" data-name="Trazado 1298322" d="M60.892,47.9l-.906-.523c.039-.4.059-.808.059-1.211s-.02-.808-.059-1.21l.906-.524a3.13,3.13,0,0,0,1.145-4.27l-2.014-3.488a3.106,3.106,0,0,0-1.041-1.081V14.327a.9.9,0,0,0-1.807,0V35.115a3.105,3.105,0,0,0-1.423.414l-.691.4V7.354A3.438,3.438,0,0,0,51.629,3.92H8.4A3.438,3.438,0,0,0,4.962,7.354V37A3.438,3.438,0,0,0,8.4,40.435H33.041a3.122,3.122,0,0,0-.165,2.114H8.4A5.553,5.553,0,0,1,2.85,37V7.354A5.553,5.553,0,0,1,8.4,1.807H51.629a5.554,5.554,0,0,1,5.547,5.547v2.765a.9.9,0,1,0,1.807,0V7.354A7.362,7.362,0,0,0,51.629,0H8.4A7.362,7.362,0,0,0,1.043,7.354V37A7.362,7.362,0,0,0,8.4,44.356H19.032L17.514,47.72a2.788,2.788,0,0,0,2.541,3.935H32.944a3.144,3.144,0,0,0,.237.516L35.2,55.658A3.126,3.126,0,0,0,39.467,56.8l.907-.524a12.46,12.46,0,0,0,2.095,1.211v1.047a3.129,3.129,0,0,0,3.126,3.126h4.029a3.129,3.129,0,0,0,3.126-3.126V57.491a12.412,12.412,0,0,0,2.1-1.211l.908.524a3.13,3.13,0,0,0,4.27-1.145l2.014-3.488a3.13,3.13,0,0,0-1.145-4.27ZM6.769,37V7.354A1.629,1.629,0,0,1,8.4,5.727H51.629a1.629,1.629,0,0,1,1.627,1.627V35.087c-.167-.085-.336-.168-.506-.245V33.8a3.129,3.129,0,0,0-3.126-3.126H45.594A3.129,3.129,0,0,0,42.468,33.8v1.047a12.468,12.468,0,0,0-2.095,1.211l-.907-.524a3.126,3.126,0,0,0-4.27,1.144l-1.13,1.955H8.4A1.629,1.629,0,0,1,6.769,37Zm26.09,12.847h-12.8a.982.982,0,0,1-.894-1.386l1.592-3.53a.983.983,0,0,1,.9-.577H34.2c.041.026.083.052.125.077l.906.524c-.039.4-.059.805-.059,1.211s.02.811.059,1.212l-.906.522A3.114,3.114,0,0,0,32.859,49.849Zm27.614,1.419-2.014,3.488a1.321,1.321,0,0,1-1.8.483l-1.426-.823a.9.9,0,0,0-1.014.075,10.621,10.621,0,0,1-2.7,1.563.9.9,0,0,0-.571.84v1.644a1.321,1.321,0,0,1-1.319,1.319H45.594a1.321,1.321,0,0,1-1.319-1.319V56.894a.9.9,0,0,0-.571-.84A10.662,10.662,0,0,1,41,54.491a.9.9,0,0,0-1.013-.075l-1.424.823a1.319,1.319,0,0,1-1.8-.484l-2.015-3.487a1.323,1.323,0,0,1,.482-1.8l1.424-.821a.9.9,0,0,0,.442-.917,10.589,10.589,0,0,1,0-3.12.9.9,0,0,0-.441-.917l-1.425-.823a1.323,1.323,0,0,1-.484-1.8l2.016-3.489a1.319,1.319,0,0,1,1.8-.483l1.424.823A.9.9,0,0,0,41,37.842a10.663,10.663,0,0,1,2.7-1.563.9.9,0,0,0,.571-.84V33.8a1.321,1.321,0,0,1,1.319-1.319h4.029A1.321,1.321,0,0,1,50.943,33.8v1.644a.9.9,0,0,0,.571.84,10.619,10.619,0,0,1,2.7,1.562.9.9,0,0,0,1.014.075l1.427-.823a1.321,1.321,0,0,1,1.8.483l2.014,3.488a1.321,1.321,0,0,1-.484,1.8l-1.423.823a.9.9,0,0,0-.441.914,10.74,10.74,0,0,1,0,3.125.9.9,0,0,0,.442.914l1.423.821a1.321,1.321,0,0,1,.483,1.8Z" transform="translate(-1.043 0)"/>
      </g>
    </g>
  </g>
</svg>
