<svg xmlns="http://www.w3.org/2000/svg" xmlns:xlink="http://www.w3.org/1999/xlink" width="113" height="113" viewBox="0 0 113 113">
  <defs>
    <filter id="Trazado_982547" x="0" y="0" width="113" height="113" filterUnits="userSpaceOnUse">
      <feOffset dy="3" input="SourceAlpha"/>
      <feGaussianBlur stdDeviation="3" result="blur"/>
      <feFlood flood-opacity="0.161"/>
      <feComposite operator="in" in2="blur"/>
      <feComposite in="SourceGraphic"/>
    </filter>
  </defs>
  <g id="Grupo_1242772" data-name="Grupo 1242772" transform="translate(-4681.49 -4142.39)">
    <g id="Grupo_1242265" data-name="Grupo 1242265" transform="translate(4305.49 178)">
      <g id="Grupo_1235695" data-name="Grupo 1235695" transform="translate(385 3970.39)">
        <g id="Grupo_1241232" data-name="Grupo 1241232">
          <g id="Grupo_1240425" data-name="Grupo 1240425" transform="translate(0 0)">
            <g id="Grupo_1239772" data-name="Grupo 1239772">
              <g id="Grupo_1236602" data-name="Grupo 1236602">
                <g id="Grupo_1236144" data-name="Grupo 1236144">
                  <g id="Grupo_1235105" data-name="Grupo 1235105">
                    <g id="Grupo_1223793" data-name="Grupo 1223793">
                      <g id="Grupo_1208028" data-name="Grupo 1208028">
                        <g id="Grupo_1177675" data-name="Grupo 1177675">
                          <g id="Grupo_1176928" data-name="Grupo 1176928">
                            <g id="Grupo_1172322" data-name="Grupo 1172322">
                              <g id="Grupo_1164700" data-name="Grupo 1164700">
                                <g id="Grupo_1160931" data-name="Grupo 1160931">
                                  <g id="Grupo_1160749" data-name="Grupo 1160749">
                                    <g id="Grupo_1158891" data-name="Grupo 1158891">
                                      <g id="Grupo_1157406" data-name="Grupo 1157406">
                                        <g id="Grupo_1155793" data-name="Grupo 1155793">
                                          <g id="Grupo_1154704" data-name="Grupo 1154704">
                                            <g id="Grupo_1150790" data-name="Grupo 1150790">
                                              <g id="Grupo_1154214" data-name="Grupo 1154214">
                                                <g id="Grupo_1152583" data-name="Grupo 1152583">
                                                  <g id="Grupo_1146973" data-name="Grupo 1146973">
                                                    <g id="Grupo_1146954" data-name="Grupo 1146954">
                                                      <g transform="matrix(1, 0, 0, 1, -9, -6)" filter="url(#Trazado_982547)">
                                                        <g id="Trazado_982547-2" data-name="Trazado 982547" transform="translate(9 6)" fill="#ffe1b9">
                                                          <path d="M 47.50000762939453 93.49986267089844 C 41.28937911987305 93.49986267089844 35.26534271240234 92.28383636474609 29.59519386291504 89.88558197021484 C 24.11772727966309 87.56880950927734 19.19814109802246 84.25183868408203 14.97310066223145 80.02679443359375 C 10.74804782867432 75.8017578125 7.431074142456055 70.88218688964844 5.114300727844238 65.40471649169922 C 2.716034412384033 59.73458480834961 1.500007629394531 53.71054458618164 1.500007629394531 47.49993133544922 C 1.500007629394531 41.2893180847168 2.716034412384033 35.26527786254883 5.114300727844238 29.59514427185059 C 7.431074142456055 24.11767768859863 10.74804782867432 19.19810485839844 14.97310066223145 14.97306442260742 C 19.19814109802246 10.74802494049072 24.11772727966309 7.431051254272461 29.59519386291504 5.114277839660645 C 35.26534271240234 2.71602463722229 41.28937911987305 1.499997973442078 47.50000762939453 1.499997973442078 C 53.71063613891602 1.499997973442078 59.73467254638672 2.71602463722229 65.40482330322266 5.114277839660645 C 70.88228607177734 7.431051254272461 75.80187225341797 10.74802494049072 80.02691650390625 14.97306442260742 C 84.25196838378906 19.19810485839844 87.56893920898438 24.11767768859863 89.88571166992188 29.59514427185059 C 92.28398132324219 35.26527786254883 93.50000762939453 41.2893180847168 93.50000762939453 47.49993133544922 C 93.50000762939453 53.71054458618164 92.28398132324219 59.73458480834961 89.88571166992188 65.40471649169922 C 87.56893920898438 70.88218688964844 84.25196838378906 75.8017578125 80.02691650390625 80.02679443359375 C 75.80187225341797 84.25183868408203 70.88228607177734 87.56880950927734 65.40482330322266 89.88558197021484 C 59.73467254638672 92.28383636474609 53.71063613891602 93.49986267089844 47.50000762939453 93.49986267089844 Z" stroke="none"/>
                                                          <path d="M 47.50000762939453 2.999992370605469 C 41.4912223815918 2.999992370605469 35.66377639770508 4.1761474609375 30.17951202392578 6.495796203613281 C 24.88085174560547 8.736930847167969 20.12152862548828 11.94596099853516 16.03376007080078 16.03372955322266 C 11.94597625732422 20.12148284912109 8.736961364746094 24.88080596923828 6.495803833007812 30.17946624755859 C 4.176162719726562 35.66371536254883 3.000007629394531 41.49116134643555 3.000007629394531 47.49993133544922 C 3.000007629394531 53.50870132446289 4.176162719726562 59.33614730834961 6.495803833007812 64.82038879394531 C 8.736961364746094 70.11905670166016 11.94597625732422 74.87836456298828 16.03376007080078 78.96613311767578 C 20.12152862548828 83.05390167236328 24.88085174560547 86.26291656494141 30.17951202392578 88.50406646728516 C 35.66377639770508 90.82369995117188 41.4912223815918 91.99985504150391 47.50000762939453 91.99985504150391 C 53.50879287719727 91.99985504150391 59.33623886108398 90.82369995117188 64.82049560546875 88.50406646728516 C 70.11916351318359 86.26291656494141 74.87848663330078 83.05390167236328 78.96625518798828 78.96613311767578 C 83.05403900146484 74.87836456298828 86.26305389404297 70.11905670166016 88.50421142578125 64.82038879394531 C 90.8238525390625 59.33614730834961 92.00000762939453 53.50870132446289 92.00000762939453 47.49993133544922 C 92.00000762939453 41.49116134643555 90.8238525390625 35.66371536254883 88.50421142578125 30.17946624755859 C 86.26305389404297 24.88080596923828 83.05403900146484 20.12148284912109 78.96625518798828 16.03372955322266 C 74.87848663330078 11.94596099853516 70.11916351318359 8.736930847167969 64.82049560546875 6.495796203613281 C 59.33623886108398 4.1761474609375 53.50879287719727 2.999992370605469 47.50000762939453 2.999992370605469 M 47.50000762939453 -7.62939453125e-06 C 73.73352813720703 -7.62939453125e-06 95.00000762939453 21.26644134521484 95.00000762939453 47.49993133544922 C 95.00000762939453 73.73342132568359 73.73352813720703 94.99985504150391 47.50000762939453 94.99985504150391 C 21.26648712158203 94.99985504150391 7.62939453125e-06 73.73342132568359 7.62939453125e-06 47.49993133544922 C 7.62939453125e-06 21.26644134521484 21.26648712158203 -7.62939453125e-06 47.50000762939453 -7.62939453125e-06 Z" stroke="none" fill="#ff9d1c"/>
                                                        </g>
                                                      </g>
                                                    </g>
                                                  </g>
                                                </g>
                                              </g>
                                            </g>
                                          </g>
                                        </g>
                                      </g>
                                    </g>
                                  </g>
                                </g>
                              </g>
                            </g>
                          </g>
                        </g>
                      </g>
                    </g>
                  </g>
                </g>
              </g>
            </g>
          </g>
        </g>
      </g>
    </g>
    <g id="liderazgo_1_" data-name="liderazgo (1)" transform="translate(4707.41 4159.865)">
      <g id="Grupo_1242785" data-name="Grupo 1242785" transform="translate(0.971 3.615)">
        <path id="Trazado_1299186" data-name="Trazado 1299186" d="M115.871,14.392A15.453,15.453,0,0,0,111.984,16a.934.934,0,0,1-.917.023l-2.261-1.15a.935.935,0,0,0-1.11.177L105.4,17.346a.937.937,0,0,0-.177,1.11l1.151,2.264a.928.928,0,0,1-.027.917,15.552,15.552,0,0,0-1.61,3.884.929.929,0,0,1-.63.667l-2.41.783a.942.942,0,0,0-.66.911v3.244a.942.942,0,0,0,.66.911l2.414.783a.946.946,0,0,1,.63.667,15.455,15.455,0,0,0,1.607,3.884.928.928,0,0,1,.027.917l-1.15,2.263a.935.935,0,0,0,.177,1.11l2.293,2.293a.935.935,0,0,0,1.11.176l2.261-1.15a.935.935,0,0,1,.92.027,15.455,15.455,0,0,0,3.884,1.607.94.94,0,0,1,.667.63l.783,2.414a.942.942,0,0,0,.911.66h3.244a.942.942,0,0,0,.911-.66l.783-2.414a.94.94,0,0,1,.667-.63A15.455,15.455,0,0,0,127.722,43a.928.928,0,0,1,.917-.027l2.263,1.15a.937.937,0,0,0,1.11-.176l2.293-2.293a.937.937,0,0,0,.177-1.11l-1.152-2.262a.937.937,0,0,1,.023-.917,15.327,15.327,0,0,0,1.61-3.884.946.946,0,0,1,.63-.667l2.414-.783a.942.942,0,0,0,.66-.911V27.881a.942.942,0,0,0-.66-.911l-2.414-.783a.94.94,0,0,1-.63-.667,15.354,15.354,0,0,0-1.61-3.884.934.934,0,0,1-.023-.917l1.15-2.263a.935.935,0,0,0-.177-1.11l-2.293-2.293a.937.937,0,0,0-1.11-.177l-2.263,1.15a.937.937,0,0,1-.917-.023,15.328,15.328,0,0,0-3.884-1.61.94.94,0,0,1-.667-.63l-.783-2.414a.944.944,0,0,0-.911-.66h-3.244a.942.942,0,0,0-.911.66l-.783,2.414a.941.941,0,0,1-.667.628Z" transform="translate(-89.744 -10.688)" fill="#bec7cf" fill-rule="evenodd"/>
        <path id="Trazado_1299187" data-name="Trazado 1299187" d="M115.871,14.374a15.548,15.548,0,0,0-3.494,1.386l.487.246a.944.944,0,0,0,.92-.023,15.328,15.328,0,0,1,3.884-1.61.94.94,0,0,0,.667-.63l.783-2.414a.944.944,0,0,1,.911-.66h-1.8a.942.942,0,0,0-.911.66l-.783,2.414A.94.94,0,0,1,115.871,14.374Zm-6.494.775-.571-.29a.935.935,0,0,0-1.11.177L105.4,17.329a.937.937,0,0,0-.177,1.11l1.151,2.263a.928.928,0,0,1-.027.917,15.552,15.552,0,0,0-1.61,3.884.929.929,0,0,1-.63.667l-2.41.783a.942.942,0,0,0-.66.911v3.244a.942.942,0,0,0,.66.911l2.414.783a.946.946,0,0,1,.63.667,15.455,15.455,0,0,0,1.607,3.884.928.928,0,0,1,.027.917l-1.15,2.263a.935.935,0,0,0,.177,1.11l2.293,2.293a.934.934,0,0,0,1.11.176l.571-.29-2.177-2.18a.937.937,0,0,1-.177-1.11l1.15-2.263a.937.937,0,0,0-.023-.917,15.328,15.328,0,0,1-1.61-3.884.946.946,0,0,0-.63-.667l-2.414-.783a.942.942,0,0,1-.66-.911V27.861a.942.942,0,0,1,.66-.911l2.414-.783a.94.94,0,0,0,.63-.667,15.354,15.354,0,0,1,1.61-3.884.934.934,0,0,0,.023-.917l-1.15-2.263a.935.935,0,0,1,.177-1.11Zm3,28.06a15.3,15.3,0,0,0,3.494,1.386.94.94,0,0,1,.667.63l.783,2.414a.942.942,0,0,0,.911.66h1.8a.942.942,0,0,1-.911-.66l-.783-2.414a.94.94,0,0,0-.667-.63,15.455,15.455,0,0,1-3.884-1.607.928.928,0,0,0-.917-.027Z" transform="translate(-89.744 -10.67)" fill="#abb3ba" fill-rule="evenodd"/>
        <path id="Trazado_1299188" data-name="Trazado 1299188" d="M210.955,113.384a7.223,7.223,0,1,1-7.224-7.224A7.223,7.223,0,0,1,210.955,113.384Z" transform="translate(-173.623 -94.567)" fill="#eaf6ff" fill-rule="evenodd"/>
        <path id="Trazado_1299189" data-name="Trazado 1299189" d="M204.368,120.578c-.21.017-.42.027-.636.027a7.223,7.223,0,0,1,0-14.445c.216,0,.426.01.636.027a7.224,7.224,0,0,0,0,14.392Z" transform="translate(-173.623 -94.567)" fill="#d3dde6" fill-rule="evenodd"/>
        <path id="Trazado_1299190" data-name="Trazado 1299190" d="M56.037,260.534A5.037,5.037,0,1,0,51,255.5,5.048,5.048,0,0,0,56.037,260.534Z" transform="translate(-45.779 -221.348)" fill="#fbbd80" fill-rule="evenodd"/>
        <path id="Trazado_1299191" data-name="Trazado 1299191" d="M56.037,250.45a5.139,5.139,0,0,1,.514.027,5.037,5.037,0,0,0,0,10.021,5.139,5.139,0,0,1-.514.027,5.037,5.037,0,1,1,0-10.074Z" transform="translate(-45.779 -221.339)" fill="#e2aa73" fill-rule="evenodd"/>
        <path id="Trazado_1299192" data-name="Trazado 1299192" d="M383.277,260.534a5.037,5.037,0,1,0-5.037-5.037A5.048,5.048,0,0,0,383.277,260.534Z" transform="translate(-333.29 -221.348)" fill="#fbbd80" fill-rule="evenodd"/>
        <path id="Trazado_1299193" data-name="Trazado 1299193" d="M383.277,250.45a5.139,5.139,0,0,1,.514.027,5.037,5.037,0,0,0,0,10.021,5.139,5.139,0,0,1-.514.027,5.037,5.037,0,1,1,0-10.074Z" transform="translate(-333.29 -221.339)" fill="#e2aa73" fill-rule="evenodd"/>
        <path id="Trazado_1299194" data-name="Trazado 1299194" d="M211.191,247.9A6.191,6.191,0,1,0,205,241.711,6.2,6.2,0,0,0,211.191,247.9Z" transform="translate(-181.083 -208.221)" fill="#fbbd80" fill-rule="evenodd"/>
        <path id="Trazado_1299195" data-name="Trazado 1299195" d="M211.191,235.52a5.787,5.787,0,0,1,.634.033,6.192,6.192,0,0,0,0,12.319c-.21.019-.42.03-.634.03a6.191,6.191,0,0,1,0-12.382Z" transform="translate(-181.083 -208.221)" fill="#e2aa73" fill-rule="evenodd"/>
        <path id="Trazado_1299196" data-name="Trazado 1299196" d="M9.094,364.045H27.423a1.1,1.1,0,0,0,1.094-1.094v-6.084a7.2,7.2,0,0,0-7.178-7.178H15.178A7.2,7.2,0,0,0,8,356.868v6.084a1.1,1.1,0,0,0,1.094,1.094Z" transform="translate(-8 -308.53)" fill="#ff4155" fill-rule="evenodd"/>
        <path id="Trazado_1299197" data-name="Trazado 1299197" d="M9.094,364.045h1.371a1.1,1.1,0,0,1-1.094-1.094v-6.084a7.2,7.2,0,0,1,7.178-7.178H15.178A7.2,7.2,0,0,0,8,356.868v6.084a1.1,1.1,0,0,0,1.094,1.094Z" transform="translate(-8 -308.53)" fill="#e63b4d" fill-rule="evenodd"/>
        <path id="Trazado_1299198" data-name="Trazado 1299198" d="M336.1,364.045h18.329a1.1,1.1,0,0,0,1.094-1.094v-6.084a7.2,7.2,0,0,0-7.178-7.178h-6.161a7.2,7.2,0,0,0-7.178,7.178v6.084A1.1,1.1,0,0,0,336.1,364.045Z" transform="translate(-295.308 -308.53)" fill="#ff4155" fill-rule="evenodd"/>
        <path id="Trazado_1299199" data-name="Trazado 1299199" d="M336.1,364.045h1.371a1.1,1.1,0,0,1-1.094-1.094v-6.084a7.2,7.2,0,0,1,7.178-7.178h-1.371a7.2,7.2,0,0,0-7.178,7.178v6.084A1.1,1.1,0,0,0,336.1,364.045Z" transform="translate(-295.308 -308.53)" fill="#e63b4d" fill-rule="evenodd"/>
        <path id="Trazado_1299200" data-name="Trazado 1299200" d="M154.344,374.688h22.339a1.337,1.337,0,0,0,1.333-1.333v-7.418a8.775,8.775,0,0,0-8.751-8.747h-7.508a8.774,8.774,0,0,0-8.747,8.747v7.418A1.338,1.338,0,0,0,154.344,374.688Z" transform="translate(-135.405 -315.12)" fill="#0593fc" fill-rule="evenodd"/>
        <path id="Trazado_1299201" data-name="Trazado 1299201" d="M154.344,374.688h1.667a1.337,1.337,0,0,1-1.331-1.333v-7.418a8.774,8.774,0,0,1,8.747-8.747h-1.671a8.774,8.774,0,0,0-8.747,8.747v7.418A1.338,1.338,0,0,0,154.344,374.688Z" transform="translate(-135.405 -315.12)" fill="#0584e3" fill-rule="evenodd"/>
        <path id="Trazado_1299202" data-name="Trazado 1299202" d="M241.344,369.084l2.026-3.594-.773-8.3h-2.5l-.773,8.3Z" transform="translate(-211.236 -315.12)" fill="#d1dcff" fill-rule="evenodd"/>
      </g>
      <path id="Trazado_1299203" data-name="Trazado 1299203" d="M11.225,43.784A6.032,6.032,0,0,0,17.109,36.4l1.136,1.135a1.911,1.911,0,0,0,2.241.358l2.253-1.147c.38.222.778.432,1.19.629a7.157,7.157,0,0,0,14.3,0c.409-.2.807-.405,1.189-.628l2.251,1.145a1.908,1.908,0,0,0,2.24-.353L45.048,36.4a6.05,6.05,0,1,0,1.668-2.968A1.866,1.866,0,0,0,46.557,33l-1.145-2.25a16.6,16.6,0,0,0,1.7-4.107l2.4-.783a1.926,1.926,0,0,0,1.331-1.832V20.79a1.926,1.926,0,0,0-1.332-1.833l-2.4-.783a16.627,16.627,0,0,0-1.7-4.107l1.144-2.245A1.922,1.922,0,0,0,46.2,9.578L43.914,7.29a1.912,1.912,0,0,0-2.24-.358L39.419,8.078a16.635,16.635,0,0,0-4.106-1.7l-.778-2.4A1.928,1.928,0,0,0,32.7,2.64H29.457a1.925,1.925,0,0,0-1.833,1.333l-.777,2.4a16.509,16.509,0,0,0-4.107,1.7L20.49,6.932a1.912,1.912,0,0,0-2.239.352l-2.3,2.3a1.936,1.936,0,0,0-.35,2.238l1.147,2.248a16.465,16.465,0,0,0-1.7,4.107l-2.4.782a1.922,1.922,0,0,0-1.333,1.833v3.242a1.923,1.923,0,0,0,1.332,1.833l2.4.783a16.6,16.6,0,0,0,1.7,4.107L15.6,33.005a1.988,1.988,0,0,0-.155.425,6.036,6.036,0,1,0-4.219,10.354ZM50.933,33.652a4.094,4.094,0,1,1-4.094,4.094A4.1,4.1,0,0,1,50.933,33.652ZM31.079,42.3a5.214,5.214,0,1,1,5.216-5.212A5.218,5.218,0,0,1,31.079,42.3ZM24.8,22.411a6.279,6.279,0,1,1,6.279,6.279A6.286,6.286,0,0,1,24.8,22.411ZM26.864,6.37l.372.9-.384-.891ZM22.743,8.085h.012l-.3.923ZM15.655,24.8l-2.4-.782V20.8l2.4-.781a1.9,1.9,0,0,0,1.271-1.343,14.5,14.5,0,0,1,1.507-3.639,1.9,1.9,0,0,0,.053-1.848l-1.147-2.247L19.613,8.67l2.241,1.141a1.9,1.9,0,0,0,1.858-.049A14.556,14.556,0,0,1,27.34,8.255a1.916,1.916,0,0,0,1.352-1.269l.778-2.4h3.22l.778,2.4a1.908,1.908,0,0,0,1.343,1.265,14.659,14.659,0,0,1,3.637,1.51,1.9,1.9,0,0,0,1.845.051l2.251-1.144,2.274,2.275L43.673,13.2a1.883,1.883,0,0,0,.055,1.843,14.658,14.658,0,0,1,1.508,3.643A1.9,1.9,0,0,0,46.5,20.023l2.4.782v3.216l-2.4.781a1.9,1.9,0,0,0-1.272,1.343,14.6,14.6,0,0,1-1.5,3.631,1.889,1.889,0,0,0-.058,1.854l1.145,2.248-2.275,2.275L40.3,35.015a1.906,1.906,0,0,0-1.858.047c-.142.083-.287.164-.435.243a7.191,7.191,0,0,0-4.643-5,8.224,8.224,0,1,0-4.581,0,7.186,7.186,0,0,0-4.64,4.995c-.148-.08-.294-.16-.436-.244a1.889,1.889,0,0,0-1.85-.051l-2.246,1.144-2.278-2.275,1.15-2.251a1.9,1.9,0,0,0-.055-1.843,14.658,14.658,0,0,1-1.508-3.643A1.9,1.9,0,0,0,15.655,24.8Zm-4.43,8.852a4.094,4.094,0,1,1-4.09,4.094A4.1,4.1,0,0,1,11.225,33.652ZM54.013,43.787H47.856a8.111,8.111,0,0,0-6.571,3.342,9.692,9.692,0,0,0-6.446-2.446H27.32a9.7,9.7,0,0,0-6.446,2.446,8.113,8.113,0,0,0-6.569-3.341H8.148A8.158,8.158,0,0,0,0,51.936v6.085a2.066,2.066,0,0,0,2.063,2.066H17.579v1.764a2.311,2.311,0,0,0,2.308,2.308H42.274a2.309,2.309,0,0,0,2.3-2.308V60.088H60.1a2.067,2.067,0,0,0,2.063-2.066V51.936a8.156,8.156,0,0,0-8.146-8.149Zm-23.3,2.84h.737l.664,7.133-1.034,1.833L30.044,53.76ZM17.58,54.42v3.722H16.441V52.428a.972.972,0,1,0-1.945,0v5.715H7.957V52.428a.972.972,0,1,0-1.945,0v5.715H2.064a.122.122,0,0,1-.119-.123V51.935a6.21,6.21,0,0,1,6.2-6.2H14.3a6.184,6.184,0,0,1,5.217,2.859A9.688,9.688,0,0,0,17.58,54.42Zm25.054,7.43a.366.366,0,0,1-.359.363h-5.04V55.023a.972.972,0,1,0-1.945,0v7.191H26.871V55.023a.972.972,0,1,0-1.945,0v7.191h-5.04a.368.368,0,0,1-.363-.363V54.42A7.753,7.753,0,0,1,21.367,49.4a.953.953,0,0,0,.126-.146,7.78,7.78,0,0,1,5.828-2.624h1.437l-.679,7.255a.975.975,0,0,0,.121.568l2.03,3.6a.973.973,0,0,0,1.694,0l2.03-3.6a.975.975,0,0,0,.121-.568L33.4,46.627h1.439a7.775,7.775,0,0,1,5.845,2.647.954.954,0,0,0,.1.113,7.755,7.755,0,0,1,1.85,5.034v7.43Zm17.582-3.83a.126.126,0,0,1-.119.123H56.147V52.428a.972.972,0,1,0-1.945,0v5.715H47.665V52.428a.972.972,0,1,0-1.945,0v5.715H44.577V54.42a9.688,9.688,0,0,0-1.94-5.826,6.184,6.184,0,0,1,5.218-2.862h6.157a6.21,6.21,0,0,1,6.2,6.2V58.02Z" transform="translate(0 0)"/>
    </g>
  </g>
</svg>
