<svg xmlns="http://www.w3.org/2000/svg" xmlns:xlink="http://www.w3.org/1999/xlink" width="505" height="281" viewBox="0 0 505 281">
  <defs>
    <clipPath id="clip-path">
      <rect id="Rect치ngulo_423533" data-name="Rect치ngulo 423533" width="505" height="281" transform="translate(915 4470)" fill="#fff" stroke="#707070" stroke-width="1"/>
    </clipPath>
  </defs>
  <g id="Grupo_1242755" data-name="Grupo 1242755" transform="translate(-915 -4470)">
    <rect id="Rect치ngulo_423535" data-name="Rect치ngulo 423535" width="505" height="150" transform="translate(915 4546)" fill="#e9f9fd"/>
    <g id="Enmascarar_grupo_1211543" data-name="Enmascarar grupo 1211543" clip-path="url(#clip-path)">
      <g id="OBJECTS" transform="translate(914.705 4422.713)">
        <g id="Grupo_1242659" data-name="Grupo 1242659" transform="translate(25.346 314.899)">
          <ellipse id="Elipse_11622" data-name="Elipse 11622" cx="228.868" cy="6.673" rx="228.868" ry="6.673" fill="#e0fbfc"/>
        </g>
        <g id="Grupo_1242691" data-name="Grupo 1242691" transform="translate(187.39 96.726)">
          <g id="Grupo_1242685" data-name="Grupo 1242685" transform="translate(16.66)">
            <g id="Grupo_1242660" data-name="Grupo 1242660" transform="translate(11.323 47.421)">
              <path id="Trazado_1298944" data-name="Trazado 1298944" d="M329.479,180.248c-4.939,4.017-8.533,9.273-8.965,16.068-.568,8.926,5.457,15.354,10.193,22.2,1.367,1.975,2.361,4.113,3.664,6.153a61.077,61.077,0,0,0,8.968-6.29c-4.1-5.763-8.9-12.338-7.564-19.845.673-3.775,3.427-7.381,7.2-8.047a66.153,66.153,0,0,1,.366-9.323,31.832,31.832,0,0,1,1-4.875c.25-.855.931-4.128,1.743-4.534A51.947,51.947,0,0,0,329.479,180.248Z" transform="translate(-320.476 -171.752)" fill="#4db576"/>
              <path id="Trazado_1298945" data-name="Trazado 1298945" d="M328.745,198.412a8.419,8.419,0,0,1-1.7,6.525" transform="translate(-322.793 -181.156)" fill="none" stroke="#1b1464" stroke-linecap="round" stroke-linejoin="round" stroke-miterlimit="10" stroke-width="1"/>
            </g>
            <g id="Grupo_1242661" data-name="Grupo 1242661" transform="translate(64.076 47.421)">
              <path id="Trazado_1298946" data-name="Trazado 1298946" d="M418.589,180.248c3.938,3.2,6.663,6.629,7.378,11.812.764,5.537-.25,10.11-2.338,15.143a78.021,78.021,0,0,1-5.753,10.875c-.351.572-3.81,5.634-3.342,6.055a42.062,42.062,0,0,0-8.442-5.893c1.755-3.206,3.337-6.5,4.79-9.851a17.181,17.181,0,0,0,1.411-9.858c-.673-3.775-3.427-7.381-7.2-8.047a66.153,66.153,0,0,0-.366-9.323,31.84,31.84,0,0,0-1-4.875c-.25-.855-.931-4.128-1.743-4.534A51.943,51.943,0,0,1,418.589,180.248Z" transform="translate(-401.977 -171.752)" fill="#4db576"/>
              <path id="Trazado_1298947" data-name="Trazado 1298947" d="M430.4,195.424a7.62,7.62,0,0,0,1.665,7.132" transform="translate(-411.903 -180.102)" fill="none" stroke="#1b1464" stroke-linecap="round" stroke-linejoin="round" stroke-miterlimit="10" stroke-width="1"/>
            </g>
            <g id="Grupo_1242666" data-name="Grupo 1242666" transform="translate(48.965 106.036)">
              <g id="Grupo_1242664" data-name="Grupo 1242664" transform="translate(23.104 104.293)">
                <g id="Grupo_1242662" data-name="Grupo 1242662">
                  <path id="Trazado_1298948" data-name="Trazado 1298948" d="M432.011,430.274c2.431.228,5.148.437,7.154,1.988a8.151,8.151,0,0,1,2.2,2.253A26.881,26.881,0,0,1,443,439.563q-4.644.528-9.325.6-2.337.035-4.673-.045a20.866,20.866,0,0,0-3.684-.221c-.43-1.047-1.864-4.838-3.573-3.968-.625.318-.672,1.2-.511,1.88a3.369,3.369,0,0,1,.163,2.058l-5.651.331a37.24,37.24,0,0,1-1.262-7.5c-.143-2.218-.482-4.793.709-6.791a5.228,5.228,0,0,1,8.662-.331c.726,1.059,1.112,2.224,2.174,3.032C427.669,429.859,430.026,430.087,432.011,430.274Z" transform="translate(-414.325 -423.436)" fill="#4db576"/>
                </g>
                <g id="Grupo_1242663" data-name="Grupo 1242663" transform="translate(10.189 5.13)">
                  <path id="Trazado_1298949" data-name="Trazado 1298949" d="M430.066,434.057a5.557,5.557,0,0,1,4.4-2.7" transform="translate(-430.066 -431.362)" fill="none" stroke="#1b1464" stroke-linecap="round" stroke-linejoin="round" stroke-miterlimit="10" stroke-width="1"/>
                  <path id="Trazado_1298950" data-name="Trazado 1298950" d="M434.794,436.049A6.772,6.772,0,0,1,439,432.174" transform="translate(-431.734 -431.648)" fill="none" stroke="#1b1464" stroke-linecap="round" stroke-linejoin="round" stroke-miterlimit="10" stroke-width="1"/>
                  <path id="Trazado_1298951" data-name="Trazado 1298951" d="M439.94,436.707a7.941,7.941,0,0,1,3.81-3.492" transform="translate(-433.549 -432.016)" fill="none" stroke="#1b1464" stroke-linecap="round" stroke-linejoin="round" stroke-miterlimit="10" stroke-width="1"/>
                </g>
              </g>
              <g id="Grupo_1242665" data-name="Grupo 1242665">
                <path id="Trazado_1298952" data-name="Trazado 1298952" d="M383.459,262.308c-5.974,6.861-5.6,17.212-3.183,25.983,2.212,8.038,5.645,15.657,6.785,23.972.831,6.06-1.48,11.386-1.392,17.371a60.855,60.855,0,0,0,3.814,19.484c3.08,8.619,7.564,16.657,12.027,24.649a33.567,33.567,0,0,1,12.219-3.274c-2.463-8.192-4.625-15.516-5.959-24.1q-2.329-15-3.836-30.108-1.393-13.979-2.078-28.017c-.4-8.268.544-17.243-.651-25.335" transform="translate(-378.631 -262.308)" fill="#1c1a49"/>
                <path id="Trazado_1298953" data-name="Trazado 1298953" d="M407.912,330.414a9.078,9.078,0,0,0-.2,9.153" transform="translate(-388.487 -286.331)" fill="none" stroke="#fff" stroke-linecap="round" stroke-linejoin="round" stroke-miterlimit="10" stroke-width="1"/>
              </g>
            </g>
            <g id="Grupo_1242670" data-name="Grupo 1242670" transform="translate(0 106.036)">
              <g id="Grupo_1242668" data-name="Grupo 1242668" transform="translate(0 104.293)">
                <path id="Trazado_1298954" data-name="Trazado 1298954" d="M313.967,430.274c-2.431.228-5.148.437-7.154,1.988a8.151,8.151,0,0,0-2.2,2.253,26.881,26.881,0,0,0-1.627,5.049q4.644.528,9.325.6,2.337.035,4.673-.045a20.867,20.867,0,0,1,3.684-.221c.43-1.047,1.864-4.838,3.573-3.968.625.318.672,1.2.511,1.88a3.369,3.369,0,0,0-.163,2.058l5.651.331a37.24,37.24,0,0,0,1.262-7.5c.143-2.218.482-4.793-.709-6.791a5.228,5.228,0,0,0-8.662-.331c-.726,1.059-1.112,2.224-2.174,3.032C318.309,429.859,315.952,430.087,313.967,430.274Z" transform="translate(-302.982 -423.436)" fill="#4db576"/>
                <g id="Grupo_1242667" data-name="Grupo 1242667" transform="translate(10.079 4.056)">
                  <path id="Trazado_1298955" data-name="Trazado 1298955" d="M318.553,432.035a11.74,11.74,0,0,1,4.958,5.2" transform="translate(-318.553 -430.526)" fill="none" stroke="#1b1464" stroke-linecap="round" stroke-linejoin="round" stroke-miterlimit="10" stroke-width="1"/>
                  <path id="Trazado_1298956" data-name="Trazado 1298956" d="M322.918,430.946a10.8,10.8,0,0,1,4.866,4.818" transform="translate(-320.093 -430.141)" fill="none" stroke="#1b1464" stroke-linecap="round" stroke-linejoin="round" stroke-miterlimit="10" stroke-width="1"/>
                  <path id="Trazado_1298957" data-name="Trazado 1298957" d="M326.507,429.7a10.758,10.758,0,0,1,4.126,4.855" transform="translate(-321.359 -429.703)" fill="none" stroke="#1b1464" stroke-linecap="round" stroke-linejoin="round" stroke-miterlimit="10" stroke-width="1"/>
                </g>
              </g>
              <g id="Grupo_1242669" data-name="Grupo 1242669" transform="translate(16.71)">
                <path id="Trazado_1298958" data-name="Trazado 1298958" d="M359.068,262.308c5.974,6.861,5.6,17.212,3.183,25.983-2.212,8.038-5.644,15.657-6.785,23.972-.831,6.06,1.48,11.386,1.392,17.371a60.856,60.856,0,0,1-3.814,19.484c-3.08,8.619-7.564,16.657-12.027,24.649a33.567,33.567,0,0,0-12.219-3.274c2.463-8.192,4.625-15.516,5.959-24.1q2.329-15,3.836-30.108,1.393-13.979,2.078-28.017c.4-8.268-.544-17.243.651-25.335" transform="translate(-328.798 -262.308)" fill="#262261"/>
                <path id="Trazado_1298959" data-name="Trazado 1298959" d="M353.011,330.414a9.078,9.078,0,0,1,.2,9.153" transform="translate(-337.339 -286.331)" fill="none" stroke="#fff" stroke-linecap="round" stroke-linejoin="round" stroke-miterlimit="10" stroke-width="1"/>
              </g>
            </g>
            <path id="Trazado_1298960" data-name="Trazado 1298960" d="M345.8,123.39c-1.041,1.834-2.37,3.59-2.716,5.671a8.227,8.227,0,0,0,2.411,6.824,16.994,16.994,0,0,0,6.359,3.865,37.971,37.971,0,0,0,35.647-5c1.638-1.228,3.26-2.732,3.7-4.731a7.316,7.316,0,0,0-1.018-4.984c-.834-1.519-1.944-2.871-2.816-4.368a34.364,34.364,0,0,1-2.948-7.868,27.509,27.509,0,0,0-3.183-7.763,9.949,9.949,0,0,0-6.745-4.6c-3.43-.423-6.005,1.81-9.325,1.869-1.474.026-2.95-.139-4.421-.052a13.213,13.213,0,0,0-11.226,8.1C347.807,114.639,348.139,119.276,345.8,123.39Z" transform="translate(-317.098 -99.155)" fill="#262261"/>
            <g id="Grupo_1242674" data-name="Grupo 1242674" transform="translate(27.965 44.68)">
              <path id="Trazado_1298961" data-name="Trazado 1298961" d="M352.132,191.271a26.628,26.628,0,0,1-2.069-11.61,12.249,12.249,0,0,1,1.665-6.146c3.448-5.293,10.826-5.585,16.408-5.8a37.936,37.936,0,0,1,7.978.349,15.361,15.361,0,0,1,8.885,4.5c3.569,3.979,2.2,8.433,1.7,13.178-1.4,13.391-4.456,27.042,3.462,39.1a19.955,19.955,0,0,1,2.058,3.487c1.257,3.173-.144,3.654-2.75,4.4-1.692.484-3.4,1.052-5.134,1.39a51.44,51.44,0,0,1-9.8.955c-6.559.007-13.329.035-19.872-.551-1.991-.179-4.247.43-6.156-.127a3.147,3.147,0,0,1-2.2-1.948c-.624-2.059,1.363-3.311,2.183-4.889a29.946,29.946,0,0,0,2.16-6.437,56.77,56.77,0,0,0,1.585-12.842,116.191,116.191,0,0,0-1.008-15.69c-.546-4.572-1.805-9.211-1.3-13.839a12.2,12.2,0,0,1,3.686-7.723c2.154-1.926,5.1-1.976,7.773-2.758l.089-.026" transform="translate(-346.187 -167.568)" fill="#67f19d"/>
              <path id="Trazado_1298962" data-name="Trazado 1298962" d="M378.177,200.163c.085-.241-.463-1.208-.561-1.469q-.326-.87-.641-1.744-.6-1.682-1.164-3.379c-.612-1.854-1.048-3.8-1.724-5.626-.658-1.777-1.494-3.482-2.12-5.277a61.205,61.205,0,0,1-2.762-11.24c-.058-.4-.056-.9.307-1.073a.9.9,0,0,1,.665.045,26.6,26.6,0,0,1,3.574,1.832,6.967,6.967,0,0,0,3.832,1.015,6.444,6.444,0,0,0,3.6-1.829c1.014-.922,1.876-2,2.9-2.917-.206.185.037,1.989.037,2.322q0,1.222-.047,2.444-.092,2.5-.366,5a70.251,70.251,0,0,1-1.5,9.215C381.134,191.789,379.654,195.981,378.177,200.163Z" transform="translate(-354.296 -167.864)" fill="#fff"/>
              <g id="Grupo_1242672" data-name="Grupo 1242672" transform="translate(18.986 5.046)">
                <g id="Grupo_1242671" data-name="Grupo 1242671">
                  <path id="Trazado_1298963" data-name="Trazado 1298963" d="M383.325,191.345c.017.046.034.092.052.137a7.644,7.644,0,0,1,.495,1.619,7.811,7.811,0,0,1-.61,3.4c-.368,1.171-.628,2.352-.984,3.528l-1.572,5.186a83.6,83.6,0,0,1-4.739-10.334c-.771-1.893-.4-3.563.048-5.506q.847-3.65,1.693-7.3a1.8,1.8,0,0,1,.336-.81,1.542,1.542,0,0,1,1.376-.341,3.969,3.969,0,0,0,1.465.083A41.615,41.615,0,0,0,383.325,191.345Z" transform="translate(-375.519 -177.284)" fill="#262261"/>
                  <path id="Trazado_1298964" data-name="Trazado 1298964" d="M382.729,175.759c0,.062.172.25.2.324a1.531,1.531,0,0,1,.108.445,2.881,2.881,0,0,1-.064.931c-.185.763-.4,1.52-.6,2.28a1.184,1.184,0,0,1-1.355,1.1l-3.127.225a.946.946,0,0,1-.5-.054.907.907,0,0,1-.344-.4,10.279,10.279,0,0,1-1.273-4.222.842.842,0,0,1,.047-.432c.122-.252.487-.194.724-.226.279-.038.558-.074.838-.109.588-.073,1.178-.138,1.768-.19a11.962,11.962,0,0,1,2.941-.042C382.285,175.422,382.729,175.485,382.729,175.759Z" transform="translate(-375.607 -175.311)" fill="#262261"/>
                </g>
              </g>
              <g id="Grupo_1242673" data-name="Grupo 1242673" transform="translate(8.739)">
                <path id="Trazado_1298965" data-name="Trazado 1298965" d="M394.446,172.768a1.826,1.826,0,0,1,.558,2.706l-12.519,25.955a21.887,21.887,0,0,0,1.047-3.908q.528-2.052,1.012-4.117.968-4.127,1.761-8.293t1.407-8.36q.308-2.1.57-4.2c.105-.843-.048-3.278.483-3.915C389.619,167.613,393.722,172.113,394.446,172.768Z" transform="translate(-367.73 -167.858)" fill="#4db576"/>
                <path id="Trazado_1298966" data-name="Trazado 1298966" d="M360.476,172.38a2.5,2.5,0,0,0-.784,1.408,2.537,2.537,0,0,0,.485,1.4l14.93,25.307a22.886,22.886,0,0,1-1.414-3.889q-.72-2.045-1.4-4.1-1.356-4.119-2.541-8.293t-2.195-8.4q-.5-2.11-.966-4.231c-.185-.85-.263-3.347-.852-3.947C364.793,166.675,361.134,171.646,360.476,172.38Z" transform="translate(-359.689 -167.516)" fill="#4db576"/>
              </g>
            </g>
            <g id="Grupo_1242677" data-name="Grupo 1242677" transform="translate(40.653 27.158)">
              <g id="Grupo_1242675" data-name="Grupo 1242675" transform="translate(1.878)">
                <path id="Trazado_1298967" data-name="Trazado 1298967" d="M382.674,159.033a5.111,5.111,0,0,1-1.772,2.717,6.881,6.881,0,0,1-5.335,1.357,9.064,9.064,0,0,1-4.935-2.594,6.606,6.606,0,0,1-1.825-2.922c-.46-1.741.553-3.419.906-5.1.415-1.978.676-3.985,1.078-5.966.368-1.818.814-3.773,2.21-4.993a5.01,5.01,0,0,1,5.347-.571,7.175,7.175,0,0,1,3.842,6.306c.146,2.311.348,4.618.557,6.924A14.116,14.116,0,0,1,382.674,159.033Z" transform="translate(-368.689 -140.446)" fill="#fabe78"/>
                <path id="Trazado_1298968" data-name="Trazado 1298968" d="M381.817,158.279a3.45,3.45,0,0,1-1.33,1.41,3.285,3.285,0,0,1-2.757-.21,11.21,11.21,0,0,1-5.027-5.093,8.053,8.053,0,0,1-1.1-3.842,7.027,7.027,0,0,1,1.428-3.9,5.559,5.559,0,0,1,3.291-2.4,5.206,5.206,0,0,1,4.145,1.288C384.242,148.617,384.151,154.359,381.817,158.279Z" transform="translate(-369.716 -141.763)" fill="#bb8f5a"/>
              </g>
              <g id="Grupo_1242676" data-name="Grupo 1242676" transform="translate(0 13.714)">
                <path id="Trazado_1298969" data-name="Trazado 1298969" d="M376.048,170.306a23.359,23.359,0,0,1-5.023-3.439,9.335,9.335,0,0,1-2.924-5.233c-.59,1.428-1.9,2.527-2.229,4.036a5.6,5.6,0,0,0,.575,3.393c1.23,2.793,3.568,5.882,6.407,7.2a11.76,11.76,0,0,1,3-4.96,11.881,11.881,0,0,1,2.737,5.156,14.792,14.792,0,0,0,4.718-5.953,8.3,8.3,0,0,0-1.363-8.121c.181.246-.826,1.985-.972,2.262a15.908,15.908,0,0,1-1.386,2.181A18.958,18.958,0,0,1,376.048,170.306Z" transform="translate(-365.788 -161.634)" fill="#fff"/>
              </g>
            </g>
            <g id="Grupo_1242684" data-name="Grupo 1242684" transform="translate(31.627)">
              <g id="Grupo_1242681" data-name="Grupo 1242681" transform="translate(8.425 9.11)">
                <path id="Trazado_1298970" data-name="Trazado 1298970" d="M375.747,143.79a20.127,20.127,0,0,1-2.546-1.112,19.567,19.567,0,0,1-5.931-4.608,7.926,7.926,0,0,1-1.452-2.249,12.434,12.434,0,0,1-.3-2.326,31.945,31.945,0,0,1-.133-12.233,13.529,13.529,0,0,1,1.824-5.047c1.04-1.572,2.294-1.946,3.986-2.6a15.043,15.043,0,0,1,12.633.708,8.889,8.889,0,0,1,3.449,2.97,16.5,16.5,0,0,1,1.682,5.359,38.52,38.52,0,0,1-.238,12.25,12.252,12.252,0,0,1-.965,3.739,8.59,8.59,0,0,1-3.6,3.537c-1.452.814-3.042,1.186-4.55,1.847A5.064,5.064,0,0,1,375.747,143.79Z" transform="translate(-364.86 -112.562)" fill="#fabe78"/>
                <g id="Grupo_1242680" data-name="Grupo 1242680" transform="translate(6.02 9.946)">
                  <path id="Trazado_1298971" data-name="Trazado 1298971" d="M387.4,135.32c.021.032.043.064.067.1.216.291.526.452.63.834.419,1.528-1.652,2.139-2.758,1.922a1.613,1.613,0,0,1-1.289-1.06,2.347,2.347,0,0,1,.041-1.048q.432-2.214,1.007-4.4c.1-.4.337-.883.744-.838s.529.59.562,1.01a9.394,9.394,0,0,0,.536,2.475A4.794,4.794,0,0,0,387.4,135.32Z" transform="translate(-377.634 -128.952)" fill="#fa9257"/>
                  <g id="Grupo_1242678" data-name="Grupo 1242678">
                    <path id="Trazado_1298972" data-name="Trazado 1298972" d="M378.484,132.7a1.114,1.114,0,0,1-.137,1.15.944.944,0,0,1-1.1.252.974.974,0,0,1-.5-.7,1.318,1.318,0,0,1,.155-.86c.144-.263.447-.629.779-.563A1.324,1.324,0,0,1,378.484,132.7Z" transform="translate(-375.064 -129.355)" fill="#262261"/>
                    <path id="Trazado_1298973" data-name="Trazado 1298973" d="M379.1,128.673a2.477,2.477,0,0,0-2.622-.611,5.733,5.733,0,0,0-2.313,1.623" transform="translate(-374.161 -127.929)" fill="none" stroke="#1b1464" stroke-linecap="round" stroke-linejoin="round" stroke-miterlimit="10" stroke-width="1"/>
                  </g>
                  <g id="Grupo_1242679" data-name="Grupo 1242679" transform="translate(10.428 0.491)">
                    <path id="Trazado_1298974" data-name="Trazado 1298974" d="M394.325,133.677a1.115,1.115,0,0,1-.137,1.15.944.944,0,0,1-1.1.252.974.974,0,0,1-.5-.7,1.318,1.318,0,0,1,.155-.86c.144-.263.447-.629.779-.563A1.328,1.328,0,0,1,394.325,133.677Z" transform="translate(-391.08 -130.192)" fill="#262261"/>
                    <path id="Trazado_1298975" data-name="Trazado 1298975" d="M395.1,130.127a3.378,3.378,0,0,0-4.826-.742" transform="translate(-390.272 -128.688)" fill="none" stroke="#1b1464" stroke-linecap="round" stroke-linejoin="round" stroke-miterlimit="10" stroke-width="1"/>
                  </g>
                  <path id="Trazado_1298976" data-name="Trazado 1298976" d="M387.5,147.544a5.813,5.813,0,0,1-6.179-1.176" transform="translate(-376.685 -134.433)" fill="none" stroke="#1b1464" stroke-linecap="round" stroke-linejoin="round" stroke-miterlimit="10" stroke-width="1"/>
                </g>
              </g>
              <path id="Trazado_1298977" data-name="Trazado 1298977" d="M368.1,115.172a8.913,8.913,0,0,1-2.811-3.784c.353.717.045,2.4.017,3.2a29.059,29.059,0,0,1-.291,3.059,45.315,45.315,0,0,1-.984,6.189,2.29,2.29,0,0,1-.427.926.831.831,0,0,1-.923.262c-.439-.2-.478-.794-.556-1.271-.219-1.353-1.577-3-3.072-2.735-1.4.251-2.273,1.7-2.885,2.838-.108.2-2.025-2.757-2.194-3.067a16.822,16.822,0,0,1-1.764-4.324,14.155,14.155,0,0,1,4.73-14.216,18.1,18.1,0,0,1,9-3.568,32.3,32.3,0,0,1,9.758.462,9.02,9.02,0,0,1,4.63,1.867,8.614,8.614,0,0,1,1.873,2.922,35.427,35.427,0,0,1,1.864,5.3c.136.515.65,5.041.715,5.033l-11.47,1.464c-1.658.212-3.438.4-4.916-.378C368.3,115.293,368.2,115.234,368.1,115.172Z" transform="translate(-351.844 -98.488)" fill="#262261"/>
              <g id="Grupo_1242683" data-name="Grupo 1242683" transform="translate(2.585 19.782)">
                <path id="Trazado_1298978" data-name="Trazado 1298978" d="M362.27,139.19a1.521,1.521,0,0,0,.633-.473,4.99,4.99,0,0,0,.626-2.449,15.058,15.058,0,0,0,.062-2.252,9.4,9.4,0,0,0-.012-1.805,3.869,3.869,0,0,0-7.025-1.478,4.625,4.625,0,0,0-.6,3.547,7.013,7.013,0,0,0,1.759,3.2,6.02,6.02,0,0,0,2.18,1.582A3.425,3.425,0,0,0,362.27,139.19Z" transform="translate(-355.838 -129.051)" fill="#fabe78"/>
                <g id="Grupo_1242682" data-name="Grupo 1242682" transform="translate(3.708 2.022)">
                  <path id="Trazado_1298979" data-name="Trazado 1298979" d="M363.621,137.668a4.979,4.979,0,0,0-.6-5.493" transform="translate(-362.078 -132.175)" fill="none" stroke="#1b1464" stroke-linecap="round" stroke-linejoin="round" stroke-miterlimit="10" stroke-width="1"/>
                  <path id="Trazado_1298980" data-name="Trazado 1298980" d="M363.687,136.364a3.54,3.54,0,0,0-2.121-.2" transform="translate(-361.566 -133.555)" fill="none" stroke="#1b1464" stroke-linecap="round" stroke-linejoin="round" stroke-miterlimit="10" stroke-width="1"/>
                </g>
              </g>
            </g>
          </g>
          <g id="Grupo_1242690" data-name="Grupo 1242690" transform="translate(0 76.076)">
            <path id="Trazado_1298981" data-name="Trazado 1298981" d="M411.282,292.7l.4-15.46L394.41,273.7a50.547,50.547,0,0,0-6.464-16.839L398.4,242.678l-10.65-11.213-14.7,9.708a50.547,50.547,0,0,0-16.484-7.323l-2.641-17.43-15.46-.4-3.535,17.27a50.546,50.546,0,0,0-16.839,6.464L303.9,229.3l-11.213,10.65,9.708,14.7a50.547,50.547,0,0,0-7.323,16.484l-17.43,2.641-.4,15.46,17.27,3.535a50.547,50.547,0,0,0,6.464,16.839L290.526,323.8l10.65,11.213,14.7-9.708a50.553,50.553,0,0,0,16.484,7.323l2.641,17.43,15.46.4L354,333.189a50.547,50.547,0,0,0,16.839-6.464l14.185,10.452,11.213-10.65-9.708-14.7a50.547,50.547,0,0,0,7.323-16.484Zm-66.821,11.283a20.74,20.74,0,1,1,20.74-20.74A20.74,20.74,0,0,1,344.461,303.981Z" transform="translate(-277.243 -216.022)" fill="#ee4036"/>
            <g id="Grupo_1242687" data-name="Grupo 1242687" transform="translate(80.724 17.291)">
              <path id="Trazado_1298982" data-name="Trazado 1298982" d="M407.866,242.793a3.882,3.882,0,0,0-.686-.057,41.625,41.625,0,0,0-4.328.5c-.32.037-.692.107-.84.394-.2.392.19.848.6,1a5.06,5.06,0,0,1,1.25.413,1.462,1.462,0,0,1,.365,1.72c-.48,1.187-1.587,1.634-1.675,3.061a1.548,1.548,0,0,0,.72,1.485.951.951,0,0,0,1.358-.607,3.2,3.2,0,0,0,.766,2.295c.609.562,1.836.434,2.021-.374a1.935,1.935,0,0,0,.733,1.887,1.1,1.1,0,0,0,1.647-.675,1.192,1.192,0,0,0,1.019,1.564c1.635.163,1.942-1.667,2.471-2.741a11.54,11.54,0,0,0,1.484-4.767,3.347,3.347,0,0,0-.174-1.392c-.724-1.791-3.128-2.557-4.789-3.1A13.579,13.579,0,0,0,407.866,242.793Z" transform="translate(-401.957 -242.736)" fill="#fabe78"/>
              <g id="Grupo_1242686" data-name="Grupo 1242686" transform="translate(2.421 3.844)">
                <path id="Trazado_1298983" data-name="Trazado 1298983" d="M407.974,248.984c.041-.14.117-.311.263-.309.17,0,.228.227.225.4a4.7,4.7,0,0,1-2.763,4.154,6.243,6.243,0,0,1,.624-.785,12.139,12.139,0,0,0,1.652-3.456Z" transform="translate(-405.698 -248.675)" fill="#bb8f5a"/>
                <path id="Trazado_1298984" data-name="Trazado 1298984" d="M412.1,250.987a1.9,1.9,0,0,1,.221,1.741,5.65,5.65,0,0,1-2.192,3.2,5.188,5.188,0,0,1,.583-.911,11.932,11.932,0,0,0,1.388-4.031Z" transform="translate(-407.259 -249.491)" fill="#bb8f5a"/>
                <path id="Trazado_1298985" data-name="Trazado 1298985" d="M415.82,253.732a.673.673,0,0,1,.056-.325.216.216,0,0,1,.28-.1.3.3,0,0,1,.105.153,3.551,3.551,0,0,1-1.241,4.227c-.106.076-.6.456-.724.358-.177-.137.207-.533.267-.614A6.416,6.416,0,0,0,415.82,253.732Z" transform="translate(-408.715 -250.3)" fill="#bb8f5a"/>
              </g>
            </g>
            <g id="Grupo_1242689" data-name="Grupo 1242689" transform="translate(40.788 16.797)">
              <path id="Trazado_1298986" data-name="Trazado 1298986" d="M347.041,241.983a14.644,14.644,0,0,1,1.753.043,7.875,7.875,0,0,1,4.4,1.477,3.74,3.74,0,0,0-2.675,1.268c-.761,1.06.572,2.8,1.214,3.717a3.08,3.08,0,0,1,.642,1.23c.2,1.248-1.924,2.07-2.085.709a3.2,3.2,0,0,1-.766,2.295c-.609.562-1.836.434-2.021-.374a1.935,1.935,0,0,1-.733,1.887,1.1,1.1,0,0,1-1.647-.675,1.192,1.192,0,0,1-1.019,1.564c-1.635.163-1.942-1.667-2.471-2.741-1.636-3.322-2.478-7.218,1.367-9.37A8.912,8.912,0,0,1,347.041,241.983Z" transform="translate(-340.258 -241.973)" fill="#fabe78"/>
              <g id="Grupo_1242688" data-name="Grupo 1242688" transform="translate(2.849 3.286)">
                <path id="Trazado_1298987" data-name="Trazado 1298987" d="M352.08,247.049a1.99,1.99,0,0,0-.608,1.781,3.928,3.928,0,0,0,.8,1.771,5.255,5.255,0,0,0,1.622,1.616c.065-.317-.447-.75-.615-1a7.29,7.29,0,0,1-.68-1.3A7.137,7.137,0,0,1,352.08,247.049Z" transform="translate(-347.055 -247.049)" fill="#bb8f5a"/>
                <path id="Trazado_1298988" data-name="Trazado 1298988" d="M348.237,251.216a3.18,3.18,0,0,0,.1,2.823c.309.6,1.034,1.6,1.726,1.768.044-.244-.168-.512-.292-.715a13.345,13.345,0,0,1-.693-1.23A10.185,10.185,0,0,1,348.237,251.216Z" transform="translate(-345.821 -248.519)" fill="#bb8f5a"/>
                <path id="Trazado_1298989" data-name="Trazado 1298989" d="M344.841,253.759a2.769,2.769,0,0,0,.282,2.483,5.137,5.137,0,0,0,1.755,1.8c-.356-.7-.893-1.323-1.241-2.049a11.374,11.374,0,0,1-.463-1.114C345.1,254.675,344.754,253.956,344.841,253.759Z" transform="translate(-344.659 -249.416)" fill="#bb8f5a"/>
              </g>
            </g>
          </g>
        </g>
        <g id="Grupo_1242725" data-name="Grupo 1242725" transform="translate(286.755 93.493)">
          <g id="Grupo_1242717" data-name="Grupo 1242717" transform="translate(101.812)">
            <g id="Grupo_1242697" data-name="Grupo 1242697" transform="translate(0 112.126)">
              <g id="Grupo_1242695" data-name="Grupo 1242695" transform="translate(0 97.716)">
                <g id="Grupo_1242693" data-name="Grupo 1242693">
                  <g id="Grupo_1242692" data-name="Grupo 1242692">
                    <path id="Trazado_1298990" data-name="Trazado 1298990" d="M601.4,424.111c-.947.3-1.907.571-2.84.851a20.588,20.588,0,0,0-7.441,3.441c-2.116,1.76-3.555,4.6-2.908,7.273l13.63-.32a6.054,6.054,0,0,0,3.125-.641,22.422,22.422,0,0,0,1.919-1.775,1.949,1.949,0,0,1,2.394-.274c.683.589.571,1.768,1.256,2.356a2.474,2.474,0,0,0,1.689.384l8.516-.149a33.456,33.456,0,0,0-.415-9.586c-1.285-5.354-6.691-10.618-12.222-6.515-1.374,1.019-1.735,2.634-3.251,3.5A17.937,17.937,0,0,1,601.4,424.111Z" transform="translate(-588.053 -417.689)" fill="#ee4036"/>
                  </g>
                </g>
                <g id="Grupo_1242694" data-name="Grupo 1242694" transform="translate(10.49 3.91)">
                  <path id="Trazado_1298991" data-name="Trazado 1298991" d="M604.259,426.794a12.763,12.763,0,0,1,4.494,4.666" transform="translate(-604.259 -424.811)" fill="none" stroke="#1b1464" stroke-linecap="round" stroke-linejoin="round" stroke-miterlimit="10" stroke-width="1"/>
                  <path id="Trazado_1298992" data-name="Trazado 1298992" d="M608.81,425.744a12.563,12.563,0,0,1,4.873,5.039" transform="translate(-605.864 -424.44)" fill="none" stroke="#1b1464" stroke-linecap="round" stroke-linejoin="round" stroke-miterlimit="10" stroke-width="1"/>
                  <path id="Trazado_1298993" data-name="Trazado 1298993" d="M611.905,423.73a21.63,21.63,0,0,1,6.013,5.639" transform="translate(-606.956 -423.73)" fill="none" stroke="#1b1464" stroke-linecap="round" stroke-linejoin="round" stroke-miterlimit="10" stroke-width="1"/>
                </g>
              </g>
              <g id="Grupo_1242696" data-name="Grupo 1242696" transform="translate(16.53)">
                <path id="Trazado_1298994" data-name="Trazado 1298994" d="M625.162,266.726c-1.889.109-4.763,34.458-5.058,36.953-2.195,18.515-4.358,37.048-6.058,55.617-.249,2.722-.353,5.368-.454,8.11a69.1,69.1,0,0,0,16.617,1.671c.88-.019,3.186-10.967,3.467-12.168a131.426,131.426,0,0,0,2.39-13.311c.555-4.372,1.251-9.077,1.009-13.492-.221-4.019-.556-7.807.194-11.877,1.591-8.635,6.822-16.015,8.948-24.482.66-2.625,3.819-27.023,5.238-27.024Z" transform="translate(-613.591 -266.723)" fill="#1c1a49"/>
                <path id="Trazado_1298995" data-name="Trazado 1298995" d="M634.05,332.807a8.525,8.525,0,0,1-1.6,8" transform="translate(-620.244 -290.033)" fill="none" stroke="#fff" stroke-linecap="round" stroke-linejoin="round" stroke-miterlimit="10" stroke-width="1"/>
              </g>
            </g>
            <g id="Grupo_1242703" data-name="Grupo 1242703" transform="translate(33.5 108.251)">
              <g id="Grupo_1242701" data-name="Grupo 1242701" transform="translate(25.257 90.802)">
                <g id="Grupo_1242699" data-name="Grupo 1242699">
                  <g id="Grupo_1242698" data-name="Grupo 1242698">
                    <path id="Trazado_1298996" data-name="Trazado 1298996" d="M688.954,416.07c-2.029,1.424-4.471,2.207-6.4,3.759a10.131,10.131,0,0,0-3.715,8.151q9.042.341,18.09-.1a5.019,5.019,0,0,0,2.4-.439,10.478,10.478,0,0,0,1.774-2.049,1.553,1.553,0,0,0,.175-2.047,10.713,10.713,0,0,1-.708-1.824,2.761,2.761,0,0,1,.153-1.911c.611-1.163,1.9-.992,2.825-.326a6.436,6.436,0,0,1,1.551,1.867l5.338-5.889a4.4,4.4,0,0,0,1.416-2.53,3.989,3.989,0,0,0-.748-2.21,27.6,27.6,0,0,0-7.363-7.92,7.562,7.562,0,0,0-5.869-1.442c-3.194.726-5.986,5.737-6.048,8.815C691.772,412.618,691.328,414.4,688.954,416.07Z" transform="translate(-678.829 -401.02)" fill="#ee4036"/>
                  </g>
                </g>
                <g id="Grupo_1242700" data-name="Grupo 1242700" transform="translate(8.818 11.552)">
                  <path id="Trazado_1298997" data-name="Trazado 1298997" d="M696.534,418.9a6.445,6.445,0,0,1,5.468,2.24" transform="translate(-693.892 -418.868)" fill="none" stroke="#1b1464" stroke-linecap="round" stroke-linejoin="round" stroke-miterlimit="10" stroke-width="1"/>
                  <path id="Trazado_1298998" data-name="Trazado 1298998" d="M695.473,421.252a8.155,8.155,0,0,1,4.649,3.207" transform="translate(-693.518 -419.709)" fill="none" stroke="#1b1464" stroke-linecap="round" stroke-linejoin="round" stroke-miterlimit="10" stroke-width="1"/>
                  <path id="Trazado_1298999" data-name="Trazado 1298999" d="M692.452,422.7a9.269,9.269,0,0,1,3.6,4.987" transform="translate(-692.452 -420.219)" fill="none" stroke="#1b1464" stroke-linecap="round" stroke-linejoin="round" stroke-miterlimit="10" stroke-width="1"/>
                </g>
              </g>
              <g id="Grupo_1242702" data-name="Grupo 1242702">
                <path id="Trazado_1299000" data-name="Trazado 1299000" d="M687.233,354.294c-3.24,2.329-6.715,4.649-9.35,7.421a4.719,4.719,0,0,1-.885-1.292c-3.286-5.66-7.326-10.791-10.486-16.585a186.059,186.059,0,0,1-8.659-18.21,243.566,243.566,0,0,1-11.941-38.361c-1.844-8.04-5.016-15.688-6.1-23.9a58.488,58.488,0,0,0,14.847,1.665,21.352,21.352,0,0,0,12.936-4.293c-.2.15.483,5.631.546,6.307.289,3.106.875,6.168,1.08,9.293.41,6.251.32,12.525.75,18.775.223,3.247.928,6.509.9,9.7a20.836,20.836,0,0,0,2.493,10.259c1.761,3.345,4.1,6.346,6.166,9.512a67.194,67.194,0,0,1,10.294,27.786C688.987,353.02,688.119,353.658,687.233,354.294Z" transform="translate(-639.808 -260.735)" fill="#262261"/>
                <path id="Trazado_1299001" data-name="Trazado 1299001" d="M672.059,334.992a9.63,9.63,0,0,1,2.616,11.3" transform="translate(-651.184 -286.928)" fill="none" stroke="#fff" stroke-linecap="round" stroke-linejoin="round" stroke-miterlimit="10" stroke-width="1"/>
              </g>
            </g>
            <path id="Trazado_1299002" data-name="Trazado 1299002" d="M634.3,177.825c-4.205-6.456-17.836-12.084-21.646-2.28a16.947,16.947,0,0,0-.876,8.917c.933,5.008,3.744,9.453,6.754,13.562a110.772,110.772,0,0,1-27.526.6c1.029.129-.155,10.134-.225,10.982,8.743,2.447,18,2.218,27.053,1.569a26.168,26.168,0,0,0,8.984-1.766,10.647,10.647,0,0,0,5.454-5.694c1.193-2.578,2.735-5.022,3.66-7.774C637.947,189.944,637.832,183.245,634.3,177.825Z" transform="translate(-589.016 -120.567)" fill="#b33029"/>
            <g id="Grupo_1242707" data-name="Grupo 1242707" transform="translate(24.85 47)">
              <path id="Trazado_1299003" data-name="Trazado 1299003" d="M662.073,233.372q.941-.046,1.882-.1,1.917-25.71,3.833-51.418c.144-1.925.222-3.814.467-5.689a5.914,5.914,0,0,0-1.9-4.671,13.9,13.9,0,0,0-4.706-2.662l-3.8-1.526a26.266,26.266,0,0,0-2.68-.673,20.086,20.086,0,0,0-6.535-.489c-5.49.079-13.7.728-18.551,3.831-4.234,2.709-3.157,12.492-3.382,17.276a233.753,233.753,0,0,0,2.384,46.073A328.073,328.073,0,0,0,662.073,233.372Z" transform="translate(-626.445 -166.106)" fill="#ee4036"/>
              <path id="Trazado_1299004" data-name="Trazado 1299004" d="M651.742,199.733c-.085-.241.463-1.208.561-1.469q.326-.87.641-1.744.6-1.682,1.164-3.379,1.12-3.394,2.057-6.844t1.69-6.944c.45-2.09,1.277-4.1,1.788-6.206a58.279,58.279,0,0,0,1.1-5.724c-1.621,2.535-6.291,4.484-9.3,4.387s-4.315-2.1-6.526-4.144a36.213,36.213,0,0,0,.887,7.514c0,2.007,1.135,3.987.979,6.012a19.035,19.035,0,0,0,.93,5.858C648.786,191.359,650.265,195.551,651.742,199.733Z" transform="translate(-632.962 -166.571)" fill="#fff"/>
              <g id="Grupo_1242705" data-name="Grupo 1242705" transform="translate(14.04 5.182)">
                <g id="Grupo_1242704" data-name="Grupo 1242704">
                  <path id="Trazado_1299005" data-name="Trazado 1299005" d="M648.346,191.245a4.737,4.737,0,0,0-.085,2.463,15.1,15.1,0,0,0,1.369,3.23,58.582,58.582,0,0,1,3.31,7.932,3.7,3.7,0,0,1,.351-1.373c.232-.647.492-1.285.737-1.926q.737-1.926,1.474-3.853a5.765,5.765,0,0,0,.226-3.612q-.4-2.272-.79-4.543-.789-4.543-1.579-9.086a4.455,4.455,0,0,1-2.021.17c-.808,1.375-1.008,3.452-1.431,5-.4,1.452-.724,2.94-1.185,4.374C648.586,190.452,648.452,190.852,648.346,191.245Z" transform="translate(-648.136 -176.358)" fill="#262261"/>
                  <path id="Trazado_1299006" data-name="Trazado 1299006" d="M649.853,174.56c0,.062-.172.251-.2.324a1.53,1.53,0,0,0-.108.445,2.864,2.864,0,0,0,.065.931c.185.763.4,1.52.6,2.28a1.184,1.184,0,0,0,1.355,1.1l3.127.225a.946.946,0,0,0,.5-.054.907.907,0,0,0,.344-.4,10.278,10.278,0,0,0,1.273-4.222.841.841,0,0,0-.047-.432c-.122-.252-.487-.194-.724-.226-.279-.038-.558-.074-.838-.109-.588-.072-1.178-.138-1.768-.19a11.962,11.962,0,0,0-2.941-.042C650.3,174.223,649.853,174.287,649.853,174.56Z" transform="translate(-648.627 -174.112)" fill="#262261"/>
                </g>
              </g>
              <g id="Grupo_1242706" data-name="Grupo 1242706" transform="translate(5.864 0.355)">
                <path id="Trazado_1299007" data-name="Trazado 1299007" d="M636.433,171.469a1.826,1.826,0,0,0-.558,2.706l12.519,25.955a21.936,21.936,0,0,1-1.048-3.908q-.528-2.052-1.012-4.117-.968-4.127-1.761-8.293t-1.407-8.36q-.308-2.1-.57-4.2c-.106-.843.048-3.278-.483-3.915C641.26,166.314,637.157,170.814,636.433,171.469Z" transform="translate(-635.505 -166.842)" fill="#b33029"/>
                <path id="Trazado_1299008" data-name="Trazado 1299008" d="M669.664,171.519a2.5,2.5,0,0,1,.784,1.408,2.538,2.538,0,0,1-.485,1.4l-14.93,25.307a22.886,22.886,0,0,0,1.414-3.889q.72-2.045,1.4-4.1,1.356-4.119,2.541-8.293t2.195-8.4q.5-2.11.966-4.231c.185-.85.263-3.347.852-3.947C665.347,165.814,669.006,170.785,669.664,171.519Z" transform="translate(-642.393 -166.655)" fill="#b33029"/>
              </g>
            </g>
            <g id="Grupo_1242709" data-name="Grupo 1242709" transform="translate(36.284 30.342)">
              <g id="Grupo_1242708" data-name="Grupo 1242708" transform="translate(2.092)">
                <path id="Trazado_1299009" data-name="Trazado 1299009" d="M647.9,158.783a9.034,9.034,0,0,0,1.83,2.244,5.69,5.69,0,0,0,2.722,1.593,6.22,6.22,0,0,0,2.981-.391,14.258,14.258,0,0,0,4.948-2.516,4.767,4.767,0,0,0,1.674-2.087,6.367,6.367,0,0,0-.523-2.664,86.768,86.768,0,0,1-1.724-8.515c-.368-1.818-.813-3.773-2.21-4.993a5.01,5.01,0,0,0-5.347-.571,7.175,7.175,0,0,0-3.842,6.306c-.127,2-.3,4-.474,6-.149,1.662-.984,3.131-.381,4.818A5.421,5.421,0,0,0,647.9,158.783Z" transform="translate(-647.342 -140.37)" fill="#a67c52"/>
                <path id="Trazado_1299010" data-name="Trazado 1299010" d="M650.263,158.2a3.45,3.45,0,0,0,1.33,1.41,3.284,3.284,0,0,0,2.757-.21,11.21,11.21,0,0,0,5.027-5.093,8.053,8.053,0,0,0,1.1-3.842,7.03,7.03,0,0,0-1.428-3.9,5.559,5.559,0,0,0-3.291-2.4,5.206,5.206,0,0,0-4.145,1.288C647.838,148.541,647.929,154.282,650.263,158.2Z" transform="translate(-647.794 -141.687)" fill="#754c24"/>
              </g>
              <path id="Trazado_1299011" data-name="Trazado 1299011" d="M651.52,169.293a23.322,23.322,0,0,0,5.42-2.773,9.328,9.328,0,0,0,3.566-4.819c.4,1.491,1.561,2.748,1.7,4.287a5.6,5.6,0,0,1-1,3.293A15.9,15.9,0,0,1,654,175.6l-2.546-5.524a15.322,15.322,0,0,0-3.333,4.07,14.031,14.031,0,0,1-3.426-5.39,7.1,7.1,0,0,1-.473-3.989,8.734,8.734,0,0,1,2.455-4.083c-.21.221.567,2.073.676,2.367a15.841,15.841,0,0,0,1.1,2.34A18.992,18.992,0,0,0,651.52,169.293Z" transform="translate(-644.109 -147.535)" fill="#fff"/>
            </g>
            <g id="Grupo_1242716" data-name="Grupo 1242716" transform="translate(21.199)">
              <g id="Grupo_1242713" data-name="Grupo 1242713" transform="translate(9.709 11.009)">
                <path id="Trazado_1299012" data-name="Trazado 1299012" d="M650.605,141.972a19.517,19.517,0,0,0,7.074-3.834,11.026,11.026,0,0,0,3.291-4.182,15.5,15.5,0,0,0,.763-5.879,40.2,40.2,0,0,0-.883-10.179c-.34-1.3-.8-3.33-1.878-4.238a14.574,14.574,0,0,0-3.884-2.06,19.711,19.711,0,0,0-9.3-.928,14.507,14.507,0,0,0-5.924,1.778,7.191,7.191,0,0,0-3.524,4.9c-.254,1.728.3,3.461.46,5.2a17.373,17.373,0,0,1,.045,3.407c-.159,1.38-.815,2.7-.975,4.109a7.927,7.927,0,0,0,.652,4.471,11.866,11.866,0,0,0,3.049,3.416c2.359,2.036,4.959,4.175,8.07,4.358A9.548,9.548,0,0,0,650.605,141.972Z" transform="translate(-635.805 -110.502)" fill="#a67c52"/>
                <g id="Grupo_1242712" data-name="Grupo 1242712" transform="translate(2.785 10.35)">
                  <path id="Trazado_1299013" data-name="Trazado 1299013" d="M647.072,134.949c-.232.319-.567.546-.676.944a1.364,1.364,0,0,0,.664,1.508,3.283,3.283,0,0,0,1.155.4,1.559,1.559,0,0,0,1.335-.194c.331-.3.345-1.069.417-1.487a15.675,15.675,0,0,0-.025-5.474c-.053-.291-.2-.651-.5-.637-.235.012-.372.263-.463.48a40.651,40.651,0,0,1-1.823,4.326A1.293,1.293,0,0,1,647.072,134.949Z" transform="translate(-642.31 -127.731)" fill="#753309"/>
                  <g id="Grupo_1242710" data-name="Grupo 1242710" transform="translate(9.618 0.864)">
                    <path id="Trazado_1299014" data-name="Trazado 1299014" d="M657.253,132.593a1.115,1.115,0,0,0,.137,1.15.944.944,0,0,0,1.1.252.975.975,0,0,0,.5-.7,1.315,1.315,0,0,0-.155-.86c-.144-.263-.447-.629-.779-.563A1.329,1.329,0,0,0,657.253,132.593Z" transform="translate(-655.738 -129.253)" fill="#262261"/>
                    <path id="Trazado_1299015" data-name="Trazado 1299015" d="M654.966,128.571a2.477,2.477,0,0,1,2.622-.611,5.733,5.733,0,0,1,2.313,1.623" transform="translate(-654.966 -127.827)" fill="none" stroke="#1b1464" stroke-linecap="round" stroke-linejoin="round" stroke-miterlimit="10" stroke-width="1"/>
                  </g>
                  <g id="Grupo_1242711" data-name="Grupo 1242711">
                    <path id="Trazado_1299016" data-name="Trazado 1299016" d="M642.228,132.593a1.115,1.115,0,0,0,.137,1.15.943.943,0,0,0,1.1.252.978.978,0,0,0,.5-.7,1.318,1.318,0,0,0-.155-.86c-.144-.263-.447-.629-.779-.563A1.325,1.325,0,0,0,642.228,132.593Z" transform="translate(-640.82 -128.388)" fill="#262261"/>
                    <path id="Trazado_1299017" data-name="Trazado 1299017" d="M640.107,127.931a3.378,3.378,0,0,1,4.826-.742" transform="translate(-640.107 -126.492)" fill="none" stroke="#1b1464" stroke-linecap="round" stroke-linejoin="round" stroke-miterlimit="10" stroke-width="1"/>
                  </g>
                  <path id="Trazado_1299018" data-name="Trazado 1299018" d="M648.8,146.205a5.813,5.813,0,0,0,6.18-1.176" transform="translate(-643.173 -133.03)" fill="none" stroke="#1b1464" stroke-linecap="round" stroke-linejoin="round" stroke-miterlimit="10" stroke-width="1"/>
                </g>
              </g>
              <path id="Trazado_1299019" data-name="Trazado 1299019" d="M655.733,119.3a5.548,5.548,0,0,0,1.344-2.284,7.136,7.136,0,0,0,.851,1.766,2.131,2.131,0,0,0,1.7.908c.991-.042,1.691-.97,2.154-1.847a16.112,16.112,0,0,0,.7-13.142,8.5,8.5,0,0,0-1.786-3.41,3.05,3.05,0,0,0-2.5-.818c-.4-5.6-9-3.649-12.439-3.821-4.1-.206-7.836-2.436-11.9-3.016a12.853,12.853,0,0,0-7.79,1.23,9.955,9.955,0,0,0-4.975,6,8.142,8.142,0,0,0,1.66,7.5c1.743,1.928,4.367,2.785,6.913,3.307a39.1,39.1,0,0,0,16.927-.293c.473-.114,5.075-1.155,5.075-.923a9.655,9.655,0,0,0,1.235,8.962,1.556,1.556,0,0,0,2.825-.128Z" transform="translate(-620.804 -93.493)" fill="#262261"/>
              <g id="Grupo_1242715" data-name="Grupo 1242715" transform="translate(33.484 22.803)">
                <path id="Trazado_1299020" data-name="Trazado 1299020" d="M674.392,139.027a1.523,1.523,0,0,1-.667-.424,4.986,4.986,0,0,1-.81-2.394,15.218,15.218,0,0,1-.233-2.241,9.432,9.432,0,0,1-.125-1.8,3.869,3.869,0,0,1,6.892-2.007,4.627,4.627,0,0,1,.867,3.491,7.014,7.014,0,0,1-1.511,3.328,6.021,6.021,0,0,1-2.054,1.743A3.423,3.423,0,0,1,674.392,139.027Z" transform="translate(-672.536 -128.722)" fill="#a67c52"/>
                <g id="Grupo_1242714" data-name="Grupo 1242714" transform="translate(2.543 2.695)">
                  <path id="Trazado_1299021" data-name="Trazado 1299021" d="M678.09,132.886a4.979,4.979,0,0,0-1.326,5.365" transform="translate(-676.465 -132.886)" fill="none" stroke="#1b1464" stroke-linecap="round" stroke-linejoin="round" stroke-miterlimit="10" stroke-width="1"/>
                  <path id="Trazado_1299022" data-name="Trazado 1299022" d="M677.18,136.913a2.411,2.411,0,0,1,1.675-.269" transform="translate(-676.717 -134.195)" fill="none" stroke="#1b1464" stroke-linecap="round" stroke-linejoin="round" stroke-miterlimit="10" stroke-width="1"/>
                </g>
              </g>
            </g>
          </g>
          <g id="Grupo_1242724" data-name="Grupo 1242724" transform="translate(0 10.929)">
            <path id="Trazado_1299023" data-name="Trazado 1299023" d="M565.6,180.753l-1.1-15.426-17.523-1.848a50.543,50.543,0,0,0-8.075-16.129l9.037-15.136L536.26,122.082l-13.7,11.089a50.555,50.555,0,0,0-17.111-5.71l-4.311-17.085-15.426,1.1L483.861,129a50.555,50.555,0,0,0-16.129,8.075l-15.136-9.037-10.132,11.684,11.089,13.7a50.555,50.555,0,0,0-5.71,17.111l-17.085,4.311,1.1,15.426,17.523,1.848a50.542,50.542,0,0,0,8.075,16.129l-9.037,15.136L460.1,233.515l13.7-11.089a50.551,50.551,0,0,0,17.111,5.71l4.311,17.085,15.426-1.1L512.5,226.6a50.541,50.541,0,0,0,16.129-8.075l15.136,9.037L553.9,215.879l-11.089-13.7a50.54,50.54,0,0,0,5.71-17.111ZM486.571,140.4a15.862,15.862,0,1,1-17.591,13.918A15.861,15.861,0,0,1,486.571,140.4ZM482.2,213.1a15.862,15.862,0,1,1,17.591-13.918A15.861,15.861,0,0,1,482.2,213.1Zm37.645-20a15.862,15.862,0,1,1,17.591-13.919A15.862,15.862,0,0,1,519.84,193.1Z" transform="translate(-430.758 -110.377)" fill="#faaf40"/>
            <g id="Grupo_1242721" data-name="Grupo 1242721" transform="translate(90.709 40.136)">
              <g id="Grupo_1242719" data-name="Grupo 1242719" transform="translate(0 40.472)">
                <path id="Trazado_1299024" data-name="Trazado 1299024" d="M584.132,250.435a20.869,20.869,0,0,0,5.434-1.565c1.4-.617,3.413-1.264,3.666-2.957a7.018,7.018,0,0,0-.045-1.814,12.989,12.989,0,0,0-.931-4.151,5.151,5.151,0,0,0-1.412-1.828,12.177,12.177,0,0,0-1.933-.97c-1.393-.773-2.759-1.915-4.368-2.178a8.254,8.254,0,0,0-2.688.155l-3.125.528c-.505.085-1.263.221-1.4.811a1.288,1.288,0,0,0,.747,1.356,3.1,3.1,0,0,0,1.586.086l2.232-.269a9.069,9.069,0,0,1-5.832.959,5.405,5.405,0,0,0-1.932-.17,1.33,1.33,0,0,0-1.162,1.331c.1.673.849,1.01,1.493,1.228a2.157,2.157,0,0,0-2.059.528,1.334,1.334,0,0,0,.155,1.949,1.251,1.251,0,0,0-1.486.475c-.5.8.194,1.584.7,2.165a3.753,3.753,0,0,0,1.457.947c-.472-.017-1.045.02-1.264.438a1.021,1.021,0,0,0,.315,1.125,5.353,5.353,0,0,0,2.4,1,20.887,20.887,0,0,0,9.458.823Z" transform="translate(-570.899 -234.913)" fill="#a67c52"/>
                <g id="Grupo_1242718" data-name="Grupo 1242718" transform="translate(2.104 5)">
                  <path id="Trazado_1299025" data-name="Trazado 1299025" d="M586.336,242.637a7.134,7.134,0,0,1-4.765,2.447,7.048,7.048,0,0,1-2.52-.249,5.224,5.224,0,0,1-2.242-1.109c.232-.074.558.085.79.137.311.069.625.125.939.169a12.8,12.8,0,0,0,5.754-.513A12.2,12.2,0,0,0,586.336,242.637Z" transform="translate(-575.088 -242.637)" fill="#754c24"/>
                  <path id="Trazado_1299026" data-name="Trazado 1299026" d="M578.849,249.2a19.574,19.574,0,0,0,5.135-.824,4.924,4.924,0,0,1-3.154,1.643,8.147,8.147,0,0,1-3.585-.425,16.224,16.224,0,0,1-1.672-.665,6.125,6.125,0,0,1-1.424-.718A10.981,10.981,0,0,0,578.849,249.2Z" transform="translate(-574.149 -244.603)" fill="#754c24"/>
                  <path id="Trazado_1299027" data-name="Trazado 1299027" d="M583.966,253.861a1.865,1.865,0,0,1-1.063,1.189,5.579,5.579,0,0,1-2.867.525,16.423,16.423,0,0,1-2.9-.511,6.648,6.648,0,0,1-1.473-.477,1.777,1.777,0,0,1-.829-.688c.282-.17,1.267.318,1.6.4a12.888,12.888,0,0,0,1.8.3,13.043,13.043,0,0,0,3.711-.173A12.484,12.484,0,0,0,583.966,253.861Z" transform="translate(-574.391 -246.596)" fill="#754c24"/>
                </g>
              </g>
              <g id="Grupo_1242720" data-name="Grupo 1242720" transform="translate(17.896)">
                <path id="Trazado_1299028" data-name="Trazado 1299028" d="M657.8,202.029c-5.666,9.5-15.283,16.208-25.687,19.96q-2.5.9-5.071,1.6a86.046,86.046,0,0,1-13.762,2.519c-2.33.245-4.668.414-7.008.522-2.212.1-4.511-.082-6.646.475-.082-1.1-.682-12.541-1.076-12.539,7.458-.037,14.211-.188,20.961-2.563a50.737,50.737,0,0,0,10.473-4.692,42.085,42.085,0,0,0,9.566-8.858,83.749,83.749,0,0,0,8.035-11.5,57.134,57.134,0,0,0,5.013-11.811,5.6,5.6,0,0,1,1-2.113c1.007-1.124,2.137-.573,3.194.108a13.871,13.871,0,0,1,5.758,8.666C664.059,188.573,661.25,196.244,657.8,202.029Z" transform="translate(-598.548 -172.385)" fill="#b33029"/>
                <path id="Trazado_1299029" data-name="Trazado 1299029" d="M661.435,234.987a4.224,4.224,0,0,1,5.36-3.523" transform="translate(-620.73 -193.167)" fill="none" stroke="#1b1464" stroke-linecap="round" stroke-linejoin="round" stroke-miterlimit="10" stroke-width="1"/>
              </g>
            </g>
            <g id="Grupo_1242723" data-name="Grupo 1242723" transform="translate(99.717 60.734)">
              <path id="Trazado_1299030" data-name="Trazado 1299030" d="M584.858,215.242c.008.1.018.191.029.286a9.867,9.867,0,0,0,.53,2.248,3.182,3.182,0,0,0,1.973,2.3,19.184,19.184,0,0,0,4.583,1.106,12.282,12.282,0,0,0,5.036-.79,3.907,3.907,0,0,0,1.3-.7,1.594,1.594,0,0,0,.568-1.312,1.017,1.017,0,0,0-.986-.917c.724-.041,1.41-1.224,1.6-1.807.224-.7.16-2.124-1-1.712,1.041-.2,2.4-1.926,1.093-2.7a1.571,1.571,0,0,0-1.241-.02,4.392,4.392,0,0,0,1.047-.875,1.327,1.327,0,0,0-1.01-2.25,4.392,4.392,0,0,0-1.718.3,1.824,1.824,0,0,0-.305-2.458,2.318,2.318,0,0,0-1.828-.132,5.957,5.957,0,0,1-1.847.339,1.341,1.341,0,0,1-1.314-1.115c-.012-.307.054-.739-.245-.811a.514.514,0,0,0-.374.112,12.732,12.732,0,0,0-5.376,6.614A10.616,10.616,0,0,0,584.858,215.242Z" transform="translate(-584.817 -204.208)" fill="#a67c52"/>
              <g id="Grupo_1242722" data-name="Grupo 1242722" transform="translate(3.756 4.309)">
                <path id="Trazado_1299031" data-name="Trazado 1299031" d="M590.62,212.072a3.814,3.814,0,0,0,2.368.767,7.716,7.716,0,0,0,5.521-1.974A12.89,12.89,0,0,1,590.62,212.072Z" transform="translate(-590.62 -210.865)" fill="#754c24"/>
                <path id="Trazado_1299032" data-name="Trazado 1299032" d="M597.187,216.195a21.549,21.549,0,0,1-4.314-.39c.078.5.623.77,1.11.907a7.659,7.659,0,0,0,5.773-.743,7.3,7.3,0,0,0,1.366-1A6.863,6.863,0,0,1,597.187,216.195Z" transform="translate(-591.415 -212.313)" fill="#754c24"/>
                <path id="Trazado_1299033" data-name="Trazado 1299033" d="M595.136,220.49a2.6,2.6,0,0,0,1.965.811,6.841,6.841,0,0,0,2.141-.426c1.116-.361,2.781-.892,3.385-2a4.15,4.15,0,0,0-.673.455,6.1,6.1,0,0,1-1.339.644,10.92,10.92,0,0,1-3.467.658A10.536,10.536,0,0,1,595.136,220.49Z" transform="translate(-592.213 -213.689)" fill="#754c24"/>
                <path id="Trazado_1299034" data-name="Trazado 1299034" d="M595.592,225.125a.835.835,0,0,0,.568.731,2.3,2.3,0,0,0,.974.089,8.872,8.872,0,0,0,4.41-1.115,8.551,8.551,0,0,0-1.36.389,9.511,9.511,0,0,1-1.529.221A9.348,9.348,0,0,1,595.592,225.125Z" transform="translate(-592.374 -215.791)" fill="#754c24"/>
              </g>
            </g>
          </g>
        </g>
        <g id="Grupo_1242754" data-name="Grupo 1242754" transform="translate(22.508 99.053)">
          <g id="Grupo_1242746" data-name="Grupo 1242746">
            <path id="Trazado_1299035" data-name="Trazado 1299035" d="M92.506,124.084c-1.208,4.423-3.752,8.388-7.932,10.335-1.953.91-4.281,1.963-4.664,4.084-.206,1.143.241,2.344-.048,3.469-.522,2.029-2.973,2.71-4.752,3.818-5.226,3.254-4.456,9.453-6.421,14.478a23.844,23.844,0,0,1-32.736,12.964A24.351,24.351,0,0,1,22.709,155.02c-.545-3.9-.041-8.109,2.255-11.31,3.6-5.021,10.361-6.283,15.96-8.895,5.066-2.363,9.59-6.244,11.828-11.365,1.7-3.883,2.022-8.282,3.921-12.07,2.588-5.164,8.495-6.362,13.593-7.693,5.23-1.365,11.687-2.818,16.656.139,3.374,2.008,5.421,5.787,6.089,9.656A25.013,25.013,0,0,1,92.506,124.084Z" transform="translate(-22.508 -102.089)" fill="#262261"/>
            <g id="Grupo_1242728" data-name="Grupo 1242728" transform="translate(12.255 96.692)">
              <g id="Grupo_1242726" data-name="Grupo 1242726" transform="translate(0 101.994)">
                <path id="Trazado_1299036" data-name="Trazado 1299036" d="M44.7,416.982l-2.128,2.307a3.056,3.056,0,0,0-1.115,2.282c.189,1.411,2.116,1.862,2.77,3.126a9.073,9.073,0,0,1,3.489-2.841,1.384,1.384,0,0,1,1.153-.135c.568.277.544,1.1.341,1.694-1.408,4.149,2.737,9.154,6.915,9.345a62.778,62.778,0,0,0,12.4-.539,3.753,3.753,0,0,0-1.55-3.259c-.965-.807-2.13-1.34-3.137-2.095a10.627,10.627,0,0,1-3.491-4.976,16.671,16.671,0,0,1-.673-6.458c.046-1.674.047-3.5-.973-4.825-1.3-1.694-3.88-1.926-5.856-1.113a14.8,14.8,0,0,0-4.938,4Z" transform="translate(-41.442 -409.044)" fill="#bb8330"/>
                <path id="Trazado_1299037" data-name="Trazado 1299037" d="M61.258,419.88a13.356,13.356,0,0,0,2.766,6.824,7.4,7.4,0,0,0,1.718,1.714,3.851,3.851,0,0,0,4.638.06.8.8,0,0,0,.279-.4c.07-.3-.161-.575-.368-.8a13.578,13.578,0,0,1-3.467-9.227,21.451,21.451,0,0,0,.121-3.317,3.167,3.167,0,0,0-1.427-2.352,1.826,1.826,0,0,0-1.182-.243c-1.285.213-2.045,2.006-2.446,3.053A10.573,10.573,0,0,0,61.258,419.88Z" transform="translate(-48.417 -410.13)" fill="#fabe78"/>
              </g>
              <g id="Grupo_1242727" data-name="Grupo 1242727" transform="translate(9.758)">
                <path id="Trazado_1299038" data-name="Trazado 1299038" d="M105.131,252.971a211.369,211.369,0,0,1-1.808,33.831,144.984,144.984,0,0,1-3.21,17.868c-.715,2.7-1.425,5.72-2.9,8.084-1.648,2.649-3.534,5.225-5.252,7.847L70.241,353.754l-5,7.625c.376-.574-8.024-6.36-8.717-6.874-.234-8.824,3.819-17.24,8.919-24.445,4.148-5.859,9.022-11.149,13.383-16.843,4.108-5.364,3.89-11.138,3.295-17.712-.381-4.2-.944-8.424-1.146-12.635-.146-3.043.4-5.735-.03-8.815-1.051-7.475-2.3-15.543,1.219-22.587" transform="translate(-56.518 -251.468)" fill="#1c1a49"/>
                <path id="Trazado_1299039" data-name="Trazado 1299039" d="M114.858,333.414a8.386,8.386,0,0,0-2.983,6.3c0,.486.109,1.076.567,1.239" transform="translate(-76.044 -280.373)" fill="none" stroke="#fff" stroke-linecap="round" stroke-linejoin="round" stroke-miterlimit="10" stroke-width="1"/>
              </g>
            </g>
            <g id="Grupo_1242731" data-name="Grupo 1242731" transform="translate(30.506 98.574)">
              <g id="Grupo_1242729" data-name="Grupo 1242729" transform="translate(22.547 105.814)">
                <path id="Trazado_1299040" data-name="Trazado 1299040" d="M133.713,435.39a5.189,5.189,0,0,0-3.053-3.293c-1.4-.668-2.937-1.016-4.327-1.7a17.43,17.43,0,0,1-5.234-4.526,30.672,30.672,0,0,0-4.844-4.987,8.255,8.255,0,0,0-6.532-1.726c-2.687.61-4.472,3.653-4.385,6.3a61.686,61.686,0,0,1-.867,10.339l4.4.241a6.235,6.235,0,0,0,.556-2.2,3.748,3.748,0,0,1,.812-2.091,1.489,1.489,0,0,1,2.035-.2c.671.669.242,1.808.434,2.735a2.693,2.693,0,0,0,1.673,1.816C116.3,436.9,133.685,435.26,133.713,435.39Z" transform="translate(-104.472 -418.26)" fill="#bb8330"/>
                <path id="Trazado_1299041" data-name="Trazado 1299041" d="M110.882,420.639a12.157,12.157,0,0,1,5.326,3.42c1.5,1.519,2.8,3.23,4.3,4.742a7.966,7.966,0,0,0,2.161,1.652,3.457,3.457,0,0,0,2.653.214,1.69,1.69,0,0,0,1.178-1.4,2.425,2.425,0,0,0-.83-1.586l-2.909-3.2c-2.429-2.673-5.007-5.446-8.42-6.626a4.083,4.083,0,0,1-3.693,2.269l.968.639" transform="translate(-106.652 -417.854)" fill="#fabe78"/>
              </g>
              <g id="Grupo_1242730" data-name="Grupo 1242730">
                <path id="Trazado_1299042" data-name="Trazado 1299042" d="M74.466,254.376c-5.974,6.861-5.6,17.212-3.183,25.983,2.212,8.038,5.645,15.656,6.785,23.972.832,6.06-1.48,11.386-1.392,17.371a60.855,60.855,0,0,0,3.814,19.484c3.08,8.619,7.564,16.657,12.027,24.649a33.565,33.565,0,0,1,12.219-3.274c-2.463-8.192-4.625-15.516-5.959-24.1q-2.329-15-3.836-30.108-1.393-13.979-2.077-28.017c-.4-8.268.544-17.243-.651-25.335" transform="translate(-69.638 -254.376)" fill="#262261"/>
                <path id="Trazado_1299043" data-name="Trazado 1299043" d="M98.919,322.482a9.078,9.078,0,0,0-.2,9.153" transform="translate(-79.494 -278.399)" fill="none" stroke="#fff" stroke-linecap="round" stroke-linejoin="round" stroke-miterlimit="10" stroke-width="1"/>
              </g>
            </g>
            <path id="Trazado_1299044" data-name="Trazado 1299044" d="M104.1,179.655a29.833,29.833,0,0,1,1.871-4.093,14.024,14.024,0,0,1,3.315-4.249,6.683,6.683,0,0,1,5.032-1.574,7.682,7.682,0,0,1,4.785,3.241c2.706,3.6,3.506,8.352,3.121,12.841a46.507,46.507,0,0,1-2.43,10.47c-.337,1.027-1.212,2.43-.239,3.217.9.725,4.089.522,5.247.629a100.557,100.557,0,0,0,21.567-.115c-1.029.129.155,10.134.225,10.982-8.743,2.447-18,2.218-27.053,1.568a26.169,26.169,0,0,1-8.984-1.766c-5.617-2.539-7.653-10.92-8.243-16.53A32.565,32.565,0,0,1,104.1,179.655Z" transform="translate(-50.593 -125.928)" fill="#bb8330"/>
            <g id="Grupo_1242735" data-name="Grupo 1242735" transform="translate(30.506 42.529)">
              <path id="Trazado_1299045" data-name="Trazado 1299045" d="M76.639,233.883a61.421,61.421,0,0,1-7-1.29c.511-4.15,1.161-8.156,1.981-12.206a80.164,80.164,0,0,0,1.847-13.16c.293-8.78-2.264-17.445-2.239-26.23a15.583,15.583,0,0,1,1.424-7.309c1.807-3.4,4.831-3.428,7.987-4.7a26.26,26.26,0,0,1,2.68-.673,20.089,20.089,0,0,1,6.536-.489c3.77.054,8.76-.118,12.333,1.03,3.436,1.1,5.708,5.832,6.437,9.031.914,4.011.436,8.2-.321,12.248s-1.792,8.058-1.99,12.167c-.243,5.036.789,10.007,1.964,14.874,1.14,4.722,3.3,10.279,3,15.169-1.942.858-5.368.61-7.537.878-3.1.383-6.209.715-9.325.937A90.474,90.474,0,0,1,76.639,233.883Z" transform="translate(-69.638 -167.788)" fill="#faaf40"/>
              <path id="Trazado_1299046" data-name="Trazado 1299046" d="M101.237,201.416c.085-.241-.463-1.208-.561-1.469q-.326-.87-.641-1.744-.6-1.682-1.164-3.379-1.119-3.394-2.057-6.844t-1.69-6.944c-.45-2.09-1.277-4.1-1.788-6.206-.458-1.889-.836-3.8-1.1-5.724,1.621,2.535,6.291,4.484,9.3,4.387s4.315-2.1,6.526-4.144a36.214,36.214,0,0,1-.887,7.514c0,2.007-1.135,3.987-.979,6.012a19.033,19.033,0,0,1-.929,5.858C104.193,193.042,102.714,197.234,101.237,201.416Z" transform="translate(-77.608 -168.253)" fill="#fff"/>
              <g id="Grupo_1242733" data-name="Grupo 1242733" transform="translate(20.183 5.183)">
                <g id="Grupo_1242732" data-name="Grupo 1242732">
                  <path id="Trazado_1299047" data-name="Trazado 1299047" d="M109.021,192.928a4.737,4.737,0,0,1,.085,2.463,15.1,15.1,0,0,1-1.369,3.23,58.574,58.574,0,0,0-3.309,7.932,3.7,3.7,0,0,0-.351-1.373c-.232-.647-.491-1.285-.737-1.926l-1.474-3.853a5.765,5.765,0,0,1-.226-3.612q.4-2.271.79-4.543.789-4.543,1.579-9.086a4.455,4.455,0,0,0,2.021.17c.808,1.375,1.008,3.452,1.431,5,.4,1.452.724,2.94,1.185,4.374C108.781,192.135,108.916,192.535,109.021,192.928Z" transform="translate(-101.044 -178.041)" fill="#262261"/>
                  <path id="Trazado_1299048" data-name="Trazado 1299048" d="M107.78,176.243c0,.062.172.25.2.324a1.53,1.53,0,0,1,.108.445,2.868,2.868,0,0,1-.065.931c-.185.763-.4,1.52-.6,2.28a1.184,1.184,0,0,1-1.355,1.1l-3.127.225a.946.946,0,0,1-.5-.054.907.907,0,0,1-.344-.4,10.278,10.278,0,0,1-1.273-4.222.842.842,0,0,1,.047-.432c.122-.252.487-.194.724-.226.279-.038.558-.074.838-.109.588-.072,1.178-.138,1.769-.19a11.961,11.961,0,0,1,2.941-.042C107.336,175.906,107.78,175.97,107.78,176.243Z" transform="translate(-100.819 -175.796)" fill="#262261"/>
                </g>
              </g>
              <g id="Grupo_1242734" data-name="Grupo 1242734" transform="translate(8.487 0.699)">
                <path id="Trazado_1299049" data-name="Trazado 1299049" d="M118.146,173.151a1.826,1.826,0,0,1,.558,2.706l-12.519,25.955a21.888,21.888,0,0,0,1.047-3.908q.528-2.052,1.012-4.117.968-4.127,1.761-8.293t1.407-8.36q.307-2.1.57-4.2c.105-.843-.048-3.278.483-3.915C113.319,168,117.422,172.5,118.146,173.151Z" transform="translate(-91.017 -168.868)" fill="#bb8330"/>
                <path id="Trazado_1299050" data-name="Trazado 1299050" d="M83.538,173.987a2.5,2.5,0,0,0-.784,1.408,2.537,2.537,0,0,0,.485,1.4l14.93,25.307a22.831,22.831,0,0,1-1.414-3.889q-.72-2.045-1.4-4.1-1.356-4.119-2.541-8.293t-2.195-8.4q-.5-2.11-.966-4.231c-.184-.85-.263-3.347-.852-3.947C87.855,168.282,84.2,173.253,83.538,173.987Z" transform="translate(-82.751 -168.958)" fill="#bb8330"/>
              </g>
            </g>
            <g id="Grupo_1242738" data-name="Grupo 1242738" transform="translate(43.372 25.871)">
              <g id="Grupo_1242736" data-name="Grupo 1242736" transform="translate(1.691)">
                <path id="Trazado_1299051" data-name="Trazado 1299051" d="M105.959,160.686a4.66,4.66,0,0,1-1.546,2.69,5.569,5.569,0,0,1-3.776.94,10.158,10.158,0,0,1-5.7-2,8,8,0,0,1-2.3-2.818,3.749,3.749,0,0,1-.29-3.153c.819-2.673,1.081-5.486,1.634-8.218.368-1.818.814-3.773,2.21-4.993a5.01,5.01,0,0,1,5.347-.571,7.175,7.175,0,0,1,3.842,6.306c.146,2.311.348,4.618.558,6.924a18.163,18.163,0,0,1,.079,4.57C106,160.474,105.982,160.58,105.959,160.686Z" transform="translate(-92.129 -142.053)" fill="#fabe78"/>
                <path id="Trazado_1299052" data-name="Trazado 1299052" d="M104.879,159.886a3.45,3.45,0,0,1-1.33,1.41,3.286,3.286,0,0,1-2.758-.21,11.21,11.21,0,0,1-5.027-5.093,8.053,8.053,0,0,1-1.1-3.842,7.027,7.027,0,0,1,1.428-3.9,5.559,5.559,0,0,1,3.291-2.4,5.206,5.206,0,0,1,4.145,1.288C107.3,150.224,107.213,155.966,104.879,159.886Z" transform="translate(-93.022 -143.37)" fill="#bb8f5a"/>
              </g>
              <g id="Grupo_1242737" data-name="Grupo 1242737" transform="translate(0 14.142)">
                <path id="Trazado_1299053" data-name="Trazado 1299053" d="M100.208,171.464a1.2,1.2,0,0,1-.136,0,6.917,6.917,0,0,1-1.884-.792,18.375,18.375,0,0,1-3.394-1.928,9.329,9.329,0,0,1-3.565-4.818c-.4,1.491-1.561,2.748-1.7,4.287a5.6,5.6,0,0,0,1,3.293,15.9,15.9,0,0,0,7.2,6.319l2.546-5.524a9.541,9.541,0,0,1,1.946,2.157,9.275,9.275,0,0,1,1.4,2.59,11.04,11.04,0,0,0,3.074-3.264,6.462,6.462,0,0,0,1.212-4.163,7.293,7.293,0,0,0-.7-2.3,14.974,14.974,0,0,0-2.19-3.42,17.114,17.114,0,0,1-3.6,6.627C101.037,170.973,100.756,171.43,100.208,171.464Z" transform="translate(-89.516 -163.902)" fill="#fff"/>
              </g>
            </g>
            <g id="Grupo_1242745" data-name="Grupo 1242745" transform="translate(33.94)">
              <g id="Grupo_1242742" data-name="Grupo 1242742" transform="translate(8.091 7.828)">
                <path id="Trazado_1299054" data-name="Trazado 1299054" d="M98.571,145.6a19.516,19.516,0,0,1-7.074-3.834,11.024,11.024,0,0,1-3.291-4.183,15.5,15.5,0,0,1-.762-5.879,40.2,40.2,0,0,1,.883-10.179c.34-1.3.8-3.331,1.878-4.238a14.564,14.564,0,0,1,3.884-2.06c5-1.929,11.32-1.285,15.208,2.686a11.024,11.024,0,0,1,3.082,6.75,10.214,10.214,0,0,1-.328,3.645,13.537,13.537,0,0,0-.047,4.8c.258,2.163.575,4.436-.234,6.459a8.589,8.589,0,0,1-2.186,3.007A12.116,12.116,0,0,1,98.571,145.6Z" transform="translate(-87.444 -114.177)" fill="#fabe78"/>
                <g id="Grupo_1242741" data-name="Grupo 1242741" transform="translate(8.056 10.44)">
                  <path id="Trazado_1299055" data-name="Trazado 1299055" d="M114.205,138.807c.211.291.516.5.615.86a1.24,1.24,0,0,1-.6,1.372,3,3,0,0,1-1.051.362,1.42,1.42,0,0,1-1.214-.176c-.3-.271-.314-.972-.38-1.353a14.391,14.391,0,0,1-.19-1.715,14.206,14.206,0,0,1,.212-3.267c.049-.264.183-.593.451-.579.214.01.339.239.421.436a37.178,37.178,0,0,0,1.659,3.937A1.346,1.346,0,0,0,114.205,138.807Z" transform="translate(-103.937 -131.719)" fill="#fa9257"/>
                  <g id="Grupo_1242739" data-name="Grupo 1242739" transform="translate(0 0.43)">
                    <path id="Trazado_1299056" data-name="Trazado 1299056" d="M103.824,135.31a1.017,1.017,0,0,1-.125,1.047.859.859,0,0,1-1.005.23.885.885,0,0,1-.458-.634,1.2,1.2,0,0,1,.141-.782c.131-.24.406-.572.709-.513A1.2,1.2,0,0,1,103.824,135.31Z" transform="translate(-100.712 -132.27)" fill="#262261"/>
                    <path id="Trazado_1299057" data-name="Trazado 1299057" d="M104.381,131.648a2.253,2.253,0,0,0-2.386-.556,5.214,5.214,0,0,0-2.1,1.478" transform="translate(-99.89 -130.971)" fill="none" stroke="#1b1464" stroke-linecap="round" stroke-linejoin="round" stroke-miterlimit="10" stroke-width="1"/>
                  </g>
                  <g id="Grupo_1242740" data-name="Grupo 1242740" transform="translate(10.358)">
                    <path id="Trazado_1299058" data-name="Trazado 1299058" d="M119.825,135.86a1.017,1.017,0,0,1-.125,1.047.859.859,0,0,1-1.005.23.889.889,0,0,1-.458-.634,1.2,1.2,0,0,1,.141-.782c.131-.24.407-.572.709-.513A1.206,1.206,0,0,1,119.825,135.86Z" transform="translate(-116.714 -132.034)" fill="#262261"/>
                    <path id="Trazado_1299059" data-name="Trazado 1299059" d="M120.285,131.617a3.075,3.075,0,0,0-4.392-.675" transform="translate(-115.893 -130.307)" fill="none" stroke="#1b1464" stroke-linecap="round" stroke-linejoin="round" stroke-miterlimit="10" stroke-width="1"/>
                  </g>
                  <path id="Trazado_1299060" data-name="Trazado 1299060" d="M112.642,151.239a5.29,5.29,0,0,1-5.623-1.07" transform="translate(-102.405 -137.313)" fill="none" stroke="#1b1464" stroke-linecap="round" stroke-linejoin="round" stroke-miterlimit="10" stroke-width="1"/>
                </g>
              </g>
              <path id="Trazado_1299061" data-name="Trazado 1299061" d="M90.763,118.126a6.359,6.359,0,0,0-1.055.893,9.758,9.758,0,0,0-2.066,5,26.744,26.744,0,0,1-.755,3.348c-.267.814-.654,2.141-1.624,2.343a.767.767,0,0,1-.7-.169c-.32-.328-.135-.865.006-1.3a4.736,4.736,0,0,0-.03-2.917c-.221-.676-.772-1.973-1.581-2.047-1.845-.17-2.977,1.482-3.71,2.886-.107.2-2.025-2.757-2.194-3.067a16.823,16.823,0,0,1-1.764-4.324,12.924,12.924,0,0,1,3.8-12.62,18.593,18.593,0,0,1,9.944-3.908,13.811,13.811,0,0,1,6.628.537c2.247.871,4.48,3.13,4.6,5.653a7.709,7.709,0,0,1-.036,1.172,8.355,8.355,0,0,1-1.314,3.663,7.583,7.583,0,0,1-1.258,1.5,7.044,7.044,0,0,1-1.348.759C94.563,116.517,92.432,116.988,90.763,118.126Z" transform="translate(-74.944 -102.083)" fill="#262261"/>
              <g id="Grupo_1242744" data-name="Grupo 1242744" transform="translate(2.415 19.521)">
                <path id="Trazado_1299062" data-name="Trazado 1299062" d="M84.632,142.541a1.833,1.833,0,0,0,.531-.247,3.189,3.189,0,0,0,1.093-2.139,16.443,16.443,0,0,0,.284-3.318,6.162,6.162,0,0,0-.711-3.107c-1.3-2.144-4.787-1.822-6.238,0a4.626,4.626,0,0,0-.867,3.491,6.6,6.6,0,0,0,3.843,5.084A3.225,3.225,0,0,0,84.632,142.541Z" transform="translate(-78.675 -132.242)" fill="#fabe78"/>
                <g id="Grupo_1242743" data-name="Grupo 1242743" transform="translate(3.576 2.021)">
                  <path id="Trazado_1299063" data-name="Trazado 1299063" d="M86.139,140.887a4.979,4.979,0,0,0-.186-5.523" transform="translate(-84.818 -135.364)" fill="none" stroke="#1b1464" stroke-linecap="round" stroke-linejoin="round" stroke-miterlimit="10" stroke-width="1"/>
                  <path id="Trazado_1299064" data-name="Trazado 1299064" d="M86.3,139.616a3.541,3.541,0,0,0-2.1-.355" transform="translate(-84.2 -136.726)" fill="none" stroke="#1b1464" stroke-linecap="round" stroke-linejoin="round" stroke-miterlimit="10" stroke-width="1"/>
                </g>
              </g>
            </g>
          </g>
          <g id="Grupo_1242753" data-name="Grupo 1242753" transform="translate(26.554 6.79)">
            <path id="Trazado_1299065" data-name="Trazado 1299065" d="M232.735,151.915l10-14.519-11-10.867-14.393,10.178a50.539,50.539,0,0,0-16.7-6.805l-3.195-17.328-15.465.1-2.979,17.366a50.541,50.541,0,0,0-16.619,7.013l-14.519-10-10.867,11,10.178,14.393a50.544,50.544,0,0,0-6.805,16.7l-17.328,3.195.1,15.465,17.366,2.979a50.541,50.541,0,0,0,7.013,16.619l-10,14.519,11,10.867,14.393-10.178a50.544,50.544,0,0,0,16.7,6.805l3.195,17.328,15.465-.1,2.979-17.366a50.541,50.541,0,0,0,16.619-7.013l14.519,10,10.867-11-10.178-14.393a50.545,50.545,0,0,0,6.805-16.7l17.328-3.195-.1-15.465-17.366-2.979A50.559,50.559,0,0,0,232.735,151.915ZM181.211,213.64a34.858,34.858,0,0,1,0-67.4Zm17.219.149v-67.7a34.853,34.853,0,0,1,0,67.7Z" transform="translate(-84.52 -112.574)" fill="#262261"/>
            <g id="Grupo_1242750" data-name="Grupo 1242750" transform="translate(0 40.311)">
              <g id="Grupo_1242748" data-name="Grupo 1242748" transform="translate(59.938 39.964)">
                <path id="Trazado_1299066" data-name="Trazado 1299066" d="M165.278,252.118a20.85,20.85,0,0,1-5.434-1.565c-1.4-.617-3.413-1.264-3.666-2.957a7.045,7.045,0,0,1,.044-1.814,12.991,12.991,0,0,1,.931-4.151,5.152,5.152,0,0,1,1.412-1.828,12.18,12.18,0,0,1,1.933-.97c1.393-.773,2.759-1.915,4.369-2.178a8.254,8.254,0,0,1,2.688.155l3.126.528c.506.085,1.263.221,1.4.811a1.289,1.289,0,0,1-.747,1.356,3.1,3.1,0,0,1-1.586.086l-2.232-.269a9.07,9.07,0,0,0,5.832.959,5.4,5.4,0,0,1,1.932-.17,1.33,1.33,0,0,1,1.163,1.331c-.1.673-.849,1.01-1.493,1.228a2.158,2.158,0,0,1,2.059.528,1.334,1.334,0,0,1-.155,1.949,1.25,1.25,0,0,1,1.486.475c.5.8-.194,1.584-.7,2.165a3.753,3.753,0,0,1-1.457.947c.472-.017,1.045.02,1.264.438a1.02,1.02,0,0,1-.315,1.124,5.353,5.353,0,0,1-2.4,1,20.9,20.9,0,0,1-9.459.823Z" transform="translate(-156.135 -236.596)" fill="#fabe78"/>
                <g id="Grupo_1242747" data-name="Grupo 1242747" transform="translate(9.024 5)">
                  <path id="Trazado_1299067" data-name="Trazado 1299067" d="M170.076,244.32a7.133,7.133,0,0,0,4.765,2.447,7.049,7.049,0,0,0,2.52-.249,5.224,5.224,0,0,0,2.241-1.109c-.232-.074-.558.085-.79.137q-.466.1-.939.169a12.8,12.8,0,0,1-5.754-.513A12.329,12.329,0,0,1,170.076,244.32Z" transform="translate(-170.076 -244.32)" fill="#bb8f5a"/>
                  <path id="Trazado_1299068" data-name="Trazado 1299068" d="M177.394,250.883a19.574,19.574,0,0,1-5.135-.824,4.921,4.921,0,0,0,3.154,1.642,8.142,8.142,0,0,0,3.585-.425,16.22,16.22,0,0,0,1.672-.665,6.125,6.125,0,0,0,1.424-.718A10.977,10.977,0,0,1,177.394,250.883Z" transform="translate(-170.846 -246.286)" fill="#bb8f5a"/>
                  <path id="Trazado_1299069" data-name="Trazado 1299069" d="M172.66,255.544a1.865,1.865,0,0,0,1.063,1.189,5.578,5.578,0,0,0,2.867.525,16.424,16.424,0,0,0,2.9-.511,6.652,6.652,0,0,0,1.473-.477,1.778,1.778,0,0,0,.828-.688c-.282-.17-1.267.318-1.6.4a12.889,12.889,0,0,1-1.8.3,13.022,13.022,0,0,1-3.711-.174A12.5,12.5,0,0,1,172.66,255.544Z" transform="translate(-170.987 -248.279)" fill="#bb8f5a"/>
                </g>
              </g>
              <g id="Grupo_1242749" data-name="Grupo 1242749">
                <path id="Trazado_1299070" data-name="Trazado 1299070" d="M68.7,204.5c5.666,9.5,15.283,16.208,25.687,19.96q2.5.9,5.071,1.6a86.043,86.043,0,0,0,13.762,2.519c2.33.245,4.668.414,7.008.522,2.211.1,4.511-.082,6.646.475.082-1.1.682-12.541,1.076-12.539-7.458-.037-14.211-.188-20.961-2.563a50.74,50.74,0,0,1-10.473-4.692,42.086,42.086,0,0,1-9.566-8.858,83.685,83.685,0,0,1-8.035-11.5A57.172,57.172,0,0,1,73.9,177.61a5.6,5.6,0,0,0-1-2.113c-1.007-1.124-2.137-.573-3.194.107a13.871,13.871,0,0,0-5.758,8.666C62.44,191.041,65.249,198.712,68.7,204.5Z" transform="translate(-63.533 -174.852)" fill="#bb8330"/>
                <path id="Trazado_1299071" data-name="Trazado 1299071" d="M95.717,235.239a9.044,9.044,0,0,1,8.2,6.671" transform="translate(-74.885 -196.153)" fill="none" stroke="#1b1464" stroke-linecap="round" stroke-linejoin="round" stroke-miterlimit="10" stroke-width="1"/>
              </g>
            </g>
            <g id="Grupo_1242752" data-name="Grupo 1242752" transform="translate(62.725 60.4)">
              <path id="Trazado_1299072" data-name="Trazado 1299072" d="M175.7,216.924c-.008.1-.018.191-.029.286a9.865,9.865,0,0,1-.53,2.248,3.182,3.182,0,0,1-1.973,2.3,19.184,19.184,0,0,1-4.583,1.106,12.281,12.281,0,0,1-5.036-.79,3.907,3.907,0,0,1-1.3-.7,1.594,1.594,0,0,1-.568-1.312,1.017,1.017,0,0,1,.986-.917c-.724-.041-1.41-1.224-1.6-1.807-.224-.7-.16-2.124,1-1.712-1.041-.2-2.4-1.926-1.093-2.7a1.571,1.571,0,0,1,1.241-.02,4.392,4.392,0,0,1-1.047-.875,1.327,1.327,0,0,1,1.01-2.25,4.391,4.391,0,0,1,1.718.3,1.825,1.825,0,0,1,.306-2.458,2.318,2.318,0,0,1,1.828-.132,5.979,5.979,0,0,0,1.847.339,1.341,1.341,0,0,0,1.314-1.115c.012-.307-.054-.739.245-.811a.514.514,0,0,1,.374.112,12.732,12.732,0,0,1,5.376,6.614A10.629,10.629,0,0,1,175.7,216.924Z" transform="translate(-160.44 -205.89)" fill="#fabe78"/>
              <g id="Grupo_1242751" data-name="Grupo 1242751" transform="translate(1.129 4.309)">
                <path id="Trazado_1299073" data-name="Trazado 1299073" d="M173.975,213.754a3.814,3.814,0,0,1-2.368.767,7.716,7.716,0,0,1-5.521-1.974A12.88,12.88,0,0,0,173.975,213.754Z" transform="translate(-163.56 -212.547)" fill="#bb8f5a"/>
                <path id="Trazado_1299074" data-name="Trazado 1299074" d="M167.212,217.878a21.6,21.6,0,0,0,4.314-.389c-.078.5-.623.77-1.11.907a7.659,7.659,0,0,1-5.773-.743,7.3,7.3,0,0,1-1.366-1A6.871,6.871,0,0,0,167.212,217.878Z" transform="translate(-162.57 -213.996)" fill="#bb8f5a"/>
                <path id="Trazado_1299075" data-name="Trazado 1299075" d="M169.675,222.173a2.6,2.6,0,0,1-1.965.811,6.841,6.841,0,0,1-2.141-.426c-1.116-.361-2.781-.892-3.385-2a4.15,4.15,0,0,1,.673.455,6.1,6.1,0,0,0,1.339.644,10.92,10.92,0,0,0,3.467.658A10.58,10.58,0,0,0,169.675,222.173Z" transform="translate(-162.184 -215.372)" fill="#bb8f5a"/>
                <path id="Trazado_1299076" data-name="Trazado 1299076" d="M170.059,226.808a.835.835,0,0,1-.568.731,2.3,2.3,0,0,1-.973.089,8.873,8.873,0,0,1-4.41-1.115,8.548,8.548,0,0,1,1.36.389,9.448,9.448,0,0,0,1.529.221A9.35,9.35,0,0,0,170.059,226.808Z" transform="translate(-162.862 -217.473)" fill="#bb8f5a"/>
              </g>
            </g>
          </g>
        </g>
      </g>
    </g>
  </g>
</svg>
