<svg xmlns="http://www.w3.org/2000/svg" xmlns:xlink="http://www.w3.org/1999/xlink" width="108" height="108" viewBox="0 0 108 108">
  <defs>
    <filter id="Trazado_904820" x="0" y="0" width="108" height="108" filterUnits="userSpaceOnUse">
      <feOffset dy="3" input="SourceAlpha"/>
      <feGaussianBlur stdDeviation="3" result="blur"/>
      <feFlood flood-opacity="0.161"/>
      <feComposite operator="in" in2="blur"/>
      <feComposite in="SourceGraphic"/>
    </filter>
  </defs>
  <g id="Grupo_1241605" data-name="Grupo 1241605" transform="translate(-198 -489)">
    <g id="Grupo_1235637" data-name="Grupo 1235637" transform="translate(0 -46.1)">
      <g id="Grupo_1235127" data-name="Grupo 1235127" transform="translate(0 11.1)">
        <g id="Grupo_1233829" data-name="Grupo 1233829" transform="translate(207 530)">
          <g id="Grupo_1228307" data-name="Grupo 1228307" transform="translate(0 0)">
            <g id="Grupo_1228100" data-name="Grupo 1228100" transform="translate(0)">
              <g id="Grupo_1221597" data-name="Grupo 1221597">
                <g id="Grupo_1219744" data-name="Grupo 1219744">
                  <g id="Grupo_1202418" data-name="Grupo 1202418">
                    <g id="Grupo_1177315" data-name="Grupo 1177315">
                      <g id="Grupo_1173585" data-name="Grupo 1173585">
                        <g id="Grupo_1173428" data-name="Grupo 1173428">
                          <g id="Grupo_1171958" data-name="Grupo 1171958">
                            <g id="Grupo_1167341" data-name="Grupo 1167341">
                              <g id="Grupo_1166792" data-name="Grupo 1166792">
                                <g transform="matrix(1, 0, 0, 1, -9, -6)" filter="url(#Trazado_904820)">
                                  <g id="Trazado_904820-2" data-name="Trazado 904820" transform="translate(9 6)" fill="#fff4e6">
                                    <path d="M 44.99999618530273 88.49994659423828 C 39.12687301635742 88.49994659423828 33.43022155761719 87.35002136230469 28.06829643249512 85.08212280273438 C 22.88852119445801 82.89125823974609 18.23629570007324 79.75454711914062 14.24084663391113 75.75910186767578 C 10.24540901184082 71.76364898681641 7.108683586120605 67.11143493652344 4.917821407318115 61.93165969848633 C 2.649921178817749 56.56973648071289 1.499996185302734 50.87309646606445 1.499996185302734 44.99997329711914 C 1.499996185302734 39.12685012817383 2.649921178817749 33.43021011352539 4.917821407318115 28.06828498840332 C 7.108683586120605 22.88851165771484 10.24540901184082 18.23629760742188 14.24084663391113 14.24084854125977 C 18.23629570007324 10.24539852142334 22.88852119445801 7.108685970306396 28.06829643249512 4.917823314666748 C 33.43022155761719 2.649923324584961 39.12687301635742 1.499998331069946 44.99999618530273 1.499998331069946 C 50.87311935424805 1.499998331069946 56.56977081298828 2.649923324584961 61.93169784545898 4.917823314666748 C 67.11147308349609 7.108685970306396 71.76369476318359 10.24539852142334 75.75914764404297 14.24084854125977 C 79.75458526611328 18.23629760742188 82.89131164550781 22.88851165771484 85.08216857910156 28.06828498840332 C 87.35007476806641 33.43021011352539 88.5 39.12685012817383 88.5 44.99997329711914 C 88.5 50.87309646606445 87.35007476806641 56.56973648071289 85.08216857910156 61.93165969848633 C 82.89131164550781 67.11143493652344 79.75458526611328 71.76364898681641 75.75914764404297 75.75910186767578 C 71.76369476318359 79.75454711914062 67.11147308349609 82.89125823974609 61.93169784545898 85.08212280273438 C 56.56977081298828 87.35002136230469 50.87311935424805 88.49994659423828 44.99999618530273 88.49994659423828 Z" stroke="none"/>
                                    <path d="M 44.99999618530273 3 C 39.32870864868164 3 33.82865142822266 4.110061645507812 28.65262603759766 6.299331665039062 C 23.65165710449219 8.414573669433594 19.15968322753906 11.44332885742188 15.301513671875 15.30149841308594 C 11.44333648681641 19.15969085693359 8.414566040039062 23.65164184570312 6.299339294433594 28.65261459350586 C 4.110054016113281 33.82864379882812 2.999992370605469 39.32868576049805 2.999992370605469 44.99997329711914 C 2.999992370605469 50.67126083374023 4.110054016113281 56.17130279541016 6.299339294433594 61.34732818603516 C 8.414566040039062 66.34829711914062 11.44333648681641 70.84025573730469 15.301513671875 74.69844055175781 C 19.15968322753906 78.55661773681641 23.65165710449219 81.58537292480469 28.65262603759766 83.70061492919922 C 33.82865142822266 85.88988494873047 39.32870864868164 86.99994659423828 44.99999618530273 86.99994659423828 C 50.67128372192383 86.99994659423828 56.17134094238281 85.88988494873047 61.34736633300781 83.70061492919922 C 66.34834289550781 81.58537292480469 70.84030914306641 78.55661773681641 74.69847869873047 74.69844055175781 C 78.55665588378906 70.84025573730469 81.58542633056641 66.34829711914062 83.70065307617188 61.34732818603516 C 85.88993835449219 56.17130279541016 87 50.67126083374023 87 44.99997329711914 C 87 39.32868576049805 85.88993835449219 33.82864379882812 83.70065307617188 28.65261459350586 C 81.58542633056641 23.65164184570312 78.55665588378906 19.15969085693359 74.69847869873047 15.30149841308594 C 70.84030914306641 11.44332885742188 66.34834289550781 8.414573669433594 61.34736633300781 6.299331665039062 C 56.17134094238281 4.110061645507812 50.67128372192383 3 44.99999618530273 3 M 44.99999618530273 0 C 69.85281372070312 0 90 20.14717102050781 90 44.99997329711914 C 90 69.85277557373047 69.85281372070312 89.99994659423828 44.99999618530273 89.99994659423828 C 20.14717864990234 89.99994659423828 -7.62939453125e-06 69.85277557373047 -7.62939453125e-06 44.99997329711914 C -7.62939453125e-06 20.14717102050781 20.14717864990234 0 44.99999618530273 0 Z" stroke="none" fill="#8b550e"/>
                                  </g>
                                </g>
                              </g>
                            </g>
                          </g>
                        </g>
                      </g>
                    </g>
                  </g>
                </g>
              </g>
            </g>
          </g>
        </g>
      </g>
    </g>
    <g id="gestion-de-proyectos_4_" data-name="gestion-de-proyectos (4)" transform="translate(205.953 510.741)">
      <g id="Grupo_1241589" data-name="Grupo 1241589" transform="translate(22.07 0.857)">
        <path id="Trazado_1297608" data-name="Trazado 1297608" d="M31.024,7.5H60.548a2.31,2.31,0,0,1,1.633.676l9.731,9.731a2.309,2.309,0,0,1,.676,1.633V61.995A2.309,2.309,0,0,1,70.279,64.3H31.024a2.309,2.309,0,0,1-2.309-2.309V9.809A2.309,2.309,0,0,1,31.024,7.5Z" transform="translate(-28.715 -7.5)" fill="#e6f7fe"/>
      </g>
      <g id="Grupo_1241590" data-name="Grupo 1241590" transform="translate(51.857 0.857)">
        <path id="Trazado_1297609" data-name="Trazado 1297609" d="M302.746,17.907l-9.731-9.731a2.31,2.31,0,0,0-1.633-.676h-2.045v8.775a5.311,5.311,0,0,0,5.311,5.311h3.464a2.309,2.309,0,0,1,2.309,2.309v38.1a2.309,2.309,0,0,1-2.309,2.309h3a2.309,2.309,0,0,0,2.309-2.309V19.54a2.309,2.309,0,0,0-.676-1.633Z" transform="translate(-289.337 -7.5)" fill="#d3effd"/>
      </g>
      <g id="Grupo_1241591" data-name="Grupo 1241591" transform="translate(54.859 1.067)">
        <path id="Trazado_1297610" data-name="Trazado 1297610" d="M315.6,17.9a2.309,2.309,0,0,0,2.309,2.309h8.564a2.307,2.307,0,0,0-.466-.676l-9.731-9.731a2.3,2.3,0,0,0-.676-.466Z" transform="translate(-315.601 -9.339)" fill="#b2e5fb"/>
      </g>
      <g id="Grupo_1241596" data-name="Grupo 1241596" transform="translate(27.842 16.559)">
        <g id="Grupo_1241593" data-name="Grupo 1241593">
          <g id="Grupo_1241592" data-name="Grupo 1241592">
            <path id="Trazado_1297611" data-name="Trazado 1297611" d="M91.462,161.046H80.84a1.616,1.616,0,0,1-1.616-1.616V146.5a1.616,1.616,0,0,1,1.616-1.616H91.462a1.616,1.616,0,0,1,1.616,1.616v12.931A1.616,1.616,0,0,1,91.462,161.046Z" transform="translate(-79.224 -144.882)" fill="#f7e365"/>
          </g>
        </g>
        <g id="Grupo_1241595" data-name="Grupo 1241595" transform="translate(18.473)">
          <g id="Grupo_1241594" data-name="Grupo 1241594">
            <path id="Trazado_1297612" data-name="Trazado 1297612" d="M253.088,161.046H242.466a1.616,1.616,0,0,1-1.616-1.616V146.5a1.616,1.616,0,0,1,1.616-1.616h10.622A1.616,1.616,0,0,1,254.7,146.5v12.931A1.616,1.616,0,0,1,253.088,161.046Z" transform="translate(-240.85 -144.882)" fill="#f7e365"/>
          </g>
        </g>
      </g>
      <g id="Grupo_1241601" data-name="Grupo 1241601" transform="translate(46.315 26.257)">
        <g id="Grupo_1241597" data-name="Grupo 1241597">
          <path id="Trazado_1297613" data-name="Trazado 1297613" d="M268.557,244.883V242.3l-2.934-.611a11.01,11.01,0,0,0-.509-1.908l2.234-2-1.293-2.24-2.849.938a11.158,11.158,0,0,0-1.394-1.394l.938-2.849-2.24-1.293-2,2.234a11.014,11.014,0,0,0-1.908-.509L256,229.735H253.41l-.611,2.934a11,11,0,0,0-1.908.509l-2-2.234-2.24,1.293.938,2.849a11.156,11.156,0,0,0-1.394,1.394l-2.849-.938-1.293,2.24,2.234,2a11,11,0,0,0-.509,1.908l-2.935.611v2.586l2.935.611a11,11,0,0,0,.509,1.908l-2.234,2,1.293,2.24,2.849-.938a11.162,11.162,0,0,0,1.394,1.394l-.938,2.849,2.24,1.293,2-2.234a11.012,11.012,0,0,0,1.908.509l.611,2.935H256l.611-2.935a11.006,11.006,0,0,0,1.908-.509l2,2.234,2.24-1.293-.938-2.849a11.148,11.148,0,0,0,1.394-1.394l2.849.938,1.293-2.24-2.234-2a11.014,11.014,0,0,0,.509-1.908Z" transform="translate(-240.848 -229.735)" fill="#62a4fb"/>
        </g>
        <g id="Grupo_1241598" data-name="Grupo 1241598" transform="translate(5.808 5.807)">
          <path id="Trazado_1297614" data-name="Trazado 1297614" d="M313.562,289.887V287.3l-2.934-.611a11.008,11.008,0,0,0-.509-1.908l2.234-2-1.293-2.24-2.58.85a14.151,14.151,0,0,1-16.053,16.223l-.766,2.327,2.24,1.293,2-2.234a11.019,11.019,0,0,0,1.908.509l.611,2.934H301l.611-2.934a11.009,11.009,0,0,0,1.908-.509l2,2.234,2.24-1.293-.938-2.849a11.152,11.152,0,0,0,1.394-1.394l2.849.938,1.293-2.24-2.234-2a11.011,11.011,0,0,0,.509-1.908Z" transform="translate(-291.66 -280.547)" fill="#5392f9"/>
        </g>
        <g id="Grupo_1241599" data-name="Grupo 1241599" transform="translate(6.35 6.35)">
          <circle id="Elipse_11558" data-name="Elipse 11558" cx="7.505" cy="7.505" r="7.505" fill="#e6f7fe"/>
        </g>
        <g id="Grupo_1241600" data-name="Grupo 1241600" transform="translate(11.084 11.084)">
          <circle id="Elipse_11559" data-name="Elipse 11559" cx="2.771" cy="2.771" r="2.771" fill="#62a4fb"/>
        </g>
      </g>
      <g id="Grupo_1241602" data-name="Grupo 1241602" transform="translate(27.842 4.552)">
        <path id="Trazado_1297615" data-name="Trazado 1297615" d="M79.223,39.825H99.312V43.52H79.223Z" transform="translate(-79.223 -39.825)" fill="#e175a5"/>
      </g>
      <g id="Grupo_1241603" data-name="Grupo 1241603" transform="translate(27.842 50.272)">
        <path id="Trazado_1297616" data-name="Trazado 1297616" d="M79.223,439.85H94v3.695H79.223Z" transform="translate(-79.223 -439.85)" fill="#ad7fdd"/>
      </g>
      <g id="Grupo_1241604" data-name="Grupo 1241604" transform="translate(21.212 0)">
        <path id="Trazado_1297617" data-name="Trazado 1297617" d="M22.069,46.86A.857.857,0,0,0,22.926,46V3.166a1.454,1.454,0,0,1,1.453-1.452H53.9c.033,0,.066,0,.1,0V9.632A3.17,3.17,0,0,0,57.168,12.8h7.913c0,.033.005.066.005.1v4.51a.857.857,0,1,0,1.714,0V12.9a3.187,3.187,0,0,0-.928-2.238L56.142.928A3.147,3.147,0,0,0,53.9,0H24.379a3.17,3.17,0,0,0-3.167,3.166V46a.857.857,0,0,0,.857.857Zm41.8-35.777H57.168a1.454,1.454,0,0,1-1.452-1.452V2.927Z" transform="translate(-21.212 0)"/>
        <path id="Trazado_1297618" data-name="Trazado 1297618" d="M71.722,152.785a2.476,2.476,0,0,0,2.473,2.473H84.818a2.476,2.476,0,0,0,2.473-2.473v-6.114a.857.857,0,1,0-1.714,0v6.114a.76.76,0,0,1-.759.759H74.2a.76.76,0,0,1-.759-.759V139.853a.76.76,0,0,1,.759-.759H84.818a.76.76,0,0,1,.759.759v2.82a.857.857,0,0,0,1.714,0v-2.82a2.476,2.476,0,0,0-2.473-2.473H74.2a2.476,2.476,0,0,0-2.473,2.473Z" transform="translate(-65.949 -121.678)"/>
        <path id="Trazado_1297619" data-name="Trazado 1297619" d="M104.906,171.422h2.771a.857.857,0,1,0,0-1.714h-2.771a.857.857,0,1,0,0,1.714Z" transform="translate(-94.581 -150.311)"/>
        <path id="Trazado_1297620" data-name="Trazado 1297620" d="M111.371,202.033h-6.465a.857.857,0,1,0,0,1.714h6.465a.857.857,0,1,0,0-1.714Z" transform="translate(-94.58 -178.942)"/>
        <path id="Trazado_1297621" data-name="Trazado 1297621" d="M111.371,234.358h-6.465a.857.857,0,0,0,0,1.714h6.465a.857.857,0,0,0,0-1.714Z" transform="translate(-94.58 -207.572)"/>
        <path id="Trazado_1297622" data-name="Trazado 1297622" d="M266.532,171.422H269.3a.857.857,0,1,0,0-1.714h-2.771a.857.857,0,0,0,0,1.714Z" transform="translate(-237.734 -150.311)"/>
        <path id="Trazado_1297623" data-name="Trazado 1297623" d="M266.532,203.747H272.3a.857.857,0,1,0,0-1.714h-5.773a.857.857,0,0,0,0,1.714Z" transform="translate(-237.734 -178.942)"/>
        <path id="Trazado_1297624" data-name="Trazado 1297624" d="M74.2,159.66l-2.379-.5c-.07-.311-.152-.619-.246-.922l1.812-1.618a.857.857,0,0,0,.171-1.068l-1.293-2.24a.857.857,0,0,0-1.01-.386l-2.311.761q-.323-.349-.673-.673l.761-2.311a.857.857,0,0,0-.386-1.011L66.8,148.633v-5.545a.857.857,0,0,0-1.714,0v5.771l-1.366,1.53c-.3-.094-.611-.176-.922-.246l-.5-2.379a.857.857,0,0,0-.839-.682h-.436v-7.225a2.476,2.476,0,0,0-2.474-2.474H47.931a2.476,2.476,0,0,0-2.474,2.474v12.931a2.477,2.477,0,0,0,1.59,2.31l-.265.46a.857.857,0,0,0,.171,1.068l1.812,1.618q-.141.455-.246.922l-2.379.5a.857.857,0,0,0-.682.839v2.586a.857.857,0,0,0,.682.839l2.379.5q.1.466.246.922l-1.812,1.618a.857.857,0,0,0-.171,1.068l1.293,2.24a.857.857,0,0,0,1.01.386l2.311-.761q.323.349.673.673l-.761,2.311a.857.857,0,0,0,.386,1.011l2.24,1.293A.857.857,0,0,0,55,175.008L56.62,173.2q.455.141.922.246l.5,2.379a.857.857,0,0,0,.839.682h2.586a.857.857,0,0,0,.839-.682l.5-2.379c.311-.07.619-.152.922-.246l1.366,1.53v2.307a1.454,1.454,0,0,1-1.453,1.452H24.379a1.454,1.454,0,0,1-1.453-1.452v-5.349a.857.857,0,1,0-1.714,0v5.349a3.17,3.17,0,0,0,3.167,3.166H63.633a3.17,3.17,0,0,0,3.167-3.166v-2.081l1.845-1.065a.857.857,0,0,0,.386-1.011l-.761-2.311q.349-.323.673-.673l2.311.761a.857.857,0,0,0,1.01-.386l1.293-2.24a.857.857,0,0,0-.171-1.068l-1.812-1.618q.141-.455.246-.922l2.379-.5a.857.857,0,0,0,.682-.839V160.5A.857.857,0,0,0,74.2,159.66Zm-26.268-6.114a.76.76,0,0,1-.759-.759V139.856a.76.76,0,0,1,.759-.759H58.553a.76.76,0,0,1,.759.759v7.225h-.436a.857.857,0,0,0-.839.682l-.5,2.379c-.311.07-.619.152-.922.246L55,148.576a.857.857,0,0,0-1.068-.171l-2.24,1.293a.857.857,0,0,0-.386,1.01l.761,2.311q-.349.323-.673.672l-2.311-.761a.857.857,0,0,0-1.011.386l-.132.229h-.012Zm25.236,8.842-2.252.469a.857.857,0,0,0-.67.693,10.178,10.178,0,0,1-.47,1.759.857.857,0,0,0,.234.934l1.714,1.531-.6,1.032-2.187-.72a.858.858,0,0,0-.926.264,10.317,10.317,0,0,1-1.287,1.287.858.858,0,0,0-.264.926l.72,2.187-1.032.6-1.531-1.714a.857.857,0,0,0-.934-.234,10.178,10.178,0,0,1-1.759.47.857.857,0,0,0-.693.67l-.469,2.252H59.574l-.469-2.252a.857.857,0,0,0-.693-.67,10.178,10.178,0,0,1-1.759-.47.857.857,0,0,0-.934.234l-1.531,1.714-1.033-.6.72-2.187a.857.857,0,0,0-.264-.926,10.309,10.309,0,0,1-1.287-1.287.857.857,0,0,0-.926-.264l-2.187.72-.6-1.032,1.714-1.531a.857.857,0,0,0,.234-.934,10.173,10.173,0,0,1-.47-1.759.857.857,0,0,0-.67-.693l-2.252-.469V161.2l2.252-.469a.857.857,0,0,0,.67-.693,10.173,10.173,0,0,1,.47-1.759.857.857,0,0,0-.234-.934l-1.714-1.531.6-1.032,2.187.72a.857.857,0,0,0,.926-.264,10.311,10.311,0,0,1,1.287-1.287.857.857,0,0,0,.264-.926l-.72-2.187,1.032-.6,1.531,1.714a.857.857,0,0,0,.934.234,10.169,10.169,0,0,1,1.759-.47.857.857,0,0,0,.693-.67l.469-2.252h1.192l.469,2.252a.857.857,0,0,0,.693.67,10.181,10.181,0,0,1,1.759.47.857.857,0,0,0,.934-.234l1.531-1.714,1.032.6-.72,2.187a.857.857,0,0,0,.264.926,10.318,10.318,0,0,1,1.287,1.287.857.857,0,0,0,.926.264l2.187-.72.6,1.033-1.714,1.531a.857.857,0,0,0-.234.934,10.179,10.179,0,0,1,.47,1.759.857.857,0,0,0,.67.693l2.252.469v1.192Z" transform="translate(-21.212 -121.68)"/>
        <path id="Trazado_1297625" data-name="Trazado 1297625" d="M333.953,319.211a3.628,3.628,0,1,0,3.628,3.628A3.632,3.632,0,0,0,333.953,319.211Zm0,5.542a1.914,1.914,0,1,1,1.914-1.914A1.916,1.916,0,0,1,333.953,324.753Z" transform="translate(-294.995 -282.727)"/>
        <path id="Trazado_1297626" data-name="Trazado 1297626" d="M297.271,277.8a8.362,8.362,0,1,0,8.362,8.362A8.371,8.371,0,0,0,297.271,277.8Zm0,15.009a6.647,6.647,0,1,1,6.647-6.647A6.655,6.655,0,0,1,297.271,292.8Z" transform="translate(-258.313 -246.045)"/>
        <path id="Trazado_1297627" data-name="Trazado 1297627" d="M93.527,33.182a.857.857,0,0,0-.857-.857H72.58a.857.857,0,0,0-.857.857v3.695a.857.857,0,0,0,.857.857H92.669a.857.857,0,0,0,.857-.857ZM91.812,36.02H73.437v-1.98H91.812Z" transform="translate(-65.95 -28.63)"/>
        <path id="Trazado_1297628" data-name="Trazado 1297628" d="M72.58,437.759H87.358a.857.857,0,0,0,.857-.857v-3.695a.857.857,0,0,0-.857-.857H72.58a.857.857,0,0,0-.857.857V436.9A.857.857,0,0,0,72.58,437.759Zm.857-3.695H86.5v1.98H73.437Z" transform="translate(-65.95 -382.935)"/>
        <path id="Trazado_1297629" data-name="Trazado 1297629" d="M76.275,98.69a.857.857,0,1,0,0-1.714H72.58a.857.857,0,0,0,0,1.714Z" transform="translate(-65.95 -85.892)"/>
        <path id="Trazado_1297630" data-name="Trazado 1297630" d="M150.788,97.833a.857.857,0,0,0-.857-.857h-12.7a.857.857,0,1,0,0,1.714h12.7A.857.857,0,0,0,150.788,97.833Z" transform="translate(-123.212 -85.892)"/>
        <path id="Trazado_1297631" data-name="Trazado 1297631" d="M160.724,329.313h-5.311a.857.857,0,1,0,0,1.714h5.311a.857.857,0,1,0,0-1.714Z" transform="translate(-139.316 -291.675)"/>
        <path id="Trazado_1297632" data-name="Trazado 1297632" d="M102.885,329.313a.857.857,0,1,0,0,1.714h2.309a.857.857,0,1,0,0-1.714Z" transform="translate(-92.791 -291.675)"/>
        <path id="Trazado_1297633" data-name="Trazado 1297633" d="M87.359,361.638H72.58a.857.857,0,0,0,0,1.714H87.359a.857.857,0,0,0,0-1.714Z" transform="translate(-65.95 -320.305)"/>
        <path id="Trazado_1297634" data-name="Trazado 1297634" d="M72.58,395.677h8.775a.857.857,0,0,0,0-1.714H72.58a.857.857,0,0,0,0,1.714Z" transform="translate(-65.95 -348.935)"/>
        <path id="Trazado_1297635" data-name="Trazado 1297635" d="M183.987,393.963h-2.309a.857.857,0,0,0,0,1.714h2.309a.857.857,0,0,0,0-1.714Z" transform="translate(-162.579 -348.935)"/>
      </g>
    </g>
  </g>
</svg>
