<svg xmlns="http://www.w3.org/2000/svg" xmlns:xlink="http://www.w3.org/1999/xlink" width="106.16" height="106.16" viewBox="0 0 106.16 106.16">
  <defs>
    <filter id="Trazado_982547" x="0" y="0" width="106.16" height="106.16" filterUnits="userSpaceOnUse">
      <feOffset dy="3" input="SourceAlpha"/>
      <feGaussianBlur stdDeviation="3" result="blur"/>
      <feFlood flood-opacity="0.161"/>
      <feComposite operator="in" in2="blur"/>
      <feComposite in="SourceGraphic"/>
    </filter>
  </defs>
  <g id="Grupo_1241288" data-name="Grupo 1241288" transform="translate(-190.42 -1121)">
    <g id="Grupo_1235585" data-name="Grupo 1235585" transform="translate(0 -4)">
      <g id="Grupo_1235128" data-name="Grupo 1235128" transform="translate(199.42 1131)">
        <g id="Grupo_1233884" data-name="Grupo 1233884" transform="translate(0 0)">
          <g id="Grupo_1228506" data-name="Grupo 1228506" transform="translate(0 0)">
            <g id="Grupo_1206132" data-name="Grupo 1206132" transform="translate(0 0)">
              <g id="Grupo_1203794" data-name="Grupo 1203794">
                <g id="Grupo_1203345" data-name="Grupo 1203345">
                  <g id="Grupo_1177900" data-name="Grupo 1177900">
                    <g id="Grupo_1172010" data-name="Grupo 1172010">
                      <g id="Grupo_1171046" data-name="Grupo 1171046">
                        <g id="Grupo_1148525" data-name="Grupo 1148525">
                          <g transform="matrix(1, 0, 0, 1, -9, -6)" filter="url(#Trazado_982547)">
                            <g id="Trazado_982547-2" data-name="Trazado 982547" transform="translate(9 6)" fill="#e9f9fd">
                              <path d="M 44.0802001953125 86.660400390625 C 38.33124923706055 86.660400390625 32.75506210327148 85.53479766845703 27.50652503967285 83.31484985351562 C 22.43628692626953 81.17032623291016 17.88242530822754 78.09992218017578 13.97144985198975 74.18894958496094 C 10.06047534942627 70.27797698974609 6.99007511138916 65.72411346435547 4.845550060272217 60.65387344360352 C 2.625600099563599 55.40533828735352 1.500000238418579 49.82915115356445 1.500000238418579 44.0802001953125 C 1.500000238418579 38.33124923706055 2.625600099563599 32.75506210327148 4.845550060272217 27.50652503967285 C 6.99007511138916 22.43628692626953 10.06047534942627 17.88242530822754 13.97144985198975 13.97144985198975 C 17.88242530822754 10.06047534942627 22.43628692626953 6.99007511138916 27.50652503967285 4.845550060272217 C 32.75506210327148 2.625600099563599 38.33124923706055 1.500000238418579 44.0802001953125 1.500000238418579 C 49.82915115356445 1.500000238418579 55.40533828735352 2.625600099563599 60.65387344360352 4.845550060272217 C 65.72411346435547 6.99007511138916 70.27797698974609 10.06047534942627 74.18894958496094 13.97144985198975 C 78.09992218017578 17.88242530822754 81.17032623291016 22.43628692626953 83.31484985351562 27.50652503967285 C 85.53479766845703 32.75506210327148 86.660400390625 38.33124923706055 86.660400390625 44.0802001953125 C 86.660400390625 49.82915115356445 85.53479766845703 55.40533828735352 83.31484985351562 60.65387344360352 C 81.17032623291016 65.72411346435547 78.09992218017578 70.27797698974609 74.18894958496094 74.18894958496094 C 70.27797698974609 78.09992218017578 65.72411346435547 81.17032623291016 60.65387344360352 83.31484985351562 C 55.40533828735352 85.53479766845703 49.82915115356445 86.660400390625 44.0802001953125 86.660400390625 Z" stroke="none"/>
                              <path d="M 44.0802001953125 3 C 38.53308486938477 3 33.15349960327148 4.085746765136719 28.09085845947266 6.227058410644531 C 23.19941711425781 8.29595947265625 18.80581665039062 11.25841522216797 15.03211212158203 15.03211212158203 C 11.25841522216797 18.80581665039062 8.29595947265625 23.19941711425781 6.227058410644531 28.09085845947266 C 4.085746765136719 33.15349960327148 3 38.53308486938477 3 44.0802001953125 C 3 49.62731552124023 4.085746765136719 55.00691604614258 6.227058410644531 60.06954193115234 C 8.29595947265625 64.96098327636719 11.25841522216797 69.35458374023438 15.03211212158203 73.12828826904297 C 18.80581665039062 76.90198516845703 23.19941711425781 79.86444091796875 28.09085845947266 81.93334197998047 C 33.15349960327148 84.07466125488281 38.53308486938477 85.160400390625 44.0802001953125 85.160400390625 C 49.62731552124023 85.160400390625 55.00691604614258 84.07466125488281 60.06954193115234 81.93334197998047 C 64.96099853515625 79.86444091796875 69.35458374023438 76.90198516845703 73.12828826904297 73.12828826904297 C 76.90198516845703 69.35458374023438 79.86444091796875 64.96099853515625 81.93334197998047 60.06954193115234 C 84.07466125488281 55.00691604614258 85.160400390625 49.62731552124023 85.160400390625 44.0802001953125 C 85.160400390625 38.53308486938477 84.07466125488281 33.15349960327148 81.93334197998047 28.09085845947266 C 79.86444091796875 23.19941711425781 76.90198516845703 18.80581665039062 73.12828826904297 15.03211212158203 C 69.35458374023438 11.25841522216797 64.96098327636719 8.29595947265625 60.06954193115234 6.227058410644531 C 55.00691604614258 4.085746765136719 49.62731552124023 3 44.0802001953125 3 M 44.0802001953125 0 C 68.42502593994141 0 88.160400390625 19.73538970947266 88.160400390625 44.0802001953125 C 88.160400390625 68.42502593994141 68.42502593994141 88.160400390625 44.0802001953125 88.160400390625 C 19.73538970947266 88.160400390625 0 68.42502593994141 0 44.0802001953125 C 0 19.73538970947266 19.73538970947266 0 44.0802001953125 0 Z" stroke="none" fill="#1d7083"/>
                            </g>
                          </g>
                        </g>
                      </g>
                    </g>
                  </g>
                </g>
              </g>
            </g>
          </g>
        </g>
      </g>
    </g>
    <g id="desarrollo-de-estrategias_1_" data-name="desarrollo-de-estrategias (1)" transform="translate(212.401 1134.95)">
      <path id="Trazado_1297071" data-name="Trazado 1297071" d="M3,55H14.639v5.82H3Z" transform="translate(-0.03 -1.593)" fill="#f95f5f"/>
      <path id="Trazado_1297072" data-name="Trazado 1297072" d="M26,55H37.639v5.82H26Z" transform="translate(-0.721 -1.593)" fill="#efbd50"/>
      <path id="Trazado_1297073" data-name="Trazado 1297073" d="M49,55H60.639v5.82H49Z" transform="translate(-1.412 -1.593)" fill="#7fc675"/>
      <path id="Trazado_1297074" data-name="Trazado 1297074" d="M34.76,13.659V8.8H36.7L31.85,2.98,27,8.8h1.94v4.859" transform="translate(-0.751 -0.03)" fill="#72769b"/>
      <path id="Trazado_1297075" data-name="Trazado 1297075" d="M22.76,23.509v-9.7H24.7L19.85,7.98,15,13.809h1.94v9.7" transform="translate(-0.391 -0.18)" fill="#cfd2d3"/>
      <path id="Trazado_1297076" data-name="Trazado 1297076" d="M46.76,23.509v-9.7H48.7L43.85,7.98,39,13.809h1.94v9.7" transform="translate(-1.112 -0.18)" fill="#cfd2d3"/>
      <path id="Trazado_1297077" data-name="Trazado 1297077" d="M48,36.75h6.79v1.94l5.82-4.85-5.82-4.85v1.94H48" transform="translate(-1.382 -0.811)" fill="#7fc675"/>
      <path id="Trazado_1297078" data-name="Trazado 1297078" d="M15.609,30.93H8.82V28.99L3,33.84l5.82,4.85V36.75h6.79" transform="translate(-0.03 -0.811)" fill="#f95f5f"/>
      <path id="Trazado_1297079" data-name="Trazado 1297079" d="M44.219,36.519V30.7H41.872a11.058,11.058,0,0,0-.97-2.289l1.659-1.659L38.448,22.63,36.789,24.3a10.553,10.553,0,0,0-2.289-.97V21H28.7v2.347a10.553,10.553,0,0,0-2.289.97l-1.659-1.668-4.113,4.122L22.3,28.43a11.057,11.057,0,0,0-.97,2.289H19v5.82h2.347a11.057,11.057,0,0,0,.97,2.289l-1.659,1.659,4.113,4.122L26.43,42.95a11.028,11.028,0,0,0,2.289.97v2.3h5.82V43.862a11.028,11.028,0,0,0,2.289-.97l1.659,1.659L42.6,40.428,40.921,38.8a11.057,11.057,0,0,0,.97-2.289Z" transform="translate(-0.511 -0.571)" fill="#99aece"/>
      <circle id="Elipse_11552" data-name="Elipse 11552" cx="5.82" cy="5.82" r="5.82" transform="translate(25.279 27.209)" fill="#f2f2f2"/>
      <path id="Trazado_1297080" data-name="Trazado 1297080" d="M35.7,9.76h.97a.97.97,0,0,0,.747-1.591l-4.85-5.82a.97.97,0,0,0-1.494,0l-4.85,5.82A.97.97,0,0,0,26.97,9.76h.97v3.88h1.94V8.79a.97.97,0,0,0-.844-.97L31.82,4.464,34.6,7.82a.97.97,0,0,0-.844.97v4.85H35.7Z" transform="translate(-0.721)"/>
      <path id="Trazado_1297081" data-name="Trazado 1297081" d="M28,15.99h1.94v1.94H28Z" transform="translate(-0.781 -0.42)"/>
      <path id="Trazado_1297082" data-name="Trazado 1297082" d="M34,15.99h1.94v1.94H34Z" transform="translate(-0.961 -0.42)"/>
      <path id="Trazado_1297083" data-name="Trazado 1297083" d="M55.41,28.213a.97.97,0,0,0-1.591.757v.97H48v1.94h6.79a.97.97,0,0,0,.97-.844L59.1,33.819,55.76,36.593a.97.97,0,0,0-.97-.834H48V37.7h5.82v.97a.971.971,0,0,0,1.591.747l5.82-4.85a.97.97,0,0,0,0-1.494Z" transform="translate(-1.382 -0.781)"/>
      <path id="Trazado_1297084" data-name="Trazado 1297084" d="M2,33.82a.97.97,0,0,0,.349.747l5.82,4.85a.969.969,0,0,0,1.591-.747V37.7h5.82V35.76H8.79a.97.97,0,0,0-.97.844L4.483,33.82,7.82,31.026a.97.97,0,0,0,.97.854h6.79V29.94H9.76v-.97a.97.97,0,0,0-1.591-.747l-5.82,4.85A.97.97,0,0,0,2,33.82Z" transform="translate(0 -0.781)"/>
      <path id="Trazado_1297085" data-name="Trazado 1297085" d="M16,25.99h1.94v1.94H16Z" transform="translate(-0.421 -0.721)"/>
      <path id="Trazado_1297086" data-name="Trazado 1297086" d="M46,25.99h1.94v1.94H46Z" transform="translate(-1.322 -0.721)"/>
      <path id="Trazado_1297087" data-name="Trazado 1297087" d="M38.579,33.79a6.79,6.79,0,1,0-6.79,6.79A6.79,6.79,0,0,0,38.579,33.79Zm-11.639,0a4.85,4.85,0,1,1,4.85,4.85A4.85,4.85,0,0,1,26.94,33.79Z" transform="translate(-0.691 -0.751)"/>
      <path id="Trazado_1297088" data-name="Trazado 1297088" d="M59.227,52.588h-4.85v-2.91a.97.97,0,0,0-.97-.97H32.069v-1.94h1.94a.97.97,0,0,0,.97-.97V44.149a11.639,11.639,0,0,0,1.135-.466l1.154,1.145a.97.97,0,0,0,1.377,0l4.093-4.1a.97.97,0,0,0,0-1.368l-1.154-1.164c.165-.369.33-.747.466-1.135h1.659a.97.97,0,0,0,.97-.97v-5.81a.97.97,0,0,0-.97-.97H42.069c-.136-.388-.3-.766-.466-1.135l1.135-1.164a.97.97,0,0,0,0-1.377l-1.94-1.94v-9.9a.97.97,0,0,0-.844-.97l2.784-3.346,2.784,3.346a.97.97,0,0,0-.844.97v9.7h1.94V14.76h.97a.969.969,0,0,0,.747-1.591l-4.85-5.82a.97.97,0,0,0-1.494,0l-4.85,5.82a.969.969,0,0,0,.747,1.591h.97v6.984l-.213-.194a.97.97,0,0,0-1.377,0L36.113,22.7a11.64,11.64,0,0,0-1.135-.495v-1.63a.97.97,0,0,0-.97-.97h-5.82a.97.97,0,0,0-.97.97v1.639a11.639,11.639,0,0,0-1.135.466L24.93,21.549a.97.97,0,0,0-1.377,0l-.213.213v-7h.97a.969.969,0,0,0,.747-1.591l-4.85-5.82a.97.97,0,0,0-1.494,0l-4.85,5.82a.969.969,0,0,0,.747,1.591h.97v8.73h1.94v-9.7a.97.97,0,0,0-.844-.97l2.784-3.346,2.784,3.346a.97.97,0,0,0-.844.97v9.894l-1.94,1.94a.97.97,0,0,0,0,1.377l1.154,1.154c-.165.369-.33.747-.466,1.135H18.489a.97.97,0,0,0-.97.97v5.82a.97.97,0,0,0,.97.97h1.639c.136.388.3.766.466,1.135l-1.135,1.174a.97.97,0,0,0,0,1.368l4.093,4.1a.97.97,0,0,0,1.377,0l1.154-1.164a11.639,11.639,0,0,0,1.135.485V45.8a.97.97,0,0,0,.97.97h1.94v1.94H8.79a.97.97,0,0,0-.97.97v2.91H2.97a.97.97,0,0,0-.97.97v5.82a.97.97,0,0,0,.97.97H14.609a.97.97,0,0,0,.97-.97v-5.82a.97.97,0,0,0-.97-.97H9.76v-1.94H30.129v1.94h-4.85a.97.97,0,0,0-.97.97v5.82a.97.97,0,0,0,.97.97H36.918a.97.97,0,0,0,.97-.97v-5.82a.97.97,0,0,0-.97-.97h-4.85v-1.94H52.438v1.94h-4.85a.97.97,0,0,0-.97.97v5.82a.97.97,0,0,0,.97.97H59.227a.97.97,0,0,0,.97-.97v-5.82A.97.97,0,0,0,59.227,52.588ZM28.451,42.51a9.36,9.36,0,0,1-2.076-.863.97.97,0,0,0-1.164.165l-.97.97L21.5,40.046l.97-.97a.97.97,0,0,0,.155-1.164,9.341,9.341,0,0,1-.854-2.076.97.97,0,0,0-.97-.708H19.459v-3.88h1.377a.97.97,0,0,0,.97-.708,9.535,9.535,0,0,1,.854-2.076A.97.97,0,0,0,22.5,27.3l-.97-.97,2.745-2.745.97.97a.97.97,0,0,0,1.164.165,9.341,9.341,0,0,1,2.076-.854.97.97,0,0,0,.708-.97V21.549h3.88v1.377a.97.97,0,0,0,.708.97,9.34,9.34,0,0,1,2.076.854.97.97,0,0,0,1.164-.165l.97-.97L40.74,26.36l-.97.97a.97.97,0,0,0-.155,1.164,9.535,9.535,0,0,1,.854,2.076.97.97,0,0,0,.97.708h1.3v3.88H41.361a.97.97,0,0,0-.97.708,9.341,9.341,0,0,1-.854,2.076.97.97,0,0,0,.155,1.164l.97.97-2.745,2.735-.97-.97a.97.97,0,0,0-1.164-.165,9.36,9.36,0,0,1-2.076.863.97.97,0,0,0-.708.97v1.319H29.159V43.441a.97.97,0,0,0-.708-.931Zm-14.811,15.9H3.94v-3.88h9.7Zm22.309,0h-9.7v-3.88h9.7Zm22.309,0h-9.7v-3.88h9.7Z" transform="translate(0 -0.15)"/>
    </g>
  </g>
</svg>
