<svg xmlns="http://www.w3.org/2000/svg" xmlns:xlink="http://www.w3.org/1999/xlink" width="113" height="113" viewBox="0 0 113 113">
  <defs>
    <filter id="Trazado_982547" x="0" y="0" width="113" height="113" filterUnits="userSpaceOnUse">
      <feOffset dy="3" input="SourceAlpha"/>
      <feGaussianBlur stdDeviation="3" result="blur"/>
      <feFlood flood-opacity="0.161"/>
      <feComposite operator="in" in2="blur"/>
      <feComposite in="SourceGraphic"/>
    </filter>
  </defs>
  <g id="Grupo_1242102" data-name="Grupo 1242102" transform="translate(-5970 -3960.389)">
    <g id="Grupo_1241235" data-name="Grupo 1241235" transform="translate(5979 3966.389)">
      <g id="Grupo_1241233" data-name="Grupo 1241233">
        <g id="Grupo_1240427" data-name="Grupo 1240427" transform="translate(0 0)">
          <g id="Grupo_1239780" data-name="Grupo 1239780">
            <g id="Grupo_1236603" data-name="Grupo 1236603">
              <g id="Grupo_1236145" data-name="Grupo 1236145">
                <g id="Grupo_1235107" data-name="Grupo 1235107">
                  <g id="Grupo_1223796" data-name="Grupo 1223796">
                    <g id="Grupo_1208038" data-name="Grupo 1208038">
                      <g id="Grupo_1202104" data-name="Grupo 1202104">
                        <g id="Grupo_1201923" data-name="Grupo 1201923">
                          <g id="Grupo_1176928" data-name="Grupo 1176928">
                            <g id="Grupo_1172322" data-name="Grupo 1172322">
                              <g id="Grupo_1164700" data-name="Grupo 1164700">
                                <g id="Grupo_1160931" data-name="Grupo 1160931">
                                  <g id="Grupo_1160749" data-name="Grupo 1160749">
                                    <g id="Grupo_1158891" data-name="Grupo 1158891">
                                      <g id="Grupo_1157406" data-name="Grupo 1157406">
                                        <g id="Grupo_1155793" data-name="Grupo 1155793">
                                          <g id="Grupo_1154704" data-name="Grupo 1154704">
                                            <g id="Grupo_1150790" data-name="Grupo 1150790">
                                              <g id="Grupo_1154214" data-name="Grupo 1154214">
                                                <g id="Grupo_1152583" data-name="Grupo 1152583">
                                                  <g id="Grupo_1146973" data-name="Grupo 1146973">
                                                    <g id="Grupo_1146954" data-name="Grupo 1146954">
                                                      <g transform="matrix(1, 0, 0, 1, -9, -6)" filter="url(#Trazado_982547)">
                                                        <g id="Trazado_982547-2" data-name="Trazado 982547" transform="translate(9 6)" fill="#ffe1b9">
                                                          <path d="M 47.50000762939453 93.49986267089844 C 41.28937911987305 93.49986267089844 35.26534271240234 92.28383636474609 29.59519386291504 89.88558197021484 C 24.11772727966309 87.56880950927734 19.19814109802246 84.25183868408203 14.97310066223145 80.02679443359375 C 10.74804782867432 75.8017578125 7.431074142456055 70.88218688964844 5.114300727844238 65.40471649169922 C 2.716034412384033 59.73458480834961 1.500007629394531 53.71054458618164 1.500007629394531 47.49993133544922 C 1.500007629394531 41.2893180847168 2.716034412384033 35.26527786254883 5.114300727844238 29.59514427185059 C 7.431074142456055 24.11767768859863 10.74804782867432 19.19810485839844 14.97310066223145 14.97306442260742 C 19.19814109802246 10.74802494049072 24.11772727966309 7.431051254272461 29.59519386291504 5.114277839660645 C 35.26534271240234 2.71602463722229 41.28937911987305 1.499997973442078 47.50000762939453 1.499997973442078 C 53.71063613891602 1.499997973442078 59.73467254638672 2.71602463722229 65.40482330322266 5.114277839660645 C 70.88228607177734 7.431051254272461 75.80187225341797 10.74802494049072 80.02691650390625 14.97306442260742 C 84.25196838378906 19.19810485839844 87.56893920898438 24.11767768859863 89.88571166992188 29.59514427185059 C 92.28398132324219 35.26527786254883 93.50000762939453 41.2893180847168 93.50000762939453 47.49993133544922 C 93.50000762939453 53.71054458618164 92.28398132324219 59.73458480834961 89.88571166992188 65.40471649169922 C 87.56893920898438 70.88218688964844 84.25196838378906 75.8017578125 80.02691650390625 80.02679443359375 C 75.80187225341797 84.25183868408203 70.88228607177734 87.56880950927734 65.40482330322266 89.88558197021484 C 59.73467254638672 92.28383636474609 53.71063613891602 93.49986267089844 47.50000762939453 93.49986267089844 Z" stroke="none"/>
                                                          <path d="M 47.50000762939453 2.999992370605469 C 41.4912223815918 2.999992370605469 35.66377639770508 4.1761474609375 30.17951202392578 6.495796203613281 C 24.88085174560547 8.736930847167969 20.12152862548828 11.94596099853516 16.03376007080078 16.03372955322266 C 11.94597625732422 20.12148284912109 8.736961364746094 24.88080596923828 6.495803833007812 30.17946624755859 C 4.176162719726562 35.66371536254883 3.000007629394531 41.49116134643555 3.000007629394531 47.49993133544922 C 3.000007629394531 53.50870132446289 4.176162719726562 59.33614730834961 6.495803833007812 64.82038879394531 C 8.736961364746094 70.11905670166016 11.94597625732422 74.87836456298828 16.03376007080078 78.96613311767578 C 20.12152862548828 83.05390167236328 24.88085174560547 86.26291656494141 30.17951202392578 88.50406646728516 C 35.66377639770508 90.82369995117188 41.4912223815918 91.99985504150391 47.50000762939453 91.99985504150391 C 53.50879287719727 91.99985504150391 59.33623886108398 90.82369995117188 64.82049560546875 88.50406646728516 C 70.11916351318359 86.26291656494141 74.87848663330078 83.05390167236328 78.96625518798828 78.96613311767578 C 83.05403900146484 74.87836456298828 86.26305389404297 70.11905670166016 88.50421142578125 64.82038879394531 C 90.8238525390625 59.33614730834961 92.00000762939453 53.50870132446289 92.00000762939453 47.49993133544922 C 92.00000762939453 41.49116134643555 90.8238525390625 35.66371536254883 88.50421142578125 30.17946624755859 C 86.26305389404297 24.88080596923828 83.05403900146484 20.12148284912109 78.96625518798828 16.03372955322266 C 74.87848663330078 11.94596099853516 70.11916351318359 8.736930847167969 64.82049560546875 6.495796203613281 C 59.33623886108398 4.1761474609375 53.50879287719727 2.999992370605469 47.50000762939453 2.999992370605469 M 47.50000762939453 -7.62939453125e-06 C 73.73352813720703 -7.62939453125e-06 95.00000762939453 21.26644134521484 95.00000762939453 47.49993133544922 C 95.00000762939453 73.73342132568359 73.73352813720703 94.99985504150391 47.50000762939453 94.99985504150391 C 21.26648712158203 94.99985504150391 7.62939453125e-06 73.73342132568359 7.62939453125e-06 47.49993133544922 C 7.62939453125e-06 21.26644134521484 21.26648712158203 -7.62939453125e-06 47.50000762939453 -7.62939453125e-06 Z" stroke="none" fill="#ff9d1c"/>
                                                        </g>
                                                      </g>
                                                    </g>
                                                  </g>
                                                </g>
                                              </g>
                                            </g>
                                          </g>
                                        </g>
                                      </g>
                                    </g>
                                  </g>
                                </g>
                              </g>
                            </g>
                          </g>
                        </g>
                      </g>
                    </g>
                  </g>
                </g>
              </g>
            </g>
          </g>
        </g>
      </g>
    </g>
    <g id="cadena-de-suministro" transform="translate(5993.676 3981.064)">
      <g id="Grupo_1242098" data-name="Grupo 1242098" transform="translate(11.674 11.675)">
        <path id="Trazado_1298355" data-name="Trazado 1298355" d="M133.353,116.579v-8.751h-3.5a18.076,18.076,0,0,0-2.076-5.01l2.476-2.476-6.188-6.188-2.477,2.477a18.072,18.072,0,0,0-5.01-2.076v-3.5h-8.751v3.5a18.072,18.072,0,0,0-5.01,2.076l-2.476-2.477-6.188,6.188,2.477,2.476a18.071,18.071,0,0,0-2.076,5.01h-3.5v8.751h3.5a18.072,18.072,0,0,0,2.076,5.01l-2.477,2.476,6.188,6.188,2.476-2.476a18.072,18.072,0,0,0,5.01,2.076v3.5h8.751v-3.5a18.072,18.072,0,0,0,5.01-2.076l2.477,2.476,6.188-6.188-2.476-2.476a18.071,18.071,0,0,0,2.076-5.01Z" transform="translate(-91.053 -91.053)" fill="#a0e5a5"/>
      </g>
      <g id="Grupo_1242099" data-name="Grupo 1242099" transform="translate(23.137 21.639)">
        <path id="Trazado_1298356" data-name="Trazado 1298356" d="M199.826,185.542V174.356l-9.687-5.593-9.687,5.593v11.186l9.687,5.593Z" transform="translate(-180.451 -168.763)" fill="#ffcd69"/>
      </g>
      <g id="Grupo_1242100" data-name="Grupo 1242100" transform="translate(23.188 21.639)">
        <path id="Trazado_1298357" data-name="Trazado 1298357" d="M200.223,174.356l-9.687-5.593-9.687,5.593,9.687,5.593Z" transform="translate(-180.848 -168.763)" fill="#fff3da"/>
        <path id="Trazado_1298358" data-name="Trazado 1298358" d="M266.087,212.383l-9.687,5.593v11.186l9.687-5.593Z" transform="translate(-246.713 -206.79)" fill="#ffcd69"/>
        <path id="Trazado_1298359" data-name="Trazado 1298359" d="M180.848,212.383v11.186l9.687,5.593V217.976Z" transform="translate(-180.848 -206.79)" fill="#ffda8f"/>
      </g>
      <g id="Grupo_1242101" data-name="Grupo 1242101" transform="translate(-0.001 0)">
        <path id="Trazado_1298360" data-name="Trazado 1298360" d="M114.439,122.443a1.282,1.282,0,0,0,1.813,0l6.188-6.188a1.282,1.282,0,0,0,0-1.813l-1.786-1.786a19.345,19.345,0,0,0,1.455-3.511h2.525a1.282,1.282,0,0,0,1.282-1.282V99.112a1.282,1.282,0,0,0-1.282-1.282H122.11a19.343,19.343,0,0,0-1.455-3.512l1.786-1.786a1.282,1.282,0,0,0,0-1.813l-6.188-6.188a1.282,1.282,0,0,0-1.813,0l-1.786,1.786a19.327,19.327,0,0,0-3.512-1.455V82.337a1.282,1.282,0,0,0-1.282-1.282H99.109a1.282,1.282,0,0,0-1.282,1.282v2.525a19.33,19.33,0,0,0-3.512,1.455L92.53,84.531a1.282,1.282,0,0,0-1.813,0l-6.188,6.188a1.282,1.282,0,0,0,0,1.813l1.786,1.786a19.33,19.33,0,0,0-1.455,3.512H82.334a1.282,1.282,0,0,0-1.282,1.282v8.751a1.282,1.282,0,0,0,1.282,1.282h2.525a19.324,19.324,0,0,0,1.455,3.511l-1.786,1.786a1.282,1.282,0,0,0,0,1.813l6.188,6.188a1.282,1.282,0,0,0,1.813,0l1.786-1.786a19.316,19.316,0,0,0,3.512,1.455v2.525a1.282,1.282,0,0,0,1.282,1.282h8.751a1.282,1.282,0,0,0,1.282-1.282v-2.525a19.332,19.332,0,0,0,3.512-1.455Zm-6.887-2.552a1.282,1.282,0,0,0-.975,1.245v2.219h-6.186v-2.219a1.282,1.282,0,0,0-.975-1.245,16.779,16.779,0,0,1-4.654-1.929,1.282,1.282,0,0,0-1.57.191l-1.57,1.57-4.375-4.374,1.57-1.57a1.282,1.282,0,0,0,.191-1.57,16.778,16.778,0,0,1-1.929-4.654,1.282,1.282,0,0,0-1.245-.975H83.616v-6.186h2.219a1.282,1.282,0,0,0,1.245-.975,16.778,16.778,0,0,1,1.929-4.654,1.282,1.282,0,0,0-.191-1.57l-1.57-1.57,4.375-4.374,1.57,1.57a1.282,1.282,0,0,0,1.57.191,16.782,16.782,0,0,1,4.654-1.929,1.282,1.282,0,0,0,.975-1.245V83.619h6.186v2.219a1.282,1.282,0,0,0,.975,1.245,16.776,16.776,0,0,1,4.654,1.929,1.282,1.282,0,0,0,1.57-.191l1.57-1.57,4.374,4.374-1.57,1.57a1.282,1.282,0,0,0-.191,1.57,16.784,16.784,0,0,1,1.929,4.654,1.282,1.282,0,0,0,1.245.975h2.219v6.186h-2.219a1.282,1.282,0,0,0-1.245.975,16.784,16.784,0,0,1-1.929,4.654,1.282,1.282,0,0,0,.191,1.57l1.57,1.57-4.374,4.374-1.57-1.57a1.283,1.283,0,0,0-1.57-.191,16.765,16.765,0,0,1-4.654,1.929Z" transform="translate(-70.659 -70.662)"/>
        <path id="Trazado_1298361" data-name="Trazado 1298361" d="M192.39,176.825V165.639a1.282,1.282,0,0,0-.641-1.11l-9.687-5.593a1.282,1.282,0,0,0-1.282,0l-9.687,5.593a1.282,1.282,0,0,0-.641,1.11v11.186a1.282,1.282,0,0,0,.641,1.11l9.687,5.593a1.282,1.282,0,0,0,1.282,0l9.687-5.593A1.282,1.282,0,0,0,192.39,176.825Zm-10.97-15.3,7.123,4.112-7.123,4.112-7.123-4.112Zm-8.405,6.333,7.123,4.112V180.2l-7.123-4.112ZM182.7,180.2v-8.225l7.123-4.112v8.225Z" transform="translate(-148.595 -138.407)"/>
        <path id="Trazado_1298362" data-name="Trazado 1298362" d="M247.284,4.1a30,30,0,0,1,14.585,3.782,1.282,1.282,0,0,0,1.249-2.24,32.568,32.568,0,0,0-15.835-4.107,1.282,1.282,0,0,0,0,2.564Z" transform="translate(-214.459 -1.335)"/>
        <path id="Trazado_1298363" data-name="Trazado 1298363" d="M442.669,97.966a1.281,1.281,0,0,0-1.547.888,32.915,32.915,0,0,0-5.276-8.873,1.282,1.282,0,1,0-1.97,1.642,30.351,30.351,0,0,1,5.112,8.822l-.692-.454a1.282,1.282,0,0,0-1.407,2.144l3.673,2.411a1.282,1.282,0,0,0,1.946-.755l1.086-4.265a1.282,1.282,0,0,0-.926-1.559Z" transform="translate(-377.984 -78.041)"/>
        <path id="Trazado_1298364" data-name="Trazado 1298364" d="M32.824,327.611a29.679,29.679,0,0,1-18.677-6.527,30.386,30.386,0,0,1-9.5-13.115l.691.453a1.282,1.282,0,1,0,1.407-2.144l-3.673-2.411a1.282,1.282,0,0,0-1.946.755L.039,308.888a1.282,1.282,0,0,0,2.473.672,32.969,32.969,0,0,0,10.037,13.53,32.218,32.218,0,0,0,20.275,7.086,1.282,1.282,0,0,0,0-2.564Z" transform="translate(0.001 -264.722)"/>
        <path id="Trazado_1298365" data-name="Trazado 1298365" d="M328.893,246a1.282,1.282,0,0,0-1.282,1.282,29.679,29.679,0,0,1-6.527,18.677,30.386,30.386,0,0,1-13.115,9.5l.453-.691a1.282,1.282,0,1,0-2.144-1.407l-2.411,3.673a1.282,1.282,0,0,0,.755,1.946l4.265,1.086a1.281,1.281,0,0,0,.672-2.473,32.967,32.967,0,0,0,13.53-10.037,32.218,32.218,0,0,0,7.086-20.275A1.282,1.282,0,0,0,328.893,246Z" transform="translate(-264.722 -214.459)"/>
        <path id="Trazado_1298366" data-name="Trazado 1298366" d="M2.813,34.107A1.282,1.282,0,0,0,4.1,32.825a29.679,29.679,0,0,1,6.527-18.677,30.386,30.386,0,0,1,13.115-9.5l-.453.691a1.282,1.282,0,1,0,2.144,1.407l2.411-3.673a1.282,1.282,0,0,0-.755-1.946L22.819.04a1.281,1.281,0,0,0-.671,2.473A32.967,32.967,0,0,0,8.617,12.55,32.218,32.218,0,0,0,1.531,32.825a1.282,1.282,0,0,0,1.282,1.282Z" transform="translate(-1.335 0)"/>
        <circle id="Elipse_11573" data-name="Elipse 11573" cx="1.282" cy="1.282" r="1.282" transform="translate(51.519 7.394)"/>
      </g>
    </g>
  </g>
</svg>
