<svg xmlns="http://www.w3.org/2000/svg" xmlns:xlink="http://www.w3.org/1999/xlink" width="113" height="113" viewBox="0 0 113 113">
  <defs>
    <filter id="Trazado_982547" x="0" y="0" width="113" height="113" filterUnits="userSpaceOnUse">
      <feOffset dy="3" input="SourceAlpha"/>
      <feGaussianBlur stdDeviation="3" result="blur"/>
      <feFlood flood-opacity="0.161"/>
      <feComposite operator="in" in2="blur"/>
      <feComposite in="SourceGraphic"/>
    </filter>
  </defs>
  <g id="Grupo_1242107" data-name="Grupo 1242107" transform="translate(-5655 -4321.39)">
    <g id="Grupo_1241236" data-name="Grupo 1241236" transform="translate(5664 4327.39)">
      <g id="Grupo_1241232" data-name="Grupo 1241232">
        <g id="Grupo_1240425" data-name="Grupo 1240425" transform="translate(0 0)">
          <g id="Grupo_1239772" data-name="Grupo 1239772">
            <g id="Grupo_1236602" data-name="Grupo 1236602">
              <g id="Grupo_1236144" data-name="Grupo 1236144">
                <g id="Grupo_1235105" data-name="Grupo 1235105">
                  <g id="Grupo_1223793" data-name="Grupo 1223793">
                    <g id="Grupo_1208028" data-name="Grupo 1208028">
                      <g id="Grupo_1177675" data-name="Grupo 1177675">
                        <g id="Grupo_1176928" data-name="Grupo 1176928">
                          <g id="Grupo_1172322" data-name="Grupo 1172322">
                            <g id="Grupo_1164700" data-name="Grupo 1164700">
                              <g id="Grupo_1160931" data-name="Grupo 1160931">
                                <g id="Grupo_1160749" data-name="Grupo 1160749">
                                  <g id="Grupo_1158891" data-name="Grupo 1158891">
                                    <g id="Grupo_1157406" data-name="Grupo 1157406">
                                      <g id="Grupo_1155793" data-name="Grupo 1155793">
                                        <g id="Grupo_1154704" data-name="Grupo 1154704">
                                          <g id="Grupo_1150790" data-name="Grupo 1150790">
                                            <g id="Grupo_1154214" data-name="Grupo 1154214">
                                              <g id="Grupo_1152583" data-name="Grupo 1152583">
                                                <g id="Grupo_1146973" data-name="Grupo 1146973">
                                                  <g id="Grupo_1146954" data-name="Grupo 1146954">
                                                    <g transform="matrix(1, 0, 0, 1, -9, -6)" filter="url(#Trazado_982547)">
                                                      <g id="Trazado_982547-2" data-name="Trazado 982547" transform="translate(9 6)" fill="#ffe1b9">
                                                        <path d="M 47.50000762939453 93.49986267089844 C 41.28937911987305 93.49986267089844 35.26534271240234 92.28383636474609 29.59519386291504 89.88558197021484 C 24.11772727966309 87.56880950927734 19.19814109802246 84.25183868408203 14.97310066223145 80.02679443359375 C 10.74804782867432 75.8017578125 7.431074142456055 70.88218688964844 5.114300727844238 65.40471649169922 C 2.716034412384033 59.73458480834961 1.500007629394531 53.71054458618164 1.500007629394531 47.49993133544922 C 1.500007629394531 41.2893180847168 2.716034412384033 35.26527786254883 5.114300727844238 29.59514427185059 C 7.431074142456055 24.11767768859863 10.74804782867432 19.19810485839844 14.97310066223145 14.97306442260742 C 19.19814109802246 10.74802494049072 24.11772727966309 7.431051254272461 29.59519386291504 5.114277839660645 C 35.26534271240234 2.71602463722229 41.28937911987305 1.499997973442078 47.50000762939453 1.499997973442078 C 53.71063613891602 1.499997973442078 59.73467254638672 2.71602463722229 65.40482330322266 5.114277839660645 C 70.88228607177734 7.431051254272461 75.80187225341797 10.74802494049072 80.02691650390625 14.97306442260742 C 84.25196838378906 19.19810485839844 87.56893920898438 24.11767768859863 89.88571166992188 29.59514427185059 C 92.28398132324219 35.26527786254883 93.50000762939453 41.2893180847168 93.50000762939453 47.49993133544922 C 93.50000762939453 53.71054458618164 92.28398132324219 59.73458480834961 89.88571166992188 65.40471649169922 C 87.56893920898438 70.88218688964844 84.25196838378906 75.8017578125 80.02691650390625 80.02679443359375 C 75.80187225341797 84.25183868408203 70.88228607177734 87.56880950927734 65.40482330322266 89.88558197021484 C 59.73467254638672 92.28383636474609 53.71063613891602 93.49986267089844 47.50000762939453 93.49986267089844 Z" stroke="none"/>
                                                        <path d="M 47.50000762939453 2.999992370605469 C 41.4912223815918 2.999992370605469 35.66377639770508 4.1761474609375 30.17951202392578 6.495796203613281 C 24.88085174560547 8.736930847167969 20.12152862548828 11.94596099853516 16.03376007080078 16.03372955322266 C 11.94597625732422 20.12148284912109 8.736961364746094 24.88080596923828 6.495803833007812 30.17946624755859 C 4.176162719726562 35.66371536254883 3.000007629394531 41.49116134643555 3.000007629394531 47.49993133544922 C 3.000007629394531 53.50870132446289 4.176162719726562 59.33614730834961 6.495803833007812 64.82038879394531 C 8.736961364746094 70.11905670166016 11.94597625732422 74.87836456298828 16.03376007080078 78.96613311767578 C 20.12152862548828 83.05390167236328 24.88085174560547 86.26291656494141 30.17951202392578 88.50406646728516 C 35.66377639770508 90.82369995117188 41.4912223815918 91.99985504150391 47.50000762939453 91.99985504150391 C 53.50879287719727 91.99985504150391 59.33623886108398 90.82369995117188 64.82049560546875 88.50406646728516 C 70.11916351318359 86.26291656494141 74.87848663330078 83.05390167236328 78.96625518798828 78.96613311767578 C 83.05403900146484 74.87836456298828 86.26305389404297 70.11905670166016 88.50421142578125 64.82038879394531 C 90.8238525390625 59.33614730834961 92.00000762939453 53.50870132446289 92.00000762939453 47.49993133544922 C 92.00000762939453 41.49116134643555 90.8238525390625 35.66371536254883 88.50421142578125 30.17946624755859 C 86.26305389404297 24.88080596923828 83.05403900146484 20.12148284912109 78.96625518798828 16.03372955322266 C 74.87848663330078 11.94596099853516 70.11916351318359 8.736930847167969 64.82049560546875 6.495796203613281 C 59.33623886108398 4.1761474609375 53.50879287719727 2.999992370605469 47.50000762939453 2.999992370605469 M 47.50000762939453 -7.62939453125e-06 C 73.73352813720703 -7.62939453125e-06 95.00000762939453 21.26644134521484 95.00000762939453 47.49993133544922 C 95.00000762939453 73.73342132568359 73.73352813720703 94.99985504150391 47.50000762939453 94.99985504150391 C 21.26648712158203 94.99985504150391 7.62939453125e-06 73.73342132568359 7.62939453125e-06 47.49993133544922 C 7.62939453125e-06 21.26644134521484 21.26648712158203 -7.62939453125e-06 47.50000762939453 -7.62939453125e-06 Z" stroke="none" fill="#ff9d1c"/>
                                                      </g>
                                                    </g>
                                                  </g>
                                                </g>
                                              </g>
                                            </g>
                                          </g>
                                        </g>
                                      </g>
                                    </g>
                                  </g>
                                </g>
                              </g>
                            </g>
                          </g>
                        </g>
                      </g>
                    </g>
                  </g>
                </g>
              </g>
            </g>
          </g>
        </g>
      </g>
    </g>
    <g id="cuidado" transform="translate(5640.048 4337)">
      <g id="Grupo_1242106" data-name="Grupo 1242106" transform="translate(43.248 1.044)">
        <path id="Trazado_1298367" data-name="Trazado 1298367" d="M200.642,37.872h2.51v-2.51a6.031,6.031,0,0,0-6.031-6.031h-1.954a.557.557,0,0,0-.557.557v1.954A6.031,6.031,0,0,0,200.642,37.872Z" transform="translate(-174.449 -26.293)" fill="#b3e59f"/>
        <g id="Grupo_1242103" data-name="Grupo 1242103" transform="translate(28.703)">
          <path id="Trazado_1298368" data-name="Trazado 1298368" d="M258.5,16.041h-2.51v-2.51A6.031,6.031,0,0,1,262.025,7.5h1.954a.557.557,0,0,1,.557.557V10.01A6.031,6.031,0,0,1,258.5,16.041Z" transform="translate(-255.994 -7.5)" fill="#b3e59f"/>
        </g>
        <g id="Grupo_1242104" data-name="Grupo 1242104" transform="translate(0 46.823)">
          <path id="Trazado_1298369" data-name="Trazado 1298369" d="M394.272,349.256l-7.437,1.612-1.124-5.188,7.437-1.612a2.654,2.654,0,0,1,1.124,5.188Z" transform="translate(-338.958 -344.007)" fill="#edbb87"/>
          <path id="Trazado_1298370" data-name="Trazado 1298370" d="M51.8,349.256l7.437,1.612,1.124-5.188-7.437-1.612a2.654,2.654,0,0,0-1.124,5.188Z" transform="translate(-49.71 -344.007)" fill="#edbb87"/>
        </g>
        <g id="Grupo_1242105" data-name="Grupo 1242105" transform="translate(3.091 15.389)">
          <circle id="Elipse_11574" data-name="Elipse 11574" cx="25.612" cy="25.612" r="25.612" fill="#9dc6fb"/>
          <path id="Trazado_1298371" data-name="Trazado 1298371" d="M181.927,130.618a25.617,25.617,0,0,1-22.776,45.652,25.615,25.615,0,1,0,22.776-45.652Z" transform="translate(-147.014 -128.876)" fill="#80b4fb"/>
          <path id="Trazado_1298372" data-name="Trazado 1298372" d="M247.915,139.364a25.612,25.612,0,0,0-30.622-20.695c.511,2.057,1.032,4.473,1.5,7.324.768,4.662,1.089,8.615,3.311,9.33,2.164.7,3.922-2.388,6.923-1.806,2.518.489,2.87,2.969,5.117,4.816,3.047,2.5,8.779,3.185,13.771,1.031Z" transform="translate(-197.066 -118.097)" fill="#b3e59f"/>
          <path id="Trazado_1298373" data-name="Trazado 1298373" d="M334.978,151.265a15.8,15.8,0,0,0,3.829-1.1,25.651,25.651,0,0,0-15.931-19.521A25.6,25.6,0,0,1,334.978,151.265Z" transform="translate(-287.958 -128.898)" fill="#95d6a4"/>
          <path id="Trazado_1298374" data-name="Trazado 1298374" d="M82.563,200.129a12.641,12.641,0,0,0-5.693-6.615,25.591,25.591,0,0,0,2.068,32.712c3.213-2.136,5.515-5.574,5.733-8.658.145-2.051-.752-2.245-1.533-6.324C81.968,205.136,83.538,203.277,82.563,200.129Z" transform="translate(-71.928 -183.02)" fill="#b3e59f"/>
          <path id="Trazado_1298375" data-name="Trazado 1298375" d="M193.558,362.038a25.625,25.625,0,0,0,27.739-6.985,37.618,37.618,0,0,0-5.754-6.229c-2.024-1.847-6.848-6.248-9.824-4.822-2.326,1.115-1.19,4.675-3.215,9.288C200.4,358.091,196.427,360.476,193.558,362.038Z" transform="translate(-176.634 -312.328)" fill="#b3e59f"/>
          <path id="Trazado_1298376" data-name="Trazado 1298376" d="M221.3,403.2a26.744,26.744,0,0,0-2.954-3.548,25.7,25.7,0,0,1-23.425,9.766c-.471.278-.928.532-1.36.767A25.8,25.8,0,0,0,221.3,403.2Z" transform="translate(-176.635 -360.476)" fill="#95d6a4"/>
        </g>
        <path id="Trazado_1298377" data-name="Trazado 1298377" d="M373.186,366.269a2.435,2.435,0,0,1,3.444,0l4.132,4.132a2.435,2.435,0,1,1-3.444,3.444l-4.132-4.132A2.435,2.435,0,0,1,373.186,366.269Z" transform="translate(-327.562 -315.734)" fill="#f1d0a4"/>
        <path id="Trazado_1298378" data-name="Trazado 1298378" d="M381.17,376.544a2.435,2.435,0,0,1-3.444,0l-4.132-4.132a2.424,2.424,0,0,1-.522-.778,2.433,2.433,0,0,0,.12,3.311l4.132,4.132a2.435,2.435,0,0,0,3.966-2.666C381.252,376.456,381.213,376.5,381.17,376.544Z" transform="translate(-327.569 -320.967)" fill="#edbb87"/>
        <path id="Trazado_1298379" data-name="Trazado 1298379" d="M337.831,380.411a2.435,2.435,0,0,1,3.444,0l7.084,7.084a2.435,2.435,0,1,1-3.444,3.444l-7.084-7.084A2.435,2.435,0,0,1,337.831,380.411Z" transform="translate(-297.126 -327.908)" fill="#f1d0a4"/>
        <path id="Trazado_1298380" data-name="Trazado 1298380" d="M348.5,394.957a2.435,2.435,0,0,1-3.444,0l-7.084-7.084a2.432,2.432,0,0,1-.42-.564,2.434,2.434,0,0,0,.286,3.1l7.084,7.084a2.435,2.435,0,0,0,3.863-2.879A2.45,2.45,0,0,1,348.5,394.957Z" transform="translate(-297.132 -334.46)" fill="#edbb87"/>
        <path id="Trazado_1298381" data-name="Trazado 1298381" d="M313.082,405.16a2.435,2.435,0,0,1,3.444,0l7.084,7.084a2.435,2.435,0,0,1-3.444,3.444l-7.084-7.084A2.435,2.435,0,0,1,313.082,405.16Z" transform="translate(-275.821 -349.214)" fill="#f1d0a4"/>
        <path id="Trazado_1298382" data-name="Trazado 1298382" d="M323.618,420.381a2.435,2.435,0,0,1-3.444,0l-7.084-7.084a2.429,2.429,0,0,1-.355-.455,2.434,2.434,0,0,0,.355,2.989l7.084,7.084a2.434,2.434,0,0,0,3.8-2.989A2.43,2.43,0,0,1,323.618,420.381Z" transform="translate(-275.83 -356.441)" fill="#edbb87"/>
        <path id="Trazado_1298383" data-name="Trazado 1298383" d="M298.94,440.515a2.435,2.435,0,0,1,3.444,0l4.132,4.132a2.435,2.435,0,1,1-3.444,3.444l-4.132-4.132A2.435,2.435,0,0,1,298.94,440.515Z" transform="translate(-263.647 -379.649)" fill="#f1d0a4"/>
        <path id="Trazado_1298384" data-name="Trazado 1298384" d="M306.94,450.688a2.435,2.435,0,0,1-3.444,0l-4.132-4.132a2.425,2.425,0,0,1-.524-.781,2.433,2.433,0,0,0,.107,3.326l4.132,4.132a2.435,2.435,0,0,0,3.967-2.663c-.035.04-.069.08-.106.118Z" transform="translate(-263.655 -384.791)" fill="#edbb87"/>
        <path id="Trazado_1298385" data-name="Trazado 1298385" d="M83.106,366.269a2.435,2.435,0,0,0-3.444,0L75.53,370.4a2.435,2.435,0,1,0,3.444,3.444l4.132-4.132A2.435,2.435,0,0,0,83.106,366.269Z" transform="translate(-71.323 -315.734)" fill="#f1d0a4"/>
        <path id="Trazado_1298386" data-name="Trazado 1298386" d="M83.259,371.815a2.438,2.438,0,0,1-.352.451L78.774,376.4a2.435,2.435,0,0,1-3.444,0c-.051-.051-.1-.1-.143-.158a2.434,2.434,0,0,0,3.8,2.993l4.132-4.132a2.434,2.434,0,0,0,.143-3.286Z" transform="translate(-71.334 -321.123)" fill="#edbb87"/>
        <path id="Trazado_1298387" data-name="Trazado 1298387" d="M100.2,380.411a2.435,2.435,0,0,0-3.444,0l-7.084,7.084a2.435,2.435,0,0,0,3.444,3.444l7.084-7.084A2.435,2.435,0,0,0,100.2,380.411Z" transform="translate(-83.498 -327.908)" fill="#f1d0a4"/>
        <path id="Trazado_1298388" data-name="Trazado 1298388" d="M100.207,387.623l-7.084,7.084a2.427,2.427,0,0,1-3.726-.342,2.434,2.434,0,0,0,3.726,3.1l7.084-7.084a2.434,2.434,0,0,0,.283-3.1A2.461,2.461,0,0,1,100.207,387.623Z" transform="translate(-83.505 -334.437)" fill="#edbb87"/>
        <path id="Trazado_1298389" data-name="Trazado 1298389" d="M124.948,405.16a2.435,2.435,0,0,0-3.444,0l-7.084,7.084a2.435,2.435,0,0,0,3.444,3.444l7.084-7.084A2.435,2.435,0,0,0,124.948,405.16Z" transform="translate(-104.803 -349.214)" fill="#f1d0a4"/>
        <path id="Trazado_1298390" data-name="Trazado 1298390" d="M125,409.876a2.428,2.428,0,0,1-.374.487l-7.084,7.084a2.435,2.435,0,0,1-3.444,0c-.014-.014-.025-.029-.038-.042a2.434,2.434,0,0,0,3.818,2.957l7.084-7.084A2.434,2.434,0,0,0,125,409.876Z" transform="translate(-104.815 -353.888)" fill="#edbb87"/>
        <path id="Trazado_1298391" data-name="Trazado 1298391" d="M157.352,440.515a2.435,2.435,0,0,0-3.444,0l-4.132,4.132a2.435,2.435,0,1,0,3.444,3.444l4.132-4.132A2.435,2.435,0,0,0,157.352,440.515Z" transform="translate(-135.238 -379.649)" fill="#f1d0a4"/>
        <path id="Trazado_1298392" data-name="Trazado 1298392" d="M157.363,447.318l-4.132,4.132a2.419,2.419,0,0,1-3.69-.292,2.434,2.434,0,0,0,3.69,3.152l4.132-4.132a2.433,2.433,0,0,0,.246-3.152A2.41,2.41,0,0,1,157.363,447.318Z" transform="translate(-135.249 -385.868)" fill="#edbb87"/>
      </g>
      <path id="Trazado_1298393" data-name="Trazado 1298393" d="M98.174,46.827A26.65,26.65,0,0,0,73,15.412V10.628h1.467a7.083,7.083,0,0,0,7.075-7.075V1.6a1.6,1.6,0,0,0-1.6-1.6H77.983a7.087,7.087,0,0,0-6.856,5.328,7.057,7.057,0,0,0-5.206-2.29H63.967a1.6,1.6,0,0,0-1.6,1.6V6.591a7.083,7.083,0,0,0,7.075,7.075h1.467v1.746A26.577,26.577,0,0,0,45.729,46.827a3.7,3.7,0,0,0-.61,7.308l2,.434a3.578,3.578,0,0,0-.4,5.323,3.457,3.457,0,0,0,1.35.836,3.479,3.479,0,0,0,3.045,5.1,3.476,3.476,0,0,0,5.1,3.043,3.55,3.55,0,0,0,3.3,2.367,3.468,3.468,0,0,0,2.46-1.017l2.569-2.569a26.8,26.8,0,0,0,14.829,0l2.569,2.569a3.48,3.48,0,0,0,5.757-1.35,3.476,3.476,0,0,0,5.1-3.044,3.455,3.455,0,0,0,2.427-1.018,3.527,3.527,0,0,0,.619-4.082,3.463,3.463,0,0,0,1.349-.838,3.61,3.61,0,0,0-.4-5.323l2-.434a3.7,3.7,0,0,0-.61-7.308ZM73,7.075a4.993,4.993,0,0,1,4.987-4.987h1.467V3.554a4.994,4.994,0,0,1-4.738,4.981L76.225,7.2a1.044,1.044,0,1,0-1.384-1.563L73,7.267ZM69.1,8.291A1.044,1.044,0,0,0,67.62,9.766l1.812,1.812a4.993,4.993,0,0,1-4.978-4.987V5.125h1.467A4.993,4.993,0,0,1,70.908,10.1ZM45.562,52.1a1.61,1.61,0,0,1,.644-3.154A26.6,26.6,0,0,0,47.431,52.5Zm2.631,6.32a1.4,1.4,0,0,1,0-1.968l4.132-4.132a1.391,1.391,0,0,1,1.968,1.968l-4.133,4.133a1.4,1.4,0,0,1-1.968,0Zm1.968,4.92a1.393,1.393,0,0,1,0-1.968l7.084-7.084a1.4,1.4,0,0,1,1.968,0h0a1.4,1.4,0,0,1,0,1.968l-7.084,7.084A1.4,1.4,0,0,1,50.161,63.336Zm5.411,3.444A1.392,1.392,0,0,1,53.6,64.812l7.084-7.084A1.391,1.391,0,0,1,62.656,59.7Zm9.052-2.165-4.132,4.132a1.391,1.391,0,0,1-1.968-1.967l4.133-4.133a1.391,1.391,0,1,1,1.968,1.968ZM66.1,61.171a3.462,3.462,0,0,0-1.35-.838,3.476,3.476,0,0,0-3.043-5.1,3.48,3.48,0,0,0-5.1-3.045,3.456,3.456,0,0,0-.836-1.35h0a3.479,3.479,0,0,0-4.92,0l-1.3,1.3a24.558,24.558,0,0,1,2.013-23.79,11.18,11.18,0,0,1,4.415,5.5,9.037,9.037,0,0,1,.2,3.7,24.435,24.435,0,0,0,.348,7.3,21.822,21.822,0,0,0,.922,3.445,1.044,1.044,0,0,0,1.964-.706,19.828,19.828,0,0,1-.836-3.132,22.309,22.309,0,0,1-.317-6.747,10.92,10.92,0,0,0-.287-4.482A13.077,13.077,0,0,0,52.8,26.67,24.624,24.624,0,0,1,65.8,18.258c.6,2.531,1.094,5.251,1.507,7.906.667,4.281,1.194,7.663,3.756,8.488,1.471.474,2.731-.238,3.842-.866a4.623,4.623,0,0,1,3.2-.908c1.812.351,3,3.236,4.653,4.6a13.421,13.421,0,0,0,9.552,2.5,1.044,1.044,0,1,0-.172-2.08,11.475,11.475,0,0,1-8.055-2.033c-2.073-1.7-2.521-4.44-5.58-5.034a6.494,6.494,0,0,0-4.626,1.14c-.976.552-1.6.881-2.175.7-1.337-.431-1.821-3.536-2.333-6.823-.419-2.69-.923-5.457-1.528-8.02A24.575,24.575,0,0,1,94.354,52.141l-1.3-1.3a3.479,3.479,0,0,0-4.92,0h0a3.457,3.457,0,0,0-.836,1.35,3.475,3.475,0,0,0-1.747-.4c-2.348-2.129-7.149-6.27-10.576-4.627-1.8.864-2.078,2.653-2.4,4.725a19.045,19.045,0,0,1-1.324,5.085,14.719,14.719,0,0,1-4.318,5.549,3.442,3.442,0,0,0-.836-1.354Zm11.7,0a3.483,3.483,0,0,0-.138,4.773,24.755,24.755,0,0,1-11.428,0,3.463,3.463,0,0,0,.452-.64,17.429,17.429,0,0,0,6.476-7.49,21.08,21.08,0,0,0,1.475-5.607c.288-1.872.461-2.789,1.235-3.16,1.918-.919,5.44,1.813,7.5,3.607A3.461,3.461,0,0,0,82.2,55.235a3.476,3.476,0,0,0-3.043,5.1A3.466,3.466,0,0,0,77.8,61.171Zm7.576,7.576a1.393,1.393,0,0,1-1.968,0l-4.132-4.132a1.393,1.393,0,0,1,0-1.968h0a1.4,1.4,0,0,1,1.968,0L85.38,66.78A1.406,1.406,0,0,1,85.379,68.747Zm4.92-1.968a1.393,1.393,0,0,1-1.968,0L81.247,59.7a1.391,1.391,0,0,1,1.968-1.968L90.3,64.812A1.393,1.393,0,0,1,90.3,66.779Zm3.444-3.444a1.405,1.405,0,0,1-1.968,0l-7.084-7.084a1.4,1.4,0,0,1,0-1.968h0a1.4,1.4,0,0,1,1.968,0c2.226,2.248,4.955,4.955,7.084,7.084A1.393,1.393,0,0,1,93.743,63.336Zm1.968-4.919a1.393,1.393,0,0,1-1.968,0L89.61,54.284a1.393,1.393,0,0,1,0-1.968h0a1.4,1.4,0,0,1,1.968,0c.812.812,3.272,3.28,4.132,4.132A1.406,1.406,0,0,1,95.71,58.416ZM98.342,52.1l-1.87.405A26.613,26.613,0,0,0,97.7,48.942a1.61,1.61,0,0,1,.644,3.154Z"/>
    </g>
  </g>
</svg>
