<svg xmlns="http://www.w3.org/2000/svg" xmlns:xlink="http://www.w3.org/1999/xlink" width="113" height="113" viewBox="0 0 113 113">
  <defs>
    <filter id="Trazado_982547" x="0" y="0" width="113" height="113" filterUnits="userSpaceOnUse">
      <feOffset dy="3" input="SourceAlpha"/>
      <feGaussianBlur stdDeviation="3" result="blur"/>
      <feFlood flood-opacity="0.161"/>
      <feComposite operator="in" in2="blur"/>
      <feComposite in="SourceGraphic"/>
    </filter>
  </defs>
  <g id="Grupo_1242108" data-name="Grupo 1242108" transform="translate(-5970 -4321.389)">
    <g id="Grupo_1241237" data-name="Grupo 1241237" transform="translate(5979 4327.389)">
      <g id="Grupo_1241233" data-name="Grupo 1241233">
        <g id="Grupo_1240427" data-name="Grupo 1240427" transform="translate(0 0)">
          <g id="Grupo_1239780" data-name="Grupo 1239780">
            <g id="Grupo_1236603" data-name="Grupo 1236603">
              <g id="Grupo_1236145" data-name="Grupo 1236145">
                <g id="Grupo_1235107" data-name="Grupo 1235107">
                  <g id="Grupo_1223796" data-name="Grupo 1223796">
                    <g id="Grupo_1208038" data-name="Grupo 1208038">
                      <g id="Grupo_1202104" data-name="Grupo 1202104">
                        <g id="Grupo_1201923" data-name="Grupo 1201923">
                          <g id="Grupo_1176928" data-name="Grupo 1176928">
                            <g id="Grupo_1172322" data-name="Grupo 1172322">
                              <g id="Grupo_1164700" data-name="Grupo 1164700">
                                <g id="Grupo_1160931" data-name="Grupo 1160931">
                                  <g id="Grupo_1160749" data-name="Grupo 1160749">
                                    <g id="Grupo_1158891" data-name="Grupo 1158891">
                                      <g id="Grupo_1157406" data-name="Grupo 1157406">
                                        <g id="Grupo_1155793" data-name="Grupo 1155793">
                                          <g id="Grupo_1154704" data-name="Grupo 1154704">
                                            <g id="Grupo_1150790" data-name="Grupo 1150790">
                                              <g id="Grupo_1154214" data-name="Grupo 1154214">
                                                <g id="Grupo_1152583" data-name="Grupo 1152583">
                                                  <g id="Grupo_1146973" data-name="Grupo 1146973">
                                                    <g id="Grupo_1146954" data-name="Grupo 1146954">
                                                      <g transform="matrix(1, 0, 0, 1, -9, -6)" filter="url(#Trazado_982547)">
                                                        <g id="Trazado_982547-2" data-name="Trazado 982547" transform="translate(9 6)" fill="#ffe1b9">
                                                          <path d="M 47.50000762939453 93.49986267089844 C 41.28937911987305 93.49986267089844 35.26534271240234 92.28383636474609 29.59519386291504 89.88558197021484 C 24.11772727966309 87.56880950927734 19.19814109802246 84.25183868408203 14.97310066223145 80.02679443359375 C 10.74804782867432 75.8017578125 7.431074142456055 70.88218688964844 5.114300727844238 65.40471649169922 C 2.716034412384033 59.73458480834961 1.500007629394531 53.71054458618164 1.500007629394531 47.49993133544922 C 1.500007629394531 41.2893180847168 2.716034412384033 35.26527786254883 5.114300727844238 29.59514427185059 C 7.431074142456055 24.11767768859863 10.74804782867432 19.19810485839844 14.97310066223145 14.97306442260742 C 19.19814109802246 10.74802494049072 24.11772727966309 7.431051254272461 29.59519386291504 5.114277839660645 C 35.26534271240234 2.71602463722229 41.28937911987305 1.499997973442078 47.50000762939453 1.499997973442078 C 53.71063613891602 1.499997973442078 59.73467254638672 2.71602463722229 65.40482330322266 5.114277839660645 C 70.88228607177734 7.431051254272461 75.80187225341797 10.74802494049072 80.02691650390625 14.97306442260742 C 84.25196838378906 19.19810485839844 87.56893920898438 24.11767768859863 89.88571166992188 29.59514427185059 C 92.28398132324219 35.26527786254883 93.50000762939453 41.2893180847168 93.50000762939453 47.49993133544922 C 93.50000762939453 53.71054458618164 92.28398132324219 59.73458480834961 89.88571166992188 65.40471649169922 C 87.56893920898438 70.88218688964844 84.25196838378906 75.8017578125 80.02691650390625 80.02679443359375 C 75.80187225341797 84.25183868408203 70.88228607177734 87.56880950927734 65.40482330322266 89.88558197021484 C 59.73467254638672 92.28383636474609 53.71063613891602 93.49986267089844 47.50000762939453 93.49986267089844 Z" stroke="none"/>
                                                          <path d="M 47.50000762939453 2.999992370605469 C 41.4912223815918 2.999992370605469 35.66377639770508 4.1761474609375 30.17951202392578 6.495796203613281 C 24.88085174560547 8.736930847167969 20.12152862548828 11.94596099853516 16.03376007080078 16.03372955322266 C 11.94597625732422 20.12148284912109 8.736961364746094 24.88080596923828 6.495803833007812 30.17946624755859 C 4.176162719726562 35.66371536254883 3.000007629394531 41.49116134643555 3.000007629394531 47.49993133544922 C 3.000007629394531 53.50870132446289 4.176162719726562 59.33614730834961 6.495803833007812 64.82038879394531 C 8.736961364746094 70.11905670166016 11.94597625732422 74.87836456298828 16.03376007080078 78.96613311767578 C 20.12152862548828 83.05390167236328 24.88085174560547 86.26291656494141 30.17951202392578 88.50406646728516 C 35.66377639770508 90.82369995117188 41.4912223815918 91.99985504150391 47.50000762939453 91.99985504150391 C 53.50879287719727 91.99985504150391 59.33623886108398 90.82369995117188 64.82049560546875 88.50406646728516 C 70.11916351318359 86.26291656494141 74.87848663330078 83.05390167236328 78.96625518798828 78.96613311767578 C 83.05403900146484 74.87836456298828 86.26305389404297 70.11905670166016 88.50421142578125 64.82038879394531 C 90.8238525390625 59.33614730834961 92.00000762939453 53.50870132446289 92.00000762939453 47.49993133544922 C 92.00000762939453 41.49116134643555 90.8238525390625 35.66371536254883 88.50421142578125 30.17946624755859 C 86.26305389404297 24.88080596923828 83.05403900146484 20.12148284912109 78.96625518798828 16.03372955322266 C 74.87848663330078 11.94596099853516 70.11916351318359 8.736930847167969 64.82049560546875 6.495796203613281 C 59.33623886108398 4.1761474609375 53.50879287719727 2.999992370605469 47.50000762939453 2.999992370605469 M 47.50000762939453 -7.62939453125e-06 C 73.73352813720703 -7.62939453125e-06 95.00000762939453 21.26644134521484 95.00000762939453 47.49993133544922 C 95.00000762939453 73.73342132568359 73.73352813720703 94.99985504150391 47.50000762939453 94.99985504150391 C 21.26648712158203 94.99985504150391 7.62939453125e-06 73.73342132568359 7.62939453125e-06 47.49993133544922 C 7.62939453125e-06 21.26644134521484 21.26648712158203 -7.62939453125e-06 47.50000762939453 -7.62939453125e-06 Z" stroke="none" fill="#ff9d1c"/>
                                                        </g>
                                                      </g>
                                                    </g>
                                                  </g>
                                                </g>
                                              </g>
                                            </g>
                                          </g>
                                        </g>
                                      </g>
                                    </g>
                                  </g>
                                </g>
                              </g>
                            </g>
                          </g>
                        </g>
                      </g>
                    </g>
                  </g>
                </g>
              </g>
            </g>
          </g>
        </g>
      </g>
    </g>
    <g id="speedometer" transform="translate(5990.406 4338.796)">
      <circle id="Elipse_11575" data-name="Elipse 11575" cx="32.891" cy="32.891" r="32.891" transform="translate(3.452 3.452)" fill="#ebe5dd"/>
      <path id="Trazado_1298394" data-name="Trazado 1298394" d="M68.075,35.118A32.957,32.957,0,0,1,9.15,55.4,32.951,32.951,0,0,0,55.4,9.15,32.851,32.851,0,0,1,68.075,35.118Z" transform="translate(0.976 0.976)" fill="#d9ccbc"/>
      <path id="Trazado_1298395" data-name="Trazado 1298395" d="M57.385,33.637H48.293a17.969,17.969,0,0,0-2.443-9.08l.011-.011L53.714,20h.011a27.07,27.07,0,0,1,3.659,13.637Z" transform="translate(5.983 2.456)" fill="#cd2a00"/>
      <ellipse id="Elipse_11576" data-name="Elipse 11576" cx="1.907" cy="2.383" rx="1.907" ry="2.383" transform="translate(56.84 45.399)" fill="#cd2a00"/>
      <path id="Trazado_1298396" data-name="Trazado 1298396" d="M54.514,21.2l-7.853,4.546-.011.011A17.16,17.16,0,0,0,44.058,22.3l2.762-3.375-3.375,2.762a17.161,17.161,0,0,0-3.455-2.591L40,19.083l4.546-7.853A27.388,27.388,0,0,1,54.514,21.2Z" transform="translate(5.184 1.259)" fill="#ff3051"/>
      <circle id="Elipse_11577" data-name="Elipse 11577" cx="2.383" cy="2.383" r="2.383" transform="translate(47.306 45.399)" fill="#ff3051"/>
      <path id="Trazado_1298397" data-name="Trazado 1298397" d="M45.637,11.659v.011l-4.546,7.853-.011.011A17.97,17.97,0,0,0,32,17.092V8a27.07,27.07,0,0,1,13.637,3.659Z" transform="translate(4.094 0.819)" fill="#ffde55"/>
      <circle id="Elipse_11578" data-name="Elipse 11578" cx="6.674" cy="6.674" r="6.674" transform="translate(29.192 29.192)" fill="#57a4ff"/>
      <path id="Trazado_1298398" data-name="Trazado 1298398" d="M48.182,18l-2.762,3.375-7.341,9h-.011l-4.194,5.137a2.266,2.266,0,0,1-3.2-3.2l5.137-4.194V28.1l9-7.341Z" transform="translate(3.821 2.183)" fill="#898890"/>
      <path id="Trazado_1298399" data-name="Trazado 1298399" d="M25,48H40.91v9.092H25Z" transform="translate(3.138 6.277)" fill="#57a4ff"/>
      <path id="Trazado_1298400" data-name="Trazado 1298400" d="M33.637,8v9.092a17.97,17.97,0,0,0-9.08,2.443l-.011-.011L20,11.671v-.011A27.07,27.07,0,0,1,33.637,8Z" transform="translate(2.456 0.819)" fill="#ffde55"/>
      <path id="Trazado_1298401" data-name="Trazado 1298401" d="M25.742,19.083l.011.011a18.171,18.171,0,0,0-6.66,6.66l-.011-.011L11.23,21.2A27.388,27.388,0,0,1,21.2,11.23Z" transform="translate(1.259 1.259)" fill="#00b6bd"/>
      <ellipse id="Elipse_11579" data-name="Elipse 11579" cx="1.907" cy="2.383" rx="1.907" ry="2.383" transform="translate(20.612 45.399)" fill="#ffde55"/>
      <path id="Trazado_1298402" data-name="Trazado 1298402" d="M19.524,24.546l.011.011a17.97,17.97,0,0,0-2.443,9.08H8A27.07,27.07,0,0,1,11.659,20h.011Z" transform="translate(0.819 2.456)" fill="#00b6bd"/>
      <circle id="Elipse_11580" data-name="Elipse 11580" cx="2.383" cy="2.383" r="2.383" transform="translate(11.079 45.399)" fill="#ffde55"/>
      <path id="Trazado_1298403" data-name="Trazado 1298403" d="M36.094,2A34.094,34.094,0,1,0,70.187,36.094,34.094,34.094,0,0,0,36.094,2Zm0,65.914A31.821,31.821,0,1,1,67.914,36.094,31.821,31.821,0,0,1,36.094,67.914Z"/>
      <path id="Trazado_1298404" data-name="Trazado 1298404" d="M41.047,47H25.136A1.136,1.136,0,0,0,24,48.136v9.092a1.136,1.136,0,0,0,1.136,1.136h15.91a1.136,1.136,0,0,0,1.136-1.136V48.136A1.136,1.136,0,0,0,41.047,47ZM39.91,56.092H26.273V49.273H39.91Z" transform="translate(3.002 6.14)"/>
      <path id="Trazado_1298405" data-name="Trazado 1298405" d="M35.411,7A28.436,28.436,0,0,0,7,35.411a1.136,1.136,0,0,0,1.136,1.136h9.092a1.136,1.136,0,0,0,1.136-1.136A17.04,17.04,0,0,1,46.2,22.217L38.821,28.24A8,8,0,1,0,42.582,32l6.023-7.376a16.959,16.959,0,0,1,3.853,10.785,1.136,1.136,0,0,0,1.136,1.136h9.092a1.136,1.136,0,0,0,1.136-1.136A28.436,28.436,0,0,0,35.411,7ZM16.126,34.275H9.3a26.069,26.069,0,0,1,2.932-10.933l5.932,3.421a19.026,19.026,0,0,0-2.034,7.512ZM19.3,24.8l-5.921-3.421a26.213,26.213,0,0,1,8-8l3.409,5.91A19.5,19.5,0,0,0,19.3,24.8Zm14.978-8.648a19.187,19.187,0,0,0-7.512,2l-3.421-5.921A26.069,26.069,0,0,1,34.275,9.3Zm1.136,24.945a5.682,5.682,0,0,1,0-11.365,6.155,6.155,0,0,1,1.375.17l-3.7,3.023A.525.525,0,0,0,33,33a3.409,3.409,0,1,0,4.819,4.819.525.525,0,0,0,.08-.08l3.023-3.7a6.155,6.155,0,0,1,.17,1.375A5.682,5.682,0,0,1,35.411,41.094Zm.773-4.841a1.183,1.183,0,0,1-1.58-.034,1.125,1.125,0,0,1-.33-.807,1.152,1.152,0,0,1,.3-.773L43.321,27.5Zm.364-20.1V9.3A26.069,26.069,0,0,1,47.48,12.228L44.06,18.149a19.187,19.187,0,0,0-7.512-2ZM51.526,24.8a19.053,19.053,0,0,0-1.466-1.955L52.2,20.217a1.13,1.13,0,0,0-1.591-1.591l-2.637,2.148a20.314,20.314,0,0,0-1.932-1.489l3.409-5.91a26.213,26.213,0,0,1,8,8ZM54.7,34.275a19.026,19.026,0,0,0-2.034-7.512l5.932-3.421a26.069,26.069,0,0,1,2.932,10.933Z" transform="translate(0.682 0.682)"/>
      <path id="Trazado_1298406" data-name="Trazado 1298406" d="M44.409,39a3.409,3.409,0,1,0,3.409,3.409A3.409,3.409,0,0,0,44.409,39Zm0,4.546a1.136,1.136,0,1,1,1.136-1.136A1.136,1.136,0,0,1,44.409,43.546Z" transform="translate(5.322 5.049)"/>
      <path id="Trazado_1298407" data-name="Trazado 1298407" d="M52.409,39a3.409,3.409,0,1,0,3.409,3.409A3.409,3.409,0,0,0,52.409,39Zm0,4.546a1.136,1.136,0,1,1,1.136-1.136A1.136,1.136,0,0,1,52.409,43.546Z" transform="translate(6.413 5.049)"/>
      <path id="Trazado_1298408" data-name="Trazado 1298408" d="M20.409,39a3.409,3.409,0,1,0,3.409,3.409A3.409,3.409,0,0,0,20.409,39Zm0,4.546a1.136,1.136,0,1,1,1.136-1.136A1.136,1.136,0,0,1,20.409,43.546Z" transform="translate(2.047 5.049)"/>
      <path id="Trazado_1298409" data-name="Trazado 1298409" d="M12.409,39a3.409,3.409,0,1,0,3.409,3.409A3.409,3.409,0,0,0,12.409,39Zm0,4.546a1.136,1.136,0,1,1,1.136-1.136A1.136,1.136,0,0,1,12.409,43.546Z" transform="translate(0.955 5.049)"/>
      <path id="Trazado_1298410" data-name="Trazado 1298410" d="M25,41h2.273v2.273H25Z" transform="translate(3.138 5.322)"/>
      <path id="Trazado_1298411" data-name="Trazado 1298411" d="M29,41h5.682v2.273H29Z" transform="translate(3.684 5.322)"/>
      <path id="Trazado_1298412" data-name="Trazado 1298412" d="M36,41h2.273v2.273H36Z" transform="translate(4.639 5.322)"/>
    </g>
  </g>
</svg>
