<svg xmlns="http://www.w3.org/2000/svg" xmlns:xlink="http://www.w3.org/1999/xlink" width="108" height="108" viewBox="0 0 108 108">
  <defs>
    <filter id="Trazado_904820" x="0" y="0" width="108" height="108" filterUnits="userSpaceOnUse">
      <feOffset dy="3" input="SourceAlpha"/>
      <feGaussianBlur stdDeviation="3" result="blur"/>
      <feFlood flood-opacity="0.161"/>
      <feComposite operator="in" in2="blur"/>
      <feComposite in="SourceGraphic"/>
    </filter>
  </defs>
  <g id="Grupo_1241566" data-name="Grupo 1241566" transform="translate(9 6)">
    <g id="Grupo_1235608" data-name="Grupo 1235608" transform="translate(0 0)">
      <g id="Grupo_1235127" data-name="Grupo 1235127">
        <g id="Grupo_1233829" data-name="Grupo 1233829">
          <g id="Grupo_1228307" data-name="Grupo 1228307">
            <g id="Grupo_1228100" data-name="Grupo 1228100">
              <g id="Grupo_1221597" data-name="Grupo 1221597">
                <g id="Grupo_1219744" data-name="Grupo 1219744">
                  <g id="Grupo_1202418" data-name="Grupo 1202418">
                    <g id="Grupo_1177315" data-name="Grupo 1177315">
                      <g id="Grupo_1173585" data-name="Grupo 1173585">
                        <g id="Grupo_1173428" data-name="Grupo 1173428">
                          <g id="Grupo_1171958" data-name="Grupo 1171958">
                            <g id="Grupo_1167341" data-name="Grupo 1167341">
                              <g id="Grupo_1166792" data-name="Grupo 1166792">
                                <g transform="matrix(1, 0, 0, 1, -9, -6)" filter="url(#Trazado_904820)">
                                  <g id="Trazado_904820-2" data-name="Trazado 904820" transform="translate(9 6)" fill="#f2f7e5">
                                    <path d="M 44.99999618530273 88.49990081787109 C 39.12687301635742 88.49990081787109 33.43022155761719 87.3499755859375 28.06829643249512 85.08207702636719 C 22.88852119445801 82.89122009277344 18.23629570007324 79.75450134277344 14.24084663391113 75.75906372070312 C 10.24540901184082 71.76361846923828 7.108683586120605 67.11140441894531 4.917821407318115 61.931640625 C 2.649921178817749 56.56971740722656 1.499996185302734 50.87306594848633 1.499996185302734 44.99995422363281 C 1.499996185302734 39.1268424987793 2.649921178817749 33.43019104003906 4.917821407318115 28.06826591491699 C 7.108683586120605 22.88850402832031 10.24540901184082 18.23629188537598 14.24084663391113 14.24084186553955 C 18.23629570007324 10.24540424346924 22.88852119445801 7.108691692352295 28.06829643249512 4.917829036712646 C 33.43022155761719 2.649929285049438 39.12687301635742 1.500004172325134 44.99999618530273 1.500004172325134 C 50.87311935424805 1.500004172325134 56.56977081298828 2.649929285049438 61.93169784545898 4.917829036712646 C 67.11147308349609 7.108691692352295 71.76369476318359 10.24540424346924 75.75914764404297 14.24084186553955 C 79.75458526611328 18.23629188537598 82.89131164550781 22.88850402832031 85.08216857910156 28.06826591491699 C 87.35007476806641 33.43019104003906 88.5 39.1268424987793 88.5 44.99995422363281 C 88.5 50.87306594848633 87.35007476806641 56.56971740722656 85.08216857910156 61.931640625 C 82.89131164550781 67.11140441894531 79.75458526611328 71.76361846923828 75.75914764404297 75.75906372070312 C 71.76369476318359 79.75450134277344 67.11147308349609 82.89122009277344 61.93169784545898 85.08207702636719 C 56.56977081298828 87.3499755859375 50.87311935424805 88.49990081787109 44.99999618530273 88.49990081787109 Z" stroke="none"/>
                                    <path d="M 44.99999618530273 3 C 39.32870864868164 3 33.82865142822266 4.110054016113281 28.65262603759766 6.299324035644531 C 23.65165710449219 8.414566040039062 19.15968322753906 11.44332885742188 15.301513671875 15.30149841308594 C 11.44333648681641 19.15966796875 8.414566040039062 23.65162658691406 6.299339294433594 28.65259552001953 C 4.110054016113281 33.8286247253418 2.999992370605469 39.32866668701172 2.999992370605469 44.99995422363281 C 2.999992370605469 50.67124176025391 4.110054016113281 56.17128372192383 6.299339294433594 61.34731292724609 C 8.414566040039062 66.34828186035156 11.44333648681641 70.84024047851562 15.301513671875 74.69841003417969 C 19.15968322753906 78.55657958984375 23.65165710449219 81.58534240722656 28.65262603759766 83.70058441162109 C 33.82865142822266 85.88985443115234 39.32870864868164 86.99990844726562 44.99999618530273 86.99990844726562 C 50.67128372192383 86.99990844726562 56.17134094238281 85.88985443115234 61.34736633300781 83.70058441162109 C 66.34834289550781 81.58534240722656 70.84030914306641 78.55657958984375 74.69847869873047 74.69841003417969 C 78.55665588378906 70.84024047851562 81.58542633056641 66.34828186035156 83.70065307617188 61.34731292724609 C 85.88993835449219 56.17128372192383 87 50.67124176025391 87 44.99995422363281 C 87 39.32866668701172 85.88993835449219 33.8286247253418 83.70065307617188 28.65259552001953 C 81.58542633056641 23.65162658691406 78.55665588378906 19.15966796875 74.69847869873047 15.30149841308594 C 70.84030914306641 11.44332885742188 66.34834289550781 8.414566040039062 61.34736633300781 6.299324035644531 C 56.17134094238281 4.110054016113281 50.67128372192383 3 44.99999618530273 3 M 44.99999618530273 0 C 69.85281372070312 0 90 20.14717102050781 90 44.99995422363281 C 90 69.85273742675781 69.85281372070312 89.99990844726562 44.99999618530273 89.99990844726562 C 20.14717864990234 89.99990844726562 -7.62939453125e-06 69.85273742675781 -7.62939453125e-06 44.99995422363281 C -7.62939453125e-06 20.14717102050781 20.14717864990234 0 44.99999618530273 0 Z" stroke="none" fill="#496406"/>
                                  </g>
                                </g>
                              </g>
                            </g>
                          </g>
                        </g>
                      </g>
                    </g>
                  </g>
                </g>
              </g>
            </g>
          </g>
        </g>
      </g>
    </g>
    <g id="Monitoring" transform="translate(15 10.957)">
      <rect id="Rectángulo_423242" data-name="Rectángulo 423242" width="54" height="38" rx="4" transform="translate(3 13.01)" fill="#57a4ff"/>
      <path id="Trazado_1297458" data-name="Trazado 1297458" d="M9,19H55V49H9Z" transform="translate(-2 -1.99)" fill="#ffdaaa"/>
      <path id="Trazado_1297459" data-name="Trazado 1297459" d="M26,49H55V19C55,35.582,42.029,49,26,49Z" transform="translate(-2 -1.99)" fill="#ffc477"/>
      <path id="Trazado_1297460" data-name="Trazado 1297460" d="M3,53H61v4a4,4,0,0,1-4,4H7a4,4,0,0,1-4-4Z" transform="translate(-2 -1.99)" fill="#006df0"/>
      <path id="Trazado_1297461" data-name="Trazado 1297461" d="M55,15H53a4,4,0,0,1,4,4V49a4,4,0,0,1-4,4h2a4,4,0,0,0,4-4V19A4,4,0,0,0,55,15Z" transform="translate(-2 -1.99)" fill="#2488ff"/>
      <path id="Trazado_1297462" data-name="Trazado 1297462" d="M59,53v4a4,4,0,0,1-4,4h2a4,4,0,0,0,4-4V53Z" transform="translate(-2 -1.99)" fill="#005ece"/>
      <path id="Trazado_1297463" data-name="Trazado 1297463" d="M29,57h6a2,2,0,0,0,2-2V53H27v2A2,2,0,0,0,29,57Z" transform="translate(-2 -1.99)" fill="#ffcd00"/>
      <path id="Trazado_1297464" data-name="Trazado 1297464" d="M40,32.86A16,16,0,1,1,45.86,11,16,16,0,0,1,40,32.86Z" transform="translate(-2 -1.99)" fill="#ff9811"/>
      <path id="Trazado_1297465" data-name="Trazado 1297465" d="M38,29.39A12,12,0,1,1,42.39,13,12,12,0,0,1,38,29.39Z" transform="translate(-2 -1.99)" fill="#ffcd00"/>
      <path id="Trazado_1297466" data-name="Trazado 1297466" d="M45.232,37.919l-3.464,2-1.732,1L46.95,52.894a4,4,0,0,0,6.928-4L46.964,36.919Z" transform="translate(-2 -1.99)" fill="#004fac"/>
      <path id="Trazado_1297467" data-name="Trazado 1297467" d="M36,14h3V24H36Z" transform="translate(-2 -1.99)" fill="#5eac24"/>
      <path id="Trazado_1297468" data-name="Trazado 1297468" d="M30,17h3v7H30Z" transform="translate(-2 -1.99)" fill="#006df0"/>
      <path id="Trazado_1297469" data-name="Trazado 1297469" d="M24,20h3v4H24Z" transform="translate(-2 -1.99)" fill="#ed1c24"/>
      <path id="Trazado_1297470" data-name="Trazado 1297470" d="M41.569,31.812a14.847,14.847,0,0,1-3.258,1.881l-.1.059,3.56,6.167,3.464-2-3.56-6.167Z" transform="translate(-2 -1.99)" fill="#ff5023"/>
      <path id="Trazado_1297471" data-name="Trazado 1297471" d="M20.741,25.5A13,13,0,1,0,25.5,7.742,13,13,0,0,0,20.741,25.5ZM26.5,9.474a10.93,10.93,0,1,1-5.153,6.672A11,11,0,0,1,26.5,9.474Z" transform="translate(-2 -1.99)"/>
      <path id="Trazado_1297472" data-name="Trazado 1297472" d="M61,52H58.974A4.948,4.948,0,0,0,60,49V19a5.006,5.006,0,0,0-5-5H48.235A16.968,16.968,0,0,0,15.78,14H9a5.006,5.006,0,0,0-5,5V49a4.948,4.948,0,0,0,1.026,3H3a1,1,0,0,0-1,1v4a5.006,5.006,0,0,0,5,5H57a5.006,5.006,0,0,0,5-5V53A1,1,0,0,0,61,52ZM55,16a3,3,0,0,1,3,3V49a2.994,2.994,0,0,1-2.722,2.972A4.983,4.983,0,0,0,55.3,49.94.989.989,0,0,0,56,49V19a1,1,0,0,0-1-1H48.951a16.959,16.959,0,0,0-.237-2ZM15.049,20A16.932,16.932,0,0,0,27.6,35.421a17.109,17.109,0,0,0,4.427.586,16.8,16.8,0,0,0,5.74-1.018L40.4,39.553l-.865.5a1,1,0,0,0-.366,1.366L42.97,48H10V20ZM41.341,33.179l2.525,4.373-1.732,1-2.516-4.358c.3-.149.592-.3.882-.471s.562-.361.841-.544Zm.061,8.106,2.6-1.5,1.732-1,.864-.5,6.41,11.1v.005a3,3,0,1,1-5.2,3Zm6.428-4.867a1,1,0,0,0-1.366-.366l-.866.5-2.641-4.573a17.025,17.025,0,0,0,6-11.979H54V47.106ZM24.5,6.01a14.909,14.909,0,0,1,7.476-2.017A15.011,15.011,0,1,1,24.5,6.01ZM6,19a3,3,0,0,1,3-3h6.283a17.192,17.192,0,0,0-.241,2H9a1,1,0,0,0-1,1V49a1,1,0,0,0,1,1H44.124l1.155,2H9a3,3,0,0,1-3-3ZM36,54v1a1,1,0,0,1-1,1H29a1,1,0,0,1-1-1V54Zm24,3a3,3,0,0,1-3,3H7a3,3,0,0,1-3-3V54H26v1a3,3,0,0,0,3,3h6a3,3,0,0,0,3-3V54h8.5a4.971,4.971,0,0,0,7.821,0H60Z" transform="translate(-2 -1.99)"/>
      <path id="Trazado_1297473" data-name="Trazado 1297473" d="M36,25h3a1,1,0,0,0,1-1V14a1,1,0,0,0-1-1H36a1,1,0,0,0-1,1V24A1,1,0,0,0,36,25Zm1-10h1v8H37Z" transform="translate(-2 -1.99)"/>
      <path id="Trazado_1297474" data-name="Trazado 1297474" d="M30,25h3a1,1,0,0,0,1-1V17a1,1,0,0,0-1-1H30a1,1,0,0,0-1,1v7A1,1,0,0,0,30,25Zm1-7h1v5H31Z" transform="translate(-2 -1.99)"/>
      <path id="Trazado_1297475" data-name="Trazado 1297475" d="M24,25h3a1,1,0,0,0,1-1V20a1,1,0,0,0-1-1H24a1,1,0,0,0-1,1v4A1,1,0,0,0,24,25Zm1-4h1v2H25Z" transform="translate(-2 -1.99)"/>
      <path id="Trazado_1297476" data-name="Trazado 1297476" d="M15,42h2a1,1,0,0,0,0-2H15a1,1,0,0,0,0,2Z" transform="translate(-2 -1.99)"/>
      <path id="Trazado_1297477" data-name="Trazado 1297477" d="M21,42H36a1,1,0,0,0,0-2H21a1,1,0,0,0,0,2Z" transform="translate(-2 -1.99)"/>
      <path id="Trazado_1297478" data-name="Trazado 1297478" d="M15,38h2a1,1,0,0,0,0-2H15a1,1,0,0,0,0,2Z" transform="translate(-2 -1.99)"/>
      <path id="Trazado_1297479" data-name="Trazado 1297479" d="M21,38h4a1,1,0,0,0,0-2H21a1,1,0,0,0,0,2Z" transform="translate(-2 -1.99)"/>
      <path id="Trazado_1297480" data-name="Trazado 1297480" d="M15,46h2a1,1,0,1,0,0-2H15a1,1,0,1,0,0,2Z" transform="translate(-2 -1.99)"/>
      <path id="Trazado_1297481" data-name="Trazado 1297481" d="M21,46H36a1,1,0,1,0,0-2H21a1,1,0,1,0,0,2Z" transform="translate(-2 -1.99)"/>
    </g>
  </g>
</svg>
