<svg xmlns="http://www.w3.org/2000/svg" xmlns:xlink="http://www.w3.org/1999/xlink" width="400" height="336" viewBox="0 0 400 336">
  <defs>
    <clipPath id="clip-path">
      <rect id="Rect치ngulo_423329" data-name="Rect치ngulo 423329" width="400" height="336" transform="translate(180 5215)" fill="#fff" stroke="#707070" stroke-width="1"/>
    </clipPath>
    <linearGradient id="linear-gradient" x1="218.871" y1="0.5" x2="219.872" y2="0.5" gradientUnits="objectBoundingBox">
      <stop offset="0" stop-color="#fff"/>
      <stop offset="0.014" stop-color="#fefeff"/>
      <stop offset="0.612" stop-color="#e9ecfb"/>
      <stop offset="1" stop-color="#e1e5fa"/>
    </linearGradient>
    <linearGradient id="linear-gradient-2" x1="218.893" y1="0.5" x2="219.892" y2="0.5" xlink:href="#linear-gradient"/>
    <linearGradient id="linear-gradient-3" y1="0.5" x2="1" y2="0.5" gradientUnits="objectBoundingBox">
      <stop offset="0" stop-color="#fbd1be"/>
      <stop offset="1" stop-color="#f8b4a8"/>
    </linearGradient>
    <linearGradient id="linear-gradient-4" x1="-30.445" y1="0.5" x2="-29.445" y2="0.5" xlink:href="#linear-gradient-3"/>
    <linearGradient id="linear-gradient-5" x1="186.355" y1="0.563" x2="185.478" y2="0.462" xlink:href="#linear-gradient-3"/>
    <linearGradient id="linear-gradient-6" x1="-32.024" y1="1" x2="-31.066" y2="0.733" xlink:href="#linear-gradient-3"/>
    <linearGradient id="linear-gradient-7" x1="-347.259" y1="19.109" x2="-346.27" y2="18.929" xlink:href="#linear-gradient-3"/>
    <linearGradient id="linear-gradient-8" x1="-46.187" y1="0.924" x2="-45.51" y2="0.281" xlink:href="#linear-gradient-3"/>
    <linearGradient id="linear-gradient-9" x1="1.133" y1="0.924" x2="1.811" y2="0.281" xlink:href="#linear-gradient-3"/>
    <linearGradient id="linear-gradient-10" x1="-31.516" y1="3.525" x2="-30.558" y2="3.258" xlink:href="#linear-gradient-3"/>
    <linearGradient id="linear-gradient-11" x1="-344.364" y1="26.352" x2="-343.374" y2="26.172" xlink:href="#linear-gradient-3"/>
    <linearGradient id="linear-gradient-12" x1="-240.153" y1="41.656" x2="-239.421" y2="41.599" xlink:href="#linear-gradient-3"/>
  </defs>
  <g id="Grupo_1242169" data-name="Grupo 1242169" transform="translate(-180 -5215)">
    <rect id="Rect치ngulo_423333" data-name="Rect치ngulo 423333" width="241" height="335" transform="translate(296 5216)" fill="#f6f3ef"/>
    <g id="Enmascarar_grupo_1211539" data-name="Enmascarar grupo 1211539" clip-path="url(#clip-path)">
      <g id="OBJECTS" transform="translate(168.451 5185.155)">
        <g id="Grupo_1242113" data-name="Grupo 1242113" transform="translate(325.648 179.618)">
          <g id="Grupo_1242112" data-name="Grupo 1242112" transform="translate(5.778 36.226)">
            <path id="Trazado_1298413" data-name="Trazado 1298413" d="M415.494,257.865a9.3,9.3,0,0,0-8.44-.085c-1.742.972-2.251,2.407-1.5,3.644l.651,1.071c.151.25.3.5.455.75q.1.162.195.322c-.579-.955-.187-2.06,1.156-2.809a7.16,7.16,0,0,1,6.5.066c1.237.745,1.574,1.8,1.025,2.718l1.288-2.15C417.539,260.2,417.1,258.833,415.494,257.865Z" transform="translate(-399.302 -255.507)" fill="#a8cc9d"/>
            <g id="Grupo_1242109" data-name="Grupo 1242109" transform="translate(7.294 4.505)">
              <path id="Trazado_1298414" data-name="Trazado 1298414" d="M414.836,261.576c1.758,1.058,1.7,2.744-.135,3.766a7.165,7.165,0,0,1-6.5-.066c-1.758-1.059-1.7-2.745.135-3.767A7.16,7.16,0,0,1,414.836,261.576Z" transform="translate(-406.919 -260.762)" fill="#ad836d"/>
            </g>
            <g id="Grupo_1242110" data-name="Grupo 1242110" transform="translate(3.668)">
              <path id="Trazado_1298415" data-name="Trazado 1298415" d="M416.592,256.656c3.142,1.892,3.033,4.9-.242,6.731a12.8,12.8,0,0,1-11.618-.118c-3.142-1.892-3.035-4.9.24-6.731A12.8,12.8,0,0,1,416.592,256.656Zm-1.623.9a9.3,9.3,0,0,0-8.44-.085c-2.379,1.327-2.456,3.516-.175,4.888a9.294,9.294,0,0,0,8.44.085c2.379-1.326,2.459-3.515.175-4.889" transform="translate(-402.444 -255.203)" fill="#e5f2e1"/>
            </g>
            <g id="Grupo_1242111" data-name="Grupo 1242111" transform="translate(0 4.179)">
              <path id="Trazado_1298416" data-name="Trazado 1298416" d="M398,278.667q1.822-9.131,3.643-18.261c-.271,1.362.468,2.778,2.234,3.841a12.8,12.8,0,0,0,11.618.118c1.937-1.079,2.765-2.573,2.471-4.005l3.747,18.24c.428,2.08-.777,4.251-3.589,5.819-4.758,2.653-12.314,2.576-16.88-.171C398.677,282.7,397.6,280.645,398,278.667Z" transform="translate(-397.918 -260.359)" fill="#d9ebd3"/>
            </g>
          </g>
          <path id="Trazado_1298417" data-name="Trazado 1298417" d="M417.342,221.765c-.78-2.646.188-2.8-1.039-5.41-1.356-2.567-2.819-3.429-4.3-5.852-1.562,2.372-3.051,3.187-4.491,5.707-1.312,2.571-.348,2.755-1.215,5.373-.737,2.648-1.937,2.554-2.535,5.32-.469,2.786.944,2.782.9,5.51.083,2.728-1.531,2.879-1.281,5.691.38,2.8,2.17,2.5,2.949,5.146.9,2.615-1.037,3.1.068,5.758,1.237,2.615,3.3,1.944,4.906,4.308,1.678-2.311,3.721-1.573,5.044-4.147,1.193-2.618-.733-3.168.255-5.752.865-2.616,2.644-2.259,3.115-5.048.342-2.8-1.267-3.006-1.094-5.731.046-2.726,1.459-2.675,1.079-5.476C419.193,224.382,417.995,224.435,417.342,221.765Z" transform="translate(-393.17 -210.503)" fill="#5f9c48"/>
          <path id="Trazado_1298418" data-name="Trazado 1298418" d="M432.021,239.731c.72-2.012,1.4-1.667,1.821-3.864.323-2.227-.2-3.435-.021-5.63-2.062.772-3.367.6-5.42,1.523-2,1.011-1.477,1.567-3.216,2.811-1.672,1.321-2.379.715-4.018,2.174-1.567,1.531-.679,2.174-1.953,3.863-1.195,1.747-2.273,1.1-3.4,2.98-1.041,1.928.216,2.559-.5,4.57-.628,2.052-2.067,1.469-2.587,3.639-.421,2.2,1.18,2.726,1.1,4.939,2.107-.68,3.05.716,5.053-.292,1.943-1.1.988-2.32,2.788-3.486,1.738-1.243,2.688-.207,4.257-1.739,1.494-1.6.58-2.46,1.933-4.09,1.274-1.686,2.135-1.008,3.178-2.936C431.985,242.215,431.21,241.7,432.021,239.731Z" transform="translate(-394.933 -214.244)" fill="#75bc5b"/>
          <path id="Trazado_1298419" data-name="Trazado 1298419" d="M392.388,244c-.6-1.67-1.159-1.382-1.51-3.2-.267-1.847.165-2.849.019-4.669,1.709.64,2.791.5,4.495,1.263,1.657.838,1.225,1.3,2.667,2.332,1.387,1.095,1.973.592,3.332,1.8,1.3,1.269.563,1.8,1.619,3.2.99,1.449,1.885.916,2.821,2.472.864,1.6-.179,2.122.419,3.79.521,1.7,1.713,1.218,2.144,3.017.349,1.827-.978,2.261-.915,4.1-1.747-.563-2.529.593-4.192-.243-1.611-.908-.819-1.923-2.311-2.89-1.441-1.032-2.23-.172-3.531-1.441-1.238-1.326-.481-2.042-1.6-3.392-1.057-1.4-1.772-.836-2.635-2.435C392.418,246.063,393.061,245.637,392.388,244Z" transform="translate(-390.789 -215.361)" fill="#75bc5b"/>
        </g>
        <g id="Grupo_1242118" data-name="Grupo 1242118" transform="translate(234.491 72.971)">
          <g id="Grupo_1242117" data-name="Grupo 1242117">
            <g id="Grupo_1242116" data-name="Grupo 1242116">
              <g id="Grupo_1242114" data-name="Grupo 1242114" transform="translate(0 11.545)">
                <path id="Trazado_1298420" data-name="Trazado 1298420" d="M297.748,93.154l-.814.52-18.625,8.142.814-.521Z" transform="translate(-278.308 -93.154)" fill="#d45990"/>
              </g>
              <g id="Grupo_1242115" data-name="Grupo 1242115">
                <path id="Trazado_1298421" data-name="Trazado 1298421" d="M279.122,98.6l-.814.521L281.94,79.43l.815-.521Z" transform="translate(-278.308 -78.909)" fill="#d45990"/>
              </g>
            </g>
          </g>
          <path id="Trazado_1298422" data-name="Trazado 1298422" d="M284.489,100.028l16.139,36.826,16.435,1.485,16.452,28.681,16.161,2.846.379,1.469L333.2,168.365l-16.415-28.613-16.586-1.5-16.669-38.032Z" transform="translate(-279.299 -82.913)" fill="#d45990"/>
          <path id="Trazado_1298423" data-name="Trazado 1298423" d="M308.966,127.539,293.554,92.37l4.384-1.917L282.946,78.909,279.313,98.6l4.618-2.018,15.9,36.273Z" transform="translate(-278.499 -78.909)" fill="#fa8bbd"/>
          <path id="Trazado_1298424" data-name="Trazado 1298424" d="M283.534,98.979l9.139-5.312.955-.193-9.139,5.311Z" transform="translate(-279.299 -81.67)" fill="#fc8cbe"/>
          <path id="Trazado_1298425" data-name="Trazado 1298425" d="M324.9,146.058l9.14-5.31L350.5,169.427l-9.138,5.312Z" transform="translate(-287.142 -90.632)" fill="#fc8cbe"/>
          <path id="Trazado_1298426" data-name="Trazado 1298426" d="M304.626,144.226l9.138-5.311L330.2,140.4l-9.14,5.31Z" transform="translate(-283.297 -90.285)" fill="#e86fa5"/>
          <path id="Trazado_1298427" data-name="Trazado 1298427" d="M365.148,184.96l9.139-5.312.38,1.47-9.14,5.311Z" transform="translate(-294.771 -98.007)" fill="#fc8cbe"/>
          <path id="Trazado_1298428" data-name="Trazado 1298428" d="M345.206,181.448l9.138-5.312,16.162,2.846-9.139,5.312Z" transform="translate(-290.99 -97.341)" fill="#e86fa5"/>
        </g>
        <path id="Trazado_1298429" data-name="Trazado 1298429" d="M222.465,49.231c0-1.468-1.041-2.067-2.319-1.33L148.94,89.013l-.713-3.529c-.239-1.17-1.458-1.5-2.742-.759l-33.861,19.55a6.262,6.262,0,0,0-2.728,3.917l-.69,4.339-4.735,2.734a5.091,5.091,0,0,0-2.3,4v71.11c0,1.47,1.041,2.06,2.319,1.323l116.676-67.364a5.074,5.074,0,0,0,2.3-3.991V49.231Z" transform="translate(-10.235)" fill="#242b3d"/>
        <g id="Grupo_1242119" data-name="Grupo 1242119" transform="translate(97.741 96.183)">
          <path id="Trazado_1298430" data-name="Trazado 1298430" d="M160.912,112.86l0-.827-51.34,29.64,0,.827Z" transform="translate(-109.57 -108.401)" fill="#c1cde3"/>
          <path id="Trazado_1298431" data-name="Trazado 1298431" d="M163.134,108.377l0-.826-41.786,24.126,0,.827Z" transform="translate(-111.802 -107.551)" fill="#c1cde3"/>
          <path id="Trazado_1298432" data-name="Trazado 1298432" d="M109.6,151.466l51.338-29.64,0-.827L109.6,150.639Z" transform="translate(-109.575 -110.1)" fill="#c1cde3"/>
          <path id="Trazado_1298433" data-name="Trazado 1298433" d="M109.586,146.983l51.34-29.64,0-.827-51.339,29.64Z" transform="translate(-109.573 -109.251)" fill="#c1cde3"/>
          <path id="Trazado_1298434" data-name="Trazado 1298434" d="M109.609,157.08l0,.826,36.841-21.27,0-.827Z" transform="translate(-109.577 -112.908)" fill="#c1cde3"/>
          <path id="Trazado_1298435" data-name="Trazado 1298435" d="M160.91,140.894l-51.34,29.64,0,.827,51.339-29.641Z" transform="translate(-109.57 -113.872)" fill="#c1cde3"/>
          <path id="Trazado_1298436" data-name="Trazado 1298436" d="M163.134,137.238l0-.826-41.786,24.126,0,.827Z" transform="translate(-111.802 -113.022)" fill="#c1cde3"/>
          <path id="Trazado_1298437" data-name="Trazado 1298437" d="M109.584,175.017l0,.827,51.34-29.641,0-.826Z" transform="translate(-109.573 -114.722)" fill="#c1cde3"/>
        </g>
        <g id="Grupo_1242120" data-name="Grupo 1242120" transform="translate(102.85 118.307)">
          <path id="Trazado_1298438" data-name="Trazado 1298438" d="M222.825,145.615,222.8,134.85l-1.07.615.032,10.766Z" transform="translate(-135.941 -134.85)" fill="#69d3ff"/>
          <path id="Trazado_1298439" data-name="Trazado 1298439" d="M219.3,148.69l-.017-6.325-1.067.613.018,6.328Z" transform="translate(-135.276 -136.275)" fill="#69d3ff"/>
          <path id="Trazado_1298440" data-name="Trazado 1298440" d="M215.771,149.46l-.032-11.741-1.067.616.032,11.741Z" transform="translate(-134.604 -135.394)" fill="#69d3ff"/>
          <path id="Trazado_1298441" data-name="Trazado 1298441" d="M212.241,150.693l-.044-15.175-1.065.616.041,15.176Z" transform="translate(-133.933 -134.977)" fill="#69d3ff"/>
          <path id="Trazado_1298442" data-name="Trazado 1298442" d="M208.721,155.788l0-2.108-1.069.613.006,2.111Z" transform="translate(-133.272 -138.42)" fill="#69d3ff"/>
          <path id="Trazado_1298443" data-name="Trazado 1298443" d="M117,204.692l-.057-19.4-1.066.615.054,19.4Z" transform="translate(-115.874 -144.412)" fill="#69d3ff"/>
          <path id="Trazado_1298444" data-name="Trazado 1298444" d="M120.529,204.448l-.035-11.741-1.065.614.034,11.743Z" transform="translate(-116.548 -145.818)" fill="#69d3ff"/>
          <path id="Trazado_1298445" data-name="Trazado 1298445" d="M124.059,203.568l-.019-6.8-1.063.616.016,6.8Z" transform="translate(-117.22 -146.589)" fill="#69d3ff"/>
          <path id="Trazado_1298446" data-name="Trazado 1298446" d="M127.582,200.376l-.033-11.743-1.067.617.034,11.74Z" transform="translate(-117.885 -145.046)" fill="#69d3ff"/>
          <path id="Trazado_1298447" data-name="Trazado 1298447" d="M131.113,199.21l-.023-8.022-1.067.615.024,8.022Z" transform="translate(-118.556 -145.53)" fill="#69d3ff"/>
          <path id="Trazado_1298448" data-name="Trazado 1298448" d="M134.635,195.5l-.041-15.176-1.067.615.041,15.175Z" transform="translate(-119.221 -143.471)" fill="#69d3ff"/>
          <path id="Trazado_1298449" data-name="Trazado 1298449" d="M138.169,194.743l-.03-9.7-1.067.616.026,9.7Z" transform="translate(-119.893 -144.365)" fill="#69d3ff"/>
          <path id="Trazado_1298450" data-name="Trazado 1298450" d="M141.687,190.816l-.051-17.789-1.067.617.053,17.788Z" transform="translate(-120.556 -142.087)" fill="#69d3ff"/>
          <path id="Trazado_1298451" data-name="Trazado 1298451" d="M145.222,191.065l-.024-8.022-1.067.615.024,8.021Z" transform="translate(-121.231 -143.986)" fill="#69d3ff"/>
          <path id="Trazado_1298452" data-name="Trazado 1298452" d="M148.749,188.633l-.028-9.7-1.066.614.025,9.7Z" transform="translate(-121.899 -143.207)" fill="#69d3ff"/>
          <path id="Trazado_1298453" data-name="Trazado 1298453" d="M152.278,185.9l-.036-12.659-1.073.619.036,12.657Z" transform="translate(-122.565 -142.129)" fill="#69d3ff"/>
          <path id="Trazado_1298454" data-name="Trazado 1298454" d="M155.81,185.237l-.019-6.8-1.073.618.02,6.8Z" transform="translate(-123.238 -143.114)" fill="#69d3ff"/>
          <path id="Trazado_1298455" data-name="Trazado 1298455" d="M159.332,181.241l-.045-15.177-1.071.619.043,15.175Z" transform="translate(-123.901 -140.767)" fill="#69d3ff"/>
          <path id="Trazado_1298456" data-name="Trazado 1298456" d="M162.864,181.381l-.015-5.868-1.071.619.015,5.869Z" transform="translate(-124.576 -142.559)" fill="#69d3ff"/>
          <path id="Trazado_1298457" data-name="Trazado 1298457" d="M166.39,179.24l-.015-6.329-1.075.62.019,6.325Z" transform="translate(-125.244 -142.065)" fill="#69d3ff"/>
          <path id="Trazado_1298458" data-name="Trazado 1298458" d="M169.915,176.805l-.021-8.023-1.071.619.023,8.022Z" transform="translate(-125.912 -141.283)" fill="#69d3ff"/>
          <path id="Trazado_1298459" data-name="Trazado 1298459" d="M173.442,174.127l-.03-10.765-1.073.618.032,10.764Z" transform="translate(-126.578 -140.255)" fill="#69d3ff"/>
          <path id="Trazado_1298460" data-name="Trazado 1298460" d="M176.968,171.441l-.039-13.537-1.069.619.036,13.537Z" transform="translate(-127.246 -139.22)" fill="#69d3ff"/>
          <path id="Trazado_1298461" data-name="Trazado 1298461" d="M180.5,170.7l-.022-8.022-1.067.617.021,8.019Z" transform="translate(-127.919 -140.125)" fill="#69d3ff"/>
          <path id="Trazado_1298462" data-name="Trazado 1298462" d="M184.027,169.4l-.011-4.846-1.069.615.016,4.848Z" transform="translate(-128.59 -140.481)" fill="#69d3ff"/>
          <path id="Trazado_1298463" data-name="Trazado 1298463" d="M187.556,166.723l-.023-7.585-1.067.618.021,7.584Z" transform="translate(-129.257 -139.454)" fill="#69d3ff"/>
          <path id="Trazado_1298464" data-name="Trazado 1298464" d="M191.081,164.638l-.02-7.8-1.067.616.023,7.8Z" transform="translate(-129.925 -139.018)" fill="#69d3ff"/>
          <path id="Trazado_1298465" data-name="Trazado 1298465" d="M194.608,162.946l-.016-6.327-1.068.617.018,6.328Z" transform="translate(-130.594 -138.977)" fill="#69d3ff"/>
          <path id="Trazado_1298466" data-name="Trazado 1298466" d="M198.135,160.4l-.023-8.512-1.067.615.023,8.513Z" transform="translate(-131.262 -138.08)" fill="#69d3ff"/>
          <path id="Trazado_1298467" data-name="Trazado 1298467" d="M201.662,157.781l-.032-11-1.065.617.03,11Z" transform="translate(-131.929 -137.111)" fill="#69d3ff"/>
          <path id="Trazado_1298468" data-name="Trazado 1298468" d="M205.19,156.823l-.016-6.389-1.069.616.019,6.388Z" transform="translate(-132.6 -137.804)" fill="#69d3ff"/>
        </g>
        <g id="Grupo_1242129" data-name="Grupo 1242129" transform="translate(57.532 123.187)">
          <g id="Grupo_1242123" data-name="Grupo 1242123" transform="translate(12.907 58.06)">
            <g id="Grupo_1242122" data-name="Grupo 1242122" transform="translate(6.645 62.931)">
              <path id="Trazado_1298469" data-name="Trazado 1298469" d="M92.043,290.214s3.984,4.144,5.47,5.333,3.068,2.637,3.439,3.73a3.3,3.3,0,0,1,.261,1.885,4.76,4.76,0,0,1-3.449,1.982,6.493,6.493,0,0,1-4.77-1.07c-1.318-.729-5.7-3.232-6.637-3.889s-2.191-1.335-2.27-2.411a51.693,51.693,0,0,1,.652-5.608Z" transform="translate(-84.08 -290.165)" fill="#252736" fill-rule="evenodd"/>
              <path id="Trazado_1298470" data-name="Trazado 1298470" d="M99.44,295.789s-.609-.046-.886-.076a1.379,1.379,0,0,1-.92-.54c-.379-.41-4.391-4.334-4.391-4.334l1.165-.2Z" transform="translate(-85.817 -290.254)" fill="#393c52" fill-rule="evenodd"/>
              <path id="Trazado_1298471" data-name="Trazado 1298471" d="M99.958,297.212c1.358,1.119,2.7,2.406,3.036,3.4a7.585,7.585,0,0,1,.211.734c-.763.926-3.1,2.387-4.706,2.015a10.572,10.572,0,0,1-3.646-1.836C96.556,297.244,99.956,297.212,99.958,297.212Z" transform="translate(-86.122 -291.501)" fill-rule="evenodd" fill="url(#linear-gradient)"/>
              <path id="Trazado_1298472" data-name="Trazado 1298472" d="M92.705,300.6s.835-2.061,1.595-3.443c.4-.728-.144-1.292-1.052-2.2l-3.734-3.734-4.843-.681a31.565,31.565,0,0,0-.474,3.919S84.338,296.655,92.705,300.6Z" transform="translate(-84.102 -290.236)" fill="#393c52" fill-rule="evenodd"/>
              <path id="Trazado_1298473" data-name="Trazado 1298473" d="M86.357,297.391c.935.66,5.32,3.161,6.637,3.889a6.478,6.478,0,0,0,4.77,1.07,5.245,5.245,0,0,0,3.3-1.721,2.551,2.551,0,0,1,.146,1.637,4.765,4.765,0,0,1-3.449,1.982,6.493,6.493,0,0,1-4.77-1.07c-1.318-.729-5.7-3.234-6.637-3.891s-2.191-1.333-2.27-2.409a10.7,10.7,0,0,1,.088-1.5C84.485,296.231,85.542,296.816,86.357,297.391Z" transform="translate(-84.08 -291.153)" fill="#fff" fill-rule="evenodd"/>
              <g id="Grupo_1242121" data-name="Grupo 1242121" transform="translate(5.886 0.92)">
                <path id="Trazado_1298474" data-name="Trazado 1298474" d="M95.293,296.849a3.644,3.644,0,0,1,2.631-1.553l.718.676a3.841,3.841,0,0,0-2.71,1.584Z" transform="translate(-92.092 -292.058)" fill="#fff" fill-rule="evenodd"/>
                <path id="Trazado_1298475" data-name="Trazado 1298475" d="M93.977,295.518a3.634,3.634,0,0,1,2.631-1.554l.719.676a3.844,3.844,0,0,0-2.712,1.586Z" transform="translate(-91.842 -291.805)" fill="#fff" fill-rule="evenodd"/>
                <path id="Trazado_1298476" data-name="Trazado 1298476" d="M92.66,294.186a3.641,3.641,0,0,1,2.631-1.554l.717.676a3.84,3.84,0,0,0-2.709,1.586Z" transform="translate(-91.593 -291.552)" fill="#fff" fill-rule="evenodd"/>
                <path id="Trazado_1298477" data-name="Trazado 1298477" d="M91.343,292.854a3.634,3.634,0,0,1,2.631-1.554l.717.676a3.842,3.842,0,0,0-2.711,1.586Z" transform="translate(-91.343 -291.3)" fill="#fff" fill-rule="evenodd"/>
              </g>
            </g>
            <path id="Trazado_1298478" data-name="Trazado 1298478" d="M91.22,214.327c.5,1.1.373,32.566.4,34.242.045,3.115-.081,27.569-.081,27.569a8.132,8.132,0,0,1-4.525,1.387c-3.03.158-4.063-.958-4.063-.958s-1.487-15.694-2.049-20.226c-.241-1.952-.565-9.08-.618-10.513,0,0-3.314-13.725-4.252-24.087-.1-1.109-.557-6.987.879-9.228A71.7,71.7,0,0,0,91.22,214.327Z" transform="translate(-75.881 -212.513)" fill="#b5836b"/>
          </g>
          <g id="Grupo_1242126" data-name="Grupo 1242126" transform="translate(5.008 63.625)">
            <g id="Grupo_1242125" data-name="Grupo 1242125" transform="translate(3.662 63.608)">
              <path id="Trazado_1298479" data-name="Trazado 1298479" d="M78.617,297.917s3.986,4.141,5.47,5.333,3.069,2.636,3.44,3.73a3.3,3.3,0,0,1,.259,1.885,4.765,4.765,0,0,1-3.448,1.98,6.508,6.508,0,0,1-4.77-1.068c-1.319-.731-5.7-3.234-6.637-3.891s-2.192-1.334-2.272-2.411a52.069,52.069,0,0,1,.653-5.608Z" transform="translate(-70.654 -297.866)" fill="#252736" fill-rule="evenodd"/>
              <path id="Trazado_1298480" data-name="Trazado 1298480" d="M86.015,303.492s-.609-.049-.888-.079a1.372,1.372,0,0,1-.918-.536c-.38-.41-4.393-4.334-4.393-4.334l1.167-.2Z" transform="translate(-72.391 -297.955)" fill="#393c52" fill-rule="evenodd"/>
              <path id="Trazado_1298481" data-name="Trazado 1298481" d="M86.534,304.911c1.357,1.121,2.7,2.408,3.037,3.4a7.549,7.549,0,0,1,.209.733c-.763.928-3.1,2.387-4.706,2.015a10.543,10.543,0,0,1-3.645-1.835C83.131,304.946,86.533,304.911,86.534,304.911Z" transform="translate(-72.697 -299.202)" fill-rule="evenodd" fill="url(#linear-gradient-2)"/>
              <path id="Trazado_1298482" data-name="Trazado 1298482" d="M79.28,308.3s.834-2.061,1.593-3.441c.4-.729-.143-1.292-1.05-2.2-1.109-1.108-3.734-3.734-3.734-3.734l-4.846-.682a31.553,31.553,0,0,0-.474,3.922S70.883,304.578,79.28,308.3Z" transform="translate(-70.676 -297.937)" fill="#393c52" fill-rule="evenodd"/>
              <path id="Trazado_1298483" data-name="Trazado 1298483" d="M72.932,305.093c.934.66,5.319,3.161,6.637,3.889a6.486,6.486,0,0,0,4.77,1.07,5.246,5.246,0,0,0,3.3-1.72,2.536,2.536,0,0,1,.146,1.638,4.771,4.771,0,0,1-3.448,1.98,6.493,6.493,0,0,1-4.77-1.07c-1.319-.729-5.7-3.232-6.637-3.891s-2.192-1.332-2.272-2.409a10.664,10.664,0,0,1,.088-1.5C71.059,303.936,72.117,304.518,72.932,305.093Z" transform="translate(-70.654 -298.854)" fill="#fff" fill-rule="evenodd"/>
              <g id="Grupo_1242124" data-name="Grupo 1242124" transform="translate(5.887 0.92)">
                <path id="Trazado_1298484" data-name="Trazado 1298484" d="M81.869,304.55A3.642,3.642,0,0,1,84.5,303l.719.678a3.832,3.832,0,0,0-2.712,1.584Z" transform="translate(-78.667 -299.759)" fill="#fff" fill-rule="evenodd"/>
                <path id="Trazado_1298485" data-name="Trazado 1298485" d="M80.553,303.22a3.634,3.634,0,0,1,2.631-1.553l.717.674a3.842,3.842,0,0,0-2.712,1.584Z" transform="translate(-78.418 -299.506)" fill="#fff" fill-rule="evenodd"/>
                <path id="Trazado_1298486" data-name="Trazado 1298486" d="M79.235,301.886a3.637,3.637,0,0,1,2.63-1.553l.717.678a3.83,3.83,0,0,0-2.71,1.584Z" transform="translate(-78.168 -299.254)" fill="#fff" fill-rule="evenodd"/>
                <path id="Trazado_1298487" data-name="Trazado 1298487" d="M77.918,300.555A3.634,3.634,0,0,1,80.549,299l.717.674a3.845,3.845,0,0,0-2.71,1.588Z" transform="translate(-77.918 -299.001)" fill="#fff" fill-rule="evenodd"/>
              </g>
            </g>
            <path id="Trazado_1298488" data-name="Trazado 1298488" d="M81.714,221.937c.442,1.123-1.324,32.541-1.389,34.216-.116,3.115-1.517,27.528-1.517,27.528a8.134,8.134,0,0,1-4.59,1.149c-3.033,0-4.007-1.168-4.007-1.168s-.666-15.753-.993-20.305c-.138-1.961-.089-9.1-.068-10.531,0,0-2.593-13.879-2.991-24.276-.041-1.113-.19-7.006,1.362-9.171A71.626,71.626,0,0,0,81.714,221.937Z" transform="translate(-66.135 -219.379)" fill="#d9a78d"/>
          </g>
          <path id="Trazado_1298489" data-name="Trazado 1298489" d="M83.933,164.6s3.93-1.144,6.765,4.427,6.317,10.894,6.317,10.894,6.715-12.387,7.462-13.828,1.641-3.283,2.836-3.681,4.377-.945,4.974-1.293,1.244-.8,1.244,0a2.484,2.484,0,0,1-1.623,1.891,17.9,17.9,0,0,0,3.264-.149c1.89-.249,5.025-1.293,5.223-.8s-2.238,3.7-4.179,4.461a10.616,10.616,0,0,1-4.626.762c-1.592,0-2.636-.746-3.333.2s-5.571,15.619-6.466,18.057-2.735,4.726-5.073,4.626-3.482-2.935-5.423-5.521-6.864-8.754-8.307-11.441S80.153,166.835,83.933,164.6Z" transform="translate(-64.039 -144.625)" fill="#fdddc8"/>
          <path id="Trazado_1298490" data-name="Trazado 1298490" d="M91.763,172.42l-7.85,3.807c1.831,2.96,6.071,8.286,7.839,10.643.363.485.7.977,1.019,1.459a18.309,18.309,0,0,0,4.4-6.652C96.349,180.391,93.957,176.582,91.763,172.42Z" transform="translate(-64.497 -146.852)" fill-rule="evenodd" fill="url(#linear-gradient-3)"/>
          <path id="Trazado_1298491" data-name="Trazado 1298491" d="M96.576,177.861c-1.577-2.777-3.649-5.678-4.752-7.248-2.52-3.584-5.422-7.554-9.266-5.8-3.376,1.541-3.755,4.9-.807,11.829,1.483,3.487,2.763,5.7,4.279,8.727C87.872,184.55,94.218,180.431,96.576,177.861Z" transform="translate(-63.71 -145.329)" fill="#6275d1" fill-rule="evenodd"/>
          <path id="Trazado_1298492" data-name="Trazado 1298492" d="M70.845,166.99a83.52,83.52,0,0,0-7.5,4.881c-2.656,2.264-3.421,4.2-3.031,8.717s4.55,16.146,4.9,19.765-.209,10.037.169,10.971,4.965,5.175,11.5,3.734,11.54-4.745,11.566-7.275-1.3-16.884-1.3-20.892-.427-14.278-1.4-17.235-2.373-4.785-5.952-4.007S70.845,166.99,70.845,166.99Z" transform="translate(-60.004 -145.535)" fill="#8599ff" fill-rule="evenodd"/>
          <path id="Trazado_1298493" data-name="Trazado 1298493" d="M60.383,184.592l10.686.366,15.565,29.393a23.239,23.239,0,0,1-9.72,4.333c-6.534,1.441-11.126-2.8-11.5-3.734s.181-7.353-.169-10.971C64.9,200.456,60.951,189.345,60.383,184.592Z" transform="translate(-60.036 -149.16)" fill="#6275d1" fill-rule="evenodd"/>
          <g id="Grupo_1242127" data-name="Grupo 1242127" transform="translate(0 26.61)">
            <path id="Trazado_1298494" data-name="Trazado 1298494" d="M64.677,174.629c-3.656.64-4.907,3.515-2.585,10.678s4.822,13.969,5.618,15.627,1.726,1.99,6.235,2.653S90.112,204,93.991,204s8.158.589,9.551.045a6.251,6.251,0,0,0,3.134-2.633c.4-.9.149-1.84.547-2.487s.8-2.188.249-2.288-2.239,1.293-3.531,1.343a19.873,19.873,0,0,1-3.283-.3,9.064,9.064,0,0,1,.5-1.095c.3-.547.895-1.791.5-2.238s-.8-.3-1.094.2a13.324,13.324,0,0,1-3.184,2.486,11.4,11.4,0,0,0-2.935,2.14c-.9.945-.945,1-2.686.746s-9.3-1.542-11.988-2.388-5.175-1.642-5.175-1.642-2.832-10.387-3.728-14.068S68.838,173.9,64.677,174.629Z" transform="translate(-60.137 -173.865)" fill="#fdddc8"/>
            <path id="Trazado_1298495" data-name="Trazado 1298495" d="M64.65,176.991a4.375,4.375,0,0,0-3.72,3.256,21.559,21.559,0,0,0,1.165,5.508c1.346,4.157,2.752,8.185,3.851,11.165a53.4,53.4,0,0,0,7.945-3.172c-.9-3.325-2.413-8.962-3.024-11.476-.173-.713-.356-1.447-.567-2.161C68.922,178.006,67.124,176.557,64.65,176.991Z" transform="translate(-60.14 -174.314)" fill-rule="evenodd" fill="url(#linear-gradient-4)"/>
            <path id="Trazado_1298496" data-name="Trazado 1298496" d="M74.39,189.941c-.827-3.084-1.655-6.409-2.328-8.206-1.537-4.1-3.791-8.681-7.953-7.953-3.656.64-4.867,3.8-3.76,11.245.558,3.748,1.238,6.215,1.943,9.522C64.282,194.223,71.461,191.835,74.39,189.941Z" transform="translate(-59.955 -173.706)" fill="#8599ff" fill-rule="evenodd"/>
          </g>
          <g id="Grupo_1242128" data-name="Grupo 1242128" transform="translate(7.514)">
            <path id="Trazado_1298497" data-name="Trazado 1298497" d="M74.224,160.67a17.343,17.343,0,0,1-.085,3.239,7.14,7.14,0,0,1-1.292,2.7,3.368,3.368,0,0,0,1.117,3.6c1.713,1.426,4.223,2.862,6.433,2.754.82-.1,2.439-.14,2.536-1.405a3.135,3.135,0,0,0-.073-.891,21.747,21.747,0,0,1-.361-6.027Z" transform="translate(-69.881 -144.625)" fill="#fdddc8" fill-rule="evenodd"/>
            <path id="Trazado_1298498" data-name="Trazado 1298498" d="M74.514,163.722a19.84,19.84,0,0,0,.06-3.051l8.155,4.063a18.356,18.356,0,0,0,.436,5.728,1.245,1.245,0,0,1-1.231.773C80.318,171.211,77.013,168.261,74.514,163.722Z" transform="translate(-70.229 -144.625)" fill-rule="evenodd" fill="url(#linear-gradient-5)"/>
            <path id="Trazado_1298499" data-name="Trazado 1298499" d="M82.019,142.349a8.458,8.458,0,0,1,3.793,6.711,28.315,28.315,0,0,0,.263,4.158,15.578,15.578,0,0,1,0,4.741,20.011,20.011,0,0,1-1.255,4.13,2.953,2.953,0,0,1-2.436.772,25.079,25.079,0,0,1-7.147-2.787,8.835,8.835,0,0,1-2.029-3.137,10.18,10.18,0,0,1-3.706-5.748c-.963-3.91,1.721-9.1,5.108-9.746A11.468,11.468,0,0,1,82.019,142.349Z" transform="translate(-69.241 -140.937)" fill="#fdddc8" fill-rule="evenodd"/>
            <path id="Trazado_1298500" data-name="Trazado 1298500" d="M73.63,153.214l.43,1.8.7-.378.12-2.361.887-.438-.045-2.7c1.889,1.823,4.521,2.794,4.506,2.571s-.457-1.862-.457-1.862c2.575,1.517,4.864,2.314,4.767,1.938a17,17,0,0,0-.776-1.717,13.059,13.059,0,0,0,2.527,1.708c.031-.1.011-4.635-.545-5.8s-2.08-3.832-4.681-4.713a13.49,13.49,0,0,0-8.627.782,4.77,4.77,0,0,0-1.974,3.1s-1.131.642-1.232,2.978a15.855,15.855,0,0,0,1.566,6.338,3.368,3.368,0,0,0,1.045,1.175,5.681,5.681,0,0,1-.181-2.623C71.966,151.94,73.081,152.074,73.63,153.214Z" transform="translate(-69.227 -140.871)" fill="#8f5d62" fill-rule="evenodd"/>
          </g>
        </g>
        <g id="Grupo_1242130" data-name="Grupo 1242130" transform="translate(47.175 92.508)">
          <path id="Trazado_1298501" data-name="Trazado 1298501" d="M50.12,112.622l16.369-9.2c1.626-.938,2.954-.177,2.959,1.687v23.3c0,.545-.128.874-.352,1a.608.608,0,0,1-.53,0l-3.33-1.25-15.1,8.5c-1.627.938-2.958.179-2.964-1.683V117.718A6.508,6.508,0,0,1,50.12,112.622Z" transform="translate(-47.175 -103.016)" fill="#fc8cbe"/>
        </g>
        <path id="Trazado_1298502" data-name="Trazado 1298502" d="M56.623,119.246c1.417-.818,2.633-.513,3.135.623a7.489,7.489,0,0,1,3.123-4.235c1.862-1.075,3.375-.212,3.382,1.928,0,.926.011,3.38-4.649,9.544l-1.828,2.417-1.833-.306c-4.68-.771-4.687-3.226-4.69-4.152A7.4,7.4,0,0,1,56.623,119.246Z" transform="translate(-1.154 -12.812)" fill="#fff"/>
        <g id="Grupo_1242140" data-name="Grupo 1242140" transform="translate(78.778 136.099)">
          <path id="Trazado_1298503" data-name="Trazado 1298503" d="M366.106,233.5c-.013-4.73-1.69-8.065-4.391-9.633-20.808-12.092-75.66-44.573-96.468-56.664,2.7,1.57,4.378,4.9,4.393,9.634l.207,47.757,96.467,56.666Z" transform="translate(-120.119 -158.774)" fill="#abbad6"/>
          <path id="Trazado_1298504" data-name="Trazado 1298504" d="M235.37,158.211c-3.785-2.2-9.021-1.9-14.793,1.438L106.9,225.28c-11.47,6.622-20.769,22.728-20.731,35.908l.207,47.758,96.467,56.665-.207-47.76c-.036-13.179,9.262-29.285,20.731-35.908l113.676-65.631c5.772-3.332,11.009-3.636,14.794-1.438C311.03,202.783,256.177,170.3,235.37,158.211Z" transform="translate(-86.171 -156.804)" fill="#c1cde3"/>
          <g id="Grupo_1242131" data-name="Grupo 1242131" transform="translate(22.581 4.72)">
            <path id="Trazado_1298505" data-name="Trazado 1298505" d="M313.057,205.35c4.172,2.41,4.2,6.317.054,8.726L202.974,278.043a16.607,16.607,0,0,1-15.066,0l-70.731-40.915c-4.173-2.409-4.195-6.313-.049-8.722l110.137-63.967a16.6,16.6,0,0,1,15.063,0Z" transform="translate(-114.033 -162.628)" fill="#242b3d"/>
          </g>
          <g id="Grupo_1242132" data-name="Grupo 1242132" transform="translate(59.15 21.306)">
            <path id="Trazado_1298506" data-name="Trazado 1298506" d="M167.08,235.142a2.845,2.845,0,0,0-1.091-.361,3.365,3.365,0,0,0-1.2.081l-.046-.027a.719.719,0,0,0,.135-.636,1.135,1.135,0,0,0-.554-.571,2.83,2.83,0,0,0-1.56-.376,3.529,3.529,0,0,0-1.647.5l-1.918,1.114c-.056.032-.055.062,0,.1l5.594,3.23a.154.154,0,0,0,.165,0l1.974-1.147c.515-.3.786-.618.826-.959S167.572,235.427,167.08,235.142Zm-4.869.882-1.972-1.139v-.036l1.389-.807a2.261,2.261,0,0,1,1.106-.314,1.967,1.967,0,0,1,1.069.26c.3.173.435.37.411.594s-.2.436-.549.636l-1.388.807Zm4.2.714-1.445.84H164.9l-2.127-1.228,0-.038,1.413-.822a2.371,2.371,0,0,1,1.148-.32,2.17,2.17,0,0,1,1.117.281c.336.194.5.406.489.639S166.752,236.538,166.409,236.738Z" transform="translate(-159.157 -192.601)" fill="#fff"/>
            <path id="Trazado_1298507" data-name="Trazado 1298507" d="M184.533,220.086a.147.147,0,0,0-.159,0l-.417.242c-.057.032-.057.063,0,.1l4.538,2.614.011.023-.046,0-7.351-1.016-.154.024-.406.237c-.057.032-.056.062,0,.1l5.594,3.23a.155.155,0,0,0,.165,0l.417-.242c.053-.03.053-.066,0-.1l-4.542-2.611-.011-.024.046,0,7.346,1.013.159-.021.412-.239c.052-.03.047-.062-.006-.092Z" transform="translate(-163.204 -190.101)" fill="#fff"/>
            <path id="Trazado_1298508" data-name="Trazado 1298508" d="M178.517,224.045a.151.151,0,0,0-.165,0l-.417.242c-.052.03-.056.062,0,.1l5.594,3.23a.162.162,0,0,0,.165,0l.417-.242c.056-.032.051-.066,0-.095Z" transform="translate(-162.709 -190.852)" fill="#fff"/>
            <path id="Trazado_1298509" data-name="Trazado 1298509" d="M179.961,227.889a2.327,2.327,0,0,0-.977-.3,4.5,4.5,0,0,0-1.109.038c-.387.057-.861.152-1.422.293-.545.138-.963.236-1.246.287a2.822,2.822,0,0,1-.768.057,1.441,1.441,0,0,1-.641-.191c-.3-.176-.43-.368-.38-.583s.267-.43.652-.654a3.009,3.009,0,0,1,1.338-.425,2.011,2.011,0,0,1,1.152.237l.145.083a.155.155,0,0,0,.165,0l.412-.239c.052-.03.056-.062,0-.1l-.182-.1a2.89,2.89,0,0,0-1.657-.349,4.189,4.189,0,0,0-1.858.583c-.554.323-.862.652-.927.983s.138.634.6.9a2.312,2.312,0,0,0,.94.306,3.853,3.853,0,0,0,1.026-.045c.352-.059.81-.158,1.387-.3.535-.131.968-.221,1.3-.272a3.715,3.715,0,0,1,.85-.051,1.613,1.613,0,0,1,.647.2c.294.17.424.37.384.6s-.27.469-.686.711a3.311,3.311,0,0,1-1.385.463,1.949,1.949,0,0,1-1.157-.215l-.222-.129a.151.151,0,0,0-.165,0l-.4.233c-.051.03-.057.062,0,.1l.254.147a2.818,2.818,0,0,0,1.657.331,4.3,4.3,0,0,0,1.875-.6c.6-.349.934-.7,1-1.054S180.421,228.154,179.961,227.889Z" transform="translate(-161.714 -191.214)" fill="#fff"/>
            <path id="Trazado_1298510" data-name="Trazado 1298510" d="M173.222,231.187l-3.9-2.25a.148.148,0,0,0-.165,0l-.417.242c-.051.03-.056.063,0,.1l3.917,2.262c.388.224.581.477.571.764s-.213.549-.619.786a2.7,2.7,0,0,1-1.355.361,2.555,2.555,0,0,1-1.327-.325l-3.917-2.262a.148.148,0,0,0-.16,0l-.417.241c-.057.033-.056.063,0,.1l3.9,2.25a3.467,3.467,0,0,0,1.208.418,4.107,4.107,0,0,0,1.336-.027,3.78,3.78,0,0,0,1.241-.457,1.981,1.981,0,0,0,.79-.723.8.8,0,0,0,.036-.771A1.664,1.664,0,0,0,173.222,231.187Z" transform="translate(-160.34 -191.779)" fill="#fff"/>
            <path id="Trazado_1298511" data-name="Trazado 1298511" d="M207.12,212.1a2.342,2.342,0,0,0-.976-.3,4.4,4.4,0,0,0-1.114.041c-.387.057-.86.152-1.417.289s-.963.237-1.252.29a3.066,3.066,0,0,1-.767.057,1.5,1.5,0,0,1-.636-.195c-.3-.176-.43-.367-.385-.579s.267-.43.652-.654a3.016,3.016,0,0,1,1.338-.425,1.994,1.994,0,0,1,1.156.233l.145.084a.151.151,0,0,0,.165,0l.406-.237c.057-.033.057-.062,0-.1l-.182-.1a2.893,2.893,0,0,0-1.657-.349,4.173,4.173,0,0,0-1.859.583c-.555.323-.861.652-.928.983s.138.634.6.9a2.32,2.32,0,0,0,.946.3,3.81,3.81,0,0,0,1.02-.042c.351-.059.814-.161,1.387-.3.535-.132.973-.224,1.308-.275a3.608,3.608,0,0,1,.845-.048,1.553,1.553,0,0,1,.652.2c.294.17.425.37.379.6s-.265.466-.686.712a3.273,3.273,0,0,1-1.38.46,1.909,1.909,0,0,1-1.156-.216l-.222-.128a.156.156,0,0,0-.165,0l-.4.233c-.057.032-.056.062,0,.1l.254.147a2.835,2.835,0,0,0,1.652.335,4.329,4.329,0,0,0,1.879-.606c.6-.347.929-.7,1-1.052S207.581,212.37,207.12,212.1Z" transform="translate(-166.862 -188.223)" fill="#fff"/>
            <path id="Trazado_1298512" data-name="Trazado 1298512" d="M201.229,215.528a2.324,2.324,0,0,0-.971-.3,4.512,4.512,0,0,0-1.114.042c-.387.057-.86.152-1.417.289s-.963.237-1.251.29a3.073,3.073,0,0,1-.768.057,1.428,1.428,0,0,1-.635-.195c-.3-.176-.43-.367-.386-.579s.267-.43.652-.654a3.019,3.019,0,0,1,1.338-.425,1.991,1.991,0,0,1,1.156.233l.145.084a.151.151,0,0,0,.165,0l.406-.236c.056-.033.056-.063,0-.1l-.182-.1a2.891,2.891,0,0,0-1.657-.349,4.167,4.167,0,0,0-1.858.583c-.555.323-.862.652-.928.983s.138.634.6.9a2.328,2.328,0,0,0,.946.3,3.807,3.807,0,0,0,1.02-.042c.352-.06.815-.161,1.387-.3.535-.132.973-.224,1.308-.275a3.563,3.563,0,0,1,.845-.048,1.55,1.55,0,0,1,.652.2c.294.17.42.373.38.6s-.266.466-.687.712a3.285,3.285,0,0,1-1.38.46,1.931,1.931,0,0,1-1.161-.212l-.222-.129a.148.148,0,0,0-.16,0l-.4.233c-.056.033-.056.063,0,.1l.254.147a2.8,2.8,0,0,0,1.652.335,4.329,4.329,0,0,0,1.879-.606c.6-.347.929-.7.994-1.052S201.689,215.794,201.229,215.528Z" transform="translate(-165.746 -188.871)" fill="#fff"/>
            <path id="Trazado_1298513" data-name="Trazado 1298513" d="M196.17,219.44a.15.15,0,0,0-.165,0L193,221.188h-.062L190.871,220l-.006-.038,2.108-1.225c.056-.033.056-.063,0-.092l-.347-.2a.15.15,0,0,0-.165,0l-2.108,1.225H190.3l-2.033-1.174v-.036l3.007-1.747c.057-.032.052-.066,0-.1l-.348-.2a.15.15,0,0,0-.165,0l-3.537,2.055c-.056.033-.056.062,0,.1l5.594,3.23a.154.154,0,0,0,.165,0l3.536-2.055c.057-.033.052-.066,0-.1Z" transform="translate(-164.469 -189.405)" fill="#fff"/>
            <path id="Trazado_1298514" data-name="Trazado 1298514" d="M209.5,206.007l-.165.018-.555.323-.031.1,3.789,4.284a.127.127,0,0,0,.16.015l.442-.257.03-.1-.705-.789,0-.033,2.442-1.419.062-.006,1.358.409.165-.019.442-.257.011-.077-.036-.015Zm4.765,1.965-2.108,1.225-.045.009-.032-.012-2.294-2.558.011-.023.041-.006,4.418,1.323.02.018Z" transform="translate(-168.558 -187.437)" fill="#fff"/>
            <path id="Trazado_1298515" data-name="Trazado 1298515" d="M222.432,198.491l-.165.018-.555.323-.031.1,3.79,4.284a.235.235,0,0,0,.03.024.121.121,0,0,0,.13-.008l.442-.257.031-.1-.706-.789,0-.032,2.443-1.419.056,0,1.365.406.165-.018.442-.257.011-.078-.036-.015Zm4.765,1.965-2.107,1.225-.046.009-.032-.012-2.294-2.558.011-.023.041-.006,4.418,1.323.02.018Z" transform="translate(-171.01 -186.012)" fill="#fff"/>
            <path id="Trazado_1298516" data-name="Trazado 1298516" d="M217.219,201.091a.151.151,0,0,0-.165,0l-.417.242c-.056.033-.057.062,0,.1l4.544,2.611.006.027h-.042l-7.35-1.015-.154.024-.412.239c-.051.03-.056.063,0,.1l5.593,3.23a.163.163,0,0,0,.165,0l.417-.242c.056-.033.051-.066,0-.1l-4.542-2.611,0-.027h.041l7.345,1.013.16-.021.411-.239c.057-.032.052-.066,0-.1Z" transform="translate(-169.4 -186.5)" fill="#fff"/>
            <path id="Trazado_1298517" data-name="Trazado 1298517" d="M236.562,193.5l-.032-.03-1.4-2.772-.057-.045-.1.021-.443.257-.041.089,1.131,2.249-.015.021-.036.009-3.882-.652-.154.023-.442.257-.019.071.062.018,4.8.8.047.021,2.431,1.4a.158.158,0,0,0,.165,0l.417-.242c.057-.033.057-.063,0-.1Z" transform="translate(-172.791 -184.526)" fill="#fff"/>
            <path id="Trazado_1298518" data-name="Trazado 1298518" d="M253.681,185.047a2.325,2.325,0,0,0-.971-.3,4.66,4.66,0,0,0-1.114.042c-.387.057-.861.152-1.422.293s-.958.233-1.246.288a2.938,2.938,0,0,1-.767.057,1.438,1.438,0,0,1-.641-.191c-.3-.176-.425-.37-.38-.583s.267-.43.652-.654a3.012,3.012,0,0,1,1.338-.425,2.01,2.01,0,0,1,1.152.237l.145.083a.156.156,0,0,0,.165,0l.412-.239c.051-.03.056-.062,0-.1l-.182-.1a2.892,2.892,0,0,0-1.657-.349,4.189,4.189,0,0,0-1.859.583c-.555.323-.861.652-.928.983s.138.633.6.9a2.3,2.3,0,0,0,.94.3,3.854,3.854,0,0,0,1.026-.045c.351-.059.81-.158,1.386-.3.536-.131.973-.224,1.3-.271a3.72,3.72,0,0,1,.851-.051,1.538,1.538,0,0,1,.646.2c.294.17.425.37.385.6s-.271.469-.687.712a3.255,3.255,0,0,1-1.379.46,1.941,1.941,0,0,1-1.162-.212l-.222-.129a.15.15,0,0,0-.165,0l-.4.233c-.052.03-.052.059.006.092l.254.147a2.807,2.807,0,0,0,1.652.335,4.33,4.33,0,0,0,1.875-.6c.6-.349.934-.7,1-1.054S254.141,185.313,253.681,185.047Z" transform="translate(-175.689 -183.093)" fill="#fff"/>
            <path id="Trazado_1298519" data-name="Trazado 1298519" d="M245.182,189.986a2.317,2.317,0,0,0-.972-.3,4.5,4.5,0,0,0-1.114.041c-.387.057-.861.152-1.417.289s-.963.237-1.25.29a3.076,3.076,0,0,1-.768.057,1.484,1.484,0,0,1-.635-.195c-.306-.176-.43-.367-.386-.579s.267-.43.652-.654a3.015,3.015,0,0,1,1.338-.425,1.993,1.993,0,0,1,1.157.233l.145.084a.15.15,0,0,0,.164,0l.407-.236c.056-.033.056-.063,0-.1l-.182-.1a2.885,2.885,0,0,0-1.657-.349,4.163,4.163,0,0,0-1.858.583c-.556.323-.862.652-.928.983s.138.634.6.9a2.307,2.307,0,0,0,.946.3,3.807,3.807,0,0,0,1.02-.042c.351-.06.814-.161,1.387-.3.535-.132.973-.224,1.307-.275a3.617,3.617,0,0,1,.846-.048,1.549,1.549,0,0,1,.651.2c.295.17.421.373.38.6s-.265.467-.687.712a3.266,3.266,0,0,1-1.379.46,1.935,1.935,0,0,1-1.162-.212l-.222-.128a.15.15,0,0,0-.16,0L241,192c-.057.032-.056.063,0,.1l.254.147a2.835,2.835,0,0,0,1.652.335,4.326,4.326,0,0,0,1.879-.606c.6-.347.93-.7,1-1.052S245.641,190.251,245.182,189.986Z" transform="translate(-174.078 -184.029)" fill="#fff"/>
            <path id="Trazado_1298520" data-name="Trazado 1298520" d="M234.987,197.306a.151.151,0,0,0-.165,0l-2.884,1.676h-.062l-5.133-2.964a.151.151,0,0,0-.165,0l-.417.242c-.052.03-.057.062,0,.1l5.594,3.23a.162.162,0,0,0,.165,0l3.414-1.984c.056-.032.051-.066,0-.1Z" transform="translate(-171.852 -185.539)" fill="#fff"/>
            <path id="Trazado_1298521" data-name="Trazado 1298521" d="M243.738,186.143a.148.148,0,0,0-.16,0l-.417.242c-.056.032-.056.062,0,.095l5.593,3.23a.156.156,0,0,0,.165,0l.417-.242c.052-.03.047-.062,0-.092Z" transform="translate(-175.074 -183.667)" fill="#fff"/>
          </g>
          <g id="Grupo_1242133" data-name="Grupo 1242133" transform="translate(95.733 74.379)">
            <path id="Trazado_1298522" data-name="Trazado 1298522" d="M261.855,254.521l-50.7,29.461.895.516,50.7-29.461Z" transform="translate(-205.598 -249.707)" fill="#dae3f2"/>
            <path id="Trazado_1298523" data-name="Trazado 1298523" d="M214.586,288.48l.9.518,32.173-18.7-.9-.518Z" transform="translate(-206.248 -252.6)" fill="#dae3f2"/>
            <path id="Trazado_1298524" data-name="Trazado 1298524" d="M258.426,252.543,207.73,282l.894.515,50.7-29.461Z" transform="translate(-204.949 -249.332)" fill="#dae3f2"/>
            <path id="Trazado_1298525" data-name="Trazado 1298525" d="M254.994,250.56l-50.7,29.463.9.519,50.7-29.462Z" transform="translate(-204.298 -248.956)" fill="#dae3f2"/>
            <path id="Trazado_1298526" data-name="Trazado 1298526" d="M255.252,249.1l-.9-.519-38.775,22.535.9.518Z" transform="translate(-206.437 -248.581)" fill="#dae3f2"/>
          </g>
          <g id="Grupo_1242134" data-name="Grupo 1242134" transform="translate(150.105 42.674)">
            <path id="Trazado_1298527" data-name="Trazado 1298527" d="M328.946,215.4l-50.7,29.461.894.516,50.7-29.461Z" transform="translate(-272.69 -210.586)" fill="#fc8cbe"/>
            <path id="Trazado_1298528" data-name="Trazado 1298528" d="M281.677,249.358l.9.518,32.172-18.7-.9-.518Z" transform="translate(-273.339 -213.479)" fill="#fc8cbe"/>
            <path id="Trazado_1298529" data-name="Trazado 1298529" d="M325.517,213.421l-50.7,29.461.894.515,50.7-29.461Z" transform="translate(-272.04 -210.211)" fill="#fc8cbe"/>
            <path id="Trazado_1298530" data-name="Trazado 1298530" d="M322.085,211.439l-50.7,29.462.9.519,50.7-29.461Z" transform="translate(-271.389 -209.835)" fill="#fc8cbe"/>
            <path id="Trazado_1298531" data-name="Trazado 1298531" d="M322.344,209.978l-.9-.518-38.775,22.534.9.518Z" transform="translate(-273.528 -209.46)" fill="#fc8cbe"/>
          </g>
          <g id="Grupo_1242139" data-name="Grupo 1242139" transform="translate(44.634 24.893)">
            <g id="Grupo_1242135" data-name="Grupo 1242135" transform="translate(28.898)">
              <path id="Trazado_1298532" data-name="Trazado 1298532" d="M268.4,187.737l-9.956,7.865-19.939,1.888,1.91,14.563-15.011,4.9-6.283,9.856L206.409,233l-8.324,8.774-20.428,1.595,5.665,16.619-.622.07-5.8-17,20.776-1.622,8.232-8.67,12.671-6.172,6.308-9.888,14.863-4.854-1.928-14.667,20.258-1.917,9.8-7.744Z" transform="translate(-176.904 -187.52)" fill="#fc8cbe"/>
            </g>
            <g id="Grupo_1242136" data-name="Grupo 1242136" transform="translate(22.023 9.15)">
              <path id="Trazado_1298533" data-name="Trazado 1298533" d="M282.768,198.81l.328.315-14.682,5.089-21.309,1.069.088,13.441-4.776,10.865-17.366,3.6-19.6,2.222-17.363,3.243,6.887,17.547-26.552-1.6.062-.365,25.677,1.55-6.821-17.373,17.953-3.352,19.585-2.221,17.008-3.529,4.688-10.655-.1-13.709,21.74-1.09Z" transform="translate(-168.421 -198.81)" fill="#69d3ff"/>
            </g>
            <g id="Grupo_1242137" data-name="Grupo 1242137" transform="translate(13.979 5.983)">
              <path id="Trazado_1298534" data-name="Trazado 1298534" d="M271.467,194.9l.082.366L251,196.814l-8.622,8.408-10.306,7.556-6.869,9.573-13.592,5.655-6.319,9.918-19.838,2.031-4.067,11.176-22.875.444-.021-.366,22.373-.435,4.055-11.137,19.906-2.037,6.26-9.827,13.6-5.659,6.867-9.542,10.3-7.556,8.754-8.541Z" transform="translate(-158.495 -194.903)" fill="#cea4f5"/>
            </g>
            <g id="Grupo_1242138" data-name="Grupo 1242138" transform="translate(0 13.735)">
              <path id="Trazado_1298535" data-name="Trazado 1298535" d="M290.54,204.727,179.4,269.315l-38.154-22.028.451-.263,37.7,21.77L290.09,204.468Z" transform="translate(-141.246 -204.468)" fill="#dae3f2"/>
            </g>
          </g>
          <path id="Trazado_1298536" data-name="Trazado 1298536" d="M307.012,223.032l15.422-8.957c4.145-2.409,4.118-6.316-.054-8.726L251.65,164.434a16.6,16.6,0,0,0-15.063,0L163.2,207.055Z" transform="translate(-100.775 -157.908)" fill="#fff" opacity="0.2"/>
          <path id="Trazado_1298537" data-name="Trazado 1298537" d="M339.61,229.567c11.47-6.622,20.83-1.286,20.866,11.892l.207,47.757-5.753,3.323-.207-47.758c-.026-9.526-6.8-13.385-15.094-8.594L225.953,301.817c-8.289,4.786-15.016,16.438-14.99,25.964l.206,47.758-5.759,3.326L205.2,331.1c-.036-13.179,9.262-29.285,20.731-35.908Z" transform="translate(-108.736 -170.058)" fill="#dae3f2"/>
        </g>
        <g id="Grupo_1242148" data-name="Grupo 1242148" transform="translate(263.445 151.512)">
          <g id="Grupo_1242141" data-name="Grupo 1242141" transform="translate(36.984 56.697)">
            <path id="Trazado_1298538" data-name="Trazado 1298538" d="M373.947,337.856s.682,4.321.682,5.15a3,3,0,0,1-.947,2.308,5.134,5.134,0,0,1-4.115.918c-1.806-.443-8.275-4.182-9.044-4.713a2.006,2.006,0,0,1-.652-2.486,4.635,4.635,0,0,1,4.884-2.191c2.96.415,2.562-.7,4.456-.437A24.97,24.97,0,0,1,373.947,337.856Z" transform="translate(-359.669 -262.954)" fill="#7485de" fill-rule="evenodd"/>
            <path id="Trazado_1298539" data-name="Trazado 1298539" d="M368.561,312.324l1.24,20.767a3.974,3.974,0,0,0,3.137,1.657c2.013-.03,2.694-.918,2.694-1.45V312.324Z" transform="translate(-361.355 -258.397)" fill="#fdddc8" fill-rule="evenodd"/>
            <path id="Trazado_1298540" data-name="Trazado 1298540" d="M365.638,245.782s-1.708,19.467-.528,34.207c.824,10.285,2.165,28.9,2.165,28.9s3.557,2.516,8.306-.541V290.065c0-3.546.177-6.764.117-10.76s2.045-10.919,2.731-13.083c1.529-4.815,1.52-15.235-1.8-20.163Z" transform="translate(-360.622 -245.782)" fill="#cdd2e6"/>
          </g>
          <g id="Grupo_1242142" data-name="Grupo 1242142" transform="translate(28.738 60.027)">
            <path id="Trazado_1298541" data-name="Trazado 1298541" d="M363.773,342.329s.681,4.323.681,5.152a2.994,2.994,0,0,1-.947,2.308,5.133,5.133,0,0,1-4.115.918c-1.806-.443-8.276-4.182-9.045-4.713a2.006,2.006,0,0,1-.652-2.486,4.635,4.635,0,0,1,4.884-2.191c2.961.415,2.563-.7,4.457-.437A25.031,25.031,0,0,1,363.773,342.329Z" transform="translate(-349.494 -267.132)" fill="#8599ff" fill-rule="evenodd"/>
            <path id="Trazado_1298542" data-name="Trazado 1298542" d="M358.388,323.193l1.239,15.585a3.974,3.974,0,0,0,3.138,1.657c2.012-.03,2.694-.918,2.694-1.451v-15.79h-7.071Z" transform="translate(-351.18 -263.787)" fill="#fdddc8" fill-rule="evenodd"/>
            <path id="Trazado_1298543" data-name="Trazado 1298543" d="M355.464,250.187s-1.708,19.467-.528,34.207c.824,10.285,2.452,28.837,2.452,28.837s5.133,1.993,8.067-.5c0,0,.612-12.047.24-18.158-.223-3.667-.112-6.868-.171-10.865s3.26-11.5,3.853-13.689,3.135-13.322.652-20.131Z" transform="translate(-350.447 -249.891)" fill="#e3e6f2"/>
          </g>
          <g id="Grupo_1242144" data-name="Grupo 1242144" transform="translate(21.513 33.605)">
            <path id="Trazado_1298544" data-name="Trazado 1298544" d="M344.894,219.327a12.008,12.008,0,0,1,1.755-.551,7.615,7.615,0,0,0,1.383-.367,4.369,4.369,0,0,1,1.678-.2l-3.467,2.388Z" transform="translate(-341.397 -217.457)" fill-rule="evenodd" fill="url(#linear-gradient-6)"/>
            <g id="Grupo_1242143" data-name="Grupo 1242143">
              <path id="Trazado_1298545" data-name="Trazado 1298545" d="M367.211,226.269l.224,5.082s-2.467-1.465-4.592-2.507-8.014-4.636-9.064-5.744-2.945-3.862-3.129-4.108-.648-.872-.98-.8a7.461,7.461,0,0,0-3.989,2.843c.152.82,1.322,2.034,1.924,2.814a8.216,8.216,0,0,0,3.473,2.01c1.179.347,5.025,4.456,8.283,7.625a75.747,75.747,0,0,0,7.459,6.586c1.484,1.045,2.366.985,3.409.268s1.822-6.412,3.355-8.68Z" transform="translate(-341.547 -217.459)" fill="#fdddc8" fill-rule="evenodd"/>
              <path id="Trazado_1298546" data-name="Trazado 1298546" d="M346.582,220.332s-1.366-1.139-1.7-1.425a2.853,2.853,0,0,0-1.156-.648c-.42-.093-1.622-.392-1.958-.53s-1-.518-1.121-.428a1.336,1.336,0,0,0,.827,1.6c1,.477,1.565.465,1.946.725s1.751,1.644,1.751,1.644Z" transform="translate(-340.579 -217.288)" fill="#fdddc8" fill-rule="evenodd"/>
              <path id="Trazado_1298547" data-name="Trazado 1298547" d="M345.777,222a12.207,12.207,0,0,0,1.8,2.5c.977-.53,1.81-1.173,1.283-1.641A5.184,5.184,0,0,0,345.777,222Z" transform="translate(-341.565 -218.182)" fill-rule="evenodd" fill="url(#linear-gradient-7)"/>
              <path id="Trazado_1298548" data-name="Trazado 1298548" d="M348.449,225.549s-1.537-.629-2.5-.921a3.674,3.674,0,0,1-1.6-.788c-.36-.306-.776-1.093-1.05-1.315s-.937-.643-.84-.883,1.159-.432,1.944.153.949.845,1.362.879,1.364-.494,2.355.015S349.347,225.1,348.449,225.549Z" transform="translate(-340.934 -218.07)" fill="#fdddc8" fill-rule="evenodd"/>
            </g>
          </g>
          <g id="Grupo_1242145" data-name="Grupo 1242145" transform="translate(31.006 22.987)">
            <path id="Trazado_1298549" data-name="Trazado 1298549" d="M361.98,208.839s-5.286,4.8-7.042,6.893a12.018,12.018,0,0,0-2.556,8.569c.44,2.788,1.858,9.605,2.246,12.625s-.435,3.3-.581,3.918a1.75,1.75,0,0,0,1.075,2.058c1.376.736,3.188,2.142,10.933,1.076,7.029-.967,9.039-2.566,9.452-3.262a2.439,2.439,0,0,0,.336-2.179c-.284-.776-1.389-.66-1.152-1.732.465-2.105,4.535-16.368,4.5-21.633s-1.621-8.914-4.614-9.672-6.392.172-8.549,1.066A22.62,22.62,0,0,0,361.98,208.839Z" transform="translate(-352.294 -204.382)" fill="#8599ff" fill-rule="evenodd"/>
            <path id="Trazado_1298550" data-name="Trazado 1298550" d="M354.068,245a1.75,1.75,0,0,0,1.075,2.058c.917.49,2.959,1.974,8.881,1.317a42.717,42.717,0,0,0-1.991-21.206L352.4,228.46v0c.44,2.788,1.858,9.605,2.246,12.625S354.214,244.388,354.068,245Z" transform="translate(-352.315 -208.544)" fill="#6275d1" fill-rule="evenodd"/>
            <path id="Trazado_1298551" data-name="Trazado 1298551" d="M364.056,208.784a3.319,3.319,0,0,1,1.435-1.621,17.49,17.49,0,0,1,4.533-1.806,27.072,27.072,0,0,0,3.284-1.171,11.3,11.3,0,0,1,.777,2.3c.1.818-2.728,2.264-5.015,2.6A10.489,10.489,0,0,1,364.056,208.784Z" transform="translate(-354.524 -204.186)" fill="#c4eaff" fill-rule="evenodd"/>
            <path id="Trazado_1298552" data-name="Trazado 1298552" d="M374.567,204.49a9.908,9.908,0,0,1,.336,3.231c.737-.438,1.217-.893,1.173-1.237a11.292,11.292,0,0,0-.777-2.3S375.031,204.308,374.567,204.49Z" transform="translate(-356.516 -204.186)" fill="#a3deff" fill-rule="evenodd"/>
          </g>
          <g id="Grupo_1242146" data-name="Grupo 1242146" transform="translate(34.019 0)">
            <path id="Trazado_1298553" data-name="Trazado 1298553" d="M363.2,177.1a7.067,7.067,0,0,0-5.162,5.782c-.69,3.293-.4,3.529-.844,5.42a10.01,10.01,0,0,0-.257,4.715,36.086,36.086,0,0,0,1.548,5.145c.223.654.464.913,1.5.861a14.14,14.14,0,0,0,2.6-.533c.242-.052.413.5.413.912s-.189,4.431-.189,4.431h9.679a17.429,17.429,0,0,1-.31-7.047c.724-3.123,3.8-4.706,4.132-10.583C376.644,180.262,373,174.548,363.2,177.1Z" transform="translate(-356.155 -175.946)" fill="#fdddc8" fill-rule="evenodd"/>
            <path id="Trazado_1298554" data-name="Trazado 1298554" d="M373.839,198.475h-9.493c-1.109,2.886-3.794,4.708-4.64,4.645a2.389,2.389,0,0,0,.836.07,14.142,14.142,0,0,0,2.6-.533c.242-.052.413.5.413.912s-.189,4.431-.189,4.431h9.679a17.429,17.429,0,0,1-.31-7.047A8.337,8.337,0,0,1,373.839,198.475Z" transform="translate(-356.712 -180.117)" fill-rule="evenodd" fill="url(#linear-gradient-8)"/>
            <path id="Trazado_1298555" data-name="Trazado 1298555" d="M370.331,176.034a31.165,31.165,0,0,0-7.15,0c-2.039.18-5.7-.025-6.555.62s-2.144,9.835,6.5,13.552a52.7,52.7,0,0,0,1.445,7.95,9,9,0,0,0,7.338-.856c1.672-2.862,5.186-5.34,5.518-11.431C377.791,179.235,373.584,176.628,370.331,176.034Z" transform="translate(-356.011 -175.822)" fill="#444a63" fill-rule="evenodd"/>
            <path id="Trazado_1298556" data-name="Trazado 1298556" d="M378.13,193.35a17.713,17.713,0,0,0,.864,12.135c1.621,3.434,4.107,5.974,4.048,9.87s-4.44,10.091-11.249,6.771-9.245-14.447-6.606-24.622C365.188,197.5,373.159,196.884,378.13,193.35Z" transform="translate(-357.553 -179.145)" fill="#444a63" fill-rule="evenodd"/>
            <path id="Trazado_1298557" data-name="Trazado 1298557" d="M363.73,193.7s.322-2.154,1.549-2.4,1.741,1.459,1.612,2.659a5.554,5.554,0,0,1-1.793,3.149C364.62,197.317,363.394,196,363.73,193.7Z" transform="translate(-357.464 -178.752)" fill="#fdddc8" fill-rule="evenodd"/>
            <path id="Trazado_1298558" data-name="Trazado 1298558" d="M365.509,197.186c0,.285-.155.516-.348.516s-.345-.231-.345-.516.155-.517.345-.517S365.509,196.9,365.509,197.186Z" transform="translate(-357.68 -179.774)" fill="#301d19" fill-rule="evenodd"/>
            <path id="Trazado_1298559" data-name="Trazado 1298559" d="M362.086,190.321s.931,3.627,0,5.937a6.139,6.139,0,0,0,1.976-5.008Z" transform="translate(-357.163 -178.571)" fill="#444a63" fill-rule="evenodd"/>
          </g>
          <g id="Grupo_1242147" data-name="Grupo 1242147" transform="translate(0 34.783)">
            <path id="Trazado_1298560" data-name="Trazado 1298560" d="M350.761,222.932c3.119.546,4.185,3,2.205,9.107s-4.112,11.915-4.79,13.328-1.473,1.7-5.317,2.263-13.789.354-17.1.354-6.957.5-8.146.039a5.335,5.335,0,0,1-2.674-2.246c-.34-.763-.126-1.569-.466-2.121s-.679-1.866-.212-1.952,1.909,1.1,3.012,1.146a17.026,17.026,0,0,0,2.8-.254,7.694,7.694,0,0,0-.424-.934c-.254-.468-.763-1.528-.424-1.909s.678-.254.933.17a11.359,11.359,0,0,0,2.716,2.121,9.762,9.762,0,0,1,2.5,1.823c.763.806.806.849,2.29.637s7.934-1.315,10.224-2.037,4.413-1.4,4.413-1.4,2.415-8.86,3.179-12S347.213,222.31,350.761,222.932Z" transform="translate(-314.034 -219.523)" fill="#fdddc8"/>
            <path id="Trazado_1298561" data-name="Trazado 1298561" d="M351.1,235.241s-.156,1.569-.234,1.911.3,1.511,3.234,2.567,4.127.554,4.275.333.75-2.328.75-2.328Z" transform="translate(-321.015 -221.87)" fill="#a8b7ff" fill-rule="evenodd"/>
            <path id="Trazado_1298562" data-name="Trazado 1298562" d="M356.149,218.75c-2.974-.2-4.008,3.4-4.487,6.512s-.734,4.4-1.24,4.935-.084,1.976.364,2.431a8.368,8.368,0,0,0,4.607,2.614c2.965.7,4.8.006,5.07-1.162a17.481,17.481,0,0,0,.444-5.082C360.94,226.014,362.4,219.176,356.149,218.75Z" transform="translate(-320.889 -218.742)" fill="#8599ff" fill-rule="evenodd"/>
          </g>
        </g>
        <g id="Grupo_1242156" data-name="Grupo 1242156" transform="translate(201.939 189.146)">
          <g id="Grupo_1242149" data-name="Grupo 1242149" transform="translate(31.493 0)">
            <path id="Trazado_1298563" data-name="Trazado 1298563" d="M289.907,223.377a6.211,6.211,0,0,1,4.538,5.081c.607,2.894.35,3.1.742,4.763a8.844,8.844,0,0,1,.226,4.145,31.811,31.811,0,0,1-1.362,4.521c-.2.576-.408.8-1.315.757a12.168,12.168,0,0,1-2.284-.47c-.212-.045-.362.44-.362.8s.166,3.9.166,3.9h-8.508a15.321,15.321,0,0,0,.272-6.193c-.634-2.746-3.337-4.135-3.63-9.3C278.1,226.159,281.3,221.138,289.907,223.377Z" transform="translate(-277.261 -222.367)" fill="#fdddc8" fill-rule="evenodd"/>
            <path id="Trazado_1298564" data-name="Trazado 1298564" d="M281.678,242.167h8.343c.974,2.537,3.332,4.138,4.077,4.083a2.024,2.024,0,0,1-.734.062,12.17,12.17,0,0,1-2.284-.47c-.212-.045-.362.44-.362.8s.166,3.9.166,3.9h-8.508a15.321,15.321,0,0,0,.272-6.193A7.349,7.349,0,0,0,281.678,242.167Z" transform="translate(-277.888 -226.033)" fill-rule="evenodd" fill="url(#linear-gradient-9)"/>
            <path id="Trazado_1298565" data-name="Trazado 1298565" d="M283.258,222.445a27.341,27.341,0,0,1,6.284,0,3.818,3.818,0,0,1,2.755,1.28c.748.568,1.8,8.1-2.709,11.174a46.525,46.525,0,0,1-1.269,6.987,7.921,7.921,0,0,1-6.45-.751c-1.469-2.516-4.555-4.693-4.848-10.045C276.7,225.258,280.4,222.966,283.258,222.445Z" transform="translate(-277.001 -222.259)" fill="#dbb58f" fill-rule="evenodd"/>
            <path id="Trazado_1298566" data-name="Trazado 1298566" d="M289.957,229.076l5.124,1.369a8.222,8.222,0,0,1-3.23,5.748c-.261,2.272-1.265,2.785-1.8,1.567C287.593,232.163,289.957,229.076,289.957,229.076Z" transform="translate(-279.263 -223.552)" fill="#c78c71" fill-rule="evenodd"/>
            <path id="Trazado_1298567" data-name="Trazado 1298567" d="M292.8,237.973s-.283-1.894-1.362-2.11-1.531,1.28-1.417,2.336a4.88,4.88,0,0,0,1.576,2.768C292.019,241.149,293.1,239.992,292.8,237.973Z" transform="translate(-279.466 -224.834)" fill="#fdddc8" fill-rule="evenodd"/>
            <path id="Trazado_1298568" data-name="Trazado 1298568" d="M291.763,241.033c0,.252.135.455.3.455s.306-.2.306-.455-.138-.453-.306-.453S291.763,240.783,291.763,241.033Z" transform="translate(-279.8 -225.732)" fill="#fff" fill-rule="evenodd"/>
            <path id="Trazado_1298569" data-name="Trazado 1298569" d="M294.5,235s-.818,3.187,0,5.217a5.393,5.393,0,0,1-1.737-4.4Z" transform="translate(-279.989 -224.675)" fill="#c78c71" fill-rule="evenodd"/>
            <path id="Trazado_1298570" data-name="Trazado 1298570" d="M291.984,222.482s3.748-.067,4.356,0,2.3,3.6,1.662,7.478c0,0-.607-.5-.687-.844a10.034,10.034,0,0,1-2.558,5.461,4.354,4.354,0,0,1-.133-1.055s-2.321,2.755-3.033,2.354-.579-4.148-.579-4.148-.922.713-1.03.422A16.669,16.669,0,0,1,291.984,222.482Z" transform="translate(-279.443 -222.296)" fill="#dbb58f" fill-rule="evenodd"/>
          </g>
          <g id="Grupo_1242150" data-name="Grupo 1242150" transform="translate(31.55 100.899)">
            <path id="Trazado_1298571" data-name="Trazado 1298571" d="M291.349,382.03s.682,4.321.682,5.15a3,3,0,0,1-.947,2.308,5.134,5.134,0,0,1-4.115.918c-1.806-.443-8.275-4.182-9.044-4.713a2.006,2.006,0,0,1-.652-2.486,4.635,4.635,0,0,1,4.884-2.191c2.96.415,2.562-.7,4.457-.437A24.949,24.949,0,0,1,291.349,382.03Z" transform="translate(-277.071 -353.163)" fill="#7485de" fill-rule="evenodd"/>
            <path id="Trazado_1298572" data-name="Trazado 1298572" d="M285.964,346.76l1.24,28.659a3.974,3.974,0,0,0,3.137,1.657c2.013-.03,2.694-.918,2.694-1.45V346.76h-7.071Z" transform="translate(-278.757 -346.76)" fill="#fdddc8" fill-rule="evenodd"/>
          </g>
          <g id="Grupo_1242151" data-name="Grupo 1242151" transform="translate(23.353 56.072)">
            <path id="Trazado_1298573" data-name="Trazado 1298573" d="M281.187,386.5s.681,4.323.681,5.152a3,3,0,0,1-.947,2.308,3.287,3.287,0,0,1-3.269.705c-1.806-.443-8.853-4.222-9.622-4.754s-1.364-1.434-.92-2.234a4.634,4.634,0,0,1,4.884-2.191c2.961.415,2.563-.7,4.457-.437A25.073,25.073,0,0,1,281.187,386.5Z" transform="translate(-266.957 -309.185)" fill="#7485de" fill-rule="evenodd"/>
            <path id="Trazado_1298574" data-name="Trazado 1298574" d="M275.79,349.093l1.239,30.395a3.975,3.975,0,0,0,3.138,1.657c2.012-.03,2.694-.918,2.694-1.451v-30.6H275.79Z" transform="translate(-268.632 -302.376)" fill="#fdddc8" fill-rule="evenodd"/>
            <path id="Trazado_1298575" data-name="Trazado 1298575" d="M272.75,293.727a188.726,188.726,0,0,0-1.554,20.125c0,8.442.81,22.49.776,23.03s2.1,3.985,10.018,3.85,9.535-3.714,9.535-4.66-.161-13.841,1-18.841,3.113-12.268,2.071-17.767a46.543,46.543,0,0,0-2.071-8.016Z" transform="translate(-267.761 -291.448)" fill="#e3e6f2" fill-rule="evenodd"/>
          </g>
          <g id="Grupo_1242153" data-name="Grupo 1242153" transform="translate(15.474 19.428)">
            <path id="Trazado_1298576" data-name="Trazado 1298576" d="M261.549,248.272a12.006,12.006,0,0,1,1.755-.551,7.613,7.613,0,0,0,1.383-.367,4.353,4.353,0,0,1,1.678-.2l-3.467,2.388Z" transform="translate(-258.053 -246.4)" fill-rule="evenodd" fill="url(#linear-gradient-10)"/>
            <g id="Grupo_1242152" data-name="Grupo 1242152">
              <path id="Trazado_1298577" data-name="Trazado 1298577" d="M283.866,255.213l.224,5.083s-2.467-1.464-4.592-2.506-8.014-4.636-9.064-5.744-2.945-3.862-3.129-4.109-.648-.872-.98-.8a7.457,7.457,0,0,0-3.989,2.843c.152.82,1.322,2.034,1.924,2.813a8.2,8.2,0,0,0,3.473,2.01c1.179.347,5.025,4.456,8.283,7.624a75.59,75.59,0,0,0,7.459,6.586c1.484,1.045,2.366.985,3.409.267s1.822-6.412,3.355-8.68Z" transform="translate(-258.202 -246.402)" fill="#fdddc8" fill-rule="evenodd"/>
              <path id="Trazado_1298578" data-name="Trazado 1298578" d="M263.238,249.276s-1.366-1.139-1.7-1.425a2.854,2.854,0,0,0-1.156-.647c-.42-.093-1.622-.392-1.958-.53s-1-.518-1.121-.429a1.337,1.337,0,0,0,.827,1.6c1,.477,1.565.465,1.946.724s1.751,1.644,1.751,1.644Z" transform="translate(-257.235 -246.231)" fill="#fdddc8" fill-rule="evenodd"/>
              <path id="Trazado_1298579" data-name="Trazado 1298579" d="M262.433,250.949a12.2,12.2,0,0,0,1.8,2.5c.977-.53,1.811-1.173,1.283-1.641A5.174,5.174,0,0,0,262.433,250.949Z" transform="translate(-258.221 -247.126)" fill-rule="evenodd" fill="url(#linear-gradient-11)"/>
              <path id="Trazado_1298580" data-name="Trazado 1298580" d="M265.105,254.493s-1.537-.628-2.5-.92a3.681,3.681,0,0,1-1.6-.789c-.36-.306-.776-1.092-1.05-1.314s-.937-.643-.84-.883,1.159-.432,1.944.153.949.845,1.362.878,1.364-.494,2.355.015S266,254.04,265.105,254.493Z" transform="translate(-257.59 -247.013)" fill="#fdddc8" fill-rule="evenodd"/>
            </g>
          </g>
          <g id="Grupo_1242154" data-name="Grupo 1242154" transform="translate(25.574 21.153)">
            <path id="Trazado_1298581" data-name="Trazado 1298581" d="M279.382,253.012s-5.286,4.8-7.041,6.893a12.018,12.018,0,0,0-2.556,8.569c.44,2.787,1.858,9.605,2.246,12.625s-.435,3.3-.581,3.918a1.75,1.75,0,0,0,1.075,2.058c1.376.736,3.188,2.142,10.933,1.076,7.029-.967,9.039-2.566,9.452-3.262a2.439,2.439,0,0,0,.336-2.179c-.284-.776-1.389-.661-1.152-1.732.465-2.105,4.535-16.368,4.5-21.633s-1.621-8.915-4.614-9.672-6.392.171-8.549,1.065A22.608,22.608,0,0,0,279.382,253.012Z" transform="translate(-269.697 -248.556)" fill="#8599ff" fill-rule="evenodd"/>
            <path id="Trazado_1298582" data-name="Trazado 1298582" d="M271.47,289.18a1.75,1.75,0,0,0,1.075,2.059c.917.49,2.959,1.974,8.881,1.317a42.708,42.708,0,0,0-1.991-21.206l-9.629,1.285v0c.44,2.787,1.858,9.605,2.246,12.625S271.616,288.562,271.47,289.18Z" transform="translate(-269.717 -252.718)" fill="#6275d1" fill-rule="evenodd"/>
            <path id="Trazado_1298583" data-name="Trazado 1298583" d="M281.458,252.958a3.319,3.319,0,0,1,1.435-1.621,17.49,17.49,0,0,1,4.533-1.806,27.131,27.131,0,0,0,3.284-1.171,11.3,11.3,0,0,1,.777,2.3c.1.817-2.728,2.264-5.015,2.6A10.489,10.489,0,0,1,281.458,252.958Z" transform="translate(-271.926 -248.36)" fill="#c4eaff" fill-rule="evenodd"/>
            <path id="Trazado_1298584" data-name="Trazado 1298584" d="M291.97,248.664a9.883,9.883,0,0,1,.336,3.23c.737-.437,1.217-.893,1.173-1.236a11.292,11.292,0,0,0-.777-2.3S292.434,248.482,291.97,248.664Z" transform="translate(-273.919 -248.36)" fill="#a3deff" fill-rule="evenodd"/>
          </g>
          <g id="Grupo_1242155" data-name="Grupo 1242155" transform="translate(0 16.145)">
            <path id="Trazado_1298585" data-name="Trazado 1298585" d="M247.892,253.177s.7-1.362,1.206-2.143a3.353,3.353,0,0,0,.652-1.51c.073-.433-.106-1.233-.048-1.555s.271-1.011.065-1.123-1.076.391-1.277,1.272-.161,1.161-.432,1.432-1.254.47-1.644,1.42S246.988,253.4,247.892,253.177Z" transform="translate(-239.692 -243.062)" fill-rule="evenodd" fill="url(#linear-gradient-12)"/>
            <path id="Trazado_1298586" data-name="Trazado 1298586" d="M265.331,261.2c-3.229,1.4-10.935,6.62-10.935,6.62s-2.02-3.428-3.278-5.215-4.439-7.3-4.8-8.666.449-5.131.408-5.413a3.456,3.456,0,0,0-.18-.772h0s-.5-1.562-.618-1.953a2.645,2.645,0,0,0-.582-1.075c-.281-.282-1.066-1.109-1.261-1.386s-.518-.9-.659-.888a1.236,1.236,0,0,0-.151,1.657c.549.87.989,1.136,1.159,1.528a14.677,14.677,0,0,1,.416,1.561c-.207-.527-.464-1.188-.558-1.432a2.961,2.961,0,0,0-.734-1.169c-.339-.3-1.285-1.173-1.526-1.466s-.65-.973-.809-.953a1.391,1.391,0,0,0-.045,1.877c.682.938,1.2,1.208,1.418,1.635a19.345,19.345,0,0,1,.668,2l-.016,0c-.244-.477-.566-1.11-.681-1.336a2.747,2.747,0,0,0-.785-1.017c-.34-.243-1.3-.966-1.542-1.216s-.692-.839-.836-.81a1.293,1.293,0,0,0,.128,1.742c.715.806,1.22,1.011,1.463,1.383a12.149,12.149,0,0,1,.582,1.263c-.01-.017-.025-.041-.033-.054a2.611,2.611,0,0,0-.814-.891c-.34-.2-1.294-.807-1.546-1.021s-.718-.736-.85-.695a1.224,1.224,0,0,0,.261,1.625c.732.7,1.224.854,1.479,1.19a9.41,9.41,0,0,1,.566.986,10.943,10.943,0,0,0,.347,2.969,7.542,7.542,0,0,0,1.922,3.166c.8.8,2.094,5.835,3.33,9.846a80.437,80.437,0,0,0,3.8,9.784c.736,1.5,1.479,1.845,2.641,1.724s13.335-6.086,15.636-7.137c1.573-.718,4.293-2.009,3.8-5.413C271.469,259.241,266.81,260.563,265.331,261.2Z" transform="translate(-238.141 -242.18)" fill="#fdddc8" fill-rule="evenodd"/>
          </g>
          <path id="Trazado_1298587" data-name="Trazado 1298587" d="M262.921,270.17s-1.306.883-1.619,1.041-.968,1.2.092,4.128,2.212,3.528,2.477,3.5,2.27-.911,2.27-.911Z" transform="translate(-242.439 -231.342)" fill="#a8b7ff" fill-rule="evenodd"/>
          <path id="Trazado_1298588" data-name="Trazado 1298588" d="M276.857,264.245c-1.744-2.417-5.176-.909-7.877.712s-3.854,2.25-4.587,2.2-1.573,1.2-1.636,1.835a8.36,8.36,0,0,0,.933,5.215c1.358,2.727,3.065,3.7,4.136,3.156a17.483,17.483,0,0,0,4.192-2.908C274.335,272.572,280.53,269.326,276.857,264.245Z" transform="translate(-242.791 -229.979)" fill="#8599ff" fill-rule="evenodd"/>
        </g>
        <g id="Grupo_1242161" data-name="Grupo 1242161" transform="translate(85.93 254.154)">
          <g id="Grupo_1242157" data-name="Grupo 1242157">
            <path id="Trazado_1298589" data-name="Trazado 1298589" d="M116.432,309.333l0,61.122-9.557,5.556V314.886Z" transform="translate(-97.247 -303.774)" fill="#fc8cbe"/>
            <path id="Trazado_1298590" data-name="Trazado 1298590" d="M104.621,314.885V376.01l-9.626-5.558V309.326Z" transform="translate(-94.995 -303.773)" fill="#e86fa5"/>
            <path id="Trazado_1298591" data-name="Trazado 1298591" d="M104.621,314.885l-9.626-5.559v.325l9.626,5.558,9.557-5.557,0-.32Z" transform="translate(-94.995 -303.773)" fill="#fff" opacity="0.7"/>
            <path id="Trazado_1298592" data-name="Trazado 1298592" d="M114.18,308.033l-9.559,5.553-9.626-5.559,9.558-5.553Z" transform="translate(-94.995 -302.474)" fill="#fcaed0"/>
          </g>
          <g id="Grupo_1242158" data-name="Grupo 1242158" transform="translate(16.169 38.898)">
            <path id="Trazado_1298593" data-name="Trazado 1298593" d="M136.383,357.328v31.633l-9.557,5.555V362.883Z" transform="translate(-117.198 -351.771)" fill="#69d3ff"/>
            <path id="Trazado_1298594" data-name="Trazado 1298594" d="M124.574,362.882v31.633l-9.628-5.559V357.325Z" transform="translate(-114.946 -351.77)" fill="#50b5de"/>
            <path id="Trazado_1298595" data-name="Trazado 1298595" d="M124.574,362.882l-9.627-5.557v.336l9.628,5.558,9.557-5.555v-.337Z" transform="translate(-114.946 -351.77)" fill="#fff" opacity="0.7"/>
            <path id="Trazado_1298596" data-name="Trazado 1298596" d="M134.131,356.028l-9.557,5.555-9.627-5.557,9.56-5.555Z" transform="translate(-114.946 -350.471)" fill="#94e0ff"/>
          </g>
          <g id="Grupo_1242159" data-name="Grupo 1242159" transform="translate(32.341 33.094)">
            <path id="Trazado_1298597" data-name="Trazado 1298597" d="M156.33,350.165l0,46.842-9.556,5.555V355.719Z" transform="translate(-137.152 -344.609)" fill="#cea4f5"/>
            <path id="Trazado_1298598" data-name="Trazado 1298598" d="M144.522,355.719v46.843l-9.621-5.555V350.165Z" transform="translate(-134.901 -344.609)" fill="#b17de0"/>
            <path id="Trazado_1298599" data-name="Trazado 1298599" d="M144.522,355.719l-9.621-5.554v.5l9.621,5.555,9.556-5.555,0-.5Z" transform="translate(-134.901 -344.609)" fill="#fff" opacity="0.7"/>
            <path id="Trazado_1298600" data-name="Trazado 1298600" d="M154.08,348.865l-9.557,5.554-9.621-5.554,9.558-5.556Z" transform="translate(-134.901 -343.309)" fill="#ddc4f5"/>
          </g>
          <g id="Grupo_1242160" data-name="Grupo 1242160" transform="translate(48.505 68.29)">
            <path id="Trazado_1298601" data-name="Trazado 1298601" d="M176.281,393.6v21.052l-9.557,5.553V399.15Z" transform="translate(-157.098 -388.038)" fill="#fcd665"/>
            <path id="Trazado_1298602" data-name="Trazado 1298602" d="M164.472,399.149V420.2l-9.626-5.556V393.592Z" transform="translate(-154.846 -388.037)" fill="#fcb365"/>
            <path id="Trazado_1298603" data-name="Trazado 1298603" d="M164.472,399.149l-9.626-5.557v.328l9.626,5.558,9.557-5.553V393.6Z" transform="translate(-154.846 -388.037)" fill="#fff" opacity="0.7"/>
            <path id="Trazado_1298604" data-name="Trazado 1298604" d="M174.03,392.3l-9.557,5.553-9.626-5.557,9.558-5.555Z" transform="translate(-154.846 -386.738)" fill="#fcdf8b"/>
          </g>
        </g>
        <g id="Grupo_1242162" data-name="Grupo 1242162" transform="translate(232.026 321.589)">
          <path id="Trazado_1298605" data-name="Trazado 1298605" d="M275.269,385.684Z" transform="translate(-275.267 -385.684)" fill="#7485de" fill-rule="evenodd"/>
        </g>
        <path id="Trazado_1298606" data-name="Trazado 1298606" d="M276.551,232.885c-.088,2.836.892,6.584-.56,9.657s-2.582,7.057.8,9.387,9.867,2.836,12.636.743,3.472-6.324,2.108-8.683-2.537-2.308-2.862-3.583l-3.768-.093Z" transform="translate(-43.11 -35.128)" fill="#dbb58f" fill-rule="evenodd"/>
        <g id="Grupo_1242164" data-name="Grupo 1242164" transform="translate(314.388 105.16)">
          <path id="Trazado_1298607" data-name="Trazado 1298607" d="M434.549,150.193l-53.756-31.035c-2.143-1.237-3.892-.233-3.9,2.222v35.789c0,.72.169,1.152.463,1.321a.8.8,0,0,0,.7.007l4.388-1.647,52.08,30.109c2.144,1.238,3.9.237,3.906-2.218V156.908A8.577,8.577,0,0,0,434.549,150.193Z" transform="translate(-376.894 -118.628)" fill="#8599ff"/>
          <g id="Grupo_1242163" data-name="Grupo 1242163" transform="translate(6.049 19.518)">
            <path id="Trazado_1298608" data-name="Trazado 1298608" d="M384.373,150.264,429.648,176.4l0-1.562L384.378,148.7Z" transform="translate(-384.361 -143.847)" fill="#fff"/>
            <path id="Trazado_1298609" data-name="Trazado 1298609" d="M384.358,156.261,429.632,182.4l0-1.562L384.361,154.7Z" transform="translate(-384.358 -144.984)" fill="#fff"/>
            <path id="Trazado_1298610" data-name="Trazado 1298610" d="M384.392,144.274l45.274,26.139,0-1.563-45.275-26.139Z" transform="translate(-384.364 -142.712)" fill="#fff"/>
            <path id="Trazado_1298611" data-name="Trazado 1298611" d="M397.763,144.421l0,1.563,34.456,19.893,0-1.562Z" transform="translate(-386.898 -143.036)" fill="#fff"/>
          </g>
        </g>
        <path id="Trazado_1298612" data-name="Trazado 1298612" d="M155.262,97.581l-.268.464c-.144.25-.143.53,0,.613a.271.271,0,0,0,.269-.025.746.746,0,0,0,.264-.282l.268-.465.265.156a.267.267,0,0,0,.269-.025.771.771,0,0,0,.268-.285c.145-.25.143-.528,0-.613l-.27-.153.267-.459c.145-.256.144-.528,0-.613a.272.272,0,0,0-.269.027.765.765,0,0,0-.268.285l-.263.455-.27-.147a.259.259,0,0,0-.265.024.776.776,0,0,0-.267.284c-.145.252-.144.524,0,.613Z" transform="translate(-20.419 -9.153)" fill="#e8f1ff"/>
        <g id="Grupo_1242165" data-name="Grupo 1242165" transform="translate(156.259 90.155)">
          <path id="Trazado_1298613" data-name="Trazado 1298613" d="M193.567,126.765c-2.078,1.2-3.948,1.273-5.276.433l-2.956,4.513c2.039,1.4,4.978,1.332,8.244-.554a22.732,22.732,0,0,0,7.958-8.484l-2.88-1.252A14.756,14.756,0,0,1,193.567,126.765Z" transform="translate(-182.451 -104.152)" fill="#69d3ff"/>
          <path id="Trazado_1298614" data-name="Trazado 1298614" d="M205.073,101.4l-2.747,4.643a5.4,5.4,0,0,1,1.707,4.377,14,14,0,0,1-1.489,5.935l2.888,1.252a21.573,21.573,0,0,0,2.425-9.394C207.847,104.994,206.8,102.657,205.073,101.4Z" transform="translate(-185.672 -100.357)" fill="#fc8cbe"/>
          <path id="Trazado_1298615" data-name="Trazado 1298615" d="M200.421,105.373l2.754-4.649c-1.879-.959-4.373-.819-7.126.626l.012,4.407A5.029,5.029,0,0,1,200.421,105.373Z" transform="translate(-184.482 -100.112)" fill="#fcd665"/>
          <path id="Trazado_1298616" data-name="Trazado 1298616" d="M185.6,119c-.013-4.417,2.962-9.746,6.735-12.227l-.013-4.407c-5.888,3.705-10.565,12-10.546,18.841.009,2.865.841,5.033,2.234,6.359l2.956-4.51A5.693,5.693,0,0,1,185.6,119Z" transform="translate(-181.776 -100.54)" fill="#cea4f5"/>
        </g>
        <g id="Grupo_1242166" data-name="Grupo 1242166" transform="translate(183.292 76.937)">
          <path id="Trazado_1298617" data-name="Trazado 1298617" d="M225.868,90.466l-.013-4.407c-4.461,2.807-8.227,8.253-9.779,13.7L219.7,99.1A16.425,16.425,0,0,1,225.868,90.466Z" transform="translate(-215.311 -84.23)" fill="#cea4f5"/>
          <path id="Trazado_1298618" data-name="Trazado 1298618" d="M236.09,92.594l3.819-2.606c-.729-5.618-5.124-7.771-10.507-4.946l.013,4.406C232.8,87.764,235.551,89.114,236.09,92.594Z" transform="translate(-217.837 -83.803)" fill="#fcd665"/>
          <path id="Trazado_1298619" data-name="Trazado 1298619" d="M240.339,92.806l-3.818,2.606c0,.054.009.107.01.167.011,3.866-2.272,8.433-5.376,11.179l.739,3.905c4.867-4.153,8.476-11.28,8.459-17.291C240.352,93.178,240.346,92.992,240.339,92.806Z" transform="translate(-218.169 -85.509)" fill="#fc8cbe"/>
          <path id="Trazado_1298620" data-name="Trazado 1298620" d="M226.248,110.2c-4.016,2.319-7.28.458-7.294-4.153a11.5,11.5,0,0,1,.249-2.3l-3.631.665a17.668,17.668,0,0,0-.44,3.841c.02,7.037,5,9.876,11.128,6.338a16.431,16.431,0,0,0,1.6-1.056l-.739-3.9C226.83,109.838,226.544,110.028,226.248,110.2Z" transform="translate(-215.132 -87.584)" fill="#69d3ff"/>
        </g>
      </g>
    </g>
  </g>
</svg>
