<svg xmlns="http://www.w3.org/2000/svg" xmlns:xlink="http://www.w3.org/1999/xlink" width="106.16" height="106.16" viewBox="0 0 106.16 106.16">
  <defs>
    <filter id="Trazado_982547" x="0" y="0" width="106.16" height="106.16" filterUnits="userSpaceOnUse">
      <feOffset dy="3" input="SourceAlpha"/>
      <feGaussianBlur stdDeviation="3" result="blur"/>
      <feFlood flood-opacity="0.161"/>
      <feComposite operator="in" in2="blur"/>
      <feComposite in="SourceGraphic"/>
    </filter>
  </defs>
  <g id="Grupo_1242180" data-name="Grupo 1242180" transform="translate(-190.42 -9070.127)">
    <g id="Grupo_1241243" data-name="Grupo 1241243" transform="translate(0 7945.127)">
      <g id="Grupo_1235128" data-name="Grupo 1235128" transform="translate(199.42 1131)">
        <g id="Grupo_1233884" data-name="Grupo 1233884" transform="translate(0 0)">
          <g id="Grupo_1228506" data-name="Grupo 1228506" transform="translate(0 0)">
            <g id="Grupo_1206132" data-name="Grupo 1206132" transform="translate(0 0)">
              <g id="Grupo_1203794" data-name="Grupo 1203794">
                <g id="Grupo_1203345" data-name="Grupo 1203345">
                  <g id="Grupo_1177900" data-name="Grupo 1177900">
                    <g id="Grupo_1172010" data-name="Grupo 1172010">
                      <g id="Grupo_1171046" data-name="Grupo 1171046">
                        <g id="Grupo_1148525" data-name="Grupo 1148525">
                          <g transform="matrix(1, 0, 0, 1, -9, -6)" filter="url(#Trazado_982547)">
                            <g id="Trazado_982547-2" data-name="Trazado 982547" transform="translate(9 6)" fill="#e9f9fd">
                              <path d="M 44.0802001953125 86.660400390625 C 38.33124923706055 86.660400390625 32.75506210327148 85.53479766845703 27.50652503967285 83.31484985351562 C 22.43628692626953 81.17032623291016 17.88242530822754 78.09992218017578 13.97144985198975 74.18894958496094 C 10.06047534942627 70.27797698974609 6.99007511138916 65.72411346435547 4.845550060272217 60.65387344360352 C 2.625600099563599 55.40533828735352 1.500000238418579 49.82915115356445 1.500000238418579 44.0802001953125 C 1.500000238418579 38.33124923706055 2.625600099563599 32.75506210327148 4.845550060272217 27.50652503967285 C 6.99007511138916 22.43628692626953 10.06047534942627 17.88242530822754 13.97144985198975 13.97144985198975 C 17.88242530822754 10.06047534942627 22.43628692626953 6.99007511138916 27.50652503967285 4.845550060272217 C 32.75506210327148 2.625600099563599 38.33124923706055 1.500000238418579 44.0802001953125 1.500000238418579 C 49.82915115356445 1.500000238418579 55.40533828735352 2.625600099563599 60.65387344360352 4.845550060272217 C 65.72411346435547 6.99007511138916 70.27797698974609 10.06047534942627 74.18894958496094 13.97144985198975 C 78.09992218017578 17.88242530822754 81.17032623291016 22.43628692626953 83.31484985351562 27.50652503967285 C 85.53479766845703 32.75506210327148 86.660400390625 38.33124923706055 86.660400390625 44.0802001953125 C 86.660400390625 49.82915115356445 85.53479766845703 55.40533828735352 83.31484985351562 60.65387344360352 C 81.17032623291016 65.72411346435547 78.09992218017578 70.27797698974609 74.18894958496094 74.18894958496094 C 70.27797698974609 78.09992218017578 65.72411346435547 81.17032623291016 60.65387344360352 83.31484985351562 C 55.40533828735352 85.53479766845703 49.82915115356445 86.660400390625 44.0802001953125 86.660400390625 Z" stroke="none"/>
                              <path d="M 44.0802001953125 3 C 38.53308486938477 3 33.15349960327148 4.085746765136719 28.09085845947266 6.227058410644531 C 23.19941711425781 8.29595947265625 18.80581665039062 11.25841522216797 15.03211212158203 15.03211212158203 C 11.25841522216797 18.80581665039062 8.29595947265625 23.19941711425781 6.227058410644531 28.09085845947266 C 4.085746765136719 33.15349960327148 3 38.53308486938477 3 44.0802001953125 C 3 49.62731552124023 4.085746765136719 55.00691604614258 6.227058410644531 60.06954193115234 C 8.29595947265625 64.96098327636719 11.25841522216797 69.35458374023438 15.03211212158203 73.12828826904297 C 18.80581665039062 76.90198516845703 23.19941711425781 79.86444091796875 28.09085845947266 81.93334197998047 C 33.15349960327148 84.07466125488281 38.53308486938477 85.160400390625 44.0802001953125 85.160400390625 C 49.62731552124023 85.160400390625 55.00691604614258 84.07466125488281 60.06954193115234 81.93334197998047 C 64.96099853515625 79.86444091796875 69.35458374023438 76.90198516845703 73.12828826904297 73.12828826904297 C 76.90198516845703 69.35458374023438 79.86444091796875 64.96099853515625 81.93334197998047 60.06954193115234 C 84.07466125488281 55.00691604614258 85.160400390625 49.62731552124023 85.160400390625 44.0802001953125 C 85.160400390625 38.53308486938477 84.07466125488281 33.15349960327148 81.93334197998047 28.09085845947266 C 79.86444091796875 23.19941711425781 76.90198516845703 18.80581665039062 73.12828826904297 15.03211212158203 C 69.35458374023438 11.25841522216797 64.96098327636719 8.29595947265625 60.06954193115234 6.227058410644531 C 55.00691604614258 4.085746765136719 49.62731552124023 3 44.0802001953125 3 M 44.0802001953125 0 C 68.42502593994141 0 88.160400390625 19.73538970947266 88.160400390625 44.0802001953125 C 88.160400390625 68.42502593994141 68.42502593994141 88.160400390625 44.0802001953125 88.160400390625 C 19.73538970947266 88.160400390625 0 68.42502593994141 0 44.0802001953125 C 0 19.73538970947266 19.73538970947266 0 44.0802001953125 0 Z" stroke="none" fill="#1d7083"/>
                            </g>
                          </g>
                        </g>
                      </g>
                    </g>
                  </g>
                </g>
              </g>
            </g>
          </g>
        </g>
      </g>
    </g>
    <g id="Page-1" transform="translate(216 9090)">
      <g id="_034---Copywriting-Approved" data-name="034---Copywriting-Approved" transform="translate(0 0)">
        <path id="Shape" d="M26.246,6h8.44a2.807,2.807,0,0,1,2.807,2.807V52.786a2.807,2.807,0,0,1-2.807,2.807H3.807A2.807,2.807,0,0,1,1,52.786V8.807A2.807,2.807,0,0,1,3.807,6Z" transform="translate(-0.064 -0.386)" fill="#f5f5f5"/>
        <path id="Shape-2" data-name="Shape" d="M36.807,6H34a2.807,2.807,0,0,1,2.807,2.807V52.786A2.807,2.807,0,0,1,34,55.593h2.807a2.807,2.807,0,0,0,2.807-2.807V8.807A2.807,2.807,0,0,0,36.807,6Z" transform="translate(-2.186 -0.386)" fill="#cfd8dc"/>
        <path id="Shape-3" data-name="Shape" d="M25.164,9.421H14.871A1.871,1.871,0,0,1,13,7.55V6.036A3.088,3.088,0,0,1,15.115,3.1a3.1,3.1,0,0,0,1.209-.749l.449-.449A3.088,3.088,0,0,1,18.96,1h2.117a3.088,3.088,0,0,1,2.187.906l.449.449a3.1,3.1,0,0,0,1.209.749,3.088,3.088,0,0,1,2.115,2.933V7.55a1.871,1.871,0,0,1-1.871,1.871Z" transform="translate(-0.836 -0.064)" fill="#ffdc00"/>
        <path id="Shape-4" data-name="Shape" d="M25.307,3.1A3.1,3.1,0,0,1,24.1,2.354L23.649,1.9A3.088,3.088,0,0,0,21.462,1H19.345A3.267,3.267,0,0,0,19,1.034a3.081,3.081,0,0,1,1.841.872l.449.449A3.1,3.1,0,0,0,22.5,3.1a3.088,3.088,0,0,1,2.115,2.933V7.55a1.871,1.871,0,0,1-1.871,1.871H25.55A1.871,1.871,0,0,0,27.421,7.55V6.036A3.088,3.088,0,0,0,25.307,3.1Z" transform="translate(-1.221 -0.064)" fill="#fec108"/>
        <path id="Shape-5" data-name="Shape" d="M54.357,49v6.55a2.807,2.807,0,0,1-2.807,2.807H47.807A2.807,2.807,0,0,1,45,55.55V49Z" transform="translate(-2.893 -3.15)" fill="#e91e63"/>
        <path id="Shape-6" data-name="Shape" d="M51.807,49v6.55A2.807,2.807,0,0,1,49,58.357h2.807a2.807,2.807,0,0,0,2.807-2.807V49Z" transform="translate(-3.15 -3.15)" fill="#ad1457"/>
        <path id="Rectangle-path" d="M45,44h9.357v4.679H45Z" transform="translate(-2.893 -2.829)" fill="#ffdc00"/>
        <path id="Rectangle-path-2" data-name="Rectangle-path" d="M52,44h2.807v4.679H52Z" transform="translate(-3.343 -2.829)" fill="#fec108"/>
        <path id="Shape-7" data-name="Shape" d="M54.357,13.174V42H45V13.174A.547.547,0,0,1,45.019,13h9.058l.243-.056a.615.615,0,0,1,.037.234Z" transform="translate(-2.893 -0.832)" fill="#ef314c"/>
        <path id="Shape-8" data-name="Shape" d="M54.768,12.94,54.524,13H51.97a.679.679,0,0,1,.028.178V42h2.807V13.174a.615.615,0,0,0-.037-.234Z" transform="translate(-3.341 -0.832)" fill="#bb193b"/>
        <path id="Shape-9" data-name="Shape" d="M54.321,12.535v.019l-.243.056H45.02a.449.449,0,0,1,.047-.159L47.191,6.93,47.369,7h4.622l.178-.066,2.124,5.521Z" transform="translate(-2.894 -0.445)" fill="#ffe0b2"/>
        <path id="Shape-10" data-name="Shape" d="M47.516,7l-.178-.066L47.313,7Z" transform="translate(-3.042 -0.445)" fill="#dfc49c"/>
        <path id="Shape-11" data-name="Shape" d="M54.593,12.451,52.469,6.93,52.291,7h-2.6l2.1,5.455.028.084v.019l-.243.056h2.807l.243-.056v-.019Z" transform="translate(-3.194 -0.445)" fill="#dfc49c"/>
        <path id="Shape-12" data-name="Shape" d="M52.318,6.6l-.178.066H47.518L47.34,6.6l1.619-4.211a.929.929,0,0,1,1.74,0Z" transform="translate(-3.043 -0.115)" fill="#607d8b"/>
        <ellipse id="Oval" cx="12" cy="11.5" rx="12" ry="11.5" transform="translate(7 28)" fill="#a4c400"/>
        <path id="Shape-13" data-name="Shape" d="M20.4,30a11.772,11.772,0,0,0-1.4.094A11.688,11.688,0,0,1,19,53.3,11.7,11.7,0,1,0,20.4,30Z" transform="translate(-1.221 -1.929)" fill="#90ac00"/>
        <g id="Grupo_1242179" data-name="Grupo 1242179">
          <path id="Shape-14" data-name="Shape" d="M18.936,6.871h2.807a.936.936,0,1,0,0-1.871H18.936a.936.936,0,0,0,0,1.871Z" transform="translate(-1.157 -0.321)"/>
          <path id="Shape-15" data-name="Shape" d="M34.621,4.679h-7.7a4.024,4.024,0,0,0-2.54-2.526,2.165,2.165,0,0,1-.842-.521l-.449-.449A4,4,0,0,0,20.24,0H18.124a4,4,0,0,0-2.848,1.18l-.449.449a2.162,2.162,0,0,1-.842.521,4.024,4.024,0,0,0-2.54,2.528h-7.7A3.743,3.743,0,0,0,0,8.421V52.4a3.743,3.743,0,0,0,3.743,3.743H34.621A3.743,3.743,0,0,0,38.364,52.4V8.421A3.743,3.743,0,0,0,34.621,4.679ZM14.575,3.93a4.046,4.046,0,0,0,1.575-.973l.449-.449a2.143,2.143,0,0,1,1.525-.636H20.24a2.172,2.172,0,0,1,1.525.632l.449.449a4.046,4.046,0,0,0,1.575.978,2.152,2.152,0,0,1,1.475,2.042V7.486a.936.936,0,0,1-.936.936H14.036a.936.936,0,0,1-.936-.936V5.972A2.152,2.152,0,0,1,14.575,3.93ZM36.493,52.4a1.871,1.871,0,0,1-1.871,1.871H3.743A1.871,1.871,0,0,1,1.871,52.4V8.421A1.871,1.871,0,0,1,3.743,6.55h7.486v.936a2.807,2.807,0,0,0,2.807,2.807H24.329a2.807,2.807,0,0,0,2.807-2.807V6.55h7.486a1.871,1.871,0,0,1,1.871,1.871Z" transform="translate(0 0)"/>
          <path id="Shape-16" data-name="Shape" d="M51.361,1.986a1.871,1.871,0,0,0-3.493,0l-3.743,9.731a1.871,1.871,0,0,0-.125.675V52.45a3.743,3.743,0,0,0,3.743,3.743h3.743a3.743,3.743,0,0,0,3.743-3.743V12.389a1.841,1.841,0,0,0-.125-.672ZM47.737,7.536h3.754l1.439,3.743H46.3Zm5.62,5.614V40.286H45.871V13.151ZM45.871,42.158h7.486v2.807H45.871Zm4.9-36.493H48.458l1.157-3.007ZM53.357,52.45a1.871,1.871,0,0,1-1.871,1.871H47.743a1.871,1.871,0,0,1-1.871-1.871V46.836h7.486Z" transform="translate(-2.829 -0.051)"/>
          <path id="Shape-17" data-name="Shape" d="M5.936,15.871h6.55a.936.936,0,1,0,0-1.871H5.936a.936.936,0,1,0,0,1.871Z" transform="translate(-0.321 -0.9)"/>
          <path id="Shape-18" data-name="Shape" d="M16.936,15.871H33.779a.936.936,0,1,0,0-1.871H16.936a.936.936,0,1,0,0,1.871Z" transform="translate(-1.029 -0.9)"/>
          <path id="Shape-19" data-name="Shape" d="M34.486,19h-6.55a.936.936,0,0,0,0,1.871h6.55a.936.936,0,1,0,0-1.871Z" transform="translate(-1.736 -1.221)"/>
          <path id="Shape-20" data-name="Shape" d="M5.936,20.871H22.779a.936.936,0,0,0,0-1.871H5.936a.936.936,0,1,0,0,1.871Z" transform="translate(-0.321 -1.221)"/>
          <path id="Shape-21" data-name="Shape" d="M5.936,25.871h6.55a.936.936,0,1,0,0-1.871H5.936a.936.936,0,1,0,0,1.871Z" transform="translate(-0.321 -1.543)"/>
          <path id="Shape-22" data-name="Shape" d="M33.779,24H16.936a.936.936,0,1,0,0,1.871H33.779a.936.936,0,1,0,0-1.871Z" transform="translate(-1.029 -1.543)"/>
          <path id="Shape-23" data-name="Shape" d="M19.632,29A12.632,12.632,0,1,0,32.264,41.632,12.632,12.632,0,0,0,19.632,29Zm0,23.393A10.761,10.761,0,1,1,30.393,41.632,10.761,10.761,0,0,1,19.632,52.393Z" transform="translate(-0.45 -1.864)"/>
          <path id="Shape-24" data-name="Shape" d="M27.691,37.337a.936.936,0,0,0-1.317-.12L15.8,46.027l-2.2-2.2a.936.936,0,0,0-1.323,1.323l2.807,2.807a.936.936,0,0,0,1.26.057l11.229-9.357a.936.936,0,0,0,.122-1.317Z" transform="translate(-0.772 -2.379)"/>
          <path id="Shape-25" data-name="Shape" d="M35.743,51a.936.936,0,0,0-.936.936v1.871H32.936a.936.936,0,0,0,0,1.871h2.807a.936.936,0,0,0,.936-.936V51.936A.936.936,0,0,0,35.743,51Z" transform="translate(-2.057 -3.279)"/>
          <path id="Shape-26" data-name="Shape" d="M7.743,53.807H5.871V51.936a.936.936,0,0,0-1.871,0v2.807a.936.936,0,0,0,.936.936H7.743a.936.936,0,0,0,0-1.871Z" transform="translate(-0.257 -3.279)"/>
        </g>
      </g>
    </g>
  </g>
</svg>
