<svg xmlns="http://www.w3.org/2000/svg" xmlns:xlink="http://www.w3.org/1999/xlink" width="106.16" height="106.16" viewBox="0 0 106.16 106.16">
  <defs>
    <filter id="Trazado_982547" x="0" y="0" width="106.16" height="106.16" filterUnits="userSpaceOnUse">
      <feOffset dy="3" input="SourceAlpha"/>
      <feGaussianBlur stdDeviation="3" result="blur"/>
      <feFlood flood-opacity="0.161"/>
      <feComposite operator="in" in2="blur"/>
      <feComposite in="SourceGraphic"/>
    </filter>
  </defs>
  <g id="Grupo_1242182" data-name="Grupo 1242182" transform="translate(-1030.42 -9070.127)">
    <g id="Grupo_1241245" data-name="Grupo 1241245" transform="translate(840 7945.127)">
      <g id="Grupo_1235128" data-name="Grupo 1235128" transform="translate(199.42 1131)">
        <g id="Grupo_1233884" data-name="Grupo 1233884" transform="translate(0 0)">
          <g id="Grupo_1228506" data-name="Grupo 1228506" transform="translate(0 0)">
            <g id="Grupo_1206132" data-name="Grupo 1206132" transform="translate(0 0)">
              <g id="Grupo_1203794" data-name="Grupo 1203794">
                <g id="Grupo_1203345" data-name="Grupo 1203345">
                  <g id="Grupo_1177900" data-name="Grupo 1177900">
                    <g id="Grupo_1172010" data-name="Grupo 1172010">
                      <g id="Grupo_1171046" data-name="Grupo 1171046">
                        <g id="Grupo_1148525" data-name="Grupo 1148525">
                          <g transform="matrix(1, 0, 0, 1, -9, -6)" filter="url(#Trazado_982547)">
                            <g id="Trazado_982547-2" data-name="Trazado 982547" transform="translate(9 6)" fill="#e9f9fd">
                              <path d="M 44.0802001953125 86.660400390625 C 38.33124923706055 86.660400390625 32.75506210327148 85.53479766845703 27.50652503967285 83.31484985351562 C 22.43628692626953 81.17032623291016 17.88242530822754 78.09992218017578 13.97144985198975 74.18894958496094 C 10.06047534942627 70.27797698974609 6.99007511138916 65.72411346435547 4.845550060272217 60.65387344360352 C 2.625600099563599 55.40533828735352 1.500000238418579 49.82915115356445 1.500000238418579 44.0802001953125 C 1.500000238418579 38.33124923706055 2.625600099563599 32.75506210327148 4.845550060272217 27.50652503967285 C 6.99007511138916 22.43628692626953 10.06047534942627 17.88242530822754 13.97144985198975 13.97144985198975 C 17.88242530822754 10.06047534942627 22.43628692626953 6.99007511138916 27.50652503967285 4.845550060272217 C 32.75506210327148 2.625600099563599 38.33124923706055 1.500000238418579 44.0802001953125 1.500000238418579 C 49.82915115356445 1.500000238418579 55.40533828735352 2.625600099563599 60.65387344360352 4.845550060272217 C 65.72411346435547 6.99007511138916 70.27797698974609 10.06047534942627 74.18894958496094 13.97144985198975 C 78.09992218017578 17.88242530822754 81.17032623291016 22.43628692626953 83.31484985351562 27.50652503967285 C 85.53479766845703 32.75506210327148 86.660400390625 38.33124923706055 86.660400390625 44.0802001953125 C 86.660400390625 49.82915115356445 85.53479766845703 55.40533828735352 83.31484985351562 60.65387344360352 C 81.17032623291016 65.72411346435547 78.09992218017578 70.27797698974609 74.18894958496094 74.18894958496094 C 70.27797698974609 78.09992218017578 65.72411346435547 81.17032623291016 60.65387344360352 83.31484985351562 C 55.40533828735352 85.53479766845703 49.82915115356445 86.660400390625 44.0802001953125 86.660400390625 Z" stroke="none"/>
                              <path d="M 44.0802001953125 3 C 38.53308486938477 3 33.15349960327148 4.085746765136719 28.09085845947266 6.227058410644531 C 23.19941711425781 8.29595947265625 18.80581665039062 11.25841522216797 15.03211212158203 15.03211212158203 C 11.25841522216797 18.80581665039062 8.29595947265625 23.19941711425781 6.227058410644531 28.09085845947266 C 4.085746765136719 33.15349960327148 3 38.53308486938477 3 44.0802001953125 C 3 49.62731552124023 4.085746765136719 55.00691604614258 6.227058410644531 60.06954193115234 C 8.29595947265625 64.96098327636719 11.25841522216797 69.35458374023438 15.03211212158203 73.12828826904297 C 18.80581665039062 76.90198516845703 23.19941711425781 79.86444091796875 28.09085845947266 81.93334197998047 C 33.15349960327148 84.07466125488281 38.53308486938477 85.160400390625 44.0802001953125 85.160400390625 C 49.62731552124023 85.160400390625 55.00691604614258 84.07466125488281 60.06954193115234 81.93334197998047 C 64.96099853515625 79.86444091796875 69.35458374023438 76.90198516845703 73.12828826904297 73.12828826904297 C 76.90198516845703 69.35458374023438 79.86444091796875 64.96099853515625 81.93334197998047 60.06954193115234 C 84.07466125488281 55.00691604614258 85.160400390625 49.62731552124023 85.160400390625 44.0802001953125 C 85.160400390625 38.53308486938477 84.07466125488281 33.15349960327148 81.93334197998047 28.09085845947266 C 79.86444091796875 23.19941711425781 76.90198516845703 18.80581665039062 73.12828826904297 15.03211212158203 C 69.35458374023438 11.25841522216797 64.96098327636719 8.29595947265625 60.06954193115234 6.227058410644531 C 55.00691604614258 4.085746765136719 49.62731552124023 3 44.0802001953125 3 M 44.0802001953125 0 C 68.42502593994141 0 88.160400390625 19.73538970947266 88.160400390625 44.0802001953125 C 88.160400390625 68.42502593994141 68.42502593994141 88.160400390625 44.0802001953125 88.160400390625 C 19.73538970947266 88.160400390625 0 68.42502593994141 0 44.0802001953125 C 0 19.73538970947266 19.73538970947266 0 44.0802001953125 0 Z" stroke="none" fill="#1d7083"/>
                            </g>
                          </g>
                        </g>
                      </g>
                    </g>
                  </g>
                </g>
              </g>
            </g>
          </g>
        </g>
      </g>
    </g>
    <g id="agregar-usuario_8_" data-name="agregar-usuario (8)" transform="translate(1051.309 9091.318)">
      <path id="Trazado_1298657" data-name="Trazado 1298657" d="M56.844,32.209A24.635,24.635,0,1,1,32.209,7.574,24.635,24.635,0,0,1,56.844,32.209Zm0,0" transform="translate(-6.621 -6.622)" fill="#e1ebf0"/>
      <path id="Trazado_1298658" data-name="Trazado 1298658" d="M82.917,48.371A24.629,24.629,0,0,1,48.372,82.916,24.631,24.631,0,1,0,82.917,48.371Zm0,0" transform="translate(-42.289 -42.288)" fill="#b4d2d7"/>
      <path id="Trazado_1298659" data-name="Trazado 1298659" d="M147.7,70.181a9.372,9.372,0,1,1-9.372-9.372A9.372,9.372,0,0,1,147.7,70.181Zm0,0" transform="translate(-112.738 -53.162)" fill="#fed2a4"/>
      <path id="Trazado_1298660" data-name="Trazado 1298660" d="M93.417,242.668H82.331a11.086,11.086,0,0,0-11.086,11.086v2.161a24.628,24.628,0,0,0,33.257,0v-2.161a11.085,11.085,0,0,0-11.086-11.086Zm0,0" transform="translate(-62.286 -212.153)" fill="#fed2a4"/>
      <path id="Trazado_1298661" data-name="Trazado 1298661" d="M83.41,296.351a24.516,24.516,0,0,1-12.163-3.215v1.219a24.628,24.628,0,0,0,33.257,0v-2.161a11.029,11.029,0,0,0-1.495-5.557,24.594,24.594,0,0,1-19.6,9.714Zm0,0" transform="translate(-62.287 -250.594)" fill="#ffbd86"/>
      <path id="Trazado_1298662" data-name="Trazado 1298662" d="M327.851,262.637a12.7,12.7,0,1,1-12.7-12.7A12.7,12.7,0,0,1,327.851,262.637Zm0,0" transform="translate(-264.421 -218.509)" fill="#7af4ab"/>
      <path id="Trazado_1298663" data-name="Trazado 1298663" d="M344.643,274.223a12.7,12.7,0,0,1-17.9,17.9,12.7,12.7,0,1,0,17.9-17.9Zm0,0" transform="translate(-285.652 -239.741)" fill="#6ad394"/>
      <path id="Trazado_1298664" data-name="Trazado 1298664" d="M357.332,295.165h-5.841v-5.841h-3.81v5.841H341.84v3.81h5.841v5.841h3.81v-5.841h5.841Zm0,0" transform="translate(-298.854 -252.943)" fill="#e1ebf0"/>
      <path id="Trazado_1298665" data-name="Trazado 1298665" d="M142.032,63.56a10.324,10.324,0,1,0-10.324,10.324A10.336,10.336,0,0,0,142.032,63.56Zm-18.744,0a8.42,8.42,0,1,1,8.42,8.42A8.43,8.43,0,0,1,123.287,63.56Zm0,0" transform="translate(-106.119 -46.541)"/>
      <path id="Trazado_1298666" data-name="Trazado 1298666" d="M61.549,35.8a.953.953,0,0,0-1.509,1.163,11.635,11.635,0,0,1,2.437,7.165,11.741,11.741,0,1,1-5.585-10,.952.952,0,0,0,1-1.621,13.623,13.623,0,0,0-7.162-2.027h-.026A25.589,25.589,0,0,0,8.988,6.115a.952.952,0,0,0,1.236,1.449A23.69,23.69,0,0,1,48.734,30.623a13.629,13.629,0,0,0-7.792,4,12.065,12.065,0,0,0-9.81-5.062H20.046A12.051,12.051,0,0,0,8.01,41.44,23.66,23.66,0,0,1,7.2,10.667a.952.952,0,1,0-1.478-1.2A25.591,25.591,0,0,0,37.683,48.141a13.652,13.652,0,0,0,26.7-4.013A13.526,13.526,0,0,0,61.549,35.8ZM25.588,49.27A23.584,23.584,0,0,1,9.912,43.323V41.6A10.145,10.145,0,0,1,20.045,31.467H31.131a10.155,10.155,0,0,1,8.536,4.674,13.65,13.65,0,0,0-2.428,10.067,23.659,23.659,0,0,1-11.65,3.062Zm0,0" transform="translate(0)"/>
      <path id="Trazado_1298667" data-name="Trazado 1298667" d="M345.821,282.7a.952.952,0,0,0-.952-.952h-3.81a.952.952,0,0,0-.952.952v4.889h-4.889a.952.952,0,0,0-.952.952v3.81a.952.952,0,0,0,.952.952h4.889v4.889a.952.952,0,0,0,.952.952h3.81a.952.952,0,0,0,.952-.952v-4.889h4.889a.952.952,0,0,0,.952-.952v-3.81a.952.952,0,0,0-.952-.952h-4.889Zm3.937,6.794v1.9h-4.889a.952.952,0,0,0-.952.952v4.889h-1.9v-4.889a.952.952,0,0,0-.952-.952H336.17v-1.9h4.889a.952.952,0,0,0,.952-.952v-4.889h1.9v4.889a.952.952,0,0,0,.952.952Zm0,0" transform="translate(-292.232 -246.321)"/>
    </g>
  </g>
</svg>
