<svg xmlns="http://www.w3.org/2000/svg" xmlns:xlink="http://www.w3.org/1999/xlink" width="106.16" height="106.16" viewBox="0 0 106.16 106.16">
  <defs>
    <filter id="Trazado_982547" x="0" y="0" width="106.16" height="106.16" filterUnits="userSpaceOnUse">
      <feOffset dy="3" input="SourceAlpha"/>
      <feGaussianBlur stdDeviation="3" result="blur"/>
      <feFlood flood-opacity="0.161"/>
      <feComposite operator="in" in2="blur"/>
      <feComposite in="SourceGraphic"/>
    </filter>
  </defs>
  <g id="Grupo_1242183" data-name="Grupo 1242183" transform="translate(-190.42 -9239.82)">
    <g id="Grupo_1241246" data-name="Grupo 1241246" transform="translate(0 8114.82)">
      <g id="Grupo_1235128" data-name="Grupo 1235128" transform="translate(199.42 1131)">
        <g id="Grupo_1233884" data-name="Grupo 1233884" transform="translate(0 0)">
          <g id="Grupo_1228506" data-name="Grupo 1228506" transform="translate(0 0)">
            <g id="Grupo_1206132" data-name="Grupo 1206132" transform="translate(0 0)">
              <g id="Grupo_1203794" data-name="Grupo 1203794">
                <g id="Grupo_1203345" data-name="Grupo 1203345">
                  <g id="Grupo_1177900" data-name="Grupo 1177900">
                    <g id="Grupo_1172010" data-name="Grupo 1172010">
                      <g id="Grupo_1171046" data-name="Grupo 1171046">
                        <g id="Grupo_1148525" data-name="Grupo 1148525">
                          <g transform="matrix(1, 0, 0, 1, -9, -6)" filter="url(#Trazado_982547)">
                            <g id="Trazado_982547-2" data-name="Trazado 982547" transform="translate(9 6)" fill="#e9f9fd">
                              <path d="M 44.0802001953125 86.660400390625 C 38.33124923706055 86.660400390625 32.75506210327148 85.53479766845703 27.50652503967285 83.31484985351562 C 22.43628692626953 81.17032623291016 17.88242530822754 78.09992218017578 13.97144985198975 74.18894958496094 C 10.06047534942627 70.27797698974609 6.99007511138916 65.72411346435547 4.845550060272217 60.65387344360352 C 2.625600099563599 55.40533828735352 1.500000238418579 49.82915115356445 1.500000238418579 44.0802001953125 C 1.500000238418579 38.33124923706055 2.625600099563599 32.75506210327148 4.845550060272217 27.50652503967285 C 6.99007511138916 22.43628692626953 10.06047534942627 17.88242530822754 13.97144985198975 13.97144985198975 C 17.88242530822754 10.06047534942627 22.43628692626953 6.99007511138916 27.50652503967285 4.845550060272217 C 32.75506210327148 2.625600099563599 38.33124923706055 1.500000238418579 44.0802001953125 1.500000238418579 C 49.82915115356445 1.500000238418579 55.40533828735352 2.625600099563599 60.65387344360352 4.845550060272217 C 65.72411346435547 6.99007511138916 70.27797698974609 10.06047534942627 74.18894958496094 13.97144985198975 C 78.09992218017578 17.88242530822754 81.17032623291016 22.43628692626953 83.31484985351562 27.50652503967285 C 85.53479766845703 32.75506210327148 86.660400390625 38.33124923706055 86.660400390625 44.0802001953125 C 86.660400390625 49.82915115356445 85.53479766845703 55.40533828735352 83.31484985351562 60.65387344360352 C 81.17032623291016 65.72411346435547 78.09992218017578 70.27797698974609 74.18894958496094 74.18894958496094 C 70.27797698974609 78.09992218017578 65.72411346435547 81.17032623291016 60.65387344360352 83.31484985351562 C 55.40533828735352 85.53479766845703 49.82915115356445 86.660400390625 44.0802001953125 86.660400390625 Z" stroke="none"/>
                              <path d="M 44.0802001953125 3 C 38.53308486938477 3 33.15349960327148 4.085746765136719 28.09085845947266 6.227058410644531 C 23.19941711425781 8.29595947265625 18.80581665039062 11.25841522216797 15.03211212158203 15.03211212158203 C 11.25841522216797 18.80581665039062 8.29595947265625 23.19941711425781 6.227058410644531 28.09085845947266 C 4.085746765136719 33.15349960327148 3 38.53308486938477 3 44.0802001953125 C 3 49.62731552124023 4.085746765136719 55.00691604614258 6.227058410644531 60.06954193115234 C 8.29595947265625 64.96098327636719 11.25841522216797 69.35458374023438 15.03211212158203 73.12828826904297 C 18.80581665039062 76.90198516845703 23.19941711425781 79.86444091796875 28.09085845947266 81.93334197998047 C 33.15349960327148 84.07466125488281 38.53308486938477 85.160400390625 44.0802001953125 85.160400390625 C 49.62731552124023 85.160400390625 55.00691604614258 84.07466125488281 60.06954193115234 81.93334197998047 C 64.96099853515625 79.86444091796875 69.35458374023438 76.90198516845703 73.12828826904297 73.12828826904297 C 76.90198516845703 69.35458374023438 79.86444091796875 64.96099853515625 81.93334197998047 60.06954193115234 C 84.07466125488281 55.00691604614258 85.160400390625 49.62731552124023 85.160400390625 44.0802001953125 C 85.160400390625 38.53308486938477 84.07466125488281 33.15349960327148 81.93334197998047 28.09085845947266 C 79.86444091796875 23.19941711425781 76.90198516845703 18.80581665039062 73.12828826904297 15.03211212158203 C 69.35458374023438 11.25841522216797 64.96098327636719 8.29595947265625 60.06954193115234 6.227058410644531 C 55.00691604614258 4.085746765136719 49.62731552124023 3 44.0802001953125 3 M 44.0802001953125 0 C 68.42502593994141 0 88.160400390625 19.73538970947266 88.160400390625 44.0802001953125 C 88.160400390625 68.42502593994141 68.42502593994141 88.160400390625 44.0802001953125 88.160400390625 C 19.73538970947266 88.160400390625 0 68.42502593994141 0 44.0802001953125 C 0 19.73538970947266 19.73538970947266 0 44.0802001953125 0 Z" stroke="none" fill="#1d7083"/>
                            </g>
                          </g>
                        </g>
                      </g>
                    </g>
                  </g>
                </g>
              </g>
            </g>
          </g>
        </g>
      </g>
    </g>
    <g id="Layer_22" data-name="Layer 22" transform="translate(212 9256)">
      <path id="Trazado_1298668" data-name="Trazado 1298668" d="M9,13H55a4,4,0,0,1,4,4V49H5V17a4,4,0,0,1,4-4Z" fill="#98deea"/>
      <rect id="Rect치ngulo_423334" data-name="Rect치ngulo 423334" width="26" height="18" rx="2" transform="translate(25 25)" fill="#82d0d8"/>
      <path id="Trazado_1298669" data-name="Trazado 1298669" d="M5,47H59v2H5Z" fill="#82d0d8"/>
      <path id="Trazado_1298670" data-name="Trazado 1298670" d="M1,49H63v2a4,4,0,0,1-4,4H5a4,4,0,0,1-4-4Z" fill="#7a838b"/>
      <path id="Trazado_1298671" data-name="Trazado 1298671" d="M4,51V49H1v2a4,4,0,0,0,4,4H8A4,4,0,0,1,4,51Z" fill="#5d6972"/>
      <path id="Trazado_1298672" data-name="Trazado 1298672" d="M25,49H39v1a2,2,0,0,1-2,2H27a2,2,0,0,1-2-2Z" fill="#5d6972"/>
      <rect id="Rect치ngulo_423335" data-name="Rect치ngulo 423335" width="26" height="18" rx="2" transform="translate(27 23)" fill="#faaf42"/>
      <path id="Trazado_1298673" data-name="Trazado 1298673" d="M40,30,27.64,40.459A1.988,1.988,0,0,0,29,41H51a1.988,1.988,0,0,0,1.36-.541Z" fill="#f8c460"/>
      <path id="Trazado_1298674" data-name="Trazado 1298674" d="M40,36l3.545-3L40,30l-3.545,3Z" fill="#faaf42"/>
      <path id="Trazado_1298675" data-name="Trazado 1298675" d="M40,34,52.36,23.541A1.988,1.988,0,0,0,51,23H29a1.988,1.988,0,0,0-1.36.541Z" fill="#f8c460"/>
      <path id="Trazado_1298676" data-name="Trazado 1298676" d="M63,48H60V17a5.006,5.006,0,0,0-5-5H9a5.006,5.006,0,0,0-5,5V48H1a1,1,0,0,0-1,1v2a5.006,5.006,0,0,0,5,5H59a5.006,5.006,0,0,0,5-5V49A1,1,0,0,0,63,48ZM6,17a3,3,0,0,1,3-3H55a3,3,0,0,1,3,3V48H6ZM38,50a1,1,0,0,1-1,1H27a1,1,0,0,1-1-1Zm24,1a3,3,0,0,1-3,3H5a3,3,0,0,1-3-3V50H24a3,3,0,0,0,3,3H37a3,3,0,0,0,3-3H62Z"/>
      <path id="Trazado_1298677" data-name="Trazado 1298677" d="M23,27H15a1,1,0,0,0,0,2h8a1,1,0,0,0,0-2Z"/>
      <path id="Trazado_1298678" data-name="Trazado 1298678" d="M23,31H13a1,1,0,0,0,0,2H23a1,1,0,0,0,0-2Z"/>
      <path id="Trazado_1298679" data-name="Trazado 1298679" d="M23,35H11a1,1,0,0,0,0,2H23a1,1,0,0,0,0-2Z"/>
      <path id="Trazado_1298680" data-name="Trazado 1298680" d="M29,42H51a3,3,0,0,0,3-3V25a3,3,0,0,0-3-3H29a3,3,0,0,0-3,3V39A3,3,0,0,0,29,42Zm10.354-7.236a1,1,0,0,0,1.292,0L52,25.156V38.844l-5.354-4.531a1,1,0,0,0-1.292,1.528L50.27,40H29.73l5.006-4.236a1,1,0,1,0-1.291-1.528L28,38.844V25.156ZM29.73,24H50.27L40,32.69Z"/>
    </g>
  </g>
</svg>
