<svg xmlns="http://www.w3.org/2000/svg" xmlns:xlink="http://www.w3.org/1999/xlink" width="106.16" height="106.16" viewBox="0 0 106.16 106.16">
  <defs>
    <filter id="Trazado_982547" x="0" y="0" width="106.16" height="106.16" filterUnits="userSpaceOnUse">
      <feOffset dy="3" input="SourceAlpha"/>
      <feGaussianBlur stdDeviation="3" result="blur"/>
      <feFlood flood-opacity="0.161"/>
      <feComposite operator="in" in2="blur"/>
      <feComposite in="SourceGraphic"/>
    </filter>
  </defs>
  <g id="Grupo_1242184" data-name="Grupo 1242184" transform="translate(-610.42 -9239.82)">
    <g id="Grupo_1241247" data-name="Grupo 1241247" transform="translate(420 8114.82)">
      <g id="Grupo_1235128" data-name="Grupo 1235128" transform="translate(199.42 1131)">
        <g id="Grupo_1233884" data-name="Grupo 1233884" transform="translate(0 0)">
          <g id="Grupo_1228506" data-name="Grupo 1228506" transform="translate(0 0)">
            <g id="Grupo_1206132" data-name="Grupo 1206132" transform="translate(0 0)">
              <g id="Grupo_1203794" data-name="Grupo 1203794">
                <g id="Grupo_1203345" data-name="Grupo 1203345">
                  <g id="Grupo_1177900" data-name="Grupo 1177900">
                    <g id="Grupo_1172010" data-name="Grupo 1172010">
                      <g id="Grupo_1171046" data-name="Grupo 1171046">
                        <g id="Grupo_1148525" data-name="Grupo 1148525">
                          <g transform="matrix(1, 0, 0, 1, -9, -6)" filter="url(#Trazado_982547)">
                            <g id="Trazado_982547-2" data-name="Trazado 982547" transform="translate(9 6)" fill="#e9f9fd">
                              <path d="M 44.0802001953125 86.660400390625 C 38.33124923706055 86.660400390625 32.75506210327148 85.53479766845703 27.50652503967285 83.31484985351562 C 22.43628692626953 81.17032623291016 17.88242530822754 78.09992218017578 13.97144985198975 74.18894958496094 C 10.06047534942627 70.27797698974609 6.99007511138916 65.72411346435547 4.845550060272217 60.65387344360352 C 2.625600099563599 55.40533828735352 1.500000238418579 49.82915115356445 1.500000238418579 44.0802001953125 C 1.500000238418579 38.33124923706055 2.625600099563599 32.75506210327148 4.845550060272217 27.50652503967285 C 6.99007511138916 22.43628692626953 10.06047534942627 17.88242530822754 13.97144985198975 13.97144985198975 C 17.88242530822754 10.06047534942627 22.43628692626953 6.99007511138916 27.50652503967285 4.845550060272217 C 32.75506210327148 2.625600099563599 38.33124923706055 1.500000238418579 44.0802001953125 1.500000238418579 C 49.82915115356445 1.500000238418579 55.40533828735352 2.625600099563599 60.65387344360352 4.845550060272217 C 65.72411346435547 6.99007511138916 70.27797698974609 10.06047534942627 74.18894958496094 13.97144985198975 C 78.09992218017578 17.88242530822754 81.17032623291016 22.43628692626953 83.31484985351562 27.50652503967285 C 85.53479766845703 32.75506210327148 86.660400390625 38.33124923706055 86.660400390625 44.0802001953125 C 86.660400390625 49.82915115356445 85.53479766845703 55.40533828735352 83.31484985351562 60.65387344360352 C 81.17032623291016 65.72411346435547 78.09992218017578 70.27797698974609 74.18894958496094 74.18894958496094 C 70.27797698974609 78.09992218017578 65.72411346435547 81.17032623291016 60.65387344360352 83.31484985351562 C 55.40533828735352 85.53479766845703 49.82915115356445 86.660400390625 44.0802001953125 86.660400390625 Z" stroke="none"/>
                              <path d="M 44.0802001953125 3 C 38.53308486938477 3 33.15349960327148 4.085746765136719 28.09085845947266 6.227058410644531 C 23.19941711425781 8.29595947265625 18.80581665039062 11.25841522216797 15.03211212158203 15.03211212158203 C 11.25841522216797 18.80581665039062 8.29595947265625 23.19941711425781 6.227058410644531 28.09085845947266 C 4.085746765136719 33.15349960327148 3 38.53308486938477 3 44.0802001953125 C 3 49.62731552124023 4.085746765136719 55.00691604614258 6.227058410644531 60.06954193115234 C 8.29595947265625 64.96098327636719 11.25841522216797 69.35458374023438 15.03211212158203 73.12828826904297 C 18.80581665039062 76.90198516845703 23.19941711425781 79.86444091796875 28.09085845947266 81.93334197998047 C 33.15349960327148 84.07466125488281 38.53308486938477 85.160400390625 44.0802001953125 85.160400390625 C 49.62731552124023 85.160400390625 55.00691604614258 84.07466125488281 60.06954193115234 81.93334197998047 C 64.96099853515625 79.86444091796875 69.35458374023438 76.90198516845703 73.12828826904297 73.12828826904297 C 76.90198516845703 69.35458374023438 79.86444091796875 64.96099853515625 81.93334197998047 60.06954193115234 C 84.07466125488281 55.00691604614258 85.160400390625 49.62731552124023 85.160400390625 44.0802001953125 C 85.160400390625 38.53308486938477 84.07466125488281 33.15349960327148 81.93334197998047 28.09085845947266 C 79.86444091796875 23.19941711425781 76.90198516845703 18.80581665039062 73.12828826904297 15.03211212158203 C 69.35458374023438 11.25841522216797 64.96098327636719 8.29595947265625 60.06954193115234 6.227058410644531 C 55.00691604614258 4.085746765136719 49.62731552124023 3 44.0802001953125 3 M 44.0802001953125 0 C 68.42502593994141 0 88.160400390625 19.73538970947266 88.160400390625 44.0802001953125 C 88.160400390625 68.42502593994141 68.42502593994141 88.160400390625 44.0802001953125 88.160400390625 C 19.73538970947266 88.160400390625 0 68.42502593994141 0 44.0802001953125 C 0 19.73538970947266 19.73538970947266 0 44.0802001953125 0 Z" stroke="none" fill="#1d7083"/>
                            </g>
                          </g>
                        </g>
                      </g>
                    </g>
                  </g>
                </g>
              </g>
            </g>
          </g>
        </g>
      </g>
    </g>
    <g id="proteger_12_" data-name="proteger (12)" transform="translate(613.104 9262.715)">
      <path id="Trazado_1298681" data-name="Trazado 1298681" d="M60.063,63.162,57.5,64.51a1.409,1.409,0,0,1-1.311,0l-2.564-1.348C39.542,55.761,30.871,42.1,30.871,27.327V18.3a1.4,1.4,0,0,1,1.243-1.4c4.854-.512,8.712-3.987,9.327-8.381a1.417,1.417,0,0,1,1.4-1.233H70.847a1.417,1.417,0,0,1,1.4,1.233c.615,4.394,4.474,7.869,9.327,8.381a1.4,1.4,0,0,1,1.243,1.4v9.027C82.815,42.1,74.144,55.761,60.063,63.162Z" transform="translate(-6.446 -6.446)" fill="#e1e6e9"/>
      <path id="Trazado_1298682" data-name="Trazado 1298682" d="M277.7,16.9c-4.854-.512-8.712-3.987-9.327-8.381a1.417,1.417,0,0,0-1.4-1.233h-1.907c.275,6.093,4.616,10.414,9.313,10.909a1.4,1.4,0,0,1,1.243,1.4v9.027c0,14.778-8.671,28.435-22.752,35.836l-.3.156a1.407,1.407,0,0,0,1.05-.1l2.564-1.348c14.081-7.4,22.752-21.058,22.752-35.836V18.3A1.4,1.4,0,0,0,277.7,16.9Z" transform="translate(-202.579 -6.445)" fill="#cbcbcb"/>
      <path id="Trazado_1298683" data-name="Trazado 1298683" d="M87.556,89.4A40.345,40.345,0,0,1,72.2,75.45a34.953,34.953,0,0,1-5.533-18.737V51.59a1.809,1.809,0,0,1,1.14-1.683,15.877,15.877,0,0,0,8.538-7.847,1.8,1.8,0,0,1,1.632-1.023H99.04a1.8,1.8,0,0,1,1.632,1.023,15.877,15.877,0,0,0,8.538,7.847,1.809,1.809,0,0,1,1.14,1.683v5.124a34.953,34.953,0,0,1-5.533,18.737A40.347,40.347,0,0,1,89.457,89.4l-.106.056a1.814,1.814,0,0,1-1.688,0Z" transform="translate(-38.11 -36.302)" fill="#4ad194"/>
      <path id="Trazado_1298684" data-name="Trazado 1298684" d="M276.7,49.905l-.089-.036-.148-.06-.25-.106-.144-.063-.265-.121-.12-.055q-.19-.09-.377-.184l-.028-.015q-.173-.088-.343-.18l-.12-.066c-.083-.045-.165-.091-.247-.138l-.135-.078-.23-.137-.132-.081c-.08-.049-.159-.1-.237-.15l-.115-.074q-.161-.106-.32-.215l-.024-.016q-.17-.118-.336-.239l-.1-.077c-.076-.057-.152-.114-.227-.171l-.12-.094-.207-.165-.119-.1q-.105-.087-.209-.176l-.106-.091q-.128-.112-.253-.226l-.052-.047q-.151-.138-.3-.28l-.084-.082q-.1-.1-.207-.206l-.1-.107q-.092-.095-.181-.191l-.1-.113q-.09-.1-.178-.2l-.1-.108c-.069-.079-.136-.16-.2-.24l-.059-.07q-.129-.157-.253-.317l-.063-.082q-.092-.12-.182-.242l-.085-.117q-.077-.107-.153-.215l-.087-.126q-.074-.109-.146-.219l-.08-.122c-.053-.083-.106-.167-.158-.251l-.057-.093q-.1-.173-.2-.349l-.041-.075q-.078-.139-.154-.28l-.065-.125q-.062-.118-.121-.238l-.067-.137c-.017-.035-.034-.069-.051-.1a1.8,1.8,0,0,0-1.632-1.023H256V89.662a1.813,1.813,0,0,0,.844-.208l.106-.056a40.345,40.345,0,0,0,15.359-13.949,34.953,34.953,0,0,0,5.533-18.737V51.589A1.808,1.808,0,0,0,276.7,49.905Z" transform="translate(-205.604 -36.301)" fill="#35b79e"/>
      <path id="Trazado_1298685" data-name="Trazado 1298685" d="M276.7,49.905l-.089-.036-.148-.06-.25-.106-.144-.063-.265-.121-.12-.055q-.19-.09-.377-.184l-.028-.015q-.173-.088-.343-.18l-.12-.066c-.083-.045-.165-.091-.247-.138l-.135-.078-.23-.137-.132-.081c-.08-.049-.159-.1-.237-.15l-.115-.074q-.161-.106-.32-.215l-.024-.016q-.17-.118-.336-.239l-.1-.077q-.114-.085-.228-.171l-.12-.094-.207-.165-.119-.1q-.105-.087-.209-.176l-.106-.091q-.128-.112-.253-.226l-.052-.047q-.151-.138-.3-.28l-.084-.082c-.069-.068-.139-.137-.207-.206l-.1-.107q-.092-.095-.181-.191l-.1-.113q-.09-.1-.178-.2l-.1-.108c-.069-.079-.136-.16-.2-.24l-.059-.07q-.129-.157-.253-.317l-.063-.082q-.092-.12-.182-.242l-.085-.117q-.077-.107-.153-.215l-.087-.126q-.074-.109-.146-.219l-.08-.122c-.054-.083-.106-.167-.158-.251l-.057-.093q-.1-.173-.2-.349l-.041-.075q-.078-.139-.154-.28l-.065-.125c-.041-.079-.082-.158-.121-.238l-.067-.137c-.017-.035-.035-.069-.051-.1a1.8,1.8,0,0,0-1.632-1.023h-2.915a16.18,16.18,0,0,1,1.281,1.933c.019.033.034.069.051.1l.067.137q.06.119.121.238l.065.125q.075.141.154.28l.041.075q.1.176.2.349l.057.093c.052.084.1.168.158.251l.08.122q.072.11.146.219l.087.126q.075.108.153.215l.085.117c.06.081.121.162.182.242l.063.082q.125.16.253.317l.059.07q.1.121.2.24l.1.108q.088.1.178.2l.1.113q.09.1.181.191l.1.107q.1.1.207.206l.084.082q.147.142.3.28l.052.047q.125.114.253.226l.106.091q.1.089.209.176l.119.1.207.165.12.094q.113.087.228.171l.1.077q.167.122.337.239l.024.016q.158.109.32.215l.115.074.237.15.132.081.23.137.135.078.247.138.12.066q.17.092.343.18l.028.015q.187.094.377.184l.12.055c.088.041.176.081.265.121l.144.063.25.106.148.06.089.036a1.809,1.809,0,0,1,1.14,1.683v5.124a34.953,34.953,0,0,1-5.533,18.737A43.048,43.048,0,0,1,256,89.614v.048a1.813,1.813,0,0,0,.844-.208l.106-.056a40.345,40.345,0,0,0,15.359-13.949,34.953,34.953,0,0,0,5.533-18.737V51.589A1.809,1.809,0,0,0,276.7,49.905Z" transform="translate(-205.604 -36.301)" fill="#1e9690"/>
      <path id="Trazado_1298686" data-name="Trazado 1298686" d="M178.239,204.853H159.047a1.833,1.833,0,0,1-1.833-1.833V190.985a1.833,1.833,0,0,1,1.833-1.833h19.192a1.833,1.833,0,0,1,1.833,1.833v12.036A1.833,1.833,0,0,1,178.239,204.853Z" transform="translate(-118.214 -167.331)" fill="#636a75"/>
      <path id="Trazado_1298687" data-name="Trazado 1298687" d="M314.013,189.152H310.7a1.833,1.833,0,0,1,1.833,1.833v12.036a1.833,1.833,0,0,1-1.833,1.833h3.318a1.833,1.833,0,0,0,1.833-1.833V190.985A1.833,1.833,0,0,0,314.013,189.152Z" transform="translate(-253.989 -167.331)" fill="#515a66"/>
      <path id="Trazado_1298688" data-name="Trazado 1298688" d="M240.342,236V238.4a.841.841,0,0,0,1.681,0V236a1.969,1.969,0,1,0-1.681,0Z" transform="translate(-190.754 -205.461)"/>
      <path id="Trazado_1298689" data-name="Trazado 1298689" d="M80.721,83.7h0l.106.056a2.655,2.655,0,0,0,2.47,0L83.4,83.7A41.187,41.187,0,0,0,99.081,69.454a35.792,35.792,0,0,0,5.664-19.187V45.143a2.634,2.634,0,0,0-1.671-2.465,14.948,14.948,0,0,1-8.088-7.426,2.657,2.657,0,0,0-2.391-1.5H71.529a2.656,2.656,0,0,0-2.391,1.5,14.948,14.948,0,0,1-8.088,7.426,2.634,2.634,0,0,0-1.671,2.465v5.124a35.791,35.791,0,0,0,5.664,19.187A41.185,41.185,0,0,0,80.721,83.7ZM61.06,50.267V45.143a.962.962,0,0,1,.608-.9,16.622,16.622,0,0,0,8.988-8.267.967.967,0,0,1,.873-.544H92.595a.967.967,0,0,1,.873.544,16.624,16.624,0,0,0,8.988,8.268.962.962,0,0,1,.608.9v5.124a34.114,34.114,0,0,1-5.4,18.286,39.506,39.506,0,0,1-15.04,13.655l-.106.056a.973.973,0,0,1-.906,0l-.106-.056A39.505,39.505,0,0,1,66.462,68.553,34.114,34.114,0,0,1,61.06,50.267Z" transform="translate(-31.666 -29.856)"/>
      <path id="Trazado_1298690" data-name="Trazado 1298690" d="M82.677,245.555a.84.84,0,0,0-1.005.635c-2.56,11.326-10.357,21.149-21.393,26.949l-2.564,1.348a.569.569,0,0,1-.529,0l-2.564-1.348c-11.053-5.809-18.854-15.649-21.4-27a.841.841,0,0,0-1.64.368c2.658,11.828,10.771,22.076,22.261,28.115l2.564,1.348a2.249,2.249,0,0,0,2.093,0l2.564-1.348c11.472-6.03,19.582-16.259,22.25-28.066A.841.841,0,0,0,82.677,245.555Z" transform="translate(-7.053 -217.167)"/>
      <path id="Trazado_1298691" data-name="Trazado 1298691" d="M75.214,9.619c-4.489-.474-8.018-3.624-8.583-7.662A2.27,2.27,0,0,0,64.4,0H36.392a2.27,2.27,0,0,0-2.23,1.957c-.565,4.038-4.095,7.188-8.583,7.662a2.235,2.235,0,0,0-2,2.235V20.88a38.7,38.7,0,0,0,.2,3.942.841.841,0,0,0,.835.755.851.851,0,0,0,.087,0,.84.84,0,0,0,.75-.922,37.019,37.019,0,0,1-.193-3.77V11.854a.564.564,0,0,1,.49-.563c5.258-.555,9.4-4.3,10.072-9.1a.575.575,0,0,1,.565-.509H64.4a.575.575,0,0,1,.565.509c.672,4.8,4.814,8.546,10.072,9.1a.564.564,0,0,1,.49.563V20.88a37.033,37.033,0,0,1-.189,3.731.841.841,0,0,0,1.673.17,38.705,38.705,0,0,0,.2-3.9V11.854A2.234,2.234,0,0,0,75.214,9.619Z" transform="translate(0)"/>
      <path id="Trazado_1298692" data-name="Trazado 1298692" d="M171.792,105.494a2.677,2.677,0,0,0,2.673-2.673V90.785a2.676,2.676,0,0,0-2.673-2.673H170.41V84.1a8.214,8.214,0,0,0-16.428,0v4.013H152.6a2.676,2.676,0,0,0-2.673,2.673v12.036a2.676,2.676,0,0,0,2.673,2.673ZM155.664,84.1a6.533,6.533,0,0,1,13.065,0v4.013H155.664Zm-4.056,18.722V90.785a.993.993,0,0,1,.992-.992h19.192a.993.993,0,0,1,.992.992v12.036a.993.993,0,0,1-.992.992H152.6A.993.993,0,0,1,151.608,102.821Z" transform="translate(-111.768 -67.131)"/>
    </g>
  </g>
</svg>
