<svg xmlns="http://www.w3.org/2000/svg" xmlns:xlink="http://www.w3.org/1999/xlink" width="103" height="103" viewBox="0 0 103 103">
  <defs>
    <filter id="Trazado_982547" x="0" y="0" width="103" height="103" filterUnits="userSpaceOnUse">
      <feOffset dy="3" input="SourceAlpha"/>
      <feGaussianBlur stdDeviation="3" result="blur"/>
      <feFlood flood-opacity="0.161"/>
      <feComposite operator="in" in2="blur"/>
      <feComposite in="SourceGraphic"/>
    </filter>
  </defs>
  <g id="Grupo_1242060" data-name="Grupo 1242060" transform="translate(-171 -1017)">
    <g id="Grupo_1235664" data-name="Grupo 1235664" transform="translate(0 -3726.165)">
      <g id="Grupo_1173169" data-name="Grupo 1173169" transform="translate(180 4749.165)">
        <g id="Grupo_1172017" data-name="Grupo 1172017">
          <g id="Grupo_1167337" data-name="Grupo 1167337">
            <g id="Grupo_1166720" data-name="Grupo 1166720">
              <g id="Grupo_1164305" data-name="Grupo 1164305">
                <g id="Grupo_1163948" data-name="Grupo 1163948">
                  <g id="Grupo_1158168" data-name="Grupo 1158168">
                    <g id="Grupo_1152576" data-name="Grupo 1152576">
                      <g id="Grupo_1148633" data-name="Grupo 1148633">
                        <g id="Grupo_1148525" data-name="Grupo 1148525">
                          <g transform="matrix(1, 0, 0, 1, -9, -6)" filter="url(#Trazado_982547)">
                            <g id="Trazado_982547-2" data-name="Trazado 982547" transform="translate(9 6)" fill="#fbfbf9">
                              <path d="M 42.5 83.5 C 36.96437835693359 83.5 31.59512901306152 82.41617584228516 26.54141235351562 80.27863311767578 C 21.65934181213379 78.21369171142578 17.27448272705078 75.25723266601562 13.50862312316895 71.49137878417969 C 9.742776870727539 67.72553253173828 6.786305904388428 63.34066009521484 4.721364498138428 58.45858764648438 C 2.583823442459106 53.40486907958984 1.5 48.03562164306641 1.5 42.5 C 1.5 36.96437835693359 2.583823442459106 31.59512901306152 4.721364498138428 26.54141235351562 C 6.786305904388428 21.65934181213379 9.742776870727539 17.27448272705078 13.50862312316895 13.50862312316895 C 17.27448272705078 9.742776870727539 21.65934181213379 6.786305904388428 26.54141235351562 4.721364498138428 C 31.59512901306152 2.583823442459106 36.96437835693359 1.5 42.5 1.5 C 48.03562164306641 1.5 53.40486907958984 2.583823442459106 58.45858764648438 4.721364498138428 C 63.34066009521484 6.786305904388428 67.72553253173828 9.742776870727539 71.49137878417969 13.50862312316895 C 75.25723266601562 17.27448272705078 78.21369171142578 21.65934181213379 80.27863311767578 26.54141235351562 C 82.41617584228516 31.59512901306152 83.5 36.96437835693359 83.5 42.5 C 83.5 48.03562164306641 82.41617584228516 53.40486907958984 80.27863311767578 58.45858764648438 C 78.21369171142578 63.34066009521484 75.25723266601562 67.72553253173828 71.49137878417969 71.49137878417969 C 67.72553253173828 75.25723266601562 63.34066009521484 78.21369171142578 58.45858764648438 80.27863311767578 C 53.40486907958984 82.41617584228516 48.03562164306641 83.5 42.5 83.5 Z" stroke="none"/>
                              <path d="M 42.5 3 C 37.16621398925781 3 31.99356079101562 4.043960571289062 27.125732421875 6.102882385253906 C 22.42246627807617 8.092185974121094 18.19785308837891 10.94070434570312 14.56928253173828 14.56928253173828 C 10.94070434570312 18.19785308837891 8.092185974121094 22.42246627807617 6.102882385253906 27.125732421875 C 4.043960571289062 31.99356079101562 3 37.16621398925781 3 42.5 C 3 47.83378601074219 4.043960571289062 53.00643920898438 6.102882385253906 57.874267578125 C 8.092185974121094 62.57753372192383 10.94070434570312 66.80214691162109 14.56928253173828 70.43071746826172 C 18.19785308837891 74.05929565429688 22.42246627807617 76.90781402587891 27.125732421875 78.89711761474609 C 31.99356079101562 80.95603942871094 37.16621398925781 82 42.5 82 C 47.83378601074219 82 53.00643920898438 80.95603942871094 57.874267578125 78.89711761474609 C 62.57753372192383 76.90781402587891 66.80214691162109 74.05929565429688 70.43071746826172 70.43071746826172 C 74.05929565429688 66.80214691162109 76.90781402587891 62.57753372192383 78.89711761474609 57.874267578125 C 80.95603942871094 53.00643920898438 82 47.83378601074219 82 42.5 C 82 37.16621398925781 80.95603942871094 31.99356079101562 78.89711761474609 27.125732421875 C 76.90781402587891 22.42246627807617 74.05929565429688 18.19785308837891 70.43071746826172 14.56928253173828 C 66.80214691162109 10.94070434570312 62.57753372192383 8.092185974121094 57.874267578125 6.102882385253906 C 53.00643920898438 4.043960571289062 47.83378601074219 3 42.5 3 M 42.5 0 C 65.97210693359375 0 85 19.02789306640625 85 42.5 C 85 65.97210693359375 65.97210693359375 85 42.5 85 C 19.02789306640625 85 0 65.97210693359375 0 42.5 C 0 19.02789306640625 19.02789306640625 0 42.5 0 Z" stroke="none" fill="#7b776f"/>
                            </g>
                          </g>
                        </g>
                      </g>
                    </g>
                  </g>
                </g>
              </g>
            </g>
          </g>
        </g>
      </g>
    </g>
    <g id="proceso-de-trabajo_4_" data-name="proceso-de-trabajo (4)" transform="translate(192.357 1035.357)">
      <g id="Grupo_1242058" data-name="Grupo 1242058" transform="translate(0.942 0.942)">
        <path id="Trazado_1298239" data-name="Trazado 1298239" d="M56.8,10.414h0A26.79,26.79,0,0,0,30.148,34.5l7.072-.331A19.849,19.849,0,0,1,56.8,17.39l-.032.011v2.708l6.837-5.524L56.768,8v2.425" transform="translate(-27.54 -8)" fill="#ffe27a"/>
        <path id="Trazado_1298240" data-name="Trazado 1298240" d="M107.95,74.586l5.15-4.161a19.822,19.822,0,0,0-24.939,18.23l.241-.011a19.849,19.849,0,0,1,19.58-16.777l-.032.011Z" transform="translate(-78.722 -62.478)" fill="#f9cf58"/>
        <path id="Trazado_1298241" data-name="Trazado 1298241" d="M169.512,155.095l-2.24-.337a10.452,10.452,0,0,0-1.647-3.976l1.346-1.823a.8.8,0,0,0-.078-1.043l-1.16-1.16a.8.8,0,0,0-1.043-.078l-1.823,1.346a10.452,10.452,0,0,0-3.975-1.647l-.337-2.24a.8.8,0,0,0-.793-.682h-1.64a.8.8,0,0,0-.793.682l-.337,2.24a10.451,10.451,0,0,0-3.975,1.647L149.2,146.68a.8.8,0,0,0-1.043.078l-1.16,1.16a.8.8,0,0,0-.078,1.043l1.346,1.823a10.452,10.452,0,0,0-1.647,3.976l-2.24.337a.8.8,0,0,0-.682.793v1.64a.8.8,0,0,0,.682.793l2.24.337a10.452,10.452,0,0,0,1.647,3.976l-1.346,1.823a.8.8,0,0,0,.078,1.043l1.16,1.16a.8.8,0,0,0,1.043.078l1.823-1.346a10.452,10.452,0,0,0,3.975,1.647l.337,2.24a.8.8,0,0,0,.793.682h1.64a.8.8,0,0,0,.793-.682l.337-2.24a10.451,10.451,0,0,0,3.975-1.647l1.823,1.346a.8.8,0,0,0,1.043-.078l1.16-1.16a.8.8,0,0,0,.078-1.043l-1.346-1.823a10.452,10.452,0,0,0,1.647-3.976l2.24-.337a.8.8,0,0,0,.682-.793v-1.64A.8.8,0,0,0,169.512,155.095Zm-12.569,6.917a5.3,5.3,0,1,1,5.3-5.3A5.3,5.3,0,0,1,156.943,162.011Z" transform="translate(-127.715 -127.507)" fill="#ff4755"/>
        <path id="Trazado_1298242" data-name="Trazado 1298242" d="M10.442,204.537c0,.009,0,.018,0,.027a26.79,26.79,0,0,0,24.085,26.652l-.415-7.086a19.815,19.815,0,0,1-16.694-19.566c0-.009,0-.018,0-.027h2.691L14.584,197.7,8,204.537h2.425" transform="translate(-8 -175.364)" fill="#8bcaff"/>
        <path id="Trazado_1298243" data-name="Trazado 1298243" d="M204.537,295.591h.055A19.815,19.815,0,0,0,224.157,278.9l7.092-.482a26.789,26.789,0,0,1-26.657,24.147h-.055v2.415L197.7,298.4l6.837-5.524v2.708Z" transform="translate(-175.364 -246.58)" fill="#98db7c"/>
        <path id="Trazado_1298244" data-name="Trazado 1298244" d="M221.793,266.06a5.325,5.325,0,0,0-.106-1.06,5.305,5.305,0,0,1-10.4,0,5.3,5.3,0,1,0,10.5,1.06Z" transform="translate(-187.261 -234.74)" fill="#fc2b3a"/>
        <path id="Trazado_1298245" data-name="Trazado 1298245" d="M216.449,300.449a26.909,26.909,0,0,1-5.309-.527l5.255,5.06v-2.415h.055a26.789,26.789,0,0,0,26.657-24.147l-.365.379A26.794,26.794,0,0,1,216.449,300.449Z" transform="translate(-187.221 -246.581)" fill="#82d361"/>
        <path id="Trazado_1298246" data-name="Trazado 1298246" d="M50.21,279.936a26.8,26.8,0,0,1-21.4-24.168h-.082c0,.009,0,.018,0,.027a26.79,26.79,0,0,0,24.085,26.652Z" transform="translate(-26.292 -226.595)" fill="#6cc4ff"/>
        <path id="Trazado_1298247" data-name="Trazado 1298247" d="M302.809,56.286c0-.009,0-.018,0-.027A26.789,26.789,0,0,0,278.664,29.6l4.2,4.041-3.766,3.043a19.815,19.815,0,0,1,16.739,19.573c0,.009,0,.018,0,.027h-2.746l5.524,6.837,6.584-6.837Z" transform="translate(-246.795 -27.058)" fill="#ffba57"/>
        <g id="Grupo_1242057" data-name="Grupo 1242057" transform="translate(32.299 7.948)">
          <path id="Trazado_1298248" data-name="Trazado 1298248" d="M284.394,75.5l-2.078,1.679A19.817,19.817,0,0,1,299.027,95.7q.028-.529.029-1.065A19.818,19.818,0,0,0,284.394,75.5Z" transform="translate(-282.316 -75.501)" fill="#ffac3e"/>
        </g>
      </g>
      <g id="Grupo_1242059" data-name="Grupo 1242059" transform="translate(0 0)">
        <path id="Trazado_1298249" data-name="Trazado 1298249" d="M209.77,203.347a6.2,6.2,0,0,0-5.824,8.329.885.885,0,1,0,1.662-.608,4.43,4.43,0,1,1,1.879,2.276.885.885,0,0,0-.913,1.516,6.2,6.2,0,1,0,3.2-11.513Z" transform="translate(-179.602 -179.404)"/>
        <path id="Trazado_1298250" data-name="Trazado 1298250" d="M162.831,147.385l-1.641-.247a11.272,11.272,0,0,0-1.312-3.165l.986-1.335a1.678,1.678,0,0,0-.164-2.2l-1.162-1.162a1.678,1.678,0,0,0-2.2-.164l-1.335.986a11.267,11.267,0,0,0-3.165-1.312l-.247-1.641a1.678,1.678,0,0,0-1.669-1.437h-1.643a1.678,1.678,0,0,0-1.669,1.437l-.247,1.641A11.268,11.268,0,0,0,144.2,140.1l-1.335-.986a1.678,1.678,0,0,0-2.2.164l-1.162,1.162a1.678,1.678,0,0,0-.164,2.2l.986,1.335a11.26,11.26,0,0,0-1.311,3.165l-1.641.247a1.678,1.678,0,0,0-1.437,1.669V150.7a1.678,1.678,0,0,0,1.437,1.669l1.641.247a11.268,11.268,0,0,0,1.311,3.165l-.986,1.335a1.678,1.678,0,0,0,.164,2.2l1.162,1.162a1.678,1.678,0,0,0,2.2.164l1.335-.986a11.267,11.267,0,0,0,3.165,1.312l.247,1.641a1.678,1.678,0,0,0,1.669,1.437h1.643A1.678,1.678,0,0,0,152.6,162.6l.247-1.641a11.267,11.267,0,0,0,3.165-1.312l1.335.986a1.678,1.678,0,0,0,2.2-.164l1.162-1.162a1.678,1.678,0,0,0,.164-2.2l-.986-1.335a11.263,11.263,0,0,0,1.312-3.165l1.641-.247a1.678,1.678,0,0,0,1.437-1.669v-1.643a1.677,1.677,0,0,0-1.437-1.669Zm-.333,3.242-2.175.327a.884.884,0,0,0-.738.712,9.54,9.54,0,0,1-1.511,3.647.885.885,0,0,0,.019,1.025l1.307,1.77-1.062,1.062-1.77-1.307a.885.885,0,0,0-1.025-.019,9.539,9.539,0,0,1-3.647,1.511.885.885,0,0,0-.712.738l-.327,2.175h-1.5l-.327-2.175a.885.885,0,0,0-.712-.738,9.54,9.54,0,0,1-3.647-1.511.884.884,0,0,0-1.025.019l-1.77,1.307-1.062-1.062,1.307-1.77a.885.885,0,0,0,.019-1.025,9.538,9.538,0,0,1-1.511-3.647.885.885,0,0,0-.738-.712l-2.175-.327v-1.5l2.175-.327a.885.885,0,0,0,.738-.712,9.539,9.539,0,0,1,1.511-3.647.884.884,0,0,0-.019-1.025l-1.307-1.77,1.062-1.062,1.77,1.307a.885.885,0,0,0,1.025.019,9.542,9.542,0,0,1,3.647-1.512.885.885,0,0,0,.712-.738l.327-2.175h1.5l.327,2.175a.885.885,0,0,0,.712.738,9.538,9.538,0,0,1,3.647,1.512.885.885,0,0,0,1.025-.019l1.77-1.307,1.062,1.062-1.307,1.77a.885.885,0,0,0-.019,1.025,9.54,9.54,0,0,1,1.511,3.647.885.885,0,0,0,.738.712l2.175.327Z" transform="translate(-119.936 -119.734)"/>
        <path id="Trazado_1298251" data-name="Trazado 1298251" d="M60.214,29.823a.885.885,0,0,0-.814-.539H57.88a27.725,27.725,0,0,0-24.669-26.7L30.782.245a.891.891,0,0,0-1.5.637V2.43A27.528,27.528,0,0,0,14.21,7.468a.885.885,0,0,0,1.02,1.446A25.787,25.787,0,0,1,30.169,4.186a.885.885,0,0,0,.885-.885V2.963l4.63,4.459-4.63,3.741v-.872a.885.885,0,0,0-.885-.885,20.742,20.742,0,0,0-20.1,15.648l-1.9-2.347a.891.891,0,0,0-1.326-.058L4.764,24.808a25.923,25.923,0,0,1,7.8-13.742.885.885,0,1,0-1.2-1.3,27.669,27.669,0,0,0-8.75,17.272L.245,29.5A.891.891,0,0,0,.882,31H2.457A27.726,27.726,0,0,0,27.065,57.694L29.5,60.04A.89.89,0,0,0,31,59.4V57.856a27.511,27.511,0,0,0,15.316-5.173.885.885,0,1,0-1.032-1.438A25.776,25.776,0,0,1,30.158,56.1h-.044a.885.885,0,0,0-.885.885v.339L24.6,52.863l4.63-3.741v.871a.885.885,0,0,0,.879.885h.06a20.742,20.742,0,0,0,20.091-15.6l1.855,2.3a.89.89,0,0,0,1.326.058l2.147-2.229A25.938,25.938,0,0,1,47.93,49.068a.885.885,0,0,0,1.211,1.29,27.686,27.686,0,0,0,8.584-17.175l2.312-2.4a.884.884,0,0,0,.177-.96ZM22.707,52.116a.89.89,0,0,0-.058,1.326l2.187,2.106a25.963,25.963,0,0,1-20.623-25.4v-.03a.885.885,0,0,0-.885-.885H2.963L7.422,24.6l3.741,4.63h-.844a.882.882,0,0,0-.885.882v.03a20.742,20.742,0,0,0,15.6,20.093Zm19.835-7.6A18.956,18.956,0,0,1,31,49.09V47.269a.891.891,0,0,0-1.441-.688L26.8,48.809A18.971,18.971,0,0,1,11.222,31h1.793a.891.891,0,0,0,.688-1.441l-2.21-2.735A18.971,18.971,0,0,1,29.284,11.2v1.819a.891.891,0,0,0,1.441.688l2.768-2.236A18.971,18.971,0,0,1,49.115,29.285H47.267a.891.891,0,0,0-.688,1.441l2.254,2.79a18.975,18.975,0,0,1-6.291,11Zm10.319-8.831-3.741-4.63h.9a.882.882,0,0,0,.885-.882v-.03a20.742,20.742,0,0,0-15.643-20.1l2.315-1.87a.89.89,0,0,0,.058-1.326l-2.2-2.12A25.962,25.962,0,0,1,56.124,30.139v.03a.885.885,0,0,0,.885.885h.311Z" transform="translate(0 0)"/>
      </g>
    </g>
  </g>
</svg>
