<svg xmlns="http://www.w3.org/2000/svg" xmlns:xlink="http://www.w3.org/1999/xlink" width="400" height="232" viewBox="0 0 400 232">
  <defs>
    <clipPath id="clip-path">
      <rect id="Rectángulo_423217" data-name="Rectángulo 423217" width="400" height="232" transform="translate(180 1316)" fill="#fff" stroke="#707070" stroke-width="1" opacity="0.31"/>
    </clipPath>
    <clipPath id="clip-path-2">
      <rect id="Rectángulo_423219" data-name="Rectángulo 423219" width="462" height="308" transform="translate(-0.017 0.297)" fill="none"/>
    </clipPath>
    <clipPath id="clip-path-3">
      <rect id="Rectángulo_423220" data-name="Rectángulo 423220" width="4.885" height="2.275" fill="none"/>
    </clipPath>
    <clipPath id="clip-path-4">
      <rect id="Rectángulo_423221" data-name="Rectángulo 423221" width="4.141" height="2.276" fill="none"/>
    </clipPath>
  </defs>
  <g id="Grupo_1241309" data-name="Grupo 1241309" transform="translate(-180 -1319)">
    <rect id="Rectángulo_423234" data-name="Rectángulo 423234" width="302" height="125" transform="translate(233 1414)" fill="#c1f0fa"/>
    <g id="Enmascarar_grupo_1211530" data-name="Enmascarar grupo 1211530" transform="translate(0 3)" clip-path="url(#clip-path)">
      <g id="Grupo_1241308" data-name="Grupo 1241308" transform="translate(6163.017 -2084.064)">
        <g id="Grupo_1241298" data-name="Grupo 1241298" transform="translate(-6014 3358.767)" opacity="0">
          <g id="Grupo_1241297" data-name="Grupo 1241297" transform="translate(0 0)">
            <g id="Grupo_1241296" data-name="Grupo 1241296" clip-path="url(#clip-path-2)">
              <rect id="Rectángulo_423218" data-name="Rectángulo 423218" width="462" height="308" transform="translate(-0.017 0.297)" fill="#fff"/>
            </g>
          </g>
        </g>
        <path id="Trazado_1297127" data-name="Trazado 1297127" d="M3458.228,1901.273c2.588-2.3,3.5-5.919,4.023-9.342s.821-7.01,2.6-9.978c4.463-7.437,16.072-7.875,20.57-15.291,3.069-5.059,1.834-11.918,5.054-16.883,2.422-3.736,6.812-5.573,10.523-8.033a19.943,19.943,0,0,0,5.954-5.757,11.429,11.429,0,0,0,1.806-7.953c3.209,3.465,3.517,8.853,2.089,13.355s-4.306,8.372-6.962,12.278-5.193,8.1-5.774,12.789c-.554,4.466.673,9.285-1.307,13.326-2.57,5.245-9.561,7.105-12.237,12.3s-.149,12.065-3.166,17.081a13.132,13.132,0,0,1-5.983,4.835,11.425,11.425,0,0,1-6.827,1.221Z" transform="translate(-9130.896 1711.376)" fill="#4288d7"/>
        <path id="Trazado_1297128" data-name="Trazado 1297128" d="M3541.094,1979.025l-.265-.53c2.763-1.383,4.663-4.472,5.807-9.444.133-.579.261-1.178.386-1.756.7-3.282,1.433-6.675,3.559-9.306a21.2,21.2,0,0,1,5.4-4.3,25.618,25.618,0,0,0,4.516-3.342c3.767-3.773,4.62-9.364,5.444-14.771.8-5.261,1.632-10.7,5.1-14.66a27.12,27.12,0,0,1,5.171-4.241c.945-.653,1.923-1.327,2.829-2.048,1.854-1.476,4.92-4.511,4.625-8.254l.59-.047c.316,4.016-2.9,7.215-4.847,8.764-.921.733-1.907,1.414-2.861,2.072a26.671,26.671,0,0,0-5.062,4.143c-3.35,3.829-4.167,9.182-4.956,14.36-.839,5.5-1.706,11.189-5.61,15.1a26.055,26.055,0,0,1-4.619,3.424,20.764,20.764,0,0,0-5.255,4.175c-2.037,2.521-2.75,5.844-3.44,9.058-.125.58-.254,1.18-.388,1.764-1.186,5.155-3.187,8.374-6.119,9.841" transform="translate(-9205.345 1640.815)" fill="#2d6fab"/>
        <path id="Trazado_1297129" data-name="Trazado 1297129" d="M3527.231,2157.559a10.745,10.745,0,0,1,4.767-8.936c4.251-3.068,10.84-4.233,13.193-8.416,1.288-2.288.9-4.914,1.834-7.3,1.625-4.129,6.773-6.67,11.624-8.485s10.166-3.526,13.24-7.116c1.966-2.3,2.742-5.072,3.6-7.748s1.919-5.448,4.275-7.49,6.384-3.074,9.1-1.6c-5.85,3.611-7.276,10.294-6.678,16.078a10.215,10.215,0,0,1,.02,3.479,8.855,8.855,0,0,1-2.7,4.023c-5.362,5.151-13.559,8.2-17.9,13.93-2.328,3.073-3.315,6.634-4.278,10.114s-1.981,7.041-4.359,10.089a13.942,13.942,0,0,1-10.743,5.463,21.884,21.884,0,0,1-2.3-.2Z" transform="translate(-9193.08 1466.459)" fill="#2d6fab"/>
        <path id="Trazado_1297130" data-name="Trazado 1297130" d="M3617.677,2186.79l-.142-.575a19.4,19.4,0,0,0,10.3-6.739,32.281,32.281,0,0,0,5.161-10.115q.15-.442.3-.885a28.151,28.151,0,0,1,2.188-5.3c2.171-3.753,6.2-7.041,11.96-9.774.625-.3,1.276-.592,1.906-.877,3.38-1.533,6.874-3.118,8.637-5.819,1.386-2.123,1.443-4.6,1.5-7,.014-.581.027-1.182.06-1.769.129-2.323.912-6.48,4.71-8.222l.247.538c-3.516,1.613-4.244,5.527-4.366,7.717-.032.577-.046,1.173-.059,1.75-.057,2.48-.116,5.045-1.594,7.31-1.858,2.845-5.432,4.467-8.888,6.034-.627.285-1.276.579-1.9.873-5.655,2.68-9.592,5.888-11.7,9.534a27.715,27.715,0,0,0-2.138,5.194q-.148.444-.3.887a32.809,32.809,0,0,1-5.261,10.3,19.994,19.994,0,0,1-10.617,6.942" transform="translate(-9274.479 1439.474)" fill="#78d2f7"/>
        <path id="Trazado_1297131" data-name="Trazado 1297131" d="M3391.1,1973.909c2.112-1.434,2.922-4.6,2.628-7.216-.29-2.581-1.409-4.843-2.306-7.144-.89-2.283-1.579-4.818-.984-7.219.771-3.114,3.451-5.092,5.993-6.4,2.475-1.27,5.12-2.259,6.815-4.4,2.331-2.949,2.257-7.263,2.161-11.078-.094-3.717.054-7.723,2.428-9.864,2.8-2.528,7.9-1.6,9.6-4.786.983-1.844.468-4.622,1.806-6.033,1.592.807,2.231,2.992,2.219,4.72a10.226,10.226,0,0,1-2.281,6.531,33.822,33.822,0,0,0-2.867,3.165c-1.72,2.63-1.589,6.654-.27,10.2.657,1.767,1.6,3.524,1.689,5.4a8.69,8.69,0,0,1-2.518,5.987c-1.437,1.664-3.142,3.164-4.176,5.34-2.579,5.431,4.052,12.035,3.267,18.846-.625,5.425-4.564,15.01-8.678,18.115Z" transform="translate(-9069.601 1637.709)" fill="#78d2f7"/>
        <path id="Trazado_1297132" data-name="Trazado 1297132" d="M3483.1,2028.168l-.361-.469a12.439,12.439,0,0,0,4.414-8.241,24.162,24.162,0,0,0-.927-9.6c-.052-.194-.105-.39-.159-.587-.712-2.616-1.519-5.58-.281-8.1a11.075,11.075,0,0,1,2.732-3.182c.321-.29.653-.59.963-.892a16.583,16.583,0,0,0,4.907-13c-.071-.923-.218-1.889-.36-2.823-.424-2.778-.862-5.651.56-8.083a12.1,12.1,0,0,1,3.771-3.544c.313-.22.638-.448.948-.675,2.118-1.555,3.215-3.162,3.259-4.776l.592.016c-.05,1.805-1.228,3.567-3.5,5.236-.315.231-.642.461-.958.682a11.67,11.67,0,0,0-3.6,3.358c-1.316,2.251-.894,5.018-.486,7.694.144.945.293,1.921.365,2.867a17.183,17.183,0,0,1-5.084,13.467c-.318.31-.654.614-.979.907a10.632,10.632,0,0,0-2.6,3c-1.139,2.322-.4,5.049.321,7.687q.081.3.159.589a24.722,24.722,0,0,1,.941,9.829,13.034,13.034,0,0,1-4.64,8.631" transform="translate(-9152.991 1588.651)" fill="#2d6fab"/>
        <path id="Trazado_1297133" data-name="Trazado 1297133" d="M1131.752,718.07l2.346,4.658a28.33,28.33,0,0,0-7.777,9.021l-4.953-1.635a1.189,1.189,0,0,0-1.5.756l-2.533,7.675a1.189,1.189,0,0,0,.756,1.5l4.953,1.634a28.331,28.331,0,0,0,.88,11.878l-4.658,2.346a1.189,1.189,0,0,0-.527,1.6l3.636,7.218a1.189,1.189,0,0,0,1.6.527l4.658-2.346a28.332,28.332,0,0,0,9.021,7.777l-1.635,4.952a1.189,1.189,0,0,0,.756,1.5l7.675,2.533a1.189,1.189,0,0,0,1.5-.756l1.634-4.952a28.331,28.331,0,0,0,11.878-.88l2.346,4.658a1.189,1.189,0,0,0,1.6.527l7.218-3.636a1.189,1.189,0,0,0,.527-1.6l-2.346-4.658a28.332,28.332,0,0,0,7.777-9.021l4.953,1.634a1.188,1.188,0,0,0,1.5-.756l2.533-7.675a1.189,1.189,0,0,0-.756-1.5l-4.953-1.635a28.329,28.329,0,0,0-.88-11.878l4.658-2.346a1.189,1.189,0,0,0,.527-1.6l-3.636-7.218a1.189,1.189,0,0,0-1.6-.527l-4.658,2.346a28.329,28.329,0,0,0-9.021-7.777l1.634-4.952a1.189,1.189,0,0,0-.756-1.5l-7.675-2.533a1.189,1.189,0,0,0-1.5.756l-1.635,4.952a28.331,28.331,0,0,0-11.878.88l-2.346-4.658a1.189,1.189,0,0,0-1.6-.527l-7.218,3.636a1.189,1.189,0,0,0-.527,1.6m36.794,18.867a19.143,19.143,0,1,1-25.708-8.485,19.165,19.165,0,0,1,25.708,8.485" transform="translate(-7020.998 2717.823)" fill="#d3ab3b"/>
        <path id="Trazado_1297134" data-name="Trazado 1297134" d="M862.438,1228.409l1.972,2.443a17.057,17.057,0,0,0-3.431,6.3l-3.122-.333a.715.715,0,0,0-.787.636l-.516,4.838a.715.715,0,0,0,.636.787l3.122.333a17.054,17.054,0,0,0,2.026,6.878l-2.443,1.972a.715.715,0,0,0-.107,1.006l3.056,3.786a.715.715,0,0,0,1.006.107l2.443-1.972a17.054,17.054,0,0,0,6.3,3.431l-.333,3.122a.716.716,0,0,0,.636.787l4.838.516a.716.716,0,0,0,.787-.636l.333-3.122a17.058,17.058,0,0,0,6.878-2.026l1.972,2.443a.716.716,0,0,0,1.006.107l3.786-3.056a.715.715,0,0,0,.107-1.006l-1.972-2.443a17.056,17.056,0,0,0,3.431-6.3l3.122.333a.715.715,0,0,0,.787-.636l.516-4.838a.715.715,0,0,0-.635-.787l-3.122-.333a17.053,17.053,0,0,0-2.026-6.878l2.443-1.972a.716.716,0,0,0,.107-1.006l-3.056-3.786a.715.715,0,0,0-1.006-.107l-2.443,1.972a17.054,17.054,0,0,0-6.3-3.431l.333-3.122a.716.716,0,0,0-.636-.787l-4.838-.516a.716.716,0,0,0-.787.636l-.333,3.122a17.054,17.054,0,0,0-6.878,2.026l-1.972-2.443a.715.715,0,0,0-1.006-.107l-3.786,3.056a.715.715,0,0,0-.107,1.006m24.046,6.43a11.523,11.523,0,1,1-16.2-1.728,11.536,11.536,0,0,1,16.2,1.728" transform="translate(-6786.007 2258.398)" fill="#2c5abb"/>
        <path id="Trazado_1297135" data-name="Trazado 1297135" d="M1147.445,742.637l2.346,4.658a28.331,28.331,0,0,0-7.777,9.021l-4.953-1.634a1.189,1.189,0,0,0-1.5.756l-2.533,7.675a1.189,1.189,0,0,0,.756,1.5l4.953,1.635a28.331,28.331,0,0,0,.88,11.878l-4.658,2.346a1.189,1.189,0,0,0-.527,1.6l3.636,7.218a1.189,1.189,0,0,0,1.6.527l4.658-2.346a28.331,28.331,0,0,0,9.021,7.777l-1.635,4.953a1.189,1.189,0,0,0,.756,1.5l7.675,2.533a1.189,1.189,0,0,0,1.5-.756l1.635-4.952a28.332,28.332,0,0,0,11.878-.88l2.346,4.658a1.189,1.189,0,0,0,1.6.527l7.218-3.636a1.189,1.189,0,0,0,.527-1.6l-2.346-4.658a28.331,28.331,0,0,0,7.777-9.021l4.953,1.634a1.189,1.189,0,0,0,1.5-.756l2.533-7.675a1.189,1.189,0,0,0-.756-1.5l-4.953-1.635a28.335,28.335,0,0,0-.88-11.878l4.658-2.346a1.189,1.189,0,0,0,.527-1.6l-3.636-7.218a1.189,1.189,0,0,0-1.6-.527l-4.657,2.346a28.331,28.331,0,0,0-9.021-7.777l1.634-4.952a1.189,1.189,0,0,0-.756-1.5L1174.146,736a1.188,1.188,0,0,0-1.5.756l-1.635,4.952a28.331,28.331,0,0,0-11.878.88l-2.346-4.658a1.189,1.189,0,0,0-1.6-.527l-7.218,3.636a1.189,1.189,0,0,0-.527,1.6m36.794,18.867a19.143,19.143,0,1,1-25.708-8.485,19.165,19.165,0,0,1,25.708,8.485" transform="translate(-7035.142 2695.68)" fill="#fcce4d"/>
        <path id="Trazado_1297136" data-name="Trazado 1297136" d="M878.13,1252.977l1.972,2.443a17.055,17.055,0,0,0-3.431,6.3l-3.122-.333a.716.716,0,0,0-.787.636l-.516,4.838a.716.716,0,0,0,.636.787l3.122.333a17.054,17.054,0,0,0,2.026,6.878l-2.443,1.972a.716.716,0,0,0-.107,1.006l3.056,3.786a.715.715,0,0,0,1.006.107l2.443-1.972a17.058,17.058,0,0,0,6.3,3.431l-.333,3.122a.716.716,0,0,0,.636.787l4.838.516a.716.716,0,0,0,.787-.636l.333-3.122a17.056,17.056,0,0,0,6.878-2.026l1.972,2.443a.716.716,0,0,0,1.006.107l3.786-3.056a.715.715,0,0,0,.107-1.006l-1.972-2.443a17.055,17.055,0,0,0,3.431-6.3l3.122.333a.716.716,0,0,0,.787-.636l.516-4.838a.715.715,0,0,0-.636-.787l-3.122-.333a17.054,17.054,0,0,0-2.026-6.878l2.443-1.972a.716.716,0,0,0,.107-1.006l-3.056-3.786a.715.715,0,0,0-1.006-.108l-2.443,1.972a17.053,17.053,0,0,0-6.3-3.431l.333-3.122a.715.715,0,0,0-.635-.787l-4.838-.516a.715.715,0,0,0-.787.635l-.333,3.122a17.052,17.052,0,0,0-6.878,2.026l-1.972-2.443a.715.715,0,0,0-1.006-.107l-3.786,3.056a.715.715,0,0,0-.107,1.006m24.047,6.43a11.524,11.524,0,1,1-16.2-1.728,11.537,11.537,0,0,1,16.2,1.728" transform="translate(-6800.151 2236.255)" fill="#4288d7"/>
        <path id="Trazado_1297137" data-name="Trazado 1297137" d="M1800.578,1806.871a3.153,3.153,0,0,1-2.914-4.348l39.288-95.763a3.15,3.15,0,0,1,5.829,2.392l-39.287,95.763a3.152,3.152,0,0,1-2.916,1.955" transform="translate(-7634.019 1822.445)" fill="#42424b"/>
        <path id="Trazado_1297138" data-name="Trazado 1297138" d="M2240.052,1806.866a3.15,3.15,0,0,1-2.916-1.955l-39.288-95.763a3.15,3.15,0,0,1,5.829-2.392l39.288,95.764a3.152,3.152,0,0,1-2.913,4.348" transform="translate(-7994.703 1822.45)" fill="#42424b"/>
        <path id="Trazado_1297139" data-name="Trazado 1297139" d="M1611.032,1030.811a77.3,77.3,0,1,1-77.3-77.3,77.3,77.3,0,0,1,77.3,77.3" transform="translate(-7326.687 2499.582)" fill="#ff5847"/>
        <path id="Trazado_1297140" data-name="Trazado 1297140" d="M1714.116,1146.571a64.62,64.62,0,1,1-64.62-64.62,64.62,64.62,0,0,1,64.62,64.62" transform="translate(-7442.448 2383.822)" fill="#fff"/>
        <path id="Trazado_1297141" data-name="Trazado 1297141" d="M1809.675,1255.13a52.731,52.731,0,1,1-52.731-52.731,52.731,52.731,0,0,1,52.731,52.731" transform="translate(-7550.004 2275.262)" fill="#ff5847"/>
        <path id="Trazado_1297142" data-name="Trazado 1297142" d="M1945.974,1406.942a36.106,36.106,0,1,1-36.106-36.107,36.107,36.107,0,0,1,36.106,36.107" transform="translate(-7702.818 2123.451)" fill="#fff"/>
        <path id="Trazado_1297143" data-name="Trazado 1297143" d="M2047.224,1520.644a23.655,23.655,0,1,1-23.655-23.655,23.655,23.655,0,0,1,23.655,23.655" transform="translate(-7816.52 2009.748)" fill="#ff5847"/>
        <path id="Trazado_1297144" data-name="Trazado 1297144" d="M2146.384,1632a11.461,11.461,0,1,1-11.46-11.461,11.461,11.461,0,0,1,11.46,11.461" transform="translate(-7927.874 1898.395)" fill="#fff"/>
        <path id="Trazado_1297145" data-name="Trazado 1297145" d="M2188.764,1679.589a6.249,6.249,0,1,1-6.249-6.249,6.249,6.249,0,0,1,6.249,6.249" transform="translate(-7975.466 1850.804)" fill="#ff5847"/>
        <path id="Trazado_1297146" data-name="Trazado 1297146" d="M2724.924,863.77l-11.837.931,6.868,4.037L2695,893.693l-21.4.139,44.557-44.558,21.027.233Z" transform="translate(-8423.715 2593.533)" fill="#fff3a0"/>
        <path id="Trazado_1297147" data-name="Trazado 1297147" d="M2718.159,657.274,2673.6,701.832l.137-21.4,11.128-11.128c1.727,2.965,3.648,6.923,3.762,6.58s.441-5.572.875-11.217l28.422-28.422Z" transform="translate(-8423.714 2785.533)" fill="#fff3a0"/>
        <path id="Trazado_1297148" data-name="Trazado 1297148" d="M2210.806,918.48a3.151,3.151,0,0,1-2.228-5.378l86.583-86.583a3.151,3.151,0,0,1,4.455,4.456l-86.583,86.583a3.14,3.14,0,0,1-2.228.923" transform="translate(-8003.757 2614.874)" fill="#ae3d31"/>
        <path id="Trazado_1297149" data-name="Trazado 1297149" d="M1532.817,2574.789c.031,6.716.041,12.376.045,15.242h13.776c-.589-4.353-1.438-12.409-1.011-15.415-2.276.057-7.783.437-12.809.174" transform="translate(-7395.526 1038.485)" fill="#fff"/>
        <path id="Trazado_1297150" data-name="Trazado 1297150" d="M1544.994,2588.313H1530.78v-.2c0-2.782-.013-8.462-.045-15.241v-.217l.216.011c3.877.2,8.037.023,10.789-.1.8-.035,1.487-.065,2-.078l.242-.006-.034.24c-.432,3.044.473,11.378,1.012,15.359Zm-13.805-.409h13.337c-.344-2.583-.663-5.551-.856-7.992a42.142,42.142,0,0,1-.154-7.007c-.48.015-1.08.041-1.759.07-2.709.117-6.778.293-10.612.107.03,6.523.04,12,.043,14.822" transform="translate(-7393.648 1040.408)"/>
        <path id="Trazado_1297151" data-name="Trazado 1297151" d="M865.45,1835.971c8.651,19.677,23.6,21.132,24.293,21.19l.025,0-.506,4.3-.883,7.508h61.316l-1.3-13.657-.088-.933v0a1.194,1.194,0,0,0,.227.455l0,0a2.352,2.352,0,0,0,.3.337l0,0c.738.686,2.484,1.6,6.585,1.807,6.774.347,29.182-8.338,29.182-8.338a42.093,42.093,0,0,0-5.037-24.491s-17.2,2.605-19.976,1.737-6.6-27.1-9.9-36.13c-1.468-4.018-5.479-6.867-9.482-8.791a44.484,44.484,0,0,0-6.4-2.448c-2.122-.638-3.575-.919-3.575-.919l-3.761-.661-10.177-1.789-3.2-.562a52.879,52.879,0,0,0-9.133,3.049,60.473,60.473,0,0,0-8.406,4.39l-.414.263a21.417,21.417,0,0,0-5.777,5.938c-5.386,7.8-8.118,18.727-8.118,18.727l-4.864-7.816c-13.9,1.216-19.107,8.859-19.107,8.859s-.694,7.817,8.164,27.965" transform="translate(-6786.659 1759.542)" fill="#39a08f"/>
        <path id="Trazado_1297152" data-name="Trazado 1297152" d="M1097.172,1953.846c.4,2.482,17.275,37.6,25.106,6.1q.257-1.032.464-2.052c4.856-23.8-9.785-42.1-17.138-44.461-.06-.019-.119-.037-.177-.053a57.218,57.218,0,0,0-6.187,12.636l-1.891,6.029v0s-.58,19.313-.177,21.8" transform="translate(-7002.751 1634.454)" fill="#2f8778"/>
        <path id="Trazado_1297153" data-name="Trazado 1297153" d="M865.45,1960.528c8.651,19.677,23.6,21.132,24.293,21.19l.025,0c7.373.422,13.537-4.831,15.881-15.377a45.5,45.5,0,0,0,1-8.977,73.311,73.311,0,0,0-1.009-13c-3.015-18.719-11.843-27.971-16.129-31.46l-.137-.111,0,0-.038.056a57.218,57.218,0,0,0-6.187,12.636c-1.233,3.428-1.866,5.93-1.892,6.029v0l-4.864-7.816c-13.9,1.216-19.107,8.859-19.107,8.859s-.694,7.817,8.164,27.965" transform="translate(-6786.659 1634.985)" fill="#39a08f"/>
        <path id="Trazado_1297154" data-name="Trazado 1297154" d="M1704.327,1855.071c2,8.554,2.993,25.377,2.424,33.645-.053.78-.123,1.595-.2,2.434-.3,3.165-.75,6.678-1.088,9.966-.521,5.084-.773,9.631.212,11.527v0c.072.139.147.291.228.455.5.679,2.057,1.9,6.893,2.148,6.774.347,29.182-8.338,29.182-8.338a37.794,37.794,0,0,0,.208-5.8,42.348,42.348,0,0,0-5.245-18.693s-17.2,2.605-19.976,1.737-6.6-27.1-9.9-36.131c-1.275-3.492-4.472-6.1-7.914-7.987q-.778-.427-1.568-.8c1.988,3.482,5.376,9.962,6.747,15.837" transform="translate(-7544.026 1701.283)" fill="#39a08f"/>
        <path id="Trazado_1297155" data-name="Trazado 1297155" d="M1704.327,1855.071c2,8.554,2.993,25.377,2.424,33.645-.053.78-.123,1.595-.2,2.434-.3,3.165-.75,6.678-1.088,9.966,1-1.274,4.141-30.51-.036-46.115a42.188,42.188,0,0,0-7.844-15.766c1.988,3.482,5.376,9.962,6.747,15.837" transform="translate(-7544.026 1701.283)" fill="#2f8778"/>
        <path id="Trazado_1297156" data-name="Trazado 1297156" d="M1100.269,1931.547s5.827,5.969,8.926,19.1c0,0,6.343-.174,0-13.578-6.281-13.27-.917-24.037-.809-24.25-5.385,7.8-8.116,18.724-8.116,18.724" transform="translate(-7005.671 1634.958)" fill="#2f8778"/>
        <path id="Trazado_1297157" data-name="Trazado 1297157" d="M865.452,2141.058c8.651,19.677,23.6,21.132,24.292,21.19h.025c7.373.422,13.537-4.831,15.881-15.377-3.072,4.65-9.311,10.755-20.594,9.808-17.915-1.5-27.768-43.587-27.768-43.587s-.694,7.816,8.164,27.965" transform="translate(-6786.661 1454.455)" fill="#2f8778"/>
        <path id="Trazado_1297158" data-name="Trazado 1297158" d="M1773.437,2386.71v0c.072.139.147.291.228.455.5.679,2.057,1.9,6.893,2.149,6.774.347,29.182-8.338,29.182-8.338a37.733,37.733,0,0,0,.208-5.8c-4.769.809-19.255,2.976-26.207-.255-4.887-2.271-7.852-6.631-9.428-9.707-.765,8.06-2.5,18.371-.876,21.492" transform="translate(-7611.791 1227.215)" fill="#2f8778"/>
        <path id="Trazado_1297159" data-name="Trazado 1297159" d="M1422.955,1774.6s5.59,17.028,8.47,28.77a63.66,63.66,0,0,1,1.619,8.321c.491,5.4.68,26.539.754,42.045.031,6.716.042,12.376.045,15.242h13.776c-.589-4.353-1.438-12.409-1.011-15.415.007-.053.015-.105.024-.155.639-3.836,4.315-28.291,1.438-41.877-.669-3.157-1.457-6.68-2.275-10.227-2.7-11.713-5.706-23.691-5.706-23.691Z" transform="translate(-7296.507 1759.54)" fill="#faa82f"/>
        <path id="Trazado_1297160" data-name="Trazado 1297160" d="M1604.523,1839.036c1.514,7.151,1.213,17.312.495,25.894,2.845-1.716,6.531-15.636,6.531-15.636l-5.94-13.779s2.055-12.8,2.055-13.337c0-.439-5.5-11.782-7.547-16.141-2.123-.638-3.575-.919-3.575-.919s5.1,20.333,7.981,33.919" transform="translate(-7452.961 1732.033)" fill="#39a08f"/>
        <path id="Trazado_1297161" data-name="Trazado 1297161" d="M1334.335,1795.156l12.291,14.4s-2.946,12.8-2.946,13.553,6.593,13.3,6.593,13.3c-.115-10.982-.307-21.2-.627-24.717-.8-8.791-10.09-37.091-10.09-37.091a52.854,52.854,0,0,0-9.133,3.049Z" transform="translate(-7213.108 1759.54)" fill="#39a08f"/>
        <path id="Trazado_1297162" data-name="Trazado 1297162" d="M1422.955,1774.6s5.59,17.028,8.47,28.77c6.873,1.653,11.654-.272,14.369-2.066-2.7-11.713-5.706-23.691-5.706-23.691Z" transform="translate(-7296.507 1759.54)" fill="#ffc964"/>
        <path id="Trazado_1297163" data-name="Trazado 1297163" d="M2094.114,2291.537a26.21,26.21,0,0,0,4.321,9.713,37.769,37.769,0,0,0,.208-5.8,40.928,40.928,0,0,0-.566-5.314,44.287,44.287,0,0,0-2.591-9.049,32.42,32.42,0,0,0-2.088-4.331,39,39,0,0,0-.322,5.178,41.931,41.931,0,0,0,1.038,9.6" transform="translate(-7900.486 1306.944)" fill="#175f53"/>
        <path id="Trazado_1297164" data-name="Trazado 1297164" d="M857.407,2032.194a22.584,22.584,0,0,0,5.59-.2,20.273,20.273,0,0,0,10.8-5.414,17.147,17.147,0,0,0,2.72-3.248,37.533,37.533,0,0,0-4.247.611,28.232,28.232,0,0,0-11.355,4.87,16.214,16.214,0,0,0-3.505,3.378" transform="translate(-6786.78 1535.354)" fill="#175f53"/>
        <path id="Trazado_1297165" data-name="Trazado 1297165" d="M1172.42,2433.777h35.616c0-2.865-.013-8.525-.045-15.241-.026-5.381-.065-11.44-.126-17.285,0,1.088-.156,22-9.925,24.819-8.32,2.4-18.928.8-24.638.2Z" transform="translate(-7070.701 1194.738)" fill="#2f8778"/>
        <path id="Trazado_1297166" data-name="Trazado 1297166" d="M1782.2,2587.951c-.181-.2-.289-.32-.3-.337a2.357,2.357,0,0,0,.3.337" transform="translate(-7620.021 1026.769)" fill="#fff"/>
        <path id="Trazado_1297167" data-name="Trazado 1297167" d="M1780.551,2586.891a2.553,2.553,0,0,1-.329-.366l.321-.253.06.067.24.266Z" transform="translate(-7618.512 1027.98)"/>
        <path id="Trazado_1297168" data-name="Trazado 1297168" d="M1667.2,2601.426c.181,1.728.381,3.359.557,4.659h11.924l-1.3-13.657c-.539,1.783-2.575,8-4.934,8.788-2.021.673-4.644.141-6.245.209" transform="translate(-7516.642 1022.43)" fill="#2f8778"/>
        <path id="Trazado_1297169" data-name="Trazado 1297169" d="M2094.114,2240.557l3.963-1.4.478-.169c6.766.451,11.424-.553,14.594-1.966,4.078-1.817,5.693-4.312,6.165-5.254.837-1.676-.839-1.933-.839-1.933a2.852,2.852,0,0,0,1.326-2.257c-.088-1.3-1.951-.4-2.092-.327.158-.1,2.614-1.651,1.99-2.961-.638-1.339-3.1.16-3.158.193,1.288-2.32-1.032-2.32-1.032-2.32a21.963,21.963,0,0,1-7.83,1.948,13.634,13.634,0,0,0-1.84.244c-.262.069-.409.02-.473-.109-.3-.6,1.2-2.969,1.311-3.5.129-.645-1.74-1.225-5.029,1.354s-4.835,7.542-4.835,7.542l-1.328.468-2.41.847a41.929,41.929,0,0,0,1.038,9.6" transform="translate(-7900.486 1357.924)" fill="#ffcad3"/>
        <path id="Trazado_1297170" data-name="Trazado 1297170" d="M804,1821.483a19.515,19.515,0,0,1,2.513,2.675.02.02,0,0,1,.005.007.052.052,0,0,1,.01.011.129.129,0,0,0,.01.013c.421.544.775,1.057,1.063,1.507a10.884,10.884,0,0,1,1.184,2.608l.017.053a7.487,7.487,0,0,0,1.707,2.782,11,11,0,0,0,1.082,1,13.3,13.3,0,0,0,1.213.873l.872,2.309a20.274,20.274,0,0,0,10.8-5.414l-1.39-1.809-.134-.174,0-.655-.025-4.737c-.435-2.864-3.953-6.176-3.953-6.176h0l-.021-.125c-.212-1.251-1.964-11.33-3.5-11.105-.537.078-.886,1.179-1.112,2.623a52.068,52.068,0,0,0-.412,6.9c0,.031,0,.063,0,.092s0,.057,0,.083a.6.6,0,0,0,0,.073h0c0,.065,0,.116,0,.155a.028.028,0,0,1,0,.008.138.138,0,0,0,0,.025c0,.024,0,.038,0,.043-.062-.12-4.537-8.934-6.6-8.063-.568.239-.71.982-.618,1.933a26.37,26.37,0,0,0,2.157,6.544c-.127-.14-4.655-5.106-5.793-3.509a2.1,2.1,0,0,0-.02,1.739,25.425,25.425,0,0,0,3.257,5.823c-2.2-1.219-5.473-.889-2.306,1.892" transform="translate(-6737.458 1732.031)" fill="#ffcad3"/>
        <path id="Trazado_1297171" data-name="Trazado 1297171" d="M850.391,1832.3s-1.734.086-3.091-2.826c-1.12-2.4-2.985-4.474-4.127-3.305-.093-.951.05-1.694.617-1.933,2.063-.871,6.539,7.943,6.6,8.063Z" transform="translate(-6773.927 1714.852)" fill="#fc8aa8"/>
        <path id="Trazado_1297172" data-name="Trazado 1297172" d="M804.783,1873.984a2.094,2.094,0,0,1,.02-1.739c1.138-1.6,5.666,3.369,5.794,3.508l0,0s-4.918-3.294-5.816-1.773" transform="translate(-6739.193 1671.815)" fill="#fc8aa8"/>
        <path id="Trazado_1297173" data-name="Trazado 1297173" d="M925.316,1816.226c-.924-1.155-2.39-6.994-3.026-8.6-.7-1.76-1.586.115-1.586.115h0c.226-1.444.575-2.544,1.112-2.623,1.538-.224,3.29,9.854,3.5,11.105" transform="translate(-6843.829 1732.032)" fill="#fc8aa8"/>
        <path id="Trazado_1297174" data-name="Trazado 1297174" d="M841.711,1998.32c.421.545.775,1.057,1.063,1.507a10.886,10.886,0,0,1,1.185,2.608c.005.017.011.035.017.053a7.485,7.485,0,0,0,1.707,2.782,10.969,10.969,0,0,0,1.082,1,13.277,13.277,0,0,0,1.213.873l.872,2.308a20.274,20.274,0,0,0,10.8-5.414l-1.39-1.809-.205-.139c-.852.414-5.982,7.646-12.038,1.127-1.97-2.121-4.051-4.6-4.3-4.9" transform="translate(-6772.633 1557.9)" fill="#fc8aa8"/>
        <path id="Trazado_1297175" data-name="Trazado 1297175" d="M861.967,1917.111s-3.995,1.856-5.139,5.594c0,0,4.346-5.046,5.139-5.594" transform="translate(-6786.258 1631.093)" fill="#fc8aa8"/>
        <path id="Trazado_1297176" data-name="Trazado 1297176" d="M1632.765,1814.425l7.547,16.142-2.055,13.337,5.94,13.779s-3.478,12.948-6.531,15.636c0,0,4.177-1.723,8.175-15.635l-5.954-14.271,2.211-13.251Z" transform="translate(-7485.609 1723.644)" fill="#2f8778"/>
        <path id="Trazado_1297177" data-name="Trazado 1297177" d="M2192.75,2265.283s3.479.777,4.739-5.28c.01-.045.019-.091.028-.135a13.545,13.545,0,0,0-1.84.244c-.262.069-.409.02-.473-.109,0,0,.186,3.66-2.453,5.28" transform="translate(-7990.323 1322.166)" fill="#fc8aa8"/>
        <path id="Trazado_1297178" data-name="Trazado 1297178" d="M2250.122,2274.8c-.012-.347,2.451,4.387,0,9.934,0,0,.129-6.322,0-9.934" transform="translate(-8042.032 1308.722)" fill="#fc8aa8"/>
        <path id="Trazado_1297179" data-name="Trazado 1297179" d="M2264.384,2321.224a.247.247,0,0,1-.031-.491,17.4,17.4,0,0,0,7.167-2.957.247.247,0,1,1,.3.4,17.577,17.577,0,0,1-7.4,3.051l-.031,0" transform="translate(-8054.664 1270.018)" fill="#fc8aa8"/>
        <path id="Trazado_1297180" data-name="Trazado 1297180" d="M2274.591,2291.991a.247.247,0,0,1-.021-.492,16.943,16.943,0,0,0,6.386-2.27.247.247,0,0,1,.262.418,17.145,17.145,0,0,1-6.6,2.342h-.022" transform="translate(-8063.863 1295.737)" fill="#fc8aa8"/>
        <path id="Trazado_1297181" data-name="Trazado 1297181" d="M2272.2,2263.5q-.17,0-.345-.005a.247.247,0,0,1-.239-.254.245.245,0,0,1,.254-.239,8.293,8.293,0,0,0,4.1-.843,4.857,4.857,0,0,0,1.3-.929.247.247,0,0,1,.37.326c-.072.082-1.753,1.944-5.444,1.944" transform="translate(-8061.407 1321.017)" fill="#fc8aa8"/>
        <path id="Trazado_1297182" data-name="Trazado 1297182" d="M2094.114,2331.084l3.963-1.4.478-.169c6.766.451,11.424-.553,14.594-1.966-4.491,1.3-13.96.438-16.028-1.031s-1.635-5.883-1.635-5.883l-2.41.847a41.932,41.932,0,0,0,1.038,9.6" transform="translate(-7900.486 1267.396)" fill="#fc8aa8"/>
        <path id="Trazado_1297183" data-name="Trazado 1297183" d="M1339,1864.292s-5.854-8.615-8.619-12.287l2.8-14.7-12.361-14.251-2.91-17.019,1.235-.543L1323.06,1823l12.291,14.4-2.946,13.553Z" transform="translate(-7201.833 1731.697)" fill="#2f8778"/>
        <path id="Trazado_1297184" data-name="Trazado 1297184" d="M1264.537,1340.611c.206,4.693-2.758,5.38-4.152,5.695h0a4.387,4.387,0,0,1-.661.106c-3.931-1.711-13.885-2.063-13.885-2.063v4.829c-9.842,3.737-13.031-3.755-13.031-3.755-7.655,3.718-13.76-2.169-13.76-2.169l-10.514,4.337c-3.2-8.458,5.064-13.523,6.983-15.785s-3.443-5.655-2.951-9.786,6.688-7.917,7.72-9.736-.787-9.294,7.622-15.884,19.818-4.081,24.931-1.081l.145.087c.191.115.372.231.543.348.044.029.086.058.127.088.126.088.245.175.361.264.038.029.076.059.114.089s.074.059.11.089.056.045.084.068c.079.065.155.131.228.2l.1.089c.063.059.126.119.186.177l.089.089c.152.154.29.307.415.459q.066.079.127.159a5.617,5.617,0,0,1,.632,1.011c.015.029.028.058.042.088.028.059.053.116.076.173.012.029.024.057.035.086.034.084.064.166.089.247.01.026.018.053.026.079.019.059.036.117.051.175.008.027.014.054.021.081s.01.037.014.055.009.033.011.049.009.037.012.056q.022.1.038.194c0,.024.008.048.011.072.007.04.012.078.016.116l.009.074c.012.1.018.193.022.284,0,.018,0,.037,0,.055a3.8,3.8,0,0,1-.241,1.54v0s1.574.148,2.311,5.311,2.508,5.065,6.786,9.147,1.868,10.573-.767,14.556-.121,9.639-.121,9.639" transform="translate(-7102.592 2194.283)" fill="#ffcad3"/>
        <path id="Trazado_1297185" data-name="Trazado 1297185" d="M1450.407,1659.939c.222.484,7.4,5.133,13.884,5.806s1.976-11.227,1.493-11.588-14.586-1.51-14.586-1.51-3.568,1.233-.791,7.292" transform="translate(-7320.297 1869.454)" fill="#fc8aa8"/>
        <path id="Trazado_1297186" data-name="Trazado 1297186" d="M1253.276,1301.957v0c-5.142,8.838-13.991,7.685-12.172,6.815s1.9-3.636,1.9-3.636c-1.818,2.846-6.878,3.715-9.25,3.952s-3.084,1.739-1.107,4.19,2.451,4.349.673,6.483-5.1,5.534-.673,9.488,4.191,6.008,4.191,6.008c.711,9.408-7.082,10.166-7.082,10.166-7.655,3.718-13.76-2.169-13.76-2.169l-10.11,5.862c-5.118-10.811,4.66-15.048,6.578-17.31s-3.443-5.655-2.951-9.786,6.688-7.917,7.721-9.736-.787-9.294,7.622-15.884,19.817-4.081,24.931-1.081l.145.087c.191.115.372.231.543.348.043.029.085.058.127.088.126.088.245.175.361.264l.114.089c.038.029.074.059.11.089s.056.045.084.068c.079.065.155.131.229.2l.1.089c.063.059.126.119.186.177l.089.089c.152.154.29.307.415.459q.066.079.127.159a5.624,5.624,0,0,1,.632,1.011c.015.029.028.058.042.088.028.059.053.116.076.173.012.029.024.057.034.086.034.084.064.166.09.247.01.026.018.053.026.079.019.059.036.117.051.175.008.027.014.054.021.081s.01.037.013.055a.4.4,0,0,1,.011.049c0,.018.009.037.012.056.015.065.027.13.038.194,0,.024.008.048.011.072.007.04.012.078.016.116l.009.074c.012.1.019.193.022.284,0,.018,0,.037,0,.055a3.8,3.8,0,0,1-.241,1.54" transform="translate(-7099.539 2194.283)" fill="#5f173d"/>
        <path id="Trazado_1297187" data-name="Trazado 1297187" d="M1490.88,1441.061a22.391,22.391,0,0,1-.7,4.26c-1.04,3.845-3.035,6.572-5.361,7.655-4.456,2.075-10.337,0-10.337,0s.237-2.056-4.191-6.008-1.105-7.353.673-9.487,1.3-4.032-.673-6.483-1.265-3.952,1.107-4.19,7.431-1.106,9.25-3.952c0,0-.079,2.767-1.9,3.636-1.49.713,4.177,1.615,9.1-2.936-1.584,5.945,2.313,8.8,2.313,8.8a30.067,30.067,0,0,1,.72,8.709" transform="translate(-7337.182 2076.564)" fill="#ffcad3"/>
        <path id="Trazado_1297188" data-name="Trazado 1297188" d="M1609.9,1575.377s.852,3.389.223,3.957-1.879.482-2.1.087a9.668,9.668,0,0,1,.65-4.21c.491-.885,1.136-.417,1.225.166" transform="translate(-7463.253 1939.69)" fill="#fc8aa8"/>
        <path id="Trazado_1297189" data-name="Trazado 1297189" d="M1611.914,1431.747c-.249,3.2-1.137,5.493-2.217,5.736,0,0,.108-2.382-2.016-2.488-.4.091-.676,1.932-.676,1.932-.957-.417-6.211-3.257-7.464-3.4-3.376-.383-6.4-.49-6.4-.49v-8.172a10.869,10.869,0,0,0,4.387-.92c4.4-2.049,7.613-9.971,5.431-20.229-.027-.132-.056-.264-.086-.4,0,0-3.9-2.851-2.313-8.8a16.628,16.628,0,0,0,3.072-3.879s1.574.148,2.311,5.311,2.508,5.065,6.786,9.147,1.868,10.573-.767,14.556c-1.76,2.659-1.17,5.823-.583,7.632a11.55,11.55,0,0,1,.539,4.454" transform="translate(-7449.892 2105.593)" fill="#5f173d"/>
        <path id="Trazado_1297190" data-name="Trazado 1297190" d="M1499.142,1598.584a2.205,2.205,0,1,1-2.205-2.2,2.205,2.205,0,0,1,2.205,2.2" transform="translate(-7361.2 1920.168)" fill="#f7727e"/>
        <path id="Trazado_1297191" data-name="Trazado 1297191" d="M1671.654,1605.952a22.4,22.4,0,0,1-.7,4.26l-.089,0a2.205,2.205,0,0,1,0-4.411,2.177,2.177,0,0,1,.794.148" transform="translate(-7517.956 1911.674)" fill="#f7727e"/>
        <path id="Trazado_1297192" data-name="Trazado 1297192" d="M1563.957,1645.2a1.315,1.315,0,0,1,1.18.024,6.365,6.365,0,0,0,2.688.74c1.519,0,2.106-.035,1.83.863a3.426,3.426,0,0,1-4.04,1.9c-2.042-.592-2.943-2.884-1.658-3.526" transform="translate(-7423.056 1876.283)" fill="#f16077"/>
        <path id="Trazado_1297193" data-name="Trazado 1297193" d="M1548.516,1557.654a1.182,1.182,0,1,1-1.182-1.182,1.182,1.182,0,0,1,1.182,1.182" transform="translate(-7407.545 1956.136)" fill="#47110d"/>
        <path id="Trazado_1297194" data-name="Trazado 1297194" d="M1537.543,1528.07a.395.395,0,0,1-.184-.744c.021-.017.057-.05.088-.077a3.079,3.079,0,0,1,1.238-.737,2.245,2.245,0,0,1,2.153.651.395.395,0,1,1-.531.584,1.513,1.513,0,0,0-2.335.092.889.889,0,0,1-.3.211.394.394,0,0,1-.125.02m-.125-.77h0" transform="translate(-7399.43 1983.202)" fill="#47110d"/>
        <path id="Trazado_1297195" data-name="Trazado 1297195" d="M1658.526,1557.654a1.182,1.182,0,1,1-1.182-1.182,1.182,1.182,0,0,1,1.182,1.182" transform="translate(-7506.697 1956.136)" fill="#47110d"/>
        <path id="Trazado_1297196" data-name="Trazado 1297196" d="M1646.108,1528.649a.395.395,0,0,1-.184-.744c.02-.017.057-.05.088-.077a3.084,3.084,0,0,1,1.238-.737,2.244,2.244,0,0,1,2.153.651.395.395,0,0,1-.531.584,1.513,1.513,0,0,0-2.335.092.888.888,0,0,1-.3.211.4.4,0,0,1-.125.02m-.125-.77h0" transform="translate(-7497.279 1982.681)" fill="#47110d"/>
        <path id="Trazado_1297197" data-name="Trazado 1297197" d="M1607.384,1366.364c6.736-4.271,6-8.106,6-8.106Z" transform="translate(-7462.733 2134.787)" fill="#772554"/>
        <path id="Trazado_1297198" data-name="Trazado 1297198" d="M1283.248,1551.366s-6.583,3.969-4.96,9.409,3.607,9.318-1.263,12.655-3.861,6.1-3.861,6.1l4.712-2.732s4.921-2.664,4.921-7.075-6.583-10.481.451-18.359" transform="translate(-7161.424 1960.739)" fill="#772554"/>
        <path id="Trazado_1297199" data-name="Trazado 1297199" d="M1411.664,1689.176s3.973,1.718,2.89,6.7-7.152,5.49-7.152,5.49,8.308-2.858,4.262-12.193" transform="translate(-7282.49 1836.531)" fill="#772554"/>
        <path id="Trazado_1297200" data-name="Trazado 1297200" d="M1607.655,1528.4c-3.577,2.282-8.285,4.081-7.448,7.811s-.534,5.555-.534,5.555l-.132.051c-3.376-.383-6.405-.49-6.405-.49v-8.172a10.868,10.868,0,0,0,4.387-.92c4.4-2.049,7.612-9.971,5.431-20.229.089-.752.142-1.212.142-1.212s1.215,5.021,3.923,6.1c4.937,1.971,4.21,9.221.634,11.5" transform="translate(-7449.893 1997.308)" fill="#4c072f"/>
        <path id="Trazado_1297201" data-name="Trazado 1297201" d="M1419.5,1345.782s-5.139,8.035-11.463,7.917-1.806-2.174-1.773-3.636-8.267,2.789-8.267,2.789,7.906-12.5,21.5-7.07" transform="translate(-7274.016 2147.262)" fill="#772554"/>
        <path id="Trazado_1297202" data-name="Trazado 1297202" d="M1497.484,1423.556c-.034.081-2.216,5.272-6.013,5.4-3.826.126-5.061-.16-5.193-.947s-4.251.452-4.266,1.8c-.014,1.235,1.427,5.17-.48,6.072.5-1.537-.136-3.056-1.607-4.88-1.976-2.451-1.264-3.952,1.107-4.19s7.431-1.107,9.25-3.952c0,0-.079,2.767-1.9,3.636-1.49.712,4.176,1.615,9.1-2.935" transform="translate(-7346.82 2076.565)" fill="#fc8aa8"/>
        <path id="Trazado_1297203" data-name="Trazado 1297203" d="M1738.172,1514.144s9.506,4.782,5.4,12.527c0,0,1.1-4.18-5.4-12.527" transform="translate(-7580.612 1994.287)" fill="#772554"/>
        <path id="Trazado_1297204" data-name="Trazado 1297204" d="M1693.865,1350.217c.052.082.1.163.146.244-.046-.081-.1-.162-.146-.244" transform="translate(-7540.678 2142.034)" fill="#fff"/>
        <path id="Trazado_1297205" data-name="Trazado 1297205" d="M1692.249,1349.56c-.045-.079-.093-.157-.142-.237l.346-.218c.058.092.108.175.152.254Z" transform="translate(-7539.094 2143.036)"/>
        <path id="Trazado_1297206" data-name="Trazado 1297206" d="M1502.221,2593.906v1.893a1.739,1.739,0,0,0,1.746,1.724h47.172a1.738,1.738,0,0,0,1.742-1.724v-1.893a1.735,1.735,0,0,0-1.742-1.72h-47.172a1.736,1.736,0,0,0-1.746,1.72" transform="translate(-7367.95 1022.649)" fill="#395175"/>
        <path id="Trazado_1297207" data-name="Trazado 1297207" d="M1536.945,2592.683l5.612,4.84h39.878a1.738,1.738,0,0,0,1.742-1.724v-1.893a1.735,1.735,0,0,0-1.742-1.72h-44.472Z" transform="translate(-7399.247 1022.649)" fill="#1f304c"/>
        <path id="Trazado_1297208" data-name="Trazado 1297208" d="M1205.415,2595.79a1.738,1.738,0,0,0,1.744,1.722h28.549a1.738,1.738,0,0,0,1.744-1.722V2593.9a1.738,1.738,0,0,0-1.744-1.722H1207.16a1.738,1.738,0,0,0-1.744,1.722Z" transform="translate(-7100.439 1022.659)" fill="#324769"/>
        <g id="Grupo_1241301" data-name="Grupo 1241301" transform="translate(-5871.425 3617.225)" opacity="0.4" style="mix-blend-mode: multiply;isolation: isolate">
          <g id="Grupo_1241300" data-name="Grupo 1241300" transform="translate(0 0)">
            <g id="Grupo_1241299" data-name="Grupo 1241299" clip-path="url(#clip-path-3)">
              <path id="Trazado_1297209" data-name="Trazado 1297209" d="M1444.508,2617.945a.741.741,0,0,0,.744.734h3.4a.741.741,0,0,0,.744-.734v-.807a.741.741,0,0,0-.744-.734h-3.4a.741.741,0,0,0-.744.734Z" transform="translate(-1444.508 -2616.404)" fill="#754559"/>
            </g>
          </g>
        </g>
        <g id="Grupo_1241304" data-name="Grupo 1241304" transform="translate(-5871.425 3616.258)" opacity="0.7">
          <g id="Grupo_1241303" data-name="Grupo 1241303" transform="translate(0 0)">
            <g id="Grupo_1241302" data-name="Grupo 1241302" clip-path="url(#clip-path-4)">
              <path id="Trazado_1297210" data-name="Trazado 1297210" d="M1444.508,2608.146a.741.741,0,0,0,.744.734h2.653a.741.741,0,0,0,.744-.734v-.807a.741.741,0,0,0-.744-.734h-2.653a.741.741,0,0,0-.744.734Z" transform="translate(-1444.508 -2606.605)" fill="#3b2d3c"/>
            </g>
          </g>
        </g>
        <g id="Grupo_1241307" data-name="Grupo 1241307" transform="translate(-5870.681 3616.258)" opacity="0.7">
          <g id="Grupo_1241306" data-name="Grupo 1241306" transform="translate(0 0)">
            <g id="Grupo_1241305" data-name="Grupo 1241305" clip-path="url(#clip-path-4)">
              <path id="Trazado_1297211" data-name="Trazado 1297211" d="M1452.05,2608.146a.741.741,0,0,0,.744.734h2.653a.741.741,0,0,0,.744-.734v-.807a.741.741,0,0,0-.744-.734h-2.653a.741.741,0,0,0-.744.734Z" transform="translate(-1452.05 -2606.605)" fill="#3b2d3c"/>
            </g>
          </g>
        </g>
        <path id="Trazado_1297212" data-name="Trazado 1297212" d="M1447.229,2608.146a.741.741,0,0,0,.744.734h2.653a.741.741,0,0,0,.744-.734v-.807a.741.741,0,0,0-.744-.734h-2.653a.741.741,0,0,0-.744.734Z" transform="translate(-7318.386 1009.653)" fill="#dedee2"/>
        <path id="Trazado_1297213" data-name="Trazado 1297213" d="M1433.8,2608.147a.741.741,0,0,0,.744.734h2.653a.741.741,0,0,0,.744-.734v-.807a.741.741,0,0,0-.744-.734h-2.653a.741.741,0,0,0-.744.734Z" transform="translate(-7306.278 1009.652)" fill="#fff"/>
        <path id="Trazado_1297214" data-name="Trazado 1297214" d="M1526.577,2160.722a1.518,1.518,0,0,0,1.552,1.712h46.68a1.992,1.992,0,0,0,1.937-1.712l4.964-44.074a1.518,1.518,0,0,0-1.552-1.712h-46.68a1.992,1.992,0,0,0-1.937,1.712Z" transform="translate(-7389.892 1452.794)" fill="#324769"/>
        <path id="Trazado_1297215" data-name="Trazado 1297215" d="M1521.314,2161.222a1.052,1.052,0,0,0,1.024,1.226,1.373,1.373,0,0,0,1.295-1.226l1.45-13.149c.074-.674.2-1.778.27-2.453l1.33-12.091c.074-.675.156-1.415.181-1.645s.108-.971.182-1.646l.456-4.122c.075-.675.2-1.778.271-2.453l.823-7.486a1.053,1.053,0,0,0-1.024-1.226,1.371,1.371,0,0,0-1.294,1.227l-.186,1.7c-.074.674-.156,1.427-.184,1.671s-.11,1-.184,1.671l-.73,6.637c-.074.674-.169,1.537-.21,1.918s-.136,1.244-.211,1.918l-1.276,11.546c-.074.674-.2,1.778-.271,2.452Z" transform="translate(-7385.151 1452.78)" fill="#4c608e"/>
        <path id="Trazado_1297216" data-name="Trazado 1297216" d="M1778.648,2330.043a3.415,3.415,0,0,0,3.487,3.943,4.65,4.65,0,0,0,4.5-3.943,3.415,3.415,0,0,0-3.487-3.943,4.649,4.649,0,0,0-4.5,3.943" transform="translate(-7617.064 1262.472)" fill="#4c608e"/>
        <path id="Trazado_1297217" data-name="Trazado 1297217" d="M1699.72,1776.548s3.315-3.171,1.708-7.277c0,0,3.193,3,1.641,8.91Z" transform="translate(-7545.956 1764.341)" fill="#772554"/>
        <path id="Trazado_1297218" data-name="Trazado 1297218" d="M2626.293,1421.386c-8.757,3.53-26.288,4.776-38.885,5.208-8.364.287-14.552.216-14.552.216l-.084-3.483.518-20.108v0h0l-.315-12.96c-6.343,5.236-15.092,11.954-21.32,11.091s-26.082-23.223-26.082-23.223l6.149-8.619,21.6,8.894,8.647-10.3.2-.25c1.547-1.9,10.58-14.86,13.976-18.354,2.5-2.574,6.953-3.174,6.953-3.174.152-1.512,2.374-3.93,2.374-3.93s12.744-2.267,14.839-1.893,6.394,3.858,6.394,3.858c13.477,7.256,15.316,22.29,15.316,22.29l1.289,19.164Z" transform="translate(-8290.296 2150.831)" fill="#397cf1"/>
        <path id="Trazado_1297219" data-name="Trazado 1297219" d="M2983.4,2231.228H2923.42l9.644-53.676c6.833.007,33.508-.227,47.9-4.148,2.8,15.452-3.511,29.28-3.511,29.28Z" transform="translate(-8648.874 1400.096)" fill="#5a5a67"/>
        <path id="Trazado_1297220" data-name="Trazado 1297220" d="M2944.25,2269.1h-20.83l.4-2.21,9.247-51.466s0,0,0,.006Z" transform="translate(-8648.874 1362.22)" fill="#42424b"/>
        <path id="Trazado_1297221" data-name="Trazado 1297221" d="M2944.25,2269.163h-20.83l.4-2.21c4.773-1.563,12.842-4.562,13.766-7.239,1.312-3.8-4.437-43.662-4.519-44.221Z" transform="translate(-8648.874 1362.162)" fill="#34353d"/>
        <path id="Trazado_1297222" data-name="Trazado 1297222" d="M3422.633,2231.228h-8.679c-.913-6.287-3.307-28.454-3.2-28.912.125-.532,9.987-17.55,9.443-28.912,2.8,15.452-3.511,29.28-3.511,29.28Z" transform="translate(-9088.105 1400.096)" fill="#42424b"/>
        <path id="Trazado_1297223" data-name="Trazado 1297223" d="M3182.873,2265.9l-.215-1.125.582-.111.215,1.126Zm-.456-2.386-.241-1.26.582-.111.241,1.26Zm-.481-2.521-.241-1.26.582-.111.241,1.26Zm-.481-2.521-.241-1.26.582-.111.24,1.26Zm-.481-2.521-.241-1.26.582-.111.241,1.26Zm-.481-2.521-.241-1.26.582-.111.241,1.26Zm-.481-2.521-.241-1.26.582-.111.241,1.26Zm-.481-2.521-.241-1.26.582-.111.24,1.26Zm-.481-2.521-.241-1.26.582-.111.241,1.26Zm-.481-2.521-.241-1.26.582-.111.241,1.26Zm-.481-2.521-.241-1.26.582-.111.241,1.26Zm-.481-2.521-.24-1.26.582-.111.241,1.26Zm-.481-2.521-.241-1.26.582-.111.241,1.261Zm-.481-2.521-.24-1.26.582-.111.241,1.26Zm-.481-2.521-.241-1.26.582-.111.241,1.26Zm-.481-2.521-.241-1.26.582-.111.241,1.26Zm-.481-2.521-.241-1.26.582-.111.241,1.26Zm-.482-2.521-.241-1.26.582-.111.241,1.26Zm-.481-2.521-.241-1.26.582-.111.24,1.26Zm-.481-2.521-.241-1.26.582-.111.241,1.26Zm-.481-2.521-.241-1.26.582-.111.241,1.26Zm-.481-2.521-.241-1.26.582-.111.241,1.26Z" transform="translate(-8873.414 1365.557)" fill="#fff"/>
        <path id="Trazado_1297224" data-name="Trazado 1297224" d="M2438.989,1427.151l-7.119,6.31a99.8,99.8,0,0,1-9.01,6.78h0c-4.312,2.8-8.727,4.806-12.31,4.31-6.228-.862-30.468-26.045-30.468-26.045a54.58,54.58,0,0,1-6.58-4.4,11.043,11.043,0,0,1-4.091-6.128,11.794,11.794,0,0,1-.368-2.548c-.024-.675-.034-1.317-.021-1.857.005-.178.012-.345.022-.5a4.183,4.183,0,0,1,2.093-3.358,9.262,9.262,0,0,1,1.678-3.261h0c.044-.047.089-.092.134-.136,1.188-1.143,1.7-.929,1.7-.929a12.3,12.3,0,0,1,2.184-3.142c.06-.053.121-.1.182-.15,1.219-.932,1.751-.427,1.751-.427s2.505-3.794,3.6-3.217.346,2.513-.9,5.777a4.591,4.591,0,0,0,1.192,5.215s3.1-4.507,4.39-4.186.054,3.046-.458,5.358c-.466,2.11,2.442,7.458,1.531,9.58l0,0,24.089,11.4,5.3-6.311,3.348-3.988.2-.25Z" transform="translate(-8149.19 2107.626)" fill="#ffcad3"/>
        <path id="Trazado_1297225" data-name="Trazado 1297225" d="M2481.115,1399.993c-2.528-.818-3.735-4.606-2.142-6.56a9.372,9.372,0,0,0,1.85-4.432c1.094.578.347,2.513-.9,5.777a4.591,4.591,0,0,0,1.192,5.215" transform="translate(-8247.647 2107.078)" fill="#fc8aa8"/>
        <path id="Trazado_1297226" data-name="Trazado 1297226" d="M2449.1,1423.547a8.037,8.037,0,0,1-.89-2.622h0c.06-.054.122-.1.183-.151,1.219-.931,1.751-.427,1.751-.427Z" transform="translate(-8220.568 2078.949)" fill="#fc8aa8"/>
        <path id="Trazado_1297227" data-name="Trazado 1297227" d="M2407.49,1460.193h0c.044-.047.088-.092.135-.137,1.188-1.142,1.7-.928,1.7-.928s-.288,2.568.168,3.047c.348.365-1.416-.783-2-1.982" transform="translate(-8183.868 2043.888)" fill="#fc8aa8"/>
        <path id="Trazado_1297228" data-name="Trazado 1297228" d="M2369.071,1506.965c0-.178.011-.345.021-.5a4.183,4.183,0,0,1,2.093-3.358,2.195,2.195,0,0,1-.582,2.166c-.532.487-1.084,1.286-1.532,1.691" transform="translate(-8149.241 2004.233)" fill="#fc8aa8"/>
        <path id="Trazado_1297229" data-name="Trazado 1297229" d="M2383.683,1597.347a54.589,54.589,0,0,1-6.58-4.4,11.043,11.043,0,0,1-4.091-6.129c1.344,2.656,2.473,3.789,5.824,5.625a10.387,10.387,0,0,1,4.848,4.9" transform="translate(-8152.792 1928.785)" fill="#fc8aa8"/>
        <path id="Trazado_1297230" data-name="Trazado 1297230" d="M2881.837,1634.1l-7.119,6.31a100.015,100.015,0,0,1-9.01,6.78c.116-.118,7.928-8.051,7.106-13.09-.611-3.745-8.27-9.181-12.455-11.858l3.348-3.987.2-.25Z" transform="translate(-8592.037 1900.678)" fill="#fc8aa8"/>
        <path id="Trazado_1297231" data-name="Trazado 1297231" d="M2941.06,911.54s-3.252,9.062.6,16.032c3.818,6.9,13.146,2.735,13.333,2.65l0,0,.232,5.293,15.149-2.51-.093-4.317s.836.232,2.462-1.3.28-5.39.28-5.39a6.359,6.359,0,0,0,1.627-4.166c0-.005,0-.011,0-.017h0c4.181-.095,8.5-5.809,7.154-12.314a8.585,8.585,0,0,0-7.667-6.878c-1.441-5.577-5.2-4.183-5.2-4.183s-1.254-5.3-5.065-5.577-3.764,3.764-3.764,3.764-2.742-3.717-5.669-3.764-3.3,2.7-2.7,4.833-1.348.976-1.348.976c-5.112-2.416-13.2,2.789-14.126,8.132s4.786,8.736,4.786,8.736" transform="translate(-8660.367 2557.864)" fill="#ffcad3"/>
        <path id="Trazado_1297232" data-name="Trazado 1297232" d="M2941.06,911.54a27.284,27.284,0,0,1,1.5-5.209s1.767,2.451,9.122.969c0,0-2.225,3.763,7.439,1.425,0,0-.366,9.448,1.547,10.931l.008.006.01.007h0a6.626,6.626,0,0,0,3.552-2.648c1.708-2.277,2.593-3.543,6.736-3.669,4-.123,3.712,4.158,3.687,4.46,4.181-.095,8.5-5.809,7.154-12.314a8.585,8.585,0,0,0-7.667-6.878c-1.441-5.577-5.2-4.183-5.2-4.183s-1.254-5.3-5.065-5.577-3.764,3.764-3.764,3.764-2.742-3.717-5.669-3.764-3.3,2.7-2.7,4.833-1.348.976-1.348.976c-5.112-2.416-13.2,2.789-14.126,8.132s4.786,8.736,4.786,8.736" transform="translate(-8660.367 2557.864)" fill="#42424b"/>
        <path id="Trazado_1297233" data-name="Trazado 1297233" d="M3277.943,1227.242l.384,4.127s.836.232,2.463-1.3.279-5.39.279-5.39a8.381,8.381,0,0,1-3.126,2.564" transform="translate(-8968.405 2255.182)" fill="#42424b"/>
        <path id="Trazado_1297234" data-name="Trazado 1297234" d="M2936.467,905.947c2.58-5.041,10.8-4.035,14.564-4.452,4.134-.458.459-3.33,2.985-5.339s7.521,3.215,7.521,3.215c-.976-4.191,0-6.2,4.42-3.789s.4,9.587.4,9.587l5.37-3.732c6.514,1.25,8.976,6.663,9.865,9.775a11.75,11.75,0,0,0,.219-5.713,8.585,8.585,0,0,0-7.667-6.878c-1.441-5.577-5.2-4.183-5.2-4.183s-1.254-5.3-5.065-5.576-3.764,3.764-3.764,3.764-2.742-3.717-5.669-3.764-3.3,2.7-2.7,4.833-1.348.976-1.348.976c-5.112-2.416-13.2,2.789-14.126,8.132a6.728,6.728,0,0,0,.194,3.144" transform="translate(-8660.367 2557.864)" fill="#5a5a67"/>
        <path id="Trazado_1297235" data-name="Trazado 1297235" d="M3126.938,1282.75l.232,4.322c9.129-2.523,8.116-7.088,8.116-7.088Z" transform="translate(-8832.305 2205.335)" fill="#fc8aa8"/>
        <path id="Trazado_1297236" data-name="Trazado 1297236" d="M3245.672,1176.389s-1.236-4.572,3.036-5c0,0-1.785.821-2.02,1.993,0,0,2.618-1.094,3.087,2.149,0,0-2.221-2.06-3.243-1.206a2.442,2.442,0,0,0-.86,2.066" transform="translate(-8939.17 2303.213)" fill="#fc8aa8"/>
        <path id="Trazado_1297237" data-name="Trazado 1297237" d="M2985.7,1071.178s1.432.521,4.765-.527,5.048,1.163,6.734.683c2.865-.815,4.74-.921,5.121,2.745a7.085,7.085,0,0,0,3,5.23c-1.936-1.432-1.567-10.946-1.567-10.946-9.664,2.338-7.439-1.425-7.439-1.425-7.354,1.482-9.122-.969-9.122-.969a27.272,27.272,0,0,0-1.5,5.209" transform="translate(-8705.004 2398.226)" fill="#fc8aa8"/>
        <path id="Trazado_1297238" data-name="Trazado 1297238" d="M3012.012,1106.128a.4.4,0,0,1-.317-.159,2.779,2.779,0,0,0-2.035-.958,3.536,3.536,0,0,0-2.346.792.395.395,0,0,1-.531-.585,4.325,4.325,0,0,1,2.915-1,3.572,3.572,0,0,1,2.632,1.276.4.4,0,0,1-.317.629" transform="translate(-8723.894 2363.753)" fill="#47110d"/>
        <path id="Trazado_1297239" data-name="Trazado 1297239" d="M2953.327,1160.4c-.2.122-2.688,3.137-2.363,4.766s2.037,1.589,2.688,1.548Z" transform="translate(-8673.674 2313.114)" fill="#fc8aa8"/>
        <path id="Trazado_1297240" data-name="Trazado 1297240" d="M3014.335,1135.385a1.84,1.84,0,1,1-1.841-1.84,1.84,1.84,0,0,1,1.841,1.84" transform="translate(-8727.499 2337.32)" fill="#47110d"/>
        <path id="Trazado_1297241" data-name="Trazado 1297241" d="M3073,1154.409a4.114,4.114,0,1,1-4.114-4.114,4.114,4.114,0,0,1,4.114,4.114" transform="translate(-8776.28 2322.223)" fill="#f7727e"/>
        <path id="Trazado_1297242" data-name="Trazado 1297242" d="M3001.47,1221.462a11.716,11.716,0,0,0,5.924-1.984s1.6,3.772-1.678,4.682c-3.148.874-4.246-2.7-4.246-2.7" transform="translate(-8719.221 2259.869)" fill="#f16077"/>
        <path id="Trazado_1297243" data-name="Trazado 1297243" d="M2931.172,2215.492s-8.814,8.641-9.644,11.75.794,7.825,5.614,10.673Z" transform="translate(-8646.982 1362.162)" fill="#ffcad3"/>
        <path id="Trazado_1297244" data-name="Trazado 1297244" d="M2955.233,2333.259s-1.184,3.694-2.59,3.088-1.588-3.027-1.1-3.814a4.451,4.451,0,0,0-.242,5.086c1.877,2.906,2.76,2.781,2.76,2.781Z" transform="translate(-8673.379 1256.79)" fill="#fc8aa8"/>
        <path id="Trazado_1297245" data-name="Trazado 1297245" d="M2588.206,1625.632c-1.921.83-4.576-2.574-6.739-4.083-1.835-1.281-18.594-12.067-18.855-12.23l24.089,11.405s3.426,4.078,1.505,4.908" transform="translate(-8323.679 1908.506)" fill="#fc8aa8"/>
        <path id="Trazado_1297246" data-name="Trazado 1297246" d="M2525.571,1686.166s11.712,12.694,24.087,16.443c0,0-21.821-15.833-24.087-16.443" transform="translate(-8290.294 1839.243)" fill="#fcdadd"/>
        <path id="Trazado_1297247" data-name="Trazado 1297247" d="M3054.307,1656.745s.7,14.825-1.858,20.053-27.606,15.9-29.353,14.668c-1.563-6.673-3.6-23.237-4.783-33.5a49.062,49.062,0,0,0,6-16.908c-2,4.632-6.958,8.272-6.958,8.272l-13.377,11.857-.2,33.072h0l.084,3.482s6.188.072,14.552-.216c12.6-.432,30.128-1.678,38.885-5.208Z" transform="translate(-8721.294 1879.896)" fill="#2c5bf2"/>
        <path id="Trazado_1297248" data-name="Trazado 1297248" d="M3131.989,1344.357c-1.813-1.065-9.076,1.811-14.624,2.494a21.439,21.439,0,0,1-8.983-.529c.152-1.512,2.374-3.93,2.374-3.93s12.743-2.267,14.839-1.893,6.394,3.858,6.394,3.858" transform="translate(-8815.581 2150.831)" fill="#2c5bf2"/>
        <rect id="Rectángulo_423223" data-name="Rectángulo 423223" width="302.505" height="11.216" transform="translate(-5930.609 3620.182)" fill="#5ebce0"/>
        <path id="Trazado_1297249" data-name="Trazado 1297249" d="M3350.577,2482.551v6.123h.545v.9h-48.47a1.354,1.354,0,0,1-1.354-1.354v-5.462a1.354,1.354,0,0,1,1.354-1.354h48.47v1.149Z" transform="translate(-8989.455 1122.498)" fill="#39a08f"/>
        <path id="Trazado_1297250" data-name="Trazado 1297250" d="M3596.474,2493.09v6.106h-20.818a1.533,1.533,0,0,1-1.533-1.533v-3.041a1.533,1.533,0,0,1,1.533-1.533Z" transform="translate(-9235.353 1111.964)" fill="#fff"/>
        <rect id="Rectángulo_423224" data-name="Rectángulo 423224" width="19.798" height="0.592" transform="translate(-5658.827 3606.093)" fill="#abadb0"/>
        <rect id="Rectángulo_423225" data-name="Rectángulo 423225" width="10.7" height="0.592" transform="translate(-5649.728 3607.265)" fill="#abadb0"/>
        <rect id="Rectángulo_423226" data-name="Rectángulo 423226" width="16.076" height="0.592" transform="translate(-5655.104 3608.438)" fill="#abadb0"/>
        <rect id="Rectángulo_423227" data-name="Rectángulo 423227" width="19.178" height="0.592" transform="translate(-5658.207 3609.611)" fill="#abadb0"/>
        <path id="Trazado_1297251" data-name="Trazado 1297251" d="M3327.369,2498.822h.731a.893.893,0,0,0,.893-.893v-4.352a.893.893,0,0,0-.893-.893h-.731a.893.893,0,0,0-.893.893v4.352a.893.893,0,0,0,.893.893" transform="translate(-9012.148 1112.33)" fill="#287064"/>
        <path id="Trazado_1297252" data-name="Trazado 1297252" d="M3302.921,2565.173v6.123h.545v.9H3255a1.354,1.354,0,0,1-1.354-1.354v-5.462a1.354,1.354,0,0,1,1.354-1.354h48.47v1.149Z" transform="translate(-8946.503 1048.031)" fill="#ff5847"/>
        <path id="Trazado_1297253" data-name="Trazado 1297253" d="M3548.817,2575.712v6.107H3528a1.533,1.533,0,0,1-1.532-1.533v-3.041a1.533,1.533,0,0,1,1.532-1.533Z" transform="translate(-9192.399 1037.497)" fill="#fff"/>
        <rect id="Rectángulo_423228" data-name="Rectángulo 423228" width="19.798" height="0.592" transform="translate(-5663.53 3614.248)" fill="#abadb0"/>
        <rect id="Rectángulo_423229" data-name="Rectángulo 423229" width="10.699" height="0.592" transform="translate(-5654.432 3615.42)" fill="#abadb0"/>
        <rect id="Rectángulo_423230" data-name="Rectángulo 423230" width="16.076" height="0.592" transform="translate(-5659.808 3616.593)" fill="#abadb0"/>
        <rect id="Rectángulo_423231" data-name="Rectángulo 423231" width="19.177" height="0.592" transform="translate(-5662.91 3617.766)" fill="#abadb0"/>
        <path id="Trazado_1297254" data-name="Trazado 1297254" d="M3279.713,2581.443h.731a.893.893,0,0,0,.893-.893V2576.2a.893.893,0,0,0-.893-.893h-.731a.893.893,0,0,0-.893.893v4.352a.893.893,0,0,0,.893.893" transform="translate(-8969.196 1037.863)" fill="#aa2821"/>
        <rect id="Rectángulo_423232" data-name="Rectángulo 423232" width="462" height="308" transform="translate(-6014.017 3359.064)" fill="none"/>
        <rect id="Rectángulo_423233" data-name="Rectángulo 423233" width="462" height="308" transform="translate(-6014.017 3359.064)" fill="none"/>
      </g>
    </g>
  </g>
</svg>
