<svg xmlns="http://www.w3.org/2000/svg" xmlns:xlink="http://www.w3.org/1999/xlink" width="106.16" height="106.16" viewBox="0 0 106.16 106.16">
  <defs>
    <filter id="Trazado_982547" x="0" y="0" width="106.16" height="106.16" filterUnits="userSpaceOnUse">
      <feOffset dy="3" input="SourceAlpha"/>
      <feGaussianBlur stdDeviation="3" result="blur"/>
      <feFlood flood-opacity="0.161"/>
      <feComposite operator="in" in2="blur"/>
      <feComposite in="SourceGraphic"/>
    </filter>
  </defs>
  <g id="Grupo_1242064" data-name="Grupo 1242064" transform="translate(-505.42 -2583.855)">
    <g id="Grupo_1235679" data-name="Grupo 1235679" transform="translate(514.42 2589.855)">
      <g id="Grupo_1235128" data-name="Grupo 1235128" transform="translate(0 0)">
        <g id="Grupo_1233884" data-name="Grupo 1233884">
          <g id="Grupo_1228506" data-name="Grupo 1228506">
            <g id="Grupo_1206132" data-name="Grupo 1206132">
              <g id="Grupo_1203794" data-name="Grupo 1203794">
                <g id="Grupo_1203345" data-name="Grupo 1203345">
                  <g id="Grupo_1177900" data-name="Grupo 1177900">
                    <g id="Grupo_1172010" data-name="Grupo 1172010">
                      <g id="Grupo_1171046" data-name="Grupo 1171046">
                        <g id="Grupo_1148525" data-name="Grupo 1148525">
                          <g transform="matrix(1, 0, 0, 1, -9, -6)" filter="url(#Trazado_982547)">
                            <g id="Trazado_982547-2" data-name="Trazado 982547" transform="translate(9 6)" fill="#e9f9fd">
                              <path d="M 44.0802001953125 86.660400390625 C 38.33124923706055 86.660400390625 32.75506210327148 85.53479766845703 27.50652503967285 83.31484985351562 C 22.43628692626953 81.17032623291016 17.88242530822754 78.09992218017578 13.97144985198975 74.18894958496094 C 10.06047534942627 70.27797698974609 6.99007511138916 65.72411346435547 4.845550060272217 60.65387344360352 C 2.625600099563599 55.40533828735352 1.500000238418579 49.82915115356445 1.500000238418579 44.0802001953125 C 1.500000238418579 38.33124923706055 2.625600099563599 32.75506210327148 4.845550060272217 27.50652503967285 C 6.99007511138916 22.43628692626953 10.06047534942627 17.88242530822754 13.97144985198975 13.97144985198975 C 17.88242530822754 10.06047534942627 22.43628692626953 6.99007511138916 27.50652503967285 4.845550060272217 C 32.75506210327148 2.625600099563599 38.33124923706055 1.500000238418579 44.0802001953125 1.500000238418579 C 49.82915115356445 1.500000238418579 55.40533828735352 2.625600099563599 60.65387344360352 4.845550060272217 C 65.72411346435547 6.99007511138916 70.27797698974609 10.06047534942627 74.18894958496094 13.97144985198975 C 78.09992218017578 17.88242530822754 81.17032623291016 22.43628692626953 83.31484985351562 27.50652503967285 C 85.53479766845703 32.75506210327148 86.660400390625 38.33124923706055 86.660400390625 44.0802001953125 C 86.660400390625 49.82915115356445 85.53479766845703 55.40533828735352 83.31484985351562 60.65387344360352 C 81.17032623291016 65.72411346435547 78.09992218017578 70.27797698974609 74.18894958496094 74.18894958496094 C 70.27797698974609 78.09992218017578 65.72411346435547 81.17032623291016 60.65387344360352 83.31484985351562 C 55.40533828735352 85.53479766845703 49.82915115356445 86.660400390625 44.0802001953125 86.660400390625 Z" stroke="none"/>
                              <path d="M 44.0802001953125 3 C 38.53308486938477 3 33.15349960327148 4.085746765136719 28.09085845947266 6.227058410644531 C 23.19941711425781 8.29595947265625 18.80581665039062 11.25841522216797 15.03211212158203 15.03211212158203 C 11.25841522216797 18.80581665039062 8.29595947265625 23.19941711425781 6.227058410644531 28.09085845947266 C 4.085746765136719 33.15349960327148 3 38.53308486938477 3 44.0802001953125 C 3 49.62731552124023 4.085746765136719 55.00691604614258 6.227058410644531 60.06954193115234 C 8.29595947265625 64.96098327636719 11.25841522216797 69.35458374023438 15.03211212158203 73.12828826904297 C 18.80581665039062 76.90198516845703 23.19941711425781 79.86444091796875 28.09085845947266 81.93334197998047 C 33.15349960327148 84.07466125488281 38.53308486938477 85.160400390625 44.0802001953125 85.160400390625 C 49.62731552124023 85.160400390625 55.00691604614258 84.07466125488281 60.06954193115234 81.93334197998047 C 64.96099853515625 79.86444091796875 69.35458374023438 76.90198516845703 73.12828826904297 73.12828826904297 C 76.90198516845703 69.35458374023438 79.86444091796875 64.96099853515625 81.93334197998047 60.06954193115234 C 84.07466125488281 55.00691604614258 85.160400390625 49.62731552124023 85.160400390625 44.0802001953125 C 85.160400390625 38.53308486938477 84.07466125488281 33.15349960327148 81.93334197998047 28.09085845947266 C 79.86444091796875 23.19941711425781 76.90198516845703 18.80581665039062 73.12828826904297 15.03211212158203 C 69.35458374023438 11.25841522216797 64.96098327636719 8.29595947265625 60.06954193115234 6.227058410644531 C 55.00691604614258 4.085746765136719 49.62731552124023 3 44.0802001953125 3 M 44.0802001953125 0 C 68.42502593994141 0 88.160400390625 19.73538970947266 88.160400390625 44.0802001953125 C 88.160400390625 68.42502593994141 68.42502593994141 88.160400390625 44.0802001953125 88.160400390625 C 19.73538970947266 88.160400390625 0 68.42502593994141 0 44.0802001953125 C 0 19.73538970947266 19.73538970947266 0 44.0802001953125 0 Z" stroke="none" fill="#1d7083"/>
                            </g>
                          </g>
                        </g>
                      </g>
                    </g>
                  </g>
                </g>
              </g>
            </g>
          </g>
        </g>
      </g>
    </g>
    <g id="ingenieria" transform="translate(525 2601)">
      <path id="Trazado_1298252" data-name="Trazado 1298252" d="M36.787,44.422a14.941,14.941,0,0,1-.771,2.884l3.131,2.837a18.877,18.877,0,0,1-1.516,2.646l-4.02-1.3a15.042,15.042,0,0,1-2.119,2.118l1.3,4.02a18.977,18.977,0,0,1-2.646,1.516l-2.837-3.131a14.921,14.921,0,0,1-2.884.771l-.893,4.136c-.5.04-1.012.077-1.528.077s-1.023-.037-1.529-.077l-.893-4.136a14.941,14.941,0,0,1-2.884-.771l-2.837,3.131a18.877,18.877,0,0,1-2.646-1.516l1.3-4.02a15.088,15.088,0,0,1-2.118-2.118l-4.02,1.3a18.977,18.977,0,0,1-1.516-2.646l3.131-2.837a14.921,14.921,0,0,1-.771-2.884l-4.136-.893C3.037,43.023,3,42.516,3,42s.037-1.023.077-1.529l4.136-.893a14.941,14.941,0,0,1,.771-2.884L4.853,33.857a18.877,18.877,0,0,1,1.516-2.646l4.02,1.3a15.042,15.042,0,0,1,2.119-2.118l-1.3-4.02a18.977,18.977,0,0,1,2.646-1.516L16.7,27.984a14.921,14.921,0,0,1,2.884-.771l.893-4.136c.5-.04,1.012-.077,1.528-.077s1.023.037,1.529.077l.893,4.136a14.941,14.941,0,0,1,2.884.771l2.837-3.131a18.877,18.877,0,0,1,2.646,1.516l-1.3,4.02a15.042,15.042,0,0,1,2.118,2.119l4.02-1.3a18.977,18.977,0,0,1,1.516,2.646l-3.131,2.837a14.921,14.921,0,0,1,.771,2.884l4.136.893c.04.505.077,1.012.077,1.528s-.037,1.023-.077,1.529ZM22,32A10,10,0,1,0,32,42,10,10,0,0,0,22,32Z" fill="#454a6d"/>
      <path id="Trazado_1298253" data-name="Trazado 1298253" d="M50.659,16.305a8.015,8.015,0,0,1-.611,1.48l1.579,3.026a11.051,11.051,0,0,1-1.815,1.815l-3.026-1.579a7.879,7.879,0,0,1-1.48.611l-1.024,3.26A10.867,10.867,0,0,1,43,25a11.054,11.054,0,0,1-1.281-.081L40.7,21.659a7.946,7.946,0,0,1-1.48-.611l-3.026,1.579a11.051,11.051,0,0,1-1.815-1.815l1.579-3.026a7.879,7.879,0,0,1-.611-1.48l-3.26-1.024A10.867,10.867,0,0,1,32,14a11.054,11.054,0,0,1,.081-1.281l3.26-1.024a7.946,7.946,0,0,1,.611-1.48L34.373,7.189a11.051,11.051,0,0,1,1.815-1.815l3.026,1.579a7.879,7.879,0,0,1,1.48-.611l1.024-3.26A10.867,10.867,0,0,1,43,3a11.054,11.054,0,0,1,1.281.081l1.024,3.26a7.946,7.946,0,0,1,1.48.611l3.026-1.579a11.051,11.051,0,0,1,1.815,1.815l-1.579,3.026a7.879,7.879,0,0,1,.611,1.48l3.26,1.024A10.867,10.867,0,0,1,54,14a11.054,11.054,0,0,1-.081,1.281ZM43,10a4,4,0,1,0,4,4A4,4,0,0,0,43,10Z" fill="#e89d43"/>
      <path id="Trazado_1298254" data-name="Trazado 1298254" d="M58.739,38.871a6.96,6.96,0,0,1-.649,1.572l.995,2.094a9.07,9.07,0,0,1-1.548,1.548l-2.094-.995a6.941,6.941,0,0,1-1.572.649l-.778,2.188a8.219,8.219,0,0,1-2.186,0l-.778-2.188a6.96,6.96,0,0,1-1.572-.649l-2.094.995a9.07,9.07,0,0,1-1.548-1.548l.995-2.094a6.952,6.952,0,0,1-.649-1.571l-2.188-.778a8.226,8.226,0,0,1,0-2.187l2.188-.778a6.933,6.933,0,0,1,.649-1.571l-.995-2.094a9.07,9.07,0,0,1,1.548-1.548l2.094,1a6.941,6.941,0,0,1,1.572-.649l.778-2.188A8.76,8.76,0,0,1,52,28a8.956,8.956,0,0,1,1.093.073l.778,2.188a6.96,6.96,0,0,1,1.572.649l2.094-1a9.07,9.07,0,0,1,1.548,1.548l-.995,2.094a6.941,6.941,0,0,1,.649,1.572l2.188.778a8.219,8.219,0,0,1,0,2.186ZM52,34a3,3,0,1,0,3,3A3,3,0,0,0,52,34Z" fill="#4ac3ed"/>
      <g id="Grupo_1242063" data-name="Grupo 1242063">
        <path id="Trazado_1298255" data-name="Trazado 1298255" d="M2.08,43.608a1,1,0,0,0,.786.9l3.485.752a15.8,15.8,0,0,0,.468,1.752L4.181,49.4a1,1,0,0,0-.231,1.171,20,20,0,0,0,1.6,2.785,1,1,0,0,0,1.129.383l3.387-1.091a16.023,16.023,0,0,0,1.29,1.29l-1.091,3.387a1,1,0,0,0,.383,1.129,20,20,0,0,0,2.785,1.6,1,1,0,0,0,1.171-.231l2.39-2.638a16.1,16.1,0,0,0,1.753.468l.752,3.485a1,1,0,0,0,.9.786c.532.042,1.065.08,1.608.08s1.076-.038,1.608-.08a1,1,0,0,0,.9-.786l.752-3.485a15.816,15.816,0,0,0,1.753-.468l2.39,2.638a1,1,0,0,0,1.171.231,20.1,20.1,0,0,0,2.785-1.6,1,1,0,0,0,.383-1.129l-1.091-3.387a16.175,16.175,0,0,0,1.29-1.289l3.387,1.091a1,1,0,0,0,1.129-.383,20,20,0,0,0,1.6-2.785A1,1,0,0,0,39.82,49.4l-2.638-2.39a16.1,16.1,0,0,0,.468-1.753l3.485-.752a1,1,0,0,0,.786-.9C41.962,43.076,42,42.543,42,42s-.038-1.076-.08-1.608a1,1,0,0,0-.786-.9l-3.485-.752a15.816,15.816,0,0,0-.468-1.753l2.638-2.39a1,1,0,0,0,.231-1.171,20.1,20.1,0,0,0-1.6-2.785,1,1,0,0,0-1.129-.383l-3.387,1.091a16.022,16.022,0,0,0-1.29-1.29l1.091-3.387a1,1,0,0,0-.383-1.129,20,20,0,0,0-2.785-1.6,1,1,0,0,0-1.171.231l-2.39,2.638a16.1,16.1,0,0,0-1.753-.468L24.5,22.865a1,1,0,0,0-.9-.786,20.324,20.324,0,0,0-3.217,0,1,1,0,0,0-.9.786l-.752,3.485a15.8,15.8,0,0,0-1.752.468L14.6,24.18a1,1,0,0,0-1.171-.231,20,20,0,0,0-2.785,1.6,1,1,0,0,0-.383,1.129l1.091,3.387a16.023,16.023,0,0,0-1.29,1.29L6.675,30.26a1,1,0,0,0-1.129.383,20,20,0,0,0-1.6,2.785A1,1,0,0,0,4.181,34.6l2.638,2.39a16.1,16.1,0,0,0-.468,1.753l-3.485.752a1,1,0,0,0-.786.9C2.038,40.924,2,41.457,2,42s.038,1.076.08,1.608Zm1.941-2.317,3.4-.735a1,1,0,0,0,.776-.817,13.941,13.941,0,0,1,.719-2.691,1,1,0,0,0-.264-1.1L6.085,33.625c.224-.429.458-.84.7-1.229l3.3,1.062a1,1,0,0,0,1.081-.318,14.061,14.061,0,0,1,1.978-1.978,1,1,0,0,0,.318-1.081l-1.062-3.3q.583-.365,1.229-.7l2.328,2.57a1,1,0,0,0,1.1.264,13.873,13.873,0,0,1,2.69-.719,1,1,0,0,0,.817-.776l.734-3.4a13.17,13.17,0,0,1,1.419,0l.735,3.4a1,1,0,0,0,.817.776,13.941,13.941,0,0,1,2.691.719,1,1,0,0,0,1.095-.264l2.328-2.569c.429.224.84.458,1.229.7l-1.062,3.3a1,1,0,0,0,.318,1.081,14.06,14.06,0,0,1,1.978,1.978,1,1,0,0,0,1.081.318l3.3-1.062q.365.583.7,1.228l-2.57,2.328a1,1,0,0,0-.264,1.1,13.874,13.874,0,0,1,.719,2.69,1,1,0,0,0,.776.817l3.4.734c.013.235.022.472.022.71s-.008.475-.021.709l-3.4.735a1,1,0,0,0-.776.817,13.941,13.941,0,0,1-.719,2.691,1,1,0,0,0,.264,1.1l2.569,2.328c-.224.429-.458.84-.7,1.229l-3.3-1.062a1,1,0,0,0-1.081.318,14.114,14.114,0,0,1-1.978,1.978,1,1,0,0,0-.318,1.08l1.062,3.3q-.583.365-1.228.7l-2.328-2.57a1,1,0,0,0-1.1-.264,13.874,13.874,0,0,1-2.69.719,1,1,0,0,0-.817.776l-.734,3.4a13.169,13.169,0,0,1-1.419,0l-.735-3.4a1,1,0,0,0-.817-.776,13.941,13.941,0,0,1-2.691-.719,1,1,0,0,0-1.1.264l-2.328,2.569c-.429-.224-.84-.458-1.229-.7l1.062-3.3a1,1,0,0,0-.318-1.081,14.06,14.06,0,0,1-1.978-1.978,1,1,0,0,0-1.081-.318L6.786,51.6q-.365-.583-.7-1.229l2.57-2.328a1,1,0,0,0,.264-1.1,13.873,13.873,0,0,1-.719-2.69,1,1,0,0,0-.776-.817l-3.4-.732C4.009,42.475,4,42.238,4,42S4.008,41.525,4.021,41.291Z" fill="#0d1030"/>
        <path id="Trazado_1298256" data-name="Trazado 1298256" d="M54.219,16.235a1,1,0,0,0,.693-.839A11.761,11.761,0,0,0,55,14a11.963,11.963,0,0,0-.087-1.4,1,1,0,0,0-.693-.839l-2.773-.871q-.125-.341-.276-.668l1.344-2.575a1,1,0,0,0-.1-1.083,12.107,12.107,0,0,0-1.979-1.979,1,1,0,0,0-1.083-.1L46.774,5.83q-.327-.15-.668-.275l-.871-2.773a1,1,0,0,0-.839-.693,11.062,11.062,0,0,0-2.793,0,1,1,0,0,0-.839.693l-.871,2.773q-.341.125-.668.276L36.65,4.487a1,1,0,0,0-1.083.1,12.108,12.108,0,0,0-1.979,1.979,1,1,0,0,0-.1,1.083l1.343,2.575q-.15.327-.275.668l-2.773.871a1,1,0,0,0-.693.839,11.244,11.244,0,0,0,0,2.792,1,1,0,0,0,.693.839l2.773.871q.125.34.276.668l-1.344,2.575a1,1,0,0,0,.1,1.083,12.107,12.107,0,0,0,1.979,1.979,1,1,0,0,0,1.083.1l2.575-1.343q.327.15.668.275l.871,2.773a1,1,0,0,0,.839.693A11.819,11.819,0,0,0,43,26a11.964,11.964,0,0,0,1.4-.087,1,1,0,0,0,.839-.693l.871-2.773q.341-.125.668-.276l2.575,1.344a1,1,0,0,0,1.083-.1,12.108,12.108,0,0,0,1.979-1.979,1,1,0,0,0,.1-1.083L51.17,17.776q.152-.327.276-.668Zm-3.86-.884a1,1,0,0,0-.658.667,7.044,7.044,0,0,1-.534,1.294,1,1,0,0,0-.006.936L50.43,20.68a10.205,10.205,0,0,1-.75.75l-2.432-1.269a1,1,0,0,0-.936.006,7.043,7.043,0,0,1-1.294.534,1,1,0,0,0-.667.658l-.824,2.624a8.425,8.425,0,0,1-1.054,0l-.824-2.624a1,1,0,0,0-.667-.658,6.949,6.949,0,0,1-1.293-.534,1,1,0,0,0-.937-.006L36.32,21.43a10.206,10.206,0,0,1-.75-.75l1.269-2.432a1,1,0,0,0-.006-.936,7.044,7.044,0,0,1-.534-1.294,1,1,0,0,0-.658-.667l-2.624-.824C33,14.344,33,14.169,33,14s.005-.344.017-.527l2.624-.824a1,1,0,0,0,.658-.667,6.949,6.949,0,0,1,.534-1.293,1,1,0,0,0,.006-.937L35.57,7.32a10.205,10.205,0,0,1,.75-.75l2.432,1.269a1,1,0,0,0,.936-.006A7.043,7.043,0,0,1,40.982,7.3a1,1,0,0,0,.667-.658l.824-2.624a8.424,8.424,0,0,1,1.054,0l.824,2.624a1,1,0,0,0,.667.658,6.949,6.949,0,0,1,1.293.534,1,1,0,0,0,.937.006L49.68,6.57a10.205,10.205,0,0,1,.75.75L49.161,9.752a1,1,0,0,0,.006.936,7.044,7.044,0,0,1,.534,1.294,1,1,0,0,0,.658.667l2.624.824c.012.183.017.358.017.527s-.005.344-.017.527Z" fill="#0d1030"/>
        <path id="Trazado_1298257" data-name="Trazado 1298257" d="M61.262,34.964l-1.718-.61a8.1,8.1,0,0,0-.337-.817l.781-1.645a1,1,0,0,0-.116-1.044,10.064,10.064,0,0,0-1.719-1.72,1,1,0,0,0-1.045-.116l-1.646.781a7.987,7.987,0,0,0-.816-.336l-.611-1.718a1,1,0,0,0-.822-.658,9.215,9.215,0,0,0-2.427,0,1,1,0,0,0-.822.658l-.61,1.718a8.1,8.1,0,0,0-.817.337l-1.645-.781a1,1,0,0,0-1.044.116,10.064,10.064,0,0,0-1.72,1.719,1,1,0,0,0-.116,1.045l.781,1.646a7.987,7.987,0,0,0-.336.816l-1.718.611a1,1,0,0,0-.658.822A9.8,9.8,0,0,0,42,37a10.023,10.023,0,0,0,.08,1.213,1,1,0,0,0,.658.822l1.718.61a8.1,8.1,0,0,0,.337.817l-.781,1.645a1,1,0,0,0,.116,1.044,10.064,10.064,0,0,0,1.719,1.72,1,1,0,0,0,1.045.116l1.646-.781a7.987,7.987,0,0,0,.816.336l.611,1.718a1,1,0,0,0,.822.658A9.658,9.658,0,0,0,52,47a10.023,10.023,0,0,0,1.213-.08,1,1,0,0,0,.822-.658l.61-1.718a8.1,8.1,0,0,0,.817-.337l1.645.781a.994.994,0,0,0,1.044-.116,10.064,10.064,0,0,0,1.72-1.719,1,1,0,0,0,.116-1.045l-.781-1.646a7.987,7.987,0,0,0,.336-.816l1.718-.611a1,1,0,0,0,.658-.822A9.658,9.658,0,0,0,62,37a10.023,10.023,0,0,0-.08-1.213,1,1,0,0,0-.658-.823Zm-1.272,2.4-1.585.563a1,1,0,0,0-.629.675,5.95,5.95,0,0,1-.555,1.347,1,1,0,0,0-.033.921l.718,1.513q-.249.273-.521.521l-1.513-.718a1,1,0,0,0-.921.033,5.954,5.954,0,0,1-1.346.555,1,1,0,0,0-.676.629l-.563,1.585a6.837,6.837,0,0,1-.73,0L51.073,43.4a1,1,0,0,0-.675-.629,5.95,5.95,0,0,1-1.347-.555,1.008,1.008,0,0,0-.921-.033l-1.513.718q-.273-.249-.521-.521l.718-1.513a1,1,0,0,0-.033-.921,5.954,5.954,0,0,1-.555-1.346,1,1,0,0,0-.629-.676l-1.585-.563C44,37.244,44,37.123,44,37s0-.245.01-.365l1.585-.564a1,1,0,0,0,.628-.675,5.98,5.98,0,0,1,.556-1.347,1,1,0,0,0,.033-.921l-.718-1.513q.249-.273.521-.521l1.513.718a1,1,0,0,0,.921-.033,5.954,5.954,0,0,1,1.346-.555,1,1,0,0,0,.676-.629l.563-1.585a6.837,6.837,0,0,1,.73,0l.563,1.585a1,1,0,0,0,.675.629,5.95,5.95,0,0,1,1.347.555,1,1,0,0,0,.921.033l1.513-.718q.273.249.521.521l-.718,1.513a1,1,0,0,0,.033.921,5.954,5.954,0,0,1,.555,1.346,1,1,0,0,0,.629.676l1.585.563c.008.122.012.243.012.366s0,.244-.01.365Z" fill="#0d1030"/>
        <path id="Trazado_1298258" data-name="Trazado 1298258" d="M22,53A11,11,0,1,0,11,42,11.013,11.013,0,0,0,22,53Zm0-20a9,9,0,1,1-9,9A9.011,9.011,0,0,1,22,33Z" fill="#0d1030"/>
        <path id="Trazado_1298259" data-name="Trazado 1298259" d="M2.022,25.359,3.558,26.64A23.951,23.951,0,0,1,22,18c.509,0,1.017.029,1.525.061l-1.232,1.232,1.414,1.414,3-3a1,1,0,0,0,0-1.414l-3-3-1.414,1.414,1.359,1.359C23.1,16.031,22.551,16,22,16A25.947,25.947,0,0,0,2.022,25.359Z" fill="#0d1030"/>
        <path id="Trazado_1298260" data-name="Trazado 1298260" d="M43,9a5,5,0,1,0,5,5A5.006,5.006,0,0,0,43,9Zm0,8a3,3,0,1,1,3-3A3,3,0,0,1,43,17Z" fill="#0d1030"/>
        <path id="Trazado_1298261" data-name="Trazado 1298261" d="M52,33a4,4,0,1,0,4,4A4,4,0,0,0,52,33Zm0,6a2,2,0,1,1,2-2A2,2,0,0,1,52,39Z" fill="#0d1030"/>
        <path id="Trazado_1298262" data-name="Trazado 1298262" d="M61.2,5.02l-5-1a1,1,0,0,0-1.177.784l-1,5,1.961.393L56.519,7.5A15,15,0,0,1,58,14a14.84,14.84,0,0,1-3.29,9.375l1.561,1.251A17.013,17.013,0,0,0,58.244,6.469l2.56.512Z" fill="#0d1030"/>
      </g>
    </g>
  </g>
</svg>
