<svg xmlns="http://www.w3.org/2000/svg" xmlns:xlink="http://www.w3.org/1999/xlink" width="108" height="108" viewBox="0 0 108 108">
  <defs>
    <filter id="Trazado_904820" x="0" y="0" width="108" height="108" filterUnits="userSpaceOnUse">
      <feOffset dy="3" input="SourceAlpha"/>
      <feGaussianBlur stdDeviation="3" result="blur"/>
      <feFlood flood-opacity="0.161"/>
      <feComposite operator="in" in2="blur"/>
      <feComposite in="SourceGraphic"/>
    </filter>
  </defs>
  <g id="Grupo_1241588" data-name="Grupo 1241588" transform="translate(-618 -2285.798)">
    <g id="Grupo_1235636" data-name="Grupo 1235636" transform="translate(627 2291.798)">
      <g id="Grupo_1235127" data-name="Grupo 1235127" transform="translate(0 0)">
        <g id="Grupo_1233829" data-name="Grupo 1233829">
          <g id="Grupo_1228307" data-name="Grupo 1228307">
            <g id="Grupo_1228100" data-name="Grupo 1228100">
              <g id="Grupo_1221597" data-name="Grupo 1221597">
                <g id="Grupo_1219744" data-name="Grupo 1219744">
                  <g id="Grupo_1202418" data-name="Grupo 1202418">
                    <g id="Grupo_1177315" data-name="Grupo 1177315">
                      <g id="Grupo_1173585" data-name="Grupo 1173585">
                        <g id="Grupo_1173428" data-name="Grupo 1173428">
                          <g id="Grupo_1171958" data-name="Grupo 1171958">
                            <g id="Grupo_1167341" data-name="Grupo 1167341">
                              <g id="Grupo_1166792" data-name="Grupo 1166792">
                                <g transform="matrix(1, 0, 0, 1, -9, -6)" filter="url(#Trazado_904820)">
                                  <g id="Trazado_904820-2" data-name="Trazado 904820" transform="translate(9 6)" fill="#f2f7e5">
                                    <path d="M 44.99999237060547 88.49990081787109 C 39.12686920166016 88.49990081787109 33.43022918701172 87.3499755859375 28.06829261779785 85.08207702636719 C 22.88853073120117 82.89121246337891 18.23630523681641 79.75450134277344 14.24085521697998 75.75904846191406 C 10.24540519714355 71.76361083984375 7.108692169189453 67.11138916015625 4.917829990386963 61.93162536621094 C 2.649929761886597 56.5697021484375 1.500004887580872 50.87306213378906 1.500004887580872 44.99995040893555 C 1.500004887580872 39.12683868408203 2.649929761886597 33.4301872253418 4.917829990386963 28.06826210021973 C 7.108692169189453 22.88850021362305 10.24540519714355 18.23628807067871 14.24085521697998 14.24083805084229 C 18.23630523681641 10.24540042877197 22.88853073120117 7.108687877655029 28.06829261779785 4.917825222015381 C 33.43022918701172 2.649925470352173 39.12686920166016 1.500000357627869 44.99999237060547 1.500000357627869 C 50.87311553955078 1.500000357627869 56.56976699829102 2.649925470352173 61.93169403076172 4.917825222015381 C 67.11146545410156 7.108687877655029 71.76369476318359 10.24540042877197 75.75914001464844 14.24083805084229 C 79.75457763671875 18.23628807067871 82.89130401611328 22.88850021362305 85.08216857910156 28.06826210021973 C 87.35006713867188 33.4301872253418 88.49999237060547 39.12683868408203 88.49999237060547 44.99995040893555 C 88.49999237060547 50.87306213378906 87.35006713867188 56.5697021484375 85.08216857910156 61.93162536621094 C 82.89130401611328 67.11138916015625 79.75457763671875 71.76361083984375 75.75914001464844 75.75904846191406 C 71.76369476318359 79.75450134277344 67.11146545410156 82.89121246337891 61.93169403076172 85.08207702636719 C 56.56976699829102 87.3499755859375 50.87311553955078 88.49990081787109 44.99999237060547 88.49990081787109 Z" stroke="none"/>
                                    <path d="M 44.99999237060547 2.999992370605469 C 39.32870483398438 2.999992370605469 33.82866287231445 4.110054016113281 28.65262222290039 6.299324035644531 C 23.65164947509766 8.41455078125 19.15969085693359 11.44332122802734 15.30150604248047 15.30149078369141 C 11.44333648681641 19.15966796875 8.414566040039062 23.65161895751953 6.299331665039062 28.65259170532227 C 4.11004638671875 33.82862091064453 2.999992370605469 39.32866287231445 2.999992370605469 44.99995040893555 C 2.999992370605469 50.67122268676758 4.11004638671875 56.1712646484375 6.299331665039062 61.34729385375977 C 8.414566040039062 66.3482666015625 11.44333648681641 70.84022521972656 15.30150604248047 74.69839477539062 C 19.15969085693359 78.55656433105469 23.65164947509766 81.58531951904297 28.65262222290039 83.7005615234375 C 33.82866287231445 85.88983917236328 39.32870483398438 86.99989318847656 44.99999237060547 86.99989318847656 C 50.67127990722656 86.99989318847656 56.17132186889648 85.88983917236328 61.34736633300781 83.7005615234375 C 66.34833526611328 81.58531951904297 70.84029388427734 78.55656433105469 74.69846343994141 74.69839477539062 C 78.55663299560547 70.84022521972656 81.58540344238281 66.3482666015625 83.70065307617188 61.34729385375977 C 85.88992309570312 56.1712646484375 86.99997711181641 50.67122268676758 86.99997711181641 44.99995040893555 C 86.99997711181641 39.32866287231445 85.88992309570312 33.82862091064453 83.70063781738281 28.65259170532227 C 81.58540344238281 23.65161895751953 78.55663299560547 19.15966796875 74.69846343994141 15.30149078369141 C 70.84029388427734 11.44332122802734 66.34833526611328 8.41455078125 61.34736633300781 6.299324035644531 C 56.17132186889648 4.110054016113281 50.67127990722656 2.999992370605469 44.99999237060547 2.999992370605469 M 44.99999237060547 -7.62939453125e-06 C 69.85279083251953 -7.62939453125e-06 89.99997711181641 20.14714813232422 89.99997711181641 44.99995040893555 C 89.99997711181641 69.85272216796875 69.85279083251953 89.99989318847656 44.99999237060547 89.99989318847656 C 20.14719390869141 89.99989318847656 -7.62939453125e-06 69.85272216796875 -7.62939453125e-06 44.99995040893555 C -7.62939453125e-06 20.14714813232422 20.14719390869141 -7.62939453125e-06 44.99999237060547 -7.62939453125e-06 Z" stroke="none" fill="#496406"/>
                                  </g>
                                </g>
                              </g>
                            </g>
                          </g>
                        </g>
                      </g>
                    </g>
                  </g>
                </g>
              </g>
            </g>
          </g>
        </g>
      </g>
    </g>
    <g id="metricas-de-rendimiento" transform="translate(622.756 2293.48)">
      <path id="Trazado_1297599" data-name="Trazado 1297599" d="M122.628,157.661l2.674,2.674-1.736,3.914a20.541,20.541,0,0,1,2.5,6.023l3.993,1.537v6.524l-3.993,1.537a20.557,20.557,0,0,1-2.5,6.02L125.3,189.8l-4.611,4.614-3.914-1.739a20.551,20.551,0,0,1-6.023,2.5l-1.537,3.991h-6.524l-1.537-3.993a20.563,20.563,0,0,1-6.02-2.5l-3.914,1.739L86.61,189.8l1.739-3.911a20.616,20.616,0,0,1-2.5-6.023l-3.991-1.537v-6.524l3.991-1.537a20.551,20.551,0,0,1,2.5-6.023l-1.739-3.914,2.372-2.371,16.693,17.846Z" transform="translate(-56.341 -126.601)" fill="#ffe177" fill-rule="evenodd"/>
      <path id="Trazado_1297600" data-name="Trazado 1297600" d="M183.573,157.661l2.674,2.674-1.736,3.914a20.541,20.541,0,0,1,2.5,6.023L191,171.809v6.524l-3.993,1.537a20.557,20.557,0,0,1-2.5,6.02l1.736,3.914-4.611,4.614-1.315-.584,4.03-4.03-1.739-3.914a20.56,20.56,0,0,0,2.5-6.02l3.993-1.537v-6.524l-3.993-1.537a20.544,20.544,0,0,0-2.5-6.023l1.739-3.914-1.695-1.694Zm-27.49,35.016-3.914,1.739-.584-.584,3.677-1.634Q155.665,192.447,156.083,192.677Zm21.64,0a20.551,20.551,0,0,1-6.023,2.5l-1.537,3.991h-1.9l1.537-3.991a26.94,26.94,0,0,0,6.845-2.977Z" transform="translate(-117.286 -126.601)" fill="#ffd064" fill-rule="evenodd"/>
      <path id="Trazado_1297601" data-name="Trazado 1297601" d="M199.915,231.693a11.742,11.742,0,1,1-16.643.251l8.211,8.778Z" transform="translate(-142.101 -191.31)" fill="#eceff1" fill-rule="evenodd"/>
      <path id="Trazado_1297602" data-name="Trazado 1297602" d="M184.093,234.565a11.741,11.741,0,0,0,8.421,18.993c-.265.017-.53.026-.8.026a11.742,11.742,0,0,1-8.446-19.9Z" transform="translate(-142.101 -193.052)" fill="#d1d1d6" fill-rule="evenodd"/>
      <circle id="Elipse_11554" data-name="Elipse 11554" cx="2.82" cy="2.82" r="2.82" transform="translate(70.597 20.365)" fill="#8ac9fe"/>
      <path id="Trazado_1297603" data-name="Trazado 1297603" d="M457.206,72.8a2.82,2.82,0,1,1,0,5.5,2.821,2.821,0,0,0,0-5.5Z" transform="translate(-384.419 -52.369)" fill="#60b7ff" fill-rule="evenodd"/>
      <circle id="Elipse_11555" data-name="Elipse 11555" cx="2.82" cy="2.82" r="2.82" transform="translate(46.516 45.648)" fill="#fe646f"/>
      <path id="Trazado_1297604" data-name="Trazado 1297604" d="M265.98,273.573a2.82,2.82,0,1,1,0,5.5,2.821,2.821,0,0,0,0-5.5Z" transform="translate(-217.274 -227.854)" fill="#fd4755" fill-rule="evenodd"/>
      <circle id="Elipse_11556" data-name="Elipse 11556" cx="2.82" cy="2.82" r="2.82" transform="translate(25.757 23.853)" fill="#6cf5c2"/>
      <path id="Trazado_1297605" data-name="Trazado 1297605" d="M101.136,100.5a2.82,2.82,0,1,1,0,5.5,2.821,2.821,0,0,0,0-5.5Z" transform="translate(-73.189 -76.579)" fill="#00e499" fill-rule="evenodd"/>
      <circle id="Elipse_11557" data-name="Elipse 11557" cx="2.82" cy="2.82" r="2.82" transform="translate(18.409 36.578)" fill="#ffe177"/>
      <path id="Trazado_1297606" data-name="Trazado 1297606" d="M42.794,201.554a2.82,2.82,0,1,1,0,5.5,2.82,2.82,0,0,0,0-5.5Z" transform="translate(-22.194 -164.905)" fill="#ffd064" fill-rule="evenodd"/>
      <path id="Trazado_1297607" data-name="Trazado 1297607" d="M23.948,36.72A3.815,3.815,0,1,1,22.2,35.711l3.655-6.33a3.827,3.827,0,1,1,5.994-.714L47.518,45.114a3.829,3.829,0,0,1,3.635,0L70.141,25.179a3.826,3.826,0,1,1,1.459,1.39L52.612,46.5a3.827,3.827,0,1,1-6.552,0L30.394,30.056a3.835,3.835,0,0,1-2.791.333Zm-2.718.881a1.812,1.812,0,1,0,1.813,1.812A1.813,1.813,0,0,0,21.229,37.6ZM49.335,46.67a1.812,1.812,0,1,0,1.813,1.813A1.813,1.813,0,0,0,49.335,46.67ZM73.417,21.387A1.812,1.812,0,1,0,75.229,23.2,1.813,1.813,0,0,0,73.417,21.387Zm-44.84,3.488a1.812,1.812,0,1,0,1.812,1.812A1.813,1.813,0,0,0,28.576,24.875Zm36.857-7.6L50.067,33.523a1.008,1.008,0,0,1-1.471-.008L31.714,15.3l-6.262,6.559a1.008,1.008,0,0,1-1.457-1.392l7-7.333a1.007,1.007,0,0,1,1.468.011L49.343,31.357l14.631-15.47H61.64a1.007,1.007,0,0,1,0-2.015h4.8a1.007,1.007,0,0,1,1.007,1.007v4.8a1.007,1.007,0,0,1-2.015,0Zm2.2,16a1.007,1.007,0,1,1,1.425-1.425l.882.882a1.008,1.008,0,0,1,.209,1.12L68.6,37.34a21.743,21.743,0,0,1,2.247,5.428l3.559,1.37a1.008,1.008,0,0,1,.646.94v6.61a1.008,1.008,0,0,1-.646.94L70.849,54a21.97,21.97,0,0,1-2.247,5.42l1.546,3.491a1.008,1.008,0,0,1-.209,1.12L65.266,68.7a1.007,1.007,0,0,1-1.12.209l-3.489-1.545a21.72,21.72,0,0,1-5.422,2.246l-1.37,3.559a1.007,1.007,0,0,1-.94.646h-6.61a1.007,1.007,0,0,1-.94-.646l-1.37-3.559a21.935,21.935,0,0,1-5.427-2.247L35.088,68.91a1.007,1.007,0,0,1-1.12-.209L29.3,64.029a1.007,1.007,0,0,1-.208-1.122l1.551-3.488A21.919,21.919,0,0,1,28.387,54l-3.56-1.37a1.008,1.008,0,0,1-.646-.94v-6.61a1.008,1.008,0,0,1,.646-.94l3.56-1.37a21.941,21.941,0,0,1,2.252-5.427l-1.551-3.489A1.007,1.007,0,0,1,29.3,32.73l.612-.612a1.007,1.007,0,0,1,1.425,1.425l-.122.122L32.692,37a1.007,1.007,0,0,1-.063.938,19.935,19.935,0,0,0-2.414,5.817,1.008,1.008,0,0,1-.618.705L26.2,45.77V51l3.4,1.309a1.007,1.007,0,0,1,.618.7,19.9,19.9,0,0,0,2.413,5.81,1.007,1.007,0,0,1,.064.939l-1.483,3.335L34.9,66.788l3.335-1.477a1.007,1.007,0,0,1,.934.062,19.924,19.924,0,0,0,5.817,2.408,1.007,1.007,0,0,1,.708.618l1.309,3.4h5.226l1.309-3.4a1.007,1.007,0,0,1,.707-.618,19.7,19.7,0,0,0,5.807-2.406,1.007,1.007,0,0,1,.938-.064l3.335,1.477,3.7-3.7-1.478-3.335a1.007,1.007,0,0,1,.062-.934,19.964,19.964,0,0,0,2.408-5.811,1.008,1.008,0,0,1,.618-.707L73.039,51V45.77l-3.4-1.309a1.008,1.008,0,0,1-.618-.708,19.739,19.739,0,0,0-2.407-5.814A1.008,1.008,0,0,1,66.548,37l1.478-3.335Zm-8.91,9.819a1.007,1.007,0,0,1,1.741-1.014,12.539,12.539,0,1,1-21.687,0,1.007,1.007,0,0,1,1.741,1.014,10.526,10.526,0,1,0,18.2,0Z" transform="translate(0 0)" fill-rule="evenodd"/>
    </g>
  </g>
</svg>
