<svg xmlns="http://www.w3.org/2000/svg" xmlns:xlink="http://www.w3.org/1999/xlink" width="939" height="547" viewBox="0 0 939 547">
  <defs>
    <clipPath id="clip-path">
      <rect id="Rectángulo_423216" data-name="Rectángulo 423216" width="715" height="547" transform="translate(390 2636)" fill="#fff" stroke="#707070" stroke-width="1"/>
    </clipPath>
    <filter id="Trazado_1297022" x="212.257" y="61.51" width="453.665" height="453.636" filterUnits="userSpaceOnUse">
      <feOffset dy="3" input="SourceAlpha"/>
      <feGaussianBlur stdDeviation="3" result="blur"/>
      <feFlood flood-opacity="0.161"/>
      <feComposite operator="in" in2="blur"/>
      <feComposite in="SourceGraphic"/>
    </filter>
    <linearGradient id="linear-gradient" x1="1.014" y1="0.5" x2="0" y2="0.5" gradientUnits="objectBoundingBox">
      <stop offset="0" stop-color="#a39cef"/>
      <stop offset="1" stop-color="#5431dc"/>
    </linearGradient>
    <linearGradient id="linear-gradient-2" x1="1.018" y1="0.507" x2="0.003" y2="0.507" xlink:href="#linear-gradient"/>
    <linearGradient id="linear-gradient-3" x1="1.024" y1="0.507" x2="0.01" y2="0.507" xlink:href="#linear-gradient"/>
    <linearGradient id="linear-gradient-4" x1="-0.02" y1="0.5" x2="1" y2="0.5" xlink:href="#linear-gradient"/>
    <linearGradient id="linear-gradient-5" y1="0.5" x2="1" y2="0.5" gradientUnits="objectBoundingBox">
      <stop offset="0" stop-color="#f9ba70"/>
      <stop offset="1" stop-color="#fe7055"/>
    </linearGradient>
    <linearGradient id="linear-gradient-6" x1="0.521" y1="-0.031" x2="0.458" y2="1.627" xlink:href="#linear-gradient"/>
    <linearGradient id="linear-gradient-7" x1="0" y1="0.5" x2="1" y2="0.5" xlink:href="#linear-gradient"/>
    <linearGradient id="linear-gradient-10" x1="0" y1="0.5" x2="1" y2="0.5" xlink:href="#linear-gradient-5"/>
    <linearGradient id="linear-gradient-13" x1="0.25" y1="0.75" x2="0.75" y2="0.25" xlink:href="#linear-gradient-5"/>
    <linearGradient id="linear-gradient-14" x1="0.24" y1="7.065" x2="0.76" y2="-6.065" gradientUnits="objectBoundingBox">
      <stop offset="0" stop-color="#c8c7ff"/>
      <stop offset="1" stop-color="#5431dc"/>
    </linearGradient>
    <linearGradient id="linear-gradient-15" x1="0.239" y1="6.421" x2="0.761" y2="-5.42" xlink:href="#linear-gradient-14"/>
    <linearGradient id="linear-gradient-16" x1="0.237" y1="5.454" x2="0.763" y2="-4.453" xlink:href="#linear-gradient-14"/>
    <linearGradient id="linear-gradient-22" x1="0" y1="0.5" x2="1" y2="0.5" xlink:href="#linear-gradient-5"/>
    <linearGradient id="linear-gradient-28" x1="-0.101" y1="0.5" x2="1" y2="0.5" xlink:href="#linear-gradient-5"/>
    <linearGradient id="linear-gradient-29" x1="0" y1="0.5" x2="1" y2="0.5" xlink:href="#linear-gradient-14"/>
  </defs>
  <g id="Grupo_1242802" data-name="Grupo 1242802" transform="translate(-361 -2676)">
    <g id="Enmascarar_grupo_1211529" data-name="Enmascarar grupo 1211529" transform="translate(20 40)" clip-path="url(#clip-path)">
      <g id="_x32_8" transform="translate(212.257 2249.821)">
        <g transform="matrix(1, 0, 0, 1, 128.74, 386.18)" filter="url(#Trazado_1297022)">
          <path id="Trazado_1297022-2" data-name="Trazado 1297022" d="M785.506,854.132c-4.136,116.23-99.642,209.914-217.68,209.914a217.242,217.242,0,0,1-161.807-72q-4.786-5.289-9.208-10.9A216.813,216.813,0,0,1,350,846.236c0-120.984,98.26-217.826,217.826-217.826a217.656,217.656,0,0,1,217.68,225.722Z" transform="translate(-128.74 -560.9)" fill="#36ceef"/>
        </g>
        <g id="XMLID_1_" transform="translate(709.587 727.544)">
          <g id="Grupo_1241249" data-name="Grupo 1241249">
            <path id="Trazado_1297024" data-name="Trazado 1297024" d="M3649.066,3145.476l-.061.122v.015a.2.2,0,0,1-.046.061c-.015.031-.031.046-.046.076a.078.078,0,0,0-.03.061.047.047,0,0,0-.015.03s-.031.015-.031.031h.107l-22.6,28.875-24.126-3.451a22.429,22.429,0,0,1,2.7-15.148c8.688-14.873,31.395-44.542,47.871-49.6,7.772-2.4,12.124-1.344,12.124-1.344l-.656,15.285c-11.33,18.629-14.491,23.852-15.224,25.058A.255.255,0,0,0,3649.066,3145.476Z" transform="translate(-3601.878 -3104.978)" fill="url(#linear-gradient)"/>
            <path id="Trazado_1297025" data-name="Trazado 1297025" d="M4028.13,3471.21a.255.255,0,0,1-.031.076c-.015.015-.015.031-.031.046Z" transform="translate(-3980.941 -3430.713)" fill="url(#linear-gradient-2)"/>
            <path id="Trazado_1297026" data-name="Trazado 1297026" d="M4027.142,3473.42c-.015.031-.03.046-.046.076a.056.056,0,0,1,.015-.045C4027.112,3473.435,4027.142,3473.42,4027.142,3473.42Z" transform="translate(-3980.076 -3432.678)" fill="url(#linear-gradient-3)"/>
          </g>
        </g>
        <g id="Grupo_1241256" data-name="Grupo 1241256" transform="translate(363.01 545.147)">
          <g id="Grupo_1241251" data-name="Grupo 1241251" transform="translate(298.334 68.07)">
            <g id="Grupo_1241250" data-name="Grupo 1241250">
              <path id="Trazado_1297027" data-name="Trazado 1297027" d="M3165.6,2194.143s7.992,14.5,33.293,24.049c10.673,4.029,29.034,35.2,29.034,35.2l46.825-53.243s-12.014-15.344-15.369-20.892c-2.307-3.815-3.012-6.178-4.013-17.379s1.92-31.556-18.2-53.712c-6.642-7.307-10.127-14.158-11.856-19.99q-.136-.437-.246-.874a34.618,34.618,0,0,1-1.247-10.682,5.2,5.2,0,0,0-2.129-4.459,5.4,5.4,0,0,0-5.187-.719c-.145.055-.282.109-.427.164-4.6,1.911-9.418,5.969-10.21,14.659-.728,7.971,1.947,15.76,4.5,22.6q.75,1.992,1.446,3.858c2.32,6.269,3.867,11.492,1.383,14.959-.728,1.01-3.3-.337-5.277-1.6-1.356-.874-2.438-1.7-2.438-1.7l-25.723,45Z" transform="translate(-3165.6 -2071.076)" fill="#ffbeab"/>
              <path id="Trazado_1297028" data-name="Trazado 1297028" d="M3308.33,3014.281a71.908,71.908,0,0,1,13.032-.108,45.966,45.966,0,0,1,12.178,2.812,40.71,40.71,0,0,1,10.834,6.1,54.182,54.182,0,0,1,4.868,4.178,27.718,27.718,0,0,1,2.287,2.343c.761.8,1.537,1.6,2.371,2.383-.409-1.04-.876-2.062-1.358-3.088-.232-.519-.5-1.021-.748-1.532l-.383-.766-.466-.711a32.139,32.139,0,0,0-4.251-5.393,30.286,30.286,0,0,0-11.574-7.674,32.653,32.653,0,0,0-13.7-2.111A30.733,30.733,0,0,0,3308.33,3014.281Z" transform="translate(-3292.547 -2906.753)" fill="#f9ad9b"/>
            </g>
          </g>
          <g id="Grupo_1241254" data-name="Grupo 1241254" transform="translate(0 68.066)">
            <g id="Grupo_1241253" data-name="Grupo 1241253">
              <g id="Grupo_1241252" data-name="Grupo 1241252">
                <path id="Trazado_1297029" data-name="Trazado 1297029" d="M527.66,3156.2c-8.7-14.868-31.4-44.531-47.869-49.59-7.775-2.389-12.138-1.336-12.138-1.336l1.622,13.643,5.38,3.383,16.717,27.031h-1.084l19.5,24.925,20.572-2.905A22.472,22.472,0,0,0,527.66,3156.2Z" transform="translate(-467.653 -2990.706)" fill="url(#linear-gradient-4)"/>
                <path id="Trazado_1297030" data-name="Trazado 1297030" d="M596.121,2194.112s-7.992,14.5-33.294,24.049c-10.672,4.028-29.034,35.2-29.034,35.2l-24.514-27.875-22.311-25.369s12.013-15.344,15.368-20.892c2.308-3.816,3.012-6.178,4.013-17.379s-1.92-31.556,18.2-53.712c7.928-8.721,13.877-19.73,13.348-31.547a5.318,5.318,0,0,1,4.44-5.459,5.67,5.67,0,0,1,3.3.446c4.6,1.911,9.418,5.969,10.209,14.658.728,7.971-1.947,15.76-4.5,22.6-2.549,6.769-5.936,14.482-2.83,18.817.728,1.01,3.3-.337,5.277-1.6,1.356-.874,2.439-1.7,2.439-1.7l25.723,45Z" transform="translate(-484.832 -2071.042)" fill="#ffbeab"/>
                <path id="Trazado_1297031" data-name="Trazado 1297031" d="M964.821,3014.283a71.906,71.906,0,0,0-13.031-.108,43.594,43.594,0,0,0-23.013,8.912,54.1,54.1,0,0,0-4.867,4.178,27.659,27.659,0,0,0-2.287,2.343c-.761.8-1.537,1.6-2.371,2.383.821-2.088,1.923-4.227,2.49-5.386a34.956,34.956,0,0,1,4.717-6.1c5.535-6.125,15.222-10.423,25.276-9.785A30.735,30.735,0,0,1,964.821,3014.283Z" transform="translate(-869.315 -2906.752)" fill="#f9ad9b"/>
                <path id="Trazado_1297032" data-name="Trazado 1297032" d="M1019.112,2431.884c-.67.16-1.216.126-1.491-.254-3.094-4.318.16-11.731,2.83-18.817-2.209.451-3.272,3.111-4.313,5.359-3.639,7.707-1.052,14.305,2.974,16.446v-2.734Z" transform="translate(-953.939 -2375.021)" fill="#f9bd98"/>
              </g>
            </g>
          </g>
          <g id="Grupo_1241255" data-name="Grupo 1241255" transform="translate(63.891 0)">
            <path id="Trazado_1297033" data-name="Trazado 1297033" d="M1327.11,1473.575v182.791a18.083,18.083,0,0,1-18.083,18.083h-245.5a18.082,18.082,0,0,1-18.082-18.083V1473.575a18.082,18.082,0,0,1,18.082-18.082h245.5A18.082,18.082,0,0,1,1327.11,1473.575Z" transform="translate(-1045.443 -1455.493)" fill="#23194c"/>
            <path id="Trazado_1297034" data-name="Trazado 1297034" d="M1157.313,1756.576a6.429,6.429,0,0,1-6.422-6.422v-182.79a6.429,6.429,0,0,1,6.422-6.422h245.5a6.429,6.429,0,0,1,6.422,6.422v182.791a6.429,6.429,0,0,1-6.422,6.422h-245.5Z" transform="translate(-1139.231 -1549.281)" fill="#fff"/>
            <path id="Trazado_1297035" data-name="Trazado 1297035" d="M2745.821,1901.92l23.046,33.252H2724.13Z" transform="translate(-2538.504 -1852.555)" fill="url(#linear-gradient-5)"/>
            <path id="Trazado_1297036" data-name="Trazado 1297036" d="M1281.131,1560.94H1157.313a6.429,6.429,0,0,0-6.422,6.422v182.791a6.43,6.43,0,0,0,6.422,6.422h123.818Z" transform="translate(-1139.231 -1549.28)" fill="url(#linear-gradient-6)"/>
          </g>
          <path id="Trazado_1297037" data-name="Trazado 1297037" d="M662.24,2161.846c1-11.192-1.92-31.556,18.2-53.712,7.928-8.721,13.877-19.73,13.348-31.547a5.318,5.318,0,0,1,4.44-5.459,5.672,5.672,0,0,1,3.3.446c4.6,1.911,9.418,5.969,10.209,14.659,1.581,17.319-12.862,33.7-7.334,41.419" transform="translate(-640.723 -2002.975)" fill="#ffbeab"/>
          <path id="Trazado_1297038" data-name="Trazado 1297038" d="M540.969,2092.084c-4.176,6.7-10,12.238-14.322,18.853a51.312,51.312,0,0,0-6.533,40.664c2.011,7.552,5.769,15.578,2.757,22.793-2.675,6.4-10.046,10.073-12.147,16.688-3.13,9.845,6.915,21.01,2.238,30.218a11.545,11.545,0,0,1-3.685,4.2l-22.311-25.368s12.013-15.343,15.368-20.892c2.308-3.815,3.012-6.178,4.013-17.379s-1.92-31.556,18.2-53.712c7.928-8.72,13.877-19.73,13.348-31.546a5.366,5.366,0,0,1,7.316-5.178c.145.055.282.109.427.164C546.493,2078.691,544.045,2087.162,540.969,2092.084Z" transform="translate(-484.831 -2002.995)" fill="#f9ad9b"/>
          <path id="Trazado_1297039" data-name="Trazado 1297039" d="M936.253,2096.016a34.614,34.614,0,0,0,1.247-10.682,5.2,5.2,0,0,1,2.129-4.459A9.711,9.711,0,0,1,936.253,2096.016Z" transform="translate(-884.436 -2011.721)" fill="#fff"/>
          <path id="Trazado_1297040" data-name="Trazado 1297040" d="M3578.323,2161.875c-1-11.192,1.92-31.556-18.2-53.712-6.642-7.307-10.127-14.158-11.856-19.991q-.137-.437-.246-.873a34.621,34.621,0,0,1-1.247-10.683,5.194,5.194,0,0,0-2.129-4.458,5.4,5.4,0,0,0-5.187-.719c-.145.055-.282.109-.427.164-4.6,1.911-9.418,5.969-10.209,14.658-.728,7.971,1.948,15.76,4.5,22.6q.75,1.993,1.446,3.858c2.32,6.269,3.867,11.492,1.383,14.959" transform="translate(-3190.217 -2003.005)" fill="#ffbeab"/>
          <path id="Trazado_1297041" data-name="Trazado 1297041" d="M3625.409,2092.091c4.176,6.7,10,12.239,14.322,18.854a51.313,51.313,0,0,1,6.533,40.664c-2.011,7.552-5.769,15.578-2.757,22.793,2.675,6.4,10.045,10.073,12.147,16.688,3.13,9.845-6.915,21.01-2.238,30.218a11.551,11.551,0,0,0,3.685,4.2l22.312-25.369s-12.013-15.343-15.369-20.891c-2.307-3.816-3.012-6.178-4.013-17.379s1.92-31.556-18.2-53.712c-6.642-7.307-10.127-14.158-11.856-19.991q-.137-.437-.246-.874a34.616,34.616,0,0,1-1.247-10.682,5.2,5.2,0,0,0-2.129-4.459,5.4,5.4,0,0,0-5.187-.719c-.145.055-.282.109-.427.164C3619.885,2078.7,3622.334,2087.169,3625.409,2092.091Z" transform="translate(-3271.925 -2003.002)" fill="#f9ad9b"/>
          <path id="Trazado_1297042" data-name="Trazado 1297042" d="M3651.91,2087.165a9.717,9.717,0,0,0,5.7,8.844,34.624,34.624,0,0,1-1.247-10.682,5.194,5.194,0,0,0-2.129-4.459A9.682,9.682,0,0,0,3651.91,2087.165Z" transform="translate(-3299.801 -2011.715)" fill="#fff"/>
          <path id="Trazado_1297043" data-name="Trazado 1297043" d="M3777.5,3320.1c-9.374,32.6-73.828-23.493-95.09,0l-77.388-146.882c29.547-12.544,50.352-34.238,62.692-66.086Z" transform="translate(-3258.099 -2924.495)" fill="url(#linear-gradient-7)"/>
        </g>
        <path id="Trazado_1297044" data-name="Trazado 1297044" d="M494.153,3173.216,392.725,3326.64c-3.191-3.526-36.134,3.73-39.092,0-17.777-22.5-40.981,20.153-48.6-6.339l126.415-213.17C443.787,3138.979,464.607,3160.672,494.153,3173.216Z" transform="translate(-68.437 -2379.348)" fill="url(#linear-gradient-7)"/>
        <g id="Grupo_1241262" data-name="Grupo 1241262" transform="translate(448.443 688.248)">
          <g id="Grupo_1241257" data-name="Grupo 1241257" transform="translate(0 0)">
            <rect id="Rectángulo_423187" data-name="Rectángulo 423187" width="11.743" height="55.09" fill="#fff"/>
            <rect id="Rectángulo_423188" data-name="Rectángulo 423188" width="11.743" height="41.796" transform="translate(0 13.295)" fill="url(#linear-gradient-5)"/>
          </g>
          <g id="Grupo_1241258" data-name="Grupo 1241258" transform="translate(23.43 0)">
            <rect id="Rectángulo_423189" data-name="Rectángulo 423189" width="11.743" height="55.09" fill="#fff"/>
            <rect id="Rectángulo_423190" data-name="Rectángulo 423190" width="11.743" height="22.565" transform="translate(0 32.525)" fill="#23194c"/>
          </g>
          <g id="Grupo_1241259" data-name="Grupo 1241259" transform="translate(46.861 0)">
            <rect id="Rectángulo_423191" data-name="Rectángulo 423191" width="11.743" height="55.09" fill="#fff"/>
            <rect id="Rectángulo_423192" data-name="Rectángulo 423192" width="11.743" height="36.084" transform="translate(0 19.006)" fill="url(#linear-gradient-10)"/>
          </g>
          <g id="Grupo_1241260" data-name="Grupo 1241260" transform="translate(70.29 0)">
            <rect id="Rectángulo_423193" data-name="Rectángulo 423193" width="11.743" height="55.09" fill="#fff"/>
            <rect id="Rectángulo_423194" data-name="Rectángulo 423194" width="11.743" height="16.091" transform="translate(0 38.999)" fill="#23194c"/>
          </g>
          <g id="Grupo_1241261" data-name="Grupo 1241261" transform="translate(93.721 0)">
            <rect id="Rectángulo_423195" data-name="Rectángulo 423195" width="11.743" height="55.09" fill="#fff"/>
            <rect id="Rectángulo_423196" data-name="Rectángulo 423196" width="11.743" height="37.416" transform="translate(0 17.674)" fill="url(#linear-gradient-10)"/>
          </g>
        </g>
        <g id="Grupo_1241263" data-name="Grupo 1241263" transform="translate(463.585 565.914)">
          <path id="Trazado_1297045" data-name="Trazado 1297045" d="M1395.825,1680.877H1377.24a37.593,37.593,0,0,1,37.577-37.577l.011.011v18.563A19.009,19.009,0,0,0,1395.825,1680.877Z" transform="translate(-1377.234 -1643.3)" fill="url(#linear-gradient-5)"/>
          <path id="Trazado_1297046" data-name="Trazado 1297046" d="M1754.749,1680.966h-18.585a19.008,19.008,0,0,0-19-19V1643.4a37.583,37.583,0,0,1,37.588,37.566Z" transform="translate(-1679.568 -1643.389)" fill="#fff"/>
          <path id="Trazado_1297047" data-name="Trazado 1297047" d="M1452.367,1983.12a37.56,37.56,0,0,1-37.589,37.558v.016a37.584,37.584,0,0,1-37.59-37.574h18.585a19,19,0,0,0,38.01,0Z" transform="translate(-1377.188 -1945.543)" fill="#c8c7ff"/>
        </g>
        <g id="Grupo_1241265" data-name="Grupo 1241265" transform="translate(448.443 651.148)">
          <rect id="Rectángulo_423197" data-name="Rectángulo 423197" width="105.463" height="24.277" transform="translate(0)" fill="#fff"/>
          <path id="Trazado_1297048" data-name="Trazado 1297048" d="M1292.628,2457.547l-8.246,8.246-8.233-8.246,8.247-8.247Z" transform="translate(-1272.181 -2445.407)" fill="url(#linear-gradient-13)"/>
          <g id="Grupo_1241264" data-name="Grupo 1241264" transform="translate(26.459 4.315)">
            <rect id="Rectángulo_423198" data-name="Rectángulo 423198" width="72.955" height="2.888" fill="url(#linear-gradient-14)"/>
            <rect id="Rectángulo_423199" data-name="Rectángulo 423199" width="65.201" height="2.875" transform="translate(0 6.387)" fill="url(#linear-gradient-15)"/>
            <rect id="Rectángulo_423200" data-name="Rectángulo 423200" width="54.346" height="2.889" transform="translate(0 12.76)" fill="url(#linear-gradient-16)"/>
          </g>
        </g>
        <g id="Grupo_1241267" data-name="Grupo 1241267" transform="translate(579.918 564.238)">
          <g id="Grupo_1241266" data-name="Grupo 1241266" transform="translate(0)">
            <path id="Trazado_1297049" data-name="Trazado 1297049" d="M2536.174,1695.025H2430.911a1.675,1.675,0,0,1-1.675-1.675v-63.527a1.675,1.675,0,1,1,3.351,0v61.852h103.588a1.675,1.675,0,1,1,0,3.351Z" transform="translate(-2429.235 -1628.147)" fill="#23194c"/>
          </g>
        </g>
        <path id="Trazado_1297050" data-name="Trazado 1297050" d="M3133.585,1972.821H3100.92l16.219-28.571Z" transform="translate(-2446.728 -1345.057)" fill="url(#linear-gradient-5)"/>
        <path id="Trazado_1297051" data-name="Trazado 1297051" d="M2473.041,1913.51l21.611,31.97H2459.54v-10.42Z" transform="translate(-1876.271 -1317.717)" fill="url(#linear-gradient-5)"/>
        <g id="Grupo_1241268" data-name="Grupo 1241268" transform="translate(651.41 565.207)">
          <rect id="Rectángulo_423201" data-name="Rectángulo 423201" width="35.447" height="4.109" fill="#c8c7ff"/>
          <rect id="Rectángulo_423202" data-name="Rectángulo 423202" width="35.447" height="4.109" transform="translate(0 9.014)" fill="#c8c7ff"/>
          <rect id="Rectángulo_423203" data-name="Rectángulo 423203" width="35.447" height="4.109" transform="translate(0 18.03)" fill="#c8c7ff"/>
        </g>
        <g id="Grupo_1241269" data-name="Grupo 1241269" transform="translate(583.568 644.722)">
          <rect id="Rectángulo_423204" data-name="Rectángulo 423204" width="12.967" height="18.212" transform="translate(0 32.781)" fill="url(#linear-gradient-5)"/>
          <rect id="Rectángulo_423205" data-name="Rectángulo 423205" width="12.967" height="33.865" transform="translate(22.251 17.127)" fill="url(#linear-gradient-7)"/>
          <rect id="Rectángulo_423206" data-name="Rectángulo 423206" width="12.967" height="50.993" transform="translate(44.501 0)" fill="url(#linear-gradient-5)"/>
          <rect id="Rectángulo_423207" data-name="Rectángulo 423207" width="12.967" height="37.097" transform="translate(89.001 13.895)" fill="url(#linear-gradient-22)"/>
          <rect id="Rectángulo_423208" data-name="Rectángulo 423208" width="12.967" height="38.808" transform="translate(66.752 12.185)" fill="url(#linear-gradient-7)"/>
        </g>
        <g id="Grupo_1241270" data-name="Grupo 1241270" transform="translate(583.787 710.405)">
          <rect id="Rectángulo_423209" data-name="Rectángulo 423209" width="17.381" height="4.318" transform="translate(84.837 0)" fill="#c8c7ff"/>
          <rect id="Rectángulo_423210" data-name="Rectángulo 423210" width="76.095" height="4.318" transform="translate(0 0)" fill="#c8c7ff"/>
          <rect id="Rectángulo_423211" data-name="Rectángulo 423211" width="102.218" height="4.318" transform="translate(0 13.23)" fill="#c8c7ff"/>
          <rect id="Rectángulo_423212" data-name="Rectángulo 423212" width="27.653" height="4.318" transform="translate(0 26.459)" fill="#c8c7ff"/>
          <rect id="Rectángulo_423213" data-name="Rectángulo 423213" width="66.31" height="4.318" transform="translate(35.908 26.459)" fill="#c8c7ff"/>
        </g>
        <path id="Trazado_1297052" data-name="Trazado 1297052" d="M584.481,431.967V527l89.185-10.241V442.208Z" transform="translate(-208.553 0)" fill="#f9ba70"/>
        <path id="Trazado_1297053" data-name="Trazado 1297053" d="M933.388,860.827V898.2l-56.893,6.527A218.475,218.475,0,0,1,933.388,860.827Z" transform="translate(-468.276 -381.437)" fill="url(#linear-gradient-5)"/>
        <path id="Trazado_1297054" data-name="Trazado 1297054" d="M887.724,736.091v41.474l-11.278.616V735.475Z" transform="translate(-468.232 -269.947)" fill="#fff"/>
        <path id="Trazado_1297055" data-name="Trazado 1297055" d="M1060.511,926.866V946.8l-10.211.557V926.861Z" transform="translate(-622.862 -440.17)" fill="#fff"/>
        <path id="Trazado_1297056" data-name="Trazado 1297056" d="M1217.149,855.148v26.775l-9.289.506V854.935Z" transform="translate(-762.999 -376.197)" fill="#fff"/>
        <path id="Trazado_1297057" data-name="Trazado 1297057" d="M1060.492,1018.93v9.762l-10.213.554v-2.214Q1055.262,1022.813,1060.492,1018.93Z" transform="translate(-622.843 -522.058)" fill="#23194c"/>
        <path id="Trazado_1297058" data-name="Trazado 1297058" d="M1217.155,917.746v20.047l-9.3.5V923.763C1210.906,921.68,1213.994,919.669,1217.155,917.746Z" transform="translate(-763 -432.062)" fill="#23194c"/>
        <path id="Trazado_1297059" data-name="Trazado 1297059" d="M696.152,804.666V839.83l-12.522.683V804.248Z" transform="translate(-296.738 -331.115)" fill="#fff"/>
        <path id="Trazado_1297060" data-name="Trazado 1297060" d="M3932.663,1270.67v95.035l-89.183-10.24v-74.555Z" transform="translate(-3107.177 -745.961)" fill="#c8c7ff"/>
        <path id="Trazado_1297061" data-name="Trazado 1297061" d="M3885.254,1441.629l-41.755-4.793v-74.551l1.122-.131a217.7,217.7,0,0,1,30.027,49.39A215.839,215.839,0,0,1,3885.254,1441.629Z" transform="translate(-3107.194 -827.329)" fill="url(#linear-gradient-7)"/>
        <g id="Grupo_1241271" data-name="Grupo 1241271" transform="translate(753.514 545.433)">
          <path id="Trazado_1297062" data-name="Trazado 1297062" d="M4148.963,1601.645l-.006.012a14.686,14.686,0,0,1-26-13.667l.006-.013a14.686,14.686,0,0,1,26,13.667Z" transform="translate(-4107.765 -1566.626)" fill="none"/>
          <path id="Trazado_1297063" data-name="Trazado 1297063" d="M4322.1,1519.2l.006-.013a14.68,14.68,0,0,0-6.166-19.833l6.278-11.942a28.186,28.186,0,0,1,11.836,38.072Z" transform="translate(-4280.907 -1484.17)" fill="#fff"/>
          <path id="Trazado_1297064" data-name="Trazado 1297064" d="M4040.4,1479.446l-11.947-6.279a28.181,28.181,0,0,1,38.07-11.845l-6.279,11.947a14.677,14.677,0,0,0-19.829,6.163Z" transform="translate(-4025.207 -1458.079)" fill="#23194c"/>
          <path id="Trazado_1297065" data-name="Trazado 1297065" d="M4173.621,1781.172a28.172,28.172,0,0,1-38.055,11.83l6.279-11.961a14.685,14.685,0,0,0,19.829-6.149Z" transform="translate(-4120.479 -1739.859)" fill="#fff"/>
          <path id="Trazado_1297066" data-name="Trazado 1297066" d="M4035.765,1556.834a28.2,28.2,0,0,1-33.393-40.007,27.855,27.855,0,0,1,8.333-9.659q3.8,5.616,7.256,11.466a14.188,14.188,0,0,0-3.628,4.458l-.014.014a14.682,14.682,0,0,0,16.536,21.067Q4033.521,1550.4,4035.765,1556.834Z" transform="translate(-3999.13 -1501.74)" fill="url(#linear-gradient-5)"/>
        </g>
        <g id="Grupo_1241279" data-name="Grupo 1241279" transform="translate(524.923 795.348)">
          <path id="Trazado_1297067" data-name="Trazado 1297067" d="M2424.658,3768.233H2400.98a20.308,20.308,0,0,0-10.239-17.6,19.183,19.183,0,0,0-3.811-1.673,197.232,197.232,0,0,1,1.846-23.929,44.044,44.044,0,0,1,35.881,43.2Z" transform="translate(-2336.614 -3724.275)" fill="url(#linear-gradient-5)"/>
          <g id="Grupo_1241278" data-name="Grupo 1241278" transform="translate(0)">
            <g id="Grupo_1241272" data-name="Grupo 1241272">
              <rect id="Rectángulo_423214" data-name="Rectángulo 423214" width="67.699" height="11.686" transform="translate(23.107 62.021)" fill="#a39cef"/>
              <rect id="Rectángulo_423215" data-name="Rectángulo 423215" width="34.177" height="11.686" transform="translate(56.629 62.018)" fill="url(#linear-gradient-28)"/>
              <path id="Trazado_1297068" data-name="Trazado 1297068" d="M1975.935,3718.16a44.027,44.027,0,0,0-44.019,43.962h23.676a20.342,20.342,0,0,1,30.448-17.6l12.128-20.333A43.812,43.812,0,0,0,1975.935,3718.16Z" transform="translate(-1931.914 -3718.16)" fill="#a39cef"/>
              <path id="Trazado_1297069" data-name="Trazado 1297069" d="M1965.56,3797.639a20.363,20.363,0,0,0-9.99,17.461H1931.9a44,44,0,0,1,20.841-37.38A182.9,182.9,0,0,1,1965.56,3797.639Z" transform="translate(-1931.897 -3771.134)" fill="url(#linear-gradient-29)"/>
            </g>
            <g id="Grupo_1241277" data-name="Grupo 1241277" transform="translate(37.895 21.982)">
              <g id="Grupo_1241274" data-name="Grupo 1241274" transform="translate(0 13.662)">
                <g id="Grupo_1241273" data-name="Grupo 1241273" transform="translate(0 0)">
                  <circle id="Elipse_11551" data-name="Elipse 11551" cx="5.254" cy="5.254" r="5.254" transform="translate(0 10.227) rotate(-76.714)" fill="#7255ea"/>
                </g>
              </g>
              <g id="Grupo_1241276" data-name="Grupo 1241276" transform="translate(4.957)">
                <g id="Grupo_1241275" data-name="Grupo 1241275">
                  <path id="Trazado_1297070" data-name="Trazado 1297070" d="M2320.8,3938.269a1.374,1.374,0,0,1-.9-2.409l21.327-18.575a1.373,1.373,0,0,1,1.8,2.072l-21.327,18.575A1.371,1.371,0,0,1,2320.8,3938.269Z" transform="translate(-2319.424 -3916.947)" fill="#7255ea"/>
                </g>
              </g>
            </g>
          </g>
        </g>
      </g>
    </g>
    <g id="Grupo_1241281" data-name="Grupo 1241281" transform="translate(915 2936)">
      <g id="Rectángulo_419515" data-name="Rectángulo 419515" fill="#fff" stroke="#1d7083" stroke-width="1">
        <rect width="385" height="40" rx="20" stroke="none"/>
        <rect x="0.5" y="0.5" width="384" height="39" rx="19.5" fill="none"/>
      </g>
    </g>
    <g id="Grupo_1242801" data-name="Grupo 1242801">
      <g id="Trazado_1299262" data-name="Trazado 1299262" transform="translate(361 2761)" fill="#fff">
        <path d="M 246 39.5 L 20 39.5 C 17.36730003356934 39.5 14.81359958648682 38.98450088500977 12.40986633300781 37.96780014038086 C 10.08790016174316 36.98566818237305 8.002433776855469 35.5796012878418 6.211400032043457 33.78860092163086 C 4.420400142669678 31.99756622314453 3.014333248138428 29.91209983825684 2.03220009803772 27.59013366699219 C 1.015499949455261 25.18639945983887 0.5 22.63269996643066 0.5 20 C 0.5 17.36730003356934 1.015499949455261 14.81359958648682 2.03220009803772 12.40986633300781 C 3.014333248138428 10.08790016174316 4.420400142669678 8.002433776855469 6.211400032043457 6.211400032043457 C 8.002433776855469 4.420400142669678 10.08790016174316 3.014333248138428 12.40986633300781 2.03220009803772 C 14.81359958648682 1.015499949455261 17.36730003356934 0.5 20 0.5 L 246 0.5 C 248.6327056884766 0.5 251.1864013671875 1.015499949455261 253.5901336669922 2.03220009803772 C 255.9120941162109 3.014333248138428 257.99755859375 4.420400142669678 259.7886047363281 6.211400032043457 C 261.57958984375 8.002433776855469 262.9856567382812 10.08790016174316 263.9678039550781 12.40986633300781 C 264.9844970703125 14.81359958648682 265.5 17.36730003356934 265.5 20 C 265.5 22.63269996643066 264.9844970703125 25.18639945983887 263.9678039550781 27.59013366699219 C 262.9856567382812 29.91209983825684 261.57958984375 31.99756622314453 259.7886047363281 33.78860092163086 C 257.99755859375 35.5796012878418 255.9120941162109 36.98566818237305 253.5901336669922 37.96780014038086 C 251.1864013671875 38.98450088500977 248.6327056884766 39.5 246 39.5 Z" stroke="none"/>
        <path d="M 20 1 C 17.4345703125 1 14.94642639160156 1.502231597900391 12.60462951660156 2.492698669433594 C 10.34226989746094 3.449600219726562 8.31024169921875 4.819732666015625 6.564971923828125 6.564968109130859 C 4.819732666015625 8.310234069824219 3.4495849609375 10.34226608276367 2.492706298828125 12.60463333129883 C 1.502227783203125 14.94643402099609 1 17.43456649780273 1 20 C 1 22.56543350219727 1.502227783203125 25.05356597900391 2.492706298828125 27.39536666870117 C 3.4495849609375 29.65773391723633 4.819732666015625 31.68976593017578 6.564971923828125 33.43503189086914 C 8.31024169921875 35.18026733398438 10.34226989746094 36.55039978027344 12.60462951660156 37.50730133056641 C 14.94642639160156 38.49776840209961 17.4345703125 39 20 39 L 246 39 C 248.5654296875 39 251.0535736083984 38.49776840209961 253.3953399658203 37.50730133056641 C 255.6577301025391 36.55039978027344 257.6897583007812 35.18026733398438 259.4350280761719 33.43503189086914 C 261.1802673339844 31.68976593017578 262.5503540039062 29.65773391723633 263.5072937011719 27.39536666870117 C 264.4977722167969 25.05356597900391 265 22.56543350219727 265 20 C 265 17.43456649780273 264.4977722167969 14.94643402099609 263.5072937011719 12.60463333129883 C 262.5503540039062 10.34226608276367 261.1802673339844 8.310234069824219 259.4350280761719 6.564968109130859 C 257.6897583007812 4.819732666015625 255.6577301025391 3.449600219726562 253.3953399658203 2.492698669433594 C 251.0535736083984 1.502231597900391 248.5654296875 1 246 1 L 20 1 M 20 0 L 246 0 C 257.045654296875 0 266 8.954299926757812 266 20 C 266 31.04570007324219 257.045654296875 40 246 40 L 20 40 C 8.954315185546875 40 0 31.04570007324219 0 20 C 0 8.954299926757812 8.954315185546875 0 20 0 Z" stroke="none" fill="#1d7083"/>
      </g>
      <path id="Trazado_1299263" data-name="Trazado 1299263" d="M3.8-3.859V0H1.281V-11.2H5.234q4.234,0,4.234,3.57A3.426,3.426,0,0,1,8.254-4.9,4.813,4.813,0,0,1,5.008-3.859Zm0-5.406v3.492H4.8q2.016,0,2.016-1.766,0-1.727-2.016-1.727ZM14.2.2A4.3,4.3,0,0,1,11.06-.926,4.064,4.064,0,0,1,9.916-3.969,4.065,4.065,0,0,1,11.1-7.074,4.487,4.487,0,0,1,14.314-8.2a4.249,4.249,0,0,1,3.125,1.121,3.985,3.985,0,0,1,1.133,2.965A4.23,4.23,0,0,1,17.4-.961,4.348,4.348,0,0,1,14.2.2Zm.063-6.5a1.647,1.647,0,0,0-1.359.6A2.653,2.653,0,0,0,12.423-4q0,2.3,1.859,2.3,1.773,0,1.773-2.367Q16.056-6.3,14.267-6.3Zm11.127.531a2.142,2.142,0,0,0-1.039-.242,1.5,1.5,0,0,0-1.258.59,2.573,2.573,0,0,0-.453,1.605V0H20.175V-8h2.469v1.484h.031a2.136,2.136,0,0,1,2.109-1.625,1.59,1.59,0,0,1,.609.094Zm7.15,5.484A4.881,4.881,0,0,1,30.13.2,4.083,4.083,0,0,1,27.145-.922,3.859,3.859,0,0,1,26-3.8,4.251,4.251,0,0,1,27.227-7.02,4.518,4.518,0,0,1,30.5-8.2a4.2,4.2,0,0,1,2.047.375v2.094A2.814,2.814,0,0,0,30.817-6.3a2.275,2.275,0,0,0-1.684.621,2.317,2.317,0,0,0-.621,1.715A2.28,2.28,0,0,0,29.106-2.3a2.182,2.182,0,0,0,1.633.605,3.258,3.258,0,0,0,1.8-.578ZM41.35-3.3H36.131q.125,1.742,2.2,1.742a4.286,4.286,0,0,0,2.32-.625V-.4A6.1,6.1,0,0,1,37.764.2,4.058,4.058,0,0,1,34.756-.879a4.058,4.058,0,0,1-1.07-3,4.281,4.281,0,0,1,1.156-3.156A3.852,3.852,0,0,1,37.686-8.2a3.5,3.5,0,0,1,2.707,1.039,4,4,0,0,1,.957,2.82ZM39.061-4.812q0-1.719-1.391-1.719a1.328,1.328,0,0,0-1.027.492,2.234,2.234,0,0,0-.527,1.227ZM50.547,0H48.086V-4.445q0-1.859-1.328-1.859a1.318,1.318,0,0,0-1.055.492,1.875,1.875,0,0,0-.414,1.25V0H42.821V-8h2.469v1.266h.031A2.829,2.829,0,0,1,47.891-8.2q2.656,0,2.656,3.3Zm6.791-.094A3.649,3.649,0,0,1,55.689.2Q53.08.2,53.08-2.516V-6.18h-1.3V-8h1.3V-9.727l2.461-.7V-8h1.8v1.82h-1.8v3.234q0,1.25.992,1.25a1.673,1.673,0,0,0,.8-.227ZM65.386,0H63.05V-1.148h-.031A2.607,2.607,0,0,1,60.636.2,2.492,2.492,0,0,1,58.8-.465a2.366,2.366,0,0,1-.668-1.762q0-2.328,2.758-2.687L63.066-5.2q0-1.312-1.422-1.312a4.853,4.853,0,0,0-2.719.852V-7.523a6.116,6.116,0,0,1,1.41-.469,7.413,7.413,0,0,1,1.629-.2q3.422,0,3.422,3.414Zm-2.32-3.25v-.539L61.613-3.6q-1.2.156-1.2,1.086a.9.9,0,0,0,.293.691,1.126,1.126,0,0,0,.793.27,1.462,1.462,0,0,0,1.133-.48A1.735,1.735,0,0,0,63.066-3.25Zm5.525-6.016a1.442,1.442,0,0,1-1.023-.371,1.2,1.2,0,0,1-.4-.91,1.153,1.153,0,0,1,.4-.906,1.49,1.49,0,0,1,1.023-.352,1.486,1.486,0,0,1,1.027.352,1.158,1.158,0,0,1,.395.906,1.191,1.191,0,0,1-.395.922A1.466,1.466,0,0,1,68.591-9.266ZM69.81-.141A4.349,4.349,0,0,1,68.942,2.7a3.041,3.041,0,0,1-2.5,1.063,3.457,3.457,0,0,1-1.18-.234V1.586a1.923,1.923,0,0,0,.914.289q1.164,0,1.164-1.828V-8H69.81ZM79.077-3.3H73.858q.125,1.742,2.2,1.742a4.286,4.286,0,0,0,2.32-.625V-.4A6.1,6.1,0,0,1,75.491.2,4.058,4.058,0,0,1,72.483-.879a4.058,4.058,0,0,1-1.07-3,4.281,4.281,0,0,1,1.156-3.156A3.852,3.852,0,0,1,75.413-8.2,3.5,3.5,0,0,1,78.12-7.156a4,4,0,0,1,.957,2.82ZM76.788-4.812q0-1.719-1.391-1.719a1.328,1.328,0,0,0-1.027.492,2.234,2.234,0,0,0-.527,1.227ZM92.791,0H90.322V-1.1h-.031A2.768,2.768,0,0,1,87.814.2,3.033,3.033,0,0,1,85.4-.863a4.382,4.382,0,0,1-.914-2.957A4.77,4.77,0,0,1,85.494-7a3.287,3.287,0,0,1,2.641-1.2,2.246,2.246,0,0,1,2.156,1.109h.031v-4.758h2.469ZM90.369-3.891v-.6a1.893,1.893,0,0,0-.453-1.3,1.5,1.5,0,0,0-1.18-.516,1.487,1.487,0,0,0-1.281.645,2.993,2.993,0,0,0-.461,1.77,2.59,2.59,0,0,0,.445,1.625,1.479,1.479,0,0,0,1.234.57A1.485,1.485,0,0,0,89.9-2.3,2.507,2.507,0,0,0,90.369-3.891Zm11.689.594H96.84q.125,1.742,2.2,1.742a4.286,4.286,0,0,0,2.32-.625V-.4A6.1,6.1,0,0,1,98.472.2,4.058,4.058,0,0,1,95.465-.879a4.058,4.058,0,0,1-1.07-3A4.281,4.281,0,0,1,95.55-7.031,3.852,3.852,0,0,1,98.394-8.2,3.5,3.5,0,0,1,101.1-7.156a4,4,0,0,1,.957,2.82ZM99.769-4.812q0-1.719-1.391-1.719a1.328,1.328,0,0,0-1.027.492,2.234,2.234,0,0,0-.527,1.227ZM114.6,0h-2.336V-1.148h-.031A2.607,2.607,0,0,1,109.851.2a2.492,2.492,0,0,1-1.832-.66,2.366,2.366,0,0,1-.668-1.762q0-2.328,2.758-2.687L112.28-5.2q0-1.312-1.422-1.312a4.853,4.853,0,0,0-2.719.852V-7.523a6.116,6.116,0,0,1,1.41-.469,7.413,7.413,0,0,1,1.629-.2q3.422,0,3.422,3.414Zm-2.32-3.25v-.539l-1.453.188q-1.2.156-1.2,1.086a.9.9,0,0,0,.293.691,1.126,1.126,0,0,0,.793.27,1.462,1.462,0,0,0,1.133-.48A1.735,1.735,0,0,0,112.28-3.25ZM124.172-8,121.2,0h-2.812l-2.836-8h2.641l1.391,4.93a7.2,7.2,0,0,1,.273,1.422h.031a8.069,8.069,0,0,1,.289-1.375L121.594-8Zm7.47,8h-2.336V-1.148h-.031A2.607,2.607,0,0,1,126.893.2a2.492,2.492,0,0,1-1.832-.66,2.366,2.366,0,0,1-.668-1.762q0-2.328,2.758-2.687l2.172-.289q0-1.312-1.422-1.312a4.853,4.853,0,0,0-2.719.852V-7.523a6.116,6.116,0,0,1,1.41-.469,7.413,7.413,0,0,1,1.629-.2q3.422,0,3.422,3.414Zm-2.32-3.25v-.539l-1.453.188q-1.2.156-1.2,1.086a.9.9,0,0,0,.293.691,1.126,1.126,0,0,0,.793.27,1.462,1.462,0,0,0,1.133-.48A1.735,1.735,0,0,0,129.322-3.25Zm12,3.25h-2.461V-4.445q0-1.859-1.328-1.859a1.318,1.318,0,0,0-1.055.492,1.875,1.875,0,0,0-.414,1.25V0H133.6V-8h2.469v1.266h.031a2.829,2.829,0,0,1,2.57-1.461q2.656,0,2.656,3.3Zm8.017-.289A4.881,4.881,0,0,1,146.927.2a4.083,4.083,0,0,1-2.984-1.117A3.859,3.859,0,0,1,142.8-3.8a4.251,4.251,0,0,1,1.223-3.215,4.518,4.518,0,0,1,3.27-1.176,4.2,4.2,0,0,1,2.047.375v2.094a2.814,2.814,0,0,0-1.727-.578,2.275,2.275,0,0,0-1.684.621,2.317,2.317,0,0,0-.621,1.715A2.28,2.28,0,0,0,145.9-2.3a2.182,2.182,0,0,0,1.633.605,3.258,3.258,0,0,0,1.8-.578ZM158.148-3.3h-5.219q.125,1.742,2.2,1.742a4.286,4.286,0,0,0,2.32-.625V-.4A6.1,6.1,0,0,1,154.562.2a4.058,4.058,0,0,1-3.008-1.074,4.058,4.058,0,0,1-1.07-3,4.281,4.281,0,0,1,1.156-3.156A3.852,3.852,0,0,1,154.484-8.2a3.5,3.5,0,0,1,2.707,1.039,4,4,0,0,1,.957,2.82Zm-2.289-1.516q0-1.719-1.391-1.719a1.328,1.328,0,0,0-1.027.492,2.234,2.234,0,0,0-.527,1.227Zm13.394-5.141a2.494,2.494,0,0,0-.914-.187q-1.188,0-1.187,1.289V-8h1.828v1.82h-1.828V0H164.69V-6.18h-1.344V-8h1.344v-.992a2.88,2.88,0,0,1,.891-2.2A3.4,3.4,0,0,1,168-12.031a4.253,4.253,0,0,1,1.25.156ZM172.637,0h-2.469V-8h2.469Zm1.273-11.789-2.445,2.523h-1.781l2.031-2.523Zm.283,11.578v-2a5.256,5.256,0,0,0,1.215.547,4.028,4.028,0,0,0,1.145.18,2.455,2.455,0,0,0,1.035-.18.581.581,0,0,0,.379-.547.506.506,0,0,0-.172-.391,1.6,1.6,0,0,0-.441-.273,5.009,5.009,0,0,0-.59-.211q-.32-.094-.617-.211a5.914,5.914,0,0,1-.84-.387,2.427,2.427,0,0,1-.609-.48,1.889,1.889,0,0,1-.375-.633,2.525,2.525,0,0,1-.129-.852,2.192,2.192,0,0,1,.293-1.156,2.393,2.393,0,0,1,.781-.793,3.57,3.57,0,0,1,1.117-.453,5.825,5.825,0,0,1,1.309-.145,7.261,7.261,0,0,1,1.078.082,8.047,8.047,0,0,1,1.078.238v1.906a3.9,3.9,0,0,0-1-.41,4.235,4.235,0,0,0-1.051-.137,2.328,2.328,0,0,0-.457.043,1.505,1.505,0,0,0-.379.125.7.7,0,0,0-.258.211.486.486,0,0,0-.094.293.541.541,0,0,0,.141.375,1.221,1.221,0,0,0,.367.27,3.625,3.625,0,0,0,.5.2q.277.09.551.184a7.161,7.161,0,0,1,.891.375,2.848,2.848,0,0,1,.684.477,1.871,1.871,0,0,1,.438.641,2.277,2.277,0,0,1,.152.875,2.282,2.282,0,0,1-.309,1.215,2.471,2.471,0,0,1-.82.82,3.72,3.72,0,0,1-1.18.461A6.54,6.54,0,0,1,176.638.2,7.149,7.149,0,0,1,174.193-.211Zm8.814-9.055a1.442,1.442,0,0,1-1.023-.371,1.2,1.2,0,0,1-.4-.91,1.153,1.153,0,0,1,.4-.906,1.49,1.49,0,0,1,1.023-.352,1.486,1.486,0,0,1,1.027.352,1.158,1.158,0,0,1,.395.906,1.191,1.191,0,0,1-.395.922A1.466,1.466,0,0,1,183.007-9.266ZM184.226,0h-2.469V-8h2.469Zm8.142-.289A4.881,4.881,0,0,1,189.954.2,4.083,4.083,0,0,1,186.97-.922,3.859,3.859,0,0,1,185.829-3.8a4.251,4.251,0,0,1,1.223-3.215,4.518,4.518,0,0,1,3.27-1.176,4.2,4.2,0,0,1,2.047.375v2.094a2.814,2.814,0,0,0-1.727-.578,2.275,2.275,0,0,0-1.684.621,2.317,2.317,0,0,0-.621,1.715,2.28,2.28,0,0,0,.594,1.668,2.182,2.182,0,0,0,1.633.605,3.258,3.258,0,0,0,1.8-.578ZM197.8.2a4.3,4.3,0,0,1-3.145-1.121,4.064,4.064,0,0,1-1.145-3.043A4.065,4.065,0,0,1,194.7-7.074,4.487,4.487,0,0,1,197.909-8.2a4.249,4.249,0,0,1,3.125,1.121,3.985,3.985,0,0,1,1.133,2.965A4.23,4.23,0,0,1,201-.961,4.348,4.348,0,0,1,197.8.2Zm.063-6.5a1.647,1.647,0,0,0-1.359.6,2.653,2.653,0,0,0-.484,1.7q0,2.3,1.859,2.3,1.773,0,1.773-2.367Q199.651-6.3,197.862-6.3Z" transform="translate(373 2787)" fill="#212429"/>
      <g id="Trazado_1299266" data-name="Trazado 1299266" transform="translate(829 3081)" fill="#fff">
        <path d="M 256 39.5 L 20 39.5 C 17.36728477478027 39.5 14.81360721588135 38.98450088500977 12.40989303588867 37.9677848815918 C 10.08789253234863 36.98567962646484 8.002429008483887 35.57960891723633 6.211428642272949 33.78857040405273 C 4.42042875289917 31.99757194519043 3.014321327209473 29.91210746765137 2.032214403152466 27.59014320373535 C 1.015499949455261 25.18639373779297 0.5 22.63271522521973 0.5 20 C 0.5 17.36728477478027 1.015499949455261 14.81360721588135 2.032214403152466 12.40989303588867 C 3.014321327209473 10.08789253234863 4.42042875289917 8.002429008483887 6.211428642272949 6.211428642272949 C 8.002429008483887 4.42042875289917 10.08789253234863 3.014321327209473 12.40989303588867 2.032214403152466 C 14.81360721588135 1.015499949455261 17.36728477478027 0.5 20 0.5 L 256 0.5 C 258.6327209472656 0.5 261.1864013671875 1.015499949455261 263.5901184082031 2.032214403152466 C 265.912109375 3.014321327209473 267.99755859375 4.42042875289917 269.78857421875 6.211428642272949 C 271.5795593261719 8.002429008483887 272.9856872558594 10.08789253234863 273.9677734375 12.40989303588867 C 274.9844970703125 14.81360721588135 275.5 17.36728477478027 275.5 20 C 275.5 22.63271522521973 274.9844970703125 25.18639373779297 273.9677734375 27.59014320373535 C 272.9856872558594 29.91210746765137 271.5795593261719 31.99757194519043 269.78857421875 33.78857040405273 C 267.99755859375 35.57960891723633 265.912109375 36.98567962646484 263.5901184082031 37.9677848815918 C 261.1864013671875 38.98450088500977 258.6327209472656 39.5 256 39.5 Z" stroke="none"/>
        <path d="M 20 1 C 17.4345703125 1 14.94644165039062 1.502212524414062 12.60464477539062 2.492713928222656 C 10.34228515625 3.449607849121094 8.310211181640625 4.819713592529297 6.564971923828125 6.564964294433594 C 4.8197021484375 8.310214996337891 3.449615478515625 10.34225082397461 2.492706298828125 12.60464286804199 C 1.502227783203125 14.9464282989502 1 17.43457221984863 1 20 C 1 22.56542778015137 1.502227783203125 25.0535717010498 2.492706298828125 27.39535713195801 C 3.449615478515625 29.65771484375 4.8197021484375 31.68978500366211 6.564971923828125 33.43503570556641 C 8.310211181640625 35.1802864074707 10.34228515625 36.55039215087891 12.60464477539062 37.50728607177734 C 14.94644165039062 38.49778747558594 17.4345703125 39 20 39 L 256 39 C 258.5654296875 39 261.0535583496094 38.49778747558594 263.3953552246094 37.50728607177734 C 265.65771484375 36.55039215087891 267.6897888183594 35.1802864074707 269.4350280761719 33.43503570556641 C 271.1802978515625 31.68978500366211 272.5503845214844 29.65771484375 273.5072937011719 27.39535713195801 C 274.4977722167969 25.0535717010498 275 22.56542778015137 275 20 C 275 17.43457221984863 274.4977722167969 14.9464282989502 273.5072937011719 12.60464286804199 C 272.5503845214844 10.34225082397461 271.1802978515625 8.310214996337891 269.4350280761719 6.564964294433594 C 267.6897888183594 4.819713592529297 265.65771484375 3.449607849121094 263.3953552246094 2.492713928222656 C 261.0535583496094 1.502212524414062 258.5654296875 1 256 1 L 20 1 M 20 0 L 256 0 C 267.0456848144531 0 276 8.954286575317383 276 20 C 276 31.04567718505859 267.0456848144531 40 256 40 L 20 40 C 8.954315185546875 40 0 31.04567718505859 0 20 C 0 8.954286575317383 8.954315185546875 0 20 0 Z" stroke="none" fill="#1d7083"/>
      </g>
      <path id="Trazado_1299267" data-name="Trazado 1299267" d="M9.313-.4A7.388,7.388,0,0,1,6.109.2,5.4,5.4,0,0,1,2.055-1.32,5.54,5.54,0,0,1,.578-5.359a5.919,5.919,0,0,1,1.66-4.359,5.807,5.807,0,0,1,4.309-1.672,8.058,8.058,0,0,1,2.766.414v2.43A4.9,4.9,0,0,0,6.75-9.219,3.4,3.4,0,0,0,4.2-8.227a3.682,3.682,0,0,0-.969,2.688,3.611,3.611,0,0,0,.914,2.59,3.229,3.229,0,0,0,2.461.965,5.249,5.249,0,0,0,2.7-.719ZM14.838.2A4.3,4.3,0,0,1,11.693-.926a4.064,4.064,0,0,1-1.145-3.043,4.065,4.065,0,0,1,1.188-3.105A4.487,4.487,0,0,1,14.947-8.2a4.249,4.249,0,0,1,3.125,1.121A3.985,3.985,0,0,1,19.2-4.109,4.23,4.23,0,0,1,18.037-.961,4.348,4.348,0,0,1,14.838.2ZM14.9-6.3a1.647,1.647,0,0,0-1.359.6A2.653,2.653,0,0,0,13.056-4q0,2.3,1.859,2.3,1.773,0,1.773-2.367Q16.689-6.3,14.9-6.3ZM20.284-.211v-2a5.256,5.256,0,0,0,1.215.547,4.028,4.028,0,0,0,1.145.18,2.455,2.455,0,0,0,1.035-.18.581.581,0,0,0,.379-.547.506.506,0,0,0-.172-.391,1.6,1.6,0,0,0-.441-.273,5.009,5.009,0,0,0-.59-.211q-.32-.094-.617-.211a5.913,5.913,0,0,1-.84-.387,2.427,2.427,0,0,1-.609-.48,1.889,1.889,0,0,1-.375-.633,2.525,2.525,0,0,1-.129-.852A2.192,2.192,0,0,1,20.577-6.8a2.393,2.393,0,0,1,.781-.793,3.57,3.57,0,0,1,1.117-.453A5.825,5.825,0,0,1,23.784-8.2a7.261,7.261,0,0,1,1.078.082,8.047,8.047,0,0,1,1.078.238v1.906a3.9,3.9,0,0,0-1-.41,4.235,4.235,0,0,0-1.051-.137,2.328,2.328,0,0,0-.457.043,1.505,1.505,0,0,0-.379.125.7.7,0,0,0-.258.211.486.486,0,0,0-.094.293.541.541,0,0,0,.141.375,1.221,1.221,0,0,0,.367.27,3.625,3.625,0,0,0,.5.2q.277.09.551.184a7.161,7.161,0,0,1,.891.375,2.848,2.848,0,0,1,.684.477,1.871,1.871,0,0,1,.438.641,2.277,2.277,0,0,1,.152.875,2.282,2.282,0,0,1-.309,1.215,2.471,2.471,0,0,1-.82.82,3.72,3.72,0,0,1-1.18.461A6.54,6.54,0,0,1,22.73.2,7.149,7.149,0,0,1,20.284-.211Zm12.4.117A3.649,3.649,0,0,1,31.036.2q-2.609,0-2.609-2.711V-6.18h-1.3V-8h1.3V-9.727l2.461-.7V-8h1.8v1.82h-1.8v3.234q0,1.25.992,1.25a1.673,1.673,0,0,0,.8-.227ZM37.827.2A4.3,4.3,0,0,1,34.682-.926a4.064,4.064,0,0,1-1.145-3.043,4.065,4.065,0,0,1,1.188-3.105A4.487,4.487,0,0,1,37.936-8.2a4.249,4.249,0,0,1,3.125,1.121,3.985,3.985,0,0,1,1.133,2.965A4.23,4.23,0,0,1,41.026-.961,4.348,4.348,0,0,1,37.827.2Zm.063-6.5a1.647,1.647,0,0,0-1.359.6A2.653,2.653,0,0,0,36.045-4q0,2.3,1.859,2.3,1.773,0,1.773-2.367Q39.678-6.3,37.889-6.3ZM43.274-.211v-2a5.256,5.256,0,0,0,1.215.547,4.028,4.028,0,0,0,1.145.18,2.455,2.455,0,0,0,1.035-.18.581.581,0,0,0,.379-.547.506.506,0,0,0-.172-.391,1.6,1.6,0,0,0-.441-.273,5.009,5.009,0,0,0-.59-.211q-.32-.094-.617-.211a5.913,5.913,0,0,1-.84-.387,2.427,2.427,0,0,1-.609-.48A1.889,1.889,0,0,1,43.4-4.8a2.525,2.525,0,0,1-.129-.852A2.192,2.192,0,0,1,43.567-6.8a2.393,2.393,0,0,1,.781-.793,3.57,3.57,0,0,1,1.117-.453A5.825,5.825,0,0,1,46.774-8.2a7.261,7.261,0,0,1,1.078.082,8.047,8.047,0,0,1,1.078.238v1.906a3.9,3.9,0,0,0-1-.41,4.235,4.235,0,0,0-1.051-.137,2.328,2.328,0,0,0-.457.043,1.505,1.505,0,0,0-.379.125.7.7,0,0,0-.258.211.486.486,0,0,0-.094.293.541.541,0,0,0,.141.375,1.221,1.221,0,0,0,.367.27,3.625,3.625,0,0,0,.5.2q.277.09.551.184a7.161,7.161,0,0,1,.891.375,2.848,2.848,0,0,1,.684.477,1.871,1.871,0,0,1,.438.641,2.277,2.277,0,0,1,.152.875,2.282,2.282,0,0,1-.309,1.215,2.471,2.471,0,0,1-.82.82,3.72,3.72,0,0,1-1.18.461A6.54,6.54,0,0,1,45.719.2,7.149,7.149,0,0,1,43.274-.211ZM61.91,0H59.574V-1.148h-.031A2.607,2.607,0,0,1,57.16.2a2.492,2.492,0,0,1-1.832-.66,2.366,2.366,0,0,1-.668-1.762q0-2.328,2.758-2.687L59.589-5.2q0-1.312-1.422-1.312a4.853,4.853,0,0,0-2.719.852V-7.523a6.116,6.116,0,0,1,1.41-.469,7.413,7.413,0,0,1,1.629-.2q3.422,0,3.422,3.414Zm-2.32-3.25v-.539L58.136-3.6q-1.2.156-1.2,1.086a.9.9,0,0,0,.293.691,1.126,1.126,0,0,0,.793.27,1.462,1.462,0,0,0,1.133-.48A1.735,1.735,0,0,0,59.589-3.25ZM69.927-.289A4.881,4.881,0,0,1,67.513.2,4.083,4.083,0,0,1,64.528-.922,3.859,3.859,0,0,1,63.388-3.8,4.251,4.251,0,0,1,64.61-7.02,4.518,4.518,0,0,1,67.88-8.2a4.2,4.2,0,0,1,2.047.375v2.094A2.814,2.814,0,0,0,68.2-6.3a2.275,2.275,0,0,0-1.684.621A2.317,2.317,0,0,0,65.9-3.969,2.28,2.28,0,0,0,66.489-2.3a2.182,2.182,0,0,0,1.633.605,3.258,3.258,0,0,0,1.8-.578ZM79.147,0H76.686V-1.219h-.039A2.792,2.792,0,0,1,74.2.2q-2.781,0-2.781-3.367V-8h2.461v4.609q0,1.7,1.344,1.7a1.329,1.329,0,0,0,1.063-.465,1.874,1.874,0,0,0,.4-1.262V-8h2.461ZM93.93,0H91.469V-4.562q0-1.742-1.281-1.742a1.177,1.177,0,0,0-.992.523,2.151,2.151,0,0,0-.383,1.3V0H86.344V-4.609q0-1.7-1.258-1.7a1.206,1.206,0,0,0-1.012.5A2.2,2.2,0,0,0,83.7-4.445V0H81.227V-8H83.7v1.25h.031A2.952,2.952,0,0,1,84.8-7.793a2.952,2.952,0,0,1,1.512-.4A2.3,2.3,0,0,1,88.633-6.7,2.959,2.959,0,0,1,91.321-8.2q2.609,0,2.609,3.219Zm9.556,0h-2.461V-1.219h-.039A2.792,2.792,0,0,1,98.541.2Q95.76.2,95.76-3.172V-8h2.461v4.609q0,1.7,1.344,1.7a1.329,1.329,0,0,0,1.062-.465,1.874,1.874,0,0,0,.4-1.262V-8h2.461Zm4.548,0h-2.469V-11.844h2.469Zm8.736,0h-2.336V-1.148H114.4A2.607,2.607,0,0,1,112.021.2a2.492,2.492,0,0,1-1.832-.66,2.366,2.366,0,0,1-.668-1.762q0-2.328,2.758-2.687l2.172-.289q0-1.312-1.422-1.312a4.853,4.853,0,0,0-2.719.852V-7.523a6.116,6.116,0,0,1,1.41-.469,7.413,7.413,0,0,1,1.629-.2q3.422,0,3.422,3.414Zm-2.32-3.25v-.539L113-3.6q-1.2.156-1.2,1.086a.9.9,0,0,0,.293.691,1.126,1.126,0,0,0,.793.27,1.462,1.462,0,0,0,1.133-.48A1.735,1.735,0,0,0,114.451-3.25ZM126.554,0h-2.469V-1.1h-.031A2.768,2.768,0,0,1,121.577.2a3.033,3.033,0,0,1-2.414-1.059,4.382,4.382,0,0,1-.914-2.957A4.77,4.77,0,0,1,119.257-7,3.287,3.287,0,0,1,121.9-8.2a2.246,2.246,0,0,1,2.156,1.109h.031v-4.758h2.469Zm-2.422-3.891v-.6a1.893,1.893,0,0,0-.453-1.3A1.5,1.5,0,0,0,122.5-6.3a1.487,1.487,0,0,0-1.281.645,2.993,2.993,0,0,0-.461,1.77,2.59,2.59,0,0,0,.445,1.625,1.479,1.479,0,0,0,1.234.57,1.485,1.485,0,0,0,1.223-.6A2.507,2.507,0,0,0,124.132-3.891ZM132.446.2A4.3,4.3,0,0,1,129.3-.926a4.064,4.064,0,0,1-1.145-3.043,4.065,4.065,0,0,1,1.188-3.105A4.487,4.487,0,0,1,132.555-8.2a4.249,4.249,0,0,1,3.125,1.121,3.985,3.985,0,0,1,1.133,2.965,4.23,4.23,0,0,1-1.168,3.148A4.348,4.348,0,0,1,132.446.2Zm.063-6.5a1.647,1.647,0,0,0-1.359.6,2.653,2.653,0,0,0-.484,1.7q0,2.3,1.859,2.3,1.773,0,1.773-2.367Q134.3-6.3,132.508-6.3Zm5.384,6.094v-2a5.256,5.256,0,0,0,1.215.547,4.028,4.028,0,0,0,1.145.18,2.455,2.455,0,0,0,1.035-.18.581.581,0,0,0,.379-.547.506.506,0,0,0-.172-.391,1.6,1.6,0,0,0-.441-.273,5.009,5.009,0,0,0-.59-.211q-.32-.094-.617-.211a5.914,5.914,0,0,1-.84-.387,2.427,2.427,0,0,1-.609-.48,1.889,1.889,0,0,1-.375-.633,2.525,2.525,0,0,1-.129-.852,2.192,2.192,0,0,1,.293-1.156,2.393,2.393,0,0,1,.781-.793,3.57,3.57,0,0,1,1.117-.453,5.825,5.825,0,0,1,1.309-.145,7.261,7.261,0,0,1,1.078.082,8.047,8.047,0,0,1,1.078.238v1.906a3.9,3.9,0,0,0-1-.41,4.235,4.235,0,0,0-1.051-.137,2.328,2.328,0,0,0-.457.043,1.505,1.505,0,0,0-.379.125.7.7,0,0,0-.258.211.486.486,0,0,0-.094.293.541.541,0,0,0,.141.375,1.221,1.221,0,0,0,.367.27,3.625,3.625,0,0,0,.5.2q.277.09.551.184a7.161,7.161,0,0,1,.891.375,2.848,2.848,0,0,1,.684.477,1.871,1.871,0,0,1,.438.641,2.277,2.277,0,0,1,.152.875,2.282,2.282,0,0,1-.309,1.215,2.471,2.471,0,0,1-.82.82,3.72,3.72,0,0,1-1.18.461A6.54,6.54,0,0,1,140.338.2,7.149,7.149,0,0,1,137.893-.211Zm14.48-.719h-.031V3.68h-2.469V-8h2.469v1.2h.031a2.9,2.9,0,0,1,2.57-1.4,2.892,2.892,0,0,1,2.4,1.066,4.54,4.54,0,0,1,.848,2.9,4.922,4.922,0,0,1-.988,3.211A3.222,3.222,0,0,1,154.576.2,2.491,2.491,0,0,1,152.373-.93Zm-.07-3.281v.641a2.036,2.036,0,0,0,.438,1.352,1.424,1.424,0,0,0,1.148.523,1.514,1.514,0,0,0,1.309-.652,3.15,3.15,0,0,0,.465-1.848q0-2.109-1.641-2.109a1.541,1.541,0,0,0-1.238.574A2.29,2.29,0,0,0,152.3-4.211ZM163.609.2a4.3,4.3,0,0,1-3.145-1.121,4.064,4.064,0,0,1-1.145-3.043,4.065,4.065,0,0,1,1.188-3.105A4.487,4.487,0,0,1,163.718-8.2a4.249,4.249,0,0,1,3.125,1.121,3.985,3.985,0,0,1,1.133,2.965,4.23,4.23,0,0,1-1.168,3.148A4.348,4.348,0,0,1,163.609.2Zm.063-6.5a1.647,1.647,0,0,0-1.359.6,2.653,2.653,0,0,0-.484,1.7q0,2.3,1.859,2.3,1.773,0,1.773-2.367Q165.46-6.3,163.671-6.3Zm11.127.531a2.142,2.142,0,0,0-1.039-.242,1.5,1.5,0,0,0-1.258.59,2.573,2.573,0,0,0-.453,1.605V0h-2.469V-8h2.469v1.484h.031a2.136,2.136,0,0,1,2.109-1.625,1.59,1.59,0,0,1,.609.094Zm10.784-4.18a2.494,2.494,0,0,0-.914-.187q-1.188,0-1.187,1.289V-8h1.828v1.82h-1.828V0H181.02V-6.18h-1.344V-8h1.344v-.992a2.88,2.88,0,0,1,.891-2.2,3.4,3.4,0,0,1,2.422-.836,4.253,4.253,0,0,1,1.25.156ZM193.154,0h-2.336V-1.148h-.031A2.607,2.607,0,0,1,188.4.2a2.492,2.492,0,0,1-1.832-.66,2.366,2.366,0,0,1-.668-1.762q0-2.328,2.758-2.687l2.172-.289q0-1.312-1.422-1.312a4.853,4.853,0,0,0-2.719.852V-7.523a6.116,6.116,0,0,1,1.41-.469,7.413,7.413,0,0,1,1.629-.2q3.422,0,3.422,3.414Zm-2.32-3.25v-.539l-1.453.188q-1.2.156-1.2,1.086a.9.9,0,0,0,.293.691,1.126,1.126,0,0,0,.793.27,1.462,1.462,0,0,0,1.133-.48A1.735,1.735,0,0,0,190.834-3.25Zm3.752,3.039v-2a5.256,5.256,0,0,0,1.215.547,4.028,4.028,0,0,0,1.145.18,2.455,2.455,0,0,0,1.035-.18.581.581,0,0,0,.379-.547.506.506,0,0,0-.172-.391,1.6,1.6,0,0,0-.441-.273,5.009,5.009,0,0,0-.59-.211q-.32-.094-.617-.211a5.914,5.914,0,0,1-.84-.387,2.427,2.427,0,0,1-.609-.48,1.889,1.889,0,0,1-.375-.633,2.525,2.525,0,0,1-.129-.852,2.192,2.192,0,0,1,.293-1.156,2.393,2.393,0,0,1,.781-.793,3.57,3.57,0,0,1,1.117-.453,5.825,5.825,0,0,1,1.309-.145,7.261,7.261,0,0,1,1.078.082,8.047,8.047,0,0,1,1.078.238v1.906a3.9,3.9,0,0,0-1-.41,4.235,4.235,0,0,0-1.051-.137,2.328,2.328,0,0,0-.457.043,1.505,1.505,0,0,0-.379.125.7.7,0,0,0-.258.211.486.486,0,0,0-.094.293.541.541,0,0,0,.141.375,1.221,1.221,0,0,0,.367.27,3.625,3.625,0,0,0,.5.2q.277.09.551.184a7.161,7.161,0,0,1,.891.375,2.848,2.848,0,0,1,.684.477,1.871,1.871,0,0,1,.438.641,2.277,2.277,0,0,1,.152.875,2.282,2.282,0,0,1-.309,1.215,2.471,2.471,0,0,1-.82.82,3.72,3.72,0,0,1-1.18.461A6.54,6.54,0,0,1,197.031.2,7.149,7.149,0,0,1,194.585-.211ZM209.337-3.3h-5.219q.125,1.742,2.2,1.742a4.286,4.286,0,0,0,2.32-.625V-.4A6.1,6.1,0,0,1,205.751.2a4.058,4.058,0,0,1-3.008-1.074,4.058,4.058,0,0,1-1.07-3,4.281,4.281,0,0,1,1.156-3.156A3.852,3.852,0,0,1,205.673-8.2a3.5,3.5,0,0,1,2.707,1.039,4,4,0,0,1,.957,2.82Zm-2.289-1.516q0-1.719-1.391-1.719a1.328,1.328,0,0,0-1.027.492,2.234,2.234,0,0,0-.527,1.227Z" transform="translate(875 3107)" fill="#212429"/>
      <path id="Trazado_1299261" data-name="Trazado 1299261" d="M10.977,0H8.445V-4.562H3.8V0H1.281V-11.2H3.8v4.469H8.445V-11.2h2.531Zm6.134.2A4.3,4.3,0,0,1,13.966-.926a4.064,4.064,0,0,1-1.145-3.043,4.065,4.065,0,0,1,1.188-3.105A4.487,4.487,0,0,1,17.22-8.2a4.249,4.249,0,0,1,3.125,1.121,3.985,3.985,0,0,1,1.133,2.965A4.23,4.23,0,0,1,20.31-.961,4.348,4.348,0,0,1,17.111.2Zm.063-6.5a1.647,1.647,0,0,0-1.359.6A2.653,2.653,0,0,0,15.33-4q0,2.3,1.859,2.3,1.773,0,1.773-2.367Q18.963-6.3,17.173-6.3ZM28.3-5.773a2.142,2.142,0,0,0-1.039-.242A1.5,1.5,0,0,0,26-5.426,2.573,2.573,0,0,0,25.55-3.82V0H23.081V-8H25.55v1.484h.031a2.136,2.136,0,0,1,2.109-1.625,1.59,1.59,0,0,1,.609.094ZM36.106,0H33.77V-1.148h-.031A2.607,2.607,0,0,1,31.356.2a2.492,2.492,0,0,1-1.832-.66,2.366,2.366,0,0,1-.668-1.762q0-2.328,2.758-2.687L33.786-5.2q0-1.312-1.422-1.312a4.853,4.853,0,0,0-2.719.852V-7.523a6.116,6.116,0,0,1,1.41-.469,7.413,7.413,0,0,1,1.629-.2q3.422,0,3.422,3.414Zm-2.32-3.25v-.539L32.333-3.6q-1.2.156-1.2,1.086a.9.9,0,0,0,.293.691,1.126,1.126,0,0,0,.793.27,1.462,1.462,0,0,0,1.133-.48A1.735,1.735,0,0,0,33.786-3.25ZM37.538-.211v-2a5.256,5.256,0,0,0,1.215.547,4.028,4.028,0,0,0,1.145.18,2.455,2.455,0,0,0,1.035-.18.581.581,0,0,0,.379-.547.506.506,0,0,0-.172-.391,1.6,1.6,0,0,0-.441-.273,5.009,5.009,0,0,0-.59-.211q-.32-.094-.617-.211a5.913,5.913,0,0,1-.84-.387,2.427,2.427,0,0,1-.609-.48,1.889,1.889,0,0,1-.375-.633,2.525,2.525,0,0,1-.129-.852A2.192,2.192,0,0,1,37.831-6.8a2.393,2.393,0,0,1,.781-.793,3.57,3.57,0,0,1,1.117-.453A5.825,5.825,0,0,1,41.038-8.2a7.261,7.261,0,0,1,1.078.082,8.047,8.047,0,0,1,1.078.238v1.906a3.9,3.9,0,0,0-1-.41,4.235,4.235,0,0,0-1.051-.137,2.328,2.328,0,0,0-.457.043,1.505,1.505,0,0,0-.379.125.7.7,0,0,0-.258.211.486.486,0,0,0-.094.293.541.541,0,0,0,.141.375,1.221,1.221,0,0,0,.367.27,3.625,3.625,0,0,0,.5.2q.277.09.551.184a7.161,7.161,0,0,1,.891.375,2.848,2.848,0,0,1,.684.477,1.871,1.871,0,0,1,.438.641,2.277,2.277,0,0,1,.152.875A2.282,2.282,0,0,1,43.37-1.23a2.471,2.471,0,0,1-.82.82,3.72,3.72,0,0,1-1.18.461A6.54,6.54,0,0,1,39.983.2,7.149,7.149,0,0,1,37.538-.211Zm11.916-3.2H45.18V-5.133h4.273ZM59.252,0H56.791V-4.547q0-1.758-1.281-1.758a1.312,1.312,0,0,0-1.062.492,1.9,1.9,0,0,0-.406,1.25V0H51.572V-11.844h2.469v5.031h.031A2.805,2.805,0,0,1,56.533-8.2q2.719,0,2.719,3.281Zm5.767.2A4.3,4.3,0,0,1,61.874-.926,4.064,4.064,0,0,1,60.73-3.969a4.065,4.065,0,0,1,1.188-3.105A4.487,4.487,0,0,1,65.128-8.2a4.249,4.249,0,0,1,3.125,1.121,3.985,3.985,0,0,1,1.133,2.965A4.23,4.23,0,0,1,68.218-.961,4.348,4.348,0,0,1,65.019.2Zm.063-6.5a1.647,1.647,0,0,0-1.359.6A2.653,2.653,0,0,0,63.238-4q0,2.3,1.859,2.3,1.773,0,1.773-2.367Q66.871-6.3,65.082-6.3ZM83.692,0H81.232V-4.562q0-1.742-1.281-1.742a1.177,1.177,0,0,0-.992.523,2.151,2.151,0,0,0-.383,1.3V0H76.107V-4.609q0-1.7-1.258-1.7a1.206,1.206,0,0,0-1.012.5,2.2,2.2,0,0,0-.379,1.359V0H70.989V-8h2.469v1.25h.031a2.952,2.952,0,0,1,1.074-1.043,2.952,2.952,0,0,1,1.512-.4A2.3,2.3,0,0,1,78.4-6.7,2.959,2.959,0,0,1,81.083-8.2q2.609,0,2.609,3.219Zm4.455-.93h-.031V0H85.647V-11.844h2.469V-6.8h.031a2.929,2.929,0,0,1,2.6-1.4,2.855,2.855,0,0,1,2.383,1.063,4.582,4.582,0,0,1,.836,2.906,4.962,4.962,0,0,1-.977,3.211A3.181,3.181,0,0,1,90.382.2,2.521,2.521,0,0,1,88.147-.93ZM88.077-4.3v.82A1.872,1.872,0,0,0,88.522-2.2a1.449,1.449,0,0,0,1.141.508,1.514,1.514,0,0,0,1.309-.652A3.15,3.15,0,0,0,91.436-4.2a2.506,2.506,0,0,0-.426-1.551A1.437,1.437,0,0,0,89.8-6.3a1.569,1.569,0,0,0-1.23.555A2.107,2.107,0,0,0,88.077-4.3Zm12.713-1.469a2.142,2.142,0,0,0-1.039-.242,1.5,1.5,0,0,0-1.258.59,2.573,2.573,0,0,0-.453,1.605V0H95.571V-8h2.469v1.484h.031a2.136,2.136,0,0,1,2.109-1.625,1.59,1.59,0,0,1,.609.094ZM109.064-3.3h-5.219q.125,1.742,2.2,1.742a4.286,4.286,0,0,0,2.32-.625V-.4A6.1,6.1,0,0,1,105.479.2a4.058,4.058,0,0,1-3.008-1.074,4.058,4.058,0,0,1-1.07-3,4.281,4.281,0,0,1,1.156-3.156A3.852,3.852,0,0,1,105.4-8.2a3.5,3.5,0,0,1,2.707,1.039,4,4,0,0,1,.957,2.82Zm-2.289-1.516q0-1.719-1.391-1.719a1.328,1.328,0,0,0-1.027.492,2.234,2.234,0,0,0-.527,1.227ZM117.451-.93h-.031V3.68h-2.469V-8h2.469v1.2h.031a2.9,2.9,0,0,1,2.57-1.4,2.892,2.892,0,0,1,2.4,1.066,4.54,4.54,0,0,1,.848,2.9,4.922,4.922,0,0,1-.988,3.211A3.222,3.222,0,0,1,119.654.2,2.491,2.491,0,0,1,117.451-.93Zm-.07-3.281v.641a2.037,2.037,0,0,0,.438,1.352,1.424,1.424,0,0,0,1.148.523,1.514,1.514,0,0,0,1.309-.652A3.15,3.15,0,0,0,120.74-4.2q0-2.109-1.641-2.109a1.541,1.541,0,0,0-1.238.574A2.29,2.29,0,0,0,117.38-4.211ZM127.343,0h-2.469V-11.844h2.469Zm8.736,0h-2.336V-1.148h-.031A2.607,2.607,0,0,1,131.329.2a2.492,2.492,0,0,1-1.832-.66,2.366,2.366,0,0,1-.668-1.762q0-2.328,2.758-2.687l2.172-.289q0-1.312-1.422-1.312a4.853,4.853,0,0,0-2.719.852V-7.523a6.116,6.116,0,0,1,1.41-.469,7.413,7.413,0,0,1,1.629-.2q3.422,0,3.422,3.414Zm-2.32-3.25v-.539l-1.453.188q-1.2.156-1.2,1.086a.9.9,0,0,0,.293.691,1.126,1.126,0,0,0,.793.27,1.462,1.462,0,0,0,1.133-.48A1.735,1.735,0,0,0,133.758-3.25Zm12,3.25H143.3V-4.445q0-1.859-1.328-1.859a1.318,1.318,0,0,0-1.055.492,1.875,1.875,0,0,0-.414,1.25V0h-2.469V-8H140.5v1.266h.031A2.829,2.829,0,0,1,143.1-8.2q2.656,0,2.656,3.3Zm3.2-9.266a1.442,1.442,0,0,1-1.023-.371,1.2,1.2,0,0,1-.4-.91,1.153,1.153,0,0,1,.4-.906,1.49,1.49,0,0,1,1.023-.352,1.486,1.486,0,0,1,1.027.352,1.158,1.158,0,0,1,.395.906,1.191,1.191,0,0,1-.395.922A1.466,1.466,0,0,1,148.965-9.266ZM150.183,0h-2.469V-8h2.469Zm7.3-9.953a2.494,2.494,0,0,0-.914-.187q-1.188,0-1.187,1.289V-8h1.828v1.82H155.38V0h-2.461V-6.18h-1.344V-8h1.344v-.992a2.88,2.88,0,0,1,.891-2.2,3.4,3.4,0,0,1,2.422-.836,4.253,4.253,0,0,1,1.25.156Zm2.166.688a1.442,1.442,0,0,1-1.023-.371,1.2,1.2,0,0,1-.4-.91,1.153,1.153,0,0,1,.4-.906,1.49,1.49,0,0,1,1.023-.352,1.486,1.486,0,0,1,1.027.352,1.158,1.158,0,0,1,.395.906,1.191,1.191,0,0,1-.395.922A1.466,1.466,0,0,1,159.648-9.266ZM160.866,0H158.4V-8h2.469Zm8.142-.289A4.881,4.881,0,0,1,166.595.2,4.083,4.083,0,0,1,163.61-.922,3.859,3.859,0,0,1,162.47-3.8a4.251,4.251,0,0,1,1.223-3.215,4.518,4.518,0,0,1,3.27-1.176,4.2,4.2,0,0,1,2.047.375v2.094a2.814,2.814,0,0,0-1.727-.578,2.275,2.275,0,0,0-1.684.621,2.317,2.317,0,0,0-.621,1.715,2.28,2.28,0,0,0,.594,1.668A2.182,2.182,0,0,0,167.2-1.7a3.258,3.258,0,0,0,1.8-.578ZM177.284,0h-2.336V-1.148h-.031A2.607,2.607,0,0,1,172.534.2a2.492,2.492,0,0,1-1.832-.66,2.366,2.366,0,0,1-.668-1.762q0-2.328,2.758-2.687l2.172-.289q0-1.312-1.422-1.312a4.853,4.853,0,0,0-2.719.852V-7.523a6.116,6.116,0,0,1,1.41-.469,7.413,7.413,0,0,1,1.629-.2q3.422,0,3.422,3.414Zm-2.32-3.25v-.539L173.51-3.6q-1.2.156-1.2,1.086a.9.9,0,0,0,.293.691,1.126,1.126,0,0,0,.793.27,1.462,1.462,0,0,0,1.133-.48A1.735,1.735,0,0,0,174.963-3.25ZM187.066,0H184.6V-1.1h-.031A2.768,2.768,0,0,1,182.09.2a3.033,3.033,0,0,1-2.414-1.059,4.382,4.382,0,0,1-.914-2.957A4.77,4.77,0,0,1,179.77-7a3.287,3.287,0,0,1,2.641-1.2,2.246,2.246,0,0,1,2.156,1.109h.031v-4.758h2.469Zm-2.422-3.891v-.6a1.893,1.893,0,0,0-.453-1.3,1.5,1.5,0,0,0-1.18-.516,1.487,1.487,0,0,0-1.281.645,2.993,2.993,0,0,0-.461,1.77,2.59,2.59,0,0,0,.445,1.625,1.479,1.479,0,0,0,1.234.57,1.485,1.485,0,0,0,1.223-.6A2.507,2.507,0,0,0,184.645-3.891ZM195.8,0h-2.336V-1.148h-.031A2.607,2.607,0,0,1,191.052.2a2.492,2.492,0,0,1-1.832-.66,2.366,2.366,0,0,1-.668-1.762q0-2.328,2.758-2.687l2.172-.289q0-1.312-1.422-1.312a4.853,4.853,0,0,0-2.719.852V-7.523a6.116,6.116,0,0,1,1.41-.469,7.413,7.413,0,0,1,1.629-.2q3.422,0,3.422,3.414Zm-2.32-3.25v-.539l-1.453.188q-1.2.156-1.2,1.086a.9.9,0,0,0,.293.691,1.126,1.126,0,0,0,.793.27,1.462,1.462,0,0,0,1.133-.48A1.735,1.735,0,0,0,193.482-3.25Zm3.752,3.039v-2a5.256,5.256,0,0,0,1.215.547,4.028,4.028,0,0,0,1.145.18,2.455,2.455,0,0,0,1.035-.18.581.581,0,0,0,.379-.547.506.506,0,0,0-.172-.391,1.6,1.6,0,0,0-.441-.273,5.009,5.009,0,0,0-.59-.211q-.32-.094-.617-.211a5.914,5.914,0,0,1-.84-.387,2.427,2.427,0,0,1-.609-.48,1.889,1.889,0,0,1-.375-.633,2.525,2.525,0,0,1-.129-.852,2.192,2.192,0,0,1,.293-1.156,2.393,2.393,0,0,1,.781-.793,3.57,3.57,0,0,1,1.117-.453,5.825,5.825,0,0,1,1.309-.145,7.261,7.261,0,0,1,1.078.082,8.047,8.047,0,0,1,1.078.238v1.906a3.9,3.9,0,0,0-1-.41,4.235,4.235,0,0,0-1.051-.137,2.328,2.328,0,0,0-.457.043,1.505,1.505,0,0,0-.379.125.7.7,0,0,0-.258.211.486.486,0,0,0-.094.293.541.541,0,0,0,.141.375,1.221,1.221,0,0,0,.367.27,3.625,3.625,0,0,0,.5.2q.277.09.551.184a7.161,7.161,0,0,1,.891.375,2.848,2.848,0,0,1,.684.477,1.871,1.871,0,0,1,.438.641,2.277,2.277,0,0,1,.152.875,2.282,2.282,0,0,1-.309,1.215,2.471,2.471,0,0,1-.82.82,3.72,3.72,0,0,1-1.18.461A6.54,6.54,0,0,1,199.679.2,7.149,7.149,0,0,1,197.234-.211ZM216.831-8l-2.977,8h-2.812l-2.836-8h2.641l1.391,4.93a7.2,7.2,0,0,1,.273,1.422h.031a8.069,8.069,0,0,1,.289-1.375L214.253-8Zm.533,7.789v-2a5.256,5.256,0,0,0,1.215.547,4.028,4.028,0,0,0,1.145.18,2.455,2.455,0,0,0,1.035-.18.581.581,0,0,0,.379-.547.506.506,0,0,0-.172-.391,1.6,1.6,0,0,0-.441-.273,5.009,5.009,0,0,0-.59-.211q-.32-.094-.617-.211a5.914,5.914,0,0,1-.84-.387,2.427,2.427,0,0,1-.609-.48,1.889,1.889,0,0,1-.375-.633,2.525,2.525,0,0,1-.129-.852,2.192,2.192,0,0,1,.293-1.156,2.393,2.393,0,0,1,.781-.793,3.57,3.57,0,0,1,1.117-.453,5.825,5.825,0,0,1,1.309-.145,7.261,7.261,0,0,1,1.078.082,8.047,8.047,0,0,1,1.078.238v1.906a3.9,3.9,0,0,0-1-.41,4.235,4.235,0,0,0-1.051-.137,2.328,2.328,0,0,0-.457.043,1.505,1.505,0,0,0-.379.125.7.7,0,0,0-.258.211.486.486,0,0,0-.094.293.541.541,0,0,0,.141.375,1.221,1.221,0,0,0,.367.27,3.625,3.625,0,0,0,.5.2q.277.09.551.184a7.161,7.161,0,0,1,.891.375,2.848,2.848,0,0,1,.684.477,1.871,1.871,0,0,1,.438.641,2.277,2.277,0,0,1,.152.875A2.282,2.282,0,0,1,223.2-1.23a2.471,2.471,0,0,1-.82.82,3.72,3.72,0,0,1-1.18.461A6.54,6.54,0,0,1,219.809.2,7.149,7.149,0,0,1,217.364-.211ZM226.029.2a1.44,1.44,0,0,1-1.016-.375,1.206,1.206,0,0,1-.406-.922,1.161,1.161,0,0,1,.418-.922,1.543,1.543,0,0,1,1.043-.359,1.486,1.486,0,0,1,1.035.363,1.183,1.183,0,0,1,.4.918,1.19,1.19,0,0,1-.41.934A1.549,1.549,0,0,1,226.029.2ZM240.868-3.3H235.65q.125,1.742,2.2,1.742a4.286,4.286,0,0,0,2.32-.625V-.4A6.1,6.1,0,0,1,237.282.2a4.058,4.058,0,0,1-3.008-1.074,4.058,4.058,0,0,1-1.07-3,4.281,4.281,0,0,1,1.156-3.156A3.852,3.852,0,0,1,237.2-8.2a3.5,3.5,0,0,1,2.707,1.039,4,4,0,0,1,.957,2.82Zm-2.289-1.516q0-1.719-1.391-1.719a1.328,1.328,0,0,0-1.027.492,2.234,2.234,0,0,0-.527,1.227Zm5.009-4.453a1.442,1.442,0,0,1-1.023-.371,1.2,1.2,0,0,1-.4-.91,1.153,1.153,0,0,1,.4-.906,1.49,1.49,0,0,1,1.023-.352,1.486,1.486,0,0,1,1.027.352,1.158,1.158,0,0,1,.395.906,1.191,1.191,0,0,1-.395.922A1.466,1.466,0,0,1,243.589-9.266Zm1.219,9.125A4.349,4.349,0,0,1,243.94,2.7a3.041,3.041,0,0,1-2.5,1.063,3.457,3.457,0,0,1-1.18-.234V1.586a1.923,1.923,0,0,0,.914.289q1.164,0,1.164-1.828V-8h2.469ZM254.075-3.3h-5.219q.125,1.742,2.2,1.742a4.286,4.286,0,0,0,2.32-.625V-.4A6.1,6.1,0,0,1,250.489.2a4.058,4.058,0,0,1-3.008-1.074,4.058,4.058,0,0,1-1.07-3,4.281,4.281,0,0,1,1.156-3.156A3.852,3.852,0,0,1,250.411-8.2a3.5,3.5,0,0,1,2.707,1.039,4,4,0,0,1,.957,2.82Zm-2.289-1.516q0-1.719-1.391-1.719a1.328,1.328,0,0,0-1.027.492,2.234,2.234,0,0,0-.527,1.227Zm9.822,4.523A4.881,4.881,0,0,1,259.193.2a4.083,4.083,0,0,1-2.984-1.117A3.859,3.859,0,0,1,255.068-3.8a4.251,4.251,0,0,1,1.223-3.215,4.518,4.518,0,0,1,3.27-1.176,4.2,4.2,0,0,1,2.047.375v2.094a2.814,2.814,0,0,0-1.727-.578,2.275,2.275,0,0,0-1.684.621,2.317,2.317,0,0,0-.621,1.715A2.28,2.28,0,0,0,258.17-2.3,2.182,2.182,0,0,0,259.8-1.7a3.258,3.258,0,0,0,1.8-.578Zm9.22.289h-2.461V-1.219h-.039A2.792,2.792,0,0,1,265.883.2Q263.1.2,263.1-3.172V-8h2.461v4.609q0,1.7,1.344,1.7a1.329,1.329,0,0,0,1.063-.465,1.874,1.874,0,0,0,.4-1.262V-8h2.461Zm6.916-.094A3.649,3.649,0,0,1,276.1.2q-2.609,0-2.609-2.711V-6.18h-1.3V-8h1.3V-9.727l2.461-.7V-8h1.8v1.82h-1.8v3.234q0,1.25.992,1.25a1.673,1.673,0,0,0,.8-.227ZM285.792,0h-2.336V-1.148h-.031A2.607,2.607,0,0,1,281.042.2a2.492,2.492,0,0,1-1.832-.66,2.366,2.366,0,0,1-.668-1.762q0-2.328,2.758-2.687l2.172-.289q0-1.312-1.422-1.312a4.853,4.853,0,0,0-2.719.852V-7.523a6.117,6.117,0,0,1,1.41-.469,7.413,7.413,0,0,1,1.629-.2q3.422,0,3.422,3.414Zm-2.32-3.25v-.539l-1.453.188q-1.2.156-1.2,1.086a.9.9,0,0,0,.293.691,1.126,1.126,0,0,0,.793.27,1.462,1.462,0,0,0,1.133-.48A1.735,1.735,0,0,0,283.472-3.25ZM295.575,0h-2.469V-1.1h-.031A2.768,2.768,0,0,1,290.6.2a3.033,3.033,0,0,1-2.414-1.059,4.382,4.382,0,0,1-.914-2.957A4.77,4.77,0,0,1,288.278-7a3.287,3.287,0,0,1,2.641-1.2,2.246,2.246,0,0,1,2.156,1.109h.031v-4.758h2.469Zm-2.422-3.891v-.6a1.893,1.893,0,0,0-.453-1.3,1.5,1.5,0,0,0-1.18-.516,1.487,1.487,0,0,0-1.281.645,2.993,2.993,0,0,0-.461,1.77,2.59,2.59,0,0,0,.445,1.625,1.479,1.479,0,0,0,1.234.57,1.485,1.485,0,0,0,1.223-.6A2.507,2.507,0,0,0,293.153-3.891ZM304.311,0h-2.336V-1.148h-.031A2.607,2.607,0,0,1,299.561.2a2.492,2.492,0,0,1-1.832-.66,2.366,2.366,0,0,1-.668-1.762q0-2.328,2.758-2.687L301.99-5.2q0-1.312-1.422-1.312a4.853,4.853,0,0,0-2.719.852V-7.523a6.117,6.117,0,0,1,1.41-.469,7.413,7.413,0,0,1,1.629-.2q3.422,0,3.422,3.414Zm-2.32-3.25v-.539l-1.453.188q-1.2.156-1.2,1.086a.9.9,0,0,0,.293.691,1.126,1.126,0,0,0,.793.27,1.462,1.462,0,0,0,1.133-.48A1.735,1.735,0,0,0,301.99-3.25Zm3.752,3.039v-2a5.256,5.256,0,0,0,1.215.547,4.028,4.028,0,0,0,1.145.18,2.455,2.455,0,0,0,1.035-.18.581.581,0,0,0,.379-.547.506.506,0,0,0-.172-.391,1.6,1.6,0,0,0-.441-.273,5.01,5.01,0,0,0-.59-.211q-.32-.094-.617-.211a5.913,5.913,0,0,1-.84-.387,2.427,2.427,0,0,1-.609-.48,1.889,1.889,0,0,1-.375-.633,2.525,2.525,0,0,1-.129-.852,2.192,2.192,0,0,1,.293-1.156,2.393,2.393,0,0,1,.781-.793,3.57,3.57,0,0,1,1.117-.453,5.825,5.825,0,0,1,1.309-.145,7.261,7.261,0,0,1,1.078.082,8.046,8.046,0,0,1,1.078.238v1.906a3.9,3.9,0,0,0-1-.41,4.235,4.235,0,0,0-1.051-.137,2.328,2.328,0,0,0-.457.043,1.505,1.505,0,0,0-.379.125.7.7,0,0,0-.258.211.486.486,0,0,0-.094.293.541.541,0,0,0,.141.375,1.221,1.221,0,0,0,.367.27,3.624,3.624,0,0,0,.5.2q.277.09.551.184a7.161,7.161,0,0,1,.891.375,2.847,2.847,0,0,1,.684.477,1.872,1.872,0,0,1,.438.641,2.277,2.277,0,0,1,.152.875,2.282,2.282,0,0,1-.309,1.215,2.47,2.47,0,0,1-.82.82,3.72,3.72,0,0,1-1.18.461A6.54,6.54,0,0,1,308.187.2,7.149,7.149,0,0,1,305.742-.211Z" transform="translate(961 2962)" fill="#212429"/>
      <g id="Trazado_1299264" data-name="Trazado 1299264" transform="translate(444 2997)" fill="#fff">
        <path d="M 241 39.5 L 20 39.5 C 17.36730003356934 39.5 14.81359958648682 38.98450088500977 12.40986633300781 37.96780014038086 C 10.08790016174316 36.98566818237305 8.002433776855469 35.5796012878418 6.211400032043457 33.78860092163086 C 4.420400142669678 31.99756622314453 3.014333248138428 29.91209983825684 2.03220009803772 27.59013366699219 C 1.015499949455261 25.18639945983887 0.5 22.63269996643066 0.5 20 C 0.5 17.36730003356934 1.015499949455261 14.81359958648682 2.03220009803772 12.40986633300781 C 3.014333248138428 10.08790016174316 4.420400142669678 8.002433776855469 6.211400032043457 6.211400032043457 C 8.002433776855469 4.420400142669678 10.08790016174316 3.014333248138428 12.40986633300781 2.03220009803772 C 14.81359958648682 1.015499949455261 17.36730003356934 0.5 20 0.5 L 241 0.5 C 243.6327056884766 0.5 246.1864013671875 1.015499949455261 248.5901336669922 2.03220009803772 C 250.9120941162109 3.014333248138428 252.9975738525391 4.420400142669678 254.7886047363281 6.211400032043457 C 256.57958984375 8.002433776855469 257.9856567382812 10.08790016174316 258.9678039550781 12.40986633300781 C 259.9844970703125 14.81359958648682 260.5 17.36730003356934 260.5 20 C 260.5 22.63269996643066 259.9844970703125 25.18639945983887 258.9678039550781 27.59013366699219 C 257.9856567382812 29.91209983825684 256.57958984375 31.99756622314453 254.7886047363281 33.78860092163086 C 252.9975738525391 35.5796012878418 250.9120941162109 36.98566818237305 248.5901336669922 37.96780014038086 C 246.1864013671875 38.98450088500977 243.6327056884766 39.5 241 39.5 Z" stroke="none"/>
        <path d="M 20 1 C 17.4345703125 1 14.94642639160156 1.502231597900391 12.60462951660156 2.492698669433594 C 10.34226989746094 3.449600219726562 8.310226440429688 4.819732666015625 6.564971923828125 6.564968109130859 C 4.819732666015625 8.310234069824219 3.4495849609375 10.34226608276367 2.492706298828125 12.60463333129883 C 1.502227783203125 14.94643402099609 1 17.43456649780273 1 20 C 1 22.56543350219727 1.502227783203125 25.05356597900391 2.492706298828125 27.39536666870117 C 3.4495849609375 29.65773391723633 4.819732666015625 31.68976593017578 6.564971923828125 33.43503189086914 C 8.310226440429688 35.18026733398438 10.34226989746094 36.55039978027344 12.60462951660156 37.50730133056641 C 14.94642639160156 38.49776840209961 17.4345703125 39 20 39 L 241 39 C 243.5654296875 39 246.0535736083984 38.49776840209961 248.3953704833984 37.50730133056641 C 250.6577301025391 36.55039978027344 252.6897735595703 35.18026733398438 254.4350280761719 33.43503189086914 C 256.1802673339844 31.68976593017578 257.5504150390625 29.65773391723633 258.5072937011719 27.39536666870117 C 259.4977722167969 25.05356597900391 260 22.56543350219727 260 20 C 260 17.43456649780273 259.4977722167969 14.94643402099609 258.5072937011719 12.60463333129883 C 257.5504150390625 10.34226608276367 256.1802673339844 8.310234069824219 254.4350280761719 6.564968109130859 C 252.6897735595703 4.819732666015625 250.6577301025391 3.449600219726562 248.3953704833984 2.492698669433594 C 246.0535736083984 1.502231597900391 243.5654296875 1 241 1 L 20 1 M 20 0 L 241 0 C 252.0457000732422 0 261 8.954299926757812 261 20 C 261 31.04570007324219 252.0457000732422 40 241 40 L 20 40 C 8.954299926757812 40 0 31.04570007324219 0 20 C 0 8.954299926757812 8.954299926757812 0 20 0 Z" stroke="none" fill="#1d7083"/>
      </g>
      <path id="Trazado_1299265" data-name="Trazado 1299265" d="M7.758-9.148H3.8V-6.4H7.438v2.047H3.8V0H1.281V-11.2H7.758ZM14.58-5.773a2.142,2.142,0,0,0-1.039-.242,1.5,1.5,0,0,0-1.258.59A2.573,2.573,0,0,0,11.83-3.82V0H9.361V-8H11.83v1.484h.031A2.136,2.136,0,0,1,13.97-8.141a1.59,1.59,0,0,1,.609.094ZM22.855-3.3H17.636q.125,1.742,2.2,1.742a4.286,4.286,0,0,0,2.32-.625V-.4A6.1,6.1,0,0,1,19.269.2,4.058,4.058,0,0,1,16.261-.879a4.058,4.058,0,0,1-1.07-3,4.281,4.281,0,0,1,1.156-3.156A3.852,3.852,0,0,1,19.191-8.2,3.5,3.5,0,0,1,21.9-7.156a4,4,0,0,1,.957,2.82ZM20.566-4.812q0-1.719-1.391-1.719a1.328,1.328,0,0,0-1.027.492,2.234,2.234,0,0,0-.527,1.227ZM30.388-.289A4.881,4.881,0,0,1,27.974.2,4.083,4.083,0,0,1,24.989-.922,3.859,3.859,0,0,1,23.849-3.8,4.251,4.251,0,0,1,25.071-7.02,4.518,4.518,0,0,1,28.341-8.2a4.2,4.2,0,0,1,2.047.375v2.094A2.814,2.814,0,0,0,28.661-6.3a2.275,2.275,0,0,0-1.684.621,2.317,2.317,0,0,0-.621,1.715A2.28,2.28,0,0,0,26.95-2.3a2.182,2.182,0,0,0,1.633.605,3.258,3.258,0,0,0,1.8-.578ZM39.608,0H37.147V-1.219h-.039A2.792,2.792,0,0,1,34.663.2q-2.781,0-2.781-3.367V-8h2.461v4.609q0,1.7,1.344,1.7a1.329,1.329,0,0,0,1.063-.465,1.874,1.874,0,0,0,.4-1.262V-8h2.461Zm9.267-3.3H43.656q.125,1.742,2.2,1.742a4.286,4.286,0,0,0,2.32-.625V-.4A6.1,6.1,0,0,1,45.289.2,4.058,4.058,0,0,1,42.281-.879a4.058,4.058,0,0,1-1.07-3,4.281,4.281,0,0,1,1.156-3.156A3.852,3.852,0,0,1,45.211-8.2a3.5,3.5,0,0,1,2.707,1.039,4,4,0,0,1,.957,2.82ZM46.586-4.812q0-1.719-1.391-1.719a1.328,1.328,0,0,0-1.027.492,2.234,2.234,0,0,0-.527,1.227ZM58.072,0H55.611V-4.445q0-1.859-1.328-1.859a1.318,1.318,0,0,0-1.055.492,1.875,1.875,0,0,0-.414,1.25V0H50.346V-8h2.469v1.266h.031A2.829,2.829,0,0,1,55.416-8.2q2.656,0,2.656,3.3Zm8.017-.289A4.881,4.881,0,0,1,63.675.2,4.083,4.083,0,0,1,60.691-.922,3.859,3.859,0,0,1,59.55-3.8,4.251,4.251,0,0,1,60.773-7.02,4.518,4.518,0,0,1,64.042-8.2a4.2,4.2,0,0,1,2.047.375v2.094A2.814,2.814,0,0,0,64.363-6.3a2.275,2.275,0,0,0-1.684.621,2.317,2.317,0,0,0-.621,1.715A2.28,2.28,0,0,0,62.652-2.3a2.182,2.182,0,0,0,1.633.605,3.258,3.258,0,0,0,1.8-.578Zm2.869-8.977a1.442,1.442,0,0,1-1.023-.371,1.2,1.2,0,0,1-.4-.91,1.153,1.153,0,0,1,.4-.906,1.49,1.49,0,0,1,1.023-.352,1.486,1.486,0,0,1,1.027.352,1.158,1.158,0,0,1,.395.906,1.191,1.191,0,0,1-.395.922A1.466,1.466,0,0,1,68.958-9.266ZM70.177,0H67.708V-8h2.469Zm8.736,0H76.577V-1.148h-.031A2.607,2.607,0,0,1,74.163.2a2.492,2.492,0,0,1-1.832-.66,2.366,2.366,0,0,1-.668-1.762q0-2.328,2.758-2.687L76.593-5.2q0-1.312-1.422-1.312a4.853,4.853,0,0,0-2.719.852V-7.523a6.116,6.116,0,0,1,1.41-.469,7.413,7.413,0,0,1,1.629-.2q3.422,0,3.422,3.414Zm-2.32-3.25v-.539L75.139-3.6q-1.2.156-1.2,1.086a.9.9,0,0,0,.293.691,1.126,1.126,0,0,0,.793.27,1.462,1.462,0,0,0,1.133-.48A1.735,1.735,0,0,0,76.593-3.25ZM93.111,0H90.643V-1.1h-.031A2.768,2.768,0,0,1,88.135.2,3.033,3.033,0,0,1,85.721-.863a4.382,4.382,0,0,1-.914-2.957A4.77,4.77,0,0,1,85.814-7a3.287,3.287,0,0,1,2.641-1.2,2.246,2.246,0,0,1,2.156,1.109h.031v-4.758h2.469ZM90.689-3.891v-.6a1.893,1.893,0,0,0-.453-1.3,1.5,1.5,0,0,0-1.18-.516,1.487,1.487,0,0,0-1.281.645,2.993,2.993,0,0,0-.461,1.77,2.59,2.59,0,0,0,.445,1.625,1.479,1.479,0,0,0,1.234.57,1.485,1.485,0,0,0,1.223-.6A2.507,2.507,0,0,0,90.689-3.891Zm11.689.594H97.16q.125,1.742,2.2,1.742a4.286,4.286,0,0,0,2.32-.625V-.4A6.1,6.1,0,0,1,98.793.2,4.058,4.058,0,0,1,95.785-.879a4.058,4.058,0,0,1-1.07-3,4.281,4.281,0,0,1,1.156-3.156A3.852,3.852,0,0,1,98.715-8.2a3.5,3.5,0,0,1,2.707,1.039,4,4,0,0,1,.957,2.82ZM100.09-4.812q0-1.719-1.391-1.719a1.328,1.328,0,0,0-1.027.492,2.234,2.234,0,0,0-.527,1.227Zm9.425-4.453a1.442,1.442,0,0,1-1.023-.371,1.2,1.2,0,0,1-.4-.91,1.153,1.153,0,0,1,.4-.906,1.49,1.49,0,0,1,1.023-.352,1.486,1.486,0,0,1,1.027.352,1.158,1.158,0,0,1,.395.906,1.191,1.191,0,0,1-.395.922A1.466,1.466,0,0,1,109.515-9.266ZM110.733,0h-2.469V-8h2.469Zm9.806,0h-2.461V-4.445q0-1.859-1.328-1.859a1.318,1.318,0,0,0-1.055.492,1.875,1.875,0,0,0-.414,1.25V0h-2.469V-8h2.469v1.266h.031a2.829,2.829,0,0,1,2.57-1.461q2.656,0,2.656,3.3Zm8.017-.289A4.881,4.881,0,0,1,126.143.2a4.083,4.083,0,0,1-2.984-1.117A3.859,3.859,0,0,1,122.018-3.8,4.251,4.251,0,0,1,123.24-7.02,4.518,4.518,0,0,1,126.51-8.2a4.2,4.2,0,0,1,2.047.375v2.094A2.814,2.814,0,0,0,126.83-6.3a2.275,2.275,0,0,0-1.684.621,2.317,2.317,0,0,0-.621,1.715,2.28,2.28,0,0,0,.594,1.668,2.182,2.182,0,0,0,1.633.605,3.258,3.258,0,0,0,1.8-.578Zm2.869-8.977a1.442,1.442,0,0,1-1.023-.371,1.2,1.2,0,0,1-.4-.91,1.153,1.153,0,0,1,.4-.906,1.49,1.49,0,0,1,1.023-.352,1.486,1.486,0,0,1,1.027.352,1.158,1.158,0,0,1,.395.906,1.191,1.191,0,0,1-.395.922A1.466,1.466,0,0,1,131.426-9.266ZM132.644,0h-2.469V-8h2.469Zm9.908,0h-2.469V-1.1h-.031A2.768,2.768,0,0,1,137.576.2a3.033,3.033,0,0,1-2.414-1.059,4.382,4.382,0,0,1-.914-2.957A4.77,4.77,0,0,1,135.255-7,3.287,3.287,0,0,1,137.9-8.2a2.246,2.246,0,0,1,2.156,1.109h.031v-4.758h2.469ZM140.13-3.891v-.6a1.893,1.893,0,0,0-.453-1.3A1.5,1.5,0,0,0,138.5-6.3a1.487,1.487,0,0,0-1.281.645,2.993,2.993,0,0,0-.461,1.77,2.59,2.59,0,0,0,.445,1.625,1.479,1.479,0,0,0,1.234.57,1.485,1.485,0,0,0,1.223-.6A2.507,2.507,0,0,0,140.13-3.891Zm11.689.594H146.6q.125,1.742,2.2,1.742a4.286,4.286,0,0,0,2.32-.625V-.4A6.1,6.1,0,0,1,148.234.2a4.058,4.058,0,0,1-3.008-1.074,4.058,4.058,0,0,1-1.07-3,4.281,4.281,0,0,1,1.156-3.156A3.852,3.852,0,0,1,148.155-8.2a3.5,3.5,0,0,1,2.707,1.039,4,4,0,0,1,.957,2.82ZM149.53-4.812q0-1.719-1.391-1.719a1.328,1.328,0,0,0-1.027.492,2.234,2.234,0,0,0-.527,1.227ZM161.016,0h-2.461V-4.445q0-1.859-1.328-1.859a1.318,1.318,0,0,0-1.055.492,1.875,1.875,0,0,0-.414,1.25V0H153.29V-8h2.469v1.266h.031A2.829,2.829,0,0,1,158.36-8.2q2.656,0,2.656,3.3Zm8.017-.289A4.881,4.881,0,0,1,166.62.2a4.083,4.083,0,0,1-2.984-1.117A3.859,3.859,0,0,1,162.495-3.8a4.251,4.251,0,0,1,1.223-3.215,4.518,4.518,0,0,1,3.27-1.176,4.2,4.2,0,0,1,2.047.375v2.094a2.814,2.814,0,0,0-1.727-.578,2.275,2.275,0,0,0-1.684.621A2.317,2.317,0,0,0,165-3.969,2.28,2.28,0,0,0,165.6-2.3a2.182,2.182,0,0,0,1.633.605,3.258,3.258,0,0,0,1.8-.578ZM171.9-9.266a1.442,1.442,0,0,1-1.023-.371,1.2,1.2,0,0,1-.4-.91,1.153,1.153,0,0,1,.4-.906A1.49,1.49,0,0,1,171.9-11.8a1.486,1.486,0,0,1,1.027.352,1.158,1.158,0,0,1,.395.906,1.191,1.191,0,0,1-.395.922A1.466,1.466,0,0,1,171.9-9.266ZM173.121,0h-2.469V-8h2.469Zm8.736,0h-2.336V-1.148h-.031A2.607,2.607,0,0,1,177.107.2a2.492,2.492,0,0,1-1.832-.66,2.366,2.366,0,0,1-.668-1.762q0-2.328,2.758-2.687l2.172-.289q0-1.312-1.422-1.312a4.853,4.853,0,0,0-2.719.852V-7.523a6.116,6.116,0,0,1,1.41-.469,7.413,7.413,0,0,1,1.629-.2q3.422,0,3.422,3.414Zm-2.32-3.25v-.539l-1.453.188q-1.2.156-1.2,1.086a.9.9,0,0,0,.293.691,1.126,1.126,0,0,0,.793.27,1.462,1.462,0,0,0,1.133-.48A1.735,1.735,0,0,0,179.537-3.25Zm3.752,3.039v-2a5.256,5.256,0,0,0,1.215.547,4.028,4.028,0,0,0,1.145.18,2.455,2.455,0,0,0,1.035-.18.581.581,0,0,0,.379-.547.506.506,0,0,0-.172-.391,1.6,1.6,0,0,0-.441-.273,5.009,5.009,0,0,0-.59-.211q-.32-.094-.617-.211a5.914,5.914,0,0,1-.84-.387,2.427,2.427,0,0,1-.609-.48,1.889,1.889,0,0,1-.375-.633,2.525,2.525,0,0,1-.129-.852,2.192,2.192,0,0,1,.293-1.156,2.393,2.393,0,0,1,.781-.793,3.57,3.57,0,0,1,1.117-.453,5.825,5.825,0,0,1,1.309-.145,7.261,7.261,0,0,1,1.078.082,8.047,8.047,0,0,1,1.078.238v1.906a3.9,3.9,0,0,0-1-.41,4.235,4.235,0,0,0-1.051-.137,2.328,2.328,0,0,0-.457.043,1.505,1.505,0,0,0-.379.125.7.7,0,0,0-.258.211.486.486,0,0,0-.094.293.541.541,0,0,0,.141.375,1.221,1.221,0,0,0,.367.27,3.625,3.625,0,0,0,.5.2q.277.09.551.184a7.161,7.161,0,0,1,.891.375,2.848,2.848,0,0,1,.684.477,1.871,1.871,0,0,1,.438.641,2.277,2.277,0,0,1,.152.875,2.282,2.282,0,0,1-.309,1.215,2.471,2.471,0,0,1-.82.82,3.72,3.72,0,0,1-1.18.461A6.54,6.54,0,0,1,185.734.2,7.149,7.149,0,0,1,183.288-.211Z" transform="translate(465 3023)" fill="#212429"/>
    </g>
  </g>
</svg>
