<svg xmlns="http://www.w3.org/2000/svg" xmlns:xlink="http://www.w3.org/1999/xlink" width="106.16" height="106.16" viewBox="0 0 106.16 106.16">
  <defs>
    <filter id="Trazado_982547" x="0" y="0" width="106.16" height="106.16" filterUnits="userSpaceOnUse">
      <feOffset dy="3" input="SourceAlpha"/>
      <feGaussianBlur stdDeviation="3" result="blur"/>
      <feFlood flood-opacity="0.161"/>
      <feComposite operator="in" in2="blur"/>
      <feComposite in="SourceGraphic"/>
    </filter>
  </defs>
  <g id="Grupo_1242076" data-name="Grupo 1242076" transform="translate(-1135.42 -2583.855)">
    <g id="Grupo_1235683" data-name="Grupo 1235683" transform="translate(1144.42 2589.855)">
      <g id="Grupo_1235128" data-name="Grupo 1235128" transform="translate(0 0)">
        <g id="Grupo_1233884" data-name="Grupo 1233884">
          <g id="Grupo_1228506" data-name="Grupo 1228506">
            <g id="Grupo_1206132" data-name="Grupo 1206132">
              <g id="Grupo_1203794" data-name="Grupo 1203794">
                <g id="Grupo_1203345" data-name="Grupo 1203345">
                  <g id="Grupo_1177900" data-name="Grupo 1177900">
                    <g id="Grupo_1172010" data-name="Grupo 1172010">
                      <g id="Grupo_1171046" data-name="Grupo 1171046">
                        <g id="Grupo_1148525" data-name="Grupo 1148525">
                          <g transform="matrix(1, 0, 0, 1, -9, -6)" filter="url(#Trazado_982547)">
                            <g id="Trazado_982547-2" data-name="Trazado 982547" transform="translate(9 6)" fill="#e9f9fd">
                              <path d="M 44.0802001953125 86.660400390625 C 38.33124923706055 86.660400390625 32.75506210327148 85.53479766845703 27.50652503967285 83.31484985351562 C 22.43628692626953 81.17032623291016 17.88242530822754 78.09992218017578 13.97144985198975 74.18894958496094 C 10.06047534942627 70.27797698974609 6.99007511138916 65.72411346435547 4.845550060272217 60.65387344360352 C 2.625600099563599 55.40533828735352 1.500000238418579 49.82915115356445 1.500000238418579 44.0802001953125 C 1.500000238418579 38.33124923706055 2.625600099563599 32.75506210327148 4.845550060272217 27.50652503967285 C 6.99007511138916 22.43628692626953 10.06047534942627 17.88242530822754 13.97144985198975 13.97144985198975 C 17.88242530822754 10.06047534942627 22.43628692626953 6.99007511138916 27.50652503967285 4.845550060272217 C 32.75506210327148 2.625600099563599 38.33124923706055 1.500000238418579 44.0802001953125 1.500000238418579 C 49.82915115356445 1.500000238418579 55.40533828735352 2.625600099563599 60.65387344360352 4.845550060272217 C 65.72411346435547 6.99007511138916 70.27797698974609 10.06047534942627 74.18894958496094 13.97144985198975 C 78.09992218017578 17.88242530822754 81.17032623291016 22.43628692626953 83.31484985351562 27.50652503967285 C 85.53479766845703 32.75506210327148 86.660400390625 38.33124923706055 86.660400390625 44.0802001953125 C 86.660400390625 49.82915115356445 85.53479766845703 55.40533828735352 83.31484985351562 60.65387344360352 C 81.17032623291016 65.72411346435547 78.09992218017578 70.27797698974609 74.18894958496094 74.18894958496094 C 70.27797698974609 78.09992218017578 65.72411346435547 81.17032623291016 60.65387344360352 83.31484985351562 C 55.40533828735352 85.53479766845703 49.82915115356445 86.660400390625 44.0802001953125 86.660400390625 Z" stroke="none"/>
                              <path d="M 44.0802001953125 3 C 38.53308486938477 3 33.15349960327148 4.085746765136719 28.09085845947266 6.227058410644531 C 23.19941711425781 8.29595947265625 18.80581665039062 11.25841522216797 15.03211212158203 15.03211212158203 C 11.25841522216797 18.80581665039062 8.29595947265625 23.19941711425781 6.227058410644531 28.09085845947266 C 4.085746765136719 33.15349960327148 3 38.53308486938477 3 44.0802001953125 C 3 49.62731552124023 4.085746765136719 55.00691604614258 6.227058410644531 60.06954193115234 C 8.29595947265625 64.96098327636719 11.25841522216797 69.35458374023438 15.03211212158203 73.12828826904297 C 18.80581665039062 76.90198516845703 23.19941711425781 79.86444091796875 28.09085845947266 81.93334197998047 C 33.15349960327148 84.07466125488281 38.53308486938477 85.160400390625 44.0802001953125 85.160400390625 C 49.62731552124023 85.160400390625 55.00691604614258 84.07466125488281 60.06954193115234 81.93334197998047 C 64.96099853515625 79.86444091796875 69.35458374023438 76.90198516845703 73.12828826904297 73.12828826904297 C 76.90198516845703 69.35458374023438 79.86444091796875 64.96099853515625 81.93334197998047 60.06954193115234 C 84.07466125488281 55.00691604614258 85.160400390625 49.62731552124023 85.160400390625 44.0802001953125 C 85.160400390625 38.53308486938477 84.07466125488281 33.15349960327148 81.93334197998047 28.09085845947266 C 79.86444091796875 23.19941711425781 76.90198516845703 18.80581665039062 73.12828826904297 15.03211212158203 C 69.35458374023438 11.25841522216797 64.96098327636719 8.29595947265625 60.06954193115234 6.227058410644531 C 55.00691604614258 4.085746765136719 49.62731552124023 3 44.0802001953125 3 M 44.0802001953125 0 C 68.42502593994141 0 88.160400390625 19.73538970947266 88.160400390625 44.0802001953125 C 88.160400390625 68.42502593994141 68.42502593994141 88.160400390625 44.0802001953125 88.160400390625 C 19.73538970947266 88.160400390625 0 68.42502593994141 0 44.0802001953125 C 0 19.73538970947266 19.73538970947266 0 44.0802001953125 0 Z" stroke="none" fill="#1d7083"/>
                            </g>
                          </g>
                        </g>
                      </g>
                    </g>
                  </g>
                </g>
              </g>
            </g>
          </g>
        </g>
      </g>
    </g>
    <g id="analisis_3_" data-name="analisis (3)" transform="translate(1159.744 2598.384)">
      <g id="Grupo_1242074" data-name="Grupo 1242074" transform="translate(0.872 7.43)">
        <g id="Grupo_1242072" data-name="Grupo 1242072" transform="translate(0 0)">
          <path id="Trazado_1298263" data-name="Trazado 1298263" d="M7.5,49.209V85.174a1.594,1.594,0,0,0,1.594,1.594H56.088a1.594,1.594,0,0,0,1.594-1.594V49.209a1.594,1.594,0,0,0-1.594-1.594H9.094A1.594,1.594,0,0,0,7.5,49.209Z" transform="translate(-7.5 -43.714)" fill="#ebeef2"/>
          <path id="Trazado_1298264" data-name="Trazado 1298264" d="M403.575,47.616h-2.886a1.594,1.594,0,0,1,1.594,1.594V85.175a1.594,1.594,0,0,1-1.594,1.594h2.886a1.594,1.594,0,0,0,1.594-1.594V49.21A1.594,1.594,0,0,0,403.575,47.616Z" transform="translate(-354.987 -43.715)" fill="#d1d6de"/>
          <g id="Grupo_1242071" data-name="Grupo 1242071" transform="translate(11.055 8.892)">
            <g id="Grupo_1242067" data-name="Grupo 1242067" transform="translate(0 11.178)">
              <circle id="Elipse_11565" data-name="Elipse 11565" cx="2.034" cy="2.034" r="2.034" fill="#5c9cee"/>
            </g>
            <g id="Grupo_1242068" data-name="Grupo 1242068" transform="translate(8.001 6.635)">
              <circle id="Elipse_11566" data-name="Elipse 11566" cx="2.034" cy="2.034" r="2.034" fill="#f2df33"/>
            </g>
            <g id="Grupo_1242069" data-name="Grupo 1242069" transform="translate(16.002 11.178)">
              <circle id="Elipse_11567" data-name="Elipse 11567" cx="2.034" cy="2.034" r="2.034" fill="#ed5575"/>
            </g>
            <g id="Grupo_1242070" data-name="Grupo 1242070" transform="translate(24.003)">
              <circle id="Elipse_11568" data-name="Elipse 11568" cx="2.034" cy="2.034" r="2.034" fill="#9fd479"/>
            </g>
          </g>
          <path id="Trazado_1298265" data-name="Trazado 1298265" d="M80.428,387.255v-2.79h33.229v2.79a1.11,1.11,0,0,1-1.11,1.11H81.538A1.11,1.11,0,0,1,80.428,387.255Z" transform="translate(-71.951 -341.411)" fill="#f2df33"/>
          <path id="Trazado_1298266" data-name="Trazado 1298266" d="M333.617,384.465v2.79a1.11,1.11,0,0,1-1.11,1.11h2.819a1.11,1.11,0,0,0,1.11-1.11v-2.79Z" transform="translate(-294.73 -341.411)" fill="#fcab29"/>
          <path id="Trazado_1298267" data-name="Trazado 1298267" d="M189.243,17.958V15.372a1.315,1.315,0,0,1,1.315-1.315h5.3a1.315,1.315,0,0,1,1.315,1.315v2.585h-7.933Z" transform="translate(-168.118 -14.057)" fill="#f2df33"/>
          <path id="Trazado_1298268" data-name="Trazado 1298268" d="M224.595,14.058h-2.839a1.315,1.315,0,0,1,1.315,1.315v2.585h2.839V15.373A1.315,1.315,0,0,0,224.595,14.058Z" transform="translate(-196.852 -14.058)" fill="#fcab29"/>
          <rect id="Rectángulo_423324" data-name="Rectángulo 423324" width="3.537" height="7.703" transform="translate(11.321 30.339)" fill="#48cfb7"/>
          <rect id="Rectángulo_423325" data-name="Rectángulo 423325" width="3.537" height="12.158" transform="translate(19.322 25.884)" fill="#48cfb7"/>
          <rect id="Rectángulo_423326" data-name="Rectángulo 423326" width="3.537" height="7.703" transform="translate(27.323 30.339)" fill="#48cfb7"/>
          <rect id="Rectángulo_423327" data-name="Rectángulo 423327" width="3.537" height="15.632" transform="translate(35.324 22.41)" fill="#48cfb7"/>
        </g>
        <g id="Grupo_1242073" data-name="Grupo 1242073" transform="translate(34.349 16.028)">
          <path id="Trazado_1298269" data-name="Trazado 1298269" d="M409.456,293.5l6.49,11.24a2.442,2.442,0,0,0,3.336.894h0a2.442,2.442,0,0,0,.894-3.336l-6.49-11.24Z" transform="translate(-397.084 -274.892)" fill="#ed5575"/>
          <path id="Trazado_1298270" data-name="Trazado 1298270" d="M413.686,291.06l-4.23,2.442,2.53,4.382a13.3,13.3,0,0,0,4.23-2.442Z" transform="translate(-397.084 -274.891)" fill="#cc3a60"/>
          <circle id="Elipse_11569" data-name="Elipse 11569" cx="10.522" cy="10.522" r="10.522" fill="#f2df33"/>
          <circle id="Elipse_11570" data-name="Elipse 11570" cx="7.405" cy="7.405" r="7.405" transform="translate(3.117 3.117)" fill="#5c9cee"/>
        </g>
      </g>
      <g id="Grupo_1242075" data-name="Grupo 1242075" transform="translate(0 6.558)">
        <path id="Trazado_1298271" data-name="Trazado 1298271" d="M122.027,88.873a2.909,2.909,0,1,0-2.322-1.161l-4.774,6.672a2.9,2.9,0,0,0-2.883.635l-3.182-1.806a2.906,2.906,0,1,0-5.681,0L100,95.019a2.9,2.9,0,1,0,.863,1.515l3.182-1.806a2.9,2.9,0,0,0,3.956,0l3.182,1.806a2.906,2.906,0,1,0,5.162-1.134l4.774-6.672A2.9,2.9,0,0,0,122.027,88.873Zm0-4.068a1.162,1.162,0,1,1-1.162,1.162A1.164,1.164,0,0,1,122.027,84.8Zm-24,13.5a1.162,1.162,0,1,1,1.162-1.162A1.164,1.164,0,0,1,98.023,98.307Zm8-4.543a1.162,1.162,0,1,1,1.162-1.162A1.164,1.164,0,0,1,106.025,93.764Zm8,4.543a1.162,1.162,0,1,1,1.162-1.162A1.164,1.164,0,0,1,114.026,98.307Z" transform="translate(-84.062 -74.169)"/>
        <path id="Trazado_1298272" data-name="Trazado 1298272" d="M48.678,79.269H2.466a.723.723,0,0,1-.722-.722V42.582a.723.723,0,0,1,.722-.722h4.11a.872.872,0,1,0,0-1.743H2.466A2.469,2.469,0,0,0,0,42.582V78.547a2.469,2.469,0,0,0,2.466,2.466H8.477v1.919a1.984,1.984,0,0,0,1.982,1.982h8.726l-4.108,8.02a.872.872,0,1,0,1.552.795l4.515-8.815h9.638L35.3,93.728a.872.872,0,1,0,1.552-.795l-4.108-8.02h8.726a1.984,1.984,0,0,0,1.982-1.982V81.013h5.229a.872.872,0,0,0,0-1.744Zm-6.972,3.662a.239.239,0,0,1-.239.239H10.459a.239.239,0,0,1-.239-.239V81.013H41.706Z" transform="translate(0 -36.215)"/>
        <path id="Trazado_1298273" data-name="Trazado 1298273" d="M79.943,12.2h39.4a.723.723,0,0,1,.722.722v8.289a.872.872,0,1,0,1.743,0V12.924a2.469,2.469,0,0,0-2.466-2.466H100.682V8.745a2.19,2.19,0,0,0-2.187-2.187h-5.3A2.19,2.19,0,0,0,91,8.745v1.714H79.943a.872.872,0,0,0,0,1.744ZM92.748,8.745a.444.444,0,0,1,.444-.444h5.3a.444.444,0,0,1,.444.444v1.714h-6.19V8.745Z" transform="translate(-69.88 -6.558)"/>
        <path id="Trazado_1298274" data-name="Trazado 1298274" d="M98.274,267.576a.872.872,0,0,0-.872.872v7.7a.872.872,0,0,0,.872.872h3.537a.872.872,0,0,0,.872-.872v-7.7a.872.872,0,0,0-.872-.872Zm2.665,7.7H99.146v-5.96h1.793Z" transform="translate(-86.081 -237.237)"/>
        <path id="Trazado_1298275" data-name="Trazado 1298275" d="M167.109,229.248a.872.872,0,0,0-.872.872v12.158a.872.872,0,0,0,.872.872h3.537a.872.872,0,0,0,.872-.872V230.12a.872.872,0,0,0-.872-.872Zm2.665,12.158h-1.793V230.992h1.793Z" transform="translate(-146.915 -203.364)"/>
        <path id="Trazado_1298276" data-name="Trazado 1298276" d="M235.945,267.576a.872.872,0,0,0-.872.872v7.7a.872.872,0,0,0,.872.872h3.537a.872.872,0,0,0,.872-.872v-7.7a.872.872,0,0,0-.872-.872Zm2.665,7.7h-1.793v-5.96h1.793Z" transform="translate(-207.75 -237.237)"/>
        <path id="Trazado_1298277" data-name="Trazado 1298277" d="M304.781,311.832a.872.872,0,0,0-.872.872v2.559a.872.872,0,0,0,.872.872h3.537a.872.872,0,1,0,0-1.743h-2.665V312.7A.872.872,0,0,0,304.781,311.832Z" transform="translate(-268.585 -276.349)"/>
        <path id="Trazado_1298278" data-name="Trazado 1298278" d="M320.249,172.317l-5-8.662a11.4,11.4,0,1,0-11.272,3.217,11.456,11.456,0,0,0,2.967.393,11.251,11.251,0,0,0,2.566-.3l5,8.663a3.314,3.314,0,1,0,5.74-3.314Zm-15.822-7.13a9.651,9.651,0,1,1,7.323-.964A9.588,9.588,0,0,1,304.427,165.188Zm13.738,10.146a1.572,1.572,0,0,1-2.145-.574l-4.811-8.334a11.443,11.443,0,0,0,2.718-1.571l4.812,8.335a1.569,1.569,0,0,1-.574,2.145Z" transform="translate(-261.182 -128.444)"/>
        <path id="Trazado_1298279" data-name="Trazado 1298279" d="M338.485,181.978a8.25,8.25,0,0,0-.413-5.976.872.872,0,1,0-1.577.743,6.529,6.529,0,1,1-1.968-2.432.872.872,0,1,0,1.052-1.39,8.278,8.278,0,1,0,2.906,9.056Z" transform="translate(-284.838 -152.1)"/>
      </g>
    </g>
  </g>
</svg>
